{
  "asset": {
    "version": "2.0",
    "generator": "generated with dis3tool v1.1 by root.ext@gmail.com"
  },
  "scenes": [
    {
      "nodes": [
        0,
        1,
        2,
        3
      ]
    }
  ],
  "scene": 0,
  "nodes": [
    {
      "name": "neutrals_peasant_head",
      "mesh": 0,
      "skin": 0
    },
    {
      "name": "neutrals_peasant",
      "mesh": 1,
      "skin": 1
    },
    {
      "name": "weapon_neutrals_peasant",
      "mesh": 2,
      "skin": 2
    },
    {
      "name": "Root",
      "rotation": [
        0.0,
        0.0,
        0.0,
        1.0
      ],
      "translation": [
        0.0,
        0.0,
        0.0
      ],
      "children": [
        4
      ]
    },
    {
      "name": "Hips",
      "rotation": [
        -0.380022466,
        -0.3792297,
        0.6177776,
        0.5745595
      ],
      "translation": [
        0.03587299,
        0.843813658,
        0.0332855359
      ],
      "children": [
        5,
        40,
        44
      ]
    },
    {
      "name": "Spine",
      "rotation": [
        -0.01587732,
        -0.0374786742,
        -0.00612369459,
        0.9991525
      ],
      "translation": [
        0.09262568,
        1.16748842E-08,
        -1.779975E-08
      ],
      "children": [
        6
      ]
    },
    {
      "name": "Spine1",
      "rotation": [
        -0.0352366939,
        0.036743395,
        0.12513268,
        0.990833
      ],
      "translation": [
        0.178427935,
        -5.445367E-09,
        2.27746266E-09
      ],
      "children": [
        7,
        15,
        26
      ]
    },
    {
      "name": "Neck",
      "rotation": [
        -0.0359862037,
        0.007591817,
        0.294002324,
        0.9550967
      ],
      "translation": [
        0.3373463,
        8.890306E-09,
        -1.26061238E-07
      ],
      "children": [
        8
      ]
    },
    {
      "name": "Head",
      "rotation": [
        -0.0529041328,
        0.0339799374,
        -0.1392424,
        0.988260031
      ],
      "translation": [
        0.07311745,
        1.39351556E-07,
        8.144643E-09
      ],
      "children": [
        9,
        10,
        11,
        12,
        13,
        14
      ]
    },
    {
      "name": "hair3",
      "rotation": [
        0.06796313,
        0.9423133,
        0.221134141,
        0.241921961
      ],
      "translation": [
        0.1881837,
        0.0502180047,
        -0.0351424329
      ]
    },
    {
      "name": "hair1",
      "rotation": [
        0.0610326752,
        0.9829955,
        0.0163481552,
        -0.172416642
      ],
      "translation": [
        0.18226546,
        0.0177011155,
        0.0460769869
      ]
    },
    {
      "name": "hair2",
      "rotation": [
        -0.07353484,
        0.989602149,
        0.0216086321,
        -0.121709473
      ],
      "translation": [
        0.170136422,
        -0.048000887,
        0.04591907
      ]
    },
    {
      "name": "hair4",
      "rotation": [
        -0.0534509867,
        0.985461354,
        -0.0610957555,
        0.149251714
      ],
      "translation": [
        0.1700813,
        -0.0477601141,
        -0.05002514
      ]
    },
    {
      "name": "Vek_up",
      "rotation": [
        0.5649406,
        0.4259826,
        0.426728219,
        0.5632798
      ],
      "translation": [
        0.08875095,
        0.0564666539,
        0.00205256371
      ]
    },
    {
      "name": "Veko_down",
      "rotation": [
        0.5258526,
        0.473174,
        0.474060655,
        0.524262965
      ],
      "translation": [
        0.08334913,
        0.0568577573,
        0.00205666479
      ]
    },
    {
      "name": "RightShoulder",
      "rotation": [
        0.01276938,
        -0.5740089,
        0.0717205554,
        0.815602064
      ],
      "translation": [
        0.22647351,
        0.00421131635,
        0.0367740244
      ],
      "children": [
        16
      ]
    },
    {
      "name": "RightArm",
      "rotation": [
        -0.121656917,
        -0.6923654,
        -0.01062849,
        0.711137652
      ],
      "translation": [
        0.114445634,
        -2.0381389E-08,
        9.409001E-07
      ],
      "children": [
        17
      ]
    },
    {
      "name": "RightForeArm",
      "rotation": [
        -0.3486105,
        -0.0451618023,
        0.137208253,
        0.9260696
      ],
      "translation": [
        0.2655566,
        -1.35877034E-08,
        -2.02792376E-06
      ],
      "children": [
        18
      ]
    },
    {
      "name": "RightHand",
      "rotation": [
        0.0005216036,
        -0.06680032,
        0.176924422,
        0.981954634
      ],
      "translation": [
        0.234181434,
        -1.32588518E-08,
        1.28383078E-07
      ],
      "children": [
        19
      ]
    },
    {
      "name": "Weapon1",
      "rotation": [
        0.8155506,
        0.5782909,
        -0.0133922156,
        0.0166524071
      ],
      "translation": [
        0.07139559,
        0.003614758,
        0.0402521566
      ],
      "children": [
        20
      ]
    },
    {
      "name": "Trail6",
      "rotation": [
        -3.35418747E-07,
        5.377253E-08,
        0.9862855,
        -0.165047735
      ],
      "translation": [
        0.0657320246,
        -0.04079343,
        0.0157128219
      ],
      "children": [
        21
      ]
    },
    {
      "name": "Trail5",
      "rotation": [
        -3.77350453E-08,
        -9.986726E-09,
        0.30070585,
        0.9537169
      ],
      "translation": [
        -0.0324227437,
        0.09049059,
        -0.0006078909
      ],
      "children": [
        22
      ]
    },
    {
      "name": "Trail4",
      "rotation": [
        -4.27282849E-08,
        -7.15993451E-08,
        0.42261833,
        0.9063077
      ],
      "translation": [
        -0.0438826419,
        0.107294917,
        -0.00190347887
      ],
      "children": [
        23
      ]
    },
    {
      "name": "Trail3",
      "rotation": [
        -1.809449E-07,
        -1.58395778E-07,
        0.537299752,
        0.843391359
      ],
      "translation": [
        -0.0355565324,
        0.109138578,
        -0.00151222176
      ],
      "children": [
        24
      ]
    },
    {
      "name": "Trail2",
      "rotation": [
        -1.35385179E-07,
        -2.48637217E-08,
        0.173648223,
        0.98480767
      ],
      "translation": [
        -0.00223921,
        0.10240487,
        -0.0013389705
      ],
      "children": [
        25
      ]
    },
    {
      "name": "Trail1",
      "rotation": [
        -1.07333406E-07,
        -1.49050674E-08,
        0.258819073,
        0.9659257
      ],
      "translation": [
        -0.02754071,
        0.115966,
        -0.00267792935
      ]
    },
    {
      "name": "LeftShoulder",
      "rotation": [
        0.12812762,
        0.5734169,
        0.15342845,
        0.79450357
      ],
      "translation": [
        0.2255728,
        0.004297241,
        -0.0276166573
      ],
      "children": [
        27
      ]
    },
    {
      "name": "LeftArm",
      "rotation": [
        0.123477645,
        0.702172339,
        -0.195064023,
        0.67354095
      ],
      "translation": [
        0.11760956,
        4.54132E-08,
        -1.08469294E-06
      ],
      "children": [
        28
      ]
    },
    {
      "name": "LeftForeArm",
      "rotation": [
        -0.210313663,
        -0.042978,
        0.200233817,
        0.9559433
      ],
      "translation": [
        0.264428228,
        2.84776E-08,
        1.8837228E-06
      ],
      "children": [
        29
      ]
    },
    {
      "name": "LeftHand",
      "rotation": [
        0.00163456786,
        0.0954089239,
        0.01758796,
        0.995281458
      ],
      "translation": [
        0.235298842,
        -4.84338756E-08,
        -1.601961E-07
      ],
      "children": [
        30,
        32,
        34,
        36,
        38
      ]
    },
    {
      "name": "LeftHandThumb1",
      "rotation": [
        0.03158951,
        0.0614051037,
        0.189306542,
        0.9794869
      ],
      "translation": [
        0.0361766964,
        0.0360849,
        -0.01632811
      ],
      "children": [
        31
      ]
    },
    {
      "name": "LeftHandThumb2",
      "rotation": [
        0.0271261446,
        0.0667960644,
        -0.143901035,
        0.9869625
      ],
      "translation": [
        0.0394057222,
        3.31980665E-09,
        1.2184266E-07
      ]
    },
    {
      "name": "LeftHandMiddle1",
      "rotation": [
        0.708716452,
        0.135960773,
        -0.14682889,
        0.67651844
      ],
      "translation": [
        0.08572439,
        0.00222853455,
        0.007691826
      ],
      "children": [
        33
      ]
    },
    {
      "name": "LeftHandMiddle2",
      "rotation": [
        -0.00687928172,
        -0.008135979,
        -0.19992429,
        0.979753435
      ],
      "translation": [
        0.04345955,
        -4.096326E-08,
        -4.92434937E-09
      ]
    },
    {
      "name": "LeftHandPinky1",
      "rotation": [
        0.7803025,
        0.12583296,
        -0.1556745,
        0.59250313
      ],
      "translation": [
        0.07854118,
        -0.0326233059,
        -0.000203995325
      ],
      "children": [
        35
      ]
    },
    {
      "name": "LeftHandPinky2",
      "rotation": [
        -0.0480078273,
        -0.04375466,
        -0.195247158,
        0.97860074
      ],
      "translation": [
        0.02683314,
        -1.01639E-07,
        6.757161E-08
      ]
    },
    {
      "name": "LeftHandIndex1",
      "rotation": [
        0.6637688,
        0.116948187,
        -0.116609119,
        0.729477
      ],
      "translation": [
        0.08591059,
        0.022041535,
        0.006023167
      ],
      "children": [
        37
      ]
    },
    {
      "name": "LeftHandIndex2",
      "rotation": [
        0.0439671725,
        0.007780336,
        -0.164808169,
        0.9853145
      ],
      "translation": [
        0.039857097,
        1.6512179E-07,
        -9.958553E-09
      ]
    },
    {
      "name": "LeftHandRing1",
      "rotation": [
        0.7114218,
        0.161203876,
        -0.17090556,
        0.6623321
      ],
      "translation": [
        0.084319815,
        -0.01593821,
        0.00466201035
      ],
      "children": [
        39
      ]
    },
    {
      "name": "LeftHandRing2",
      "rotation": [
        -0.0158816241,
        -0.0127688367,
        -0.234585583,
        0.9718819
      ],
      "translation": [
        0.0344085731,
        -2.25372165E-08,
        -2.38306868E-08
      ]
    },
    {
      "name": "LeftUpLeg",
      "rotation": [
        0.2754977,
        0.958930552,
        -0.005344841,
        0.0672655255
      ],
      "translation": [
        -0.00249465578,
        -0.02820044,
        -0.09917073
      ],
      "children": [
        41
      ]
    },
    {
      "name": "LeftLeg",
      "rotation": [
        0.07413522,
        -0.03798656,
        -0.410388738,
        0.9080981
      ],
      "translation": [
        0.388745159,
        -1.77974311E-08,
        4.03372553E-07
      ],
      "children": [
        42
      ]
    },
    {
      "name": "LeftFoot",
      "rotation": [
        0.0425579436,
        0.0296715423,
        0.6610669,
        0.7485313
      ],
      "translation": [
        0.459789,
        4.126332E-08,
        1.66673217E-07
      ],
      "children": [
        43
      ]
    },
    {
      "name": "LeftToeBase",
      "rotation": [
        -0.0652081147,
        0.08708704,
        0.182721511,
        0.9771267
      ],
      "translation": [
        0.165927857,
        3.93803745E-08,
        -3.45324018E-08
      ]
    },
    {
      "name": "RightUpLeg",
      "rotation": [
        0.227953091,
        0.9563572,
        0.109733365,
        -0.146208078
      ],
      "translation": [
        -0.00249477,
        -0.0282004979,
        0.0908292755
      ],
      "children": [
        45
      ]
    },
    {
      "name": "RightLeg",
      "rotation": [
        -0.0544433743,
        0.0262277089,
        -0.417021662,
        0.9068852
      ],
      "translation": [
        0.392320067,
        -1.32141214E-08,
        -3.753415E-07
      ],
      "children": [
        46
      ]
    },
    {
      "name": "RightFoot",
      "rotation": [
        -0.04018175,
        -0.03425798,
        0.696968853,
        0.715154469
      ],
      "translation": [
        0.45776698,
        5.754554E-09,
        -1.2559569E-07
      ],
      "children": [
        47
      ]
    },
    {
      "name": "RightToeBase",
      "rotation": [
        0.07971893,
        -0.135706738,
        0.200872481,
        0.9668913
      ],
      "translation": [
        0.166282356,
        3.235418E-08,
        3.40246622E-08
      ]
    }
  ],
  "accessors": [
    {
      "bufferView": 0,
      "byteOffset": 0,
      "componentType": 5125,
      "count": 4560,
      "type": "SCALAR"
    },
    {
      "bufferView": 1,
      "byteOffset": 0,
      "componentType": 5126,
      "count": 993,
      "type": "VEC3",
      "min": [
        -0.111586012,
        1.56905842,
        -0.232006118
      ],
      "max": [
        0.0889840648,
        1.78989232,
        0.01971651
      ]
    },
    {
      "bufferView": 1,
      "byteOffset": 12,
      "componentType": 5126,
      "count": 993,
      "type": "VEC3"
    },
    {
      "bufferView": 1,
      "byteOffset": 24,
      "componentType": 5126,
      "count": 993,
      "type": "VEC2"
    },
    {
      "bufferView": 1,
      "byteOffset": 32,
      "componentType": 5126,
      "count": 993,
      "type": "VEC4"
    },
    {
      "bufferView": 1,
      "byteOffset": 48,
      "componentType": 5121,
      "count": 993,
      "type": "VEC4"
    },
    {
      "bufferView": 2,
      "byteOffset": 0,
      "componentType": 5126,
      "count": 8,
      "type": "MAT4"
    },
    {
      "bufferView": 3,
      "byteOffset": 0,
      "componentType": 5125,
      "count": 7902,
      "type": "SCALAR"
    },
    {
      "bufferView": 4,
      "byteOffset": 0,
      "componentType": 5126,
      "count": 1947,
      "type": "VEC3",
      "min": [
        -0.569623649,
        -0.008102315,
        -0.247257337
      ],
      "max": [
        0.5539097,
        1.635708,
        0.100836352
      ]
    },
    {
      "bufferView": 4,
      "byteOffset": 12,
      "componentType": 5126,
      "count": 1947,
      "type": "VEC3"
    },
    {
      "bufferView": 4,
      "byteOffset": 24,
      "componentType": 5126,
      "count": 1947,
      "type": "VEC2"
    },
    {
      "bufferView": 4,
      "byteOffset": 32,
      "componentType": 5126,
      "count": 1947,
      "type": "VEC4"
    },
    {
      "bufferView": 4,
      "byteOffset": 48,
      "componentType": 5121,
      "count": 1947,
      "type": "VEC4"
    },
    {
      "bufferView": 5,
      "byteOffset": 0,
      "componentType": 5126,
      "count": 31,
      "type": "MAT4"
    },
    {
      "bufferView": 6,
      "byteOffset": 0,
      "componentType": 5125,
      "count": 360,
      "type": "SCALAR"
    },
    {
      "bufferView": 7,
      "byteOffset": 0,
      "componentType": 5126,
      "count": 132,
      "type": "VEC3",
      "min": [
        -0.6139392,
        0.9347365,
        -0.449627131
      ],
      "max": [
        -0.4311143,
        1.15197444,
        0.03392237
      ]
    },
    {
      "bufferView": 7,
      "byteOffset": 12,
      "componentType": 5126,
      "count": 132,
      "type": "VEC3"
    },
    {
      "bufferView": 7,
      "byteOffset": 24,
      "componentType": 5126,
      "count": 132,
      "type": "VEC2"
    },
    {
      "bufferView": 7,
      "byteOffset": 32,
      "componentType": 5126,
      "count": 132,
      "type": "VEC4"
    },
    {
      "bufferView": 7,
      "byteOffset": 48,
      "componentType": 5121,
      "count": 132,
      "type": "VEC4"
    },
    {
      "bufferView": 8,
      "byteOffset": 0,
      "componentType": 5126,
      "count": 1,
      "type": "MAT4"
    },
    {
      "bufferView": 9,
      "byteOffset": 0,
      "componentType": 5126,
      "count": 279,
      "type": "SCALAR",
      "min": [
        0.0
      ],
      "max": [
        9.266667
      ]
    },
    {
      "bufferView": 10,
      "byteOffset": 0,
      "componentType": 5126,
      "count": 279,
      "type": "VEC4"
    },
    {
      "bufferView": 11,
      "byteOffset": 0,
      "componentType": 5126,
      "count": 279,
      "type": "VEC3"
    },
    {
      "bufferView": 10,
      "byteOffset": 4464,
      "componentType": 5126,
      "count": 279,
      "type": "VEC4"
    },
    {
      "bufferView": 11,
      "byteOffset": 3348,
      "componentType": 5126,
      "count": 279,
      "type": "VEC3"
    },
    {
      "bufferView": 10,
      "byteOffset": 8928,
      "componentType": 5126,
      "count": 279,
      "type": "VEC4"
    },
    {
      "bufferView": 11,
      "byteOffset": 6696,
      "componentType": 5126,
      "count": 279,
      "type": "VEC3"
    },
    {
      "bufferView": 10,
      "byteOffset": 13392,
      "componentType": 5126,
      "count": 279,
      "type": "VEC4"
    },
    {
      "bufferView": 11,
      "byteOffset": 10044,
      "componentType": 5126,
      "count": 279,
      "type": "VEC3"
    },
    {
      "bufferView": 10,
      "byteOffset": 17856,
      "componentType": 5126,
      "count": 279,
      "type": "VEC4"
    },
    {
      "bufferView": 11,
      "byteOffset": 13392,
      "componentType": 5126,
      "count": 279,
      "type": "VEC3"
    },
    {
      "bufferView": 10,
      "byteOffset": 22320,
      "componentType": 5126,
      "count": 279,
      "type": "VEC4"
    },
    {
      "bufferView": 11,
      "byteOffset": 16740,
      "componentType": 5126,
      "count": 279,
      "type": "VEC3"
    },
    {
      "bufferView": 10,
      "byteOffset": 26784,
      "componentType": 5126,
      "count": 279,
      "type": "VEC4"
    },
    {
      "bufferView": 11,
      "byteOffset": 20088,
      "componentType": 5126,
      "count": 279,
      "type": "VEC3"
    },
    {
      "bufferView": 10,
      "byteOffset": 31248,
      "componentType": 5126,
      "count": 279,
      "type": "VEC4"
    },
    {
      "bufferView": 11,
      "byteOffset": 23436,
      "componentType": 5126,
      "count": 279,
      "type": "VEC3"
    },
    {
      "bufferView": 10,
      "byteOffset": 35712,
      "componentType": 5126,
      "count": 279,
      "type": "VEC4"
    },
    {
      "bufferView": 11,
      "byteOffset": 26784,
      "componentType": 5126,
      "count": 279,
      "type": "VEC3"
    },
    {
      "bufferView": 10,
      "byteOffset": 40176,
      "componentType": 5126,
      "count": 279,
      "type": "VEC4"
    },
    {
      "bufferView": 11,
      "byteOffset": 30132,
      "componentType": 5126,
      "count": 279,
      "type": "VEC3"
    },
    {
      "bufferView": 10,
      "byteOffset": 44640,
      "componentType": 5126,
      "count": 279,
      "type": "VEC4"
    },
    {
      "bufferView": 11,
      "byteOffset": 33480,
      "componentType": 5126,
      "count": 279,
      "type": "VEC3"
    },
    {
      "bufferView": 10,
      "byteOffset": 49104,
      "componentType": 5126,
      "count": 279,
      "type": "VEC4"
    },
    {
      "bufferView": 11,
      "byteOffset": 36828,
      "componentType": 5126,
      "count": 279,
      "type": "VEC3"
    },
    {
      "bufferView": 10,
      "byteOffset": 53568,
      "componentType": 5126,
      "count": 279,
      "type": "VEC4"
    },
    {
      "bufferView": 11,
      "byteOffset": 40176,
      "componentType": 5126,
      "count": 279,
      "type": "VEC3"
    },
    {
      "bufferView": 10,
      "byteOffset": 58032,
      "componentType": 5126,
      "count": 279,
      "type": "VEC4"
    },
    {
      "bufferView": 11,
      "byteOffset": 43524,
      "componentType": 5126,
      "count": 279,
      "type": "VEC3"
    },
    {
      "bufferView": 10,
      "byteOffset": 62496,
      "componentType": 5126,
      "count": 279,
      "type": "VEC4"
    },
    {
      "bufferView": 11,
      "byteOffset": 46872,
      "componentType": 5126,
      "count": 279,
      "type": "VEC3"
    },
    {
      "bufferView": 10,
      "byteOffset": 66960,
      "componentType": 5126,
      "count": 279,
      "type": "VEC4"
    },
    {
      "bufferView": 11,
      "byteOffset": 50220,
      "componentType": 5126,
      "count": 279,
      "type": "VEC3"
    },
    {
      "bufferView": 10,
      "byteOffset": 71424,
      "componentType": 5126,
      "count": 279,
      "type": "VEC4"
    },
    {
      "bufferView": 11,
      "byteOffset": 53568,
      "componentType": 5126,
      "count": 279,
      "type": "VEC3"
    },
    {
      "bufferView": 10,
      "byteOffset": 75888,
      "componentType": 5126,
      "count": 279,
      "type": "VEC4"
    },
    {
      "bufferView": 11,
      "byteOffset": 56916,
      "componentType": 5126,
      "count": 279,
      "type": "VEC3"
    },
    {
      "bufferView": 10,
      "byteOffset": 80352,
      "componentType": 5126,
      "count": 279,
      "type": "VEC4"
    },
    {
      "bufferView": 11,
      "byteOffset": 60264,
      "componentType": 5126,
      "count": 279,
      "type": "VEC3"
    },
    {
      "bufferView": 10,
      "byteOffset": 84816,
      "componentType": 5126,
      "count": 279,
      "type": "VEC4"
    },
    {
      "bufferView": 11,
      "byteOffset": 63612,
      "componentType": 5126,
      "count": 279,
      "type": "VEC3"
    },
    {
      "bufferView": 10,
      "byteOffset": 89280,
      "componentType": 5126,
      "count": 279,
      "type": "VEC4"
    },
    {
      "bufferView": 11,
      "byteOffset": 66960,
      "componentType": 5126,
      "count": 279,
      "type": "VEC3"
    },
    {
      "bufferView": 10,
      "byteOffset": 93744,
      "componentType": 5126,
      "count": 279,
      "type": "VEC4"
    },
    {
      "bufferView": 11,
      "byteOffset": 70308,
      "componentType": 5126,
      "count": 279,
      "type": "VEC3"
    },
    {
      "bufferView": 10,
      "byteOffset": 98208,
      "componentType": 5126,
      "count": 279,
      "type": "VEC4"
    },
    {
      "bufferView": 11,
      "byteOffset": 73656,
      "componentType": 5126,
      "count": 279,
      "type": "VEC3"
    },
    {
      "bufferView": 10,
      "byteOffset": 102672,
      "componentType": 5126,
      "count": 279,
      "type": "VEC4"
    },
    {
      "bufferView": 11,
      "byteOffset": 77004,
      "componentType": 5126,
      "count": 279,
      "type": "VEC3"
    },
    {
      "bufferView": 10,
      "byteOffset": 107136,
      "componentType": 5126,
      "count": 279,
      "type": "VEC4"
    },
    {
      "bufferView": 11,
      "byteOffset": 80352,
      "componentType": 5126,
      "count": 279,
      "type": "VEC3"
    },
    {
      "bufferView": 10,
      "byteOffset": 111600,
      "componentType": 5126,
      "count": 279,
      "type": "VEC4"
    },
    {
      "bufferView": 11,
      "byteOffset": 83700,
      "componentType": 5126,
      "count": 279,
      "type": "VEC3"
    },
    {
      "bufferView": 10,
      "byteOffset": 116064,
      "componentType": 5126,
      "count": 279,
      "type": "VEC4"
    },
    {
      "bufferView": 11,
      "byteOffset": 87048,
      "componentType": 5126,
      "count": 279,
      "type": "VEC3"
    },
    {
      "bufferView": 10,
      "byteOffset": 120528,
      "componentType": 5126,
      "count": 279,
      "type": "VEC4"
    },
    {
      "bufferView": 11,
      "byteOffset": 90396,
      "componentType": 5126,
      "count": 279,
      "type": "VEC3"
    },
    {
      "bufferView": 10,
      "byteOffset": 124992,
      "componentType": 5126,
      "count": 279,
      "type": "VEC4"
    },
    {
      "bufferView": 11,
      "byteOffset": 93744,
      "componentType": 5126,
      "count": 279,
      "type": "VEC3"
    },
    {
      "bufferView": 10,
      "byteOffset": 129456,
      "componentType": 5126,
      "count": 279,
      "type": "VEC4"
    },
    {
      "bufferView": 11,
      "byteOffset": 97092,
      "componentType": 5126,
      "count": 279,
      "type": "VEC3"
    },
    {
      "bufferView": 10,
      "byteOffset": 133920,
      "componentType": 5126,
      "count": 279,
      "type": "VEC4"
    },
    {
      "bufferView": 11,
      "byteOffset": 100440,
      "componentType": 5126,
      "count": 279,
      "type": "VEC3"
    },
    {
      "bufferView": 10,
      "byteOffset": 138384,
      "componentType": 5126,
      "count": 279,
      "type": "VEC4"
    },
    {
      "bufferView": 11,
      "byteOffset": 103788,
      "componentType": 5126,
      "count": 279,
      "type": "VEC3"
    },
    {
      "bufferView": 10,
      "byteOffset": 142848,
      "componentType": 5126,
      "count": 279,
      "type": "VEC4"
    },
    {
      "bufferView": 11,
      "byteOffset": 107136,
      "componentType": 5126,
      "count": 279,
      "type": "VEC3"
    },
    {
      "bufferView": 10,
      "byteOffset": 147312,
      "componentType": 5126,
      "count": 279,
      "type": "VEC4"
    },
    {
      "bufferView": 11,
      "byteOffset": 110484,
      "componentType": 5126,
      "count": 279,
      "type": "VEC3"
    },
    {
      "bufferView": 10,
      "byteOffset": 151776,
      "componentType": 5126,
      "count": 279,
      "type": "VEC4"
    },
    {
      "bufferView": 11,
      "byteOffset": 113832,
      "componentType": 5126,
      "count": 279,
      "type": "VEC3"
    },
    {
      "bufferView": 10,
      "byteOffset": 156240,
      "componentType": 5126,
      "count": 279,
      "type": "VEC4"
    },
    {
      "bufferView": 11,
      "byteOffset": 117180,
      "componentType": 5126,
      "count": 279,
      "type": "VEC3"
    },
    {
      "bufferView": 10,
      "byteOffset": 160704,
      "componentType": 5126,
      "count": 279,
      "type": "VEC4"
    },
    {
      "bufferView": 11,
      "byteOffset": 120528,
      "componentType": 5126,
      "count": 279,
      "type": "VEC3"
    },
    {
      "bufferView": 10,
      "byteOffset": 165168,
      "componentType": 5126,
      "count": 279,
      "type": "VEC4"
    },
    {
      "bufferView": 11,
      "byteOffset": 123876,
      "componentType": 5126,
      "count": 279,
      "type": "VEC3"
    },
    {
      "bufferView": 10,
      "byteOffset": 169632,
      "componentType": 5126,
      "count": 279,
      "type": "VEC4"
    },
    {
      "bufferView": 11,
      "byteOffset": 127224,
      "componentType": 5126,
      "count": 279,
      "type": "VEC3"
    },
    {
      "bufferView": 10,
      "byteOffset": 174096,
      "componentType": 5126,
      "count": 279,
      "type": "VEC4"
    },
    {
      "bufferView": 11,
      "byteOffset": 130572,
      "componentType": 5126,
      "count": 279,
      "type": "VEC3"
    },
    {
      "bufferView": 10,
      "byteOffset": 178560,
      "componentType": 5126,
      "count": 279,
      "type": "VEC4"
    },
    {
      "bufferView": 11,
      "byteOffset": 133920,
      "componentType": 5126,
      "count": 279,
      "type": "VEC3"
    },
    {
      "bufferView": 10,
      "byteOffset": 183024,
      "componentType": 5126,
      "count": 279,
      "type": "VEC4"
    },
    {
      "bufferView": 11,
      "byteOffset": 137268,
      "componentType": 5126,
      "count": 279,
      "type": "VEC3"
    },
    {
      "bufferView": 10,
      "byteOffset": 187488,
      "componentType": 5126,
      "count": 279,
      "type": "VEC4"
    },
    {
      "bufferView": 11,
      "byteOffset": 140616,
      "componentType": 5126,
      "count": 279,
      "type": "VEC3"
    },
    {
      "bufferView": 10,
      "byteOffset": 191952,
      "componentType": 5126,
      "count": 279,
      "type": "VEC4"
    },
    {
      "bufferView": 11,
      "byteOffset": 143964,
      "componentType": 5126,
      "count": 279,
      "type": "VEC3"
    },
    {
      "bufferView": 10,
      "byteOffset": 196416,
      "componentType": 5126,
      "count": 279,
      "type": "VEC4"
    },
    {
      "bufferView": 11,
      "byteOffset": 147312,
      "componentType": 5126,
      "count": 279,
      "type": "VEC3"
    }
  ],
  "skins": [
    {
      "name": "skin0",
      "inverseBindMatrices": 6,
      "joints": [
        8,
        12,
        11,
        9,
        10,
        14,
        13,
        7
      ]
    },
    {
      "name": "skin1",
      "inverseBindMatrices": 13,
      "joints": [
        6,
        27,
        26,
        7,
        5,
        4,
        8,
        40,
        44,
        15,
        16,
        28,
        17,
        29,
        30,
        34,
        38,
        36,
        32,
        37,
        33,
        39,
        35,
        31,
        18,
        41,
        45,
        46,
        47,
        42,
        43
      ]
    },
    {
      "name": "skin2",
      "inverseBindMatrices": 20,
      "joints": [
        19
      ]
    }
  ],
  "meshes": [
    {
      "name": "neutrals_peasant_head",
      "primitives": [
        {
          "attributes": {
            "POSITION": 1,
            "NORMAL": 2,
            "TEXCOORD_0": 3,
            "WEIGHTS_0": 4,
            "JOINTS_0": 5
          },
          "indices": 0,
          "mode": 4,
          "material": 0
        }
      ]
    },
    {
      "name": "neutrals_peasant",
      "primitives": [
        {
          "attributes": {
            "POSITION": 8,
            "NORMAL": 9,
            "TEXCOORD_0": 10,
            "WEIGHTS_0": 11,
            "JOINTS_0": 12
          },
          "indices": 7,
          "mode": 4,
          "material": 1
        }
      ]
    },
    {
      "name": "weapon_neutrals_peasant",
      "primitives": [
        {
          "attributes": {
            "POSITION": 15,
            "NORMAL": 16,
            "TEXCOORD_0": 17,
            "WEIGHTS_0": 18,
            "JOINTS_0": 19
          },
          "indices": 14,
          "mode": 4,
          "material": 2
        }
      ]
    }
  ],
  "animations": [
    {
      "channels": [
        {
          "sampler": 0,
          "target": {
            "node": 3,
            "path": "rotation"
          }
        },
        {
          "sampler": 1,
          "target": {
            "node": 3,
            "path": "translation"
          }
        },
        {
          "sampler": 2,
          "target": {
            "node": 4,
            "path": "rotation"
          }
        },
        {
          "sampler": 3,
          "target": {
            "node": 4,
            "path": "translation"
          }
        },
        {
          "sampler": 4,
          "target": {
            "node": 5,
            "path": "rotation"
          }
        },
        {
          "sampler": 5,
          "target": {
            "node": 5,
            "path": "translation"
          }
        },
        {
          "sampler": 6,
          "target": {
            "node": 6,
            "path": "rotation"
          }
        },
        {
          "sampler": 7,
          "target": {
            "node": 6,
            "path": "translation"
          }
        },
        {
          "sampler": 8,
          "target": {
            "node": 7,
            "path": "rotation"
          }
        },
        {
          "sampler": 9,
          "target": {
            "node": 7,
            "path": "translation"
          }
        },
        {
          "sampler": 10,
          "target": {
            "node": 8,
            "path": "rotation"
          }
        },
        {
          "sampler": 11,
          "target": {
            "node": 8,
            "path": "translation"
          }
        },
        {
          "sampler": 12,
          "target": {
            "node": 9,
            "path": "rotation"
          }
        },
        {
          "sampler": 13,
          "target": {
            "node": 9,
            "path": "translation"
          }
        },
        {
          "sampler": 14,
          "target": {
            "node": 10,
            "path": "rotation"
          }
        },
        {
          "sampler": 15,
          "target": {
            "node": 10,
            "path": "translation"
          }
        },
        {
          "sampler": 16,
          "target": {
            "node": 11,
            "path": "rotation"
          }
        },
        {
          "sampler": 17,
          "target": {
            "node": 11,
            "path": "translation"
          }
        },
        {
          "sampler": 18,
          "target": {
            "node": 12,
            "path": "rotation"
          }
        },
        {
          "sampler": 19,
          "target": {
            "node": 12,
            "path": "translation"
          }
        },
        {
          "sampler": 20,
          "target": {
            "node": 13,
            "path": "rotation"
          }
        },
        {
          "sampler": 21,
          "target": {
            "node": 13,
            "path": "translation"
          }
        },
        {
          "sampler": 22,
          "target": {
            "node": 14,
            "path": "rotation"
          }
        },
        {
          "sampler": 23,
          "target": {
            "node": 14,
            "path": "translation"
          }
        },
        {
          "sampler": 24,
          "target": {
            "node": 15,
            "path": "rotation"
          }
        },
        {
          "sampler": 25,
          "target": {
            "node": 15,
            "path": "translation"
          }
        },
        {
          "sampler": 26,
          "target": {
            "node": 16,
            "path": "rotation"
          }
        },
        {
          "sampler": 27,
          "target": {
            "node": 16,
            "path": "translation"
          }
        },
        {
          "sampler": 28,
          "target": {
            "node": 17,
            "path": "rotation"
          }
        },
        {
          "sampler": 29,
          "target": {
            "node": 17,
            "path": "translation"
          }
        },
        {
          "sampler": 30,
          "target": {
            "node": 18,
            "path": "rotation"
          }
        },
        {
          "sampler": 31,
          "target": {
            "node": 18,
            "path": "translation"
          }
        },
        {
          "sampler": 32,
          "target": {
            "node": 19,
            "path": "rotation"
          }
        },
        {
          "sampler": 33,
          "target": {
            "node": 19,
            "path": "translation"
          }
        },
        {
          "sampler": 34,
          "target": {
            "node": 20,
            "path": "rotation"
          }
        },
        {
          "sampler": 35,
          "target": {
            "node": 20,
            "path": "translation"
          }
        },
        {
          "sampler": 36,
          "target": {
            "node": 21,
            "path": "rotation"
          }
        },
        {
          "sampler": 37,
          "target": {
            "node": 21,
            "path": "translation"
          }
        },
        {
          "sampler": 38,
          "target": {
            "node": 22,
            "path": "rotation"
          }
        },
        {
          "sampler": 39,
          "target": {
            "node": 22,
            "path": "translation"
          }
        },
        {
          "sampler": 40,
          "target": {
            "node": 23,
            "path": "rotation"
          }
        },
        {
          "sampler": 41,
          "target": {
            "node": 23,
            "path": "translation"
          }
        },
        {
          "sampler": 42,
          "target": {
            "node": 24,
            "path": "rotation"
          }
        },
        {
          "sampler": 43,
          "target": {
            "node": 24,
            "path": "translation"
          }
        },
        {
          "sampler": 44,
          "target": {
            "node": 25,
            "path": "rotation"
          }
        },
        {
          "sampler": 45,
          "target": {
            "node": 25,
            "path": "translation"
          }
        },
        {
          "sampler": 46,
          "target": {
            "node": 26,
            "path": "rotation"
          }
        },
        {
          "sampler": 47,
          "target": {
            "node": 26,
            "path": "translation"
          }
        },
        {
          "sampler": 48,
          "target": {
            "node": 27,
            "path": "rotation"
          }
        },
        {
          "sampler": 49,
          "target": {
            "node": 27,
            "path": "translation"
          }
        },
        {
          "sampler": 50,
          "target": {
            "node": 28,
            "path": "rotation"
          }
        },
        {
          "sampler": 51,
          "target": {
            "node": 28,
            "path": "translation"
          }
        },
        {
          "sampler": 52,
          "target": {
            "node": 29,
            "path": "rotation"
          }
        },
        {
          "sampler": 53,
          "target": {
            "node": 29,
            "path": "translation"
          }
        },
        {
          "sampler": 54,
          "target": {
            "node": 30,
            "path": "rotation"
          }
        },
        {
          "sampler": 55,
          "target": {
            "node": 30,
            "path": "translation"
          }
        },
        {
          "sampler": 56,
          "target": {
            "node": 31,
            "path": "rotation"
          }
        },
        {
          "sampler": 57,
          "target": {
            "node": 31,
            "path": "translation"
          }
        },
        {
          "sampler": 58,
          "target": {
            "node": 32,
            "path": "rotation"
          }
        },
        {
          "sampler": 59,
          "target": {
            "node": 32,
            "path": "translation"
          }
        },
        {
          "sampler": 60,
          "target": {
            "node": 33,
            "path": "rotation"
          }
        },
        {
          "sampler": 61,
          "target": {
            "node": 33,
            "path": "translation"
          }
        },
        {
          "sampler": 62,
          "target": {
            "node": 34,
            "path": "rotation"
          }
        },
        {
          "sampler": 63,
          "target": {
            "node": 34,
            "path": "translation"
          }
        },
        {
          "sampler": 64,
          "target": {
            "node": 35,
            "path": "rotation"
          }
        },
        {
          "sampler": 65,
          "target": {
            "node": 35,
            "path": "translation"
          }
        },
        {
          "sampler": 66,
          "target": {
            "node": 36,
            "path": "rotation"
          }
        },
        {
          "sampler": 67,
          "target": {
            "node": 36,
            "path": "translation"
          }
        },
        {
          "sampler": 68,
          "target": {
            "node": 37,
            "path": "rotation"
          }
        },
        {
          "sampler": 69,
          "target": {
            "node": 37,
            "path": "translation"
          }
        },
        {
          "sampler": 70,
          "target": {
            "node": 38,
            "path": "rotation"
          }
        },
        {
          "sampler": 71,
          "target": {
            "node": 38,
            "path": "translation"
          }
        },
        {
          "sampler": 72,
          "target": {
            "node": 39,
            "path": "rotation"
          }
        },
        {
          "sampler": 73,
          "target": {
            "node": 39,
            "path": "translation"
          }
        },
        {
          "sampler": 74,
          "target": {
            "node": 40,
            "path": "rotation"
          }
        },
        {
          "sampler": 75,
          "target": {
            "node": 40,
            "path": "translation"
          }
        },
        {
          "sampler": 76,
          "target": {
            "node": 41,
            "path": "rotation"
          }
        },
        {
          "sampler": 77,
          "target": {
            "node": 41,
            "path": "translation"
          }
        },
        {
          "sampler": 78,
          "target": {
            "node": 42,
            "path": "rotation"
          }
        },
        {
          "sampler": 79,
          "target": {
            "node": 42,
            "path": "translation"
          }
        },
        {
          "sampler": 80,
          "target": {
            "node": 43,
            "path": "rotation"
          }
        },
        {
          "sampler": 81,
          "target": {
            "node": 43,
            "path": "translation"
          }
        },
        {
          "sampler": 82,
          "target": {
            "node": 44,
            "path": "rotation"
          }
        },
        {
          "sampler": 83,
          "target": {
            "node": 44,
            "path": "translation"
          }
        },
        {
          "sampler": 84,
          "target": {
            "node": 45,
            "path": "rotation"
          }
        },
        {
          "sampler": 85,
          "target": {
            "node": 45,
            "path": "translation"
          }
        },
        {
          "sampler": 86,
          "target": {
            "node": 46,
            "path": "rotation"
          }
        },
        {
          "sampler": 87,
          "target": {
            "node": 46,
            "path": "translation"
          }
        },
        {
          "sampler": 88,
          "target": {
            "node": 47,
            "path": "rotation"
          }
        },
        {
          "sampler": 89,
          "target": {
            "node": 47,
            "path": "translation"
          }
        }
      ],
      "samplers": [
        {
          "input": 21,
          "output": 22,
          "interpolation": "LINEAR"
        },
        {
          "input": 21,
          "output": 23,
          "interpolation": "LINEAR"
        },
        {
          "input": 21,
          "output": 24,
          "interpolation": "LINEAR"
        },
        {
          "input": 21,
          "output": 25,
          "interpolation": "LINEAR"
        },
        {
          "input": 21,
          "output": 26,
          "interpolation": "LINEAR"
        },
        {
          "input": 21,
          "output": 27,
          "interpolation": "LINEAR"
        },
        {
          "input": 21,
          "output": 28,
          "interpolation": "LINEAR"
        },
        {
          "input": 21,
          "output": 29,
          "interpolation": "LINEAR"
        },
        {
          "input": 21,
          "output": 30,
          "interpolation": "LINEAR"
        },
        {
          "input": 21,
          "output": 31,
          "interpolation": "LINEAR"
        },
        {
          "input": 21,
          "output": 32,
          "interpolation": "LINEAR"
        },
        {
          "input": 21,
          "output": 33,
          "interpolation": "LINEAR"
        },
        {
          "input": 21,
          "output": 34,
          "interpolation": "LINEAR"
        },
        {
          "input": 21,
          "output": 35,
          "interpolation": "LINEAR"
        },
        {
          "input": 21,
          "output": 36,
          "interpolation": "LINEAR"
        },
        {
          "input": 21,
          "output": 37,
          "interpolation": "LINEAR"
        },
        {
          "input": 21,
          "output": 38,
          "interpolation": "LINEAR"
        },
        {
          "input": 21,
          "output": 39,
          "interpolation": "LINEAR"
        },
        {
          "input": 21,
          "output": 40,
          "interpolation": "LINEAR"
        },
        {
          "input": 21,
          "output": 41,
          "interpolation": "LINEAR"
        },
        {
          "input": 21,
          "output": 42,
          "interpolation": "LINEAR"
        },
        {
          "input": 21,
          "output": 43,
          "interpolation": "LINEAR"
        },
        {
          "input": 21,
          "output": 44,
          "interpolation": "LINEAR"
        },
        {
          "input": 21,
          "output": 45,
          "interpolation": "LINEAR"
        },
        {
          "input": 21,
          "output": 46,
          "interpolation": "LINEAR"
        },
        {
          "input": 21,
          "output": 47,
          "interpolation": "LINEAR"
        },
        {
          "input": 21,
          "output": 48,
          "interpolation": "LINEAR"
        },
        {
          "input": 21,
          "output": 49,
          "interpolation": "LINEAR"
        },
        {
          "input": 21,
          "output": 50,
          "interpolation": "LINEAR"
        },
        {
          "input": 21,
          "output": 51,
          "interpolation": "LINEAR"
        },
        {
          "input": 21,
          "output": 52,
          "interpolation": "LINEAR"
        },
        {
          "input": 21,
          "output": 53,
          "interpolation": "LINEAR"
        },
        {
          "input": 21,
          "output": 54,
          "interpolation": "LINEAR"
        },
        {
          "input": 21,
          "output": 55,
          "interpolation": "LINEAR"
        },
        {
          "input": 21,
          "output": 56,
          "interpolation": "LINEAR"
        },
        {
          "input": 21,
          "output": 57,
          "interpolation": "LINEAR"
        },
        {
          "input": 21,
          "output": 58,
          "interpolation": "LINEAR"
        },
        {
          "input": 21,
          "output": 59,
          "interpolation": "LINEAR"
        },
        {
          "input": 21,
          "output": 60,
          "interpolation": "LINEAR"
        },
        {
          "input": 21,
          "output": 61,
          "interpolation": "LINEAR"
        },
        {
          "input": 21,
          "output": 62,
          "interpolation": "LINEAR"
        },
        {
          "input": 21,
          "output": 63,
          "interpolation": "LINEAR"
        },
        {
          "input": 21,
          "output": 64,
          "interpolation": "LINEAR"
        },
        {
          "input": 21,
          "output": 65,
          "interpolation": "LINEAR"
        },
        {
          "input": 21,
          "output": 66,
          "interpolation": "LINEAR"
        },
        {
          "input": 21,
          "output": 67,
          "interpolation": "LINEAR"
        },
        {
          "input": 21,
          "output": 68,
          "interpolation": "LINEAR"
        },
        {
          "input": 21,
          "output": 69,
          "interpolation": "LINEAR"
        },
        {
          "input": 21,
          "output": 70,
          "interpolation": "LINEAR"
        },
        {
          "input": 21,
          "output": 71,
          "interpolation": "LINEAR"
        },
        {
          "input": 21,
          "output": 72,
          "interpolation": "LINEAR"
        },
        {
          "input": 21,
          "output": 73,
          "interpolation": "LINEAR"
        },
        {
          "input": 21,
          "output": 74,
          "interpolation": "LINEAR"
        },
        {
          "input": 21,
          "output": 75,
          "interpolation": "LINEAR"
        },
        {
          "input": 21,
          "output": 76,
          "interpolation": "LINEAR"
        },
        {
          "input": 21,
          "output": 77,
          "interpolation": "LINEAR"
        },
        {
          "input": 21,
          "output": 78,
          "interpolation": "LINEAR"
        },
        {
          "input": 21,
          "output": 79,
          "interpolation": "LINEAR"
        },
        {
          "input": 21,
          "output": 80,
          "interpolation": "LINEAR"
        },
        {
          "input": 21,
          "output": 81,
          "interpolation": "LINEAR"
        },
        {
          "input": 21,
          "output": 82,
          "interpolation": "LINEAR"
        },
        {
          "input": 21,
          "output": 83,
          "interpolation": "LINEAR"
        },
        {
          "input": 21,
          "output": 84,
          "interpolation": "LINEAR"
        },
        {
          "input": 21,
          "output": 85,
          "interpolation": "LINEAR"
        },
        {
          "input": 21,
          "output": 86,
          "interpolation": "LINEAR"
        },
        {
          "input": 21,
          "output": 87,
          "interpolation": "LINEAR"
        },
        {
          "input": 21,
          "output": 88,
          "interpolation": "LINEAR"
        },
        {
          "input": 21,
          "output": 89,
          "interpolation": "LINEAR"
        },
        {
          "input": 21,
          "output": 90,
          "interpolation": "LINEAR"
        },
        {
          "input": 21,
          "output": 91,
          "interpolation": "LINEAR"
        },
        {
          "input": 21,
          "output": 92,
          "interpolation": "LINEAR"
        },
        {
          "input": 21,
          "output": 93,
          "interpolation": "LINEAR"
        },
        {
          "input": 21,
          "output": 94,
          "interpolation": "LINEAR"
        },
        {
          "input": 21,
          "output": 95,
          "interpolation": "LINEAR"
        },
        {
          "input": 21,
          "output": 96,
          "interpolation": "LINEAR"
        },
        {
          "input": 21,
          "output": 97,
          "interpolation": "LINEAR"
        },
        {
          "input": 21,
          "output": 98,
          "interpolation": "LINEAR"
        },
        {
          "input": 21,
          "output": 99,
          "interpolation": "LINEAR"
        },
        {
          "input": 21,
          "output": 100,
          "interpolation": "LINEAR"
        },
        {
          "input": 21,
          "output": 101,
          "interpolation": "LINEAR"
        },
        {
          "input": 21,
          "output": 102,
          "interpolation": "LINEAR"
        },
        {
          "input": 21,
          "output": 103,
          "interpolation": "LINEAR"
        },
        {
          "input": 21,
          "output": 104,
          "interpolation": "LINEAR"
        },
        {
          "input": 21,
          "output": 105,
          "interpolation": "LINEAR"
        },
        {
          "input": 21,
          "output": 106,
          "interpolation": "LINEAR"
        },
        {
          "input": 21,
          "output": 107,
          "interpolation": "LINEAR"
        },
        {
          "input": 21,
          "output": 108,
          "interpolation": "LINEAR"
        },
        {
          "input": 21,
          "output": 109,
          "interpolation": "LINEAR"
        },
        {
          "input": 21,
          "output": 110,
          "interpolation": "LINEAR"
        },
        {
          "input": 21,
          "output": 111,
          "interpolation": "LINEAR"
        }
      ]
    }
  ],
  "bufferViews": [
    {
      "name": "mesh_indexes_neutrals_peasant_head",
      "buffer": 0,
      "byteOffset": 0,
      "byteLength": 18240,
      "target": 34963
    },
    {
      "name": "mesh_vertexes_neutrals_peasant_head",
      "buffer": 0,
      "byteOffset": 18240,
      "byteLength": 51636,
      "byteStride": 52,
      "target": 34962
    },
    {
      "name": "mesh_bones_neutrals_peasant_head",
      "buffer": 0,
      "byteOffset": 69876,
      "byteLength": 512
    },
    {
      "name": "mesh_indexes_neutrals_peasant",
      "buffer": 0,
      "byteOffset": 70388,
      "byteLength": 31608,
      "target": 34963
    },
    {
      "name": "mesh_vertexes_neutrals_peasant",
      "buffer": 0,
      "byteOffset": 101996,
      "byteLength": 101244,
      "byteStride": 52,
      "target": 34962
    },
    {
      "name": "mesh_bones_neutrals_peasant",
      "buffer": 0,
      "byteOffset": 203240,
      "byteLength": 1984
    },
    {
      "name": "mesh_indexes_weapon_neutrals_peasant",
      "buffer": 0,
      "byteOffset": 205224,
      "byteLength": 1440,
      "target": 34963
    },
    {
      "name": "mesh_vertexes_weapon_neutrals_peasant",
      "buffer": 0,
      "byteOffset": 206664,
      "byteLength": 6864,
      "byteStride": 52,
      "target": 34962
    },
    {
      "name": "mesh_bones_weapon_neutrals_peasant",
      "buffer": 0,
      "byteOffset": 213528,
      "byteLength": 64
    },
    {
      "name": "frames",
      "buffer": 0,
      "byteOffset": 213592,
      "byteLength": 1116
    },
    {
      "name": "bones_rotate",
      "buffer": 0,
      "byteOffset": 214708,
      "byteLength": 200880
    },
    {
      "name": "bones_translate",
      "buffer": 0,
      "byteOffset": 415588,
      "byteLength": 150660
    }
  ],
  "buffers": [
    {
      "uri": "character_neutrals_peasant.bin",
      "byteLength": 566248
    }
  ],
  "images": [
    {
      "uri": "character_neutrals_peasant_head_diffuse.dds"
    },
    {
      "uri": "character_neutrals_peasant_diffuse.dds"
    },
    {
      "uri": "weapon_neutrals_peasant_diffuse.dds"
    }
  ],
  "textures": [
    {
      "source": 0
    },
    {
      "source": 1
    },
    {
      "source": 2
    }
  ],
  "materials": [
    {
      "name": "material0",
      "alphaMode": "MASK",
      "pbrMetallicRoughness": {
        "baseColorTexture": {
          "index": 0,
          "texCoord": 0
        },
        "metallicFactor": 0.0
      },
      "emissiveFactor": [
        0.0,
        0.0,
        0.0
      ]
    },
    {
      "name": "material1",
      "alphaMode": "MASK",
      "pbrMetallicRoughness": {
        "baseColorTexture": {
          "index": 1,
          "texCoord": 0
        },
        "metallicFactor": 0.0
      },
      "emissiveFactor": [
        0.0,
        0.0,
        0.0
      ]
    },
    {
      "name": "material2",
      "alphaMode": "MASK",
      "pbrMetallicRoughness": {
        "baseColorTexture": {
          "index": 2,
          "texCoord": 0
        },
        "metallicFactor": 0.0
      },
      "emissiveFactor": [
        0.0,
        0.0,
        0.0
      ]
    }
  ]
}