{
  "asset": {
    "version": "2.0",
    "generator": "generated with dis3tool v1.1 by root.ext@gmail.com"
  },
  "scenes": [
    {
      "nodes": [
        0,
        1,
        2,
        3
      ]
    }
  ],
  "scene": 0,
  "nodes": [
    {
      "name": "neutrals_thug",
      "mesh": 0,
      "skin": 0
    },
    {
      "name": "weapon_neutrals_thug",
      "mesh": 1,
      "skin": 1
    },
    {
      "name": "neutrals_thug_cloth",
      "mesh": 2
    },
    {
      "name": "Root",
      "rotation": [
        0.0,
        0.0,
        0.0,
        1.0
      ],
      "translation": [
        0.0,
        0.0,
        0.0
      ],
      "children": [
        4
      ]
    },
    {
      "name": "Hips",
      "rotation": [
        -0.434996784,
        -0.4172416,
        0.5940895,
        0.532677
      ],
      "translation": [
        -0.0216167532,
        0.7744013,
        0.217233539
      ],
      "children": [
        5,
        44,
        48,
        52
      ]
    },
    {
      "name": "Spine",
      "rotation": [
        0.03200835,
        0.0400800966,
        0.1387608,
        0.9889966
      ],
      "translation": [
        0.102308556,
        -0.000378669618,
        0.000463890319
      ],
      "children": [
        6
      ]
    },
    {
      "name": "Spine1",
      "rotation": [
        -0.00323704886,
        0.07091355,
        0.3147588,
        0.946513236
      ],
      "translation": [
        0.232407,
        -5.07290281E-08,
        6.30076435E-09
      ],
      "children": [
        7,
        10,
        30
      ]
    },
    {
      "name": "Neck",
      "rotation": [
        -0.06757206,
        0.128364444,
        -0.07001501,
        0.986941755
      ],
      "translation": [
        0.261873037,
        4.70788635E-08,
        -1.14528675E-07
      ],
      "children": [
        8
      ]
    },
    {
      "name": "Head",
      "rotation": [
        -0.0346600823,
        -0.108861685,
        -0.245837674,
        0.9625546
      ],
      "translation": [
        0.05285793,
        8.33840161E-08,
        -3.23778E-08
      ],
      "children": [
        9
      ]
    },
    {
      "name": "End",
      "rotation": [
        -0.307273984,
        0.9515359,
        -0.003529487,
        0.0122226682
      ],
      "translation": [
        0.127880156,
        -0.168296278,
        0.000229335245
      ]
    },
    {
      "name": "RightShoulder",
      "rotation": [
        0.0358783975,
        -0.7432758,
        -0.0343889929,
        0.6671361
      ],
      "translation": [
        0.24302052,
        -0.00166304107,
        0.0661297
      ],
      "children": [
        11
      ]
    },
    {
      "name": "RightArm",
      "rotation": [
        0.09300602,
        -0.362866521,
        0.166661546,
        0.912086248
      ],
      "translation": [
        0.0945339,
        -1.85989428E-08,
        9.662363E-07
      ],
      "children": [
        12
      ]
    },
    {
      "name": "RightForeArm",
      "rotation": [
        -0.117532849,
        -0.221170843,
        0.511555731,
        0.821936667
      ],
      "translation": [
        0.281193763,
        -2.74486833E-08,
        -2.17190154E-06
      ],
      "children": [
        13
      ]
    },
    {
      "name": "RightHand",
      "rotation": [
        0.0155153442,
        -0.0340301953,
        0.0986324549,
        0.9944206
      ],
      "translation": [
        0.251134247,
        2.56964974E-08,
        1.96947511E-07
      ],
      "children": [
        14,
        16,
        18,
        20,
        22,
        24
      ]
    },
    {
      "name": "RightHandThumb1",
      "rotation": [
        0.276742,
        -0.301646024,
        0.255761147,
        0.8757907
      ],
      "translation": [
        0.0509921163,
        0.0434558578,
        0.0192199871
      ],
      "children": [
        15
      ]
    },
    {
      "name": "RightHandThumb2",
      "rotation": [
        0.05898436,
        -0.06570501,
        -0.506322265,
        0.857811868
      ],
      "translation": [
        0.0404139273,
        -1.00174077E-07,
        -7.394611E-08
      ]
    },
    {
      "name": "RightHandIndex1",
      "rotation": [
        -0.563555539,
        -0.338693678,
        -0.2480207,
        0.711460948
      ],
      "translation": [
        0.10386017,
        0.0296424571,
        -0.004080281
      ],
      "children": [
        17
      ]
    },
    {
      "name": "RightHandIndex2",
      "rotation": [
        -0.00192359148,
        -0.123310305,
        -0.7942395,
        0.5949568
      ],
      "translation": [
        0.0437671579,
        1.26056658E-08,
        -1.64084941E-08
      ]
    },
    {
      "name": "RightHandMiddle1",
      "rotation": [
        -0.648719966,
        -0.367067069,
        -0.304927319,
        0.5928258
      ],
      "translation": [
        0.104988664,
        0.0051325094,
        -0.005500953
      ],
      "children": [
        19
      ]
    },
    {
      "name": "RightHandMiddle2",
      "rotation": [
        0.0264604781,
        0.0357838869,
        -0.8088472,
        0.5863319
      ],
      "translation": [
        0.05148451,
        -5.67736258E-08,
        2.88296137E-10
      ]
    },
    {
      "name": "RightHandRing1",
      "rotation": [
        -0.7068624,
        -0.3053902,
        -0.2649896,
        0.580397844
      ],
      "translation": [
        0.105920389,
        -0.0171271432,
        -0.002502985
      ],
      "children": [
        21
      ]
    },
    {
      "name": "RightHandRing2",
      "rotation": [
        0.0275285,
        0.08586285,
        -0.794467032,
        0.6005753
      ],
      "translation": [
        0.04111096,
        1.70832223E-07,
        -2.33091626E-08
      ]
    },
    {
      "name": "RightHandPinky1",
      "rotation": [
        -0.7892178,
        -0.17956388,
        -0.13986811,
        0.570374846
      ],
      "translation": [
        0.09654424,
        -0.0354303569,
        0.00321469945
      ],
      "children": [
        23
      ]
    },
    {
      "name": "RightHandPinky2",
      "rotation": [
        0.053261485,
        0.106752686,
        -0.7722817,
        0.6239772
      ],
      "translation": [
        0.0332172252,
        -1.06591052E-07,
        -3.56309471E-08
      ]
    },
    {
      "name": "Weapon1",
      "rotation": [
        0.0515949838,
        0.06061106,
        0.721482754,
        0.687841952
      ],
      "translation": [
        0.09506439,
        -0.00503853569,
        0.023391366
      ],
      "children": [
        25
      ]
    },
    {
      "name": "Trail1",
      "rotation": [
        -0.363669485,
        -0.6145458,
        0.380213559,
        0.587805033
      ],
      "translation": [
        0.3787232,
        0.01125937,
        0.00847409852
      ],
      "children": [
        26,
        27,
        28,
        29
      ]
    },
    {
      "name": "Trail4",
      "rotation": [
        -0.004566982,
        0.1531913,
        0.0415575355,
        0.987311542
      ],
      "translation": [
        0.04915684,
        0.0114734285,
        -0.149943888
      ]
    },
    {
      "name": "Trail3",
      "rotation": [
        0.008922472,
        -0.169622719,
        0.0408443734,
        0.9846217
      ],
      "translation": [
        0.04767695,
        0.005802363,
        -0.07507994
      ]
    },
    {
      "name": "Trail2",
      "rotation": [
        0.0134452051,
        -0.2789327,
        0.039586667,
        0.959399939
      ],
      "translation": [
        0.005912491,
        0.00217400934,
        -0.0400964
      ]
    },
    {
      "name": "Trail5",
      "rotation": [
        -0.0288979765,
        0.7220225,
        0.0302123837,
        0.690605
      ],
      "translation": [
        -0.0262577683,
        0.007998053,
        -0.205514476
      ]
    },
    {
      "name": "LeftShoulder",
      "rotation": [
        0.0243500639,
        0.7345445,
        0.0299904235,
        0.677459538
      ],
      "translation": [
        0.243547916,
        -0.00170225336,
        -0.06386915
      ],
      "children": [
        31
      ]
    },
    {
      "name": "LeftArm",
      "rotation": [
        0.07335165,
        0.4956851,
        -0.114629939,
        0.857773542
      ],
      "translation": [
        0.09453386,
        2.136591E-08,
        -1.01887917E-06
      ],
      "children": [
        32
      ]
    },
    {
      "name": "LeftForeArm",
      "rotation": [
        0.198203012,
        0.07658538,
        0.61621207,
        0.758375
      ],
      "translation": [
        0.2811938,
        1.35485749E-07,
        2.22532458E-06
      ],
      "children": [
        33
      ]
    },
    {
      "name": "LeftHand",
      "rotation": [
        0.0011319567,
        -0.06260147,
        0.007845755,
        0.998007
      ],
      "translation": [
        0.251134485,
        -1.58701461E-08,
        -1.84955212E-07
      ],
      "children": [
        34,
        36,
        38,
        40,
        42
      ]
    },
    {
      "name": "LeftHandThumb1",
      "rotation": [
        -0.00724320346,
        0.241266087,
        0.176896781,
        0.9541727
      ],
      "translation": [
        0.0509921461,
        0.04345594,
        -0.0192199983
      ],
      "children": [
        35
      ]
    },
    {
      "name": "LeftHandThumb2",
      "rotation": [
        0.059516795,
        0.00484578731,
        -0.282959878,
        0.957271
      ],
      "translation": [
        0.040413972,
        -2.57553161E-08,
        -3.35339934E-08
      ]
    },
    {
      "name": "LeftHandMiddle1",
      "rotation": [
        0.5941468,
        0.4113424,
        -0.393387854,
        0.568359554
      ],
      "translation": [
        0.104988672,
        0.00513260951,
        0.00550117157
      ],
      "children": [
        37
      ]
    },
    {
      "name": "LeftHandMiddle2",
      "rotation": [
        -0.0299786776,
        0.006877167,
        -0.7374687,
        0.674680531
      ],
      "translation": [
        0.05148459,
        -1.92578312E-07,
        3.9987885E-08
      ]
    },
    {
      "name": "LeftHandPinky1",
      "rotation": [
        0.653680563,
        0.302906454,
        -0.496542,
        0.484143585
      ],
      "translation": [
        0.09654428,
        -0.0354302749,
        -0.003214593
      ],
      "children": [
        39
      ]
    },
    {
      "name": "LeftHandPinky2",
      "rotation": [
        -0.08544351,
        -0.109500632,
        -0.7996878,
        0.5841306
      ],
      "translation": [
        0.0332172364,
        -1.15240148E-07,
        4.86812226E-08
      ]
    },
    {
      "name": "LeftHandIndex1",
      "rotation": [
        0.5374053,
        0.4432846,
        -0.2777326,
        0.661482
      ],
      "translation": [
        0.103860185,
        0.029642554,
        0.00408039335
      ],
      "children": [
        41
      ]
    },
    {
      "name": "LeftHandIndex2",
      "rotation": [
        0.01869919,
        0.1546134,
        -0.672021031,
        0.723970056
      ],
      "translation": [
        0.0437671952,
        1.13375719E-07,
        7.316438E-08
      ]
    },
    {
      "name": "LeftHandRing1",
      "rotation": [
        0.612260044,
        0.400193244,
        -0.4333208,
        0.526512563
      ],
      "translation": [
        0.105920404,
        -0.01712705,
        0.00250322325
      ],
      "children": [
        43
      ]
    },
    {
      "name": "LeftHandRing2",
      "rotation": [
        -0.043529015,
        -0.0426869653,
        -0.735806763,
        0.6744414
      ],
      "translation": [
        0.0411111228,
        1.43835862E-07,
        6.109013E-08
      ]
    },
    {
      "name": "RightUpLeg",
      "rotation": [
        0.3553273,
        0.919305,
        0.08288049,
        -0.147483408
      ],
      "translation": [
        0.01584543,
        0.00146775576,
        0.105105959
      ],
      "children": [
        45
      ]
    },
    {
      "name": "RightLeg",
      "rotation": [
        -0.06827315,
        0.0515762754,
        -0.604982257,
        0.7916278
      ],
      "translation": [
        0.384904444,
        -6.788834E-08,
        -3.64065556E-07
      ],
      "children": [
        46
      ]
    },
    {
      "name": "RightFoot",
      "rotation": [
        -0.0870260447,
        -0.09702341,
        0.6687725,
        0.7319533
      ],
      "translation": [
        0.4612223,
        8.5556735E-08,
        -1.56763022E-07
      ],
      "children": [
        47
      ]
    },
    {
      "name": "RightToeBase",
      "rotation": [
        -0.0391655229,
        -0.06802535,
        0.258249372,
        0.9628839
      ],
      "translation": [
        0.150053725,
        1.0159809E-08,
        4.82901434E-08
      ]
    },
    {
      "name": "LeftUpLeg",
      "rotation": [
        0.4616681,
        0.8485818,
        -0.201922163,
        0.1612411
      ],
      "translation": [
        0.0168632921,
        0.02019403,
        -0.1040549
      ],
      "children": [
        49
      ]
    },
    {
      "name": " LeftLeg",
      "rotation": [
        0.0290240627,
        -0.01124832,
        -0.376871139,
        0.925742447
      ],
      "translation": [
        0.3849044,
        -8.44325854E-08,
        4.31706923E-07
      ],
      "children": [
        50
      ]
    },
    {
      "name": " LeftFoot",
      "rotation": [
        0.02860221,
        0.01920822,
        0.351964742,
        0.93537885
      ],
      "translation": [
        0.461222351,
        -8.947729E-09,
        1.25869462E-07
      ],
      "children": [
        51
      ]
    },
    {
      "name": " LeftToeBase",
      "rotation": [
        0.0373207368,
        0.06856416,
        0.2588847,
        0.962748468
      ],
      "translation": [
        0.150053754,
        3.354921E-08,
        -6.952405E-08
      ]
    },
    {
      "name": "Shiel",
      "rotation": [
        0.299539566,
        0.6627584,
        0.6841984,
        -0.0538474619
      ],
      "translation": [
        0.124773227,
        0.00344406557,
        0.158380777
      ]
    }
  ],
  "accessors": [
    {
      "bufferView": 0,
      "byteOffset": 0,
      "componentType": 5125,
      "count": 9756,
      "type": "SCALAR"
    },
    {
      "bufferView": 1,
      "byteOffset": 0,
      "componentType": 5126,
      "count": 2473,
      "type": "VEC3",
      "min": [
        -0.614988148,
        0.0028535286,
        -0.217701137
      ],
      "max": [
        0.615422368,
        1.82799065,
        0.230920017
      ]
    },
    {
      "bufferView": 1,
      "byteOffset": 12,
      "componentType": 5126,
      "count": 2473,
      "type": "VEC3"
    },
    {
      "bufferView": 1,
      "byteOffset": 24,
      "componentType": 5126,
      "count": 2473,
      "type": "VEC2"
    },
    {
      "bufferView": 1,
      "byteOffset": 32,
      "componentType": 5126,
      "count": 2473,
      "type": "VEC4"
    },
    {
      "bufferView": 1,
      "byteOffset": 48,
      "componentType": 5121,
      "count": 2473,
      "type": "VEC4"
    },
    {
      "bufferView": 2,
      "byteOffset": 0,
      "componentType": 5126,
      "count": 45,
      "type": "MAT4"
    },
    {
      "bufferView": 3,
      "byteOffset": 0,
      "componentType": 5125,
      "count": 732,
      "type": "SCALAR"
    },
    {
      "bufferView": 4,
      "byteOffset": 0,
      "componentType": 5126,
      "count": 212,
      "type": "VEC3",
      "min": [
        -0.6824349,
        0.939575851,
        -0.5731058
      ],
      "max": [
        -0.458351284,
        1.16365957,
        0.170940161
      ]
    },
    {
      "bufferView": 4,
      "byteOffset": 12,
      "componentType": 5126,
      "count": 212,
      "type": "VEC3"
    },
    {
      "bufferView": 4,
      "byteOffset": 24,
      "componentType": 5126,
      "count": 212,
      "type": "VEC2"
    },
    {
      "bufferView": 4,
      "byteOffset": 32,
      "componentType": 5126,
      "count": 212,
      "type": "VEC4"
    },
    {
      "bufferView": 4,
      "byteOffset": 48,
      "componentType": 5121,
      "count": 212,
      "type": "VEC4"
    },
    {
      "bufferView": 5,
      "byteOffset": 0,
      "componentType": 5126,
      "count": 1,
      "type": "MAT4"
    },
    {
      "bufferView": 6,
      "byteOffset": 0,
      "componentType": 5125,
      "count": 1776,
      "type": "SCALAR"
    },
    {
      "bufferView": 7,
      "byteOffset": 0,
      "componentType": 5126,
      "count": 386,
      "type": "VEC3",
      "min": [
        0.0,
        0.0,
        0.0
      ],
      "max": [
        0.0,
        0.0,
        0.0
      ]
    },
    {
      "bufferView": 7,
      "byteOffset": 12,
      "componentType": 5126,
      "count": 386,
      "type": "VEC3"
    },
    {
      "bufferView": 7,
      "byteOffset": 24,
      "componentType": 5126,
      "count": 386,
      "type": "VEC2"
    },
    {
      "bufferView": 8,
      "byteOffset": 0,
      "componentType": 5126,
      "count": 400,
      "type": "SCALAR",
      "min": [
        0.0
      ],
      "max": [
        13.3000011
      ]
    },
    {
      "bufferView": 9,
      "byteOffset": 0,
      "componentType": 5126,
      "count": 400,
      "type": "VEC4"
    },
    {
      "bufferView": 10,
      "byteOffset": 0,
      "componentType": 5126,
      "count": 400,
      "type": "VEC3"
    },
    {
      "bufferView": 9,
      "byteOffset": 6400,
      "componentType": 5126,
      "count": 400,
      "type": "VEC4"
    },
    {
      "bufferView": 10,
      "byteOffset": 4800,
      "componentType": 5126,
      "count": 400,
      "type": "VEC3"
    },
    {
      "bufferView": 9,
      "byteOffset": 12800,
      "componentType": 5126,
      "count": 400,
      "type": "VEC4"
    },
    {
      "bufferView": 10,
      "byteOffset": 9600,
      "componentType": 5126,
      "count": 400,
      "type": "VEC3"
    },
    {
      "bufferView": 9,
      "byteOffset": 19200,
      "componentType": 5126,
      "count": 400,
      "type": "VEC4"
    },
    {
      "bufferView": 10,
      "byteOffset": 14400,
      "componentType": 5126,
      "count": 400,
      "type": "VEC3"
    },
    {
      "bufferView": 9,
      "byteOffset": 25600,
      "componentType": 5126,
      "count": 400,
      "type": "VEC4"
    },
    {
      "bufferView": 10,
      "byteOffset": 19200,
      "componentType": 5126,
      "count": 400,
      "type": "VEC3"
    },
    {
      "bufferView": 9,
      "byteOffset": 32000,
      "componentType": 5126,
      "count": 400,
      "type": "VEC4"
    },
    {
      "bufferView": 10,
      "byteOffset": 24000,
      "componentType": 5126,
      "count": 400,
      "type": "VEC3"
    },
    {
      "bufferView": 9,
      "byteOffset": 38400,
      "componentType": 5126,
      "count": 400,
      "type": "VEC4"
    },
    {
      "bufferView": 10,
      "byteOffset": 28800,
      "componentType": 5126,
      "count": 400,
      "type": "VEC3"
    },
    {
      "bufferView": 9,
      "byteOffset": 44800,
      "componentType": 5126,
      "count": 400,
      "type": "VEC4"
    },
    {
      "bufferView": 10,
      "byteOffset": 33600,
      "componentType": 5126,
      "count": 400,
      "type": "VEC3"
    },
    {
      "bufferView": 9,
      "byteOffset": 51200,
      "componentType": 5126,
      "count": 400,
      "type": "VEC4"
    },
    {
      "bufferView": 10,
      "byteOffset": 38400,
      "componentType": 5126,
      "count": 400,
      "type": "VEC3"
    },
    {
      "bufferView": 9,
      "byteOffset": 57600,
      "componentType": 5126,
      "count": 400,
      "type": "VEC4"
    },
    {
      "bufferView": 10,
      "byteOffset": 43200,
      "componentType": 5126,
      "count": 400,
      "type": "VEC3"
    },
    {
      "bufferView": 9,
      "byteOffset": 64000,
      "componentType": 5126,
      "count": 400,
      "type": "VEC4"
    },
    {
      "bufferView": 10,
      "byteOffset": 48000,
      "componentType": 5126,
      "count": 400,
      "type": "VEC3"
    },
    {
      "bufferView": 9,
      "byteOffset": 70400,
      "componentType": 5126,
      "count": 400,
      "type": "VEC4"
    },
    {
      "bufferView": 10,
      "byteOffset": 52800,
      "componentType": 5126,
      "count": 400,
      "type": "VEC3"
    },
    {
      "bufferView": 9,
      "byteOffset": 76800,
      "componentType": 5126,
      "count": 400,
      "type": "VEC4"
    },
    {
      "bufferView": 10,
      "byteOffset": 57600,
      "componentType": 5126,
      "count": 400,
      "type": "VEC3"
    },
    {
      "bufferView": 9,
      "byteOffset": 83200,
      "componentType": 5126,
      "count": 400,
      "type": "VEC4"
    },
    {
      "bufferView": 10,
      "byteOffset": 62400,
      "componentType": 5126,
      "count": 400,
      "type": "VEC3"
    },
    {
      "bufferView": 9,
      "byteOffset": 89600,
      "componentType": 5126,
      "count": 400,
      "type": "VEC4"
    },
    {
      "bufferView": 10,
      "byteOffset": 67200,
      "componentType": 5126,
      "count": 400,
      "type": "VEC3"
    },
    {
      "bufferView": 9,
      "byteOffset": 96000,
      "componentType": 5126,
      "count": 400,
      "type": "VEC4"
    },
    {
      "bufferView": 10,
      "byteOffset": 72000,
      "componentType": 5126,
      "count": 400,
      "type": "VEC3"
    },
    {
      "bufferView": 9,
      "byteOffset": 102400,
      "componentType": 5126,
      "count": 400,
      "type": "VEC4"
    },
    {
      "bufferView": 10,
      "byteOffset": 76800,
      "componentType": 5126,
      "count": 400,
      "type": "VEC3"
    },
    {
      "bufferView": 9,
      "byteOffset": 108800,
      "componentType": 5126,
      "count": 400,
      "type": "VEC4"
    },
    {
      "bufferView": 10,
      "byteOffset": 81600,
      "componentType": 5126,
      "count": 400,
      "type": "VEC3"
    },
    {
      "bufferView": 9,
      "byteOffset": 115200,
      "componentType": 5126,
      "count": 400,
      "type": "VEC4"
    },
    {
      "bufferView": 10,
      "byteOffset": 86400,
      "componentType": 5126,
      "count": 400,
      "type": "VEC3"
    },
    {
      "bufferView": 9,
      "byteOffset": 121600,
      "componentType": 5126,
      "count": 400,
      "type": "VEC4"
    },
    {
      "bufferView": 10,
      "byteOffset": 91200,
      "componentType": 5126,
      "count": 400,
      "type": "VEC3"
    },
    {
      "bufferView": 9,
      "byteOffset": 128000,
      "componentType": 5126,
      "count": 400,
      "type": "VEC4"
    },
    {
      "bufferView": 10,
      "byteOffset": 96000,
      "componentType": 5126,
      "count": 400,
      "type": "VEC3"
    },
    {
      "bufferView": 9,
      "byteOffset": 134400,
      "componentType": 5126,
      "count": 400,
      "type": "VEC4"
    },
    {
      "bufferView": 10,
      "byteOffset": 100800,
      "componentType": 5126,
      "count": 400,
      "type": "VEC3"
    },
    {
      "bufferView": 9,
      "byteOffset": 140800,
      "componentType": 5126,
      "count": 400,
      "type": "VEC4"
    },
    {
      "bufferView": 10,
      "byteOffset": 105600,
      "componentType": 5126,
      "count": 400,
      "type": "VEC3"
    },
    {
      "bufferView": 9,
      "byteOffset": 147200,
      "componentType": 5126,
      "count": 400,
      "type": "VEC4"
    },
    {
      "bufferView": 10,
      "byteOffset": 110400,
      "componentType": 5126,
      "count": 400,
      "type": "VEC3"
    },
    {
      "bufferView": 9,
      "byteOffset": 153600,
      "componentType": 5126,
      "count": 400,
      "type": "VEC4"
    },
    {
      "bufferView": 10,
      "byteOffset": 115200,
      "componentType": 5126,
      "count": 400,
      "type": "VEC3"
    },
    {
      "bufferView": 9,
      "byteOffset": 160000,
      "componentType": 5126,
      "count": 400,
      "type": "VEC4"
    },
    {
      "bufferView": 10,
      "byteOffset": 120000,
      "componentType": 5126,
      "count": 400,
      "type": "VEC3"
    },
    {
      "bufferView": 9,
      "byteOffset": 166400,
      "componentType": 5126,
      "count": 400,
      "type": "VEC4"
    },
    {
      "bufferView": 10,
      "byteOffset": 124800,
      "componentType": 5126,
      "count": 400,
      "type": "VEC3"
    },
    {
      "bufferView": 9,
      "byteOffset": 172800,
      "componentType": 5126,
      "count": 400,
      "type": "VEC4"
    },
    {
      "bufferView": 10,
      "byteOffset": 129600,
      "componentType": 5126,
      "count": 400,
      "type": "VEC3"
    },
    {
      "bufferView": 9,
      "byteOffset": 179200,
      "componentType": 5126,
      "count": 400,
      "type": "VEC4"
    },
    {
      "bufferView": 10,
      "byteOffset": 134400,
      "componentType": 5126,
      "count": 400,
      "type": "VEC3"
    },
    {
      "bufferView": 9,
      "byteOffset": 185600,
      "componentType": 5126,
      "count": 400,
      "type": "VEC4"
    },
    {
      "bufferView": 10,
      "byteOffset": 139200,
      "componentType": 5126,
      "count": 400,
      "type": "VEC3"
    },
    {
      "bufferView": 9,
      "byteOffset": 192000,
      "componentType": 5126,
      "count": 400,
      "type": "VEC4"
    },
    {
      "bufferView": 10,
      "byteOffset": 144000,
      "componentType": 5126,
      "count": 400,
      "type": "VEC3"
    },
    {
      "bufferView": 9,
      "byteOffset": 198400,
      "componentType": 5126,
      "count": 400,
      "type": "VEC4"
    },
    {
      "bufferView": 10,
      "byteOffset": 148800,
      "componentType": 5126,
      "count": 400,
      "type": "VEC3"
    },
    {
      "bufferView": 9,
      "byteOffset": 204800,
      "componentType": 5126,
      "count": 400,
      "type": "VEC4"
    },
    {
      "bufferView": 10,
      "byteOffset": 153600,
      "componentType": 5126,
      "count": 400,
      "type": "VEC3"
    },
    {
      "bufferView": 9,
      "byteOffset": 211200,
      "componentType": 5126,
      "count": 400,
      "type": "VEC4"
    },
    {
      "bufferView": 10,
      "byteOffset": 158400,
      "componentType": 5126,
      "count": 400,
      "type": "VEC3"
    },
    {
      "bufferView": 9,
      "byteOffset": 217600,
      "componentType": 5126,
      "count": 400,
      "type": "VEC4"
    },
    {
      "bufferView": 10,
      "byteOffset": 163200,
      "componentType": 5126,
      "count": 400,
      "type": "VEC3"
    },
    {
      "bufferView": 9,
      "byteOffset": 224000,
      "componentType": 5126,
      "count": 400,
      "type": "VEC4"
    },
    {
      "bufferView": 10,
      "byteOffset": 168000,
      "componentType": 5126,
      "count": 400,
      "type": "VEC3"
    },
    {
      "bufferView": 9,
      "byteOffset": 230400,
      "componentType": 5126,
      "count": 400,
      "type": "VEC4"
    },
    {
      "bufferView": 10,
      "byteOffset": 172800,
      "componentType": 5126,
      "count": 400,
      "type": "VEC3"
    },
    {
      "bufferView": 9,
      "byteOffset": 236800,
      "componentType": 5126,
      "count": 400,
      "type": "VEC4"
    },
    {
      "bufferView": 10,
      "byteOffset": 177600,
      "componentType": 5126,
      "count": 400,
      "type": "VEC3"
    },
    {
      "bufferView": 9,
      "byteOffset": 243200,
      "componentType": 5126,
      "count": 400,
      "type": "VEC4"
    },
    {
      "bufferView": 10,
      "byteOffset": 182400,
      "componentType": 5126,
      "count": 400,
      "type": "VEC3"
    },
    {
      "bufferView": 9,
      "byteOffset": 249600,
      "componentType": 5126,
      "count": 400,
      "type": "VEC4"
    },
    {
      "bufferView": 10,
      "byteOffset": 187200,
      "componentType": 5126,
      "count": 400,
      "type": "VEC3"
    },
    {
      "bufferView": 9,
      "byteOffset": 256000,
      "componentType": 5126,
      "count": 400,
      "type": "VEC4"
    },
    {
      "bufferView": 10,
      "byteOffset": 192000,
      "componentType": 5126,
      "count": 400,
      "type": "VEC3"
    },
    {
      "bufferView": 9,
      "byteOffset": 262400,
      "componentType": 5126,
      "count": 400,
      "type": "VEC4"
    },
    {
      "bufferView": 10,
      "byteOffset": 196800,
      "componentType": 5126,
      "count": 400,
      "type": "VEC3"
    },
    {
      "bufferView": 9,
      "byteOffset": 268800,
      "componentType": 5126,
      "count": 400,
      "type": "VEC4"
    },
    {
      "bufferView": 10,
      "byteOffset": 201600,
      "componentType": 5126,
      "count": 400,
      "type": "VEC3"
    },
    {
      "bufferView": 9,
      "byteOffset": 275200,
      "componentType": 5126,
      "count": 400,
      "type": "VEC4"
    },
    {
      "bufferView": 10,
      "byteOffset": 206400,
      "componentType": 5126,
      "count": 400,
      "type": "VEC3"
    },
    {
      "bufferView": 9,
      "byteOffset": 281600,
      "componentType": 5126,
      "count": 400,
      "type": "VEC4"
    },
    {
      "bufferView": 10,
      "byteOffset": 211200,
      "componentType": 5126,
      "count": 400,
      "type": "VEC3"
    },
    {
      "bufferView": 9,
      "byteOffset": 288000,
      "componentType": 5126,
      "count": 400,
      "type": "VEC4"
    },
    {
      "bufferView": 10,
      "byteOffset": 216000,
      "componentType": 5126,
      "count": 400,
      "type": "VEC3"
    },
    {
      "bufferView": 9,
      "byteOffset": 294400,
      "componentType": 5126,
      "count": 400,
      "type": "VEC4"
    },
    {
      "bufferView": 10,
      "byteOffset": 220800,
      "componentType": 5126,
      "count": 400,
      "type": "VEC3"
    },
    {
      "bufferView": 9,
      "byteOffset": 300800,
      "componentType": 5126,
      "count": 400,
      "type": "VEC4"
    },
    {
      "bufferView": 10,
      "byteOffset": 225600,
      "componentType": 5126,
      "count": 400,
      "type": "VEC3"
    },
    {
      "bufferView": 9,
      "byteOffset": 307200,
      "componentType": 5126,
      "count": 400,
      "type": "VEC4"
    },
    {
      "bufferView": 10,
      "byteOffset": 230400,
      "componentType": 5126,
      "count": 400,
      "type": "VEC3"
    },
    {
      "bufferView": 9,
      "byteOffset": 313600,
      "componentType": 5126,
      "count": 400,
      "type": "VEC4"
    },
    {
      "bufferView": 10,
      "byteOffset": 235200,
      "componentType": 5126,
      "count": 400,
      "type": "VEC3"
    },
    {
      "bufferView": 11,
      "byteOffset": 0,
      "componentType": 5126,
      "count": 386,
      "type": "VEC3",
      "min": [
        -0.347152621,
        0.464704454,
        -0.463345677
      ],
      "max": [
        0.290406048,
        1.385753,
        0.2998291
      ]
    },
    {
      "bufferView": 12,
      "byteOffset": 0,
      "componentType": 5126,
      "count": 386,
      "type": "VEC3",
      "min": [
        -0.343318373,
        0.465281785,
        -0.4588232
      ],
      "max": [
        0.3155633,
        1.35623217,
        0.291620255
      ]
    },
    {
      "bufferView": 13,
      "byteOffset": 0,
      "componentType": 5126,
      "count": 386,
      "type": "VEC3",
      "min": [
        -0.326322258,
        0.458162785,
        -0.456159234
      ],
      "max": [
        0.34130767,
        1.330917,
        0.2567523
      ]
    },
    {
      "bufferView": 14,
      "byteOffset": 0,
      "componentType": 5126,
      "count": 386,
      "type": "VEC3",
      "min": [
        -0.303702921,
        0.4554576,
        -0.466549248
      ],
      "max": [
        0.38697502,
        1.309279,
        0.118436478
      ]
    },
    {
      "bufferView": 15,
      "byteOffset": 0,
      "componentType": 5126,
      "count": 386,
      "type": "VEC3",
      "min": [
        -0.2818022,
        0.4609246,
        -0.463412583
      ],
      "max": [
        0.4092858,
        1.31303358,
        0.110525809
      ]
    },
    {
      "bufferView": 16,
      "byteOffset": 0,
      "componentType": 5126,
      "count": 386,
      "type": "VEC3",
      "min": [
        -0.289201647,
        0.483488232,
        -0.456339717
      ],
      "max": [
        0.403487682,
        1.33394039,
        0.118492924
      ]
    },
    {
      "bufferView": 17,
      "byteOffset": 0,
      "componentType": 5126,
      "count": 386,
      "type": "VEC3",
      "min": [
        -0.318519324,
        0.4729015,
        -0.4513637
      ],
      "max": [
        0.3736368,
        1.34310937,
        0.122677632
      ]
    },
    {
      "bufferView": 18,
      "byteOffset": 0,
      "componentType": 5126,
      "count": 386,
      "type": "VEC3",
      "min": [
        -0.3534098,
        0.5010063,
        -0.4685724
      ],
      "max": [
        0.331833869,
        1.32887352,
        0.120685592
      ]
    },
    {
      "bufferView": 19,
      "byteOffset": 0,
      "componentType": 5126,
      "count": 386,
      "type": "VEC3",
      "min": [
        -0.379524559,
        0.5083069,
        -0.5073599
      ],
      "max": [
        0.288521945,
        1.312462,
        0.114590652
      ]
    },
    {
      "bufferView": 20,
      "byteOffset": 0,
      "componentType": 5126,
      "count": 386,
      "type": "VEC3",
      "min": [
        -0.36418277,
        0.4982785,
        -0.5553478
      ],
      "max": [
        0.285856873,
        1.30784738,
        0.136294663
      ]
    },
    {
      "bufferView": 21,
      "byteOffset": 0,
      "componentType": 5126,
      "count": 386,
      "type": "VEC3",
      "min": [
        -0.3588497,
        0.4798132,
        -0.576081932
      ],
      "max": [
        0.2972236,
        1.31969047,
        0.189064384
      ]
    },
    {
      "bufferView": 22,
      "byteOffset": 0,
      "componentType": 5126,
      "count": 386,
      "type": "VEC3",
      "min": [
        -0.3609732,
        0.4698254,
        -0.4573239
      ],
      "max": [
        0.2904701,
        1.366265,
        0.258661538
      ]
    },
    {
      "bufferView": 23,
      "byteOffset": 0,
      "componentType": 5126,
      "count": 386,
      "type": "VEC3",
      "min": [
        -0.347152621,
        0.464704454,
        -0.463345677
      ],
      "max": [
        0.290406048,
        1.385753,
        0.2998291
      ]
    },
    {
      "bufferView": 24,
      "componentType": 5126,
      "count": 160000,
      "type": "SCALAR"
    }
  ],
  "skins": [
    {
      "name": "skin0",
      "inverseBindMatrices": 6,
      "joints": [
        30,
        6,
        8,
        5,
        31,
        32,
        50,
        49,
        48,
        51,
        52,
        4,
        44,
        7,
        9,
        10,
        11,
        12,
        33,
        46,
        45,
        47,
        13,
        22,
        18,
        20,
        16,
        17,
        14,
        19,
        21,
        23,
        15,
        3,
        38,
        36,
        42,
        40,
        41,
        34,
        37,
        43,
        39,
        35,
        3
      ]
    },
    {
      "name": "skin1",
      "inverseBindMatrices": 13,
      "joints": [
        24
      ]
    }
  ],
  "meshes": [
    {
      "name": "neutrals_thug",
      "primitives": [
        {
          "attributes": {
            "POSITION": 1,
            "NORMAL": 2,
            "TEXCOORD_0": 3,
            "WEIGHTS_0": 4,
            "JOINTS_0": 5
          },
          "indices": 0,
          "mode": 4,
          "material": 0
        }
      ]
    },
    {
      "name": "weapon_neutrals_thug",
      "primitives": [
        {
          "attributes": {
            "POSITION": 8,
            "NORMAL": 9,
            "TEXCOORD_0": 10,
            "WEIGHTS_0": 11,
            "JOINTS_0": 12
          },
          "indices": 7,
          "mode": 4,
          "material": 1
        }
      ]
    },
    {
      "name": "neutrals_thug_cloth",
      "primitives": [
        {
          "attributes": {
            "POSITION": 15,
            "NORMAL": 16,
            "TEXCOORD_0": 17
          },
          "indices": 14,
          "mode": 4,
          "material": 2,
          "targets": [
            {
              "POSITION": 119
            },
            {
              "POSITION": 120
            },
            {
              "POSITION": 121
            },
            {
              "POSITION": 122
            },
            {
              "POSITION": 123
            },
            {
              "POSITION": 124
            },
            {
              "POSITION": 125
            },
            {
              "POSITION": 126
            },
            {
              "POSITION": 127
            },
            {
              "POSITION": 128
            },
            {
              "POSITION": 129
            },
            {
              "POSITION": 130
            },
            {
              "POSITION": 131
            }
          ]
        }
      ],
      "weights": [
        0.0,
        0.0,
        0.0,
        0.0,
        0.0,
        0.0,
        0.0,
        0.0,
        0.0,
        0.0,
        0.0,
        0.0,
        0.0
      ]
    }
  ],
  "animations": [
    {
      "channels": [
        {
          "sampler": 0,
          "target": {
            "node": 3,
            "path": "rotation"
          }
        },
        {
          "sampler": 1,
          "target": {
            "node": 3,
            "path": "translation"
          }
        },
        {
          "sampler": 2,
          "target": {
            "node": 4,
            "path": "rotation"
          }
        },
        {
          "sampler": 3,
          "target": {
            "node": 4,
            "path": "translation"
          }
        },
        {
          "sampler": 4,
          "target": {
            "node": 5,
            "path": "rotation"
          }
        },
        {
          "sampler": 5,
          "target": {
            "node": 5,
            "path": "translation"
          }
        },
        {
          "sampler": 6,
          "target": {
            "node": 6,
            "path": "rotation"
          }
        },
        {
          "sampler": 7,
          "target": {
            "node": 6,
            "path": "translation"
          }
        },
        {
          "sampler": 8,
          "target": {
            "node": 7,
            "path": "rotation"
          }
        },
        {
          "sampler": 9,
          "target": {
            "node": 7,
            "path": "translation"
          }
        },
        {
          "sampler": 10,
          "target": {
            "node": 8,
            "path": "rotation"
          }
        },
        {
          "sampler": 11,
          "target": {
            "node": 8,
            "path": "translation"
          }
        },
        {
          "sampler": 12,
          "target": {
            "node": 9,
            "path": "rotation"
          }
        },
        {
          "sampler": 13,
          "target": {
            "node": 9,
            "path": "translation"
          }
        },
        {
          "sampler": 14,
          "target": {
            "node": 10,
            "path": "rotation"
          }
        },
        {
          "sampler": 15,
          "target": {
            "node": 10,
            "path": "translation"
          }
        },
        {
          "sampler": 16,
          "target": {
            "node": 11,
            "path": "rotation"
          }
        },
        {
          "sampler": 17,
          "target": {
            "node": 11,
            "path": "translation"
          }
        },
        {
          "sampler": 18,
          "target": {
            "node": 12,
            "path": "rotation"
          }
        },
        {
          "sampler": 19,
          "target": {
            "node": 12,
            "path": "translation"
          }
        },
        {
          "sampler": 20,
          "target": {
            "node": 13,
            "path": "rotation"
          }
        },
        {
          "sampler": 21,
          "target": {
            "node": 13,
            "path": "translation"
          }
        },
        {
          "sampler": 22,
          "target": {
            "node": 14,
            "path": "rotation"
          }
        },
        {
          "sampler": 23,
          "target": {
            "node": 14,
            "path": "translation"
          }
        },
        {
          "sampler": 24,
          "target": {
            "node": 15,
            "path": "rotation"
          }
        },
        {
          "sampler": 25,
          "target": {
            "node": 15,
            "path": "translation"
          }
        },
        {
          "sampler": 26,
          "target": {
            "node": 16,
            "path": "rotation"
          }
        },
        {
          "sampler": 27,
          "target": {
            "node": 16,
            "path": "translation"
          }
        },
        {
          "sampler": 28,
          "target": {
            "node": 17,
            "path": "rotation"
          }
        },
        {
          "sampler": 29,
          "target": {
            "node": 17,
            "path": "translation"
          }
        },
        {
          "sampler": 30,
          "target": {
            "node": 18,
            "path": "rotation"
          }
        },
        {
          "sampler": 31,
          "target": {
            "node": 18,
            "path": "translation"
          }
        },
        {
          "sampler": 32,
          "target": {
            "node": 19,
            "path": "rotation"
          }
        },
        {
          "sampler": 33,
          "target": {
            "node": 19,
            "path": "translation"
          }
        },
        {
          "sampler": 34,
          "target": {
            "node": 20,
            "path": "rotation"
          }
        },
        {
          "sampler": 35,
          "target": {
            "node": 20,
            "path": "translation"
          }
        },
        {
          "sampler": 36,
          "target": {
            "node": 21,
            "path": "rotation"
          }
        },
        {
          "sampler": 37,
          "target": {
            "node": 21,
            "path": "translation"
          }
        },
        {
          "sampler": 38,
          "target": {
            "node": 22,
            "path": "rotation"
          }
        },
        {
          "sampler": 39,
          "target": {
            "node": 22,
            "path": "translation"
          }
        },
        {
          "sampler": 40,
          "target": {
            "node": 23,
            "path": "rotation"
          }
        },
        {
          "sampler": 41,
          "target": {
            "node": 23,
            "path": "translation"
          }
        },
        {
          "sampler": 42,
          "target": {
            "node": 24,
            "path": "rotation"
          }
        },
        {
          "sampler": 43,
          "target": {
            "node": 24,
            "path": "translation"
          }
        },
        {
          "sampler": 44,
          "target": {
            "node": 25,
            "path": "rotation"
          }
        },
        {
          "sampler": 45,
          "target": {
            "node": 25,
            "path": "translation"
          }
        },
        {
          "sampler": 46,
          "target": {
            "node": 26,
            "path": "rotation"
          }
        },
        {
          "sampler": 47,
          "target": {
            "node": 26,
            "path": "translation"
          }
        },
        {
          "sampler": 48,
          "target": {
            "node": 27,
            "path": "rotation"
          }
        },
        {
          "sampler": 49,
          "target": {
            "node": 27,
            "path": "translation"
          }
        },
        {
          "sampler": 50,
          "target": {
            "node": 28,
            "path": "rotation"
          }
        },
        {
          "sampler": 51,
          "target": {
            "node": 28,
            "path": "translation"
          }
        },
        {
          "sampler": 52,
          "target": {
            "node": 29,
            "path": "rotation"
          }
        },
        {
          "sampler": 53,
          "target": {
            "node": 29,
            "path": "translation"
          }
        },
        {
          "sampler": 54,
          "target": {
            "node": 30,
            "path": "rotation"
          }
        },
        {
          "sampler": 55,
          "target": {
            "node": 30,
            "path": "translation"
          }
        },
        {
          "sampler": 56,
          "target": {
            "node": 31,
            "path": "rotation"
          }
        },
        {
          "sampler": 57,
          "target": {
            "node": 31,
            "path": "translation"
          }
        },
        {
          "sampler": 58,
          "target": {
            "node": 32,
            "path": "rotation"
          }
        },
        {
          "sampler": 59,
          "target": {
            "node": 32,
            "path": "translation"
          }
        },
        {
          "sampler": 60,
          "target": {
            "node": 33,
            "path": "rotation"
          }
        },
        {
          "sampler": 61,
          "target": {
            "node": 33,
            "path": "translation"
          }
        },
        {
          "sampler": 62,
          "target": {
            "node": 34,
            "path": "rotation"
          }
        },
        {
          "sampler": 63,
          "target": {
            "node": 34,
            "path": "translation"
          }
        },
        {
          "sampler": 64,
          "target": {
            "node": 35,
            "path": "rotation"
          }
        },
        {
          "sampler": 65,
          "target": {
            "node": 35,
            "path": "translation"
          }
        },
        {
          "sampler": 66,
          "target": {
            "node": 36,
            "path": "rotation"
          }
        },
        {
          "sampler": 67,
          "target": {
            "node": 36,
            "path": "translation"
          }
        },
        {
          "sampler": 68,
          "target": {
            "node": 37,
            "path": "rotation"
          }
        },
        {
          "sampler": 69,
          "target": {
            "node": 37,
            "path": "translation"
          }
        },
        {
          "sampler": 70,
          "target": {
            "node": 38,
            "path": "rotation"
          }
        },
        {
          "sampler": 71,
          "target": {
            "node": 38,
            "path": "translation"
          }
        },
        {
          "sampler": 72,
          "target": {
            "node": 39,
            "path": "rotation"
          }
        },
        {
          "sampler": 73,
          "target": {
            "node": 39,
            "path": "translation"
          }
        },
        {
          "sampler": 74,
          "target": {
            "node": 40,
            "path": "rotation"
          }
        },
        {
          "sampler": 75,
          "target": {
            "node": 40,
            "path": "translation"
          }
        },
        {
          "sampler": 76,
          "target": {
            "node": 41,
            "path": "rotation"
          }
        },
        {
          "sampler": 77,
          "target": {
            "node": 41,
            "path": "translation"
          }
        },
        {
          "sampler": 78,
          "target": {
            "node": 42,
            "path": "rotation"
          }
        },
        {
          "sampler": 79,
          "target": {
            "node": 42,
            "path": "translation"
          }
        },
        {
          "sampler": 80,
          "target": {
            "node": 43,
            "path": "rotation"
          }
        },
        {
          "sampler": 81,
          "target": {
            "node": 43,
            "path": "translation"
          }
        },
        {
          "sampler": 82,
          "target": {
            "node": 44,
            "path": "rotation"
          }
        },
        {
          "sampler": 83,
          "target": {
            "node": 44,
            "path": "translation"
          }
        },
        {
          "sampler": 84,
          "target": {
            "node": 45,
            "path": "rotation"
          }
        },
        {
          "sampler": 85,
          "target": {
            "node": 45,
            "path": "translation"
          }
        },
        {
          "sampler": 86,
          "target": {
            "node": 46,
            "path": "rotation"
          }
        },
        {
          "sampler": 87,
          "target": {
            "node": 46,
            "path": "translation"
          }
        },
        {
          "sampler": 88,
          "target": {
            "node": 47,
            "path": "rotation"
          }
        },
        {
          "sampler": 89,
          "target": {
            "node": 47,
            "path": "translation"
          }
        },
        {
          "sampler": 90,
          "target": {
            "node": 48,
            "path": "rotation"
          }
        },
        {
          "sampler": 91,
          "target": {
            "node": 48,
            "path": "translation"
          }
        },
        {
          "sampler": 92,
          "target": {
            "node": 49,
            "path": "rotation"
          }
        },
        {
          "sampler": 93,
          "target": {
            "node": 49,
            "path": "translation"
          }
        },
        {
          "sampler": 94,
          "target": {
            "node": 50,
            "path": "rotation"
          }
        },
        {
          "sampler": 95,
          "target": {
            "node": 50,
            "path": "translation"
          }
        },
        {
          "sampler": 96,
          "target": {
            "node": 51,
            "path": "rotation"
          }
        },
        {
          "sampler": 97,
          "target": {
            "node": 51,
            "path": "translation"
          }
        },
        {
          "sampler": 98,
          "target": {
            "node": 52,
            "path": "rotation"
          }
        },
        {
          "sampler": 99,
          "target": {
            "node": 52,
            "path": "translation"
          }
        },
        {
          "sampler": 100,
          "target": {
            "node": 2,
            "path": "weights"
          }
        }
      ],
      "samplers": [
        {
          "input": 18,
          "output": 19,
          "interpolation": "LINEAR"
        },
        {
          "input": 18,
          "output": 20,
          "interpolation": "LINEAR"
        },
        {
          "input": 18,
          "output": 21,
          "interpolation": "LINEAR"
        },
        {
          "input": 18,
          "output": 22,
          "interpolation": "LINEAR"
        },
        {
          "input": 18,
          "output": 23,
          "interpolation": "LINEAR"
        },
        {
          "input": 18,
          "output": 24,
          "interpolation": "LINEAR"
        },
        {
          "input": 18,
          "output": 25,
          "interpolation": "LINEAR"
        },
        {
          "input": 18,
          "output": 26,
          "interpolation": "LINEAR"
        },
        {
          "input": 18,
          "output": 27,
          "interpolation": "LINEAR"
        },
        {
          "input": 18,
          "output": 28,
          "interpolation": "LINEAR"
        },
        {
          "input": 18,
          "output": 29,
          "interpolation": "LINEAR"
        },
        {
          "input": 18,
          "output": 30,
          "interpolation": "LINEAR"
        },
        {
          "input": 18,
          "output": 31,
          "interpolation": "LINEAR"
        },
        {
          "input": 18,
          "output": 32,
          "interpolation": "LINEAR"
        },
        {
          "input": 18,
          "output": 33,
          "interpolation": "LINEAR"
        },
        {
          "input": 18,
          "output": 34,
          "interpolation": "LINEAR"
        },
        {
          "input": 18,
          "output": 35,
          "interpolation": "LINEAR"
        },
        {
          "input": 18,
          "output": 36,
          "interpolation": "LINEAR"
        },
        {
          "input": 18,
          "output": 37,
          "interpolation": "LINEAR"
        },
        {
          "input": 18,
          "output": 38,
          "interpolation": "LINEAR"
        },
        {
          "input": 18,
          "output": 39,
          "interpolation": "LINEAR"
        },
        {
          "input": 18,
          "output": 40,
          "interpolation": "LINEAR"
        },
        {
          "input": 18,
          "output": 41,
          "interpolation": "LINEAR"
        },
        {
          "input": 18,
          "output": 42,
          "interpolation": "LINEAR"
        },
        {
          "input": 18,
          "output": 43,
          "interpolation": "LINEAR"
        },
        {
          "input": 18,
          "output": 44,
          "interpolation": "LINEAR"
        },
        {
          "input": 18,
          "output": 45,
          "interpolation": "LINEAR"
        },
        {
          "input": 18,
          "output": 46,
          "interpolation": "LINEAR"
        },
        {
          "input": 18,
          "output": 47,
          "interpolation": "LINEAR"
        },
        {
          "input": 18,
          "output": 48,
          "interpolation": "LINEAR"
        },
        {
          "input": 18,
          "output": 49,
          "interpolation": "LINEAR"
        },
        {
          "input": 18,
          "output": 50,
          "interpolation": "LINEAR"
        },
        {
          "input": 18,
          "output": 51,
          "interpolation": "LINEAR"
        },
        {
          "input": 18,
          "output": 52,
          "interpolation": "LINEAR"
        },
        {
          "input": 18,
          "output": 53,
          "interpolation": "LINEAR"
        },
        {
          "input": 18,
          "output": 54,
          "interpolation": "LINEAR"
        },
        {
          "input": 18,
          "output": 55,
          "interpolation": "LINEAR"
        },
        {
          "input": 18,
          "output": 56,
          "interpolation": "LINEAR"
        },
        {
          "input": 18,
          "output": 57,
          "interpolation": "LINEAR"
        },
        {
          "input": 18,
          "output": 58,
          "interpolation": "LINEAR"
        },
        {
          "input": 18,
          "output": 59,
          "interpolation": "LINEAR"
        },
        {
          "input": 18,
          "output": 60,
          "interpolation": "LINEAR"
        },
        {
          "input": 18,
          "output": 61,
          "interpolation": "LINEAR"
        },
        {
          "input": 18,
          "output": 62,
          "interpolation": "LINEAR"
        },
        {
          "input": 18,
          "output": 63,
          "interpolation": "LINEAR"
        },
        {
          "input": 18,
          "output": 64,
          "interpolation": "LINEAR"
        },
        {
          "input": 18,
          "output": 65,
          "interpolation": "LINEAR"
        },
        {
          "input": 18,
          "output": 66,
          "interpolation": "LINEAR"
        },
        {
          "input": 18,
          "output": 67,
          "interpolation": "LINEAR"
        },
        {
          "input": 18,
          "output": 68,
          "interpolation": "LINEAR"
        },
        {
          "input": 18,
          "output": 69,
          "interpolation": "LINEAR"
        },
        {
          "input": 18,
          "output": 70,
          "interpolation": "LINEAR"
        },
        {
          "input": 18,
          "output": 71,
          "interpolation": "LINEAR"
        },
        {
          "input": 18,
          "output": 72,
          "interpolation": "LINEAR"
        },
        {
          "input": 18,
          "output": 73,
          "interpolation": "LINEAR"
        },
        {
          "input": 18,
          "output": 74,
          "interpolation": "LINEAR"
        },
        {
          "input": 18,
          "output": 75,
          "interpolation": "LINEAR"
        },
        {
          "input": 18,
          "output": 76,
          "interpolation": "LINEAR"
        },
        {
          "input": 18,
          "output": 77,
          "interpolation": "LINEAR"
        },
        {
          "input": 18,
          "output": 78,
          "interpolation": "LINEAR"
        },
        {
          "input": 18,
          "output": 79,
          "interpolation": "LINEAR"
        },
        {
          "input": 18,
          "output": 80,
          "interpolation": "LINEAR"
        },
        {
          "input": 18,
          "output": 81,
          "interpolation": "LINEAR"
        },
        {
          "input": 18,
          "output": 82,
          "interpolation": "LINEAR"
        },
        {
          "input": 18,
          "output": 83,
          "interpolation": "LINEAR"
        },
        {
          "input": 18,
          "output": 84,
          "interpolation": "LINEAR"
        },
        {
          "input": 18,
          "output": 85,
          "interpolation": "LINEAR"
        },
        {
          "input": 18,
          "output": 86,
          "interpolation": "LINEAR"
        },
        {
          "input": 18,
          "output": 87,
          "interpolation": "LINEAR"
        },
        {
          "input": 18,
          "output": 88,
          "interpolation": "LINEAR"
        },
        {
          "input": 18,
          "output": 89,
          "interpolation": "LINEAR"
        },
        {
          "input": 18,
          "output": 90,
          "interpolation": "LINEAR"
        },
        {
          "input": 18,
          "output": 91,
          "interpolation": "LINEAR"
        },
        {
          "input": 18,
          "output": 92,
          "interpolation": "LINEAR"
        },
        {
          "input": 18,
          "output": 93,
          "interpolation": "LINEAR"
        },
        {
          "input": 18,
          "output": 94,
          "interpolation": "LINEAR"
        },
        {
          "input": 18,
          "output": 95,
          "interpolation": "LINEAR"
        },
        {
          "input": 18,
          "output": 96,
          "interpolation": "LINEAR"
        },
        {
          "input": 18,
          "output": 97,
          "interpolation": "LINEAR"
        },
        {
          "input": 18,
          "output": 98,
          "interpolation": "LINEAR"
        },
        {
          "input": 18,
          "output": 99,
          "interpolation": "LINEAR"
        },
        {
          "input": 18,
          "output": 100,
          "interpolation": "LINEAR"
        },
        {
          "input": 18,
          "output": 101,
          "interpolation": "LINEAR"
        },
        {
          "input": 18,
          "output": 102,
          "interpolation": "LINEAR"
        },
        {
          "input": 18,
          "output": 103,
          "interpolation": "LINEAR"
        },
        {
          "input": 18,
          "output": 104,
          "interpolation": "LINEAR"
        },
        {
          "input": 18,
          "output": 105,
          "interpolation": "LINEAR"
        },
        {
          "input": 18,
          "output": 106,
          "interpolation": "LINEAR"
        },
        {
          "input": 18,
          "output": 107,
          "interpolation": "LINEAR"
        },
        {
          "input": 18,
          "output": 108,
          "interpolation": "LINEAR"
        },
        {
          "input": 18,
          "output": 109,
          "interpolation": "LINEAR"
        },
        {
          "input": 18,
          "output": 110,
          "interpolation": "LINEAR"
        },
        {
          "input": 18,
          "output": 111,
          "interpolation": "LINEAR"
        },
        {
          "input": 18,
          "output": 112,
          "interpolation": "LINEAR"
        },
        {
          "input": 18,
          "output": 113,
          "interpolation": "LINEAR"
        },
        {
          "input": 18,
          "output": 114,
          "interpolation": "LINEAR"
        },
        {
          "input": 18,
          "output": 115,
          "interpolation": "LINEAR"
        },
        {
          "input": 18,
          "output": 116,
          "interpolation": "LINEAR"
        },
        {
          "input": 18,
          "output": 117,
          "interpolation": "LINEAR"
        },
        {
          "input": 18,
          "output": 118,
          "interpolation": "LINEAR"
        },
        {
          "input": 18,
          "output": 132,
          "interpolation": "LINEAR"
        }
      ]
    }
  ],
  "bufferViews": [
    {
      "name": "mesh_indexes_neutrals_thug",
      "buffer": 0,
      "byteOffset": 0,
      "byteLength": 39024,
      "target": 34963
    },
    {
      "name": "mesh_vertexes_neutrals_thug",
      "buffer": 0,
      "byteOffset": 39024,
      "byteLength": 128596,
      "byteStride": 52,
      "target": 34962
    },
    {
      "name": "mesh_bones_neutrals_thug",
      "buffer": 0,
      "byteOffset": 167620,
      "byteLength": 2880
    },
    {
      "name": "mesh_indexes_weapon_neutrals_thug",
      "buffer": 0,
      "byteOffset": 170500,
      "byteLength": 2928,
      "target": 34963
    },
    {
      "name": "mesh_vertexes_weapon_neutrals_thug",
      "buffer": 0,
      "byteOffset": 173428,
      "byteLength": 11024,
      "byteStride": 52,
      "target": 34962
    },
    {
      "name": "mesh_bones_weapon_neutrals_thug",
      "buffer": 0,
      "byteOffset": 184452,
      "byteLength": 64
    },
    {
      "name": "mesh_indexes_neutrals_thug_cloth",
      "buffer": 0,
      "byteOffset": 184516,
      "byteLength": 7104,
      "target": 34963
    },
    {
      "name": "mesh_vertexes_neutrals_thug_cloth",
      "buffer": 0,
      "byteOffset": 191620,
      "byteLength": 12352,
      "byteStride": 32,
      "target": 34962
    },
    {
      "name": "frames",
      "buffer": 0,
      "byteOffset": 203972,
      "byteLength": 1600
    },
    {
      "name": "bones_rotate",
      "buffer": 0,
      "byteOffset": 205572,
      "byteLength": 320000
    },
    {
      "name": "bones_translate",
      "buffer": 0,
      "byteOffset": 525572,
      "byteLength": 240000
    },
    {
      "name": "morph_neutrals_thug_cloth_0",
      "buffer": 0,
      "byteOffset": 765572,
      "byteLength": 4632,
      "target": 34962
    },
    {
      "name": "morph_neutrals_thug_cloth_1",
      "buffer": 0,
      "byteOffset": 770204,
      "byteLength": 4632,
      "target": 34962
    },
    {
      "name": "morph_neutrals_thug_cloth_2",
      "buffer": 0,
      "byteOffset": 774836,
      "byteLength": 4632,
      "target": 34962
    },
    {
      "name": "morph_neutrals_thug_cloth_3",
      "buffer": 0,
      "byteOffset": 779468,
      "byteLength": 4632,
      "target": 34962
    },
    {
      "name": "morph_neutrals_thug_cloth_4",
      "buffer": 0,
      "byteOffset": 784100,
      "byteLength": 4632,
      "target": 34962
    },
    {
      "name": "morph_neutrals_thug_cloth_5",
      "buffer": 0,
      "byteOffset": 788732,
      "byteLength": 4632,
      "target": 34962
    },
    {
      "name": "morph_neutrals_thug_cloth_6",
      "buffer": 0,
      "byteOffset": 793364,
      "byteLength": 4632,
      "target": 34962
    },
    {
      "name": "morph_neutrals_thug_cloth_7",
      "buffer": 0,
      "byteOffset": 797996,
      "byteLength": 4632,
      "target": 34962
    },
    {
      "name": "morph_neutrals_thug_cloth_8",
      "buffer": 0,
      "byteOffset": 802628,
      "byteLength": 4632,
      "target": 34962
    },
    {
      "name": "morph_neutrals_thug_cloth_9",
      "buffer": 0,
      "byteOffset": 807260,
      "byteLength": 4632,
      "target": 34962
    },
    {
      "name": "morph_neutrals_thug_cloth_10",
      "buffer": 0,
      "byteOffset": 811892,
      "byteLength": 4632,
      "target": 34962
    },
    {
      "name": "morph_neutrals_thug_cloth_11",
      "buffer": 0,
      "byteOffset": 816524,
      "byteLength": 4632,
      "target": 34962
    },
    {
      "name": "morph_neutrals_thug_cloth_12",
      "buffer": 0,
      "byteOffset": 821156,
      "byteLength": 4632,
      "target": 34962
    },
    {
      "name": "morph_weights",
      "buffer": 0,
      "byteOffset": 825788,
      "byteLength": 640000
    }
  ],
  "buffers": [
    {
      "uri": "character_neutrals_thug.bin",
      "byteLength": 1465788
    }
  ],
  "images": [
    {
      "uri": "character_neutral_thug_diffuse.dds"
    },
    {
      "uri": "weapon_neutral_thug_diffuse.dds"
    },
    {
      "uri": "character_neutral_thug_alpha.dds"
    }
  ],
  "textures": [
    {
      "source": 0
    },
    {
      "source": 1
    },
    {
      "source": 2
    }
  ],
  "materials": [
    {
      "name": "material0",
      "alphaMode": "MASK",
      "pbrMetallicRoughness": {
        "baseColorTexture": {
          "index": 0,
          "texCoord": 0
        },
        "metallicFactor": 0.0
      },
      "emissiveFactor": [
        0.0,
        0.0,
        0.0
      ]
    },
    {
      "name": "material1",
      "alphaMode": "MASK",
      "pbrMetallicRoughness": {
        "baseColorTexture": {
          "index": 1,
          "texCoord": 0
        },
        "metallicFactor": 0.0
      },
      "emissiveFactor": [
        0.0,
        0.0,
        0.0
      ]
    },
    {
      "name": "material2",
      "alphaMode": "MASK",
      "pbrMetallicRoughness": {
        "baseColorTexture": {
          "index": 2,
          "texCoord": 0
        },
        "metallicFactor": 0.0
      },
      "emissiveFactor": [
        0.0,
        0.0,
        0.0
      ]
    }
  ]
}