{
  "asset": {
    "version": "2.0",
    "generator": "generated with dis3tool v1.1 by root.ext@gmail.com"
  },
  "scenes": [
    {
      "nodes": [
        0,
        1
      ]
    }
  ],
  "scene": 0,
  "nodes": [
    {
      "name": "neutral_wolfsnow",
      "mesh": 0,
      "skin": 0
    },
    {
      "name": "Bip01",
      "rotation": [
        -0.353553742,
        0.61237216,
        -0.3535531,
        0.612372756
      ],
      "translation": [
        -0.00019247341,
        0.8075438,
        0.4107083
      ],
      "children": [
        2
      ]
    },
    {
      "name": "Bip01 Pelvis",
      "rotation": [
        0.493234366,
        0.493235081,
        0.506674647,
        0.5066753
      ],
      "translation": [
        2.254035E-08,
        1.77640513E-09,
        2.11208828E-12
      ],
      "children": [
        3
      ]
    },
    {
      "name": "Bip01 Spine",
      "rotation": [
        0.0127886729,
        -0.307898343,
        -0.004137465,
        0.951324344
      ],
      "translation": [
        0.1863733,
        -2.847823E-05,
        0.00106774061
      ],
      "children": [
        4,
        8,
        12,
        33
      ]
    },
    {
      "name": "Bip01 L Thigh",
      "rotation": [
        0.7511142,
        0.0852439,
        0.6537253,
        -0.0347030722
      ],
      "translation": [
        -0.153246358,
        0.100962557,
        0.10613583
      ],
      "children": [
        5
      ]
    },
    {
      "name": "Bip01 L Calf",
      "rotation": [
        5.56542767E-09,
        0.379516363,
        -1.21586563E-08,
        0.925185144
      ],
      "translation": [
        0.2417325,
        1.82635382E-08,
        7.23166771E-09
      ],
      "children": [
        6
      ]
    },
    {
      "name": "Bip01 L Foot",
      "rotation": [
        -0.0245534219,
        0.247967437,
        -0.0311770942,
        0.9679553
      ],
      "translation": [
        0.386892,
        -2.17087361E-08,
        -9.269667E-09
      ],
      "children": [
        7
      ]
    },
    {
      "name": "Bip01 L Toe0",
      "rotation": [
        -0.004339234,
        0.9860305,
        -0.00179521332,
        -0.166498885
      ],
      "translation": [
        0.07485838,
        4.81493956E-09,
        0.252186656
      ]
    },
    {
      "name": "Bip01 R Thigh",
      "rotation": [
        0.7897873,
        -0.03932891,
        0.6117098,
        0.0223738048
      ],
      "translation": [
        -0.150065377,
        -0.100961871,
        0.11053586
      ],
      "children": [
        9
      ]
    },
    {
      "name": "Bip01 R Calf",
      "rotation": [
        4.86169549E-10,
        0.41607374,
        -2.16812923E-09,
        0.909330964
      ],
      "translation": [
        0.241732508,
        -5.44232037E-09,
        -1.46167487E-08
      ],
      "children": [
        10
      ]
    },
    {
      "name": "Bip01 R Foot",
      "rotation": [
        -0.01108745,
        0.141005248,
        0.022688292,
        0.9896868
      ],
      "translation": [
        0.386891961,
        -1.28741631E-08,
        -4.0830443E-08
      ],
      "children": [
        11
      ]
    },
    {
      "name": "Bip01 R Toe0",
      "rotation": [
        0.01570675,
        0.956897736,
        -0.00256661628,
        -0.2899886
      ],
      "translation": [
        0.07485841,
        8.733959E-09,
        0.252186656
      ]
    },
    {
      "name": "Bip01 Spine1",
      "rotation": [
        1.00042818E-09,
        0.0536346547,
        -1.48922908E-07,
        0.9985607
      ],
      "translation": [
        0.34630537,
        -1.35535245E-08,
        -0.000283804
      ],
      "children": [
        13,
        31,
        32
      ]
    },
    {
      "name": "Bip01 Neck",
      "rotation": [
        -0.00260453182,
        0.06599045,
        -0.00737012364,
        0.9977897
      ],
      "translation": [
        0.460348278,
        -9.928141E-07,
        -0.0227333214
      ],
      "children": [
        14,
        21,
        26
      ]
    },
    {
      "name": "Bip01 Head",
      "rotation": [
        0.03109539,
        0.5436971,
        0.0368035138,
        0.8378975
      ],
      "translation": [
        0.272165328,
        -9.758161E-09,
        -4.512378E-09
      ],
      "children": [
        15,
        16,
        17,
        19
      ]
    },
    {
      "name": "Bip01 Ponytail1",
      "rotation": [
        -0.00546312565,
        -0.73949,
        0.0163780712,
        0.6729462
      ],
      "translation": [
        0.005716357,
        1.89747141E-06,
        0.06046542
      ]
    },
    {
      "name": "Bip01 Ponytail2",
      "rotation": [
        -3.242471E-08,
        -0.8436587,
        2.34426E-06,
        0.5368802
      ],
      "translation": [
        0.0331032,
        9.649733E-08,
        0.116657257
      ]
    },
    {
      "name": "Bone03",
      "rotation": [
        -0.4941972,
        0.193533823,
        0.637211859,
        0.5588155
      ],
      "translation": [
        0.060167,
        0.07075239,
        -0.0299478248
      ],
      "children": [
        18
      ]
    },
    {
      "name": "Bone04",
      "rotation": [
        0.0017377889,
        -0.0568257757,
        -0.06837231,
        0.996038556
      ],
      "translation": [
        0.149117291,
        7.567025E-08,
        7.59662E-08
      ]
    },
    {
      "name": "Bone01",
      "rotation": [
        0.7090652,
        -0.241751134,
        -0.6367001,
        0.182745636
      ],
      "translation": [
        0.060167212,
        -0.06625794,
        -0.0299473945
      ],
      "children": [
        20
      ]
    },
    {
      "name": "Bone02",
      "rotation": [
        0.00173778413,
        -0.0568257719,
        -0.0683723539,
        0.9960387
      ],
      "translation": [
        0.15236342,
        -4.8374984E-09,
        -3.23980736E-08
      ]
    },
    {
      "name": "Bip01 L Clavicle",
      "rotation": [
        -0.660291135,
        -0.385454565,
        -0.3294848,
        0.5539678
      ],
      "translation": [
        -0.171140984,
        0.073457,
        -0.0315034352
      ],
      "children": [
        22
      ]
    },
    {
      "name": "Bip01 L UpperArm",
      "rotation": [
        0.5296187,
        -0.286333233,
        -0.500856161,
        0.621820331
      ],
      "translation": [
        0.260446459,
        3.48696432E-08,
        -2.14570264E-08
      ],
      "children": [
        23
      ]
    },
    {
      "name": "Bip01 L Forearm",
      "rotation": [
        -3.037321E-09,
        0.1265936,
        -1.10739462E-09,
        0.991954744
      ],
      "translation": [
        0.230793312,
        2.13131575E-08,
        -3.781257E-08
      ],
      "children": [
        24
      ]
    },
    {
      "name": "Bip01 L Hand",
      "rotation": [
        0.1665217,
        0.201521188,
        0.0212650448,
        0.964991033
      ],
      "translation": [
        0.327548355,
        3.86017E-09,
        9.12117E-09
      ],
      "children": [
        25
      ]
    },
    {
      "name": "Bip01 L Finger0",
      "rotation": [
        0.000303743727,
        0.6466308,
        0.000257450331,
        0.762803
      ],
      "translation": [
        0.169720247,
        -1.12549916E-08,
        -2.77030026E-08
      ]
    },
    {
      "name": "Bip01 R Clavicle",
      "rotation": [
        0.6531873,
        -0.3609389,
        0.339055151,
        0.5728099
      ],
      "translation": [
        -0.168856531,
        -0.07830434,
        -0.032144215
      ],
      "children": [
        27
      ]
    },
    {
      "name": "Bip01 R UpperArm",
      "rotation": [
        -0.4813954,
        -0.368554145,
        0.503215969,
        0.6157923
      ],
      "translation": [
        0.2604464,
        1.40798893E-08,
        1.00072013E-08
      ],
      "children": [
        28
      ]
    },
    {
      "name": "Bip01 R Forearm",
      "rotation": [
        7.195757E-09,
        0.349276036,
        -7.03485048E-09,
        0.9370199
      ],
      "translation": [
        0.230793267,
        8.553081E-09,
        -2.71684719E-08
      ],
      "children": [
        29
      ]
    },
    {
      "name": "Bip01 R Hand",
      "rotation": [
        -0.211385339,
        0.07062058,
        -0.015939638,
        0.974717855
      ],
      "translation": [
        0.327548385,
        3.5113068E-10,
        1.09224878E-08
      ],
      "children": [
        30
      ]
    },
    {
      "name": "Bip01 R Finger0",
      "rotation": [
        -0.000317204423,
        0.6044006,
        -0.000240655863,
        0.7966805
      ],
      "translation": [
        0.169720292,
        -1.75957238E-09,
        1.98128447E-08
      ]
    },
    {
      "name": "Bone05",
      "rotation": [
        0.339429259,
        -0.07341474,
        0.9356279,
        0.06323784
      ],
      "translation": [
        0.264498,
        -0.137040481,
        0.009164588
      ]
    },
    {
      "name": "Bone06",
      "rotation": [
        0.3444218,
        0.0159427859,
        0.9386441,
        -0.008165792
      ],
      "translation": [
        0.264498025,
        0.131166264,
        0.00916418
      ]
    },
    {
      "name": "Bip01 Tail",
      "rotation": [
        -0.0115146851,
        0.943480551,
        0.004049893,
        -0.331203222
      ],
      "translation": [
        -0.206462532,
        1.56717988E-07,
        -0.0009462508
      ],
      "children": [
        34
      ]
    },
    {
      "name": "Bip01 Tail1",
      "rotation": [
        0.003873629,
        0.305609822,
        0.0075039,
        0.9521194
      ],
      "translation": [
        0.150577232,
        5.45378271E-07,
        -0.0001576676
      ],
      "children": [
        35
      ]
    },
    {
      "name": "Bip01 Tail2",
      "rotation": [
        -0.00253660535,
        0.102520786,
        -0.0118438788,
        0.994657159
      ],
      "translation": [
        0.243421465,
        -3.9591697E-07,
        -0.000150418069
      ],
      "children": [
        36
      ]
    },
    {
      "name": "Bip01 Tail3",
      "rotation": [
        0.005383148,
        -0.1737972,
        -0.03916577,
        0.9839876
      ],
      "translation": [
        0.193128034,
        -4.364611E-07,
        -0.000138090545
      ]
    }
  ],
  "accessors": [
    {
      "bufferView": 0,
      "byteOffset": 0,
      "componentType": 5125,
      "count": 7230,
      "type": "SCALAR"
    },
    {
      "bufferView": 1,
      "byteOffset": 0,
      "componentType": 5126,
      "count": 1960,
      "type": "VEC3",
      "min": [
        -0.196744651,
        -0.00813940447,
        -1.08091152
      ],
      "max": [
        0.196744651,
        1.08742023,
        0.774618268
      ]
    },
    {
      "bufferView": 1,
      "byteOffset": 12,
      "componentType": 5126,
      "count": 1960,
      "type": "VEC3"
    },
    {
      "bufferView": 1,
      "byteOffset": 24,
      "componentType": 5126,
      "count": 1960,
      "type": "VEC2"
    },
    {
      "bufferView": 1,
      "byteOffset": 32,
      "componentType": 5126,
      "count": 1960,
      "type": "VEC4"
    },
    {
      "bufferView": 1,
      "byteOffset": 48,
      "componentType": 5121,
      "count": 1960,
      "type": "VEC4"
    },
    {
      "bufferView": 2,
      "byteOffset": 0,
      "componentType": 5126,
      "count": 33,
      "type": "MAT4"
    },
    {
      "bufferView": 3,
      "byteOffset": 0,
      "componentType": 5126,
      "count": 253,
      "type": "SCALAR",
      "min": [
        0.0
      ],
      "max": [
        8.400001
      ]
    },
    {
      "bufferView": 4,
      "byteOffset": 0,
      "componentType": 5126,
      "count": 253,
      "type": "VEC4"
    },
    {
      "bufferView": 5,
      "byteOffset": 0,
      "componentType": 5126,
      "count": 253,
      "type": "VEC3"
    },
    {
      "bufferView": 4,
      "byteOffset": 4048,
      "componentType": 5126,
      "count": 253,
      "type": "VEC4"
    },
    {
      "bufferView": 5,
      "byteOffset": 3036,
      "componentType": 5126,
      "count": 253,
      "type": "VEC3"
    },
    {
      "bufferView": 4,
      "byteOffset": 8096,
      "componentType": 5126,
      "count": 253,
      "type": "VEC4"
    },
    {
      "bufferView": 5,
      "byteOffset": 6072,
      "componentType": 5126,
      "count": 253,
      "type": "VEC3"
    },
    {
      "bufferView": 4,
      "byteOffset": 12144,
      "componentType": 5126,
      "count": 253,
      "type": "VEC4"
    },
    {
      "bufferView": 5,
      "byteOffset": 9108,
      "componentType": 5126,
      "count": 253,
      "type": "VEC3"
    },
    {
      "bufferView": 4,
      "byteOffset": 16192,
      "componentType": 5126,
      "count": 253,
      "type": "VEC4"
    },
    {
      "bufferView": 5,
      "byteOffset": 12144,
      "componentType": 5126,
      "count": 253,
      "type": "VEC3"
    },
    {
      "bufferView": 4,
      "byteOffset": 20240,
      "componentType": 5126,
      "count": 253,
      "type": "VEC4"
    },
    {
      "bufferView": 5,
      "byteOffset": 15180,
      "componentType": 5126,
      "count": 253,
      "type": "VEC3"
    },
    {
      "bufferView": 4,
      "byteOffset": 24288,
      "componentType": 5126,
      "count": 253,
      "type": "VEC4"
    },
    {
      "bufferView": 5,
      "byteOffset": 18216,
      "componentType": 5126,
      "count": 253,
      "type": "VEC3"
    },
    {
      "bufferView": 4,
      "byteOffset": 28336,
      "componentType": 5126,
      "count": 253,
      "type": "VEC4"
    },
    {
      "bufferView": 5,
      "byteOffset": 21252,
      "componentType": 5126,
      "count": 253,
      "type": "VEC3"
    },
    {
      "bufferView": 4,
      "byteOffset": 32384,
      "componentType": 5126,
      "count": 253,
      "type": "VEC4"
    },
    {
      "bufferView": 5,
      "byteOffset": 24288,
      "componentType": 5126,
      "count": 253,
      "type": "VEC3"
    },
    {
      "bufferView": 4,
      "byteOffset": 36432,
      "componentType": 5126,
      "count": 253,
      "type": "VEC4"
    },
    {
      "bufferView": 5,
      "byteOffset": 27324,
      "componentType": 5126,
      "count": 253,
      "type": "VEC3"
    },
    {
      "bufferView": 4,
      "byteOffset": 40480,
      "componentType": 5126,
      "count": 253,
      "type": "VEC4"
    },
    {
      "bufferView": 5,
      "byteOffset": 30360,
      "componentType": 5126,
      "count": 253,
      "type": "VEC3"
    },
    {
      "bufferView": 4,
      "byteOffset": 44528,
      "componentType": 5126,
      "count": 253,
      "type": "VEC4"
    },
    {
      "bufferView": 5,
      "byteOffset": 33396,
      "componentType": 5126,
      "count": 253,
      "type": "VEC3"
    },
    {
      "bufferView": 4,
      "byteOffset": 48576,
      "componentType": 5126,
      "count": 253,
      "type": "VEC4"
    },
    {
      "bufferView": 5,
      "byteOffset": 36432,
      "componentType": 5126,
      "count": 253,
      "type": "VEC3"
    },
    {
      "bufferView": 4,
      "byteOffset": 52624,
      "componentType": 5126,
      "count": 253,
      "type": "VEC4"
    },
    {
      "bufferView": 5,
      "byteOffset": 39468,
      "componentType": 5126,
      "count": 253,
      "type": "VEC3"
    },
    {
      "bufferView": 4,
      "byteOffset": 56672,
      "componentType": 5126,
      "count": 253,
      "type": "VEC4"
    },
    {
      "bufferView": 5,
      "byteOffset": 42504,
      "componentType": 5126,
      "count": 253,
      "type": "VEC3"
    },
    {
      "bufferView": 4,
      "byteOffset": 60720,
      "componentType": 5126,
      "count": 253,
      "type": "VEC4"
    },
    {
      "bufferView": 5,
      "byteOffset": 45540,
      "componentType": 5126,
      "count": 253,
      "type": "VEC3"
    },
    {
      "bufferView": 4,
      "byteOffset": 64768,
      "componentType": 5126,
      "count": 253,
      "type": "VEC4"
    },
    {
      "bufferView": 5,
      "byteOffset": 48576,
      "componentType": 5126,
      "count": 253,
      "type": "VEC3"
    },
    {
      "bufferView": 4,
      "byteOffset": 68816,
      "componentType": 5126,
      "count": 253,
      "type": "VEC4"
    },
    {
      "bufferView": 5,
      "byteOffset": 51612,
      "componentType": 5126,
      "count": 253,
      "type": "VEC3"
    },
    {
      "bufferView": 4,
      "byteOffset": 72864,
      "componentType": 5126,
      "count": 253,
      "type": "VEC4"
    },
    {
      "bufferView": 5,
      "byteOffset": 54648,
      "componentType": 5126,
      "count": 253,
      "type": "VEC3"
    },
    {
      "bufferView": 4,
      "byteOffset": 76912,
      "componentType": 5126,
      "count": 253,
      "type": "VEC4"
    },
    {
      "bufferView": 5,
      "byteOffset": 57684,
      "componentType": 5126,
      "count": 253,
      "type": "VEC3"
    },
    {
      "bufferView": 4,
      "byteOffset": 80960,
      "componentType": 5126,
      "count": 253,
      "type": "VEC4"
    },
    {
      "bufferView": 5,
      "byteOffset": 60720,
      "componentType": 5126,
      "count": 253,
      "type": "VEC3"
    },
    {
      "bufferView": 4,
      "byteOffset": 85008,
      "componentType": 5126,
      "count": 253,
      "type": "VEC4"
    },
    {
      "bufferView": 5,
      "byteOffset": 63756,
      "componentType": 5126,
      "count": 253,
      "type": "VEC3"
    },
    {
      "bufferView": 4,
      "byteOffset": 89056,
      "componentType": 5126,
      "count": 253,
      "type": "VEC4"
    },
    {
      "bufferView": 5,
      "byteOffset": 66792,
      "componentType": 5126,
      "count": 253,
      "type": "VEC3"
    },
    {
      "bufferView": 4,
      "byteOffset": 93104,
      "componentType": 5126,
      "count": 253,
      "type": "VEC4"
    },
    {
      "bufferView": 5,
      "byteOffset": 69828,
      "componentType": 5126,
      "count": 253,
      "type": "VEC3"
    },
    {
      "bufferView": 4,
      "byteOffset": 97152,
      "componentType": 5126,
      "count": 253,
      "type": "VEC4"
    },
    {
      "bufferView": 5,
      "byteOffset": 72864,
      "componentType": 5126,
      "count": 253,
      "type": "VEC3"
    },
    {
      "bufferView": 4,
      "byteOffset": 101200,
      "componentType": 5126,
      "count": 253,
      "type": "VEC4"
    },
    {
      "bufferView": 5,
      "byteOffset": 75900,
      "componentType": 5126,
      "count": 253,
      "type": "VEC3"
    },
    {
      "bufferView": 4,
      "byteOffset": 105248,
      "componentType": 5126,
      "count": 253,
      "type": "VEC4"
    },
    {
      "bufferView": 5,
      "byteOffset": 78936,
      "componentType": 5126,
      "count": 253,
      "type": "VEC3"
    },
    {
      "bufferView": 4,
      "byteOffset": 109296,
      "componentType": 5126,
      "count": 253,
      "type": "VEC4"
    },
    {
      "bufferView": 5,
      "byteOffset": 81972,
      "componentType": 5126,
      "count": 253,
      "type": "VEC3"
    },
    {
      "bufferView": 4,
      "byteOffset": 113344,
      "componentType": 5126,
      "count": 253,
      "type": "VEC4"
    },
    {
      "bufferView": 5,
      "byteOffset": 85008,
      "componentType": 5126,
      "count": 253,
      "type": "VEC3"
    },
    {
      "bufferView": 4,
      "byteOffset": 117392,
      "componentType": 5126,
      "count": 253,
      "type": "VEC4"
    },
    {
      "bufferView": 5,
      "byteOffset": 88044,
      "componentType": 5126,
      "count": 253,
      "type": "VEC3"
    },
    {
      "bufferView": 4,
      "byteOffset": 121440,
      "componentType": 5126,
      "count": 253,
      "type": "VEC4"
    },
    {
      "bufferView": 5,
      "byteOffset": 91080,
      "componentType": 5126,
      "count": 253,
      "type": "VEC3"
    },
    {
      "bufferView": 4,
      "byteOffset": 125488,
      "componentType": 5126,
      "count": 253,
      "type": "VEC4"
    },
    {
      "bufferView": 5,
      "byteOffset": 94116,
      "componentType": 5126,
      "count": 253,
      "type": "VEC3"
    },
    {
      "bufferView": 4,
      "byteOffset": 129536,
      "componentType": 5126,
      "count": 253,
      "type": "VEC4"
    },
    {
      "bufferView": 5,
      "byteOffset": 97152,
      "componentType": 5126,
      "count": 253,
      "type": "VEC3"
    },
    {
      "bufferView": 4,
      "byteOffset": 133584,
      "componentType": 5126,
      "count": 253,
      "type": "VEC4"
    },
    {
      "bufferView": 5,
      "byteOffset": 100188,
      "componentType": 5126,
      "count": 253,
      "type": "VEC3"
    },
    {
      "bufferView": 4,
      "byteOffset": 137632,
      "componentType": 5126,
      "count": 253,
      "type": "VEC4"
    },
    {
      "bufferView": 5,
      "byteOffset": 103224,
      "componentType": 5126,
      "count": 253,
      "type": "VEC3"
    },
    {
      "bufferView": 4,
      "byteOffset": 141680,
      "componentType": 5126,
      "count": 253,
      "type": "VEC4"
    },
    {
      "bufferView": 5,
      "byteOffset": 106260,
      "componentType": 5126,
      "count": 253,
      "type": "VEC3"
    }
  ],
  "skins": [
    {
      "name": "skin0",
      "inverseBindMatrices": 6,
      "joints": [
        27,
        22,
        12,
        13,
        21,
        3,
        2,
        33,
        4,
        32,
        5,
        14,
        34,
        35,
        36,
        26,
        8,
        31,
        9,
        23,
        28,
        10,
        11,
        29,
        30,
        24,
        25,
        6,
        7,
        16,
        15,
        17,
        19
      ]
    }
  ],
  "meshes": [
    {
      "name": "neutral_wolfsnow",
      "primitives": [
        {
          "attributes": {
            "POSITION": 1,
            "NORMAL": 2,
            "TEXCOORD_0": 3,
            "WEIGHTS_0": 4,
            "JOINTS_0": 5
          },
          "indices": 0,
          "mode": 4,
          "material": 0
        }
      ]
    }
  ],
  "animations": [
    {
      "channels": [
        {
          "sampler": 0,
          "target": {
            "node": 1,
            "path": "rotation"
          }
        },
        {
          "sampler": 1,
          "target": {
            "node": 1,
            "path": "translation"
          }
        },
        {
          "sampler": 2,
          "target": {
            "node": 2,
            "path": "rotation"
          }
        },
        {
          "sampler": 3,
          "target": {
            "node": 2,
            "path": "translation"
          }
        },
        {
          "sampler": 4,
          "target": {
            "node": 3,
            "path": "rotation"
          }
        },
        {
          "sampler": 5,
          "target": {
            "node": 3,
            "path": "translation"
          }
        },
        {
          "sampler": 6,
          "target": {
            "node": 4,
            "path": "rotation"
          }
        },
        {
          "sampler": 7,
          "target": {
            "node": 4,
            "path": "translation"
          }
        },
        {
          "sampler": 8,
          "target": {
            "node": 5,
            "path": "rotation"
          }
        },
        {
          "sampler": 9,
          "target": {
            "node": 5,
            "path": "translation"
          }
        },
        {
          "sampler": 10,
          "target": {
            "node": 6,
            "path": "rotation"
          }
        },
        {
          "sampler": 11,
          "target": {
            "node": 6,
            "path": "translation"
          }
        },
        {
          "sampler": 12,
          "target": {
            "node": 7,
            "path": "rotation"
          }
        },
        {
          "sampler": 13,
          "target": {
            "node": 7,
            "path": "translation"
          }
        },
        {
          "sampler": 14,
          "target": {
            "node": 8,
            "path": "rotation"
          }
        },
        {
          "sampler": 15,
          "target": {
            "node": 8,
            "path": "translation"
          }
        },
        {
          "sampler": 16,
          "target": {
            "node": 9,
            "path": "rotation"
          }
        },
        {
          "sampler": 17,
          "target": {
            "node": 9,
            "path": "translation"
          }
        },
        {
          "sampler": 18,
          "target": {
            "node": 10,
            "path": "rotation"
          }
        },
        {
          "sampler": 19,
          "target": {
            "node": 10,
            "path": "translation"
          }
        },
        {
          "sampler": 20,
          "target": {
            "node": 11,
            "path": "rotation"
          }
        },
        {
          "sampler": 21,
          "target": {
            "node": 11,
            "path": "translation"
          }
        },
        {
          "sampler": 22,
          "target": {
            "node": 12,
            "path": "rotation"
          }
        },
        {
          "sampler": 23,
          "target": {
            "node": 12,
            "path": "translation"
          }
        },
        {
          "sampler": 24,
          "target": {
            "node": 13,
            "path": "rotation"
          }
        },
        {
          "sampler": 25,
          "target": {
            "node": 13,
            "path": "translation"
          }
        },
        {
          "sampler": 26,
          "target": {
            "node": 14,
            "path": "rotation"
          }
        },
        {
          "sampler": 27,
          "target": {
            "node": 14,
            "path": "translation"
          }
        },
        {
          "sampler": 28,
          "target": {
            "node": 15,
            "path": "rotation"
          }
        },
        {
          "sampler": 29,
          "target": {
            "node": 15,
            "path": "translation"
          }
        },
        {
          "sampler": 30,
          "target": {
            "node": 16,
            "path": "rotation"
          }
        },
        {
          "sampler": 31,
          "target": {
            "node": 16,
            "path": "translation"
          }
        },
        {
          "sampler": 32,
          "target": {
            "node": 17,
            "path": "rotation"
          }
        },
        {
          "sampler": 33,
          "target": {
            "node": 17,
            "path": "translation"
          }
        },
        {
          "sampler": 34,
          "target": {
            "node": 18,
            "path": "rotation"
          }
        },
        {
          "sampler": 35,
          "target": {
            "node": 18,
            "path": "translation"
          }
        },
        {
          "sampler": 36,
          "target": {
            "node": 19,
            "path": "rotation"
          }
        },
        {
          "sampler": 37,
          "target": {
            "node": 19,
            "path": "translation"
          }
        },
        {
          "sampler": 38,
          "target": {
            "node": 20,
            "path": "rotation"
          }
        },
        {
          "sampler": 39,
          "target": {
            "node": 20,
            "path": "translation"
          }
        },
        {
          "sampler": 40,
          "target": {
            "node": 21,
            "path": "rotation"
          }
        },
        {
          "sampler": 41,
          "target": {
            "node": 21,
            "path": "translation"
          }
        },
        {
          "sampler": 42,
          "target": {
            "node": 22,
            "path": "rotation"
          }
        },
        {
          "sampler": 43,
          "target": {
            "node": 22,
            "path": "translation"
          }
        },
        {
          "sampler": 44,
          "target": {
            "node": 23,
            "path": "rotation"
          }
        },
        {
          "sampler": 45,
          "target": {
            "node": 23,
            "path": "translation"
          }
        },
        {
          "sampler": 46,
          "target": {
            "node": 24,
            "path": "rotation"
          }
        },
        {
          "sampler": 47,
          "target": {
            "node": 24,
            "path": "translation"
          }
        },
        {
          "sampler": 48,
          "target": {
            "node": 25,
            "path": "rotation"
          }
        },
        {
          "sampler": 49,
          "target": {
            "node": 25,
            "path": "translation"
          }
        },
        {
          "sampler": 50,
          "target": {
            "node": 26,
            "path": "rotation"
          }
        },
        {
          "sampler": 51,
          "target": {
            "node": 26,
            "path": "translation"
          }
        },
        {
          "sampler": 52,
          "target": {
            "node": 27,
            "path": "rotation"
          }
        },
        {
          "sampler": 53,
          "target": {
            "node": 27,
            "path": "translation"
          }
        },
        {
          "sampler": 54,
          "target": {
            "node": 28,
            "path": "rotation"
          }
        },
        {
          "sampler": 55,
          "target": {
            "node": 28,
            "path": "translation"
          }
        },
        {
          "sampler": 56,
          "target": {
            "node": 29,
            "path": "rotation"
          }
        },
        {
          "sampler": 57,
          "target": {
            "node": 29,
            "path": "translation"
          }
        },
        {
          "sampler": 58,
          "target": {
            "node": 30,
            "path": "rotation"
          }
        },
        {
          "sampler": 59,
          "target": {
            "node": 30,
            "path": "translation"
          }
        },
        {
          "sampler": 60,
          "target": {
            "node": 31,
            "path": "rotation"
          }
        },
        {
          "sampler": 61,
          "target": {
            "node": 31,
            "path": "translation"
          }
        },
        {
          "sampler": 62,
          "target": {
            "node": 32,
            "path": "rotation"
          }
        },
        {
          "sampler": 63,
          "target": {
            "node": 32,
            "path": "translation"
          }
        },
        {
          "sampler": 64,
          "target": {
            "node": 33,
            "path": "rotation"
          }
        },
        {
          "sampler": 65,
          "target": {
            "node": 33,
            "path": "translation"
          }
        },
        {
          "sampler": 66,
          "target": {
            "node": 34,
            "path": "rotation"
          }
        },
        {
          "sampler": 67,
          "target": {
            "node": 34,
            "path": "translation"
          }
        },
        {
          "sampler": 68,
          "target": {
            "node": 35,
            "path": "rotation"
          }
        },
        {
          "sampler": 69,
          "target": {
            "node": 35,
            "path": "translation"
          }
        },
        {
          "sampler": 70,
          "target": {
            "node": 36,
            "path": "rotation"
          }
        },
        {
          "sampler": 71,
          "target": {
            "node": 36,
            "path": "translation"
          }
        }
      ],
      "samplers": [
        {
          "input": 7,
          "output": 8,
          "interpolation": "LINEAR"
        },
        {
          "input": 7,
          "output": 9,
          "interpolation": "LINEAR"
        },
        {
          "input": 7,
          "output": 10,
          "interpolation": "LINEAR"
        },
        {
          "input": 7,
          "output": 11,
          "interpolation": "LINEAR"
        },
        {
          "input": 7,
          "output": 12,
          "interpolation": "LINEAR"
        },
        {
          "input": 7,
          "output": 13,
          "interpolation": "LINEAR"
        },
        {
          "input": 7,
          "output": 14,
          "interpolation": "LINEAR"
        },
        {
          "input": 7,
          "output": 15,
          "interpolation": "LINEAR"
        },
        {
          "input": 7,
          "output": 16,
          "interpolation": "LINEAR"
        },
        {
          "input": 7,
          "output": 17,
          "interpolation": "LINEAR"
        },
        {
          "input": 7,
          "output": 18,
          "interpolation": "LINEAR"
        },
        {
          "input": 7,
          "output": 19,
          "interpolation": "LINEAR"
        },
        {
          "input": 7,
          "output": 20,
          "interpolation": "LINEAR"
        },
        {
          "input": 7,
          "output": 21,
          "interpolation": "LINEAR"
        },
        {
          "input": 7,
          "output": 22,
          "interpolation": "LINEAR"
        },
        {
          "input": 7,
          "output": 23,
          "interpolation": "LINEAR"
        },
        {
          "input": 7,
          "output": 24,
          "interpolation": "LINEAR"
        },
        {
          "input": 7,
          "output": 25,
          "interpolation": "LINEAR"
        },
        {
          "input": 7,
          "output": 26,
          "interpolation": "LINEAR"
        },
        {
          "input": 7,
          "output": 27,
          "interpolation": "LINEAR"
        },
        {
          "input": 7,
          "output": 28,
          "interpolation": "LINEAR"
        },
        {
          "input": 7,
          "output": 29,
          "interpolation": "LINEAR"
        },
        {
          "input": 7,
          "output": 30,
          "interpolation": "LINEAR"
        },
        {
          "input": 7,
          "output": 31,
          "interpolation": "LINEAR"
        },
        {
          "input": 7,
          "output": 32,
          "interpolation": "LINEAR"
        },
        {
          "input": 7,
          "output": 33,
          "interpolation": "LINEAR"
        },
        {
          "input": 7,
          "output": 34,
          "interpolation": "LINEAR"
        },
        {
          "input": 7,
          "output": 35,
          "interpolation": "LINEAR"
        },
        {
          "input": 7,
          "output": 36,
          "interpolation": "LINEAR"
        },
        {
          "input": 7,
          "output": 37,
          "interpolation": "LINEAR"
        },
        {
          "input": 7,
          "output": 38,
          "interpolation": "LINEAR"
        },
        {
          "input": 7,
          "output": 39,
          "interpolation": "LINEAR"
        },
        {
          "input": 7,
          "output": 40,
          "interpolation": "LINEAR"
        },
        {
          "input": 7,
          "output": 41,
          "interpolation": "LINEAR"
        },
        {
          "input": 7,
          "output": 42,
          "interpolation": "LINEAR"
        },
        {
          "input": 7,
          "output": 43,
          "interpolation": "LINEAR"
        },
        {
          "input": 7,
          "output": 44,
          "interpolation": "LINEAR"
        },
        {
          "input": 7,
          "output": 45,
          "interpolation": "LINEAR"
        },
        {
          "input": 7,
          "output": 46,
          "interpolation": "LINEAR"
        },
        {
          "input": 7,
          "output": 47,
          "interpolation": "LINEAR"
        },
        {
          "input": 7,
          "output": 48,
          "interpolation": "LINEAR"
        },
        {
          "input": 7,
          "output": 49,
          "interpolation": "LINEAR"
        },
        {
          "input": 7,
          "output": 50,
          "interpolation": "LINEAR"
        },
        {
          "input": 7,
          "output": 51,
          "interpolation": "LINEAR"
        },
        {
          "input": 7,
          "output": 52,
          "interpolation": "LINEAR"
        },
        {
          "input": 7,
          "output": 53,
          "interpolation": "LINEAR"
        },
        {
          "input": 7,
          "output": 54,
          "interpolation": "LINEAR"
        },
        {
          "input": 7,
          "output": 55,
          "interpolation": "LINEAR"
        },
        {
          "input": 7,
          "output": 56,
          "interpolation": "LINEAR"
        },
        {
          "input": 7,
          "output": 57,
          "interpolation": "LINEAR"
        },
        {
          "input": 7,
          "output": 58,
          "interpolation": "LINEAR"
        },
        {
          "input": 7,
          "output": 59,
          "interpolation": "LINEAR"
        },
        {
          "input": 7,
          "output": 60,
          "interpolation": "LINEAR"
        },
        {
          "input": 7,
          "output": 61,
          "interpolation": "LINEAR"
        },
        {
          "input": 7,
          "output": 62,
          "interpolation": "LINEAR"
        },
        {
          "input": 7,
          "output": 63,
          "interpolation": "LINEAR"
        },
        {
          "input": 7,
          "output": 64,
          "interpolation": "LINEAR"
        },
        {
          "input": 7,
          "output": 65,
          "interpolation": "LINEAR"
        },
        {
          "input": 7,
          "output": 66,
          "interpolation": "LINEAR"
        },
        {
          "input": 7,
          "output": 67,
          "interpolation": "LINEAR"
        },
        {
          "input": 7,
          "output": 68,
          "interpolation": "LINEAR"
        },
        {
          "input": 7,
          "output": 69,
          "interpolation": "LINEAR"
        },
        {
          "input": 7,
          "output": 70,
          "interpolation": "LINEAR"
        },
        {
          "input": 7,
          "output": 71,
          "interpolation": "LINEAR"
        },
        {
          "input": 7,
          "output": 72,
          "interpolation": "LINEAR"
        },
        {
          "input": 7,
          "output": 73,
          "interpolation": "LINEAR"
        },
        {
          "input": 7,
          "output": 74,
          "interpolation": "LINEAR"
        },
        {
          "input": 7,
          "output": 75,
          "interpolation": "LINEAR"
        },
        {
          "input": 7,
          "output": 76,
          "interpolation": "LINEAR"
        },
        {
          "input": 7,
          "output": 77,
          "interpolation": "LINEAR"
        },
        {
          "input": 7,
          "output": 78,
          "interpolation": "LINEAR"
        },
        {
          "input": 7,
          "output": 79,
          "interpolation": "LINEAR"
        }
      ]
    }
  ],
  "bufferViews": [
    {
      "name": "mesh_indexes_neutral_wolfsnow",
      "buffer": 0,
      "byteOffset": 0,
      "byteLength": 28920,
      "target": 34963
    },
    {
      "name": "mesh_vertexes_neutral_wolfsnow",
      "buffer": 0,
      "byteOffset": 28920,
      "byteLength": 101920,
      "byteStride": 52,
      "target": 34962
    },
    {
      "name": "mesh_bones_neutral_wolfsnow",
      "buffer": 0,
      "byteOffset": 130840,
      "byteLength": 2112
    },
    {
      "name": "frames",
      "buffer": 0,
      "byteOffset": 132952,
      "byteLength": 1012
    },
    {
      "name": "bones_rotate",
      "buffer": 0,
      "byteOffset": 133964,
      "byteLength": 145728
    },
    {
      "name": "bones_translate",
      "buffer": 0,
      "byteOffset": 279692,
      "byteLength": 109296
    }
  ],
  "buffers": [
    {
      "uri": "character_neutrals_wolfsnow.bin",
      "byteLength": 388988
    }
  ],
  "images": [
    {
      "uri": "character_neutral_wolfsnow.dds"
    }
  ],
  "textures": [
    {
      "source": 0
    }
  ],
  "materials": [
    {
      "name": "material0",
      "alphaMode": "MASK",
      "pbrMetallicRoughness": {
        "baseColorTexture": {
          "index": 0,
          "texCoord": 0
        },
        "metallicFactor": 0.0
      },
      "emissiveFactor": [
        0.0,
        0.0,
        0.0
      ]
    }
  ]
}