{
  "asset": {
    "version": "2.0",
    "generator": "generated with dis3tool v1.1 by root.ext@gmail.com"
  },
  "scenes": [
    {
      "nodes": [
        0,
        1,
        2,
        3,
        4,
        5,
        6,
        7,
        8,
        9,
        10
      ]
    }
  ],
  "scene": 0,
  "nodes": [
    {
      "name": "BaseMesh",
      "mesh": 0,
      "skin": 0
    },
    {
      "name": "empire_leader-ranger_set3_arms",
      "mesh": 1,
      "skin": 1
    },
    {
      "name": "empire_leader-ranger_set3_body",
      "mesh": 2,
      "skin": 2
    },
    {
      "name": "empire_leader-ranger_set3_feet",
      "mesh": 3,
      "skin": 3
    },
    {
      "name": "empire_leader-ranger_set3_hands",
      "mesh": 4,
      "skin": 4
    },
    {
      "name": "empire_leader-ranger_set3_head",
      "mesh": 5,
      "skin": 5
    },
    {
      "name": "empire_leader-ranger_set3_helm",
      "mesh": 6,
      "skin": 6
    },
    {
      "name": "empire_leader-ranger_set3_legs",
      "mesh": 7,
      "skin": 7
    },
    {
      "name": "weapon_empire_leader-ranger_set3",
      "mesh": 8,
      "skin": 8
    },
    {
      "name": "weapon_arrow_empire_leader-ranger_set3",
      "mesh": 9,
      "skin": 9
    },
    {
      "name": "Hips",
      "rotation": [
        0.726622045,
        0.614257634,
        -0.125361487,
        -0.281055659
      ],
      "translation": [
        -0.00711188233,
        1.04006493,
        0.05794459
      ],
      "children": [
        11,
        35,
        40,
        45
      ]
    },
    {
      "name": "Spine",
      "rotation": [
        0.0220900662,
        -0.10799478,
        -0.11497099,
        0.987233758
      ],
      "translation": [
        0.08018701,
        -2.863531E-08,
        0.0333575942
      ],
      "children": [
        12
      ]
    },
    {
      "name": "Spine1",
      "rotation": [
        -0.00255712634,
        -0.013223934,
        0.061765708,
        0.997999668
      ],
      "translation": [
        0.166320413,
        -4.71785677E-09,
        5.033992E-09
      ],
      "children": [
        13,
        18,
        28
      ]
    },
    {
      "name": "Neck",
      "rotation": [
        -0.136949152,
        -0.216820076,
        -0.05243713,
        0.965134263
      ],
      "translation": [
        0.277705073,
        3.50703385E-06,
        0.0060575013
      ],
      "children": [
        14
      ]
    },
    {
      "name": "Head",
      "rotation": [
        -0.156476855,
        0.1513704,
        0.135436893,
        0.9665705
      ],
      "translation": [
        0.09168143,
        -3.39319932E-08,
        -2.204092E-08
      ],
      "children": [
        15,
        16
      ]
    },
    {
      "name": "Eyelid_down",
      "rotation": [
        0.709623158,
        -6.340665E-06,
        0.704581141,
        -2.19659269E-05
      ],
      "translation": [
        0.06495255,
        7.79441734E-07,
        0.06247766
      ]
    },
    {
      "name": "Eyelid_up",
      "rotation": [
        1.32553678E-05,
        -0.809244156,
        -2.05286251E-05,
        0.587471843
      ],
      "translation": [
        0.06337937,
        6.72205545E-07,
        0.0621459819
      ],
      "children": [
        17
      ]
    },
    {
      "name": "null_Eyelid_up_Tip",
      "rotation": [
        -3.5964554E-08,
        0.04686949,
        2.41888927E-07,
        0.998900831
      ],
      "translation": [
        0.0184873641,
        -3.70252318E-09,
        -1.38606438E-07
      ]
    },
    {
      "name": "LeftShoulder",
      "rotation": [
        0.604204953,
        0.78892076,
        0.110993363,
        -0.0148601122
      ],
      "translation": [
        0.248278916,
        0.0654643,
        -0.0188430827
      ],
      "children": [
        19
      ]
    },
    {
      "name": "LeftArm",
      "rotation": [
        0.04567291,
        -0.141427934,
        -0.400176048,
        0.904307
      ],
      "translation": [
        0.1379369,
        3.33325715E-07,
        -5.78499382E-08
      ],
      "children": [
        20
      ]
    },
    {
      "name": "LeftArmRoll",
      "rotation": [
        -0.06943471,
        -3.457034E-05,
        -1.87665933E-06,
        0.99758637
      ],
      "translation": [
        0.1269469,
        -1.95383E-07,
        2.12993676E-08
      ],
      "children": [
        21
      ]
    },
    {
      "name": "LeftForeArm",
      "rotation": [
        -0.082066156,
        0.4390141,
        -0.0857739449,
        0.890603364
      ],
      "translation": [
        0.126947254,
        -5.25330165E-07,
        -2.18649117E-08
      ],
      "children": [
        22
      ]
    },
    {
      "name": "LeftForeArmRoll",
      "rotation": [
        -0.0618063621,
        -3.1940786E-07,
        3.714795E-07,
        0.998088062
      ],
      "translation": [
        0.130008325,
        -1.269151E-07,
        6.611605E-08
      ],
      "children": [
        23
      ]
    },
    {
      "name": "LeftHand",
      "rotation": [
        -0.7270245,
        0.0111915367,
        -0.06644293,
        0.683297157
      ],
      "translation": [
        0.130007356,
        1.339899E-07,
        -2.62809188E-08
      ],
      "children": [
        24
      ]
    },
    {
      "name": "Weapon1",
      "rotation": [
        0.068886,
        0.9929825,
        -0.04276681,
        0.08608698
      ],
      "translation": [
        0.08863748,
        0.0480863675,
        -0.0365637019
      ],
      "children": [
        25,
        26,
        27
      ]
    },
    {
      "name": "String",
      "rotation": [
        -3.25776341E-07,
        2.52296051E-09,
        -0.003364017,
        0.999994
      ],
      "translation": [
        0.2047222,
        -6.659063E-07,
        -2.49293919E-07
      ]
    },
    {
      "name": "BowUp",
      "rotation": [
        -0.584119439,
        -0.398502141,
        0.3985021,
        0.5841195
      ],
      "translation": [
        -0.00471018348,
        0.168495715,
        7.852071E-09
      ]
    },
    {
      "name": "Mirror_BowUp",
      "rotation": [
        0.584119,
        -0.398502469,
        -0.3985027,
        0.5841192
      ],
      "translation": [
        -0.00471049966,
        -0.168495715,
        3.88430124E-08
      ]
    },
    {
      "name": "RightShoulder",
      "rotation": [
        -0.577692747,
        0.8082996,
        -0.00473428471,
        0.113579161
      ],
      "translation": [
        0.2482789,
        -0.06546402,
        -0.01884278
      ],
      "children": [
        29
      ]
    },
    {
      "name": "RightArm",
      "rotation": [
        0.0410285443,
        -0.0699213147,
        0.3935203,
        0.915734231
      ],
      "translation": [
        0.137937,
        -3.250539E-07,
        -4.50054642E-08
      ],
      "children": [
        30
      ]
    },
    {
      "name": "RightArmRoll",
      "rotation": [
        0.233603567,
        6.22665254E-07,
        -3.91210051E-07,
        0.9723318
      ],
      "translation": [
        0.126946822,
        1.45767913E-07,
        -2.6418796E-09
      ],
      "children": [
        31
      ]
    },
    {
      "name": "RightForeArm",
      "rotation": [
        0.127572492,
        0.7176771,
        -0.06391204,
        0.6816009
      ],
      "translation": [
        0.126947269,
        5.952473E-07,
        -7.509142E-08
      ],
      "children": [
        32
      ]
    },
    {
      "name": "RightForeArmRoll",
      "rotation": [
        0.208327338,
        5.2891977E-07,
        8.39948839E-08,
        0.978059
      ],
      "translation": [
        0.13000825,
        1.08800727E-07,
        5.27457651E-08
      ],
      "children": [
        33
      ]
    },
    {
      "name": "RightHand",
      "rotation": [
        0.674623549,
        -0.0481078066,
        0.3255475,
        0.660747468
      ],
      "translation": [
        0.13000752,
        4.11246059E-09,
        -5.979126E-08
      ],
      "children": [
        34
      ]
    },
    {
      "name": "Weapon_Arrow",
      "rotation": [
        -0.00344032119,
        -0.0104553653,
        -0.007406589,
        0.9999119
      ],
      "translation": [
        0.07732973,
        -0.0187944118,
        -0.0186250079
      ]
    },
    {
      "name": "LeftUpLeg",
      "rotation": [
        -0.00141701859,
        0.07764432,
        0.9883809,
        0.130661279
      ],
      "translation": [
        0.001653233,
        0.06795538,
        0.004127585
      ],
      "children": [
        36
      ]
    },
    {
      "name": "LeftUpLegRoll",
      "rotation": [
        0.0247031748,
        2.401158E-09,
        -5.80337056E-10,
        0.999694765
      ],
      "translation": [
        0.245443031,
        -4.6280185E-08,
        1.787504E-08
      ],
      "children": [
        37
      ]
    },
    {
      "name": "LeftLeg",
      "rotation": [
        0.009134631,
        0.19530721,
        0.0213325024,
        0.9804675
      ],
      "translation": [
        0.245443225,
        2.305365E-08,
        -2.870823E-08
      ],
      "children": [
        38
      ]
    },
    {
      "name": "LeftLegRoll",
      "rotation": [
        0.03689227,
        2.78120046E-06,
        2.11634574E-06,
        0.999319255
      ],
      "translation": [
        0.232603848,
        2.91622442E-08,
        3.62907482E-10
      ],
      "children": [
        39
      ]
    },
    {
      "name": "LeftFoot",
      "rotation": [
        -0.006138329,
        -0.5082729,
        0.029988002,
        0.860652
      ],
      "translation": [
        0.232603833,
        3.526226E-05,
        2.65194158E-05
      ]
    },
    {
      "name": "RightUpLeg",
      "rotation": [
        -0.1039956,
        0.00200664112,
        0.994575262,
        -0.0008705501
      ],
      "translation": [
        0.00165334647,
        -0.0679554045,
        0.004127642
      ],
      "children": [
        41
      ]
    },
    {
      "name": "RightUpLegRoll",
      "rotation": [
        0.00667398656,
        7.143646E-05,
        6.288443E-05,
        0.9999777
      ],
      "translation": [
        0.245443076,
        9.20894E-08,
        4.65530121E-08
      ],
      "children": [
        42
      ]
    },
    {
      "name": "RightLeg",
      "rotation": [
        -0.05677482,
        0.07627194,
        -0.0132966,
        0.995380461
      ],
      "translation": [
        0.245443285,
        1.27307391E-08,
        -3.05351122E-09
      ],
      "children": [
        43
      ]
    },
    {
      "name": "RightLegRoll",
      "rotation": [
        -0.0914086848,
        6.990748E-06,
        -5.297041E-06,
        0.9958134
      ],
      "translation": [
        0.232603729,
        -6.37225241E-08,
        2.17241425E-08
      ],
      "children": [
        44
      ]
    },
    {
      "name": "RightFoot",
      "rotation": [
        0.00588081172,
        -0.500183,
        -0.0420986675,
        0.864875734
      ],
      "translation": [
        0.2326038,
        -3.52387469E-05,
        2.65708168E-05
      ]
    },
    {
      "name": "quiver",
      "rotation": [
        -0.116761073,
        -0.6887797,
        0.7065127,
        -0.113088064
      ],
      "translation": [
        0.0263833683,
        -0.200820252,
        0.0117995078
      ]
    }
  ],
  "accessors": [
    {
      "bufferView": 0,
      "byteOffset": 0,
      "componentType": 5125,
      "count": 6,
      "type": "SCALAR"
    },
    {
      "bufferView": 1,
      "byteOffset": 0,
      "componentType": 5126,
      "count": 4,
      "type": "VEC3",
      "min": [
        -0.005,
        -0.5,
        -0.005
      ],
      "max": [
        0.005,
        -0.5,
        0.005
      ]
    },
    {
      "bufferView": 1,
      "byteOffset": 12,
      "componentType": 5126,
      "count": 4,
      "type": "VEC3"
    },
    {
      "bufferView": 1,
      "byteOffset": 24,
      "componentType": 5126,
      "count": 4,
      "type": "VEC2"
    },
    {
      "bufferView": 1,
      "byteOffset": 32,
      "componentType": 5126,
      "count": 4,
      "type": "VEC4"
    },
    {
      "bufferView": 1,
      "byteOffset": 48,
      "componentType": 5121,
      "count": 4,
      "type": "VEC4"
    },
    {
      "bufferView": 2,
      "byteOffset": 0,
      "componentType": 5126,
      "count": 1,
      "type": "MAT4"
    },
    {
      "bufferView": 3,
      "byteOffset": 0,
      "componentType": 5125,
      "count": 1956,
      "type": "SCALAR"
    },
    {
      "bufferView": 4,
      "byteOffset": 0,
      "componentType": 5126,
      "count": 468,
      "type": "VEC3",
      "min": [
        -0.51934433,
        1.1632123,
        -0.179619879
      ],
      "max": [
        0.51934433,
        1.64963925,
        0.130739555
      ]
    },
    {
      "bufferView": 4,
      "byteOffset": 12,
      "componentType": 5126,
      "count": 468,
      "type": "VEC3"
    },
    {
      "bufferView": 4,
      "byteOffset": 24,
      "componentType": 5126,
      "count": 468,
      "type": "VEC2"
    },
    {
      "bufferView": 4,
      "byteOffset": 32,
      "componentType": 5126,
      "count": 468,
      "type": "VEC4"
    },
    {
      "bufferView": 4,
      "byteOffset": 48,
      "componentType": 5121,
      "count": 468,
      "type": "VEC4"
    },
    {
      "bufferView": 5,
      "byteOffset": 0,
      "componentType": 5126,
      "count": 13,
      "type": "MAT4"
    },
    {
      "bufferView": 6,
      "byteOffset": 0,
      "componentType": 5125,
      "count": 2640,
      "type": "SCALAR"
    },
    {
      "bufferView": 7,
      "byteOffset": 0,
      "componentType": 5126,
      "count": 858,
      "type": "VEC3",
      "min": [
        -0.395058,
        0.5900236,
        -0.1682608
      ],
      "max": [
        0.395058,
        1.63290834,
        0.3834965
      ]
    },
    {
      "bufferView": 7,
      "byteOffset": 12,
      "componentType": 5126,
      "count": 858,
      "type": "VEC3"
    },
    {
      "bufferView": 7,
      "byteOffset": 24,
      "componentType": 5126,
      "count": 858,
      "type": "VEC2"
    },
    {
      "bufferView": 7,
      "byteOffset": 32,
      "componentType": 5126,
      "count": 858,
      "type": "VEC4"
    },
    {
      "bufferView": 7,
      "byteOffset": 48,
      "componentType": 5121,
      "count": 858,
      "type": "VEC4"
    },
    {
      "bufferView": 8,
      "byteOffset": 0,
      "componentType": 5126,
      "count": 11,
      "type": "MAT4"
    },
    {
      "bufferView": 9,
      "byteOffset": 0,
      "componentType": 5125,
      "count": 2484,
      "type": "SCALAR"
    },
    {
      "bufferView": 10,
      "byteOffset": 0,
      "componentType": 5126,
      "count": 738,
      "type": "VEC3",
      "min": [
        -0.2549989,
        -0.0008044433,
        -0.179648876
      ],
      "max": [
        0.2549989,
        0.7587516,
        0.10307613
      ]
    },
    {
      "bufferView": 10,
      "byteOffset": 12,
      "componentType": 5126,
      "count": 738,
      "type": "VEC3"
    },
    {
      "bufferView": 10,
      "byteOffset": 24,
      "componentType": 5126,
      "count": 738,
      "type": "VEC2"
    },
    {
      "bufferView": 10,
      "byteOffset": 32,
      "componentType": 5126,
      "count": 738,
      "type": "VEC4"
    },
    {
      "bufferView": 10,
      "byteOffset": 48,
      "componentType": 5121,
      "count": 738,
      "type": "VEC4"
    },
    {
      "bufferView": 11,
      "byteOffset": 0,
      "componentType": 5126,
      "count": 8,
      "type": "MAT4"
    },
    {
      "bufferView": 12,
      "byteOffset": 0,
      "componentType": 5125,
      "count": 3672,
      "type": "SCALAR"
    },
    {
      "bufferView": 13,
      "byteOffset": 0,
      "componentType": 5126,
      "count": 792,
      "type": "VEC3",
      "min": [
        -0.6483023,
        1.00684655,
        -0.0694752857
      ],
      "max": [
        0.648311,
        1.34044218,
        0.08480618
      ]
    },
    {
      "bufferView": 13,
      "byteOffset": 12,
      "componentType": 5126,
      "count": 792,
      "type": "VEC3"
    },
    {
      "bufferView": 13,
      "byteOffset": 24,
      "componentType": 5126,
      "count": 792,
      "type": "VEC2"
    },
    {
      "bufferView": 13,
      "byteOffset": 32,
      "componentType": 5126,
      "count": 792,
      "type": "VEC4"
    },
    {
      "bufferView": 13,
      "byteOffset": 48,
      "componentType": 5121,
      "count": 792,
      "type": "VEC4"
    },
    {
      "bufferView": 14,
      "byteOffset": 0,
      "componentType": 5126,
      "count": 6,
      "type": "MAT4"
    },
    {
      "bufferView": 15,
      "byteOffset": 0,
      "componentType": 5125,
      "count": 5313,
      "type": "SCALAR"
    },
    {
      "bufferView": 16,
      "byteOffset": 0,
      "componentType": 5126,
      "count": 1138,
      "type": "VEC3",
      "min": [
        -0.09174869,
        1.54219449,
        -0.1596844
      ],
      "max": [
        0.09221032,
        1.83933592,
        0.06762419
      ]
    },
    {
      "bufferView": 16,
      "byteOffset": 12,
      "componentType": 5126,
      "count": 1138,
      "type": "VEC3"
    },
    {
      "bufferView": 16,
      "byteOffset": 24,
      "componentType": 5126,
      "count": 1138,
      "type": "VEC2"
    },
    {
      "bufferView": 16,
      "byteOffset": 32,
      "componentType": 5126,
      "count": 1138,
      "type": "VEC4"
    },
    {
      "bufferView": 16,
      "byteOffset": 48,
      "componentType": 5121,
      "count": 1138,
      "type": "VEC4"
    },
    {
      "bufferView": 17,
      "byteOffset": 0,
      "componentType": 5126,
      "count": 5,
      "type": "MAT4"
    },
    {
      "bufferView": 18,
      "byteOffset": 0,
      "componentType": 5125,
      "count": 1560,
      "type": "SCALAR"
    },
    {
      "bufferView": 19,
      "byteOffset": 0,
      "componentType": 5126,
      "count": 467,
      "type": "VEC3",
      "min": [
        -0.1297411,
        1.58106315,
        -0.161420912
      ],
      "max": [
        0.1297411,
        2.08144665,
        0.131773055
      ]
    },
    {
      "bufferView": 19,
      "byteOffset": 12,
      "componentType": 5126,
      "count": 467,
      "type": "VEC3"
    },
    {
      "bufferView": 19,
      "byteOffset": 24,
      "componentType": 5126,
      "count": 467,
      "type": "VEC2"
    },
    {
      "bufferView": 19,
      "byteOffset": 32,
      "componentType": 5126,
      "count": 467,
      "type": "VEC4"
    },
    {
      "bufferView": 19,
      "byteOffset": 48,
      "componentType": 5121,
      "count": 467,
      "type": "VEC4"
    },
    {
      "bufferView": 20,
      "byteOffset": 0,
      "componentType": 5126,
      "count": 5,
      "type": "MAT4"
    },
    {
      "bufferView": 21,
      "byteOffset": 0,
      "componentType": 5125,
      "count": 873,
      "type": "SCALAR"
    },
    {
      "bufferView": 22,
      "byteOffset": 0,
      "componentType": 5126,
      "count": 187,
      "type": "VEC3",
      "min": [
        -0.228790686,
        0.370279521,
        -0.123769835
      ],
      "max": [
        0.228790581,
        1.05594957,
        0.09363952
      ]
    },
    {
      "bufferView": 22,
      "byteOffset": 12,
      "componentType": 5126,
      "count": 187,
      "type": "VEC3"
    },
    {
      "bufferView": 22,
      "byteOffset": 24,
      "componentType": 5126,
      "count": 187,
      "type": "VEC2"
    },
    {
      "bufferView": 22,
      "byteOffset": 32,
      "componentType": 5126,
      "count": 187,
      "type": "VEC4"
    },
    {
      "bufferView": 22,
      "byteOffset": 48,
      "componentType": 5121,
      "count": 187,
      "type": "VEC4"
    },
    {
      "bufferView": 23,
      "byteOffset": 0,
      "componentType": 5126,
      "count": 9,
      "type": "MAT4"
    },
    {
      "bufferView": 24,
      "byteOffset": 0,
      "componentType": 5125,
      "count": 1200,
      "type": "SCALAR"
    },
    {
      "bufferView": 25,
      "byteOffset": 0,
      "componentType": 5126,
      "count": 264,
      "type": "VEC3",
      "min": [
        -0.0872151256,
        -0.848644555,
        -0.0328418836
      ],
      "max": [
        0.2525203,
        0.8485305,
        0.03284189
      ]
    },
    {
      "bufferView": 25,
      "byteOffset": 12,
      "componentType": 5126,
      "count": 264,
      "type": "VEC3"
    },
    {
      "bufferView": 25,
      "byteOffset": 24,
      "componentType": 5126,
      "count": 264,
      "type": "VEC2"
    },
    {
      "bufferView": 25,
      "byteOffset": 32,
      "componentType": 5126,
      "count": 264,
      "type": "VEC4"
    },
    {
      "bufferView": 25,
      "byteOffset": 48,
      "componentType": 5121,
      "count": 264,
      "type": "VEC4"
    },
    {
      "bufferView": 26,
      "byteOffset": 0,
      "componentType": 5126,
      "count": 4,
      "type": "MAT4"
    },
    {
      "bufferView": 27,
      "byteOffset": 0,
      "componentType": 5125,
      "count": 84,
      "type": "SCALAR"
    },
    {
      "bufferView": 28,
      "byteOffset": 0,
      "componentType": 5126,
      "count": 74,
      "type": "VEC3",
      "min": [
        0.000143680576,
        -0.0236713123,
        -0.02838855
      ],
      "max": [
        0.75557816,
        0.0318496935,
        0.0269952081
      ]
    },
    {
      "bufferView": 28,
      "byteOffset": 12,
      "componentType": 5126,
      "count": 74,
      "type": "VEC3"
    },
    {
      "bufferView": 28,
      "byteOffset": 24,
      "componentType": 5126,
      "count": 74,
      "type": "VEC2"
    },
    {
      "bufferView": 28,
      "byteOffset": 32,
      "componentType": 5126,
      "count": 74,
      "type": "VEC4"
    },
    {
      "bufferView": 28,
      "byteOffset": 48,
      "componentType": 5121,
      "count": 74,
      "type": "VEC4"
    },
    {
      "bufferView": 29,
      "byteOffset": 0,
      "componentType": 5126,
      "count": 1,
      "type": "MAT4"
    },
    {
      "bufferView": 30,
      "byteOffset": 0,
      "componentType": 5126,
      "count": 407,
      "type": "SCALAR",
      "min": [
        0.0
      ],
      "max": [
        13.5333338
      ]
    },
    {
      "bufferView": 31,
      "byteOffset": 0,
      "componentType": 5126,
      "count": 407,
      "type": "VEC4"
    },
    {
      "bufferView": 32,
      "byteOffset": 0,
      "componentType": 5126,
      "count": 407,
      "type": "VEC3"
    },
    {
      "bufferView": 31,
      "byteOffset": 6512,
      "componentType": 5126,
      "count": 407,
      "type": "VEC4"
    },
    {
      "bufferView": 32,
      "byteOffset": 4884,
      "componentType": 5126,
      "count": 407,
      "type": "VEC3"
    },
    {
      "bufferView": 31,
      "byteOffset": 13024,
      "componentType": 5126,
      "count": 407,
      "type": "VEC4"
    },
    {
      "bufferView": 32,
      "byteOffset": 9768,
      "componentType": 5126,
      "count": 407,
      "type": "VEC3"
    },
    {
      "bufferView": 31,
      "byteOffset": 19536,
      "componentType": 5126,
      "count": 407,
      "type": "VEC4"
    },
    {
      "bufferView": 32,
      "byteOffset": 14652,
      "componentType": 5126,
      "count": 407,
      "type": "VEC3"
    },
    {
      "bufferView": 31,
      "byteOffset": 26048,
      "componentType": 5126,
      "count": 407,
      "type": "VEC4"
    },
    {
      "bufferView": 32,
      "byteOffset": 19536,
      "componentType": 5126,
      "count": 407,
      "type": "VEC3"
    },
    {
      "bufferView": 31,
      "byteOffset": 32560,
      "componentType": 5126,
      "count": 407,
      "type": "VEC4"
    },
    {
      "bufferView": 32,
      "byteOffset": 24420,
      "componentType": 5126,
      "count": 407,
      "type": "VEC3"
    },
    {
      "bufferView": 31,
      "byteOffset": 39072,
      "componentType": 5126,
      "count": 407,
      "type": "VEC4"
    },
    {
      "bufferView": 32,
      "byteOffset": 29304,
      "componentType": 5126,
      "count": 407,
      "type": "VEC3"
    },
    {
      "bufferView": 31,
      "byteOffset": 45584,
      "componentType": 5126,
      "count": 407,
      "type": "VEC4"
    },
    {
      "bufferView": 32,
      "byteOffset": 34188,
      "componentType": 5126,
      "count": 407,
      "type": "VEC3"
    },
    {
      "bufferView": 31,
      "byteOffset": 52096,
      "componentType": 5126,
      "count": 407,
      "type": "VEC4"
    },
    {
      "bufferView": 32,
      "byteOffset": 39072,
      "componentType": 5126,
      "count": 407,
      "type": "VEC3"
    },
    {
      "bufferView": 31,
      "byteOffset": 58608,
      "componentType": 5126,
      "count": 407,
      "type": "VEC4"
    },
    {
      "bufferView": 32,
      "byteOffset": 43956,
      "componentType": 5126,
      "count": 407,
      "type": "VEC3"
    },
    {
      "bufferView": 31,
      "byteOffset": 65120,
      "componentType": 5126,
      "count": 407,
      "type": "VEC4"
    },
    {
      "bufferView": 32,
      "byteOffset": 48840,
      "componentType": 5126,
      "count": 407,
      "type": "VEC3"
    },
    {
      "bufferView": 31,
      "byteOffset": 71632,
      "componentType": 5126,
      "count": 407,
      "type": "VEC4"
    },
    {
      "bufferView": 32,
      "byteOffset": 53724,
      "componentType": 5126,
      "count": 407,
      "type": "VEC3"
    },
    {
      "bufferView": 31,
      "byteOffset": 78144,
      "componentType": 5126,
      "count": 407,
      "type": "VEC4"
    },
    {
      "bufferView": 32,
      "byteOffset": 58608,
      "componentType": 5126,
      "count": 407,
      "type": "VEC3"
    },
    {
      "bufferView": 31,
      "byteOffset": 84656,
      "componentType": 5126,
      "count": 407,
      "type": "VEC4"
    },
    {
      "bufferView": 32,
      "byteOffset": 63492,
      "componentType": 5126,
      "count": 407,
      "type": "VEC3"
    },
    {
      "bufferView": 31,
      "byteOffset": 91168,
      "componentType": 5126,
      "count": 407,
      "type": "VEC4"
    },
    {
      "bufferView": 32,
      "byteOffset": 68376,
      "componentType": 5126,
      "count": 407,
      "type": "VEC3"
    },
    {
      "bufferView": 31,
      "byteOffset": 97680,
      "componentType": 5126,
      "count": 407,
      "type": "VEC4"
    },
    {
      "bufferView": 32,
      "byteOffset": 73260,
      "componentType": 5126,
      "count": 407,
      "type": "VEC3"
    },
    {
      "bufferView": 31,
      "byteOffset": 104192,
      "componentType": 5126,
      "count": 407,
      "type": "VEC4"
    },
    {
      "bufferView": 32,
      "byteOffset": 78144,
      "componentType": 5126,
      "count": 407,
      "type": "VEC3"
    },
    {
      "bufferView": 31,
      "byteOffset": 110704,
      "componentType": 5126,
      "count": 407,
      "type": "VEC4"
    },
    {
      "bufferView": 32,
      "byteOffset": 83028,
      "componentType": 5126,
      "count": 407,
      "type": "VEC3"
    },
    {
      "bufferView": 31,
      "byteOffset": 117216,
      "componentType": 5126,
      "count": 407,
      "type": "VEC4"
    },
    {
      "bufferView": 32,
      "byteOffset": 87912,
      "componentType": 5126,
      "count": 407,
      "type": "VEC3"
    },
    {
      "bufferView": 31,
      "byteOffset": 123728,
      "componentType": 5126,
      "count": 407,
      "type": "VEC4"
    },
    {
      "bufferView": 32,
      "byteOffset": 92796,
      "componentType": 5126,
      "count": 407,
      "type": "VEC3"
    },
    {
      "bufferView": 31,
      "byteOffset": 130240,
      "componentType": 5126,
      "count": 407,
      "type": "VEC4"
    },
    {
      "bufferView": 32,
      "byteOffset": 97680,
      "componentType": 5126,
      "count": 407,
      "type": "VEC3"
    },
    {
      "bufferView": 31,
      "byteOffset": 136752,
      "componentType": 5126,
      "count": 407,
      "type": "VEC4"
    },
    {
      "bufferView": 32,
      "byteOffset": 102564,
      "componentType": 5126,
      "count": 407,
      "type": "VEC3"
    },
    {
      "bufferView": 31,
      "byteOffset": 143264,
      "componentType": 5126,
      "count": 407,
      "type": "VEC4"
    },
    {
      "bufferView": 32,
      "byteOffset": 107448,
      "componentType": 5126,
      "count": 407,
      "type": "VEC3"
    },
    {
      "bufferView": 31,
      "byteOffset": 149776,
      "componentType": 5126,
      "count": 407,
      "type": "VEC4"
    },
    {
      "bufferView": 32,
      "byteOffset": 112332,
      "componentType": 5126,
      "count": 407,
      "type": "VEC3"
    },
    {
      "bufferView": 31,
      "byteOffset": 156288,
      "componentType": 5126,
      "count": 407,
      "type": "VEC4"
    },
    {
      "bufferView": 32,
      "byteOffset": 117216,
      "componentType": 5126,
      "count": 407,
      "type": "VEC3"
    },
    {
      "bufferView": 31,
      "byteOffset": 162800,
      "componentType": 5126,
      "count": 407,
      "type": "VEC4"
    },
    {
      "bufferView": 32,
      "byteOffset": 122100,
      "componentType": 5126,
      "count": 407,
      "type": "VEC3"
    },
    {
      "bufferView": 31,
      "byteOffset": 169312,
      "componentType": 5126,
      "count": 407,
      "type": "VEC4"
    },
    {
      "bufferView": 32,
      "byteOffset": 126984,
      "componentType": 5126,
      "count": 407,
      "type": "VEC3"
    },
    {
      "bufferView": 31,
      "byteOffset": 175824,
      "componentType": 5126,
      "count": 407,
      "type": "VEC4"
    },
    {
      "bufferView": 32,
      "byteOffset": 131868,
      "componentType": 5126,
      "count": 407,
      "type": "VEC3"
    },
    {
      "bufferView": 31,
      "byteOffset": 182336,
      "componentType": 5126,
      "count": 407,
      "type": "VEC4"
    },
    {
      "bufferView": 32,
      "byteOffset": 136752,
      "componentType": 5126,
      "count": 407,
      "type": "VEC3"
    },
    {
      "bufferView": 31,
      "byteOffset": 188848,
      "componentType": 5126,
      "count": 407,
      "type": "VEC4"
    },
    {
      "bufferView": 32,
      "byteOffset": 141636,
      "componentType": 5126,
      "count": 407,
      "type": "VEC3"
    },
    {
      "bufferView": 31,
      "byteOffset": 195360,
      "componentType": 5126,
      "count": 407,
      "type": "VEC4"
    },
    {
      "bufferView": 32,
      "byteOffset": 146520,
      "componentType": 5126,
      "count": 407,
      "type": "VEC3"
    },
    {
      "bufferView": 31,
      "byteOffset": 201872,
      "componentType": 5126,
      "count": 407,
      "type": "VEC4"
    },
    {
      "bufferView": 32,
      "byteOffset": 151404,
      "componentType": 5126,
      "count": 407,
      "type": "VEC3"
    },
    {
      "bufferView": 31,
      "byteOffset": 208384,
      "componentType": 5126,
      "count": 407,
      "type": "VEC4"
    },
    {
      "bufferView": 32,
      "byteOffset": 156288,
      "componentType": 5126,
      "count": 407,
      "type": "VEC3"
    },
    {
      "bufferView": 31,
      "byteOffset": 214896,
      "componentType": 5126,
      "count": 407,
      "type": "VEC4"
    },
    {
      "bufferView": 32,
      "byteOffset": 161172,
      "componentType": 5126,
      "count": 407,
      "type": "VEC3"
    },
    {
      "bufferView": 31,
      "byteOffset": 221408,
      "componentType": 5126,
      "count": 407,
      "type": "VEC4"
    },
    {
      "bufferView": 32,
      "byteOffset": 166056,
      "componentType": 5126,
      "count": 407,
      "type": "VEC3"
    },
    {
      "bufferView": 31,
      "byteOffset": 227920,
      "componentType": 5126,
      "count": 407,
      "type": "VEC4"
    },
    {
      "bufferView": 32,
      "byteOffset": 170940,
      "componentType": 5126,
      "count": 407,
      "type": "VEC3"
    }
  ],
  "skins": [
    {
      "name": "skin0",
      "inverseBindMatrices": 6,
      "joints": [
        10
      ]
    },
    {
      "name": "skin1",
      "inverseBindMatrices": 13,
      "joints": [
        13,
        18,
        12,
        19,
        28,
        14,
        29,
        20,
        21,
        22,
        30,
        31,
        32
      ]
    },
    {
      "name": "skin2",
      "inverseBindMatrices": 20,
      "joints": [
        10,
        40,
        45,
        11,
        12,
        18,
        19,
        28,
        35,
        13,
        29
      ]
    },
    {
      "name": "skin3",
      "inverseBindMatrices": 27,
      "joints": [
        39,
        37,
        38,
        36,
        44,
        43,
        42,
        41
      ]
    },
    {
      "name": "skin4",
      "inverseBindMatrices": 34,
      "joints": [
        21,
        22,
        23,
        31,
        32,
        33
      ]
    },
    {
      "name": "skin5",
      "inverseBindMatrices": 41,
      "joints": [
        14,
        16,
        15,
        12,
        13
      ]
    },
    {
      "name": "skin6",
      "inverseBindMatrices": 48,
      "joints": [
        14,
        15,
        13,
        12,
        16
      ]
    },
    {
      "name": "skin7",
      "inverseBindMatrices": 55,
      "joints": [
        10,
        40,
        41,
        42,
        43,
        35,
        36,
        37,
        38
      ]
    },
    {
      "name": "skin8",
      "inverseBindMatrices": 62,
      "joints": [
        26,
        24,
        25,
        27
      ]
    },
    {
      "name": "skin9",
      "inverseBindMatrices": 69,
      "joints": [
        34
      ]
    }
  ],
  "meshes": [
    {
      "name": "BaseMesh",
      "primitives": [
        {
          "attributes": {
            "POSITION": 1,
            "NORMAL": 2,
            "TEXCOORD_0": 3,
            "WEIGHTS_0": 4,
            "JOINTS_0": 5
          },
          "indices": 0,
          "mode": 4,
          "material": 0
        }
      ]
    },
    {
      "name": "empire_leader-ranger_set3_arms",
      "primitives": [
        {
          "attributes": {
            "POSITION": 8,
            "NORMAL": 9,
            "TEXCOORD_0": 10,
            "WEIGHTS_0": 11,
            "JOINTS_0": 12
          },
          "indices": 7,
          "mode": 4,
          "material": 1
        }
      ]
    },
    {
      "name": "empire_leader-ranger_set3_body",
      "primitives": [
        {
          "attributes": {
            "POSITION": 15,
            "NORMAL": 16,
            "TEXCOORD_0": 17,
            "WEIGHTS_0": 18,
            "JOINTS_0": 19
          },
          "indices": 14,
          "mode": 4,
          "material": 2
        }
      ]
    },
    {
      "name": "empire_leader-ranger_set3_feet",
      "primitives": [
        {
          "attributes": {
            "POSITION": 22,
            "NORMAL": 23,
            "TEXCOORD_0": 24,
            "WEIGHTS_0": 25,
            "JOINTS_0": 26
          },
          "indices": 21,
          "mode": 4,
          "material": 3
        }
      ]
    },
    {
      "name": "empire_leader-ranger_set3_hands",
      "primitives": [
        {
          "attributes": {
            "POSITION": 29,
            "NORMAL": 30,
            "TEXCOORD_0": 31,
            "WEIGHTS_0": 32,
            "JOINTS_0": 33
          },
          "indices": 28,
          "mode": 4,
          "material": 4
        }
      ]
    },
    {
      "name": "empire_leader-ranger_set3_head",
      "primitives": [
        {
          "attributes": {
            "POSITION": 36,
            "NORMAL": 37,
            "TEXCOORD_0": 38,
            "WEIGHTS_0": 39,
            "JOINTS_0": 40
          },
          "indices": 35,
          "mode": 4,
          "material": 5
        }
      ]
    },
    {
      "name": "empire_leader-ranger_set3_helm",
      "primitives": [
        {
          "attributes": {
            "POSITION": 43,
            "NORMAL": 44,
            "TEXCOORD_0": 45,
            "WEIGHTS_0": 46,
            "JOINTS_0": 47
          },
          "indices": 42,
          "mode": 4,
          "material": 6
        }
      ]
    },
    {
      "name": "empire_leader-ranger_set3_legs",
      "primitives": [
        {
          "attributes": {
            "POSITION": 50,
            "NORMAL": 51,
            "TEXCOORD_0": 52,
            "WEIGHTS_0": 53,
            "JOINTS_0": 54
          },
          "indices": 49,
          "mode": 4,
          "material": 7
        }
      ]
    },
    {
      "name": "weapon_empire_leader-ranger_set3",
      "primitives": [
        {
          "attributes": {
            "POSITION": 57,
            "NORMAL": 58,
            "TEXCOORD_0": 59,
            "WEIGHTS_0": 60,
            "JOINTS_0": 61
          },
          "indices": 56,
          "mode": 4,
          "material": 8
        }
      ]
    },
    {
      "name": "weapon_arrow_empire_leader-ranger_set3",
      "primitives": [
        {
          "attributes": {
            "POSITION": 64,
            "NORMAL": 65,
            "TEXCOORD_0": 66,
            "WEIGHTS_0": 67,
            "JOINTS_0": 68
          },
          "indices": 63,
          "mode": 4,
          "material": 9
        }
      ]
    }
  ],
  "animations": [
    {
      "channels": [
        {
          "sampler": 0,
          "target": {
            "node": 10,
            "path": "rotation"
          }
        },
        {
          "sampler": 1,
          "target": {
            "node": 10,
            "path": "translation"
          }
        },
        {
          "sampler": 2,
          "target": {
            "node": 11,
            "path": "rotation"
          }
        },
        {
          "sampler": 3,
          "target": {
            "node": 11,
            "path": "translation"
          }
        },
        {
          "sampler": 4,
          "target": {
            "node": 12,
            "path": "rotation"
          }
        },
        {
          "sampler": 5,
          "target": {
            "node": 12,
            "path": "translation"
          }
        },
        {
          "sampler": 6,
          "target": {
            "node": 13,
            "path": "rotation"
          }
        },
        {
          "sampler": 7,
          "target": {
            "node": 13,
            "path": "translation"
          }
        },
        {
          "sampler": 8,
          "target": {
            "node": 14,
            "path": "rotation"
          }
        },
        {
          "sampler": 9,
          "target": {
            "node": 14,
            "path": "translation"
          }
        },
        {
          "sampler": 10,
          "target": {
            "node": 15,
            "path": "rotation"
          }
        },
        {
          "sampler": 11,
          "target": {
            "node": 15,
            "path": "translation"
          }
        },
        {
          "sampler": 12,
          "target": {
            "node": 16,
            "path": "rotation"
          }
        },
        {
          "sampler": 13,
          "target": {
            "node": 16,
            "path": "translation"
          }
        },
        {
          "sampler": 14,
          "target": {
            "node": 17,
            "path": "rotation"
          }
        },
        {
          "sampler": 15,
          "target": {
            "node": 17,
            "path": "translation"
          }
        },
        {
          "sampler": 16,
          "target": {
            "node": 18,
            "path": "rotation"
          }
        },
        {
          "sampler": 17,
          "target": {
            "node": 18,
            "path": "translation"
          }
        },
        {
          "sampler": 18,
          "target": {
            "node": 19,
            "path": "rotation"
          }
        },
        {
          "sampler": 19,
          "target": {
            "node": 19,
            "path": "translation"
          }
        },
        {
          "sampler": 20,
          "target": {
            "node": 20,
            "path": "rotation"
          }
        },
        {
          "sampler": 21,
          "target": {
            "node": 20,
            "path": "translation"
          }
        },
        {
          "sampler": 22,
          "target": {
            "node": 21,
            "path": "rotation"
          }
        },
        {
          "sampler": 23,
          "target": {
            "node": 21,
            "path": "translation"
          }
        },
        {
          "sampler": 24,
          "target": {
            "node": 22,
            "path": "rotation"
          }
        },
        {
          "sampler": 25,
          "target": {
            "node": 22,
            "path": "translation"
          }
        },
        {
          "sampler": 26,
          "target": {
            "node": 23,
            "path": "rotation"
          }
        },
        {
          "sampler": 27,
          "target": {
            "node": 23,
            "path": "translation"
          }
        },
        {
          "sampler": 28,
          "target": {
            "node": 24,
            "path": "rotation"
          }
        },
        {
          "sampler": 29,
          "target": {
            "node": 24,
            "path": "translation"
          }
        },
        {
          "sampler": 30,
          "target": {
            "node": 25,
            "path": "rotation"
          }
        },
        {
          "sampler": 31,
          "target": {
            "node": 25,
            "path": "translation"
          }
        },
        {
          "sampler": 32,
          "target": {
            "node": 26,
            "path": "rotation"
          }
        },
        {
          "sampler": 33,
          "target": {
            "node": 26,
            "path": "translation"
          }
        },
        {
          "sampler": 34,
          "target": {
            "node": 27,
            "path": "rotation"
          }
        },
        {
          "sampler": 35,
          "target": {
            "node": 27,
            "path": "translation"
          }
        },
        {
          "sampler": 36,
          "target": {
            "node": 28,
            "path": "rotation"
          }
        },
        {
          "sampler": 37,
          "target": {
            "node": 28,
            "path": "translation"
          }
        },
        {
          "sampler": 38,
          "target": {
            "node": 29,
            "path": "rotation"
          }
        },
        {
          "sampler": 39,
          "target": {
            "node": 29,
            "path": "translation"
          }
        },
        {
          "sampler": 40,
          "target": {
            "node": 30,
            "path": "rotation"
          }
        },
        {
          "sampler": 41,
          "target": {
            "node": 30,
            "path": "translation"
          }
        },
        {
          "sampler": 42,
          "target": {
            "node": 31,
            "path": "rotation"
          }
        },
        {
          "sampler": 43,
          "target": {
            "node": 31,
            "path": "translation"
          }
        },
        {
          "sampler": 44,
          "target": {
            "node": 32,
            "path": "rotation"
          }
        },
        {
          "sampler": 45,
          "target": {
            "node": 32,
            "path": "translation"
          }
        },
        {
          "sampler": 46,
          "target": {
            "node": 33,
            "path": "rotation"
          }
        },
        {
          "sampler": 47,
          "target": {
            "node": 33,
            "path": "translation"
          }
        },
        {
          "sampler": 48,
          "target": {
            "node": 34,
            "path": "rotation"
          }
        },
        {
          "sampler": 49,
          "target": {
            "node": 34,
            "path": "translation"
          }
        },
        {
          "sampler": 50,
          "target": {
            "node": 35,
            "path": "rotation"
          }
        },
        {
          "sampler": 51,
          "target": {
            "node": 35,
            "path": "translation"
          }
        },
        {
          "sampler": 52,
          "target": {
            "node": 36,
            "path": "rotation"
          }
        },
        {
          "sampler": 53,
          "target": {
            "node": 36,
            "path": "translation"
          }
        },
        {
          "sampler": 54,
          "target": {
            "node": 37,
            "path": "rotation"
          }
        },
        {
          "sampler": 55,
          "target": {
            "node": 37,
            "path": "translation"
          }
        },
        {
          "sampler": 56,
          "target": {
            "node": 38,
            "path": "rotation"
          }
        },
        {
          "sampler": 57,
          "target": {
            "node": 38,
            "path": "translation"
          }
        },
        {
          "sampler": 58,
          "target": {
            "node": 39,
            "path": "rotation"
          }
        },
        {
          "sampler": 59,
          "target": {
            "node": 39,
            "path": "translation"
          }
        },
        {
          "sampler": 60,
          "target": {
            "node": 40,
            "path": "rotation"
          }
        },
        {
          "sampler": 61,
          "target": {
            "node": 40,
            "path": "translation"
          }
        },
        {
          "sampler": 62,
          "target": {
            "node": 41,
            "path": "rotation"
          }
        },
        {
          "sampler": 63,
          "target": {
            "node": 41,
            "path": "translation"
          }
        },
        {
          "sampler": 64,
          "target": {
            "node": 42,
            "path": "rotation"
          }
        },
        {
          "sampler": 65,
          "target": {
            "node": 42,
            "path": "translation"
          }
        },
        {
          "sampler": 66,
          "target": {
            "node": 43,
            "path": "rotation"
          }
        },
        {
          "sampler": 67,
          "target": {
            "node": 43,
            "path": "translation"
          }
        },
        {
          "sampler": 68,
          "target": {
            "node": 44,
            "path": "rotation"
          }
        },
        {
          "sampler": 69,
          "target": {
            "node": 44,
            "path": "translation"
          }
        },
        {
          "sampler": 70,
          "target": {
            "node": 45,
            "path": "rotation"
          }
        },
        {
          "sampler": 71,
          "target": {
            "node": 45,
            "path": "translation"
          }
        }
      ],
      "samplers": [
        {
          "input": 70,
          "output": 71,
          "interpolation": "LINEAR"
        },
        {
          "input": 70,
          "output": 72,
          "interpolation": "LINEAR"
        },
        {
          "input": 70,
          "output": 73,
          "interpolation": "LINEAR"
        },
        {
          "input": 70,
          "output": 74,
          "interpolation": "LINEAR"
        },
        {
          "input": 70,
          "output": 75,
          "interpolation": "LINEAR"
        },
        {
          "input": 70,
          "output": 76,
          "interpolation": "LINEAR"
        },
        {
          "input": 70,
          "output": 77,
          "interpolation": "LINEAR"
        },
        {
          "input": 70,
          "output": 78,
          "interpolation": "LINEAR"
        },
        {
          "input": 70,
          "output": 79,
          "interpolation": "LINEAR"
        },
        {
          "input": 70,
          "output": 80,
          "interpolation": "LINEAR"
        },
        {
          "input": 70,
          "output": 81,
          "interpolation": "LINEAR"
        },
        {
          "input": 70,
          "output": 82,
          "interpolation": "LINEAR"
        },
        {
          "input": 70,
          "output": 83,
          "interpolation": "LINEAR"
        },
        {
          "input": 70,
          "output": 84,
          "interpolation": "LINEAR"
        },
        {
          "input": 70,
          "output": 85,
          "interpolation": "LINEAR"
        },
        {
          "input": 70,
          "output": 86,
          "interpolation": "LINEAR"
        },
        {
          "input": 70,
          "output": 87,
          "interpolation": "LINEAR"
        },
        {
          "input": 70,
          "output": 88,
          "interpolation": "LINEAR"
        },
        {
          "input": 70,
          "output": 89,
          "interpolation": "LINEAR"
        },
        {
          "input": 70,
          "output": 90,
          "interpolation": "LINEAR"
        },
        {
          "input": 70,
          "output": 91,
          "interpolation": "LINEAR"
        },
        {
          "input": 70,
          "output": 92,
          "interpolation": "LINEAR"
        },
        {
          "input": 70,
          "output": 93,
          "interpolation": "LINEAR"
        },
        {
          "input": 70,
          "output": 94,
          "interpolation": "LINEAR"
        },
        {
          "input": 70,
          "output": 95,
          "interpolation": "LINEAR"
        },
        {
          "input": 70,
          "output": 96,
          "interpolation": "LINEAR"
        },
        {
          "input": 70,
          "output": 97,
          "interpolation": "LINEAR"
        },
        {
          "input": 70,
          "output": 98,
          "interpolation": "LINEAR"
        },
        {
          "input": 70,
          "output": 99,
          "interpolation": "LINEAR"
        },
        {
          "input": 70,
          "output": 100,
          "interpolation": "LINEAR"
        },
        {
          "input": 70,
          "output": 101,
          "interpolation": "LINEAR"
        },
        {
          "input": 70,
          "output": 102,
          "interpolation": "LINEAR"
        },
        {
          "input": 70,
          "output": 103,
          "interpolation": "LINEAR"
        },
        {
          "input": 70,
          "output": 104,
          "interpolation": "LINEAR"
        },
        {
          "input": 70,
          "output": 105,
          "interpolation": "LINEAR"
        },
        {
          "input": 70,
          "output": 106,
          "interpolation": "LINEAR"
        },
        {
          "input": 70,
          "output": 107,
          "interpolation": "LINEAR"
        },
        {
          "input": 70,
          "output": 108,
          "interpolation": "LINEAR"
        },
        {
          "input": 70,
          "output": 109,
          "interpolation": "LINEAR"
        },
        {
          "input": 70,
          "output": 110,
          "interpolation": "LINEAR"
        },
        {
          "input": 70,
          "output": 111,
          "interpolation": "LINEAR"
        },
        {
          "input": 70,
          "output": 112,
          "interpolation": "LINEAR"
        },
        {
          "input": 70,
          "output": 113,
          "interpolation": "LINEAR"
        },
        {
          "input": 70,
          "output": 114,
          "interpolation": "LINEAR"
        },
        {
          "input": 70,
          "output": 115,
          "interpolation": "LINEAR"
        },
        {
          "input": 70,
          "output": 116,
          "interpolation": "LINEAR"
        },
        {
          "input": 70,
          "output": 117,
          "interpolation": "LINEAR"
        },
        {
          "input": 70,
          "output": 118,
          "interpolation": "LINEAR"
        },
        {
          "input": 70,
          "output": 119,
          "interpolation": "LINEAR"
        },
        {
          "input": 70,
          "output": 120,
          "interpolation": "LINEAR"
        },
        {
          "input": 70,
          "output": 121,
          "interpolation": "LINEAR"
        },
        {
          "input": 70,
          "output": 122,
          "interpolation": "LINEAR"
        },
        {
          "input": 70,
          "output": 123,
          "interpolation": "LINEAR"
        },
        {
          "input": 70,
          "output": 124,
          "interpolation": "LINEAR"
        },
        {
          "input": 70,
          "output": 125,
          "interpolation": "LINEAR"
        },
        {
          "input": 70,
          "output": 126,
          "interpolation": "LINEAR"
        },
        {
          "input": 70,
          "output": 127,
          "interpolation": "LINEAR"
        },
        {
          "input": 70,
          "output": 128,
          "interpolation": "LINEAR"
        },
        {
          "input": 70,
          "output": 129,
          "interpolation": "LINEAR"
        },
        {
          "input": 70,
          "output": 130,
          "interpolation": "LINEAR"
        },
        {
          "input": 70,
          "output": 131,
          "interpolation": "LINEAR"
        },
        {
          "input": 70,
          "output": 132,
          "interpolation": "LINEAR"
        },
        {
          "input": 70,
          "output": 133,
          "interpolation": "LINEAR"
        },
        {
          "input": 70,
          "output": 134,
          "interpolation": "LINEAR"
        },
        {
          "input": 70,
          "output": 135,
          "interpolation": "LINEAR"
        },
        {
          "input": 70,
          "output": 136,
          "interpolation": "LINEAR"
        },
        {
          "input": 70,
          "output": 137,
          "interpolation": "LINEAR"
        },
        {
          "input": 70,
          "output": 138,
          "interpolation": "LINEAR"
        },
        {
          "input": 70,
          "output": 139,
          "interpolation": "LINEAR"
        },
        {
          "input": 70,
          "output": 140,
          "interpolation": "LINEAR"
        },
        {
          "input": 70,
          "output": 141,
          "interpolation": "LINEAR"
        },
        {
          "input": 70,
          "output": 142,
          "interpolation": "LINEAR"
        }
      ]
    }
  ],
  "bufferViews": [
    {
      "name": "mesh_indexes_BaseMesh",
      "buffer": 0,
      "byteOffset": 0,
      "byteLength": 24,
      "target": 34963
    },
    {
      "name": "mesh_vertexes_BaseMesh",
      "buffer": 0,
      "byteOffset": 24,
      "byteLength": 208,
      "byteStride": 52,
      "target": 34962
    },
    {
      "name": "mesh_bones_BaseMesh",
      "buffer": 0,
      "byteOffset": 232,
      "byteLength": 64
    },
    {
      "name": "mesh_indexes_empire_leader-ranger_set3_arms",
      "buffer": 0,
      "byteOffset": 296,
      "byteLength": 7824,
      "target": 34963
    },
    {
      "name": "mesh_vertexes_empire_leader-ranger_set3_arms",
      "buffer": 0,
      "byteOffset": 8120,
      "byteLength": 24336,
      "byteStride": 52,
      "target": 34962
    },
    {
      "name": "mesh_bones_empire_leader-ranger_set3_arms",
      "buffer": 0,
      "byteOffset": 32456,
      "byteLength": 832
    },
    {
      "name": "mesh_indexes_empire_leader-ranger_set3_body",
      "buffer": 0,
      "byteOffset": 33288,
      "byteLength": 10560,
      "target": 34963
    },
    {
      "name": "mesh_vertexes_empire_leader-ranger_set3_body",
      "buffer": 0,
      "byteOffset": 43848,
      "byteLength": 44616,
      "byteStride": 52,
      "target": 34962
    },
    {
      "name": "mesh_bones_empire_leader-ranger_set3_body",
      "buffer": 0,
      "byteOffset": 88464,
      "byteLength": 704
    },
    {
      "name": "mesh_indexes_empire_leader-ranger_set3_feet",
      "buffer": 0,
      "byteOffset": 89168,
      "byteLength": 9936,
      "target": 34963
    },
    {
      "name": "mesh_vertexes_empire_leader-ranger_set3_feet",
      "buffer": 0,
      "byteOffset": 99104,
      "byteLength": 38376,
      "byteStride": 52,
      "target": 34962
    },
    {
      "name": "mesh_bones_empire_leader-ranger_set3_feet",
      "buffer": 0,
      "byteOffset": 137480,
      "byteLength": 512
    },
    {
      "name": "mesh_indexes_empire_leader-ranger_set3_hands",
      "buffer": 0,
      "byteOffset": 137992,
      "byteLength": 14688,
      "target": 34963
    },
    {
      "name": "mesh_vertexes_empire_leader-ranger_set3_hands",
      "buffer": 0,
      "byteOffset": 152680,
      "byteLength": 41184,
      "byteStride": 52,
      "target": 34962
    },
    {
      "name": "mesh_bones_empire_leader-ranger_set3_hands",
      "buffer": 0,
      "byteOffset": 193864,
      "byteLength": 384
    },
    {
      "name": "mesh_indexes_empire_leader-ranger_set3_head",
      "buffer": 0,
      "byteOffset": 194248,
      "byteLength": 21252,
      "target": 34963
    },
    {
      "name": "mesh_vertexes_empire_leader-ranger_set3_head",
      "buffer": 0,
      "byteOffset": 215500,
      "byteLength": 59176,
      "byteStride": 52,
      "target": 34962
    },
    {
      "name": "mesh_bones_empire_leader-ranger_set3_head",
      "buffer": 0,
      "byteOffset": 274676,
      "byteLength": 320
    },
    {
      "name": "mesh_indexes_empire_leader-ranger_set3_helm",
      "buffer": 0,
      "byteOffset": 274996,
      "byteLength": 6240,
      "target": 34963
    },
    {
      "name": "mesh_vertexes_empire_leader-ranger_set3_helm",
      "buffer": 0,
      "byteOffset": 281236,
      "byteLength": 24284,
      "byteStride": 52,
      "target": 34962
    },
    {
      "name": "mesh_bones_empire_leader-ranger_set3_helm",
      "buffer": 0,
      "byteOffset": 305520,
      "byteLength": 320
    },
    {
      "name": "mesh_indexes_empire_leader-ranger_set3_legs",
      "buffer": 0,
      "byteOffset": 305840,
      "byteLength": 3492,
      "target": 34963
    },
    {
      "name": "mesh_vertexes_empire_leader-ranger_set3_legs",
      "buffer": 0,
      "byteOffset": 309332,
      "byteLength": 9724,
      "byteStride": 52,
      "target": 34962
    },
    {
      "name": "mesh_bones_empire_leader-ranger_set3_legs",
      "buffer": 0,
      "byteOffset": 319056,
      "byteLength": 576
    },
    {
      "name": "mesh_indexes_weapon_empire_leader-ranger_set3",
      "buffer": 0,
      "byteOffset": 319632,
      "byteLength": 4800,
      "target": 34963
    },
    {
      "name": "mesh_vertexes_weapon_empire_leader-ranger_set3",
      "buffer": 0,
      "byteOffset": 324432,
      "byteLength": 13728,
      "byteStride": 52,
      "target": 34962
    },
    {
      "name": "mesh_bones_weapon_empire_leader-ranger_set3",
      "buffer": 0,
      "byteOffset": 338160,
      "byteLength": 256
    },
    {
      "name": "mesh_indexes_weapon_arrow_empire_leader-ranger_set3",
      "buffer": 0,
      "byteOffset": 338416,
      "byteLength": 336,
      "target": 34963
    },
    {
      "name": "mesh_vertexes_weapon_arrow_empire_leader-ranger_set3",
      "buffer": 0,
      "byteOffset": 338752,
      "byteLength": 3848,
      "byteStride": 52,
      "target": 34962
    },
    {
      "name": "mesh_bones_weapon_arrow_empire_leader-ranger_set3",
      "buffer": 0,
      "byteOffset": 342600,
      "byteLength": 64
    },
    {
      "name": "frames",
      "buffer": 0,
      "byteOffset": 342664,
      "byteLength": 1628
    },
    {
      "name": "bones_rotate",
      "buffer": 0,
      "byteOffset": 344292,
      "byteLength": 234432
    },
    {
      "name": "bones_translate",
      "buffer": 0,
      "byteOffset": 578724,
      "byteLength": 175824
    }
  ],
  "buffers": [
    {
      "uri": "character_empire_leader-ranger_set3.bin",
      "byteLength": 754548
    }
  ],
  "images": [
    {
      "uri": "character_empire_leader-ranger_set3_arms_alpha.dds"
    },
    {
      "uri": "character_empire_leader-ranger_set3_body_diffuse.dds"
    },
    {
      "uri": "character_empire_leader-ranger_set3_feet_diffuse.dds"
    },
    {
      "uri": "character_empire_leader-ranger_set3_hands_diffuse.dds"
    },
    {
      "uri": "character_empire_leader-ranger_set3_head_diffuse.dds"
    },
    {
      "uri": "character_empire_leader-ranger_set3_helm_alpha.dds"
    },
    {
      "uri": "character_empire_leader-ranger_set3_legs_diffuse.dds"
    },
    {
      "uri": "weapon_empire_leader-ranger_set3_diffuse.dds"
    }
  ],
  "textures": [
    {
      "source": 0
    },
    {
      "source": 1
    },
    {
      "source": 2
    },
    {
      "source": 3
    },
    {
      "source": 4
    },
    {
      "source": 5
    },
    {
      "source": 6
    },
    {
      "source": 7
    }
  ],
  "materials": [
    {
      "name": "material0",
      "pbrMetallicRoughness": {
        "baseColorFactor": [
          0.5,
          0.5,
          0.5,
          1.0
        ],
        "metallicFactor": 0.0
      },
      "emissiveFactor": [
        0.0,
        0.0,
        0.0
      ]
    },
    {
      "name": "material1",
      "alphaMode": "MASK",
      "pbrMetallicRoughness": {
        "baseColorTexture": {
          "index": 0,
          "texCoord": 0
        },
        "metallicFactor": 0.0
      },
      "emissiveFactor": [
        0.0,
        0.0,
        0.0
      ]
    },
    {
      "name": "material2",
      "alphaMode": "MASK",
      "pbrMetallicRoughness": {
        "baseColorTexture": {
          "index": 1,
          "texCoord": 0
        },
        "metallicFactor": 0.0
      },
      "emissiveFactor": [
        0.0,
        0.0,
        0.0
      ]
    },
    {
      "name": "material3",
      "alphaMode": "MASK",
      "pbrMetallicRoughness": {
        "baseColorTexture": {
          "index": 2,
          "texCoord": 0
        },
        "metallicFactor": 0.0
      },
      "emissiveFactor": [
        0.0,
        0.0,
        0.0
      ]
    },
    {
      "name": "material4",
      "alphaMode": "MASK",
      "pbrMetallicRoughness": {
        "baseColorTexture": {
          "index": 3,
          "texCoord": 0
        },
        "metallicFactor": 0.0
      },
      "emissiveFactor": [
        0.0,
        0.0,
        0.0
      ]
    },
    {
      "name": "material5",
      "alphaMode": "MASK",
      "pbrMetallicRoughness": {
        "baseColorTexture": {
          "index": 4,
          "texCoord": 0
        },
        "metallicFactor": 0.0
      },
      "emissiveFactor": [
        0.0,
        0.0,
        0.0
      ]
    },
    {
      "name": "material6",
      "alphaMode": "MASK",
      "pbrMetallicRoughness": {
        "baseColorTexture": {
          "index": 5,
          "texCoord": 0
        },
        "metallicFactor": 0.0
      },
      "emissiveFactor": [
        0.0,
        0.0,
        0.0
      ]
    },
    {
      "name": "material7",
      "alphaMode": "MASK",
      "pbrMetallicRoughness": {
        "baseColorTexture": {
          "index": 6,
          "texCoord": 0
        },
        "metallicFactor": 0.0
      },
      "emissiveFactor": [
        0.0,
        0.0,
        0.0
      ]
    },
    {
      "name": "material8",
      "alphaMode": "MASK",
      "pbrMetallicRoughness": {
        "baseColorTexture": {
          "index": 7,
          "texCoord": 0
        },
        "metallicFactor": 0.0
      },
      "emissiveFactor": [
        0.0,
        0.0,
        0.0
      ]
    },
    {
      "name": "material9",
      "alphaMode": "MASK",
      "pbrMetallicRoughness": {
        "baseColorTexture": {
          "index": 1,
          "texCoord": 0
        },
        "metallicFactor": 0.0
      },
      "emissiveFactor": [
        0.0,
        0.0,
        0.0
      ]
    }
  ]
}