{
  "asset": {
    "version": "2.0",
    "generator": "generated with dis3tool v1.1 by root.ext@gmail.com"
  },
  "scenes": [
    {
      "nodes": [
        0,
        1,
        2,
        3,
        4
      ]
    }
  ],
  "scene": 0,
  "nodes": [
    {
      "name": "neutrals_orcking_hair",
      "mesh": 0,
      "skin": 0
    },
    {
      "name": "shield_neutral_orcking",
      "mesh": 1,
      "skin": 1
    },
    {
      "name": "weapon_neutral_orcking",
      "mesh": 2,
      "skin": 2
    },
    {
      "name": "neutrals_orcking",
      "mesh": 3,
      "skin": 3
    },
    {
      "name": "Root",
      "rotation": [
        -0.707106769,
        0.0,
        0.0,
        0.707106769
      ],
      "translation": [
        0.0,
        0.0,
        0.0
      ],
      "children": [
        5,
        40
      ]
    },
    {
      "name": "Hips",
      "rotation": [
        0.0274726935,
        -0.00445386162,
        0.1599682,
        0.986729741
      ],
      "translation": [
        -0.0131998584,
        -0.0867791846,
        1.02857792
      ],
      "children": [
        6,
        32,
        36
      ]
    },
    {
      "name": "Spine",
      "rotation": [
        -0.174544469,
        0.04120698,
        0.218032733,
        0.9593216
      ],
      "translation": [
        3.48473916E-10,
        1.82625537E-09,
        0.226533577
      ],
      "children": [
        7,
        20,
        26
      ]
    },
    {
      "name": "Neck",
      "rotation": [
        0.00207480765,
        0.0105774868,
        -0.139064148,
        0.9902247
      ],
      "translation": [
        2.14115712E-08,
        -0.0178591721,
        0.327149838
      ],
      "children": [
        8
      ]
    },
    {
      "name": "Head",
      "rotation": [
        0.0128349392,
        -0.00318364217,
        -0.204385027,
        0.97880125
      ],
      "translation": [
        -2.18834084E-09,
        0.0181147289,
        0.07005962
      ],
      "children": [
        9,
        11,
        13,
        15,
        17,
        18,
        19
      ]
    },
    {
      "name": "Hair_01",
      "rotation": [
        0.16705288,
        0.008894304,
        0.120445251,
        0.978522956
      ],
      "translation": [
        0.0656353161,
        -0.0630223453,
        0.04756806
      ],
      "children": [
        10
      ]
    },
    {
      "name": "Hair_02",
      "rotation": [
        0.213201687,
        0.260549158,
        -0.0122705428,
        0.941545844
      ],
      "translation": [
        0.08152198,
        -0.102605276,
        -0.1419762
      ]
    },
    {
      "name": "Hair_03",
      "rotation": [
        0.148465946,
        -0.0325184,
        0.221542448,
        0.9632338
      ],
      "translation": [
        0.0248743109,
        -0.0925389,
        0.0475679375
      ],
      "children": [
        12
      ]
    },
    {
      "name": "Hair_04",
      "rotation": [
        0.177887231,
        0.0205341782,
        -0.0112276906,
        0.9837726
      ],
      "translation": [
        0.0252999254,
        -0.1307163,
        -0.141976148
      ]
    },
    {
      "name": "Hair_05",
      "rotation": [
        -0.0217793249,
        0.007045813,
        0.391430885,
        0.919922769
      ],
      "translation": [
        -0.0285366457,
        -0.09675557,
        0.0475679748
      ],
      "children": [
        14
      ]
    },
    {
      "name": "Hair_06",
      "rotation": [
        0.321699023,
        -0.06401915,
        0.14968507,
        0.9327409
      ],
      "translation": [
        -0.0210832749,
        -0.1250941,
        -0.141976237
      ]
    },
    {
      "name": "Hair_07",
      "rotation": [
        -0.12176612,
        -0.0169212651,
        0.430975944,
        0.893949866
      ],
      "translation": [
        -0.07133601,
        -0.0668530539,
        0.04756797
      ],
      "children": [
        16
      ]
    },
    {
      "name": "Hair_08",
      "rotation": [
        0.279513747,
        -0.14793171,
        0.05037404,
        0.94733876
      ],
      "translation": [
        -0.0660609156,
        -0.09557752,
        -0.141976163
      ]
    },
    {
      "name": "Mouth",
      "rotation": [
        0.00681283837,
        5.01081066E-10,
        -9.697224E-10,
        0.999976754
      ],
      "translation": [
        -1.69481473E-09,
        0.0321719162,
        0.02108482
      ]
    },
    {
      "name": "EyeL",
      "rotation": [
        0.0,
        0.0,
        0.0,
        1.0
      ],
      "translation": [
        0.0376499631,
        0.0608652,
        0.0671352
      ]
    },
    {
      "name": "EyeR",
      "rotation": [
        0.0,
        0.0,
        0.0,
        1.0
      ],
      "translation": [
        -0.03794587,
        0.0608652271,
        0.0671351
      ]
    },
    {
      "name": "LeftShoulder",
      "rotation": [
        -0.0591183975,
        0.0584797263,
        -0.0106446184,
        0.99647975
      ],
      "translation": [
        0.0897249356,
        -0.0351724066,
        0.244347587
      ],
      "children": [
        21
      ]
    },
    {
      "name": "LeftArm",
      "rotation": [
        -0.117528714,
        0.266662,
        -0.07742431,
        0.9534589
      ],
      "translation": [
        0.0992898345,
        -0.0134845581,
        -0.00287801167
      ],
      "children": [
        22
      ]
    },
    {
      "name": "LeftArmRoll",
      "rotation": [
        0.09227282,
        -5.445144E-09,
        2.71821987E-09,
        0.995733738
      ],
      "translation": [
        0.123252623,
        -0.0248952173,
        -0.07130429
      ],
      "children": [
        23
      ]
    },
    {
      "name": "LeftForeArm",
      "rotation": [
        0.186883181,
        0.08557413,
        0.2977849,
        0.9322424
      ],
      "translation": [
        0.126567587,
        -0.0259967968,
        -0.0736596137
      ],
      "children": [
        24,
        25
      ]
    },
    {
      "name": "LeftHand",
      "rotation": [
        -0.03774841,
        -0.07875311,
        -0.004712682,
        0.996168
      ],
      "translation": [
        0.118587129,
        0.2542988,
        -0.09527631
      ]
    },
    {
      "name": "Weapon2",
      "rotation": [
        0.03943367,
        0.298924834,
        0.5285875,
        0.793526351
      ],
      "translation": [
        0.0506959334,
        0.0184525345,
        0.09151694
      ]
    },
    {
      "name": "RightShoulder",
      "rotation": [
        0.02758488,
        -0.0483228527,
        0.000395367242,
        0.9984507
      ],
      "translation": [
        -0.08972499,
        -0.03517239,
        0.244343072
      ],
      "children": [
        27,
        31
      ]
    },
    {
      "name": "RightArm",
      "rotation": [
        -0.13858363,
        -0.1801605,
        -0.129408553,
        0.9651892
      ],
      "translation": [
        -0.09929001,
        -0.013484573,
        -0.00287010358
      ],
      "children": [
        28
      ]
    },
    {
      "name": "RightArmRoll",
      "rotation": [
        -0.254539669,
        -0.02906826,
        0.9615852,
        -0.09858232
      ],
      "translation": [
        -0.123251975,
        -0.0248952881,
        -0.07130986
      ],
      "children": [
        29
      ]
    },
    {
      "name": "RightForeArm",
      "rotation": [
        0.286485463,
        -0.04692083,
        -0.489482,
        0.8222723
      ],
      "translation": [
        0.148731649,
        -2.50230556E-08,
        4.08464658E-08
      ],
      "children": [
        30
      ]
    },
    {
      "name": "RightHand",
      "rotation": [
        -0.00753578637,
        0.174969375,
        0.04316032,
        0.9835985
      ],
      "translation": [
        0.296322525,
        2.245672E-08,
        -7.474588E-08
      ]
    },
    {
      "name": "RightShield",
      "rotation": [
        -0.2426661,
        7.669849E-09,
        0.9701099,
        -6.986567E-08
      ],
      "translation": [
        -0.074863255,
        1.9149649E-08,
        0.06482449
      ]
    },
    {
      "name": "RightUpLeg",
      "rotation": [
        0.039140787,
        0.05175968,
        0.02577403,
        0.997559369
      ],
      "translation": [
        -0.07914409,
        -0.01941648,
        -0.07846329
      ],
      "children": [
        33
      ]
    },
    {
      "name": "RightLeg",
      "rotation": [
        -0.239656419,
        -0.0213356484,
        0.0336043872,
        0.9700414
      ],
      "translation": [
        -0.07215888,
        0.0171800964,
        -0.456332
      ],
      "children": [
        34
      ]
    },
    {
      "name": "RightFoot",
      "rotation": [
        0.173095644,
        -0.016645655,
        -0.0367488,
        0.984078467
      ],
      "translation": [
        -0.06962001,
        -0.07364572,
        -0.470584452
      ],
      "children": [
        35
      ]
    },
    {
      "name": "RightFoot01",
      "rotation": [
        0.0,
        0.0,
        0.0,
        1.0
      ],
      "translation": [
        6.80052E-09,
        0.135356888,
        -0.0553732
      ]
    },
    {
      "name": "LeftUpLeg",
      "rotation": [
        0.226902783,
        -0.05581812,
        -0.146505922,
        0.9612156
      ],
      "translation": [
        0.07914405,
        -0.0194165017,
        -0.07846159
      ],
      "children": [
        37
      ]
    },
    {
      "name": "LeftLeg",
      "rotation": [
        -0.189990446,
        0.0154862329,
        -0.0273696873,
        0.9812821
      ],
      "translation": [
        0.07215886,
        0.0171800945,
        -0.456333816
      ],
      "children": [
        38
      ]
    },
    {
      "name": "LeftFoot",
      "rotation": [
        -0.07058181,
        -0.0142413247,
        -0.156405315,
        0.9850648
      ],
      "translation": [
        0.06962052,
        -0.0736456662,
        -0.4705842
      ],
      "children": [
        39
      ]
    },
    {
      "name": "LeftFoot01",
      "rotation": [
        0.0,
        0.0,
        0.0,
        0.99999994
      ],
      "translation": [
        -1.41427456E-08,
        0.135356858,
        -0.05537326
      ]
    },
    {
      "name": "Weapon1",
      "rotation": [
        -0.5865561,
        -0.199963585,
        0.642814,
        0.450285047
      ],
      "translation": [
        -0.3469108,
        -0.369636923,
        1.01237035
      ],
      "children": [
        41
      ]
    },
    {
      "name": "Trail1",
      "rotation": [
        -0.490739018,
        0.509092569,
        0.5090924,
        -0.49073872
      ],
      "translation": [
        1.12887073,
        -0.04303694,
        -2.76455637E-07
      ],
      "children": [
        42
      ]
    },
    {
      "name": "Trail2",
      "rotation": [
        -2.417688E-08,
        -1.1273606E-08,
        3.753709E-10,
        0.9999999
      ],
      "translation": [
        0.0169566013,
        1.20373073E-07,
        0.948480844
      ]
    }
  ],
  "accessors": [
    {
      "bufferView": 0,
      "byteOffset": 0,
      "componentType": 5125,
      "count": 1020,
      "type": "SCALAR"
    },
    {
      "bufferView": 1,
      "byteOffset": 0,
      "componentType": 5126,
      "count": 234,
      "type": "VEC3",
      "min": [
        -0.225732014,
        1.48078609,
        -0.135443524
      ],
      "max": [
        0.227944121,
        1.90431631,
        0.32743448
      ]
    },
    {
      "bufferView": 1,
      "byteOffset": 12,
      "componentType": 5126,
      "count": 234,
      "type": "VEC3"
    },
    {
      "bufferView": 1,
      "byteOffset": 24,
      "componentType": 5126,
      "count": 234,
      "type": "VEC2"
    },
    {
      "bufferView": 1,
      "byteOffset": 32,
      "componentType": 5126,
      "count": 234,
      "type": "VEC4"
    },
    {
      "bufferView": 1,
      "byteOffset": 48,
      "componentType": 5121,
      "count": 234,
      "type": "VEC4"
    },
    {
      "bufferView": 2,
      "byteOffset": 0,
      "componentType": 5126,
      "count": 9,
      "type": "MAT4"
    },
    {
      "bufferView": 3,
      "byteOffset": 0,
      "componentType": 5125,
      "count": 759,
      "type": "SCALAR"
    },
    {
      "bufferView": 4,
      "byteOffset": 0,
      "componentType": 5126,
      "count": 405,
      "type": "VEC3",
      "min": [
        -0.326615125,
        -0.149079457,
        -0.326615125
      ],
      "max": [
        0.326615125,
        0.149079472,
        0.3266151
      ]
    },
    {
      "bufferView": 4,
      "byteOffset": 12,
      "componentType": 5126,
      "count": 405,
      "type": "VEC3"
    },
    {
      "bufferView": 4,
      "byteOffset": 24,
      "componentType": 5126,
      "count": 405,
      "type": "VEC2"
    },
    {
      "bufferView": 4,
      "byteOffset": 32,
      "componentType": 5126,
      "count": 405,
      "type": "VEC4"
    },
    {
      "bufferView": 4,
      "byteOffset": 48,
      "componentType": 5121,
      "count": 405,
      "type": "VEC4"
    },
    {
      "bufferView": 5,
      "byteOffset": 0,
      "componentType": 5126,
      "count": 1,
      "type": "MAT4"
    },
    {
      "bufferView": 6,
      "byteOffset": 0,
      "componentType": 5125,
      "count": 360,
      "type": "SCALAR"
    },
    {
      "bufferView": 7,
      "byteOffset": 0,
      "componentType": 5126,
      "count": 130,
      "type": "VEC3",
      "min": [
        -0.229823455,
        -0.0262516961,
        -0.0887483954
      ],
      "max": [
        1.13250184,
        0.0262672231,
        0.09004659
      ]
    },
    {
      "bufferView": 7,
      "byteOffset": 12,
      "componentType": 5126,
      "count": 130,
      "type": "VEC3"
    },
    {
      "bufferView": 7,
      "byteOffset": 24,
      "componentType": 5126,
      "count": 130,
      "type": "VEC2"
    },
    {
      "bufferView": 7,
      "byteOffset": 32,
      "componentType": 5126,
      "count": 130,
      "type": "VEC4"
    },
    {
      "bufferView": 7,
      "byteOffset": 48,
      "componentType": 5121,
      "count": 130,
      "type": "VEC4"
    },
    {
      "bufferView": 8,
      "byteOffset": 0,
      "componentType": 5126,
      "count": 1,
      "type": "MAT4"
    },
    {
      "bufferView": 9,
      "byteOffset": 0,
      "componentType": 5125,
      "count": 13626,
      "type": "SCALAR"
    },
    {
      "bufferView": 10,
      "byteOffset": 0,
      "componentType": 5126,
      "count": 3065,
      "type": "VEC3",
      "min": [
        -0.656778634,
        -1.18882264E-08,
        -0.322596163
      ],
      "max": [
        0.6573992,
        1.88300121,
        0.149515852
      ]
    },
    {
      "bufferView": 10,
      "byteOffset": 12,
      "componentType": 5126,
      "count": 3065,
      "type": "VEC3"
    },
    {
      "bufferView": 10,
      "byteOffset": 24,
      "componentType": 5126,
      "count": 3065,
      "type": "VEC2"
    },
    {
      "bufferView": 10,
      "byteOffset": 32,
      "componentType": 5126,
      "count": 3065,
      "type": "VEC4"
    },
    {
      "bufferView": 10,
      "byteOffset": 48,
      "componentType": 5121,
      "count": 3065,
      "type": "VEC4"
    },
    {
      "bufferView": 11,
      "byteOffset": 0,
      "componentType": 5126,
      "count": 26,
      "type": "MAT4"
    },
    {
      "bufferView": 12,
      "byteOffset": 0,
      "componentType": 5126,
      "count": 354,
      "type": "SCALAR",
      "min": [
        0.0
      ],
      "max": [
        11.7666674
      ]
    },
    {
      "bufferView": 13,
      "byteOffset": 0,
      "componentType": 5126,
      "count": 354,
      "type": "VEC4"
    },
    {
      "bufferView": 14,
      "byteOffset": 0,
      "componentType": 5126,
      "count": 354,
      "type": "VEC3"
    },
    {
      "bufferView": 13,
      "byteOffset": 5664,
      "componentType": 5126,
      "count": 354,
      "type": "VEC4"
    },
    {
      "bufferView": 14,
      "byteOffset": 4248,
      "componentType": 5126,
      "count": 354,
      "type": "VEC3"
    },
    {
      "bufferView": 13,
      "byteOffset": 11328,
      "componentType": 5126,
      "count": 354,
      "type": "VEC4"
    },
    {
      "bufferView": 14,
      "byteOffset": 8496,
      "componentType": 5126,
      "count": 354,
      "type": "VEC3"
    },
    {
      "bufferView": 13,
      "byteOffset": 16992,
      "componentType": 5126,
      "count": 354,
      "type": "VEC4"
    },
    {
      "bufferView": 14,
      "byteOffset": 12744,
      "componentType": 5126,
      "count": 354,
      "type": "VEC3"
    },
    {
      "bufferView": 13,
      "byteOffset": 22656,
      "componentType": 5126,
      "count": 354,
      "type": "VEC4"
    },
    {
      "bufferView": 14,
      "byteOffset": 16992,
      "componentType": 5126,
      "count": 354,
      "type": "VEC3"
    },
    {
      "bufferView": 13,
      "byteOffset": 28320,
      "componentType": 5126,
      "count": 354,
      "type": "VEC4"
    },
    {
      "bufferView": 14,
      "byteOffset": 21240,
      "componentType": 5126,
      "count": 354,
      "type": "VEC3"
    },
    {
      "bufferView": 13,
      "byteOffset": 33984,
      "componentType": 5126,
      "count": 354,
      "type": "VEC4"
    },
    {
      "bufferView": 14,
      "byteOffset": 25488,
      "componentType": 5126,
      "count": 354,
      "type": "VEC3"
    },
    {
      "bufferView": 13,
      "byteOffset": 39648,
      "componentType": 5126,
      "count": 354,
      "type": "VEC4"
    },
    {
      "bufferView": 14,
      "byteOffset": 29736,
      "componentType": 5126,
      "count": 354,
      "type": "VEC3"
    },
    {
      "bufferView": 13,
      "byteOffset": 45312,
      "componentType": 5126,
      "count": 354,
      "type": "VEC4"
    },
    {
      "bufferView": 14,
      "byteOffset": 33984,
      "componentType": 5126,
      "count": 354,
      "type": "VEC3"
    },
    {
      "bufferView": 13,
      "byteOffset": 50976,
      "componentType": 5126,
      "count": 354,
      "type": "VEC4"
    },
    {
      "bufferView": 14,
      "byteOffset": 38232,
      "componentType": 5126,
      "count": 354,
      "type": "VEC3"
    },
    {
      "bufferView": 13,
      "byteOffset": 56640,
      "componentType": 5126,
      "count": 354,
      "type": "VEC4"
    },
    {
      "bufferView": 14,
      "byteOffset": 42480,
      "componentType": 5126,
      "count": 354,
      "type": "VEC3"
    },
    {
      "bufferView": 13,
      "byteOffset": 62304,
      "componentType": 5126,
      "count": 354,
      "type": "VEC4"
    },
    {
      "bufferView": 14,
      "byteOffset": 46728,
      "componentType": 5126,
      "count": 354,
      "type": "VEC3"
    },
    {
      "bufferView": 13,
      "byteOffset": 67968,
      "componentType": 5126,
      "count": 354,
      "type": "VEC4"
    },
    {
      "bufferView": 14,
      "byteOffset": 50976,
      "componentType": 5126,
      "count": 354,
      "type": "VEC3"
    },
    {
      "bufferView": 13,
      "byteOffset": 73632,
      "componentType": 5126,
      "count": 354,
      "type": "VEC4"
    },
    {
      "bufferView": 14,
      "byteOffset": 55224,
      "componentType": 5126,
      "count": 354,
      "type": "VEC3"
    },
    {
      "bufferView": 13,
      "byteOffset": 79296,
      "componentType": 5126,
      "count": 354,
      "type": "VEC4"
    },
    {
      "bufferView": 14,
      "byteOffset": 59472,
      "componentType": 5126,
      "count": 354,
      "type": "VEC3"
    },
    {
      "bufferView": 13,
      "byteOffset": 84960,
      "componentType": 5126,
      "count": 354,
      "type": "VEC4"
    },
    {
      "bufferView": 14,
      "byteOffset": 63720,
      "componentType": 5126,
      "count": 354,
      "type": "VEC3"
    },
    {
      "bufferView": 13,
      "byteOffset": 90624,
      "componentType": 5126,
      "count": 354,
      "type": "VEC4"
    },
    {
      "bufferView": 14,
      "byteOffset": 67968,
      "componentType": 5126,
      "count": 354,
      "type": "VEC3"
    },
    {
      "bufferView": 13,
      "byteOffset": 96288,
      "componentType": 5126,
      "count": 354,
      "type": "VEC4"
    },
    {
      "bufferView": 14,
      "byteOffset": 72216,
      "componentType": 5126,
      "count": 354,
      "type": "VEC3"
    },
    {
      "bufferView": 13,
      "byteOffset": 101952,
      "componentType": 5126,
      "count": 354,
      "type": "VEC4"
    },
    {
      "bufferView": 14,
      "byteOffset": 76464,
      "componentType": 5126,
      "count": 354,
      "type": "VEC3"
    },
    {
      "bufferView": 13,
      "byteOffset": 107616,
      "componentType": 5126,
      "count": 354,
      "type": "VEC4"
    },
    {
      "bufferView": 14,
      "byteOffset": 80712,
      "componentType": 5126,
      "count": 354,
      "type": "VEC3"
    },
    {
      "bufferView": 13,
      "byteOffset": 113280,
      "componentType": 5126,
      "count": 354,
      "type": "VEC4"
    },
    {
      "bufferView": 14,
      "byteOffset": 84960,
      "componentType": 5126,
      "count": 354,
      "type": "VEC3"
    },
    {
      "bufferView": 13,
      "byteOffset": 118944,
      "componentType": 5126,
      "count": 354,
      "type": "VEC4"
    },
    {
      "bufferView": 14,
      "byteOffset": 89208,
      "componentType": 5126,
      "count": 354,
      "type": "VEC3"
    },
    {
      "bufferView": 13,
      "byteOffset": 124608,
      "componentType": 5126,
      "count": 354,
      "type": "VEC4"
    },
    {
      "bufferView": 14,
      "byteOffset": 93456,
      "componentType": 5126,
      "count": 354,
      "type": "VEC3"
    },
    {
      "bufferView": 13,
      "byteOffset": 130272,
      "componentType": 5126,
      "count": 354,
      "type": "VEC4"
    },
    {
      "bufferView": 14,
      "byteOffset": 97704,
      "componentType": 5126,
      "count": 354,
      "type": "VEC3"
    },
    {
      "bufferView": 13,
      "byteOffset": 135936,
      "componentType": 5126,
      "count": 354,
      "type": "VEC4"
    },
    {
      "bufferView": 14,
      "byteOffset": 101952,
      "componentType": 5126,
      "count": 354,
      "type": "VEC3"
    },
    {
      "bufferView": 13,
      "byteOffset": 141600,
      "componentType": 5126,
      "count": 354,
      "type": "VEC4"
    },
    {
      "bufferView": 14,
      "byteOffset": 106200,
      "componentType": 5126,
      "count": 354,
      "type": "VEC3"
    },
    {
      "bufferView": 13,
      "byteOffset": 147264,
      "componentType": 5126,
      "count": 354,
      "type": "VEC4"
    },
    {
      "bufferView": 14,
      "byteOffset": 110448,
      "componentType": 5126,
      "count": 354,
      "type": "VEC3"
    },
    {
      "bufferView": 13,
      "byteOffset": 152928,
      "componentType": 5126,
      "count": 354,
      "type": "VEC4"
    },
    {
      "bufferView": 14,
      "byteOffset": 114696,
      "componentType": 5126,
      "count": 354,
      "type": "VEC3"
    },
    {
      "bufferView": 13,
      "byteOffset": 158592,
      "componentType": 5126,
      "count": 354,
      "type": "VEC4"
    },
    {
      "bufferView": 14,
      "byteOffset": 118944,
      "componentType": 5126,
      "count": 354,
      "type": "VEC3"
    },
    {
      "bufferView": 13,
      "byteOffset": 164256,
      "componentType": 5126,
      "count": 354,
      "type": "VEC4"
    },
    {
      "bufferView": 14,
      "byteOffset": 123192,
      "componentType": 5126,
      "count": 354,
      "type": "VEC3"
    },
    {
      "bufferView": 13,
      "byteOffset": 169920,
      "componentType": 5126,
      "count": 354,
      "type": "VEC4"
    },
    {
      "bufferView": 14,
      "byteOffset": 127440,
      "componentType": 5126,
      "count": 354,
      "type": "VEC3"
    },
    {
      "bufferView": 13,
      "byteOffset": 175584,
      "componentType": 5126,
      "count": 354,
      "type": "VEC4"
    },
    {
      "bufferView": 14,
      "byteOffset": 131688,
      "componentType": 5126,
      "count": 354,
      "type": "VEC3"
    },
    {
      "bufferView": 13,
      "byteOffset": 181248,
      "componentType": 5126,
      "count": 354,
      "type": "VEC4"
    },
    {
      "bufferView": 14,
      "byteOffset": 135936,
      "componentType": 5126,
      "count": 354,
      "type": "VEC3"
    },
    {
      "bufferView": 13,
      "byteOffset": 186912,
      "componentType": 5126,
      "count": 354,
      "type": "VEC4"
    },
    {
      "bufferView": 14,
      "byteOffset": 140184,
      "componentType": 5126,
      "count": 354,
      "type": "VEC3"
    },
    {
      "bufferView": 13,
      "byteOffset": 192576,
      "componentType": 5126,
      "count": 354,
      "type": "VEC4"
    },
    {
      "bufferView": 14,
      "byteOffset": 144432,
      "componentType": 5126,
      "count": 354,
      "type": "VEC3"
    },
    {
      "bufferView": 13,
      "byteOffset": 198240,
      "componentType": 5126,
      "count": 354,
      "type": "VEC4"
    },
    {
      "bufferView": 14,
      "byteOffset": 148680,
      "componentType": 5126,
      "count": 354,
      "type": "VEC3"
    },
    {
      "bufferView": 13,
      "byteOffset": 203904,
      "componentType": 5126,
      "count": 354,
      "type": "VEC4"
    },
    {
      "bufferView": 14,
      "byteOffset": 152928,
      "componentType": 5126,
      "count": 354,
      "type": "VEC3"
    },
    {
      "bufferView": 13,
      "byteOffset": 209568,
      "componentType": 5126,
      "count": 354,
      "type": "VEC4"
    },
    {
      "bufferView": 14,
      "byteOffset": 157176,
      "componentType": 5126,
      "count": 354,
      "type": "VEC3"
    },
    {
      "bufferView": 13,
      "byteOffset": 215232,
      "componentType": 5126,
      "count": 354,
      "type": "VEC4"
    },
    {
      "bufferView": 14,
      "byteOffset": 161424,
      "componentType": 5126,
      "count": 354,
      "type": "VEC3"
    }
  ],
  "skins": [
    {
      "name": "skin0",
      "inverseBindMatrices": 6,
      "joints": [
        8,
        15,
        13,
        11,
        16,
        14,
        12,
        9,
        10
      ]
    },
    {
      "name": "skin1",
      "inverseBindMatrices": 13,
      "joints": [
        25
      ]
    },
    {
      "name": "skin2",
      "inverseBindMatrices": 20,
      "joints": [
        40
      ]
    },
    {
      "name": "skin3",
      "inverseBindMatrices": 27,
      "joints": [
        8,
        6,
        5,
        26,
        27,
        7,
        19,
        17,
        21,
        20,
        18,
        31,
        29,
        28,
        32,
        33,
        36,
        34,
        35,
        37,
        38,
        39,
        23,
        22,
        24,
        30
      ]
    }
  ],
  "meshes": [
    {
      "name": "neutrals_orcking_hair",
      "primitives": [
        {
          "attributes": {
            "POSITION": 1,
            "NORMAL": 2,
            "TEXCOORD_0": 3,
            "WEIGHTS_0": 4,
            "JOINTS_0": 5
          },
          "indices": 0,
          "mode": 4,
          "material": 0
        }
      ]
    },
    {
      "name": "shield_neutral_orcking",
      "primitives": [
        {
          "attributes": {
            "POSITION": 8,
            "NORMAL": 9,
            "TEXCOORD_0": 10,
            "WEIGHTS_0": 11,
            "JOINTS_0": 12
          },
          "indices": 7,
          "mode": 4,
          "material": 1
        }
      ]
    },
    {
      "name": "weapon_neutral_orcking",
      "primitives": [
        {
          "attributes": {
            "POSITION": 15,
            "NORMAL": 16,
            "TEXCOORD_0": 17,
            "WEIGHTS_0": 18,
            "JOINTS_0": 19
          },
          "indices": 14,
          "mode": 4,
          "material": 2
        }
      ]
    },
    {
      "name": "neutrals_orcking",
      "primitives": [
        {
          "attributes": {
            "POSITION": 22,
            "NORMAL": 23,
            "TEXCOORD_0": 24,
            "WEIGHTS_0": 25,
            "JOINTS_0": 26
          },
          "indices": 21,
          "mode": 4,
          "material": 3
        }
      ]
    }
  ],
  "animations": [
    {
      "channels": [
        {
          "sampler": 0,
          "target": {
            "node": 4,
            "path": "rotation"
          }
        },
        {
          "sampler": 1,
          "target": {
            "node": 4,
            "path": "translation"
          }
        },
        {
          "sampler": 2,
          "target": {
            "node": 5,
            "path": "rotation"
          }
        },
        {
          "sampler": 3,
          "target": {
            "node": 5,
            "path": "translation"
          }
        },
        {
          "sampler": 4,
          "target": {
            "node": 6,
            "path": "rotation"
          }
        },
        {
          "sampler": 5,
          "target": {
            "node": 6,
            "path": "translation"
          }
        },
        {
          "sampler": 6,
          "target": {
            "node": 7,
            "path": "rotation"
          }
        },
        {
          "sampler": 7,
          "target": {
            "node": 7,
            "path": "translation"
          }
        },
        {
          "sampler": 8,
          "target": {
            "node": 8,
            "path": "rotation"
          }
        },
        {
          "sampler": 9,
          "target": {
            "node": 8,
            "path": "translation"
          }
        },
        {
          "sampler": 10,
          "target": {
            "node": 9,
            "path": "rotation"
          }
        },
        {
          "sampler": 11,
          "target": {
            "node": 9,
            "path": "translation"
          }
        },
        {
          "sampler": 12,
          "target": {
            "node": 10,
            "path": "rotation"
          }
        },
        {
          "sampler": 13,
          "target": {
            "node": 10,
            "path": "translation"
          }
        },
        {
          "sampler": 14,
          "target": {
            "node": 11,
            "path": "rotation"
          }
        },
        {
          "sampler": 15,
          "target": {
            "node": 11,
            "path": "translation"
          }
        },
        {
          "sampler": 16,
          "target": {
            "node": 12,
            "path": "rotation"
          }
        },
        {
          "sampler": 17,
          "target": {
            "node": 12,
            "path": "translation"
          }
        },
        {
          "sampler": 18,
          "target": {
            "node": 13,
            "path": "rotation"
          }
        },
        {
          "sampler": 19,
          "target": {
            "node": 13,
            "path": "translation"
          }
        },
        {
          "sampler": 20,
          "target": {
            "node": 14,
            "path": "rotation"
          }
        },
        {
          "sampler": 21,
          "target": {
            "node": 14,
            "path": "translation"
          }
        },
        {
          "sampler": 22,
          "target": {
            "node": 15,
            "path": "rotation"
          }
        },
        {
          "sampler": 23,
          "target": {
            "node": 15,
            "path": "translation"
          }
        },
        {
          "sampler": 24,
          "target": {
            "node": 16,
            "path": "rotation"
          }
        },
        {
          "sampler": 25,
          "target": {
            "node": 16,
            "path": "translation"
          }
        },
        {
          "sampler": 26,
          "target": {
            "node": 17,
            "path": "rotation"
          }
        },
        {
          "sampler": 27,
          "target": {
            "node": 17,
            "path": "translation"
          }
        },
        {
          "sampler": 28,
          "target": {
            "node": 18,
            "path": "rotation"
          }
        },
        {
          "sampler": 29,
          "target": {
            "node": 18,
            "path": "translation"
          }
        },
        {
          "sampler": 30,
          "target": {
            "node": 19,
            "path": "rotation"
          }
        },
        {
          "sampler": 31,
          "target": {
            "node": 19,
            "path": "translation"
          }
        },
        {
          "sampler": 32,
          "target": {
            "node": 20,
            "path": "rotation"
          }
        },
        {
          "sampler": 33,
          "target": {
            "node": 20,
            "path": "translation"
          }
        },
        {
          "sampler": 34,
          "target": {
            "node": 21,
            "path": "rotation"
          }
        },
        {
          "sampler": 35,
          "target": {
            "node": 21,
            "path": "translation"
          }
        },
        {
          "sampler": 36,
          "target": {
            "node": 22,
            "path": "rotation"
          }
        },
        {
          "sampler": 37,
          "target": {
            "node": 22,
            "path": "translation"
          }
        },
        {
          "sampler": 38,
          "target": {
            "node": 23,
            "path": "rotation"
          }
        },
        {
          "sampler": 39,
          "target": {
            "node": 23,
            "path": "translation"
          }
        },
        {
          "sampler": 40,
          "target": {
            "node": 24,
            "path": "rotation"
          }
        },
        {
          "sampler": 41,
          "target": {
            "node": 24,
            "path": "translation"
          }
        },
        {
          "sampler": 42,
          "target": {
            "node": 25,
            "path": "rotation"
          }
        },
        {
          "sampler": 43,
          "target": {
            "node": 25,
            "path": "translation"
          }
        },
        {
          "sampler": 44,
          "target": {
            "node": 26,
            "path": "rotation"
          }
        },
        {
          "sampler": 45,
          "target": {
            "node": 26,
            "path": "translation"
          }
        },
        {
          "sampler": 46,
          "target": {
            "node": 27,
            "path": "rotation"
          }
        },
        {
          "sampler": 47,
          "target": {
            "node": 27,
            "path": "translation"
          }
        },
        {
          "sampler": 48,
          "target": {
            "node": 28,
            "path": "rotation"
          }
        },
        {
          "sampler": 49,
          "target": {
            "node": 28,
            "path": "translation"
          }
        },
        {
          "sampler": 50,
          "target": {
            "node": 29,
            "path": "rotation"
          }
        },
        {
          "sampler": 51,
          "target": {
            "node": 29,
            "path": "translation"
          }
        },
        {
          "sampler": 52,
          "target": {
            "node": 30,
            "path": "rotation"
          }
        },
        {
          "sampler": 53,
          "target": {
            "node": 30,
            "path": "translation"
          }
        },
        {
          "sampler": 54,
          "target": {
            "node": 31,
            "path": "rotation"
          }
        },
        {
          "sampler": 55,
          "target": {
            "node": 31,
            "path": "translation"
          }
        },
        {
          "sampler": 56,
          "target": {
            "node": 32,
            "path": "rotation"
          }
        },
        {
          "sampler": 57,
          "target": {
            "node": 32,
            "path": "translation"
          }
        },
        {
          "sampler": 58,
          "target": {
            "node": 33,
            "path": "rotation"
          }
        },
        {
          "sampler": 59,
          "target": {
            "node": 33,
            "path": "translation"
          }
        },
        {
          "sampler": 60,
          "target": {
            "node": 34,
            "path": "rotation"
          }
        },
        {
          "sampler": 61,
          "target": {
            "node": 34,
            "path": "translation"
          }
        },
        {
          "sampler": 62,
          "target": {
            "node": 35,
            "path": "rotation"
          }
        },
        {
          "sampler": 63,
          "target": {
            "node": 35,
            "path": "translation"
          }
        },
        {
          "sampler": 64,
          "target": {
            "node": 36,
            "path": "rotation"
          }
        },
        {
          "sampler": 65,
          "target": {
            "node": 36,
            "path": "translation"
          }
        },
        {
          "sampler": 66,
          "target": {
            "node": 37,
            "path": "rotation"
          }
        },
        {
          "sampler": 67,
          "target": {
            "node": 37,
            "path": "translation"
          }
        },
        {
          "sampler": 68,
          "target": {
            "node": 38,
            "path": "rotation"
          }
        },
        {
          "sampler": 69,
          "target": {
            "node": 38,
            "path": "translation"
          }
        },
        {
          "sampler": 70,
          "target": {
            "node": 39,
            "path": "rotation"
          }
        },
        {
          "sampler": 71,
          "target": {
            "node": 39,
            "path": "translation"
          }
        },
        {
          "sampler": 72,
          "target": {
            "node": 40,
            "path": "rotation"
          }
        },
        {
          "sampler": 73,
          "target": {
            "node": 40,
            "path": "translation"
          }
        },
        {
          "sampler": 74,
          "target": {
            "node": 41,
            "path": "rotation"
          }
        },
        {
          "sampler": 75,
          "target": {
            "node": 41,
            "path": "translation"
          }
        },
        {
          "sampler": 76,
          "target": {
            "node": 42,
            "path": "rotation"
          }
        },
        {
          "sampler": 77,
          "target": {
            "node": 42,
            "path": "translation"
          }
        }
      ],
      "samplers": [
        {
          "input": 28,
          "output": 29,
          "interpolation": "LINEAR"
        },
        {
          "input": 28,
          "output": 30,
          "interpolation": "LINEAR"
        },
        {
          "input": 28,
          "output": 31,
          "interpolation": "LINEAR"
        },
        {
          "input": 28,
          "output": 32,
          "interpolation": "LINEAR"
        },
        {
          "input": 28,
          "output": 33,
          "interpolation": "LINEAR"
        },
        {
          "input": 28,
          "output": 34,
          "interpolation": "LINEAR"
        },
        {
          "input": 28,
          "output": 35,
          "interpolation": "LINEAR"
        },
        {
          "input": 28,
          "output": 36,
          "interpolation": "LINEAR"
        },
        {
          "input": 28,
          "output": 37,
          "interpolation": "LINEAR"
        },
        {
          "input": 28,
          "output": 38,
          "interpolation": "LINEAR"
        },
        {
          "input": 28,
          "output": 39,
          "interpolation": "LINEAR"
        },
        {
          "input": 28,
          "output": 40,
          "interpolation": "LINEAR"
        },
        {
          "input": 28,
          "output": 41,
          "interpolation": "LINEAR"
        },
        {
          "input": 28,
          "output": 42,
          "interpolation": "LINEAR"
        },
        {
          "input": 28,
          "output": 43,
          "interpolation": "LINEAR"
        },
        {
          "input": 28,
          "output": 44,
          "interpolation": "LINEAR"
        },
        {
          "input": 28,
          "output": 45,
          "interpolation": "LINEAR"
        },
        {
          "input": 28,
          "output": 46,
          "interpolation": "LINEAR"
        },
        {
          "input": 28,
          "output": 47,
          "interpolation": "LINEAR"
        },
        {
          "input": 28,
          "output": 48,
          "interpolation": "LINEAR"
        },
        {
          "input": 28,
          "output": 49,
          "interpolation": "LINEAR"
        },
        {
          "input": 28,
          "output": 50,
          "interpolation": "LINEAR"
        },
        {
          "input": 28,
          "output": 51,
          "interpolation": "LINEAR"
        },
        {
          "input": 28,
          "output": 52,
          "interpolation": "LINEAR"
        },
        {
          "input": 28,
          "output": 53,
          "interpolation": "LINEAR"
        },
        {
          "input": 28,
          "output": 54,
          "interpolation": "LINEAR"
        },
        {
          "input": 28,
          "output": 55,
          "interpolation": "LINEAR"
        },
        {
          "input": 28,
          "output": 56,
          "interpolation": "LINEAR"
        },
        {
          "input": 28,
          "output": 57,
          "interpolation": "LINEAR"
        },
        {
          "input": 28,
          "output": 58,
          "interpolation": "LINEAR"
        },
        {
          "input": 28,
          "output": 59,
          "interpolation": "LINEAR"
        },
        {
          "input": 28,
          "output": 60,
          "interpolation": "LINEAR"
        },
        {
          "input": 28,
          "output": 61,
          "interpolation": "LINEAR"
        },
        {
          "input": 28,
          "output": 62,
          "interpolation": "LINEAR"
        },
        {
          "input": 28,
          "output": 63,
          "interpolation": "LINEAR"
        },
        {
          "input": 28,
          "output": 64,
          "interpolation": "LINEAR"
        },
        {
          "input": 28,
          "output": 65,
          "interpolation": "LINEAR"
        },
        {
          "input": 28,
          "output": 66,
          "interpolation": "LINEAR"
        },
        {
          "input": 28,
          "output": 67,
          "interpolation": "LINEAR"
        },
        {
          "input": 28,
          "output": 68,
          "interpolation": "LINEAR"
        },
        {
          "input": 28,
          "output": 69,
          "interpolation": "LINEAR"
        },
        {
          "input": 28,
          "output": 70,
          "interpolation": "LINEAR"
        },
        {
          "input": 28,
          "output": 71,
          "interpolation": "LINEAR"
        },
        {
          "input": 28,
          "output": 72,
          "interpolation": "LINEAR"
        },
        {
          "input": 28,
          "output": 73,
          "interpolation": "LINEAR"
        },
        {
          "input": 28,
          "output": 74,
          "interpolation": "LINEAR"
        },
        {
          "input": 28,
          "output": 75,
          "interpolation": "LINEAR"
        },
        {
          "input": 28,
          "output": 76,
          "interpolation": "LINEAR"
        },
        {
          "input": 28,
          "output": 77,
          "interpolation": "LINEAR"
        },
        {
          "input": 28,
          "output": 78,
          "interpolation": "LINEAR"
        },
        {
          "input": 28,
          "output": 79,
          "interpolation": "LINEAR"
        },
        {
          "input": 28,
          "output": 80,
          "interpolation": "LINEAR"
        },
        {
          "input": 28,
          "output": 81,
          "interpolation": "LINEAR"
        },
        {
          "input": 28,
          "output": 82,
          "interpolation": "LINEAR"
        },
        {
          "input": 28,
          "output": 83,
          "interpolation": "LINEAR"
        },
        {
          "input": 28,
          "output": 84,
          "interpolation": "LINEAR"
        },
        {
          "input": 28,
          "output": 85,
          "interpolation": "LINEAR"
        },
        {
          "input": 28,
          "output": 86,
          "interpolation": "LINEAR"
        },
        {
          "input": 28,
          "output": 87,
          "interpolation": "LINEAR"
        },
        {
          "input": 28,
          "output": 88,
          "interpolation": "LINEAR"
        },
        {
          "input": 28,
          "output": 89,
          "interpolation": "LINEAR"
        },
        {
          "input": 28,
          "output": 90,
          "interpolation": "LINEAR"
        },
        {
          "input": 28,
          "output": 91,
          "interpolation": "LINEAR"
        },
        {
          "input": 28,
          "output": 92,
          "interpolation": "LINEAR"
        },
        {
          "input": 28,
          "output": 93,
          "interpolation": "LINEAR"
        },
        {
          "input": 28,
          "output": 94,
          "interpolation": "LINEAR"
        },
        {
          "input": 28,
          "output": 95,
          "interpolation": "LINEAR"
        },
        {
          "input": 28,
          "output": 96,
          "interpolation": "LINEAR"
        },
        {
          "input": 28,
          "output": 97,
          "interpolation": "LINEAR"
        },
        {
          "input": 28,
          "output": 98,
          "interpolation": "LINEAR"
        },
        {
          "input": 28,
          "output": 99,
          "interpolation": "LINEAR"
        },
        {
          "input": 28,
          "output": 100,
          "interpolation": "LINEAR"
        },
        {
          "input": 28,
          "output": 101,
          "interpolation": "LINEAR"
        },
        {
          "input": 28,
          "output": 102,
          "interpolation": "LINEAR"
        },
        {
          "input": 28,
          "output": 103,
          "interpolation": "LINEAR"
        },
        {
          "input": 28,
          "output": 104,
          "interpolation": "LINEAR"
        },
        {
          "input": 28,
          "output": 105,
          "interpolation": "LINEAR"
        },
        {
          "input": 28,
          "output": 106,
          "interpolation": "LINEAR"
        }
      ]
    }
  ],
  "bufferViews": [
    {
      "name": "mesh_indexes_neutrals_orcking_hair",
      "buffer": 0,
      "byteOffset": 0,
      "byteLength": 4080,
      "target": 34963
    },
    {
      "name": "mesh_vertexes_neutrals_orcking_hair",
      "buffer": 0,
      "byteOffset": 4080,
      "byteLength": 12168,
      "byteStride": 52,
      "target": 34962
    },
    {
      "name": "mesh_bones_neutrals_orcking_hair",
      "buffer": 0,
      "byteOffset": 16248,
      "byteLength": 576
    },
    {
      "name": "mesh_indexes_shield_neutral_orcking",
      "buffer": 0,
      "byteOffset": 16824,
      "byteLength": 3036,
      "target": 34963
    },
    {
      "name": "mesh_vertexes_shield_neutral_orcking",
      "buffer": 0,
      "byteOffset": 19860,
      "byteLength": 21060,
      "byteStride": 52,
      "target": 34962
    },
    {
      "name": "mesh_bones_shield_neutral_orcking",
      "buffer": 0,
      "byteOffset": 40920,
      "byteLength": 64
    },
    {
      "name": "mesh_indexes_weapon_neutral_orcking",
      "buffer": 0,
      "byteOffset": 40984,
      "byteLength": 1440,
      "target": 34963
    },
    {
      "name": "mesh_vertexes_weapon_neutral_orcking",
      "buffer": 0,
      "byteOffset": 42424,
      "byteLength": 6760,
      "byteStride": 52,
      "target": 34962
    },
    {
      "name": "mesh_bones_weapon_neutral_orcking",
      "buffer": 0,
      "byteOffset": 49184,
      "byteLength": 64
    },
    {
      "name": "mesh_indexes_neutrals_orcking",
      "buffer": 0,
      "byteOffset": 49248,
      "byteLength": 54504,
      "target": 34963
    },
    {
      "name": "mesh_vertexes_neutrals_orcking",
      "buffer": 0,
      "byteOffset": 103752,
      "byteLength": 159380,
      "byteStride": 52,
      "target": 34962
    },
    {
      "name": "mesh_bones_neutrals_orcking",
      "buffer": 0,
      "byteOffset": 263132,
      "byteLength": 1664
    },
    {
      "name": "frames",
      "buffer": 0,
      "byteOffset": 264796,
      "byteLength": 1416
    },
    {
      "name": "bones_rotate",
      "buffer": 0,
      "byteOffset": 266212,
      "byteLength": 220896
    },
    {
      "name": "bones_translate",
      "buffer": 0,
      "byteOffset": 487108,
      "byteLength": 165672
    }
  ],
  "buffers": [
    {
      "uri": "character_neutrals_orcking.bin",
      "byteLength": 652780
    }
  ],
  "images": [
    {
      "uri": "character_neutrals_orcking_alpha.dds"
    },
    {
      "uri": "weapon_neutrals_orcking_shield.dds"
    },
    {
      "uri": "weapon_neutrals_orcking_sword.dds"
    },
    {
      "uri": "character_neutrals_orcking_diffuse.dds"
    }
  ],
  "textures": [
    {
      "source": 0
    },
    {
      "source": 1
    },
    {
      "source": 2
    },
    {
      "source": 3
    }
  ],
  "materials": [
    {
      "name": "material0",
      "alphaMode": "MASK",
      "pbrMetallicRoughness": {
        "baseColorTexture": {
          "index": 0,
          "texCoord": 0
        },
        "metallicFactor": 0.0
      },
      "emissiveFactor": [
        0.0,
        0.0,
        0.0
      ]
    },
    {
      "name": "material1",
      "alphaMode": "MASK",
      "pbrMetallicRoughness": {
        "baseColorTexture": {
          "index": 1,
          "texCoord": 0
        },
        "metallicFactor": 0.0
      },
      "emissiveFactor": [
        0.0,
        0.0,
        0.0
      ]
    },
    {
      "name": "material2",
      "alphaMode": "MASK",
      "pbrMetallicRoughness": {
        "baseColorTexture": {
          "index": 2,
          "texCoord": 0
        },
        "metallicFactor": 0.0
      },
      "emissiveFactor": [
        0.0,
        0.0,
        0.0
      ]
    },
    {
      "name": "material3",
      "alphaMode": "MASK",
      "pbrMetallicRoughness": {
        "baseColorTexture": {
          "index": 3,
          "texCoord": 0
        },
        "metallicFactor": 0.0
      },
      "emissiveFactor": [
        0.0,
        0.0,
        0.0
      ]
    }
  ]
}