{
  "asset": {
    "version": "2.0",
    "generator": "generated with dis3tool v1.1 by root.ext@gmail.com"
  },
  "scenes": [
    {
      "nodes": [
        0,
        1
      ]
    }
  ],
  "scene": 0,
  "nodes": [
    {
      "name": "wild_boar",
      "mesh": 0,
      "skin": 0
    },
    {
      "name": "reference",
      "rotation": [
        0.0,
        0.0,
        0.0,
        1.0
      ],
      "translation": [
        0.0,
        0.0,
        0.0
      ],
      "children": [
        2
      ]
    },
    {
      "name": "Hips",
      "rotation": [
        -0.00412993552,
        -0.00412917556,
        -0.707167864,
        0.707021
      ],
      "translation": [
        -0.00208762358,
        0.8572096,
        0.5642734
      ],
      "children": [
        3,
        27,
        32
      ]
    },
    {
      "name": "Pelvis",
      "rotation": [
        -2.69171974E-08,
        0.707106233,
        -1.28950518E-07,
        0.707106531
      ],
      "translation": [
        -2.970392E-09,
        1.10624836E-10,
        -2.74992455E-08
      ],
      "children": [
        4,
        25
      ]
    },
    {
      "name": "Spine",
      "rotation": [
        0.00120035489,
        0.05936692,
        0.0174454022,
        0.9980822
      ],
      "translation": [
        0.227827832,
        3.61467229E-08,
        -2.17300239E-05
      ],
      "children": [
        5
      ]
    },
    {
      "name": "Spine1",
      "rotation": [
        -0.00141374953,
        -0.0398632437,
        -0.008611975,
        0.9991662
      ],
      "translation": [
        0.2327511,
        -2.0744325E-07,
        -0.000570255157
      ],
      "children": [
        6
      ]
    },
    {
      "name": "Neck",
      "rotation": [
        0.001421276,
        -0.414173871,
        0.0129970368,
        0.9101033
      ],
      "translation": [
        0.6320143,
        1.98513121E-07,
        1.63343266E-05
      ],
      "children": [
        7,
        15,
        20
      ]
    },
    {
      "name": "head",
      "rotation": [
        0.0252599,
        0.85648,
        -0.010364606,
        0.5154562
      ],
      "translation": [
        0.187052965,
        -7.64159438E-08,
        1.06487851E-05
      ],
      "children": [
        8,
        9,
        11,
        12,
        14
      ]
    },
    {
      "name": "null_head_Tip",
      "rotation": [
        -2.88062871E-08,
        -0.736332357,
        2.54183536E-08,
        0.6766185
      ],
      "translation": [
        7.004611E-09,
        -4.05525959E-08,
        0.3541432
      ]
    },
    {
      "name": "Bone01",
      "rotation": [
        0.7378647,
        -3.76516145E-05,
        0.6749475,
        -6.76600757E-05
      ],
      "translation": [
        -0.197719872,
        -2.63072325E-05,
        0.17707324
      ],
      "children": [
        10
      ]
    },
    {
      "name": "null_Bone_Tip",
      "rotation": [
        2.60183564E-09,
        2.53698744E-07,
        -1.28869351E-08,
        0.9999991
      ],
      "translation": [
        0.399999231,
        1.87230453E-09,
        -7.217906E-08
      ]
    },
    {
      "name": "Bone11",
      "rotation": [
        0.432709843,
        0.4122809,
        -0.366154,
        0.713243365
      ],
      "translation": [
        0.147588775,
        -0.189515933,
        0.02455499
      ]
    },
    {
      "name": "Mirror_Bone11",
      "rotation": [
        -0.432615757,
        0.412209362,
        0.3662419,
        0.7132965
      ],
      "translation": [
        0.1475752,
        0.189525381,
        0.02461264
      ],
      "children": [
        13
      ]
    },
    {
      "name": "null_Mirror_Bone_Tip",
      "rotation": [
        8.476464E-09,
        -3.61053387E-09,
        5.19118935E-08,
        0.9999991
      ],
      "translation": [
        0.199999541,
        -7.68516344E-08,
        -9.96112E-09
      ]
    },
    {
      "name": "Bone04",
      "rotation": [
        -0.5135491,
        -0.485966355,
        -0.4860293,
        0.5136893
      ],
      "translation": [
        0.0143764764,
        -6.710725E-05,
        0.5080021
      ]
    },
    {
      "name": "LeftShoulder",
      "rotation": [
        -0.722717345,
        -0.4398544,
        0.170054048,
        0.505259037
      ],
      "translation": [
        -0.111785986,
        0.165761217,
        0.151551574
      ],
      "children": [
        16
      ]
    },
    {
      "name": "LeftArm",
      "rotation": [
        0.5883839,
        -0.0508206338,
        -0.6112919,
        0.5268213
      ],
      "translation": [
        0.203696385,
        5.01868733E-08,
        -6.796252E-08
      ],
      "children": [
        17
      ]
    },
    {
      "name": "LeftForeArm",
      "rotation": [
        -0.132562563,
        0.468542516,
        -0.06354807,
        0.8711236
      ],
      "translation": [
        0.4168163,
        3.03754859E-05,
        4.31816625E-05
      ],
      "children": [
        18
      ]
    },
    {
      "name": "LeftHand",
      "rotation": [
        -0.0266604852,
        -0.215978891,
        0.0063815224,
        0.9760129
      ],
      "translation": [
        0.323037833,
        -1.40866518E-06,
        7.332431E-06
      ],
      "children": [
        19
      ]
    },
    {
      "name": "LeftHandToeBase",
      "rotation": [
        -3.06849479E-09,
        -4.362828E-08,
        4.368527E-08,
        0.9999994
      ],
      "translation": [
        0.137461022,
        6.95838631E-09,
        -5.119358E-09
      ]
    },
    {
      "name": "RightShoulder",
      "rotation": [
        0.7058228,
        -0.458266258,
        -0.17557463,
        0.51086
      ],
      "translation": [
        -0.119035423,
        -0.156462848,
        0.155851975
      ],
      "children": [
        21
      ]
    },
    {
      "name": "RightArm",
      "rotation": [
        -0.603421867,
        0.0507169627,
        0.5768152,
        0.5482622
      ],
      "translation": [
        0.2036968,
        -1.22181561E-07,
        -2.12089375E-07
      ],
      "children": [
        22
      ]
    },
    {
      "name": "RightForeArm",
      "rotation": [
        0.1052662,
        0.47984603,
        0.0518396646,
        0.869470239
      ],
      "translation": [
        0.4168159,
        -3.578923E-05,
        3.45645567E-05
      ],
      "children": [
        23
      ]
    },
    {
      "name": "RightHand",
      "rotation": [
        0.0562952831,
        -0.321338326,
        -0.0134739317,
        0.9451931
      ],
      "translation": [
        0.32303527,
        5.07049E-07,
        2.11958059E-06
      ],
      "children": [
        24
      ]
    },
    {
      "name": "RightHandToeBase",
      "rotation": [
        -4.447113E-12,
        2.18037322E-09,
        -6.31108264E-07,
        0.9999992
      ],
      "translation": [
        0.137460932,
        -2.39437874E-08,
        9.84032056E-08
      ]
    },
    {
      "name": "Hips-Tail",
      "rotation": [
        -0.00709599024,
        0.917960346,
        -0.01643882,
        -0.39626652
      ],
      "translation": [
        -0.205992818,
        -1.57828151E-08,
        0.03285524
      ],
      "children": [
        26
      ]
    },
    {
      "name": "null_Hips-Tail_Tip",
      "rotation": [
        -2.75656873E-07,
        0.000515998458,
        0.01440896,
        0.999895453
      ],
      "translation": [
        0.138595819,
        -8.68080647E-08,
        2.76978966E-07
      ]
    },
    {
      "name": "LeftUpLeg",
      "rotation": [
        0.1590647,
        0.202038452,
        0.07716034,
        0.96328795
      ],
      "translation": [
        0.009721991,
        0.116823815,
        -0.005193337
      ],
      "children": [
        28
      ]
    },
    {
      "name": "LeftLeg",
      "rotation": [
        -0.0610998943,
        -0.6395358,
        -0.00370519236,
        0.766319335
      ],
      "translation": [
        0.355037361,
        -1.87104064E-07,
        -1.50117554E-08
      ],
      "children": [
        29
      ]
    },
    {
      "name": "LeftFoot",
      "rotation": [
        -0.03983175,
        0.5503018,
        -0.0213827975,
        0.8337401
      ],
      "translation": [
        0.241538927,
        4.3950763E-07,
        1.63461365E-07
      ],
      "children": [
        30
      ]
    },
    {
      "name": "LeftFootToeBase",
      "rotation": [
        -0.000314482255,
        -0.10302002,
        -0.004854085,
        0.994666159
      ],
      "translation": [
        0.2620089,
        -3.763185E-07,
        -4.59069526E-07
      ],
      "children": [
        31
      ]
    },
    {
      "name": "LeftFootToeBase_end",
      "rotation": [
        -2.40048621E-07,
        -1.32273911E-07,
        -2.67834714E-08,
        0.999998331
      ],
      "translation": [
        0.126629725,
        4.20854569E-08,
        -4.275515E-08
      ]
    },
    {
      "name": "RightUpLeg",
      "rotation": [
        -0.112631135,
        -0.0128229437,
        -0.0723291,
        0.990916848
      ],
      "translation": [
        0.00972197,
        -0.116823979,
        -0.00519330334
      ],
      "children": [
        33
      ]
    },
    {
      "name": "RightLeg",
      "rotation": [
        0.0263282079,
        -0.516915,
        0.0159945376,
        0.8554807
      ],
      "translation": [
        0.3550372,
        2.33652472E-07,
        -3.65272228E-07
      ],
      "children": [
        34
      ]
    },
    {
      "name": "RightFoot",
      "rotation": [
        -0.0227484815,
        0.5992512,
        0.07570858,
        0.7966474
      ],
      "translation": [
        0.241538867,
        -4.83396263E-07,
        4.08915568E-09
      ],
      "children": [
        35
      ]
    },
    {
      "name": "RightFootToeBase",
      "rotation": [
        0.0001058512,
        -0.105355404,
        0.007995286,
        0.9944019
      ],
      "translation": [
        0.26200968,
        5.128082E-07,
        -3.46644271E-07
      ],
      "children": [
        36
      ]
    },
    {
      "name": "RightFootToeBase_end",
      "rotation": [
        1.65715741E-09,
        -1.09131307E-07,
        6.46669251E-09,
        0.9999993
      ],
      "translation": [
        0.126630038,
        -4.0098346E-08,
        4.5513616E-08
      ]
    }
  ],
  "accessors": [
    {
      "bufferView": 0,
      "byteOffset": 0,
      "componentType": 5125,
      "count": 9192,
      "type": "SCALAR"
    },
    {
      "bufferView": 1,
      "byteOffset": 0,
      "componentType": 5126,
      "count": 2350,
      "type": "VEC3",
      "min": [
        -0.5336366,
        -0.0179515611,
        -1.1860292
      ],
      "max": [
        0.533636451,
        1.37274766,
        1.09031689
      ]
    },
    {
      "bufferView": 1,
      "byteOffset": 12,
      "componentType": 5126,
      "count": 2350,
      "type": "VEC3"
    },
    {
      "bufferView": 1,
      "byteOffset": 24,
      "componentType": 5126,
      "count": 2350,
      "type": "VEC2"
    },
    {
      "bufferView": 1,
      "byteOffset": 32,
      "componentType": 5126,
      "count": 2350,
      "type": "VEC4"
    },
    {
      "bufferView": 1,
      "byteOffset": 48,
      "componentType": 5121,
      "count": 2350,
      "type": "VEC4"
    },
    {
      "bufferView": 2,
      "byteOffset": 0,
      "componentType": 5126,
      "count": 25,
      "type": "MAT4"
    },
    {
      "bufferView": 3,
      "byteOffset": 0,
      "componentType": 5126,
      "count": 196,
      "type": "SCALAR",
      "min": [
        0.0
      ],
      "max": [
        6.50000048
      ]
    },
    {
      "bufferView": 4,
      "byteOffset": 0,
      "componentType": 5126,
      "count": 196,
      "type": "VEC4"
    },
    {
      "bufferView": 5,
      "byteOffset": 0,
      "componentType": 5126,
      "count": 196,
      "type": "VEC3"
    },
    {
      "bufferView": 4,
      "byteOffset": 3136,
      "componentType": 5126,
      "count": 196,
      "type": "VEC4"
    },
    {
      "bufferView": 5,
      "byteOffset": 2352,
      "componentType": 5126,
      "count": 196,
      "type": "VEC3"
    },
    {
      "bufferView": 4,
      "byteOffset": 6272,
      "componentType": 5126,
      "count": 196,
      "type": "VEC4"
    },
    {
      "bufferView": 5,
      "byteOffset": 4704,
      "componentType": 5126,
      "count": 196,
      "type": "VEC3"
    },
    {
      "bufferView": 4,
      "byteOffset": 9408,
      "componentType": 5126,
      "count": 196,
      "type": "VEC4"
    },
    {
      "bufferView": 5,
      "byteOffset": 7056,
      "componentType": 5126,
      "count": 196,
      "type": "VEC3"
    },
    {
      "bufferView": 4,
      "byteOffset": 12544,
      "componentType": 5126,
      "count": 196,
      "type": "VEC4"
    },
    {
      "bufferView": 5,
      "byteOffset": 9408,
      "componentType": 5126,
      "count": 196,
      "type": "VEC3"
    },
    {
      "bufferView": 4,
      "byteOffset": 15680,
      "componentType": 5126,
      "count": 196,
      "type": "VEC4"
    },
    {
      "bufferView": 5,
      "byteOffset": 11760,
      "componentType": 5126,
      "count": 196,
      "type": "VEC3"
    },
    {
      "bufferView": 4,
      "byteOffset": 18816,
      "componentType": 5126,
      "count": 196,
      "type": "VEC4"
    },
    {
      "bufferView": 5,
      "byteOffset": 14112,
      "componentType": 5126,
      "count": 196,
      "type": "VEC3"
    },
    {
      "bufferView": 4,
      "byteOffset": 21952,
      "componentType": 5126,
      "count": 196,
      "type": "VEC4"
    },
    {
      "bufferView": 5,
      "byteOffset": 16464,
      "componentType": 5126,
      "count": 196,
      "type": "VEC3"
    },
    {
      "bufferView": 4,
      "byteOffset": 25088,
      "componentType": 5126,
      "count": 196,
      "type": "VEC4"
    },
    {
      "bufferView": 5,
      "byteOffset": 18816,
      "componentType": 5126,
      "count": 196,
      "type": "VEC3"
    },
    {
      "bufferView": 4,
      "byteOffset": 28224,
      "componentType": 5126,
      "count": 196,
      "type": "VEC4"
    },
    {
      "bufferView": 5,
      "byteOffset": 21168,
      "componentType": 5126,
      "count": 196,
      "type": "VEC3"
    },
    {
      "bufferView": 4,
      "byteOffset": 31360,
      "componentType": 5126,
      "count": 196,
      "type": "VEC4"
    },
    {
      "bufferView": 5,
      "byteOffset": 23520,
      "componentType": 5126,
      "count": 196,
      "type": "VEC3"
    },
    {
      "bufferView": 4,
      "byteOffset": 34496,
      "componentType": 5126,
      "count": 196,
      "type": "VEC4"
    },
    {
      "bufferView": 5,
      "byteOffset": 25872,
      "componentType": 5126,
      "count": 196,
      "type": "VEC3"
    },
    {
      "bufferView": 4,
      "byteOffset": 37632,
      "componentType": 5126,
      "count": 196,
      "type": "VEC4"
    },
    {
      "bufferView": 5,
      "byteOffset": 28224,
      "componentType": 5126,
      "count": 196,
      "type": "VEC3"
    },
    {
      "bufferView": 4,
      "byteOffset": 40768,
      "componentType": 5126,
      "count": 196,
      "type": "VEC4"
    },
    {
      "bufferView": 5,
      "byteOffset": 30576,
      "componentType": 5126,
      "count": 196,
      "type": "VEC3"
    },
    {
      "bufferView": 4,
      "byteOffset": 43904,
      "componentType": 5126,
      "count": 196,
      "type": "VEC4"
    },
    {
      "bufferView": 5,
      "byteOffset": 32928,
      "componentType": 5126,
      "count": 196,
      "type": "VEC3"
    },
    {
      "bufferView": 4,
      "byteOffset": 47040,
      "componentType": 5126,
      "count": 196,
      "type": "VEC4"
    },
    {
      "bufferView": 5,
      "byteOffset": 35280,
      "componentType": 5126,
      "count": 196,
      "type": "VEC3"
    },
    {
      "bufferView": 4,
      "byteOffset": 50176,
      "componentType": 5126,
      "count": 196,
      "type": "VEC4"
    },
    {
      "bufferView": 5,
      "byteOffset": 37632,
      "componentType": 5126,
      "count": 196,
      "type": "VEC3"
    },
    {
      "bufferView": 4,
      "byteOffset": 53312,
      "componentType": 5126,
      "count": 196,
      "type": "VEC4"
    },
    {
      "bufferView": 5,
      "byteOffset": 39984,
      "componentType": 5126,
      "count": 196,
      "type": "VEC3"
    },
    {
      "bufferView": 4,
      "byteOffset": 56448,
      "componentType": 5126,
      "count": 196,
      "type": "VEC4"
    },
    {
      "bufferView": 5,
      "byteOffset": 42336,
      "componentType": 5126,
      "count": 196,
      "type": "VEC3"
    },
    {
      "bufferView": 4,
      "byteOffset": 59584,
      "componentType": 5126,
      "count": 196,
      "type": "VEC4"
    },
    {
      "bufferView": 5,
      "byteOffset": 44688,
      "componentType": 5126,
      "count": 196,
      "type": "VEC3"
    },
    {
      "bufferView": 4,
      "byteOffset": 62720,
      "componentType": 5126,
      "count": 196,
      "type": "VEC4"
    },
    {
      "bufferView": 5,
      "byteOffset": 47040,
      "componentType": 5126,
      "count": 196,
      "type": "VEC3"
    },
    {
      "bufferView": 4,
      "byteOffset": 65856,
      "componentType": 5126,
      "count": 196,
      "type": "VEC4"
    },
    {
      "bufferView": 5,
      "byteOffset": 49392,
      "componentType": 5126,
      "count": 196,
      "type": "VEC3"
    },
    {
      "bufferView": 4,
      "byteOffset": 68992,
      "componentType": 5126,
      "count": 196,
      "type": "VEC4"
    },
    {
      "bufferView": 5,
      "byteOffset": 51744,
      "componentType": 5126,
      "count": 196,
      "type": "VEC3"
    },
    {
      "bufferView": 4,
      "byteOffset": 72128,
      "componentType": 5126,
      "count": 196,
      "type": "VEC4"
    },
    {
      "bufferView": 5,
      "byteOffset": 54096,
      "componentType": 5126,
      "count": 196,
      "type": "VEC3"
    },
    {
      "bufferView": 4,
      "byteOffset": 75264,
      "componentType": 5126,
      "count": 196,
      "type": "VEC4"
    },
    {
      "bufferView": 5,
      "byteOffset": 56448,
      "componentType": 5126,
      "count": 196,
      "type": "VEC3"
    },
    {
      "bufferView": 4,
      "byteOffset": 78400,
      "componentType": 5126,
      "count": 196,
      "type": "VEC4"
    },
    {
      "bufferView": 5,
      "byteOffset": 58800,
      "componentType": 5126,
      "count": 196,
      "type": "VEC3"
    },
    {
      "bufferView": 4,
      "byteOffset": 81536,
      "componentType": 5126,
      "count": 196,
      "type": "VEC4"
    },
    {
      "bufferView": 5,
      "byteOffset": 61152,
      "componentType": 5126,
      "count": 196,
      "type": "VEC3"
    },
    {
      "bufferView": 4,
      "byteOffset": 84672,
      "componentType": 5126,
      "count": 196,
      "type": "VEC4"
    },
    {
      "bufferView": 5,
      "byteOffset": 63504,
      "componentType": 5126,
      "count": 196,
      "type": "VEC3"
    },
    {
      "bufferView": 4,
      "byteOffset": 87808,
      "componentType": 5126,
      "count": 196,
      "type": "VEC4"
    },
    {
      "bufferView": 5,
      "byteOffset": 65856,
      "componentType": 5126,
      "count": 196,
      "type": "VEC3"
    },
    {
      "bufferView": 4,
      "byteOffset": 90944,
      "componentType": 5126,
      "count": 196,
      "type": "VEC4"
    },
    {
      "bufferView": 5,
      "byteOffset": 68208,
      "componentType": 5126,
      "count": 196,
      "type": "VEC3"
    },
    {
      "bufferView": 4,
      "byteOffset": 94080,
      "componentType": 5126,
      "count": 196,
      "type": "VEC4"
    },
    {
      "bufferView": 5,
      "byteOffset": 70560,
      "componentType": 5126,
      "count": 196,
      "type": "VEC3"
    },
    {
      "bufferView": 4,
      "byteOffset": 97216,
      "componentType": 5126,
      "count": 196,
      "type": "VEC4"
    },
    {
      "bufferView": 5,
      "byteOffset": 72912,
      "componentType": 5126,
      "count": 196,
      "type": "VEC3"
    },
    {
      "bufferView": 4,
      "byteOffset": 100352,
      "componentType": 5126,
      "count": 196,
      "type": "VEC4"
    },
    {
      "bufferView": 5,
      "byteOffset": 75264,
      "componentType": 5126,
      "count": 196,
      "type": "VEC3"
    },
    {
      "bufferView": 4,
      "byteOffset": 103488,
      "componentType": 5126,
      "count": 196,
      "type": "VEC4"
    },
    {
      "bufferView": 5,
      "byteOffset": 77616,
      "componentType": 5126,
      "count": 196,
      "type": "VEC3"
    },
    {
      "bufferView": 4,
      "byteOffset": 106624,
      "componentType": 5126,
      "count": 196,
      "type": "VEC4"
    },
    {
      "bufferView": 5,
      "byteOffset": 79968,
      "componentType": 5126,
      "count": 196,
      "type": "VEC3"
    },
    {
      "bufferView": 4,
      "byteOffset": 109760,
      "componentType": 5126,
      "count": 196,
      "type": "VEC4"
    },
    {
      "bufferView": 5,
      "byteOffset": 82320,
      "componentType": 5126,
      "count": 196,
      "type": "VEC3"
    },
    {
      "bufferView": 4,
      "byteOffset": 112896,
      "componentType": 5126,
      "count": 196,
      "type": "VEC4"
    },
    {
      "bufferView": 5,
      "byteOffset": 84672,
      "componentType": 5126,
      "count": 196,
      "type": "VEC3"
    }
  ],
  "skins": [
    {
      "name": "skin0",
      "inverseBindMatrices": 6,
      "joints": [
        7,
        5,
        9,
        16,
        14,
        12,
        15,
        21,
        11,
        20,
        3,
        4,
        27,
        32,
        25,
        28,
        17,
        18,
        29,
        30,
        33,
        22,
        23,
        34,
        35
      ]
    }
  ],
  "meshes": [
    {
      "name": "wild_boar",
      "primitives": [
        {
          "attributes": {
            "POSITION": 1,
            "NORMAL": 2,
            "TEXCOORD_0": 3,
            "WEIGHTS_0": 4,
            "JOINTS_0": 5
          },
          "indices": 0,
          "mode": 4,
          "material": 0
        }
      ]
    }
  ],
  "animations": [
    {
      "channels": [
        {
          "sampler": 0,
          "target": {
            "node": 1,
            "path": "rotation"
          }
        },
        {
          "sampler": 1,
          "target": {
            "node": 1,
            "path": "translation"
          }
        },
        {
          "sampler": 2,
          "target": {
            "node": 2,
            "path": "rotation"
          }
        },
        {
          "sampler": 3,
          "target": {
            "node": 2,
            "path": "translation"
          }
        },
        {
          "sampler": 4,
          "target": {
            "node": 3,
            "path": "rotation"
          }
        },
        {
          "sampler": 5,
          "target": {
            "node": 3,
            "path": "translation"
          }
        },
        {
          "sampler": 6,
          "target": {
            "node": 4,
            "path": "rotation"
          }
        },
        {
          "sampler": 7,
          "target": {
            "node": 4,
            "path": "translation"
          }
        },
        {
          "sampler": 8,
          "target": {
            "node": 5,
            "path": "rotation"
          }
        },
        {
          "sampler": 9,
          "target": {
            "node": 5,
            "path": "translation"
          }
        },
        {
          "sampler": 10,
          "target": {
            "node": 6,
            "path": "rotation"
          }
        },
        {
          "sampler": 11,
          "target": {
            "node": 6,
            "path": "translation"
          }
        },
        {
          "sampler": 12,
          "target": {
            "node": 7,
            "path": "rotation"
          }
        },
        {
          "sampler": 13,
          "target": {
            "node": 7,
            "path": "translation"
          }
        },
        {
          "sampler": 14,
          "target": {
            "node": 8,
            "path": "rotation"
          }
        },
        {
          "sampler": 15,
          "target": {
            "node": 8,
            "path": "translation"
          }
        },
        {
          "sampler": 16,
          "target": {
            "node": 9,
            "path": "rotation"
          }
        },
        {
          "sampler": 17,
          "target": {
            "node": 9,
            "path": "translation"
          }
        },
        {
          "sampler": 18,
          "target": {
            "node": 10,
            "path": "rotation"
          }
        },
        {
          "sampler": 19,
          "target": {
            "node": 10,
            "path": "translation"
          }
        },
        {
          "sampler": 20,
          "target": {
            "node": 11,
            "path": "rotation"
          }
        },
        {
          "sampler": 21,
          "target": {
            "node": 11,
            "path": "translation"
          }
        },
        {
          "sampler": 22,
          "target": {
            "node": 12,
            "path": "rotation"
          }
        },
        {
          "sampler": 23,
          "target": {
            "node": 12,
            "path": "translation"
          }
        },
        {
          "sampler": 24,
          "target": {
            "node": 13,
            "path": "rotation"
          }
        },
        {
          "sampler": 25,
          "target": {
            "node": 13,
            "path": "translation"
          }
        },
        {
          "sampler": 26,
          "target": {
            "node": 14,
            "path": "rotation"
          }
        },
        {
          "sampler": 27,
          "target": {
            "node": 14,
            "path": "translation"
          }
        },
        {
          "sampler": 28,
          "target": {
            "node": 15,
            "path": "rotation"
          }
        },
        {
          "sampler": 29,
          "target": {
            "node": 15,
            "path": "translation"
          }
        },
        {
          "sampler": 30,
          "target": {
            "node": 16,
            "path": "rotation"
          }
        },
        {
          "sampler": 31,
          "target": {
            "node": 16,
            "path": "translation"
          }
        },
        {
          "sampler": 32,
          "target": {
            "node": 17,
            "path": "rotation"
          }
        },
        {
          "sampler": 33,
          "target": {
            "node": 17,
            "path": "translation"
          }
        },
        {
          "sampler": 34,
          "target": {
            "node": 18,
            "path": "rotation"
          }
        },
        {
          "sampler": 35,
          "target": {
            "node": 18,
            "path": "translation"
          }
        },
        {
          "sampler": 36,
          "target": {
            "node": 19,
            "path": "rotation"
          }
        },
        {
          "sampler": 37,
          "target": {
            "node": 19,
            "path": "translation"
          }
        },
        {
          "sampler": 38,
          "target": {
            "node": 20,
            "path": "rotation"
          }
        },
        {
          "sampler": 39,
          "target": {
            "node": 20,
            "path": "translation"
          }
        },
        {
          "sampler": 40,
          "target": {
            "node": 21,
            "path": "rotation"
          }
        },
        {
          "sampler": 41,
          "target": {
            "node": 21,
            "path": "translation"
          }
        },
        {
          "sampler": 42,
          "target": {
            "node": 22,
            "path": "rotation"
          }
        },
        {
          "sampler": 43,
          "target": {
            "node": 22,
            "path": "translation"
          }
        },
        {
          "sampler": 44,
          "target": {
            "node": 23,
            "path": "rotation"
          }
        },
        {
          "sampler": 45,
          "target": {
            "node": 23,
            "path": "translation"
          }
        },
        {
          "sampler": 46,
          "target": {
            "node": 24,
            "path": "rotation"
          }
        },
        {
          "sampler": 47,
          "target": {
            "node": 24,
            "path": "translation"
          }
        },
        {
          "sampler": 48,
          "target": {
            "node": 25,
            "path": "rotation"
          }
        },
        {
          "sampler": 49,
          "target": {
            "node": 25,
            "path": "translation"
          }
        },
        {
          "sampler": 50,
          "target": {
            "node": 26,
            "path": "rotation"
          }
        },
        {
          "sampler": 51,
          "target": {
            "node": 26,
            "path": "translation"
          }
        },
        {
          "sampler": 52,
          "target": {
            "node": 27,
            "path": "rotation"
          }
        },
        {
          "sampler": 53,
          "target": {
            "node": 27,
            "path": "translation"
          }
        },
        {
          "sampler": 54,
          "target": {
            "node": 28,
            "path": "rotation"
          }
        },
        {
          "sampler": 55,
          "target": {
            "node": 28,
            "path": "translation"
          }
        },
        {
          "sampler": 56,
          "target": {
            "node": 29,
            "path": "rotation"
          }
        },
        {
          "sampler": 57,
          "target": {
            "node": 29,
            "path": "translation"
          }
        },
        {
          "sampler": 58,
          "target": {
            "node": 30,
            "path": "rotation"
          }
        },
        {
          "sampler": 59,
          "target": {
            "node": 30,
            "path": "translation"
          }
        },
        {
          "sampler": 60,
          "target": {
            "node": 31,
            "path": "rotation"
          }
        },
        {
          "sampler": 61,
          "target": {
            "node": 31,
            "path": "translation"
          }
        },
        {
          "sampler": 62,
          "target": {
            "node": 32,
            "path": "rotation"
          }
        },
        {
          "sampler": 63,
          "target": {
            "node": 32,
            "path": "translation"
          }
        },
        {
          "sampler": 64,
          "target": {
            "node": 33,
            "path": "rotation"
          }
        },
        {
          "sampler": 65,
          "target": {
            "node": 33,
            "path": "translation"
          }
        },
        {
          "sampler": 66,
          "target": {
            "node": 34,
            "path": "rotation"
          }
        },
        {
          "sampler": 67,
          "target": {
            "node": 34,
            "path": "translation"
          }
        },
        {
          "sampler": 68,
          "target": {
            "node": 35,
            "path": "rotation"
          }
        },
        {
          "sampler": 69,
          "target": {
            "node": 35,
            "path": "translation"
          }
        },
        {
          "sampler": 70,
          "target": {
            "node": 36,
            "path": "rotation"
          }
        },
        {
          "sampler": 71,
          "target": {
            "node": 36,
            "path": "translation"
          }
        },
        {
          "sampler": 72,
          "target": {
            "node": 37,
            "path": "rotation"
          }
        },
        {
          "sampler": 73,
          "target": {
            "node": 37,
            "path": "translation"
          }
        }
      ],
      "samplers": [
        {
          "input": 7,
          "output": 8,
          "interpolation": "LINEAR"
        },
        {
          "input": 7,
          "output": 9,
          "interpolation": "LINEAR"
        },
        {
          "input": 7,
          "output": 10,
          "interpolation": "LINEAR"
        },
        {
          "input": 7,
          "output": 11,
          "interpolation": "LINEAR"
        },
        {
          "input": 7,
          "output": 12,
          "interpolation": "LINEAR"
        },
        {
          "input": 7,
          "output": 13,
          "interpolation": "LINEAR"
        },
        {
          "input": 7,
          "output": 14,
          "interpolation": "LINEAR"
        },
        {
          "input": 7,
          "output": 15,
          "interpolation": "LINEAR"
        },
        {
          "input": 7,
          "output": 16,
          "interpolation": "LINEAR"
        },
        {
          "input": 7,
          "output": 17,
          "interpolation": "LINEAR"
        },
        {
          "input": 7,
          "output": 18,
          "interpolation": "LINEAR"
        },
        {
          "input": 7,
          "output": 19,
          "interpolation": "LINEAR"
        },
        {
          "input": 7,
          "output": 20,
          "interpolation": "LINEAR"
        },
        {
          "input": 7,
          "output": 21,
          "interpolation": "LINEAR"
        },
        {
          "input": 7,
          "output": 22,
          "interpolation": "LINEAR"
        },
        {
          "input": 7,
          "output": 23,
          "interpolation": "LINEAR"
        },
        {
          "input": 7,
          "output": 24,
          "interpolation": "LINEAR"
        },
        {
          "input": 7,
          "output": 25,
          "interpolation": "LINEAR"
        },
        {
          "input": 7,
          "output": 26,
          "interpolation": "LINEAR"
        },
        {
          "input": 7,
          "output": 27,
          "interpolation": "LINEAR"
        },
        {
          "input": 7,
          "output": 28,
          "interpolation": "LINEAR"
        },
        {
          "input": 7,
          "output": 29,
          "interpolation": "LINEAR"
        },
        {
          "input": 7,
          "output": 30,
          "interpolation": "LINEAR"
        },
        {
          "input": 7,
          "output": 31,
          "interpolation": "LINEAR"
        },
        {
          "input": 7,
          "output": 32,
          "interpolation": "LINEAR"
        },
        {
          "input": 7,
          "output": 33,
          "interpolation": "LINEAR"
        },
        {
          "input": 7,
          "output": 34,
          "interpolation": "LINEAR"
        },
        {
          "input": 7,
          "output": 35,
          "interpolation": "LINEAR"
        },
        {
          "input": 7,
          "output": 36,
          "interpolation": "LINEAR"
        },
        {
          "input": 7,
          "output": 37,
          "interpolation": "LINEAR"
        },
        {
          "input": 7,
          "output": 38,
          "interpolation": "LINEAR"
        },
        {
          "input": 7,
          "output": 39,
          "interpolation": "LINEAR"
        },
        {
          "input": 7,
          "output": 40,
          "interpolation": "LINEAR"
        },
        {
          "input": 7,
          "output": 41,
          "interpolation": "LINEAR"
        },
        {
          "input": 7,
          "output": 42,
          "interpolation": "LINEAR"
        },
        {
          "input": 7,
          "output": 43,
          "interpolation": "LINEAR"
        },
        {
          "input": 7,
          "output": 44,
          "interpolation": "LINEAR"
        },
        {
          "input": 7,
          "output": 45,
          "interpolation": "LINEAR"
        },
        {
          "input": 7,
          "output": 46,
          "interpolation": "LINEAR"
        },
        {
          "input": 7,
          "output": 47,
          "interpolation": "LINEAR"
        },
        {
          "input": 7,
          "output": 48,
          "interpolation": "LINEAR"
        },
        {
          "input": 7,
          "output": 49,
          "interpolation": "LINEAR"
        },
        {
          "input": 7,
          "output": 50,
          "interpolation": "LINEAR"
        },
        {
          "input": 7,
          "output": 51,
          "interpolation": "LINEAR"
        },
        {
          "input": 7,
          "output": 52,
          "interpolation": "LINEAR"
        },
        {
          "input": 7,
          "output": 53,
          "interpolation": "LINEAR"
        },
        {
          "input": 7,
          "output": 54,
          "interpolation": "LINEAR"
        },
        {
          "input": 7,
          "output": 55,
          "interpolation": "LINEAR"
        },
        {
          "input": 7,
          "output": 56,
          "interpolation": "LINEAR"
        },
        {
          "input": 7,
          "output": 57,
          "interpolation": "LINEAR"
        },
        {
          "input": 7,
          "output": 58,
          "interpolation": "LINEAR"
        },
        {
          "input": 7,
          "output": 59,
          "interpolation": "LINEAR"
        },
        {
          "input": 7,
          "output": 60,
          "interpolation": "LINEAR"
        },
        {
          "input": 7,
          "output": 61,
          "interpolation": "LINEAR"
        },
        {
          "input": 7,
          "output": 62,
          "interpolation": "LINEAR"
        },
        {
          "input": 7,
          "output": 63,
          "interpolation": "LINEAR"
        },
        {
          "input": 7,
          "output": 64,
          "interpolation": "LINEAR"
        },
        {
          "input": 7,
          "output": 65,
          "interpolation": "LINEAR"
        },
        {
          "input": 7,
          "output": 66,
          "interpolation": "LINEAR"
        },
        {
          "input": 7,
          "output": 67,
          "interpolation": "LINEAR"
        },
        {
          "input": 7,
          "output": 68,
          "interpolation": "LINEAR"
        },
        {
          "input": 7,
          "output": 69,
          "interpolation": "LINEAR"
        },
        {
          "input": 7,
          "output": 70,
          "interpolation": "LINEAR"
        },
        {
          "input": 7,
          "output": 71,
          "interpolation": "LINEAR"
        },
        {
          "input": 7,
          "output": 72,
          "interpolation": "LINEAR"
        },
        {
          "input": 7,
          "output": 73,
          "interpolation": "LINEAR"
        },
        {
          "input": 7,
          "output": 74,
          "interpolation": "LINEAR"
        },
        {
          "input": 7,
          "output": 75,
          "interpolation": "LINEAR"
        },
        {
          "input": 7,
          "output": 76,
          "interpolation": "LINEAR"
        },
        {
          "input": 7,
          "output": 77,
          "interpolation": "LINEAR"
        },
        {
          "input": 7,
          "output": 78,
          "interpolation": "LINEAR"
        },
        {
          "input": 7,
          "output": 79,
          "interpolation": "LINEAR"
        },
        {
          "input": 7,
          "output": 80,
          "interpolation": "LINEAR"
        },
        {
          "input": 7,
          "output": 81,
          "interpolation": "LINEAR"
        }
      ]
    }
  ],
  "bufferViews": [
    {
      "name": "mesh_indexes_wild_boar",
      "buffer": 0,
      "byteOffset": 0,
      "byteLength": 36768,
      "target": 34963
    },
    {
      "name": "mesh_vertexes_wild_boar",
      "buffer": 0,
      "byteOffset": 36768,
      "byteLength": 122200,
      "byteStride": 52,
      "target": 34962
    },
    {
      "name": "mesh_bones_wild_boar",
      "buffer": 0,
      "byteOffset": 158968,
      "byteLength": 1600
    },
    {
      "name": "frames",
      "buffer": 0,
      "byteOffset": 160568,
      "byteLength": 784
    },
    {
      "name": "bones_rotate",
      "buffer": 0,
      "byteOffset": 161352,
      "byteLength": 116032
    },
    {
      "name": "bones_translate",
      "buffer": 0,
      "byteOffset": 277384,
      "byteLength": 87024
    }
  ],
  "buffers": [
    {
      "uri": "character_neutrals_wildboar.bin",
      "byteLength": 364408
    }
  ],
  "images": [
    {
      "uri": "character_neutrals_wildboar.dds"
    }
  ],
  "textures": [
    {
      "source": 0
    }
  ],
  "materials": [
    {
      "name": "material0",
      "alphaMode": "MASK",
      "pbrMetallicRoughness": {
        "baseColorTexture": {
          "index": 0,
          "texCoord": 0
        },
        "metallicFactor": 0.0
      },
      "emissiveFactor": [
        0.0,
        0.0,
        0.0
      ]
    }
  ]
}