{
  "asset": {
    "version": "2.0",
    "generator": "generated with dis3tool v1.1 by root.ext@gmail.com"
  },
  "scenes": [
    {
      "nodes": [
        0,
        1,
        2,
        3
      ]
    }
  ],
  "scene": 0,
  "nodes": [
    {
      "name": "character_neutral_death",
      "mesh": 0,
      "skin": 0
    },
    {
      "name": "weapon_neutral_death",
      "mesh": 1,
      "skin": 1
    },
    {
      "name": "character_neutral_death_alpha",
      "mesh": 2,
      "skin": 2
    },
    {
      "name": "Bip01",
      "rotation": [
        0.00615364872,
        0.7130869,
        -0.00625956664,
        0.7010207
      ],
      "translation": [
        0.0119080311,
        1.16263616,
        -0.02487191
      ],
      "children": [
        4
      ]
    },
    {
      "name": "Bip01 Pelvis",
      "rotation": [
        0.520824969,
        0.468500018,
        0.516934633,
        0.491963118
      ],
      "translation": [
        -2.51120763E-10,
        1.53395341E-08,
        -3.567076E-10
      ],
      "children": [
        5
      ]
    },
    {
      "name": "Bip01 Spine",
      "rotation": [
        0.0107342191,
        0.0382161252,
        -0.0383962281,
        0.9984738
      ],
      "translation": [
        0.103357539,
        -0.007977803,
        -0.003097113
      ],
      "children": [
        6,
        13,
        20
      ]
    },
    {
      "name": "Bip01 L Thigh",
      "rotation": [
        -0.0258845873,
        0.0123457937,
        0.9995887,
        -4.53169159E-05
      ],
      "translation": [
        -0.110757045,
        0.09411739,
        -0.007210478
      ],
      "children": [
        7
      ]
    },
    {
      "name": "Bip01 L Calf",
      "rotation": [
        -3.4720482E-10,
        0.0895840153,
        -1.19625115E-10,
        0.995979249
      ],
      "translation": [
        0.433300376,
        5.85767967E-09,
        -1.1498742E-09
      ],
      "children": [
        8
      ]
    },
    {
      "name": "Bip01 L Foot",
      "rotation": [
        0.113487825,
        -0.13852644,
        -0.00444209063,
        0.9838248
      ],
      "translation": [
        0.432777524,
        -1.57280624E-08,
        4.26995372E-09
      ],
      "children": [
        9,
        11
      ]
    },
    {
      "name": "Bip01 L Toe0",
      "rotation": [
        0.0905847847,
        -0.5541031,
        -0.060672015,
        0.825277567
      ],
      "translation": [
        0.09291172,
        -0.0424178727,
        0.117634483
      ],
      "children": [
        10
      ]
    },
    {
      "name": "Bip01 L Toe01",
      "rotation": [
        -1.14974774E-09,
        0.139569461,
        4.118411E-09,
        0.990212262
      ],
      "translation": [
        0.09155832,
        2.585395E-09,
        3.5793617E-09
      ]
    },
    {
      "name": "Bip01 L Toe1",
      "rotation": [
        -0.136426926,
        -0.5163594,
        0.08352257,
        0.841299355
      ],
      "translation": [
        0.09289707,
        0.0519943871,
        0.118042558
      ],
      "children": [
        12
      ]
    },
    {
      "name": "Bip01 L Toe11",
      "rotation": [
        -7.90708443E-10,
        0.131687939,
        -1.63757885E-09,
        0.9912912
      ],
      "translation": [
        0.117819794,
        1.66374736E-09,
        -1.39197853E-08
      ]
    },
    {
      "name": "Bip01 R Thigh",
      "rotation": [
        -0.114357315,
        -0.0299683083,
        0.9928641,
        0.0156629924
      ],
      "translation": [
        -0.09643281,
        -0.09411742,
        -0.002608742
      ],
      "children": [
        14
      ]
    },
    {
      "name": "Bip01 R Calf",
      "rotation": [
        -1.00415076E-09,
        0.0009917036,
        5.244403E-10,
        0.9999995
      ],
      "translation": [
        0.433300316,
        -8.087507E-09,
        3.46025741E-09
      ],
      "children": [
        15
      ]
    },
    {
      "name": "Bip01 R Foot",
      "rotation": [
        -0.19526048,
        -0.0884268358,
        0.04782353,
        0.975585461
      ],
      "translation": [
        0.432777524,
        3.99187461E-10,
        -2.5438327E-09
      ],
      "children": [
        16,
        18
      ]
    },
    {
      "name": "Bip01 R Toe0",
      "rotation": [
        -0.13811262,
        -0.544899046,
        0.109415762,
        0.8197794
      ],
      "translation": [
        0.09291177,
        0.04241787,
        0.11763452
      ],
      "children": [
        17
      ]
    },
    {
      "name": "Bip01 R Toe01",
      "rotation": [
        4.79865347E-09,
        0.150707081,
        1.28864706E-08,
        0.988578558
      ],
      "translation": [
        0.09155837,
        1.49101931E-09,
        1.67445666E-08
      ]
    },
    {
      "name": "Bip01 R Toe1",
      "rotation": [
        0.06909621,
        -0.5496687,
        -0.0358262733,
        0.8317491
      ],
      "translation": [
        0.0928971246,
        -0.0519944057,
        0.118042596
      ],
      "children": [
        19
      ]
    },
    {
      "name": "Bip01 R Toe11",
      "rotation": [
        2.73561884E-09,
        0.09114156,
        -6.771691E-09,
        0.995838046
      ],
      "translation": [
        0.117819875,
        1.38106016E-08,
        1.52618345E-08
      ]
    },
    {
      "name": "Bip01 Spine1",
      "rotation": [
        -0.003291457,
        0.103864491,
        -0.0312621854,
        0.9940946
      ],
      "translation": [
        0.23193197,
        -6.12735462E-09,
        -0.000234881532
      ],
      "children": [
        21
      ]
    },
    {
      "name": "Bip01 Neck",
      "rotation": [
        -2.27646457E-09,
        -0.444607824,
        1.23458881E-06,
        0.8957254
      ],
      "translation": [
        0.301554531,
        8.238287E-09,
        -2.99589137E-05
      ],
      "children": [
        22,
        25,
        36
      ]
    },
    {
      "name": "Bip01 Head",
      "rotation": [
        -0.03418381,
        0.106863327,
        -0.022087086,
        0.993440449
      ],
      "translation": [
        0.0622913875,
        -9.166121E-09,
        1.45256735E-07
      ],
      "children": [
        23,
        24
      ]
    },
    {
      "name": "right_eye",
      "rotation": [
        -3.25951731E-07,
        -0.7372775,
        -9.578637E-08,
        0.6755901
      ],
      "translation": [
        0.0990792662,
        0.03614914,
        0.06619477
      ]
    },
    {
      "name": "left_eye",
      "rotation": [
        -3.25951731E-07,
        -0.7372775,
        -9.578637E-08,
        0.6755901
      ],
      "translation": [
        0.09907924,
        -0.0359770246,
        0.06619468
      ]
    },
    {
      "name": "Bip01 L Clavicle",
      "rotation": [
        0.5848849,
        0.675710261,
        -0.351264179,
        -0.279175431
      ],
      "translation": [
        -2.0617891E-07,
        0.03674797,
        4.97187866E-05
      ],
      "children": [
        26
      ]
    },
    {
      "name": "Bip01 L UpperArm",
      "rotation": [
        -0.109582596,
        -0.102248542,
        -0.611276567,
        0.7770958
      ],
      "translation": [
        0.131545484,
        8.308619E-08,
        -4.09091818E-08
      ],
      "children": [
        27
      ]
    },
    {
      "name": "Bip01 L Forearm",
      "rotation": [
        -1.0543137E-08,
        0.72367847,
        1.1826824E-08,
        0.6901373
      ],
      "translation": [
        0.3406586,
        1.96653165E-08,
        -8.95745E-09
      ],
      "children": [
        28
      ]
    },
    {
      "name": "Bip01 L Hand",
      "rotation": [
        0.646134734,
        0.03283499,
        -0.270907521,
        0.7127699
      ],
      "translation": [
        0.27057448,
        -1.34130529E-09,
        1.21340122E-07
      ],
      "children": [
        29
      ]
    },
    {
      "name": "weapon1",
      "rotation": [
        0.0360733643,
        0.06113421,
        -0.730719,
        0.6789778
      ],
      "translation": [
        0.0719007,
        -0.0159640815,
        0.0311487187
      ],
      "children": [
        30,
        31,
        32,
        33,
        34,
        35
      ]
    },
    {
      "name": "Trail2",
      "rotation": [
        -1.10758762E-07,
        0.9961947,
        1.81696763E-07,
        -0.08715566
      ],
      "translation": [
        1.26567745,
        0.0220145788,
        0.0573712029
      ]
    },
    {
      "name": "Trail3",
      "rotation": [
        8.08660943E-08,
        0.8870109,
        1.87959856E-07,
        -0.461748451
      ],
      "translation": [
        1.13553381,
        0.0218664128,
        -0.126397327
      ]
    },
    {
      "name": "Trail4",
      "rotation": [
        -7.561928E-08,
        -0.608761251,
        1.05673195E-07,
        0.7933534
      ],
      "translation": [
        0.955346644,
        0.01665114,
        -0.144112423
      ]
    },
    {
      "name": "Trail5",
      "rotation": [
        2.5161475E-07,
        -0.42261824,
        1.90126784E-07,
        0.9063078
      ],
      "translation": [
        0.7747744,
        0.008122516,
        -0.0245031323
      ]
    },
    {
      "name": "Trail1",
      "rotation": [
        -1.721087E-07,
        0.9848077,
        1.36852066E-07,
        0.173648268
      ],
      "translation": [
        1.23330534,
        0.0220144913,
        0.244987577
      ]
    },
    {
      "name": "spell_staff",
      "rotation": [
        8.08660943E-08,
        0.8870109,
        1.87959856E-07,
        -0.461748451
      ],
      "translation": [
        1.02132225,
        0.0218665153,
        0.107290551
      ]
    },
    {
      "name": "Bip01 R Clavicle",
      "rotation": [
        -0.5055526,
        0.7010475,
        0.490475,
        -0.111280687
      ],
      "translation": [
        -6.288444E-08,
        -0.03674799,
        4.98166519E-05
      ],
      "children": [
        37
      ]
    },
    {
      "name": "Bip01 R UpperArm",
      "rotation": [
        0.3070728,
        0.119753636,
        0.534326732,
        0.7783703
      ],
      "translation": [
        0.131545544,
        1.530946E-07,
        5.760759E-09
      ],
      "children": [
        38
      ]
    },
    {
      "name": "Bip01 R Forearm",
      "rotation": [
        1.75678927E-09,
        0.16188015,
        6.71414573E-12,
        0.986810446
      ],
      "translation": [
        0.340658575,
        1.05846141E-08,
        -1.67812662E-08
      ],
      "children": [
        39
      ]
    },
    {
      "name": "Bip01 R Hand",
      "rotation": [
        0.9037999,
        0.163165763,
        -0.07301821,
        -0.388832927
      ],
      "translation": [
        0.27057445,
        2.61604356E-08,
        1.45441508E-08
      ],
      "children": [
        40,
        43,
        46,
        49,
        52,
        54
      ]
    },
    {
      "name": "Bip01 R Finger0",
      "rotation": [
        0.782630563,
        -0.009747647,
        0.210384414,
        0.5857754
      ],
      "translation": [
        0.0189374331,
        0.0318147,
        0.0295982063
      ],
      "children": [
        41
      ]
    },
    {
      "name": "Bip01 R Finger01",
      "rotation": [
        6.75577461E-09,
        -0.09134214,
        -4.82967355E-09,
        0.995819569
      ],
      "translation": [
        0.073856,
        5.748734E-08,
        -6.215068E-08
      ],
      "children": [
        42
      ]
    },
    {
      "name": "left_fing4",
      "rotation": [
        0.99999994,
        -2.278153E-07,
        1.95741038E-07,
        4.97594677E-08
      ],
      "translation": [
        0.0530921146,
        -2.11084874E-08,
        -3.70261866E-08
      ]
    },
    {
      "name": "Bip01 R Finger1",
      "rotation": [
        0.109531045,
        -0.271769732,
        0.0133479293,
        0.9560157
      ],
      "translation": [
        0.0978151,
        0.0389543436,
        0.004092407
      ],
      "children": [
        44
      ]
    },
    {
      "name": "Bip01 R Finger11",
      "rotation": [
        6.717633E-09,
        -0.6245896,
        3.35431167E-08,
        0.7809531
      ],
      "translation": [
        0.0587909035,
        1.05644951E-08,
        6.537183E-08
      ],
      "children": [
        45
      ]
    },
    {
      "name": "left_fing3",
      "rotation": [
        1.0,
        -1.62015567E-07,
        3.08176169E-08,
        2.56066386E-08
      ],
      "translation": [
        0.0552636273,
        3.27262377E-08,
        4.35103367E-08
      ]
    },
    {
      "name": "Bip01 R Finger2",
      "rotation": [
        0.07072938,
        -0.2681968,
        0.01410392,
        0.960660636
      ],
      "translation": [
        0.0985714048,
        0.0102352723,
        0.000139452255
      ],
      "children": [
        47
      ]
    },
    {
      "name": "Bip01 R Finger21",
      "rotation": [
        6.560906E-09,
        -0.48247236,
        1.12376144E-08,
        0.8759112
      ],
      "translation": [
        0.06728734,
        -5.04426145E-09,
        -3.85097856E-08
      ],
      "children": [
        48
      ]
    },
    {
      "name": "left_fing1",
      "rotation": [
        -4.04679184E-07,
        -9.183858E-09,
        -1.53221336E-07,
        0.99999994
      ],
      "translation": [
        0.05771288,
        -2.71840843E-08,
        1.55040425E-07
      ]
    },
    {
      "name": "Bip01 R Finger3",
      "rotation": [
        -0.0428963043,
        -0.202264026,
        -0.06321494,
        0.9763468
      ],
      "translation": [
        0.09842314,
        -0.0196953565,
        0.000800676062
      ],
      "children": [
        50
      ]
    },
    {
      "name": "Bip01 R Finger31",
      "rotation": [
        -8.176231E-09,
        -0.17729868,
        -4.481395E-09,
        0.9841571
      ],
      "translation": [
        0.0404012054,
        -5.22665733E-09,
        2.192392E-08
      ],
      "children": [
        51
      ]
    },
    {
      "name": "left_fing2",
      "rotation": [
        0.99999994,
        -1.33909069E-07,
        1.47055417E-08,
        -2.27656074E-07
      ],
      "translation": [
        0.0484801643,
        3.065812E-08,
        -3.40989672E-08
      ]
    },
    {
      "name": "Bip01 R Finger4",
      "rotation": [
        -0.142331377,
        -0.000309185445,
        -0.195994481,
        0.970220566
      ],
      "translation": [
        0.09377175,
        -0.0462759957,
        0.00999546
      ],
      "children": [
        53
      ]
    },
    {
      "name": "Bip01 R Finger41",
      "rotation": [
        -6.59156152E-09,
        -0.2047051,
        5.042287E-09,
        0.9788237
      ],
      "translation": [
        0.02566184,
        -7.500066E-09,
        -2.21450769E-09
      ]
    },
    {
      "name": "spell_hand",
      "rotation": [
        0.227273554,
        0.801348269,
        -0.356924683,
        0.422838539
      ],
      "translation": [
        0.147863284,
        -0.00222929823,
        0.163937181
      ]
    }
  ],
  "accessors": [
    {
      "bufferView": 0,
      "byteOffset": 0,
      "componentType": 5125,
      "count": 9588,
      "type": "SCALAR"
    },
    {
      "bufferView": 1,
      "byteOffset": 0,
      "componentType": 5126,
      "count": 1975,
      "type": "VEC3",
      "min": [
        -0.509139955,
        -0.00974271353,
        -0.291331559
      ],
      "max": [
        0.5040853,
        1.93011212,
        0.267567962
      ]
    },
    {
      "bufferView": 1,
      "byteOffset": 12,
      "componentType": 5126,
      "count": 1975,
      "type": "VEC3"
    },
    {
      "bufferView": 1,
      "byteOffset": 24,
      "componentType": 5126,
      "count": 1975,
      "type": "VEC2"
    },
    {
      "bufferView": 1,
      "byteOffset": 32,
      "componentType": 5126,
      "count": 1975,
      "type": "VEC4"
    },
    {
      "bufferView": 1,
      "byteOffset": 48,
      "componentType": 5121,
      "count": 1975,
      "type": "VEC4"
    },
    {
      "bufferView": 2,
      "byteOffset": 0,
      "componentType": 5126,
      "count": 36,
      "type": "MAT4"
    },
    {
      "bufferView": 3,
      "byteOffset": 0,
      "componentType": 5125,
      "count": 582,
      "type": "SCALAR"
    },
    {
      "bufferView": 4,
      "byteOffset": 0,
      "componentType": 5126,
      "count": 190,
      "type": "VEC3",
      "min": [
        -0.00105933542,
        -0.0269047581,
        -0.202818125
      ],
      "max": [
        2.09928918,
        0.0369016938,
        0.44946903
      ]
    },
    {
      "bufferView": 4,
      "byteOffset": 12,
      "componentType": 5126,
      "count": 190,
      "type": "VEC3"
    },
    {
      "bufferView": 4,
      "byteOffset": 24,
      "componentType": 5126,
      "count": 190,
      "type": "VEC2"
    },
    {
      "bufferView": 4,
      "byteOffset": 32,
      "componentType": 5126,
      "count": 190,
      "type": "VEC4"
    },
    {
      "bufferView": 4,
      "byteOffset": 48,
      "componentType": 5121,
      "count": 190,
      "type": "VEC4"
    },
    {
      "bufferView": 5,
      "byteOffset": 0,
      "componentType": 5126,
      "count": 1,
      "type": "MAT4"
    },
    {
      "bufferView": 6,
      "byteOffset": 0,
      "componentType": 5125,
      "count": 813,
      "type": "SCALAR"
    },
    {
      "bufferView": 7,
      "byteOffset": 0,
      "componentType": 5126,
      "count": 223,
      "type": "VEC3",
      "min": [
        -0.61074394,
        1.30035043,
        -0.195033967
      ],
      "max": [
        0.401789039,
        2.11256027,
        0.195173576
      ]
    },
    {
      "bufferView": 7,
      "byteOffset": 12,
      "componentType": 5126,
      "count": 223,
      "type": "VEC3"
    },
    {
      "bufferView": 7,
      "byteOffset": 24,
      "componentType": 5126,
      "count": 223,
      "type": "VEC2"
    },
    {
      "bufferView": 7,
      "byteOffset": 32,
      "componentType": 5126,
      "count": 223,
      "type": "VEC4"
    },
    {
      "bufferView": 7,
      "byteOffset": 48,
      "componentType": 5121,
      "count": 223,
      "type": "VEC4"
    },
    {
      "bufferView": 8,
      "byteOffset": 0,
      "componentType": 5126,
      "count": 7,
      "type": "MAT4"
    },
    {
      "bufferView": 9,
      "byteOffset": 0,
      "componentType": 5126,
      "count": 319,
      "type": "SCALAR",
      "min": [
        0.0
      ],
      "max": [
        10.6
      ]
    },
    {
      "bufferView": 10,
      "byteOffset": 0,
      "componentType": 5126,
      "count": 319,
      "type": "VEC4"
    },
    {
      "bufferView": 11,
      "byteOffset": 0,
      "componentType": 5126,
      "count": 319,
      "type": "VEC3"
    },
    {
      "bufferView": 10,
      "byteOffset": 5104,
      "componentType": 5126,
      "count": 319,
      "type": "VEC4"
    },
    {
      "bufferView": 11,
      "byteOffset": 3828,
      "componentType": 5126,
      "count": 319,
      "type": "VEC3"
    },
    {
      "bufferView": 10,
      "byteOffset": 10208,
      "componentType": 5126,
      "count": 319,
      "type": "VEC4"
    },
    {
      "bufferView": 11,
      "byteOffset": 7656,
      "componentType": 5126,
      "count": 319,
      "type": "VEC3"
    },
    {
      "bufferView": 10,
      "byteOffset": 15312,
      "componentType": 5126,
      "count": 319,
      "type": "VEC4"
    },
    {
      "bufferView": 11,
      "byteOffset": 11484,
      "componentType": 5126,
      "count": 319,
      "type": "VEC3"
    },
    {
      "bufferView": 10,
      "byteOffset": 20416,
      "componentType": 5126,
      "count": 319,
      "type": "VEC4"
    },
    {
      "bufferView": 11,
      "byteOffset": 15312,
      "componentType": 5126,
      "count": 319,
      "type": "VEC3"
    },
    {
      "bufferView": 10,
      "byteOffset": 25520,
      "componentType": 5126,
      "count": 319,
      "type": "VEC4"
    },
    {
      "bufferView": 11,
      "byteOffset": 19140,
      "componentType": 5126,
      "count": 319,
      "type": "VEC3"
    },
    {
      "bufferView": 10,
      "byteOffset": 30624,
      "componentType": 5126,
      "count": 319,
      "type": "VEC4"
    },
    {
      "bufferView": 11,
      "byteOffset": 22968,
      "componentType": 5126,
      "count": 319,
      "type": "VEC3"
    },
    {
      "bufferView": 10,
      "byteOffset": 35728,
      "componentType": 5126,
      "count": 319,
      "type": "VEC4"
    },
    {
      "bufferView": 11,
      "byteOffset": 26796,
      "componentType": 5126,
      "count": 319,
      "type": "VEC3"
    },
    {
      "bufferView": 10,
      "byteOffset": 40832,
      "componentType": 5126,
      "count": 319,
      "type": "VEC4"
    },
    {
      "bufferView": 11,
      "byteOffset": 30624,
      "componentType": 5126,
      "count": 319,
      "type": "VEC3"
    },
    {
      "bufferView": 10,
      "byteOffset": 45936,
      "componentType": 5126,
      "count": 319,
      "type": "VEC4"
    },
    {
      "bufferView": 11,
      "byteOffset": 34452,
      "componentType": 5126,
      "count": 319,
      "type": "VEC3"
    },
    {
      "bufferView": 10,
      "byteOffset": 51040,
      "componentType": 5126,
      "count": 319,
      "type": "VEC4"
    },
    {
      "bufferView": 11,
      "byteOffset": 38280,
      "componentType": 5126,
      "count": 319,
      "type": "VEC3"
    },
    {
      "bufferView": 10,
      "byteOffset": 56144,
      "componentType": 5126,
      "count": 319,
      "type": "VEC4"
    },
    {
      "bufferView": 11,
      "byteOffset": 42108,
      "componentType": 5126,
      "count": 319,
      "type": "VEC3"
    },
    {
      "bufferView": 10,
      "byteOffset": 61248,
      "componentType": 5126,
      "count": 319,
      "type": "VEC4"
    },
    {
      "bufferView": 11,
      "byteOffset": 45936,
      "componentType": 5126,
      "count": 319,
      "type": "VEC3"
    },
    {
      "bufferView": 10,
      "byteOffset": 66352,
      "componentType": 5126,
      "count": 319,
      "type": "VEC4"
    },
    {
      "bufferView": 11,
      "byteOffset": 49764,
      "componentType": 5126,
      "count": 319,
      "type": "VEC3"
    },
    {
      "bufferView": 10,
      "byteOffset": 71456,
      "componentType": 5126,
      "count": 319,
      "type": "VEC4"
    },
    {
      "bufferView": 11,
      "byteOffset": 53592,
      "componentType": 5126,
      "count": 319,
      "type": "VEC3"
    },
    {
      "bufferView": 10,
      "byteOffset": 76560,
      "componentType": 5126,
      "count": 319,
      "type": "VEC4"
    },
    {
      "bufferView": 11,
      "byteOffset": 57420,
      "componentType": 5126,
      "count": 319,
      "type": "VEC3"
    },
    {
      "bufferView": 10,
      "byteOffset": 81664,
      "componentType": 5126,
      "count": 319,
      "type": "VEC4"
    },
    {
      "bufferView": 11,
      "byteOffset": 61248,
      "componentType": 5126,
      "count": 319,
      "type": "VEC3"
    },
    {
      "bufferView": 10,
      "byteOffset": 86768,
      "componentType": 5126,
      "count": 319,
      "type": "VEC4"
    },
    {
      "bufferView": 11,
      "byteOffset": 65076,
      "componentType": 5126,
      "count": 319,
      "type": "VEC3"
    },
    {
      "bufferView": 10,
      "byteOffset": 91872,
      "componentType": 5126,
      "count": 319,
      "type": "VEC4"
    },
    {
      "bufferView": 11,
      "byteOffset": 68904,
      "componentType": 5126,
      "count": 319,
      "type": "VEC3"
    },
    {
      "bufferView": 10,
      "byteOffset": 96976,
      "componentType": 5126,
      "count": 319,
      "type": "VEC4"
    },
    {
      "bufferView": 11,
      "byteOffset": 72732,
      "componentType": 5126,
      "count": 319,
      "type": "VEC3"
    },
    {
      "bufferView": 10,
      "byteOffset": 102080,
      "componentType": 5126,
      "count": 319,
      "type": "VEC4"
    },
    {
      "bufferView": 11,
      "byteOffset": 76560,
      "componentType": 5126,
      "count": 319,
      "type": "VEC3"
    },
    {
      "bufferView": 10,
      "byteOffset": 107184,
      "componentType": 5126,
      "count": 319,
      "type": "VEC4"
    },
    {
      "bufferView": 11,
      "byteOffset": 80388,
      "componentType": 5126,
      "count": 319,
      "type": "VEC3"
    },
    {
      "bufferView": 10,
      "byteOffset": 112288,
      "componentType": 5126,
      "count": 319,
      "type": "VEC4"
    },
    {
      "bufferView": 11,
      "byteOffset": 84216,
      "componentType": 5126,
      "count": 319,
      "type": "VEC3"
    },
    {
      "bufferView": 10,
      "byteOffset": 117392,
      "componentType": 5126,
      "count": 319,
      "type": "VEC4"
    },
    {
      "bufferView": 11,
      "byteOffset": 88044,
      "componentType": 5126,
      "count": 319,
      "type": "VEC3"
    },
    {
      "bufferView": 10,
      "byteOffset": 122496,
      "componentType": 5126,
      "count": 319,
      "type": "VEC4"
    },
    {
      "bufferView": 11,
      "byteOffset": 91872,
      "componentType": 5126,
      "count": 319,
      "type": "VEC3"
    },
    {
      "bufferView": 10,
      "byteOffset": 127600,
      "componentType": 5126,
      "count": 319,
      "type": "VEC4"
    },
    {
      "bufferView": 11,
      "byteOffset": 95700,
      "componentType": 5126,
      "count": 319,
      "type": "VEC3"
    },
    {
      "bufferView": 10,
      "byteOffset": 132704,
      "componentType": 5126,
      "count": 319,
      "type": "VEC4"
    },
    {
      "bufferView": 11,
      "byteOffset": 99528,
      "componentType": 5126,
      "count": 319,
      "type": "VEC3"
    },
    {
      "bufferView": 10,
      "byteOffset": 137808,
      "componentType": 5126,
      "count": 319,
      "type": "VEC4"
    },
    {
      "bufferView": 11,
      "byteOffset": 103356,
      "componentType": 5126,
      "count": 319,
      "type": "VEC3"
    },
    {
      "bufferView": 10,
      "byteOffset": 142912,
      "componentType": 5126,
      "count": 319,
      "type": "VEC4"
    },
    {
      "bufferView": 11,
      "byteOffset": 107184,
      "componentType": 5126,
      "count": 319,
      "type": "VEC3"
    },
    {
      "bufferView": 10,
      "byteOffset": 148016,
      "componentType": 5126,
      "count": 319,
      "type": "VEC4"
    },
    {
      "bufferView": 11,
      "byteOffset": 111012,
      "componentType": 5126,
      "count": 319,
      "type": "VEC3"
    },
    {
      "bufferView": 10,
      "byteOffset": 153120,
      "componentType": 5126,
      "count": 319,
      "type": "VEC4"
    },
    {
      "bufferView": 11,
      "byteOffset": 114840,
      "componentType": 5126,
      "count": 319,
      "type": "VEC3"
    },
    {
      "bufferView": 10,
      "byteOffset": 158224,
      "componentType": 5126,
      "count": 319,
      "type": "VEC4"
    },
    {
      "bufferView": 11,
      "byteOffset": 118668,
      "componentType": 5126,
      "count": 319,
      "type": "VEC3"
    },
    {
      "bufferView": 10,
      "byteOffset": 163328,
      "componentType": 5126,
      "count": 319,
      "type": "VEC4"
    },
    {
      "bufferView": 11,
      "byteOffset": 122496,
      "componentType": 5126,
      "count": 319,
      "type": "VEC3"
    },
    {
      "bufferView": 10,
      "byteOffset": 168432,
      "componentType": 5126,
      "count": 319,
      "type": "VEC4"
    },
    {
      "bufferView": 11,
      "byteOffset": 126324,
      "componentType": 5126,
      "count": 319,
      "type": "VEC3"
    },
    {
      "bufferView": 10,
      "byteOffset": 173536,
      "componentType": 5126,
      "count": 319,
      "type": "VEC4"
    },
    {
      "bufferView": 11,
      "byteOffset": 130152,
      "componentType": 5126,
      "count": 319,
      "type": "VEC3"
    },
    {
      "bufferView": 10,
      "byteOffset": 178640,
      "componentType": 5126,
      "count": 319,
      "type": "VEC4"
    },
    {
      "bufferView": 11,
      "byteOffset": 133980,
      "componentType": 5126,
      "count": 319,
      "type": "VEC3"
    },
    {
      "bufferView": 10,
      "byteOffset": 183744,
      "componentType": 5126,
      "count": 319,
      "type": "VEC4"
    },
    {
      "bufferView": 11,
      "byteOffset": 137808,
      "componentType": 5126,
      "count": 319,
      "type": "VEC3"
    },
    {
      "bufferView": 10,
      "byteOffset": 188848,
      "componentType": 5126,
      "count": 319,
      "type": "VEC4"
    },
    {
      "bufferView": 11,
      "byteOffset": 141636,
      "componentType": 5126,
      "count": 319,
      "type": "VEC3"
    },
    {
      "bufferView": 10,
      "byteOffset": 193952,
      "componentType": 5126,
      "count": 319,
      "type": "VEC4"
    },
    {
      "bufferView": 11,
      "byteOffset": 145464,
      "componentType": 5126,
      "count": 319,
      "type": "VEC3"
    },
    {
      "bufferView": 10,
      "byteOffset": 199056,
      "componentType": 5126,
      "count": 319,
      "type": "VEC4"
    },
    {
      "bufferView": 11,
      "byteOffset": 149292,
      "componentType": 5126,
      "count": 319,
      "type": "VEC3"
    },
    {
      "bufferView": 10,
      "byteOffset": 204160,
      "componentType": 5126,
      "count": 319,
      "type": "VEC4"
    },
    {
      "bufferView": 11,
      "byteOffset": 153120,
      "componentType": 5126,
      "count": 319,
      "type": "VEC3"
    },
    {
      "bufferView": 10,
      "byteOffset": 209264,
      "componentType": 5126,
      "count": 319,
      "type": "VEC4"
    },
    {
      "bufferView": 11,
      "byteOffset": 156948,
      "componentType": 5126,
      "count": 319,
      "type": "VEC3"
    },
    {
      "bufferView": 10,
      "byteOffset": 214368,
      "componentType": 5126,
      "count": 319,
      "type": "VEC4"
    },
    {
      "bufferView": 11,
      "byteOffset": 160776,
      "componentType": 5126,
      "count": 319,
      "type": "VEC3"
    },
    {
      "bufferView": 10,
      "byteOffset": 219472,
      "componentType": 5126,
      "count": 319,
      "type": "VEC4"
    },
    {
      "bufferView": 11,
      "byteOffset": 164604,
      "componentType": 5126,
      "count": 319,
      "type": "VEC3"
    },
    {
      "bufferView": 10,
      "byteOffset": 224576,
      "componentType": 5126,
      "count": 319,
      "type": "VEC4"
    },
    {
      "bufferView": 11,
      "byteOffset": 168432,
      "componentType": 5126,
      "count": 319,
      "type": "VEC3"
    },
    {
      "bufferView": 10,
      "byteOffset": 229680,
      "componentType": 5126,
      "count": 319,
      "type": "VEC4"
    },
    {
      "bufferView": 11,
      "byteOffset": 172260,
      "componentType": 5126,
      "count": 319,
      "type": "VEC3"
    },
    {
      "bufferView": 10,
      "byteOffset": 234784,
      "componentType": 5126,
      "count": 319,
      "type": "VEC4"
    },
    {
      "bufferView": 11,
      "byteOffset": 176088,
      "componentType": 5126,
      "count": 319,
      "type": "VEC3"
    },
    {
      "bufferView": 10,
      "byteOffset": 239888,
      "componentType": 5126,
      "count": 319,
      "type": "VEC4"
    },
    {
      "bufferView": 11,
      "byteOffset": 179916,
      "componentType": 5126,
      "count": 319,
      "type": "VEC3"
    },
    {
      "bufferView": 10,
      "byteOffset": 244992,
      "componentType": 5126,
      "count": 319,
      "type": "VEC4"
    },
    {
      "bufferView": 11,
      "byteOffset": 183744,
      "componentType": 5126,
      "count": 319,
      "type": "VEC3"
    },
    {
      "bufferView": 10,
      "byteOffset": 250096,
      "componentType": 5126,
      "count": 319,
      "type": "VEC4"
    },
    {
      "bufferView": 11,
      "byteOffset": 187572,
      "componentType": 5126,
      "count": 319,
      "type": "VEC3"
    },
    {
      "bufferView": 10,
      "byteOffset": 255200,
      "componentType": 5126,
      "count": 319,
      "type": "VEC4"
    },
    {
      "bufferView": 11,
      "byteOffset": 191400,
      "componentType": 5126,
      "count": 319,
      "type": "VEC3"
    },
    {
      "bufferView": 10,
      "byteOffset": 260304,
      "componentType": 5126,
      "count": 319,
      "type": "VEC4"
    },
    {
      "bufferView": 11,
      "byteOffset": 195228,
      "componentType": 5126,
      "count": 319,
      "type": "VEC3"
    }
  ],
  "skins": [
    {
      "name": "skin0",
      "inverseBindMatrices": 6,
      "joints": [
        37,
        38,
        20,
        36,
        39,
        40,
        41,
        43,
        44,
        46,
        47,
        49,
        50,
        52,
        53,
        26,
        25,
        27,
        28,
        22,
        7,
        8,
        14,
        15,
        5,
        4,
        13,
        6,
        9,
        10,
        11,
        12,
        16,
        17,
        18,
        19
      ]
    },
    {
      "name": "skin1",
      "inverseBindMatrices": 13,
      "joints": [
        29
      ]
    },
    {
      "name": "skin2",
      "inverseBindMatrices": 20,
      "joints": [
        20,
        37,
        5,
        26,
        36,
        22,
        25
      ]
    }
  ],
  "meshes": [
    {
      "name": "character_neutral_death",
      "primitives": [
        {
          "attributes": {
            "POSITION": 1,
            "NORMAL": 2,
            "TEXCOORD_0": 3,
            "WEIGHTS_0": 4,
            "JOINTS_0": 5
          },
          "indices": 0,
          "mode": 4,
          "material": 0
        }
      ]
    },
    {
      "name": "weapon_neutral_death",
      "primitives": [
        {
          "attributes": {
            "POSITION": 8,
            "NORMAL": 9,
            "TEXCOORD_0": 10,
            "WEIGHTS_0": 11,
            "JOINTS_0": 12
          },
          "indices": 7,
          "mode": 4,
          "material": 1
        }
      ]
    },
    {
      "name": "character_neutral_death_alpha",
      "primitives": [
        {
          "attributes": {
            "POSITION": 15,
            "NORMAL": 16,
            "TEXCOORD_0": 17,
            "WEIGHTS_0": 18,
            "JOINTS_0": 19
          },
          "indices": 14,
          "mode": 4,
          "material": 2
        }
      ]
    }
  ],
  "animations": [
    {
      "channels": [
        {
          "sampler": 0,
          "target": {
            "node": 3,
            "path": "rotation"
          }
        },
        {
          "sampler": 1,
          "target": {
            "node": 3,
            "path": "translation"
          }
        },
        {
          "sampler": 2,
          "target": {
            "node": 4,
            "path": "rotation"
          }
        },
        {
          "sampler": 3,
          "target": {
            "node": 4,
            "path": "translation"
          }
        },
        {
          "sampler": 4,
          "target": {
            "node": 5,
            "path": "rotation"
          }
        },
        {
          "sampler": 5,
          "target": {
            "node": 5,
            "path": "translation"
          }
        },
        {
          "sampler": 6,
          "target": {
            "node": 6,
            "path": "rotation"
          }
        },
        {
          "sampler": 7,
          "target": {
            "node": 6,
            "path": "translation"
          }
        },
        {
          "sampler": 8,
          "target": {
            "node": 7,
            "path": "rotation"
          }
        },
        {
          "sampler": 9,
          "target": {
            "node": 7,
            "path": "translation"
          }
        },
        {
          "sampler": 10,
          "target": {
            "node": 8,
            "path": "rotation"
          }
        },
        {
          "sampler": 11,
          "target": {
            "node": 8,
            "path": "translation"
          }
        },
        {
          "sampler": 12,
          "target": {
            "node": 9,
            "path": "rotation"
          }
        },
        {
          "sampler": 13,
          "target": {
            "node": 9,
            "path": "translation"
          }
        },
        {
          "sampler": 14,
          "target": {
            "node": 10,
            "path": "rotation"
          }
        },
        {
          "sampler": 15,
          "target": {
            "node": 10,
            "path": "translation"
          }
        },
        {
          "sampler": 16,
          "target": {
            "node": 11,
            "path": "rotation"
          }
        },
        {
          "sampler": 17,
          "target": {
            "node": 11,
            "path": "translation"
          }
        },
        {
          "sampler": 18,
          "target": {
            "node": 12,
            "path": "rotation"
          }
        },
        {
          "sampler": 19,
          "target": {
            "node": 12,
            "path": "translation"
          }
        },
        {
          "sampler": 20,
          "target": {
            "node": 13,
            "path": "rotation"
          }
        },
        {
          "sampler": 21,
          "target": {
            "node": 13,
            "path": "translation"
          }
        },
        {
          "sampler": 22,
          "target": {
            "node": 14,
            "path": "rotation"
          }
        },
        {
          "sampler": 23,
          "target": {
            "node": 14,
            "path": "translation"
          }
        },
        {
          "sampler": 24,
          "target": {
            "node": 15,
            "path": "rotation"
          }
        },
        {
          "sampler": 25,
          "target": {
            "node": 15,
            "path": "translation"
          }
        },
        {
          "sampler": 26,
          "target": {
            "node": 16,
            "path": "rotation"
          }
        },
        {
          "sampler": 27,
          "target": {
            "node": 16,
            "path": "translation"
          }
        },
        {
          "sampler": 28,
          "target": {
            "node": 17,
            "path": "rotation"
          }
        },
        {
          "sampler": 29,
          "target": {
            "node": 17,
            "path": "translation"
          }
        },
        {
          "sampler": 30,
          "target": {
            "node": 18,
            "path": "rotation"
          }
        },
        {
          "sampler": 31,
          "target": {
            "node": 18,
            "path": "translation"
          }
        },
        {
          "sampler": 32,
          "target": {
            "node": 19,
            "path": "rotation"
          }
        },
        {
          "sampler": 33,
          "target": {
            "node": 19,
            "path": "translation"
          }
        },
        {
          "sampler": 34,
          "target": {
            "node": 20,
            "path": "rotation"
          }
        },
        {
          "sampler": 35,
          "target": {
            "node": 20,
            "path": "translation"
          }
        },
        {
          "sampler": 36,
          "target": {
            "node": 21,
            "path": "rotation"
          }
        },
        {
          "sampler": 37,
          "target": {
            "node": 21,
            "path": "translation"
          }
        },
        {
          "sampler": 38,
          "target": {
            "node": 22,
            "path": "rotation"
          }
        },
        {
          "sampler": 39,
          "target": {
            "node": 22,
            "path": "translation"
          }
        },
        {
          "sampler": 40,
          "target": {
            "node": 23,
            "path": "rotation"
          }
        },
        {
          "sampler": 41,
          "target": {
            "node": 23,
            "path": "translation"
          }
        },
        {
          "sampler": 42,
          "target": {
            "node": 24,
            "path": "rotation"
          }
        },
        {
          "sampler": 43,
          "target": {
            "node": 24,
            "path": "translation"
          }
        },
        {
          "sampler": 44,
          "target": {
            "node": 25,
            "path": "rotation"
          }
        },
        {
          "sampler": 45,
          "target": {
            "node": 25,
            "path": "translation"
          }
        },
        {
          "sampler": 46,
          "target": {
            "node": 26,
            "path": "rotation"
          }
        },
        {
          "sampler": 47,
          "target": {
            "node": 26,
            "path": "translation"
          }
        },
        {
          "sampler": 48,
          "target": {
            "node": 27,
            "path": "rotation"
          }
        },
        {
          "sampler": 49,
          "target": {
            "node": 27,
            "path": "translation"
          }
        },
        {
          "sampler": 50,
          "target": {
            "node": 28,
            "path": "rotation"
          }
        },
        {
          "sampler": 51,
          "target": {
            "node": 28,
            "path": "translation"
          }
        },
        {
          "sampler": 52,
          "target": {
            "node": 29,
            "path": "rotation"
          }
        },
        {
          "sampler": 53,
          "target": {
            "node": 29,
            "path": "translation"
          }
        },
        {
          "sampler": 54,
          "target": {
            "node": 30,
            "path": "rotation"
          }
        },
        {
          "sampler": 55,
          "target": {
            "node": 30,
            "path": "translation"
          }
        },
        {
          "sampler": 56,
          "target": {
            "node": 31,
            "path": "rotation"
          }
        },
        {
          "sampler": 57,
          "target": {
            "node": 31,
            "path": "translation"
          }
        },
        {
          "sampler": 58,
          "target": {
            "node": 32,
            "path": "rotation"
          }
        },
        {
          "sampler": 59,
          "target": {
            "node": 32,
            "path": "translation"
          }
        },
        {
          "sampler": 60,
          "target": {
            "node": 33,
            "path": "rotation"
          }
        },
        {
          "sampler": 61,
          "target": {
            "node": 33,
            "path": "translation"
          }
        },
        {
          "sampler": 62,
          "target": {
            "node": 34,
            "path": "rotation"
          }
        },
        {
          "sampler": 63,
          "target": {
            "node": 34,
            "path": "translation"
          }
        },
        {
          "sampler": 64,
          "target": {
            "node": 35,
            "path": "rotation"
          }
        },
        {
          "sampler": 65,
          "target": {
            "node": 35,
            "path": "translation"
          }
        },
        {
          "sampler": 66,
          "target": {
            "node": 36,
            "path": "rotation"
          }
        },
        {
          "sampler": 67,
          "target": {
            "node": 36,
            "path": "translation"
          }
        },
        {
          "sampler": 68,
          "target": {
            "node": 37,
            "path": "rotation"
          }
        },
        {
          "sampler": 69,
          "target": {
            "node": 37,
            "path": "translation"
          }
        },
        {
          "sampler": 70,
          "target": {
            "node": 38,
            "path": "rotation"
          }
        },
        {
          "sampler": 71,
          "target": {
            "node": 38,
            "path": "translation"
          }
        },
        {
          "sampler": 72,
          "target": {
            "node": 39,
            "path": "rotation"
          }
        },
        {
          "sampler": 73,
          "target": {
            "node": 39,
            "path": "translation"
          }
        },
        {
          "sampler": 74,
          "target": {
            "node": 40,
            "path": "rotation"
          }
        },
        {
          "sampler": 75,
          "target": {
            "node": 40,
            "path": "translation"
          }
        },
        {
          "sampler": 76,
          "target": {
            "node": 41,
            "path": "rotation"
          }
        },
        {
          "sampler": 77,
          "target": {
            "node": 41,
            "path": "translation"
          }
        },
        {
          "sampler": 78,
          "target": {
            "node": 42,
            "path": "rotation"
          }
        },
        {
          "sampler": 79,
          "target": {
            "node": 42,
            "path": "translation"
          }
        },
        {
          "sampler": 80,
          "target": {
            "node": 43,
            "path": "rotation"
          }
        },
        {
          "sampler": 81,
          "target": {
            "node": 43,
            "path": "translation"
          }
        },
        {
          "sampler": 82,
          "target": {
            "node": 44,
            "path": "rotation"
          }
        },
        {
          "sampler": 83,
          "target": {
            "node": 44,
            "path": "translation"
          }
        },
        {
          "sampler": 84,
          "target": {
            "node": 45,
            "path": "rotation"
          }
        },
        {
          "sampler": 85,
          "target": {
            "node": 45,
            "path": "translation"
          }
        },
        {
          "sampler": 86,
          "target": {
            "node": 46,
            "path": "rotation"
          }
        },
        {
          "sampler": 87,
          "target": {
            "node": 46,
            "path": "translation"
          }
        },
        {
          "sampler": 88,
          "target": {
            "node": 47,
            "path": "rotation"
          }
        },
        {
          "sampler": 89,
          "target": {
            "node": 47,
            "path": "translation"
          }
        },
        {
          "sampler": 90,
          "target": {
            "node": 48,
            "path": "rotation"
          }
        },
        {
          "sampler": 91,
          "target": {
            "node": 48,
            "path": "translation"
          }
        },
        {
          "sampler": 92,
          "target": {
            "node": 49,
            "path": "rotation"
          }
        },
        {
          "sampler": 93,
          "target": {
            "node": 49,
            "path": "translation"
          }
        },
        {
          "sampler": 94,
          "target": {
            "node": 50,
            "path": "rotation"
          }
        },
        {
          "sampler": 95,
          "target": {
            "node": 50,
            "path": "translation"
          }
        },
        {
          "sampler": 96,
          "target": {
            "node": 51,
            "path": "rotation"
          }
        },
        {
          "sampler": 97,
          "target": {
            "node": 51,
            "path": "translation"
          }
        },
        {
          "sampler": 98,
          "target": {
            "node": 52,
            "path": "rotation"
          }
        },
        {
          "sampler": 99,
          "target": {
            "node": 52,
            "path": "translation"
          }
        },
        {
          "sampler": 100,
          "target": {
            "node": 53,
            "path": "rotation"
          }
        },
        {
          "sampler": 101,
          "target": {
            "node": 53,
            "path": "translation"
          }
        },
        {
          "sampler": 102,
          "target": {
            "node": 54,
            "path": "rotation"
          }
        },
        {
          "sampler": 103,
          "target": {
            "node": 54,
            "path": "translation"
          }
        }
      ],
      "samplers": [
        {
          "input": 21,
          "output": 22,
          "interpolation": "LINEAR"
        },
        {
          "input": 21,
          "output": 23,
          "interpolation": "LINEAR"
        },
        {
          "input": 21,
          "output": 24,
          "interpolation": "LINEAR"
        },
        {
          "input": 21,
          "output": 25,
          "interpolation": "LINEAR"
        },
        {
          "input": 21,
          "output": 26,
          "interpolation": "LINEAR"
        },
        {
          "input": 21,
          "output": 27,
          "interpolation": "LINEAR"
        },
        {
          "input": 21,
          "output": 28,
          "interpolation": "LINEAR"
        },
        {
          "input": 21,
          "output": 29,
          "interpolation": "LINEAR"
        },
        {
          "input": 21,
          "output": 30,
          "interpolation": "LINEAR"
        },
        {
          "input": 21,
          "output": 31,
          "interpolation": "LINEAR"
        },
        {
          "input": 21,
          "output": 32,
          "interpolation": "LINEAR"
        },
        {
          "input": 21,
          "output": 33,
          "interpolation": "LINEAR"
        },
        {
          "input": 21,
          "output": 34,
          "interpolation": "LINEAR"
        },
        {
          "input": 21,
          "output": 35,
          "interpolation": "LINEAR"
        },
        {
          "input": 21,
          "output": 36,
          "interpolation": "LINEAR"
        },
        {
          "input": 21,
          "output": 37,
          "interpolation": "LINEAR"
        },
        {
          "input": 21,
          "output": 38,
          "interpolation": "LINEAR"
        },
        {
          "input": 21,
          "output": 39,
          "interpolation": "LINEAR"
        },
        {
          "input": 21,
          "output": 40,
          "interpolation": "LINEAR"
        },
        {
          "input": 21,
          "output": 41,
          "interpolation": "LINEAR"
        },
        {
          "input": 21,
          "output": 42,
          "interpolation": "LINEAR"
        },
        {
          "input": 21,
          "output": 43,
          "interpolation": "LINEAR"
        },
        {
          "input": 21,
          "output": 44,
          "interpolation": "LINEAR"
        },
        {
          "input": 21,
          "output": 45,
          "interpolation": "LINEAR"
        },
        {
          "input": 21,
          "output": 46,
          "interpolation": "LINEAR"
        },
        {
          "input": 21,
          "output": 47,
          "interpolation": "LINEAR"
        },
        {
          "input": 21,
          "output": 48,
          "interpolation": "LINEAR"
        },
        {
          "input": 21,
          "output": 49,
          "interpolation": "LINEAR"
        },
        {
          "input": 21,
          "output": 50,
          "interpolation": "LINEAR"
        },
        {
          "input": 21,
          "output": 51,
          "interpolation": "LINEAR"
        },
        {
          "input": 21,
          "output": 52,
          "interpolation": "LINEAR"
        },
        {
          "input": 21,
          "output": 53,
          "interpolation": "LINEAR"
        },
        {
          "input": 21,
          "output": 54,
          "interpolation": "LINEAR"
        },
        {
          "input": 21,
          "output": 55,
          "interpolation": "LINEAR"
        },
        {
          "input": 21,
          "output": 56,
          "interpolation": "LINEAR"
        },
        {
          "input": 21,
          "output": 57,
          "interpolation": "LINEAR"
        },
        {
          "input": 21,
          "output": 58,
          "interpolation": "LINEAR"
        },
        {
          "input": 21,
          "output": 59,
          "interpolation": "LINEAR"
        },
        {
          "input": 21,
          "output": 60,
          "interpolation": "LINEAR"
        },
        {
          "input": 21,
          "output": 61,
          "interpolation": "LINEAR"
        },
        {
          "input": 21,
          "output": 62,
          "interpolation": "LINEAR"
        },
        {
          "input": 21,
          "output": 63,
          "interpolation": "LINEAR"
        },
        {
          "input": 21,
          "output": 64,
          "interpolation": "LINEAR"
        },
        {
          "input": 21,
          "output": 65,
          "interpolation": "LINEAR"
        },
        {
          "input": 21,
          "output": 66,
          "interpolation": "LINEAR"
        },
        {
          "input": 21,
          "output": 67,
          "interpolation": "LINEAR"
        },
        {
          "input": 21,
          "output": 68,
          "interpolation": "LINEAR"
        },
        {
          "input": 21,
          "output": 69,
          "interpolation": "LINEAR"
        },
        {
          "input": 21,
          "output": 70,
          "interpolation": "LINEAR"
        },
        {
          "input": 21,
          "output": 71,
          "interpolation": "LINEAR"
        },
        {
          "input": 21,
          "output": 72,
          "interpolation": "LINEAR"
        },
        {
          "input": 21,
          "output": 73,
          "interpolation": "LINEAR"
        },
        {
          "input": 21,
          "output": 74,
          "interpolation": "LINEAR"
        },
        {
          "input": 21,
          "output": 75,
          "interpolation": "LINEAR"
        },
        {
          "input": 21,
          "output": 76,
          "interpolation": "LINEAR"
        },
        {
          "input": 21,
          "output": 77,
          "interpolation": "LINEAR"
        },
        {
          "input": 21,
          "output": 78,
          "interpolation": "LINEAR"
        },
        {
          "input": 21,
          "output": 79,
          "interpolation": "LINEAR"
        },
        {
          "input": 21,
          "output": 80,
          "interpolation": "LINEAR"
        },
        {
          "input": 21,
          "output": 81,
          "interpolation": "LINEAR"
        },
        {
          "input": 21,
          "output": 82,
          "interpolation": "LINEAR"
        },
        {
          "input": 21,
          "output": 83,
          "interpolation": "LINEAR"
        },
        {
          "input": 21,
          "output": 84,
          "interpolation": "LINEAR"
        },
        {
          "input": 21,
          "output": 85,
          "interpolation": "LINEAR"
        },
        {
          "input": 21,
          "output": 86,
          "interpolation": "LINEAR"
        },
        {
          "input": 21,
          "output": 87,
          "interpolation": "LINEAR"
        },
        {
          "input": 21,
          "output": 88,
          "interpolation": "LINEAR"
        },
        {
          "input": 21,
          "output": 89,
          "interpolation": "LINEAR"
        },
        {
          "input": 21,
          "output": 90,
          "interpolation": "LINEAR"
        },
        {
          "input": 21,
          "output": 91,
          "interpolation": "LINEAR"
        },
        {
          "input": 21,
          "output": 92,
          "interpolation": "LINEAR"
        },
        {
          "input": 21,
          "output": 93,
          "interpolation": "LINEAR"
        },
        {
          "input": 21,
          "output": 94,
          "interpolation": "LINEAR"
        },
        {
          "input": 21,
          "output": 95,
          "interpolation": "LINEAR"
        },
        {
          "input": 21,
          "output": 96,
          "interpolation": "LINEAR"
        },
        {
          "input": 21,
          "output": 97,
          "interpolation": "LINEAR"
        },
        {
          "input": 21,
          "output": 98,
          "interpolation": "LINEAR"
        },
        {
          "input": 21,
          "output": 99,
          "interpolation": "LINEAR"
        },
        {
          "input": 21,
          "output": 100,
          "interpolation": "LINEAR"
        },
        {
          "input": 21,
          "output": 101,
          "interpolation": "LINEAR"
        },
        {
          "input": 21,
          "output": 102,
          "interpolation": "LINEAR"
        },
        {
          "input": 21,
          "output": 103,
          "interpolation": "LINEAR"
        },
        {
          "input": 21,
          "output": 104,
          "interpolation": "LINEAR"
        },
        {
          "input": 21,
          "output": 105,
          "interpolation": "LINEAR"
        },
        {
          "input": 21,
          "output": 106,
          "interpolation": "LINEAR"
        },
        {
          "input": 21,
          "output": 107,
          "interpolation": "LINEAR"
        },
        {
          "input": 21,
          "output": 108,
          "interpolation": "LINEAR"
        },
        {
          "input": 21,
          "output": 109,
          "interpolation": "LINEAR"
        },
        {
          "input": 21,
          "output": 110,
          "interpolation": "LINEAR"
        },
        {
          "input": 21,
          "output": 111,
          "interpolation": "LINEAR"
        },
        {
          "input": 21,
          "output": 112,
          "interpolation": "LINEAR"
        },
        {
          "input": 21,
          "output": 113,
          "interpolation": "LINEAR"
        },
        {
          "input": 21,
          "output": 114,
          "interpolation": "LINEAR"
        },
        {
          "input": 21,
          "output": 115,
          "interpolation": "LINEAR"
        },
        {
          "input": 21,
          "output": 116,
          "interpolation": "LINEAR"
        },
        {
          "input": 21,
          "output": 117,
          "interpolation": "LINEAR"
        },
        {
          "input": 21,
          "output": 118,
          "interpolation": "LINEAR"
        },
        {
          "input": 21,
          "output": 119,
          "interpolation": "LINEAR"
        },
        {
          "input": 21,
          "output": 120,
          "interpolation": "LINEAR"
        },
        {
          "input": 21,
          "output": 121,
          "interpolation": "LINEAR"
        },
        {
          "input": 21,
          "output": 122,
          "interpolation": "LINEAR"
        },
        {
          "input": 21,
          "output": 123,
          "interpolation": "LINEAR"
        },
        {
          "input": 21,
          "output": 124,
          "interpolation": "LINEAR"
        },
        {
          "input": 21,
          "output": 125,
          "interpolation": "LINEAR"
        }
      ]
    }
  ],
  "bufferViews": [
    {
      "name": "mesh_indexes_character_neutral_death",
      "buffer": 0,
      "byteOffset": 0,
      "byteLength": 38352,
      "target": 34963
    },
    {
      "name": "mesh_vertexes_character_neutral_death",
      "buffer": 0,
      "byteOffset": 38352,
      "byteLength": 102700,
      "byteStride": 52,
      "target": 34962
    },
    {
      "name": "mesh_bones_character_neutral_death",
      "buffer": 0,
      "byteOffset": 141052,
      "byteLength": 2304
    },
    {
      "name": "mesh_indexes_weapon_neutral_death",
      "buffer": 0,
      "byteOffset": 143356,
      "byteLength": 2328,
      "target": 34963
    },
    {
      "name": "mesh_vertexes_weapon_neutral_death",
      "buffer": 0,
      "byteOffset": 145684,
      "byteLength": 9880,
      "byteStride": 52,
      "target": 34962
    },
    {
      "name": "mesh_bones_weapon_neutral_death",
      "buffer": 0,
      "byteOffset": 155564,
      "byteLength": 64
    },
    {
      "name": "mesh_indexes_character_neutral_death_alpha",
      "buffer": 0,
      "byteOffset": 155628,
      "byteLength": 3252,
      "target": 34963
    },
    {
      "name": "mesh_vertexes_character_neutral_death_alpha",
      "buffer": 0,
      "byteOffset": 158880,
      "byteLength": 11596,
      "byteStride": 52,
      "target": 34962
    },
    {
      "name": "mesh_bones_character_neutral_death_alpha",
      "buffer": 0,
      "byteOffset": 170476,
      "byteLength": 448
    },
    {
      "name": "frames",
      "buffer": 0,
      "byteOffset": 170924,
      "byteLength": 1276
    },
    {
      "name": "bones_rotate",
      "buffer": 0,
      "byteOffset": 172200,
      "byteLength": 265408
    },
    {
      "name": "bones_translate",
      "buffer": 0,
      "byteOffset": 437608,
      "byteLength": 199056
    }
  ],
  "buffers": [
    {
      "uri": "character_neutrals_death.bin",
      "byteLength": 636664
    }
  ],
  "images": [
    {
      "uri": "character_neutrals_death.dds"
    },
    {
      "uri": "weapon_neutrals_death.dds"
    },
    {
      "uri": "character_neutrals_death_alpha.dds"
    }
  ],
  "textures": [
    {
      "source": 0
    },
    {
      "source": 1
    },
    {
      "source": 2
    }
  ],
  "materials": [
    {
      "name": "material0",
      "alphaMode": "MASK",
      "pbrMetallicRoughness": {
        "baseColorTexture": {
          "index": 0,
          "texCoord": 0
        },
        "metallicFactor": 0.0
      },
      "emissiveFactor": [
        0.0,
        0.0,
        0.0
      ]
    },
    {
      "name": "material1",
      "alphaMode": "MASK",
      "pbrMetallicRoughness": {
        "baseColorTexture": {
          "index": 1,
          "texCoord": 0
        },
        "metallicFactor": 0.0
      },
      "emissiveFactor": [
        0.0,
        0.0,
        0.0
      ]
    },
    {
      "name": "material2",
      "alphaMode": "MASK",
      "pbrMetallicRoughness": {
        "baseColorTexture": {
          "index": 2,
          "texCoord": 0
        },
        "metallicFactor": 0.0
      },
      "emissiveFactor": [
        0.0,
        0.0,
        0.0
      ]
    }
  ]
}