{
  "asset": {
    "version": "2.0",
    "generator": "generated with dis3tool v1.1 by root.ext@gmail.com"
  },
  "scenes": [
    {
      "nodes": [
        0,
        1,
        2,
        3,
        4,
        5
      ]
    }
  ],
  "scene": 0,
  "nodes": [
    {
      "name": "empire_priestess_alpha",
      "mesh": 0,
      "skin": 0
    },
    {
      "name": "empire_priestess_skirt",
      "mesh": 1
    },
    {
      "name": "empire_priestess",
      "mesh": 2,
      "skin": 1
    },
    {
      "name": "empire_priestess_face",
      "mesh": 3,
      "skin": 2
    },
    {
      "name": "empire_priestess_prop",
      "mesh": 4
    },
    {
      "name": "Root",
      "rotation": [
        0.0,
        2.328291E-10,
        0.0,
        1.0
      ],
      "translation": [
        0.0,
        0.0,
        0.0
      ],
      "children": [
        6
      ]
    },
    {
      "name": "Hips",
      "rotation": [
        -0.444089979,
        -0.486401,
        0.470721662,
        0.587042868
      ],
      "translation": [
        -0.0144191114,
        0.944492459,
        0.158922762
      ],
      "children": [
        7,
        41,
        44
      ]
    },
    {
      "name": "Spine",
      "rotation": [
        -0.04528037,
        -0.0385005958,
        -0.03901362,
        0.9974694
      ],
      "translation": [
        0.102310285,
        1.41851393E-08,
        -1.37934189E-08
      ],
      "children": [
        8
      ]
    },
    {
      "name": "Spine1",
      "rotation": [
        -0.0181157552,
        -0.0212465916,
        0.0482023545,
        0.9984472
      ],
      "translation": [
        0.174872309,
        -1.70182624E-08,
        4.199911E-09
      ],
      "children": [
        9,
        13,
        27
      ]
    },
    {
      "name": "Neck",
      "rotation": [
        0.690523863,
        0.118364893,
        0.140571773,
        0.6995754
      ],
      "translation": [
        0.278411567,
        1.5881588E-07,
        8.74788963E-10
      ],
      "children": [
        10
      ]
    },
    {
      "name": "Head",
      "rotation": [
        -0.00169111916,
        -0.0151024507,
        -0.0215880536,
        0.999651432
      ],
      "translation": [
        0.0493850522,
        -0.00292785885,
        -0.00492827268
      ],
      "children": [
        11,
        12
      ]
    },
    {
      "name": "Veko_up",
      "rotation": [
        0.001624816,
        0.5651797,
        -0.00409360463,
        0.824956059
      ],
      "translation": [
        0.0846697241,
        0.003018652,
        -0.0610312223
      ]
    },
    {
      "name": "Veko_down",
      "rotation": [
        0.000333042437,
        0.7461452,
        -0.005511614,
        0.665760458
      ],
      "translation": [
        0.0814396441,
        0.00304474426,
        -0.0619057938
      ]
    },
    {
      "name": "LeftShoulder",
      "rotation": [
        0.05937125,
        0.8212289,
        0.197241336,
        0.5321215
      ],
      "translation": [
        0.248619124,
        -0.0142719913,
        -0.0502397381
      ],
      "children": [
        14
      ]
    },
    {
      "name": "LeftArm",
      "rotation": [
        -0.242050633,
        0.411022455,
        0.238302678,
        0.845981
      ],
      "translation": [
        0.119738445,
        1.81464841E-07,
        -1.07606468E-06
      ],
      "children": [
        15
      ]
    },
    {
      "name": "LeftForeArm",
      "rotation": [
        -0.197744757,
        -0.106086418,
        0.418055683,
        0.8802682
      ],
      "translation": [
        0.2433525,
        -1.51926841E-07,
        1.78691948E-06
      ],
      "children": [
        16
      ]
    },
    {
      "name": "LeftHand",
      "rotation": [
        -0.00154191733,
        0.201343551,
        0.0720794946,
        0.976863861
      ],
      "translation": [
        0.236949652,
        -6.861258E-08,
        -7.496901E-08
      ],
      "children": [
        17,
        19,
        21,
        23,
        25
      ]
    },
    {
      "name": "LeftHandThumb1",
      "rotation": [
        -0.0219033714,
        0.110291,
        0.191102669,
        0.9751082
      ],
      "translation": [
        0.0222751182,
        0.0214547366,
        -0.001455366
      ],
      "children": [
        18
      ]
    },
    {
      "name": "LeftHandThumb2",
      "rotation": [
        0.09277271,
        -0.009980665,
        -0.28618747,
        0.953619659
      ],
      "translation": [
        0.05882929,
        9.34221E-08,
        6.445347E-08
      ]
    },
    {
      "name": "LeftHandIndex1",
      "rotation": [
        0.6753538,
        -0.00349603081,
        -0.05216118,
        0.735638738
      ],
      "translation": [
        0.07593168,
        0.0275096651,
        0.00261228927
      ],
      "children": [
        20
      ]
    },
    {
      "name": "LeftHandIndex2",
      "rotation": [
        -0.0116865188,
        0.0118355546,
        -0.152722731,
        0.988129139
      ],
      "translation": [
        0.04531589,
        -3.10251824E-09,
        1.17911219E-08
      ]
    },
    {
      "name": "LeftHandMiddle1",
      "rotation": [
        0.7231321,
        0.0515410751,
        -0.07219913,
        0.68498975
      ],
      "translation": [
        0.08215608,
        0.008523682,
        0.00401937
      ],
      "children": [
        22
      ]
    },
    {
      "name": "LeftHandMiddle2",
      "rotation": [
        -0.0172203742,
        -0.009084511,
        -0.290415853,
        0.95670253
      ],
      "translation": [
        0.04691882,
        -1.25777134E-07,
        5.992696E-08
      ]
    },
    {
      "name": "LeftHandRing1",
      "rotation": [
        0.7491985,
        0.0642560646,
        -0.05013689,
        0.6573121
      ],
      "translation": [
        0.08415436,
        -0.0102567133,
        0.00170097861
      ],
      "children": [
        24
      ]
    },
    {
      "name": "LeftHandRing2",
      "rotation": [
        -0.03410386,
        -0.01581562,
        -0.247306839,
        0.968207657
      ],
      "translation": [
        0.040181607,
        1.55290465E-07,
        -1.00104614E-07
      ]
    },
    {
      "name": "LeftHandPinky1",
      "rotation": [
        0.7730531,
        -0.000321452739,
        0.0440919623,
        0.6328072
      ],
      "translation": [
        0.0832134038,
        -0.02900321,
        -0.009590277
      ],
      "children": [
        26
      ]
    },
    {
      "name": "LeftHandPinky2",
      "rotation": [
        0.0267260317,
        -0.0180621,
        -0.429718226,
        0.902386665
      ],
      "translation": [
        0.0334343128,
        5.921875E-09,
        -2.492591E-08
      ]
    },
    {
      "name": "RightShoulder",
      "rotation": [
        -0.0294606667,
        -0.8330891,
        0.161877632,
        0.5281001
      ],
      "translation": [
        0.2482123,
        -0.0143771293,
        0.0497593321
      ],
      "children": [
        28
      ]
    },
    {
      "name": "RightArm",
      "rotation": [
        0.203403637,
        -0.3344484,
        0.2530973,
        0.88471055
      ],
      "translation": [
        0.119738489,
        4.43794468E-09,
        1.19634024E-06
      ],
      "children": [
        29
      ]
    },
    {
      "name": "RightForeArm",
      "rotation": [
        0.1307099,
        -0.0195900314,
        0.4683511,
        0.8736006
      ],
      "translation": [
        0.243352264,
        -5.10953555E-08,
        -1.820048E-06
      ],
      "children": [
        30
      ]
    },
    {
      "name": "RightHand",
      "rotation": [
        0.00163656974,
        -0.141925335,
        0.0220966283,
        0.989629149
      ],
      "translation": [
        0.236949474,
        -1.94485033E-08,
        2.19710785E-07
      ],
      "children": [
        31,
        33,
        35,
        37,
        39
      ]
    },
    {
      "name": "RightHandThumb1",
      "rotation": [
        0.271763265,
        -0.03935274,
        0.216684669,
        0.9368264
      ],
      "translation": [
        0.0222751535,
        0.0214546472,
        0.00145511318
      ],
      "children": [
        32
      ]
    },
    {
      "name": "RightHandThumb2",
      "rotation": [
        -0.09158706,
        -0.0500506051,
        -0.119655862,
        0.987314165
      ],
      "translation": [
        0.0588293448,
        -1.86713454E-08,
        -2.67132227E-09
      ]
    },
    {
      "name": "RightHandIndex1",
      "rotation": [
        -0.6591651,
        -0.121694162,
        -0.16112496,
        0.724382639
      ],
      "translation": [
        0.0759317353,
        0.0275095142,
        -0.00261225738
      ],
      "children": [
        34
      ]
    },
    {
      "name": "RightHandIndex2",
      "rotation": [
        0.0113143958,
        -0.0181172527,
        -0.199205756,
        0.9797248
      ],
      "translation": [
        0.0453159325,
        -3.706377E-08,
        -1.45466341E-08
      ]
    },
    {
      "name": "RightHandMiddle1",
      "rotation": [
        -0.688677669,
        -0.214912385,
        -0.2367906,
        0.650742054
      ],
      "translation": [
        0.08215604,
        0.008523722,
        -0.00401945552
      ],
      "children": [
        36
      ]
    },
    {
      "name": "RightHandMiddle2",
      "rotation": [
        0.0177637544,
        0.0113958931,
        -0.277960449,
        0.9603606
      ],
      "translation": [
        0.0469190478,
        5.93098655E-08,
        -4.6438E-08
      ]
    },
    {
      "name": "RightHandRing1",
      "rotation": [
        -0.7070475,
        -0.269534677,
        -0.242372409,
        0.607198238
      ],
      "translation": [
        0.08415449,
        -0.0102568259,
        -0.00170088338
      ],
      "children": [
        38
      ]
    },
    {
      "name": "RightHandRing2",
      "rotation": [
        0.03301973,
        0.0240268279,
        -0.3220454,
        0.9458429
      ],
      "translation": [
        0.0401818119,
        1.21602625E-07,
        2.26002577E-08
      ]
    },
    {
      "name": "RightHandPinky1",
      "rotation": [
        -0.715656,
        -0.293490261,
        -0.249383926,
        0.5826722
      ],
      "translation": [
        0.08321336,
        -0.0290032849,
        0.00959035847
      ],
      "children": [
        40
      ]
    },
    {
      "name": "RightHandPinky2",
      "rotation": [
        -0.0265315883,
        0.0378607847,
        -0.381837964,
        0.9230723
      ],
      "translation": [
        0.0334344171,
        -1.45528034E-07,
        2.75131278E-08
      ]
    },
    {
      "name": "RightUpLeg",
      "rotation": [
        -0.0783657953,
        0.9930032,
        -0.0328737535,
        0.08199249
      ],
      "translation": [
        0.004210397,
        0.00181899744,
        0.105098478
      ],
      "children": [
        42
      ]
    },
    {
      "name": "RightLeg",
      "rotation": [
        -0.08443232,
        0.00678385235,
        -0.08407636,
        0.9928525
      ],
      "translation": [
        0.441570967,
        -1.29140378E-08,
        -4.48280133E-07
      ],
      "children": [
        43
      ]
    },
    {
      "name": "RightFoot",
      "rotation": [
        0.0312022045,
        0.08110321,
        0.54861474,
        0.831546962
      ],
      "translation": [
        0.4262748,
        9.534307E-11,
        -1.32591452E-07
      ]
    },
    {
      "name": "LeftUpLeg",
      "rotation": [
        0.130406976,
        0.9825661,
        -0.1323783,
        -0.00581349945
      ],
      "translation": [
        0.00421058852,
        0.00181899406,
        -0.107901484
      ],
      "children": [
        45
      ]
    },
    {
      "name": "LeftLeg",
      "rotation": [
        -0.07157978,
        -0.06174496,
        -0.321362644,
        0.942226052
      ],
      "translation": [
        0.441570938,
        8.632793E-08,
        2.78935147E-07
      ],
      "children": [
        46
      ]
    },
    {
      "name": "LeftFoot",
      "rotation": [
        -0.0339091346,
        -0.0937216654,
        0.462340862,
        0.881083
      ],
      "translation": [
        0.426274985,
        -6.52059828E-09,
        1.21855976E-07
      ]
    }
  ],
  "accessors": [
    {
      "bufferView": 0,
      "byteOffset": 0,
      "componentType": 5125,
      "count": 240,
      "type": "SCALAR"
    },
    {
      "bufferView": 1,
      "byteOffset": 0,
      "componentType": 5126,
      "count": 72,
      "type": "VEC3",
      "min": [
        -0.0478015877,
        1.624798,
        -0.07377929
      ],
      "max": [
        0.0478015877,
        1.6455915,
        -0.05659912
      ]
    },
    {
      "bufferView": 1,
      "byteOffset": 12,
      "componentType": 5126,
      "count": 72,
      "type": "VEC3"
    },
    {
      "bufferView": 1,
      "byteOffset": 24,
      "componentType": 5126,
      "count": 72,
      "type": "VEC2"
    },
    {
      "bufferView": 1,
      "byteOffset": 32,
      "componentType": 5126,
      "count": 72,
      "type": "VEC4"
    },
    {
      "bufferView": 1,
      "byteOffset": 48,
      "componentType": 5121,
      "count": 72,
      "type": "VEC4"
    },
    {
      "bufferView": 2,
      "byteOffset": 0,
      "componentType": 5126,
      "count": 3,
      "type": "MAT4"
    },
    {
      "bufferView": 3,
      "byteOffset": 0,
      "componentType": 5125,
      "count": 2544,
      "type": "SCALAR"
    },
    {
      "bufferView": 4,
      "byteOffset": 0,
      "componentType": 5126,
      "count": 508,
      "type": "VEC3",
      "min": [
        0.0,
        0.0,
        0.0
      ],
      "max": [
        0.0,
        0.0,
        0.0
      ]
    },
    {
      "bufferView": 4,
      "byteOffset": 12,
      "componentType": 5126,
      "count": 508,
      "type": "VEC3"
    },
    {
      "bufferView": 4,
      "byteOffset": 24,
      "componentType": 5126,
      "count": 508,
      "type": "VEC2"
    },
    {
      "bufferView": 5,
      "byteOffset": 0,
      "componentType": 5125,
      "count": 9681,
      "type": "SCALAR"
    },
    {
      "bufferView": 6,
      "byteOffset": 0,
      "componentType": 5126,
      "count": 2552,
      "type": "VEC3",
      "min": [
        -0.70868504,
        -0.00279275584,
        -0.226748034
      ],
      "max": [
        0.7086848,
        1.823996,
        0.12612243
      ]
    },
    {
      "bufferView": 6,
      "byteOffset": 12,
      "componentType": 5126,
      "count": 2552,
      "type": "VEC3"
    },
    {
      "bufferView": 6,
      "byteOffset": 24,
      "componentType": 5126,
      "count": 2552,
      "type": "VEC2"
    },
    {
      "bufferView": 6,
      "byteOffset": 32,
      "componentType": 5126,
      "count": 2552,
      "type": "VEC4"
    },
    {
      "bufferView": 6,
      "byteOffset": 48,
      "componentType": 5121,
      "count": 2552,
      "type": "VEC4"
    },
    {
      "bufferView": 7,
      "byteOffset": 0,
      "componentType": 5126,
      "count": 39,
      "type": "MAT4"
    },
    {
      "bufferView": 8,
      "byteOffset": 0,
      "componentType": 5125,
      "count": 3795,
      "type": "SCALAR"
    },
    {
      "bufferView": 9,
      "byteOffset": 0,
      "componentType": 5126,
      "count": 789,
      "type": "VEC3",
      "min": [
        -0.06728777,
        1.51234782,
        -0.10286735
      ],
      "max": [
        0.0670139939,
        1.67722106,
        0.06497353
      ]
    },
    {
      "bufferView": 9,
      "byteOffset": 12,
      "componentType": 5126,
      "count": 789,
      "type": "VEC3"
    },
    {
      "bufferView": 9,
      "byteOffset": 24,
      "componentType": 5126,
      "count": 789,
      "type": "VEC2"
    },
    {
      "bufferView": 9,
      "byteOffset": 32,
      "componentType": 5126,
      "count": 789,
      "type": "VEC4"
    },
    {
      "bufferView": 9,
      "byteOffset": 48,
      "componentType": 5121,
      "count": 789,
      "type": "VEC4"
    },
    {
      "bufferView": 10,
      "byteOffset": 0,
      "componentType": 5126,
      "count": 5,
      "type": "MAT4"
    },
    {
      "bufferView": 11,
      "byteOffset": 0,
      "componentType": 5125,
      "count": 60,
      "type": "SCALAR"
    },
    {
      "bufferView": 12,
      "byteOffset": 0,
      "componentType": 5126,
      "count": 24,
      "type": "VEC3",
      "min": [
        0.0,
        0.0,
        0.0
      ],
      "max": [
        0.0,
        0.0,
        0.0
      ]
    },
    {
      "bufferView": 12,
      "byteOffset": 12,
      "componentType": 5126,
      "count": 24,
      "type": "VEC3"
    },
    {
      "bufferView": 12,
      "byteOffset": 24,
      "componentType": 5126,
      "count": 24,
      "type": "VEC2"
    },
    {
      "bufferView": 13,
      "byteOffset": 0,
      "componentType": 5126,
      "count": 296,
      "type": "SCALAR",
      "min": [
        0.0
      ],
      "max": [
        9.833334
      ]
    },
    {
      "bufferView": 14,
      "byteOffset": 0,
      "componentType": 5126,
      "count": 296,
      "type": "VEC4"
    },
    {
      "bufferView": 15,
      "byteOffset": 0,
      "componentType": 5126,
      "count": 296,
      "type": "VEC3"
    },
    {
      "bufferView": 14,
      "byteOffset": 4736,
      "componentType": 5126,
      "count": 296,
      "type": "VEC4"
    },
    {
      "bufferView": 15,
      "byteOffset": 3552,
      "componentType": 5126,
      "count": 296,
      "type": "VEC3"
    },
    {
      "bufferView": 14,
      "byteOffset": 9472,
      "componentType": 5126,
      "count": 296,
      "type": "VEC4"
    },
    {
      "bufferView": 15,
      "byteOffset": 7104,
      "componentType": 5126,
      "count": 296,
      "type": "VEC3"
    },
    {
      "bufferView": 14,
      "byteOffset": 14208,
      "componentType": 5126,
      "count": 296,
      "type": "VEC4"
    },
    {
      "bufferView": 15,
      "byteOffset": 10656,
      "componentType": 5126,
      "count": 296,
      "type": "VEC3"
    },
    {
      "bufferView": 14,
      "byteOffset": 18944,
      "componentType": 5126,
      "count": 296,
      "type": "VEC4"
    },
    {
      "bufferView": 15,
      "byteOffset": 14208,
      "componentType": 5126,
      "count": 296,
      "type": "VEC3"
    },
    {
      "bufferView": 14,
      "byteOffset": 23680,
      "componentType": 5126,
      "count": 296,
      "type": "VEC4"
    },
    {
      "bufferView": 15,
      "byteOffset": 17760,
      "componentType": 5126,
      "count": 296,
      "type": "VEC3"
    },
    {
      "bufferView": 14,
      "byteOffset": 28416,
      "componentType": 5126,
      "count": 296,
      "type": "VEC4"
    },
    {
      "bufferView": 15,
      "byteOffset": 21312,
      "componentType": 5126,
      "count": 296,
      "type": "VEC3"
    },
    {
      "bufferView": 14,
      "byteOffset": 33152,
      "componentType": 5126,
      "count": 296,
      "type": "VEC4"
    },
    {
      "bufferView": 15,
      "byteOffset": 24864,
      "componentType": 5126,
      "count": 296,
      "type": "VEC3"
    },
    {
      "bufferView": 14,
      "byteOffset": 37888,
      "componentType": 5126,
      "count": 296,
      "type": "VEC4"
    },
    {
      "bufferView": 15,
      "byteOffset": 28416,
      "componentType": 5126,
      "count": 296,
      "type": "VEC3"
    },
    {
      "bufferView": 14,
      "byteOffset": 42624,
      "componentType": 5126,
      "count": 296,
      "type": "VEC4"
    },
    {
      "bufferView": 15,
      "byteOffset": 31968,
      "componentType": 5126,
      "count": 296,
      "type": "VEC3"
    },
    {
      "bufferView": 14,
      "byteOffset": 47360,
      "componentType": 5126,
      "count": 296,
      "type": "VEC4"
    },
    {
      "bufferView": 15,
      "byteOffset": 35520,
      "componentType": 5126,
      "count": 296,
      "type": "VEC3"
    },
    {
      "bufferView": 14,
      "byteOffset": 52096,
      "componentType": 5126,
      "count": 296,
      "type": "VEC4"
    },
    {
      "bufferView": 15,
      "byteOffset": 39072,
      "componentType": 5126,
      "count": 296,
      "type": "VEC3"
    },
    {
      "bufferView": 14,
      "byteOffset": 56832,
      "componentType": 5126,
      "count": 296,
      "type": "VEC4"
    },
    {
      "bufferView": 15,
      "byteOffset": 42624,
      "componentType": 5126,
      "count": 296,
      "type": "VEC3"
    },
    {
      "bufferView": 14,
      "byteOffset": 61568,
      "componentType": 5126,
      "count": 296,
      "type": "VEC4"
    },
    {
      "bufferView": 15,
      "byteOffset": 46176,
      "componentType": 5126,
      "count": 296,
      "type": "VEC3"
    },
    {
      "bufferView": 14,
      "byteOffset": 66304,
      "componentType": 5126,
      "count": 296,
      "type": "VEC4"
    },
    {
      "bufferView": 15,
      "byteOffset": 49728,
      "componentType": 5126,
      "count": 296,
      "type": "VEC3"
    },
    {
      "bufferView": 14,
      "byteOffset": 71040,
      "componentType": 5126,
      "count": 296,
      "type": "VEC4"
    },
    {
      "bufferView": 15,
      "byteOffset": 53280,
      "componentType": 5126,
      "count": 296,
      "type": "VEC3"
    },
    {
      "bufferView": 14,
      "byteOffset": 75776,
      "componentType": 5126,
      "count": 296,
      "type": "VEC4"
    },
    {
      "bufferView": 15,
      "byteOffset": 56832,
      "componentType": 5126,
      "count": 296,
      "type": "VEC3"
    },
    {
      "bufferView": 14,
      "byteOffset": 80512,
      "componentType": 5126,
      "count": 296,
      "type": "VEC4"
    },
    {
      "bufferView": 15,
      "byteOffset": 60384,
      "componentType": 5126,
      "count": 296,
      "type": "VEC3"
    },
    {
      "bufferView": 14,
      "byteOffset": 85248,
      "componentType": 5126,
      "count": 296,
      "type": "VEC4"
    },
    {
      "bufferView": 15,
      "byteOffset": 63936,
      "componentType": 5126,
      "count": 296,
      "type": "VEC3"
    },
    {
      "bufferView": 14,
      "byteOffset": 89984,
      "componentType": 5126,
      "count": 296,
      "type": "VEC4"
    },
    {
      "bufferView": 15,
      "byteOffset": 67488,
      "componentType": 5126,
      "count": 296,
      "type": "VEC3"
    },
    {
      "bufferView": 14,
      "byteOffset": 94720,
      "componentType": 5126,
      "count": 296,
      "type": "VEC4"
    },
    {
      "bufferView": 15,
      "byteOffset": 71040,
      "componentType": 5126,
      "count": 296,
      "type": "VEC3"
    },
    {
      "bufferView": 14,
      "byteOffset": 99456,
      "componentType": 5126,
      "count": 296,
      "type": "VEC4"
    },
    {
      "bufferView": 15,
      "byteOffset": 74592,
      "componentType": 5126,
      "count": 296,
      "type": "VEC3"
    },
    {
      "bufferView": 14,
      "byteOffset": 104192,
      "componentType": 5126,
      "count": 296,
      "type": "VEC4"
    },
    {
      "bufferView": 15,
      "byteOffset": 78144,
      "componentType": 5126,
      "count": 296,
      "type": "VEC3"
    },
    {
      "bufferView": 14,
      "byteOffset": 108928,
      "componentType": 5126,
      "count": 296,
      "type": "VEC4"
    },
    {
      "bufferView": 15,
      "byteOffset": 81696,
      "componentType": 5126,
      "count": 296,
      "type": "VEC3"
    },
    {
      "bufferView": 14,
      "byteOffset": 113664,
      "componentType": 5126,
      "count": 296,
      "type": "VEC4"
    },
    {
      "bufferView": 15,
      "byteOffset": 85248,
      "componentType": 5126,
      "count": 296,
      "type": "VEC3"
    },
    {
      "bufferView": 14,
      "byteOffset": 118400,
      "componentType": 5126,
      "count": 296,
      "type": "VEC4"
    },
    {
      "bufferView": 15,
      "byteOffset": 88800,
      "componentType": 5126,
      "count": 296,
      "type": "VEC3"
    },
    {
      "bufferView": 14,
      "byteOffset": 123136,
      "componentType": 5126,
      "count": 296,
      "type": "VEC4"
    },
    {
      "bufferView": 15,
      "byteOffset": 92352,
      "componentType": 5126,
      "count": 296,
      "type": "VEC3"
    },
    {
      "bufferView": 14,
      "byteOffset": 127872,
      "componentType": 5126,
      "count": 296,
      "type": "VEC4"
    },
    {
      "bufferView": 15,
      "byteOffset": 95904,
      "componentType": 5126,
      "count": 296,
      "type": "VEC3"
    },
    {
      "bufferView": 14,
      "byteOffset": 132608,
      "componentType": 5126,
      "count": 296,
      "type": "VEC4"
    },
    {
      "bufferView": 15,
      "byteOffset": 99456,
      "componentType": 5126,
      "count": 296,
      "type": "VEC3"
    },
    {
      "bufferView": 14,
      "byteOffset": 137344,
      "componentType": 5126,
      "count": 296,
      "type": "VEC4"
    },
    {
      "bufferView": 15,
      "byteOffset": 103008,
      "componentType": 5126,
      "count": 296,
      "type": "VEC3"
    },
    {
      "bufferView": 14,
      "byteOffset": 142080,
      "componentType": 5126,
      "count": 296,
      "type": "VEC4"
    },
    {
      "bufferView": 15,
      "byteOffset": 106560,
      "componentType": 5126,
      "count": 296,
      "type": "VEC3"
    },
    {
      "bufferView": 14,
      "byteOffset": 146816,
      "componentType": 5126,
      "count": 296,
      "type": "VEC4"
    },
    {
      "bufferView": 15,
      "byteOffset": 110112,
      "componentType": 5126,
      "count": 296,
      "type": "VEC3"
    },
    {
      "bufferView": 14,
      "byteOffset": 151552,
      "componentType": 5126,
      "count": 296,
      "type": "VEC4"
    },
    {
      "bufferView": 15,
      "byteOffset": 113664,
      "componentType": 5126,
      "count": 296,
      "type": "VEC3"
    },
    {
      "bufferView": 14,
      "byteOffset": 156288,
      "componentType": 5126,
      "count": 296,
      "type": "VEC4"
    },
    {
      "bufferView": 15,
      "byteOffset": 117216,
      "componentType": 5126,
      "count": 296,
      "type": "VEC3"
    },
    {
      "bufferView": 14,
      "byteOffset": 161024,
      "componentType": 5126,
      "count": 296,
      "type": "VEC4"
    },
    {
      "bufferView": 15,
      "byteOffset": 120768,
      "componentType": 5126,
      "count": 296,
      "type": "VEC3"
    },
    {
      "bufferView": 14,
      "byteOffset": 165760,
      "componentType": 5126,
      "count": 296,
      "type": "VEC4"
    },
    {
      "bufferView": 15,
      "byteOffset": 124320,
      "componentType": 5126,
      "count": 296,
      "type": "VEC3"
    },
    {
      "bufferView": 14,
      "byteOffset": 170496,
      "componentType": 5126,
      "count": 296,
      "type": "VEC4"
    },
    {
      "bufferView": 15,
      "byteOffset": 127872,
      "componentType": 5126,
      "count": 296,
      "type": "VEC3"
    },
    {
      "bufferView": 14,
      "byteOffset": 175232,
      "componentType": 5126,
      "count": 296,
      "type": "VEC4"
    },
    {
      "bufferView": 15,
      "byteOffset": 131424,
      "componentType": 5126,
      "count": 296,
      "type": "VEC3"
    },
    {
      "bufferView": 14,
      "byteOffset": 179968,
      "componentType": 5126,
      "count": 296,
      "type": "VEC4"
    },
    {
      "bufferView": 15,
      "byteOffset": 134976,
      "componentType": 5126,
      "count": 296,
      "type": "VEC3"
    },
    {
      "bufferView": 14,
      "byteOffset": 184704,
      "componentType": 5126,
      "count": 296,
      "type": "VEC4"
    },
    {
      "bufferView": 15,
      "byteOffset": 138528,
      "componentType": 5126,
      "count": 296,
      "type": "VEC3"
    },
    {
      "bufferView": 14,
      "byteOffset": 189440,
      "componentType": 5126,
      "count": 296,
      "type": "VEC4"
    },
    {
      "bufferView": 15,
      "byteOffset": 142080,
      "componentType": 5126,
      "count": 296,
      "type": "VEC3"
    },
    {
      "bufferView": 14,
      "byteOffset": 194176,
      "componentType": 5126,
      "count": 296,
      "type": "VEC4"
    },
    {
      "bufferView": 15,
      "byteOffset": 145632,
      "componentType": 5126,
      "count": 296,
      "type": "VEC3"
    },
    {
      "bufferView": 16,
      "byteOffset": 0,
      "componentType": 5126,
      "count": 508,
      "type": "VEC3",
      "min": [
        -0.355181068,
        0.0103327082,
        -0.187368616
      ],
      "max": [
        0.510685861,
        0.9703786,
        0.6931659
      ]
    },
    {
      "bufferView": 17,
      "byteOffset": 0,
      "componentType": 5126,
      "count": 508,
      "type": "VEC3",
      "min": [
        -0.42809248,
        0.088818036,
        -0.262032151
      ],
      "max": [
        0.5124878,
        0.988876939,
        0.628514349
      ]
    },
    {
      "bufferView": 18,
      "byteOffset": 0,
      "componentType": 5126,
      "count": 508,
      "type": "VEC3",
      "min": [
        -0.5232413,
        0.101256788,
        -0.338249773
      ],
      "max": [
        0.466773182,
        1.06838632,
        0.468533546
      ]
    },
    {
      "bufferView": 19,
      "byteOffset": 0,
      "componentType": 5126,
      "count": 508,
      "type": "VEC3",
      "min": [
        -0.472012937,
        0.1080741,
        -0.445050418
      ],
      "max": [
        0.395304322,
        1.064844,
        0.4881252
      ]
    },
    {
      "bufferView": 20,
      "byteOffset": 0,
      "componentType": 5126,
      "count": 508,
      "type": "VEC3",
      "min": [
        -0.4040779,
        0.09199789,
        -0.5293372
      ],
      "max": [
        0.357946277,
        1.02477765,
        0.501104236
      ]
    },
    {
      "bufferView": 21,
      "byteOffset": 0,
      "componentType": 5126,
      "count": 508,
      "type": "VEC3",
      "min": [
        -0.368027627,
        0.00966681,
        -0.5747379
      ],
      "max": [
        0.354079664,
        0.9633739,
        0.498403162
      ]
    },
    {
      "bufferView": 22,
      "byteOffset": 0,
      "componentType": 5126,
      "count": 508,
      "type": "VEC3",
      "min": [
        -0.457016528,
        0.0178085137,
        -0.545279443
      ],
      "max": [
        0.2775669,
        0.994718969,
        0.5209417
      ]
    },
    {
      "bufferView": 23,
      "byteOffset": 0,
      "componentType": 5126,
      "count": 508,
      "type": "VEC3",
      "min": [
        -0.430868715,
        0.02570395,
        -0.567198038
      ],
      "max": [
        0.251940668,
        1.00756621,
        0.5475038
      ]
    },
    {
      "bufferView": 24,
      "byteOffset": 0,
      "componentType": 5126,
      "count": 508,
      "type": "VEC3",
      "min": [
        -0.356527925,
        0.08026554,
        -0.5891489
      ],
      "max": [
        0.218231231,
        1.06035459,
        0.59054786
      ]
    },
    {
      "bufferView": 25,
      "byteOffset": 0,
      "componentType": 5126,
      "count": 508,
      "type": "VEC3",
      "min": [
        -0.331338465,
        0.102892131,
        -0.605807543
      ],
      "max": [
        0.337792,
        1.04302835,
        0.5940576
      ]
    },
    {
      "bufferView": 26,
      "byteOffset": 0,
      "componentType": 5126,
      "count": 508,
      "type": "VEC3",
      "min": [
        -0.338422835,
        0.08064529,
        -0.6139127
      ],
      "max": [
        0.354615,
        1.00161111,
        0.6668434
      ]
    },
    {
      "bufferView": 27,
      "byteOffset": 0,
      "componentType": 5126,
      "count": 508,
      "type": "VEC3",
      "min": [
        -0.3475116,
        0.03569235,
        -0.620015264
      ],
      "max": [
        0.356785625,
        0.952592,
        0.728632033
      ]
    },
    {
      "bufferView": 28,
      "byteOffset": 0,
      "componentType": 5126,
      "count": 508,
      "type": "VEC3",
      "min": [
        -0.293597162,
        0.009998198,
        -0.5942748
      ],
      "max": [
        0.372121572,
        0.9717588,
        0.78443867
      ]
    },
    {
      "bufferView": 29,
      "byteOffset": 0,
      "componentType": 5126,
      "count": 508,
      "type": "VEC3",
      "min": [
        -0.235182658,
        0.0127251334,
        -0.5173221
      ],
      "max": [
        0.43520385,
        1.00894785,
        0.7767441
      ]
    },
    {
      "bufferView": 30,
      "byteOffset": 0,
      "componentType": 5126,
      "count": 508,
      "type": "VEC3",
      "min": [
        -0.261766821,
        0.0693107843,
        -0.409690261
      ],
      "max": [
        0.521393061,
        1.06889379,
        0.7364183
      ]
    },
    {
      "bufferView": 31,
      "byteOffset": 0,
      "componentType": 5126,
      "count": 508,
      "type": "VEC3",
      "min": [
        -0.282183,
        0.117708191,
        -0.285114348
      ],
      "max": [
        0.593931,
        1.06489086,
        0.607405365
      ]
    },
    {
      "bufferView": 32,
      "byteOffset": 0,
      "componentType": 5126,
      "count": 508,
      "type": "VEC3",
      "min": [
        -0.314418554,
        0.109317079,
        -0.240801066
      ],
      "max": [
        0.61418426,
        1.02492833,
        0.581503
      ]
    },
    {
      "bufferView": 33,
      "byteOffset": 0,
      "componentType": 5126,
      "count": 508,
      "type": "VEC3",
      "min": [
        -0.360583574,
        0.07171004,
        -0.280290335
      ],
      "max": [
        0.6262287,
        0.9634425,
        0.563248634
      ]
    },
    {
      "bufferView": 34,
      "byteOffset": 0,
      "componentType": 5126,
      "count": 508,
      "type": "VEC3",
      "min": [
        -0.353477865,
        0.0358013734,
        -0.234383389
      ],
      "max": [
        0.62365216,
        0.9946396,
        0.529048443
      ]
    },
    {
      "bufferView": 35,
      "byteOffset": 0,
      "componentType": 5126,
      "count": 508,
      "type": "VEC3",
      "min": [
        -0.3615471,
        0.03634,
        -0.190104067
      ],
      "max": [
        0.6306585,
        1.0074923,
        0.531855
      ]
    },
    {
      "bufferView": 36,
      "byteOffset": 0,
      "componentType": 5126,
      "count": 508,
      "type": "VEC3",
      "min": [
        -0.389483839,
        0.0733041838,
        -0.1534512
      ],
      "max": [
        0.607115865,
        1.06039667,
        0.527028739
      ]
    },
    {
      "bufferView": 37,
      "byteOffset": 0,
      "componentType": 5126,
      "count": 508,
      "type": "VEC3",
      "min": [
        -0.416543871,
        0.08963794,
        -0.149195552
      ],
      "max": [
        0.5855997,
        1.04300082,
        0.6004211
      ]
    },
    {
      "bufferView": 38,
      "byteOffset": 0,
      "componentType": 5126,
      "count": 508,
      "type": "VEC3",
      "min": [
        -0.429662019,
        0.06424809,
        -0.174217224
      ],
      "max": [
        0.5667279,
        1.00152671,
        0.62980926
      ]
    },
    {
      "bufferView": 39,
      "byteOffset": 0,
      "componentType": 5126,
      "count": 508,
      "type": "VEC3",
      "min": [
        -0.404994339,
        0.013298816,
        -0.2176652
      ],
      "max": [
        0.5513755,
        0.952250063,
        0.674786448
      ]
    },
    {
      "bufferView": 40,
      "byteOffset": 0,
      "componentType": 5126,
      "count": 508,
      "type": "VEC3",
      "min": [
        -0.355181068,
        0.0103327082,
        -0.187368616
      ],
      "max": [
        0.510685861,
        0.9703786,
        0.6931659
      ]
    },
    {
      "bufferView": 41,
      "byteOffset": 0,
      "componentType": 5126,
      "count": 24,
      "type": "VEC3",
      "min": [
        -0.150497258,
        1.3536278,
        -0.20138067
      ],
      "max": [
        0.04867243,
        1.53345716,
        -0.09573978
      ]
    },
    {
      "bufferView": 42,
      "byteOffset": 0,
      "componentType": 5126,
      "count": 24,
      "type": "VEC3",
      "min": [
        -0.123643093,
        1.38997769,
        -0.206293657
      ],
      "max": [
        0.0556188673,
        1.56830716,
        -0.0910764262
      ]
    },
    {
      "bufferView": 43,
      "byteOffset": 0,
      "componentType": 5126,
      "count": 24,
      "type": "VEC3",
      "min": [
        -0.104526974,
        1.44445741,
        -0.21062547
      ],
      "max": [
        0.07167807,
        1.62304056,
        -0.0971729159
      ]
    },
    {
      "bufferView": 44,
      "byteOffset": 0,
      "componentType": 5126,
      "count": 24,
      "type": "VEC3",
      "min": [
        -0.103024118,
        1.44641078,
        -0.210946441
      ],
      "max": [
        0.0881901756,
        1.62261391,
        -0.0942718461
      ]
    },
    {
      "bufferView": 45,
      "byteOffset": 0,
      "componentType": 5126,
      "count": 24,
      "type": "VEC3",
      "min": [
        -0.09804771,
        1.40872633,
        -0.206264466
      ],
      "max": [
        0.101793364,
        1.58429956,
        -0.08619244
      ]
    },
    {
      "bufferView": 46,
      "byteOffset": 0,
      "componentType": 5126,
      "count": 24,
      "type": "VEC3",
      "min": [
        -0.096024394,
        1.35232985,
        -0.1871344
      ],
      "max": [
        0.11888095,
        1.52593,
        -0.0874698162
      ]
    },
    {
      "bufferView": 47,
      "byteOffset": 0,
      "componentType": 5126,
      "count": 24,
      "type": "VEC3",
      "min": [
        -0.0849782452,
        1.37415051,
        -0.192105323
      ],
      "max": [
        0.1129634,
        1.54755533,
        -0.1165216
      ]
    },
    {
      "bufferView": 48,
      "byteOffset": 0,
      "componentType": 5126,
      "count": 24,
      "type": "VEC3",
      "min": [
        -0.0929088,
        1.38795221,
        -0.20042409
      ],
      "max": [
        0.0991928056,
        1.5639379,
        -0.1261024
      ]
    },
    {
      "bufferView": 49,
      "byteOffset": 0,
      "componentType": 5126,
      "count": 24,
      "type": "VEC3",
      "min": [
        -0.105130009,
        1.435195,
        -0.221622914
      ],
      "max": [
        0.08271528,
        1.6120894,
        -0.1333743
      ]
    },
    {
      "bufferView": 50,
      "byteOffset": 0,
      "componentType": 5126,
      "count": 24,
      "type": "VEC3",
      "min": [
        -0.126512,
        1.41862786,
        -0.219304532
      ],
      "max": [
        0.06835598,
        1.59818292,
        -0.131223008
      ]
    },
    {
      "bufferView": 51,
      "byteOffset": 0,
      "componentType": 5126,
      "count": 24,
      "type": "VEC3",
      "min": [
        -0.149138063,
        1.3742131,
        -0.21006161
      ],
      "max": [
        0.0548510365,
        1.56122637,
        -0.123685777
      ]
    },
    {
      "bufferView": 52,
      "byteOffset": 0,
      "componentType": 5126,
      "count": 24,
      "type": "VEC3",
      "min": [
        -0.1700018,
        1.33553433,
        -0.198496
      ],
      "max": [
        0.04599268,
        1.51666689,
        -0.103697933
      ]
    },
    {
      "bufferView": 53,
      "byteOffset": 0,
      "componentType": 5126,
      "count": 24,
      "type": "VEC3",
      "min": [
        -0.150905341,
        1.35438621,
        -0.201391429
      ],
      "max": [
        0.0512707233,
        1.533539,
        -0.09334779
      ]
    },
    {
      "bufferView": 54,
      "byteOffset": 0,
      "componentType": 5126,
      "count": 24,
      "type": "VEC3",
      "min": [
        -0.122835644,
        1.389544,
        -0.206556261
      ],
      "max": [
        0.0557074957,
        1.567155,
        -0.0911177
      ]
    },
    {
      "bufferView": 55,
      "byteOffset": 0,
      "componentType": 5126,
      "count": 24,
      "type": "VEC3",
      "min": [
        -0.103955731,
        1.44419825,
        -0.210673958
      ],
      "max": [
        0.07234458,
        1.62297082,
        -0.102274768
      ]
    },
    {
      "bufferView": 56,
      "byteOffset": 0,
      "componentType": 5126,
      "count": 24,
      "type": "VEC3",
      "min": [
        -0.103474155,
        1.44655859,
        -0.210944727
      ],
      "max": [
        0.09023944,
        1.622555,
        -0.101552315
      ]
    },
    {
      "bufferView": 57,
      "byteOffset": 0,
      "componentType": 5126,
      "count": 24,
      "type": "VEC3",
      "min": [
        -0.09681017,
        1.40963089,
        -0.205630034
      ],
      "max": [
        0.111887231,
        1.585878,
        -0.09423435
      ]
    },
    {
      "bufferView": 58,
      "byteOffset": 0,
      "componentType": 5126,
      "count": 24,
      "type": "VEC3",
      "min": [
        -0.0947919041,
        1.35199153,
        -0.186918184
      ],
      "max": [
        0.1259973,
        1.52573371,
        -0.09457668
      ]
    },
    {
      "bufferView": 59,
      "byteOffset": 0,
      "componentType": 5126,
      "count": 24,
      "type": "VEC3",
      "min": [
        -0.08561326,
        1.37487078,
        -0.1922448
      ],
      "max": [
        0.10758996,
        1.54863155,
        -0.116045065
      ]
    },
    {
      "bufferView": 60,
      "byteOffset": 0,
      "componentType": 5126,
      "count": 24,
      "type": "VEC3",
      "min": [
        -0.09064374,
        1.388398,
        -0.201177835
      ],
      "max": [
        0.09516578,
        1.56354713,
        -0.122217439
      ]
    },
    {
      "bufferView": 61,
      "byteOffset": 0,
      "componentType": 5126,
      "count": 24,
      "type": "VEC3",
      "min": [
        -0.115480341,
        1.435261,
        -0.222308576
      ],
      "max": [
        0.07985421,
        1.61297846,
        -0.137670413
      ]
    },
    {
      "bufferView": 62,
      "byteOffset": 0,
      "componentType": 5126,
      "count": 24,
      "type": "VEC3",
      "min": [
        -0.134292737,
        1.41666543,
        -0.219358519
      ],
      "max": [
        0.0695103,
        1.59873033,
        -0.1307348
      ]
    },
    {
      "bufferView": 63,
      "byteOffset": 0,
      "componentType": 5126,
      "count": 24,
      "type": "VEC3",
      "min": [
        -0.151193053,
        1.37723565,
        -0.210486248
      ],
      "max": [
        0.05935332,
        1.56163025,
        -0.119513683
      ]
    },
    {
      "bufferView": 64,
      "byteOffset": 0,
      "componentType": 5126,
      "count": 24,
      "type": "VEC3",
      "min": [
        -0.157957986,
        1.33362007,
        -0.197999015
      ],
      "max": [
        0.0491282679,
        1.51456356,
        -0.100426488
      ]
    },
    {
      "bufferView": 65,
      "byteOffset": 0,
      "componentType": 5126,
      "count": 24,
      "type": "VEC3",
      "min": [
        -0.150497168,
        1.3536278,
        -0.2013807
      ],
      "max": [
        0.0486724935,
        1.53345716,
        -0.09573971
      ]
    },
    {
      "bufferView": 66,
      "componentType": 5126,
      "count": 87616,
      "type": "SCALAR"
    }
  ],
  "skins": [
    {
      "name": "skin0",
      "inverseBindMatrices": 6,
      "joints": [
        10,
        11,
        12
      ]
    },
    {
      "name": "skin1",
      "inverseBindMatrices": 17,
      "joints": [
        10,
        6,
        41,
        7,
        44,
        8,
        28,
        27,
        29,
        30,
        14,
        13,
        15,
        9,
        42,
        43,
        45,
        46,
        16,
        31,
        35,
        37,
        39,
        33,
        34,
        36,
        38,
        32,
        40,
        17,
        21,
        23,
        25,
        19,
        20,
        22,
        24,
        18,
        26
      ]
    },
    {
      "name": "skin2",
      "inverseBindMatrices": 24,
      "joints": [
        10,
        9,
        11,
        12,
        8
      ]
    }
  ],
  "meshes": [
    {
      "name": "empire_priestess_alpha",
      "primitives": [
        {
          "attributes": {
            "POSITION": 1,
            "NORMAL": 2,
            "TEXCOORD_0": 3,
            "WEIGHTS_0": 4,
            "JOINTS_0": 5
          },
          "indices": 0,
          "mode": 4,
          "material": 0
        }
      ]
    },
    {
      "name": "empire_priestess_skirt",
      "primitives": [
        {
          "attributes": {
            "POSITION": 8,
            "NORMAL": 9,
            "TEXCOORD_0": 10
          },
          "indices": 7,
          "mode": 4,
          "material": 1,
          "targets": [
            {
              "POSITION": 114
            },
            {
              "POSITION": 115
            },
            {
              "POSITION": 116
            },
            {
              "POSITION": 117
            },
            {
              "POSITION": 118
            },
            {
              "POSITION": 119
            },
            {
              "POSITION": 120
            },
            {
              "POSITION": 121
            },
            {
              "POSITION": 122
            },
            {
              "POSITION": 123
            },
            {
              "POSITION": 124
            },
            {
              "POSITION": 125
            },
            {
              "POSITION": 126
            },
            {
              "POSITION": 127
            },
            {
              "POSITION": 128
            },
            {
              "POSITION": 129
            },
            {
              "POSITION": 130
            },
            {
              "POSITION": 131
            },
            {
              "POSITION": 132
            },
            {
              "POSITION": 133
            },
            {
              "POSITION": 134
            },
            {
              "POSITION": 135
            },
            {
              "POSITION": 136
            },
            {
              "POSITION": 137
            },
            {
              "POSITION": 138
            }
          ]
        }
      ],
      "weights": [
        0.0,
        0.0,
        0.0,
        0.0,
        0.0,
        0.0,
        0.0,
        0.0,
        0.0,
        0.0,
        0.0,
        0.0,
        0.0,
        0.0,
        0.0,
        0.0,
        0.0,
        0.0,
        0.0,
        0.0,
        0.0,
        0.0,
        0.0,
        0.0,
        0.0
      ]
    },
    {
      "name": "empire_priestess",
      "primitives": [
        {
          "attributes": {
            "POSITION": 12,
            "NORMAL": 13,
            "TEXCOORD_0": 14,
            "WEIGHTS_0": 15,
            "JOINTS_0": 16
          },
          "indices": 11,
          "mode": 4,
          "material": 2
        }
      ]
    },
    {
      "name": "empire_priestess_face",
      "primitives": [
        {
          "attributes": {
            "POSITION": 19,
            "NORMAL": 20,
            "TEXCOORD_0": 21,
            "WEIGHTS_0": 22,
            "JOINTS_0": 23
          },
          "indices": 18,
          "mode": 4,
          "material": 3
        }
      ]
    },
    {
      "name": "empire_priestess_prop",
      "primitives": [
        {
          "attributes": {
            "POSITION": 26,
            "NORMAL": 27,
            "TEXCOORD_0": 28
          },
          "indices": 25,
          "mode": 4,
          "material": 4,
          "targets": [
            {
              "POSITION": 139
            },
            {
              "POSITION": 140
            },
            {
              "POSITION": 141
            },
            {
              "POSITION": 142
            },
            {
              "POSITION": 143
            },
            {
              "POSITION": 144
            },
            {
              "POSITION": 145
            },
            {
              "POSITION": 146
            },
            {
              "POSITION": 147
            },
            {
              "POSITION": 148
            },
            {
              "POSITION": 149
            },
            {
              "POSITION": 150
            },
            {
              "POSITION": 151
            },
            {
              "POSITION": 152
            },
            {
              "POSITION": 153
            },
            {
              "POSITION": 154
            },
            {
              "POSITION": 155
            },
            {
              "POSITION": 156
            },
            {
              "POSITION": 157
            },
            {
              "POSITION": 158
            },
            {
              "POSITION": 159
            },
            {
              "POSITION": 160
            },
            {
              "POSITION": 161
            },
            {
              "POSITION": 162
            },
            {
              "POSITION": 163
            }
          ]
        }
      ],
      "weights": [
        0.0,
        0.0,
        0.0,
        0.0,
        0.0,
        0.0,
        0.0,
        0.0,
        0.0,
        0.0,
        0.0,
        0.0,
        0.0,
        0.0,
        0.0,
        0.0,
        0.0,
        0.0,
        0.0,
        0.0,
        0.0,
        0.0,
        0.0,
        0.0,
        0.0
      ]
    }
  ],
  "animations": [
    {
      "channels": [
        {
          "sampler": 0,
          "target": {
            "node": 5,
            "path": "rotation"
          }
        },
        {
          "sampler": 1,
          "target": {
            "node": 5,
            "path": "translation"
          }
        },
        {
          "sampler": 2,
          "target": {
            "node": 6,
            "path": "rotation"
          }
        },
        {
          "sampler": 3,
          "target": {
            "node": 6,
            "path": "translation"
          }
        },
        {
          "sampler": 4,
          "target": {
            "node": 7,
            "path": "rotation"
          }
        },
        {
          "sampler": 5,
          "target": {
            "node": 7,
            "path": "translation"
          }
        },
        {
          "sampler": 6,
          "target": {
            "node": 8,
            "path": "rotation"
          }
        },
        {
          "sampler": 7,
          "target": {
            "node": 8,
            "path": "translation"
          }
        },
        {
          "sampler": 8,
          "target": {
            "node": 9,
            "path": "rotation"
          }
        },
        {
          "sampler": 9,
          "target": {
            "node": 9,
            "path": "translation"
          }
        },
        {
          "sampler": 10,
          "target": {
            "node": 10,
            "path": "rotation"
          }
        },
        {
          "sampler": 11,
          "target": {
            "node": 10,
            "path": "translation"
          }
        },
        {
          "sampler": 12,
          "target": {
            "node": 11,
            "path": "rotation"
          }
        },
        {
          "sampler": 13,
          "target": {
            "node": 11,
            "path": "translation"
          }
        },
        {
          "sampler": 14,
          "target": {
            "node": 12,
            "path": "rotation"
          }
        },
        {
          "sampler": 15,
          "target": {
            "node": 12,
            "path": "translation"
          }
        },
        {
          "sampler": 16,
          "target": {
            "node": 13,
            "path": "rotation"
          }
        },
        {
          "sampler": 17,
          "target": {
            "node": 13,
            "path": "translation"
          }
        },
        {
          "sampler": 18,
          "target": {
            "node": 14,
            "path": "rotation"
          }
        },
        {
          "sampler": 19,
          "target": {
            "node": 14,
            "path": "translation"
          }
        },
        {
          "sampler": 20,
          "target": {
            "node": 15,
            "path": "rotation"
          }
        },
        {
          "sampler": 21,
          "target": {
            "node": 15,
            "path": "translation"
          }
        },
        {
          "sampler": 22,
          "target": {
            "node": 16,
            "path": "rotation"
          }
        },
        {
          "sampler": 23,
          "target": {
            "node": 16,
            "path": "translation"
          }
        },
        {
          "sampler": 24,
          "target": {
            "node": 17,
            "path": "rotation"
          }
        },
        {
          "sampler": 25,
          "target": {
            "node": 17,
            "path": "translation"
          }
        },
        {
          "sampler": 26,
          "target": {
            "node": 18,
            "path": "rotation"
          }
        },
        {
          "sampler": 27,
          "target": {
            "node": 18,
            "path": "translation"
          }
        },
        {
          "sampler": 28,
          "target": {
            "node": 19,
            "path": "rotation"
          }
        },
        {
          "sampler": 29,
          "target": {
            "node": 19,
            "path": "translation"
          }
        },
        {
          "sampler": 30,
          "target": {
            "node": 20,
            "path": "rotation"
          }
        },
        {
          "sampler": 31,
          "target": {
            "node": 20,
            "path": "translation"
          }
        },
        {
          "sampler": 32,
          "target": {
            "node": 21,
            "path": "rotation"
          }
        },
        {
          "sampler": 33,
          "target": {
            "node": 21,
            "path": "translation"
          }
        },
        {
          "sampler": 34,
          "target": {
            "node": 22,
            "path": "rotation"
          }
        },
        {
          "sampler": 35,
          "target": {
            "node": 22,
            "path": "translation"
          }
        },
        {
          "sampler": 36,
          "target": {
            "node": 23,
            "path": "rotation"
          }
        },
        {
          "sampler": 37,
          "target": {
            "node": 23,
            "path": "translation"
          }
        },
        {
          "sampler": 38,
          "target": {
            "node": 24,
            "path": "rotation"
          }
        },
        {
          "sampler": 39,
          "target": {
            "node": 24,
            "path": "translation"
          }
        },
        {
          "sampler": 40,
          "target": {
            "node": 25,
            "path": "rotation"
          }
        },
        {
          "sampler": 41,
          "target": {
            "node": 25,
            "path": "translation"
          }
        },
        {
          "sampler": 42,
          "target": {
            "node": 26,
            "path": "rotation"
          }
        },
        {
          "sampler": 43,
          "target": {
            "node": 26,
            "path": "translation"
          }
        },
        {
          "sampler": 44,
          "target": {
            "node": 27,
            "path": "rotation"
          }
        },
        {
          "sampler": 45,
          "target": {
            "node": 27,
            "path": "translation"
          }
        },
        {
          "sampler": 46,
          "target": {
            "node": 28,
            "path": "rotation"
          }
        },
        {
          "sampler": 47,
          "target": {
            "node": 28,
            "path": "translation"
          }
        },
        {
          "sampler": 48,
          "target": {
            "node": 29,
            "path": "rotation"
          }
        },
        {
          "sampler": 49,
          "target": {
            "node": 29,
            "path": "translation"
          }
        },
        {
          "sampler": 50,
          "target": {
            "node": 30,
            "path": "rotation"
          }
        },
        {
          "sampler": 51,
          "target": {
            "node": 30,
            "path": "translation"
          }
        },
        {
          "sampler": 52,
          "target": {
            "node": 31,
            "path": "rotation"
          }
        },
        {
          "sampler": 53,
          "target": {
            "node": 31,
            "path": "translation"
          }
        },
        {
          "sampler": 54,
          "target": {
            "node": 32,
            "path": "rotation"
          }
        },
        {
          "sampler": 55,
          "target": {
            "node": 32,
            "path": "translation"
          }
        },
        {
          "sampler": 56,
          "target": {
            "node": 33,
            "path": "rotation"
          }
        },
        {
          "sampler": 57,
          "target": {
            "node": 33,
            "path": "translation"
          }
        },
        {
          "sampler": 58,
          "target": {
            "node": 34,
            "path": "rotation"
          }
        },
        {
          "sampler": 59,
          "target": {
            "node": 34,
            "path": "translation"
          }
        },
        {
          "sampler": 60,
          "target": {
            "node": 35,
            "path": "rotation"
          }
        },
        {
          "sampler": 61,
          "target": {
            "node": 35,
            "path": "translation"
          }
        },
        {
          "sampler": 62,
          "target": {
            "node": 36,
            "path": "rotation"
          }
        },
        {
          "sampler": 63,
          "target": {
            "node": 36,
            "path": "translation"
          }
        },
        {
          "sampler": 64,
          "target": {
            "node": 37,
            "path": "rotation"
          }
        },
        {
          "sampler": 65,
          "target": {
            "node": 37,
            "path": "translation"
          }
        },
        {
          "sampler": 66,
          "target": {
            "node": 38,
            "path": "rotation"
          }
        },
        {
          "sampler": 67,
          "target": {
            "node": 38,
            "path": "translation"
          }
        },
        {
          "sampler": 68,
          "target": {
            "node": 39,
            "path": "rotation"
          }
        },
        {
          "sampler": 69,
          "target": {
            "node": 39,
            "path": "translation"
          }
        },
        {
          "sampler": 70,
          "target": {
            "node": 40,
            "path": "rotation"
          }
        },
        {
          "sampler": 71,
          "target": {
            "node": 40,
            "path": "translation"
          }
        },
        {
          "sampler": 72,
          "target": {
            "node": 41,
            "path": "rotation"
          }
        },
        {
          "sampler": 73,
          "target": {
            "node": 41,
            "path": "translation"
          }
        },
        {
          "sampler": 74,
          "target": {
            "node": 42,
            "path": "rotation"
          }
        },
        {
          "sampler": 75,
          "target": {
            "node": 42,
            "path": "translation"
          }
        },
        {
          "sampler": 76,
          "target": {
            "node": 43,
            "path": "rotation"
          }
        },
        {
          "sampler": 77,
          "target": {
            "node": 43,
            "path": "translation"
          }
        },
        {
          "sampler": 78,
          "target": {
            "node": 44,
            "path": "rotation"
          }
        },
        {
          "sampler": 79,
          "target": {
            "node": 44,
            "path": "translation"
          }
        },
        {
          "sampler": 80,
          "target": {
            "node": 45,
            "path": "rotation"
          }
        },
        {
          "sampler": 81,
          "target": {
            "node": 45,
            "path": "translation"
          }
        },
        {
          "sampler": 82,
          "target": {
            "node": 46,
            "path": "rotation"
          }
        },
        {
          "sampler": 83,
          "target": {
            "node": 46,
            "path": "translation"
          }
        },
        {
          "sampler": 84,
          "target": {
            "node": 1,
            "path": "weights"
          }
        },
        {
          "sampler": 85,
          "target": {
            "node": 4,
            "path": "weights"
          }
        }
      ],
      "samplers": [
        {
          "input": 29,
          "output": 30,
          "interpolation": "LINEAR"
        },
        {
          "input": 29,
          "output": 31,
          "interpolation": "LINEAR"
        },
        {
          "input": 29,
          "output": 32,
          "interpolation": "LINEAR"
        },
        {
          "input": 29,
          "output": 33,
          "interpolation": "LINEAR"
        },
        {
          "input": 29,
          "output": 34,
          "interpolation": "LINEAR"
        },
        {
          "input": 29,
          "output": 35,
          "interpolation": "LINEAR"
        },
        {
          "input": 29,
          "output": 36,
          "interpolation": "LINEAR"
        },
        {
          "input": 29,
          "output": 37,
          "interpolation": "LINEAR"
        },
        {
          "input": 29,
          "output": 38,
          "interpolation": "LINEAR"
        },
        {
          "input": 29,
          "output": 39,
          "interpolation": "LINEAR"
        },
        {
          "input": 29,
          "output": 40,
          "interpolation": "LINEAR"
        },
        {
          "input": 29,
          "output": 41,
          "interpolation": "LINEAR"
        },
        {
          "input": 29,
          "output": 42,
          "interpolation": "LINEAR"
        },
        {
          "input": 29,
          "output": 43,
          "interpolation": "LINEAR"
        },
        {
          "input": 29,
          "output": 44,
          "interpolation": "LINEAR"
        },
        {
          "input": 29,
          "output": 45,
          "interpolation": "LINEAR"
        },
        {
          "input": 29,
          "output": 46,
          "interpolation": "LINEAR"
        },
        {
          "input": 29,
          "output": 47,
          "interpolation": "LINEAR"
        },
        {
          "input": 29,
          "output": 48,
          "interpolation": "LINEAR"
        },
        {
          "input": 29,
          "output": 49,
          "interpolation": "LINEAR"
        },
        {
          "input": 29,
          "output": 50,
          "interpolation": "LINEAR"
        },
        {
          "input": 29,
          "output": 51,
          "interpolation": "LINEAR"
        },
        {
          "input": 29,
          "output": 52,
          "interpolation": "LINEAR"
        },
        {
          "input": 29,
          "output": 53,
          "interpolation": "LINEAR"
        },
        {
          "input": 29,
          "output": 54,
          "interpolation": "LINEAR"
        },
        {
          "input": 29,
          "output": 55,
          "interpolation": "LINEAR"
        },
        {
          "input": 29,
          "output": 56,
          "interpolation": "LINEAR"
        },
        {
          "input": 29,
          "output": 57,
          "interpolation": "LINEAR"
        },
        {
          "input": 29,
          "output": 58,
          "interpolation": "LINEAR"
        },
        {
          "input": 29,
          "output": 59,
          "interpolation": "LINEAR"
        },
        {
          "input": 29,
          "output": 60,
          "interpolation": "LINEAR"
        },
        {
          "input": 29,
          "output": 61,
          "interpolation": "LINEAR"
        },
        {
          "input": 29,
          "output": 62,
          "interpolation": "LINEAR"
        },
        {
          "input": 29,
          "output": 63,
          "interpolation": "LINEAR"
        },
        {
          "input": 29,
          "output": 64,
          "interpolation": "LINEAR"
        },
        {
          "input": 29,
          "output": 65,
          "interpolation": "LINEAR"
        },
        {
          "input": 29,
          "output": 66,
          "interpolation": "LINEAR"
        },
        {
          "input": 29,
          "output": 67,
          "interpolation": "LINEAR"
        },
        {
          "input": 29,
          "output": 68,
          "interpolation": "LINEAR"
        },
        {
          "input": 29,
          "output": 69,
          "interpolation": "LINEAR"
        },
        {
          "input": 29,
          "output": 70,
          "interpolation": "LINEAR"
        },
        {
          "input": 29,
          "output": 71,
          "interpolation": "LINEAR"
        },
        {
          "input": 29,
          "output": 72,
          "interpolation": "LINEAR"
        },
        {
          "input": 29,
          "output": 73,
          "interpolation": "LINEAR"
        },
        {
          "input": 29,
          "output": 74,
          "interpolation": "LINEAR"
        },
        {
          "input": 29,
          "output": 75,
          "interpolation": "LINEAR"
        },
        {
          "input": 29,
          "output": 76,
          "interpolation": "LINEAR"
        },
        {
          "input": 29,
          "output": 77,
          "interpolation": "LINEAR"
        },
        {
          "input": 29,
          "output": 78,
          "interpolation": "LINEAR"
        },
        {
          "input": 29,
          "output": 79,
          "interpolation": "LINEAR"
        },
        {
          "input": 29,
          "output": 80,
          "interpolation": "LINEAR"
        },
        {
          "input": 29,
          "output": 81,
          "interpolation": "LINEAR"
        },
        {
          "input": 29,
          "output": 82,
          "interpolation": "LINEAR"
        },
        {
          "input": 29,
          "output": 83,
          "interpolation": "LINEAR"
        },
        {
          "input": 29,
          "output": 84,
          "interpolation": "LINEAR"
        },
        {
          "input": 29,
          "output": 85,
          "interpolation": "LINEAR"
        },
        {
          "input": 29,
          "output": 86,
          "interpolation": "LINEAR"
        },
        {
          "input": 29,
          "output": 87,
          "interpolation": "LINEAR"
        },
        {
          "input": 29,
          "output": 88,
          "interpolation": "LINEAR"
        },
        {
          "input": 29,
          "output": 89,
          "interpolation": "LINEAR"
        },
        {
          "input": 29,
          "output": 90,
          "interpolation": "LINEAR"
        },
        {
          "input": 29,
          "output": 91,
          "interpolation": "LINEAR"
        },
        {
          "input": 29,
          "output": 92,
          "interpolation": "LINEAR"
        },
        {
          "input": 29,
          "output": 93,
          "interpolation": "LINEAR"
        },
        {
          "input": 29,
          "output": 94,
          "interpolation": "LINEAR"
        },
        {
          "input": 29,
          "output": 95,
          "interpolation": "LINEAR"
        },
        {
          "input": 29,
          "output": 96,
          "interpolation": "LINEAR"
        },
        {
          "input": 29,
          "output": 97,
          "interpolation": "LINEAR"
        },
        {
          "input": 29,
          "output": 98,
          "interpolation": "LINEAR"
        },
        {
          "input": 29,
          "output": 99,
          "interpolation": "LINEAR"
        },
        {
          "input": 29,
          "output": 100,
          "interpolation": "LINEAR"
        },
        {
          "input": 29,
          "output": 101,
          "interpolation": "LINEAR"
        },
        {
          "input": 29,
          "output": 102,
          "interpolation": "LINEAR"
        },
        {
          "input": 29,
          "output": 103,
          "interpolation": "LINEAR"
        },
        {
          "input": 29,
          "output": 104,
          "interpolation": "LINEAR"
        },
        {
          "input": 29,
          "output": 105,
          "interpolation": "LINEAR"
        },
        {
          "input": 29,
          "output": 106,
          "interpolation": "LINEAR"
        },
        {
          "input": 29,
          "output": 107,
          "interpolation": "LINEAR"
        },
        {
          "input": 29,
          "output": 108,
          "interpolation": "LINEAR"
        },
        {
          "input": 29,
          "output": 109,
          "interpolation": "LINEAR"
        },
        {
          "input": 29,
          "output": 110,
          "interpolation": "LINEAR"
        },
        {
          "input": 29,
          "output": 111,
          "interpolation": "LINEAR"
        },
        {
          "input": 29,
          "output": 112,
          "interpolation": "LINEAR"
        },
        {
          "input": 29,
          "output": 113,
          "interpolation": "LINEAR"
        },
        {
          "input": 29,
          "output": 164,
          "interpolation": "LINEAR"
        },
        {
          "input": 29,
          "output": 164,
          "interpolation": "LINEAR"
        }
      ]
    }
  ],
  "bufferViews": [
    {
      "name": "mesh_indexes_empire_priestess_alpha",
      "buffer": 0,
      "byteOffset": 0,
      "byteLength": 960,
      "target": 34963
    },
    {
      "name": "mesh_vertexes_empire_priestess_alpha",
      "buffer": 0,
      "byteOffset": 960,
      "byteLength": 3744,
      "byteStride": 52,
      "target": 34962
    },
    {
      "name": "mesh_bones_empire_priestess_alpha",
      "buffer": 0,
      "byteOffset": 4704,
      "byteLength": 192
    },
    {
      "name": "mesh_indexes_empire_priestess_skirt",
      "buffer": 0,
      "byteOffset": 4896,
      "byteLength": 10176,
      "target": 34963
    },
    {
      "name": "mesh_vertexes_empire_priestess_skirt",
      "buffer": 0,
      "byteOffset": 15072,
      "byteLength": 16256,
      "byteStride": 32,
      "target": 34962
    },
    {
      "name": "mesh_indexes_empire_priestess",
      "buffer": 0,
      "byteOffset": 31328,
      "byteLength": 38724,
      "target": 34963
    },
    {
      "name": "mesh_vertexes_empire_priestess",
      "buffer": 0,
      "byteOffset": 70052,
      "byteLength": 132704,
      "byteStride": 52,
      "target": 34962
    },
    {
      "name": "mesh_bones_empire_priestess",
      "buffer": 0,
      "byteOffset": 202756,
      "byteLength": 2496
    },
    {
      "name": "mesh_indexes_empire_priestess_face",
      "buffer": 0,
      "byteOffset": 205252,
      "byteLength": 15180,
      "target": 34963
    },
    {
      "name": "mesh_vertexes_empire_priestess_face",
      "buffer": 0,
      "byteOffset": 220432,
      "byteLength": 41028,
      "byteStride": 52,
      "target": 34962
    },
    {
      "name": "mesh_bones_empire_priestess_face",
      "buffer": 0,
      "byteOffset": 261460,
      "byteLength": 320
    },
    {
      "name": "mesh_indexes_empire_priestess_prop",
      "buffer": 0,
      "byteOffset": 261780,
      "byteLength": 240,
      "target": 34963
    },
    {
      "name": "mesh_vertexes_empire_priestess_prop",
      "buffer": 0,
      "byteOffset": 262020,
      "byteLength": 768,
      "byteStride": 32,
      "target": 34962
    },
    {
      "name": "frames",
      "buffer": 0,
      "byteOffset": 262788,
      "byteLength": 1184
    },
    {
      "name": "bones_rotate",
      "buffer": 0,
      "byteOffset": 263972,
      "byteLength": 198912
    },
    {
      "name": "bones_translate",
      "buffer": 0,
      "byteOffset": 462884,
      "byteLength": 149184
    },
    {
      "name": "morph_empire_priestess_skirt_0",
      "buffer": 0,
      "byteOffset": 612068,
      "byteLength": 6096,
      "target": 34962
    },
    {
      "name": "morph_empire_priestess_skirt_1",
      "buffer": 0,
      "byteOffset": 618164,
      "byteLength": 6096,
      "target": 34962
    },
    {
      "name": "morph_empire_priestess_skirt_2",
      "buffer": 0,
      "byteOffset": 624260,
      "byteLength": 6096,
      "target": 34962
    },
    {
      "name": "morph_empire_priestess_skirt_3",
      "buffer": 0,
      "byteOffset": 630356,
      "byteLength": 6096,
      "target": 34962
    },
    {
      "name": "morph_empire_priestess_skirt_4",
      "buffer": 0,
      "byteOffset": 636452,
      "byteLength": 6096,
      "target": 34962
    },
    {
      "name": "morph_empire_priestess_skirt_5",
      "buffer": 0,
      "byteOffset": 642548,
      "byteLength": 6096,
      "target": 34962
    },
    {
      "name": "morph_empire_priestess_skirt_6",
      "buffer": 0,
      "byteOffset": 648644,
      "byteLength": 6096,
      "target": 34962
    },
    {
      "name": "morph_empire_priestess_skirt_7",
      "buffer": 0,
      "byteOffset": 654740,
      "byteLength": 6096,
      "target": 34962
    },
    {
      "name": "morph_empire_priestess_skirt_8",
      "buffer": 0,
      "byteOffset": 660836,
      "byteLength": 6096,
      "target": 34962
    },
    {
      "name": "morph_empire_priestess_skirt_9",
      "buffer": 0,
      "byteOffset": 666932,
      "byteLength": 6096,
      "target": 34962
    },
    {
      "name": "morph_empire_priestess_skirt_10",
      "buffer": 0,
      "byteOffset": 673028,
      "byteLength": 6096,
      "target": 34962
    },
    {
      "name": "morph_empire_priestess_skirt_11",
      "buffer": 0,
      "byteOffset": 679124,
      "byteLength": 6096,
      "target": 34962
    },
    {
      "name": "morph_empire_priestess_skirt_12",
      "buffer": 0,
      "byteOffset": 685220,
      "byteLength": 6096,
      "target": 34962
    },
    {
      "name": "morph_empire_priestess_skirt_13",
      "buffer": 0,
      "byteOffset": 691316,
      "byteLength": 6096,
      "target": 34962
    },
    {
      "name": "morph_empire_priestess_skirt_14",
      "buffer": 0,
      "byteOffset": 697412,
      "byteLength": 6096,
      "target": 34962
    },
    {
      "name": "morph_empire_priestess_skirt_15",
      "buffer": 0,
      "byteOffset": 703508,
      "byteLength": 6096,
      "target": 34962
    },
    {
      "name": "morph_empire_priestess_skirt_16",
      "buffer": 0,
      "byteOffset": 709604,
      "byteLength": 6096,
      "target": 34962
    },
    {
      "name": "morph_empire_priestess_skirt_17",
      "buffer": 0,
      "byteOffset": 715700,
      "byteLength": 6096,
      "target": 34962
    },
    {
      "name": "morph_empire_priestess_skirt_18",
      "buffer": 0,
      "byteOffset": 721796,
      "byteLength": 6096,
      "target": 34962
    },
    {
      "name": "morph_empire_priestess_skirt_19",
      "buffer": 0,
      "byteOffset": 727892,
      "byteLength": 6096,
      "target": 34962
    },
    {
      "name": "morph_empire_priestess_skirt_20",
      "buffer": 0,
      "byteOffset": 733988,
      "byteLength": 6096,
      "target": 34962
    },
    {
      "name": "morph_empire_priestess_skirt_21",
      "buffer": 0,
      "byteOffset": 740084,
      "byteLength": 6096,
      "target": 34962
    },
    {
      "name": "morph_empire_priestess_skirt_22",
      "buffer": 0,
      "byteOffset": 746180,
      "byteLength": 6096,
      "target": 34962
    },
    {
      "name": "morph_empire_priestess_skirt_23",
      "buffer": 0,
      "byteOffset": 752276,
      "byteLength": 6096,
      "target": 34962
    },
    {
      "name": "morph_empire_priestess_skirt_24",
      "buffer": 0,
      "byteOffset": 758372,
      "byteLength": 6096,
      "target": 34962
    },
    {
      "name": "morph_empire_priestess_prop_0",
      "buffer": 0,
      "byteOffset": 764468,
      "byteLength": 288,
      "target": 34962
    },
    {
      "name": "morph_empire_priestess_prop_1",
      "buffer": 0,
      "byteOffset": 764756,
      "byteLength": 288,
      "target": 34962
    },
    {
      "name": "morph_empire_priestess_prop_2",
      "buffer": 0,
      "byteOffset": 765044,
      "byteLength": 288,
      "target": 34962
    },
    {
      "name": "morph_empire_priestess_prop_3",
      "buffer": 0,
      "byteOffset": 765332,
      "byteLength": 288,
      "target": 34962
    },
    {
      "name": "morph_empire_priestess_prop_4",
      "buffer": 0,
      "byteOffset": 765620,
      "byteLength": 288,
      "target": 34962
    },
    {
      "name": "morph_empire_priestess_prop_5",
      "buffer": 0,
      "byteOffset": 765908,
      "byteLength": 288,
      "target": 34962
    },
    {
      "name": "morph_empire_priestess_prop_6",
      "buffer": 0,
      "byteOffset": 766196,
      "byteLength": 288,
      "target": 34962
    },
    {
      "name": "morph_empire_priestess_prop_7",
      "buffer": 0,
      "byteOffset": 766484,
      "byteLength": 288,
      "target": 34962
    },
    {
      "name": "morph_empire_priestess_prop_8",
      "buffer": 0,
      "byteOffset": 766772,
      "byteLength": 288,
      "target": 34962
    },
    {
      "name": "morph_empire_priestess_prop_9",
      "buffer": 0,
      "byteOffset": 767060,
      "byteLength": 288,
      "target": 34962
    },
    {
      "name": "morph_empire_priestess_prop_10",
      "buffer": 0,
      "byteOffset": 767348,
      "byteLength": 288,
      "target": 34962
    },
    {
      "name": "morph_empire_priestess_prop_11",
      "buffer": 0,
      "byteOffset": 767636,
      "byteLength": 288,
      "target": 34962
    },
    {
      "name": "morph_empire_priestess_prop_12",
      "buffer": 0,
      "byteOffset": 767924,
      "byteLength": 288,
      "target": 34962
    },
    {
      "name": "morph_empire_priestess_prop_13",
      "buffer": 0,
      "byteOffset": 768212,
      "byteLength": 288,
      "target": 34962
    },
    {
      "name": "morph_empire_priestess_prop_14",
      "buffer": 0,
      "byteOffset": 768500,
      "byteLength": 288,
      "target": 34962
    },
    {
      "name": "morph_empire_priestess_prop_15",
      "buffer": 0,
      "byteOffset": 768788,
      "byteLength": 288,
      "target": 34962
    },
    {
      "name": "morph_empire_priestess_prop_16",
      "buffer": 0,
      "byteOffset": 769076,
      "byteLength": 288,
      "target": 34962
    },
    {
      "name": "morph_empire_priestess_prop_17",
      "buffer": 0,
      "byteOffset": 769364,
      "byteLength": 288,
      "target": 34962
    },
    {
      "name": "morph_empire_priestess_prop_18",
      "buffer": 0,
      "byteOffset": 769652,
      "byteLength": 288,
      "target": 34962
    },
    {
      "name": "morph_empire_priestess_prop_19",
      "buffer": 0,
      "byteOffset": 769940,
      "byteLength": 288,
      "target": 34962
    },
    {
      "name": "morph_empire_priestess_prop_20",
      "buffer": 0,
      "byteOffset": 770228,
      "byteLength": 288,
      "target": 34962
    },
    {
      "name": "morph_empire_priestess_prop_21",
      "buffer": 0,
      "byteOffset": 770516,
      "byteLength": 288,
      "target": 34962
    },
    {
      "name": "morph_empire_priestess_prop_22",
      "buffer": 0,
      "byteOffset": 770804,
      "byteLength": 288,
      "target": 34962
    },
    {
      "name": "morph_empire_priestess_prop_23",
      "buffer": 0,
      "byteOffset": 771092,
      "byteLength": 288,
      "target": 34962
    },
    {
      "name": "morph_empire_priestess_prop_24",
      "buffer": 0,
      "byteOffset": 771380,
      "byteLength": 288,
      "target": 34962
    },
    {
      "name": "morph_weights",
      "buffer": 0,
      "byteOffset": 771668,
      "byteLength": 350464
    }
  ],
  "buffers": [
    {
      "uri": "character_empire_priestess.bin",
      "byteLength": 1122132
    }
  ],
  "images": [
    {
      "uri": "character_empire_priestess_alpha.dds"
    },
    {
      "uri": "character_empire_priestess.dds"
    },
    {
      "uri": "character_empire_priestess_head.dds"
    }
  ],
  "textures": [
    {
      "source": 0
    },
    {
      "source": 1
    },
    {
      "source": 2
    }
  ],
  "materials": [
    {
      "name": "material0",
      "alphaMode": "MASK",
      "pbrMetallicRoughness": {
        "baseColorTexture": {
          "index": 0,
          "texCoord": 0
        },
        "metallicFactor": 0.0
      },
      "emissiveFactor": [
        0.0,
        0.0,
        0.0
      ]
    },
    {
      "name": "material1",
      "alphaMode": "MASK",
      "pbrMetallicRoughness": {
        "baseColorTexture": {
          "index": 1,
          "texCoord": 0
        },
        "metallicFactor": 0.0
      },
      "emissiveFactor": [
        0.0,
        0.0,
        0.0
      ]
    },
    {
      "name": "material2",
      "alphaMode": "MASK",
      "pbrMetallicRoughness": {
        "baseColorTexture": {
          "index": 1,
          "texCoord": 0
        },
        "metallicFactor": 0.0
      },
      "emissiveFactor": [
        0.0,
        0.0,
        0.0
      ]
    },
    {
      "name": "material3",
      "alphaMode": "MASK",
      "pbrMetallicRoughness": {
        "baseColorTexture": {
          "index": 2,
          "texCoord": 0
        },
        "metallicFactor": 0.0
      },
      "emissiveFactor": [
        0.0,
        0.0,
        0.0
      ]
    },
    {
      "name": "material4",
      "alphaMode": "MASK",
      "pbrMetallicRoughness": {
        "baseColorTexture": {
          "index": 0,
          "texCoord": 0
        },
        "metallicFactor": 0.0
      },
      "emissiveFactor": [
        0.0,
        0.0,
        0.0
      ]
    }
  ]
}