{
  "asset": {
    "version": "2.0",
    "generator": "generated with dis3tool v1.1 by root.ext@gmail.com"
  },
  "scenes": [
    {
      "nodes": [
        0,
        1
      ]
    }
  ],
  "scene": 0,
  "nodes": [
    {
      "name": "character_neutral_polarbear",
      "mesh": 0,
      "skin": 0
    },
    {
      "name": "Root",
      "rotation": [
        0.0,
        0.0,
        0.707106769,
        0.707106769
      ],
      "translation": [
        0.0,
        0.0,
        0.0
      ],
      "children": [
        2
      ]
    },
    {
      "name": "Hips",
      "rotation": [
        0.9935252,
        -0.006768332,
        0.030805815,
        -0.109146081
      ],
      "translation": [
        1.01315641,
        -0.0277584475,
        0.27338025
      ],
      "children": [
        3,
        6,
        36,
        39
      ]
    },
    {
      "name": "LeftUpLeg",
      "rotation": [
        0.193274364,
        0.103661209,
        0.9723846,
        0.07979807
      ],
      "translation": [
        -1.20951469E-07,
        0.21191287,
        9.432198E-08
      ],
      "children": [
        4
      ]
    },
    {
      "name": "LeftLeg",
      "rotation": [
        0.0466873571,
        0.4292115,
        -0.07807411,
        0.8986113
      ],
      "translation": [
        0.556168139,
        -3.20639657E-08,
        -6.857156E-07
      ],
      "children": [
        5
      ]
    },
    {
      "name": "LeftFoot",
      "rotation": [
        -0.07863053,
        -0.7348112,
        0.105542593,
        0.6653798
      ],
      "translation": [
        0.427831382,
        -1.40502138E-07,
        -1.82779161E-08
      ]
    },
    {
      "name": "Spine",
      "rotation": [
        -0.03570445,
        0.0367711559,
        -0.025328638,
        0.998364449
      ],
      "translation": [
        0.13165091,
        4.17158352E-09,
        -8.03843747E-09
      ],
      "children": [
        7
      ]
    },
    {
      "name": "Spine1",
      "rotation": [
        -0.000205346849,
        -0.0864203,
        0.0009140754,
        0.9962584
      ],
      "translation": [
        0.376772851,
        1.0252819E-07,
        0.00745705375
      ],
      "children": [
        8,
        18,
        28,
        35
      ]
    },
    {
      "name": "LeftShoulder",
      "rotation": [
        0.6522236,
        0.711255968,
        0.247495636,
        -0.0864013955
      ],
      "translation": [
        0.6216177,
        0.0274498556,
        -0.0206093937
      ],
      "children": [
        9
      ]
    },
    {
      "name": "LeftArm",
      "rotation": [
        -0.07266597,
        0.183729574,
        -0.5034301,
        0.8411429
      ],
      "translation": [
        0.281875283,
        1.84720747E-07,
        -2.93187185E-07
      ],
      "children": [
        10
      ]
    },
    {
      "name": "LeftArmRoll",
      "rotation": [
        -0.146267727,
        -7.365522E-08,
        2.51037761E-07,
        0.9892451
      ],
      "translation": [
        0.217733234,
        1.3808986E-07,
        7.137761E-08
      ],
      "children": [
        11
      ]
    },
    {
      "name": "LeftForeArm",
      "rotation": [
        -0.0472260863,
        0.186827421,
        0.0769769549,
        0.978233
      ],
      "translation": [
        0.217732936,
        -1.08791909E-07,
        -1.60330615E-07
      ],
      "children": [
        12
      ]
    },
    {
      "name": "LeftHand",
      "rotation": [
        0.818570733,
        -0.08213926,
        -0.0309502557,
        0.5676589
      ],
      "translation": [
        0.43818903,
        2.44360479E-07,
        1.03459833E-07
      ],
      "children": [
        13,
        14,
        15,
        16,
        17
      ]
    },
    {
      "name": "LeftHandMiddle1",
      "rotation": [
        -0.00777010247,
        -0.233995974,
        0.00681329,
        0.9721826
      ],
      "translation": [
        0.148088917,
        -0.006881978,
        -0.0267908033
      ]
    },
    {
      "name": "LeftHandIndex1",
      "rotation": [
        -0.07897921,
        -0.214516819,
        0.03667817,
        0.9728306
      ],
      "translation": [
        0.146867469,
        -0.07624444,
        -0.0273075365
      ]
    },
    {
      "name": "LeftHandPinky1",
      "rotation": [
        0.2658107,
        -0.19180657,
        0.0437220968,
        0.9437389
      ],
      "translation": [
        0.114123657,
        0.09185617,
        0.02717398
      ]
    },
    {
      "name": "LeftHandRing1",
      "rotation": [
        0.215577215,
        -0.227086082,
        0.0359873734,
        0.9490327
      ],
      "translation": [
        0.13743037,
        0.04749884,
        -0.004765559
      ]
    },
    {
      "name": "LeftHandThumb1",
      "rotation": [
        0.758079648,
        -0.0446644463,
        0.170998722,
        0.6277573
      ],
      "translation": [
        0.08316842,
        -0.124476649,
        0.0054090023
      ]
    },
    {
      "name": "RightShoulder",
      "rotation": [
        -0.6655441,
        0.7117668,
        -0.218950137,
        -0.0499995127
      ],
      "translation": [
        0.621511459,
        -0.0297473669,
        -0.0206237324
      ],
      "children": [
        19
      ]
    },
    {
      "name": "RightArm",
      "rotation": [
        0.220058545,
        0.206287533,
        0.5214457,
        0.7981943
      ],
      "translation": [
        0.281875461,
        -1.65144669E-07,
        -1.516386E-07
      ],
      "children": [
        20
      ]
    },
    {
      "name": "RightArmRoll",
      "rotation": [
        0.05145605,
        -8.571949E-09,
        -2.97278632E-07,
        0.9986752
      ],
      "translation": [
        0.217732579,
        -2.23107335E-07,
        -6.886397E-08
      ],
      "children": [
        21
      ]
    },
    {
      "name": "RightForeArm",
      "rotation": [
        0.262473255,
        0.10373719,
        -0.191235378,
        0.9400933
      ],
      "translation": [
        0.217733622,
        3.22760542E-07,
        -2.06032837E-07
      ],
      "children": [
        22
      ]
    },
    {
      "name": "RightHand",
      "rotation": [
        0.9010823,
        -0.0420087,
        -0.09417489,
        -0.421208948
      ],
      "translation": [
        0.438190073,
        -2.33055289E-07,
        2.72012841E-07
      ],
      "children": [
        23,
        24,
        25,
        26,
        27
      ]
    },
    {
      "name": "RightHandMiddle1",
      "rotation": [
        0.007782315,
        -0.234020069,
        -0.00682589738,
        0.9721766
      ],
      "translation": [
        0.1480893,
        0.0068847565,
        -0.0267884172
      ]
    },
    {
      "name": "RightHandIndex1",
      "rotation": [
        0.078986004,
        -0.214544728,
        -0.0366909727,
        0.972823441
      ],
      "translation": [
        0.146869749,
        0.07624658,
        -0.0273040831
      ]
    },
    {
      "name": "RightHandPinky1",
      "rotation": [
        -0.26580134,
        -0.191829264,
        -0.0437342077,
        0.943736434
      ],
      "translation": [
        0.114121407,
        -0.09185367,
        0.0271750931
      ]
    },
    {
      "name": "RightHandRing1",
      "rotation": [
        -0.215567067,
        -0.2271099,
        -0.03600021,
        0.94902885
      ],
      "translation": [
        0.137430325,
        -0.0474965125,
        -0.00476327
      ]
    },
    {
      "name": "RightHandThumb1",
      "rotation": [
        -0.758073151,
        -0.04467096,
        -0.171024114,
        0.6277581
      ],
      "translation": [
        0.08317002,
        0.124479458,
        0.00540970732
      ]
    },
    {
      "name": "Neck",
      "rotation": [
        -0.0014385219,
        -0.271949649,
        -0.0001799635,
        0.9623104
      ],
      "translation": [
        0.6901956,
        -0.000586556969,
        -5.04161E-05
      ],
      "children": [
        29,
        34
      ]
    },
    {
      "name": "Neck1",
      "rotation": [
        -0.00018395856,
        0.1052516,
        -0.00168322853,
        0.994444132
      ],
      "translation": [
        0.236716613,
        -0.00138380507,
        -6.60942624E-06
      ],
      "children": [
        30
      ]
    },
    {
      "name": "Head",
      "rotation": [
        -0.0007360913,
        -0.7157899,
        -0.0022262258,
        0.698311567
      ],
      "translation": [
        0.3510871,
        -1.03388527E-06,
        7.808047E-07
      ],
      "children": [
        31,
        32,
        33
      ]
    },
    {
      "name": "Jaw",
      "rotation": [
        0.998635352,
        0.002584903,
        0.05197283,
        -0.004405757
      ],
      "translation": [
        0.163572893,
        0.00215028087,
        0.109380864
      ]
    },
    {
      "name": "Right_Ear",
      "rotation": [
        -0.1952646,
        0.6562424,
        -0.5126753,
        0.518055558
      ],
      "translation": [
        0.0152210351,
        -0.12611568,
        0.01751172
      ]
    },
    {
      "name": "Left_Ear",
      "rotation": [
        0.196475849,
        0.654321134,
        0.5163434,
        0.5163819
      ],
      "translation": [
        0.0148219233,
        0.126010746,
        0.0186070185
      ]
    },
    {
      "name": "Neck_fat_bone",
      "rotation": [
        -0.001298266,
        0.1395553,
        -4.54940055E-05,
        0.9902134
      ],
      "translation": [
        0.1046727,
        3.85961976E-05,
        0.355327725
      ]
    },
    {
      "name": "Chest_fat_bone",
      "rotation": [
        0.000141483979,
        0.0832269,
        -0.000884144742,
        0.996530235
      ],
      "translation": [
        0.08240543,
        8.936883E-05,
        0.336065441
      ]
    },
    {
      "name": "RightUpLeg",
      "rotation": [
        0.102312453,
        -0.112065867,
        0.9862068,
        -0.06610328
      ],
      "translation": [
        -1.19907185E-07,
        -0.21191287,
        1.083124E-07
      ],
      "children": [
        37
      ]
    },
    {
      "name": "RightLeg",
      "rotation": [
        -0.0253806561,
        0.418332964,
        0.07433862,
        0.904890835
      ],
      "translation": [
        0.556168139,
        -6.95126E-08,
        -6.977705E-07
      ],
      "children": [
        38
      ]
    },
    {
      "name": "RightFoot",
      "rotation": [
        0.07638793,
        -0.7884305,
        -0.09817672,
        0.6024149
      ],
      "translation": [
        0.4278316,
        1.43781492E-07,
        -1.557402E-07
      ]
    },
    {
      "name": "Hips_fat_bone",
      "rotation": [
        -0.0001957288,
        0.02099698,
        -0.0269179475,
        0.9994171
      ],
      "translation": [
        0.03373288,
        0.0017758566,
        0.1364596
      ]
    }
  ],
  "accessors": [
    {
      "bufferView": 0,
      "byteOffset": 0,
      "componentType": 5125,
      "count": 9552,
      "type": "SCALAR"
    },
    {
      "bufferView": 1,
      "byteOffset": 0,
      "componentType": 5126,
      "count": 2266,
      "type": "VEC3",
      "min": [
        -0.650676847,
        0.00122340233,
        -0.777311265
      ],
      "max": [
        0.6506769,
        2.74422884,
        0.541424155
      ]
    },
    {
      "bufferView": 1,
      "byteOffset": 12,
      "componentType": 5126,
      "count": 2266,
      "type": "VEC3"
    },
    {
      "bufferView": 1,
      "byteOffset": 24,
      "componentType": 5126,
      "count": 2266,
      "type": "VEC2"
    },
    {
      "bufferView": 1,
      "byteOffset": 32,
      "componentType": 5126,
      "count": 2266,
      "type": "VEC4"
    },
    {
      "bufferView": 1,
      "byteOffset": 48,
      "componentType": 5121,
      "count": 2266,
      "type": "VEC4"
    },
    {
      "bufferView": 2,
      "byteOffset": 0,
      "componentType": 5126,
      "count": 36,
      "type": "MAT4"
    },
    {
      "bufferView": 3,
      "byteOffset": 0,
      "componentType": 5126,
      "count": 305,
      "type": "SCALAR",
      "min": [
        0.0
      ],
      "max": [
        10.1333342
      ]
    },
    {
      "bufferView": 4,
      "byteOffset": 0,
      "componentType": 5126,
      "count": 305,
      "type": "VEC4"
    },
    {
      "bufferView": 5,
      "byteOffset": 0,
      "componentType": 5126,
      "count": 305,
      "type": "VEC3"
    },
    {
      "bufferView": 4,
      "byteOffset": 4880,
      "componentType": 5126,
      "count": 305,
      "type": "VEC4"
    },
    {
      "bufferView": 5,
      "byteOffset": 3660,
      "componentType": 5126,
      "count": 305,
      "type": "VEC3"
    },
    {
      "bufferView": 4,
      "byteOffset": 9760,
      "componentType": 5126,
      "count": 305,
      "type": "VEC4"
    },
    {
      "bufferView": 5,
      "byteOffset": 7320,
      "componentType": 5126,
      "count": 305,
      "type": "VEC3"
    },
    {
      "bufferView": 4,
      "byteOffset": 14640,
      "componentType": 5126,
      "count": 305,
      "type": "VEC4"
    },
    {
      "bufferView": 5,
      "byteOffset": 10980,
      "componentType": 5126,
      "count": 305,
      "type": "VEC3"
    },
    {
      "bufferView": 4,
      "byteOffset": 19520,
      "componentType": 5126,
      "count": 305,
      "type": "VEC4"
    },
    {
      "bufferView": 5,
      "byteOffset": 14640,
      "componentType": 5126,
      "count": 305,
      "type": "VEC3"
    },
    {
      "bufferView": 4,
      "byteOffset": 24400,
      "componentType": 5126,
      "count": 305,
      "type": "VEC4"
    },
    {
      "bufferView": 5,
      "byteOffset": 18300,
      "componentType": 5126,
      "count": 305,
      "type": "VEC3"
    },
    {
      "bufferView": 4,
      "byteOffset": 29280,
      "componentType": 5126,
      "count": 305,
      "type": "VEC4"
    },
    {
      "bufferView": 5,
      "byteOffset": 21960,
      "componentType": 5126,
      "count": 305,
      "type": "VEC3"
    },
    {
      "bufferView": 4,
      "byteOffset": 34160,
      "componentType": 5126,
      "count": 305,
      "type": "VEC4"
    },
    {
      "bufferView": 5,
      "byteOffset": 25620,
      "componentType": 5126,
      "count": 305,
      "type": "VEC3"
    },
    {
      "bufferView": 4,
      "byteOffset": 39040,
      "componentType": 5126,
      "count": 305,
      "type": "VEC4"
    },
    {
      "bufferView": 5,
      "byteOffset": 29280,
      "componentType": 5126,
      "count": 305,
      "type": "VEC3"
    },
    {
      "bufferView": 4,
      "byteOffset": 43920,
      "componentType": 5126,
      "count": 305,
      "type": "VEC4"
    },
    {
      "bufferView": 5,
      "byteOffset": 32940,
      "componentType": 5126,
      "count": 305,
      "type": "VEC3"
    },
    {
      "bufferView": 4,
      "byteOffset": 48800,
      "componentType": 5126,
      "count": 305,
      "type": "VEC4"
    },
    {
      "bufferView": 5,
      "byteOffset": 36600,
      "componentType": 5126,
      "count": 305,
      "type": "VEC3"
    },
    {
      "bufferView": 4,
      "byteOffset": 53680,
      "componentType": 5126,
      "count": 305,
      "type": "VEC4"
    },
    {
      "bufferView": 5,
      "byteOffset": 40260,
      "componentType": 5126,
      "count": 305,
      "type": "VEC3"
    },
    {
      "bufferView": 4,
      "byteOffset": 58560,
      "componentType": 5126,
      "count": 305,
      "type": "VEC4"
    },
    {
      "bufferView": 5,
      "byteOffset": 43920,
      "componentType": 5126,
      "count": 305,
      "type": "VEC3"
    },
    {
      "bufferView": 4,
      "byteOffset": 63440,
      "componentType": 5126,
      "count": 305,
      "type": "VEC4"
    },
    {
      "bufferView": 5,
      "byteOffset": 47580,
      "componentType": 5126,
      "count": 305,
      "type": "VEC3"
    },
    {
      "bufferView": 4,
      "byteOffset": 68320,
      "componentType": 5126,
      "count": 305,
      "type": "VEC4"
    },
    {
      "bufferView": 5,
      "byteOffset": 51240,
      "componentType": 5126,
      "count": 305,
      "type": "VEC3"
    },
    {
      "bufferView": 4,
      "byteOffset": 73200,
      "componentType": 5126,
      "count": 305,
      "type": "VEC4"
    },
    {
      "bufferView": 5,
      "byteOffset": 54900,
      "componentType": 5126,
      "count": 305,
      "type": "VEC3"
    },
    {
      "bufferView": 4,
      "byteOffset": 78080,
      "componentType": 5126,
      "count": 305,
      "type": "VEC4"
    },
    {
      "bufferView": 5,
      "byteOffset": 58560,
      "componentType": 5126,
      "count": 305,
      "type": "VEC3"
    },
    {
      "bufferView": 4,
      "byteOffset": 82960,
      "componentType": 5126,
      "count": 305,
      "type": "VEC4"
    },
    {
      "bufferView": 5,
      "byteOffset": 62220,
      "componentType": 5126,
      "count": 305,
      "type": "VEC3"
    },
    {
      "bufferView": 4,
      "byteOffset": 87840,
      "componentType": 5126,
      "count": 305,
      "type": "VEC4"
    },
    {
      "bufferView": 5,
      "byteOffset": 65880,
      "componentType": 5126,
      "count": 305,
      "type": "VEC3"
    },
    {
      "bufferView": 4,
      "byteOffset": 92720,
      "componentType": 5126,
      "count": 305,
      "type": "VEC4"
    },
    {
      "bufferView": 5,
      "byteOffset": 69540,
      "componentType": 5126,
      "count": 305,
      "type": "VEC3"
    },
    {
      "bufferView": 4,
      "byteOffset": 97600,
      "componentType": 5126,
      "count": 305,
      "type": "VEC4"
    },
    {
      "bufferView": 5,
      "byteOffset": 73200,
      "componentType": 5126,
      "count": 305,
      "type": "VEC3"
    },
    {
      "bufferView": 4,
      "byteOffset": 102480,
      "componentType": 5126,
      "count": 305,
      "type": "VEC4"
    },
    {
      "bufferView": 5,
      "byteOffset": 76860,
      "componentType": 5126,
      "count": 305,
      "type": "VEC3"
    },
    {
      "bufferView": 4,
      "byteOffset": 107360,
      "componentType": 5126,
      "count": 305,
      "type": "VEC4"
    },
    {
      "bufferView": 5,
      "byteOffset": 80520,
      "componentType": 5126,
      "count": 305,
      "type": "VEC3"
    },
    {
      "bufferView": 4,
      "byteOffset": 112240,
      "componentType": 5126,
      "count": 305,
      "type": "VEC4"
    },
    {
      "bufferView": 5,
      "byteOffset": 84180,
      "componentType": 5126,
      "count": 305,
      "type": "VEC3"
    },
    {
      "bufferView": 4,
      "byteOffset": 117120,
      "componentType": 5126,
      "count": 305,
      "type": "VEC4"
    },
    {
      "bufferView": 5,
      "byteOffset": 87840,
      "componentType": 5126,
      "count": 305,
      "type": "VEC3"
    },
    {
      "bufferView": 4,
      "byteOffset": 122000,
      "componentType": 5126,
      "count": 305,
      "type": "VEC4"
    },
    {
      "bufferView": 5,
      "byteOffset": 91500,
      "componentType": 5126,
      "count": 305,
      "type": "VEC3"
    },
    {
      "bufferView": 4,
      "byteOffset": 126880,
      "componentType": 5126,
      "count": 305,
      "type": "VEC4"
    },
    {
      "bufferView": 5,
      "byteOffset": 95160,
      "componentType": 5126,
      "count": 305,
      "type": "VEC3"
    },
    {
      "bufferView": 4,
      "byteOffset": 131760,
      "componentType": 5126,
      "count": 305,
      "type": "VEC4"
    },
    {
      "bufferView": 5,
      "byteOffset": 98820,
      "componentType": 5126,
      "count": 305,
      "type": "VEC3"
    },
    {
      "bufferView": 4,
      "byteOffset": 136640,
      "componentType": 5126,
      "count": 305,
      "type": "VEC4"
    },
    {
      "bufferView": 5,
      "byteOffset": 102480,
      "componentType": 5126,
      "count": 305,
      "type": "VEC3"
    },
    {
      "bufferView": 4,
      "byteOffset": 141520,
      "componentType": 5126,
      "count": 305,
      "type": "VEC4"
    },
    {
      "bufferView": 5,
      "byteOffset": 106140,
      "componentType": 5126,
      "count": 305,
      "type": "VEC3"
    },
    {
      "bufferView": 4,
      "byteOffset": 146400,
      "componentType": 5126,
      "count": 305,
      "type": "VEC4"
    },
    {
      "bufferView": 5,
      "byteOffset": 109800,
      "componentType": 5126,
      "count": 305,
      "type": "VEC3"
    },
    {
      "bufferView": 4,
      "byteOffset": 151280,
      "componentType": 5126,
      "count": 305,
      "type": "VEC4"
    },
    {
      "bufferView": 5,
      "byteOffset": 113460,
      "componentType": 5126,
      "count": 305,
      "type": "VEC3"
    },
    {
      "bufferView": 4,
      "byteOffset": 156160,
      "componentType": 5126,
      "count": 305,
      "type": "VEC4"
    },
    {
      "bufferView": 5,
      "byteOffset": 117120,
      "componentType": 5126,
      "count": 305,
      "type": "VEC3"
    },
    {
      "bufferView": 4,
      "byteOffset": 161040,
      "componentType": 5126,
      "count": 305,
      "type": "VEC4"
    },
    {
      "bufferView": 5,
      "byteOffset": 120780,
      "componentType": 5126,
      "count": 305,
      "type": "VEC3"
    },
    {
      "bufferView": 4,
      "byteOffset": 165920,
      "componentType": 5126,
      "count": 305,
      "type": "VEC4"
    },
    {
      "bufferView": 5,
      "byteOffset": 124440,
      "componentType": 5126,
      "count": 305,
      "type": "VEC3"
    },
    {
      "bufferView": 4,
      "byteOffset": 170800,
      "componentType": 5126,
      "count": 305,
      "type": "VEC4"
    },
    {
      "bufferView": 5,
      "byteOffset": 128100,
      "componentType": 5126,
      "count": 305,
      "type": "VEC3"
    },
    {
      "bufferView": 4,
      "byteOffset": 175680,
      "componentType": 5126,
      "count": 305,
      "type": "VEC4"
    },
    {
      "bufferView": 5,
      "byteOffset": 131760,
      "componentType": 5126,
      "count": 305,
      "type": "VEC3"
    },
    {
      "bufferView": 4,
      "byteOffset": 180560,
      "componentType": 5126,
      "count": 305,
      "type": "VEC4"
    },
    {
      "bufferView": 5,
      "byteOffset": 135420,
      "componentType": 5126,
      "count": 305,
      "type": "VEC3"
    },
    {
      "bufferView": 4,
      "byteOffset": 185440,
      "componentType": 5126,
      "count": 305,
      "type": "VEC4"
    },
    {
      "bufferView": 5,
      "byteOffset": 139080,
      "componentType": 5126,
      "count": 305,
      "type": "VEC3"
    }
  ],
  "skins": [
    {
      "name": "skin0",
      "inverseBindMatrices": 6,
      "joints": [
        30,
        6,
        7,
        2,
        18,
        20,
        19,
        21,
        28,
        29,
        31,
        34,
        3,
        36,
        39,
        37,
        38,
        35,
        27,
        22,
        24,
        26,
        25,
        23,
        8,
        10,
        9,
        11,
        4,
        5,
        12,
        17,
        14,
        15,
        16,
        13
      ]
    }
  ],
  "meshes": [
    {
      "name": "character_neutral_polarbear",
      "primitives": [
        {
          "attributes": {
            "POSITION": 1,
            "NORMAL": 2,
            "TEXCOORD_0": 3,
            "WEIGHTS_0": 4,
            "JOINTS_0": 5
          },
          "indices": 0,
          "mode": 4,
          "material": 0
        }
      ]
    }
  ],
  "animations": [
    {
      "channels": [
        {
          "sampler": 0,
          "target": {
            "node": 1,
            "path": "rotation"
          }
        },
        {
          "sampler": 1,
          "target": {
            "node": 1,
            "path": "translation"
          }
        },
        {
          "sampler": 2,
          "target": {
            "node": 2,
            "path": "rotation"
          }
        },
        {
          "sampler": 3,
          "target": {
            "node": 2,
            "path": "translation"
          }
        },
        {
          "sampler": 4,
          "target": {
            "node": 3,
            "path": "rotation"
          }
        },
        {
          "sampler": 5,
          "target": {
            "node": 3,
            "path": "translation"
          }
        },
        {
          "sampler": 6,
          "target": {
            "node": 4,
            "path": "rotation"
          }
        },
        {
          "sampler": 7,
          "target": {
            "node": 4,
            "path": "translation"
          }
        },
        {
          "sampler": 8,
          "target": {
            "node": 5,
            "path": "rotation"
          }
        },
        {
          "sampler": 9,
          "target": {
            "node": 5,
            "path": "translation"
          }
        },
        {
          "sampler": 10,
          "target": {
            "node": 6,
            "path": "rotation"
          }
        },
        {
          "sampler": 11,
          "target": {
            "node": 6,
            "path": "translation"
          }
        },
        {
          "sampler": 12,
          "target": {
            "node": 7,
            "path": "rotation"
          }
        },
        {
          "sampler": 13,
          "target": {
            "node": 7,
            "path": "translation"
          }
        },
        {
          "sampler": 14,
          "target": {
            "node": 8,
            "path": "rotation"
          }
        },
        {
          "sampler": 15,
          "target": {
            "node": 8,
            "path": "translation"
          }
        },
        {
          "sampler": 16,
          "target": {
            "node": 9,
            "path": "rotation"
          }
        },
        {
          "sampler": 17,
          "target": {
            "node": 9,
            "path": "translation"
          }
        },
        {
          "sampler": 18,
          "target": {
            "node": 10,
            "path": "rotation"
          }
        },
        {
          "sampler": 19,
          "target": {
            "node": 10,
            "path": "translation"
          }
        },
        {
          "sampler": 20,
          "target": {
            "node": 11,
            "path": "rotation"
          }
        },
        {
          "sampler": 21,
          "target": {
            "node": 11,
            "path": "translation"
          }
        },
        {
          "sampler": 22,
          "target": {
            "node": 12,
            "path": "rotation"
          }
        },
        {
          "sampler": 23,
          "target": {
            "node": 12,
            "path": "translation"
          }
        },
        {
          "sampler": 24,
          "target": {
            "node": 13,
            "path": "rotation"
          }
        },
        {
          "sampler": 25,
          "target": {
            "node": 13,
            "path": "translation"
          }
        },
        {
          "sampler": 26,
          "target": {
            "node": 14,
            "path": "rotation"
          }
        },
        {
          "sampler": 27,
          "target": {
            "node": 14,
            "path": "translation"
          }
        },
        {
          "sampler": 28,
          "target": {
            "node": 15,
            "path": "rotation"
          }
        },
        {
          "sampler": 29,
          "target": {
            "node": 15,
            "path": "translation"
          }
        },
        {
          "sampler": 30,
          "target": {
            "node": 16,
            "path": "rotation"
          }
        },
        {
          "sampler": 31,
          "target": {
            "node": 16,
            "path": "translation"
          }
        },
        {
          "sampler": 32,
          "target": {
            "node": 17,
            "path": "rotation"
          }
        },
        {
          "sampler": 33,
          "target": {
            "node": 17,
            "path": "translation"
          }
        },
        {
          "sampler": 34,
          "target": {
            "node": 18,
            "path": "rotation"
          }
        },
        {
          "sampler": 35,
          "target": {
            "node": 18,
            "path": "translation"
          }
        },
        {
          "sampler": 36,
          "target": {
            "node": 19,
            "path": "rotation"
          }
        },
        {
          "sampler": 37,
          "target": {
            "node": 19,
            "path": "translation"
          }
        },
        {
          "sampler": 38,
          "target": {
            "node": 20,
            "path": "rotation"
          }
        },
        {
          "sampler": 39,
          "target": {
            "node": 20,
            "path": "translation"
          }
        },
        {
          "sampler": 40,
          "target": {
            "node": 21,
            "path": "rotation"
          }
        },
        {
          "sampler": 41,
          "target": {
            "node": 21,
            "path": "translation"
          }
        },
        {
          "sampler": 42,
          "target": {
            "node": 22,
            "path": "rotation"
          }
        },
        {
          "sampler": 43,
          "target": {
            "node": 22,
            "path": "translation"
          }
        },
        {
          "sampler": 44,
          "target": {
            "node": 23,
            "path": "rotation"
          }
        },
        {
          "sampler": 45,
          "target": {
            "node": 23,
            "path": "translation"
          }
        },
        {
          "sampler": 46,
          "target": {
            "node": 24,
            "path": "rotation"
          }
        },
        {
          "sampler": 47,
          "target": {
            "node": 24,
            "path": "translation"
          }
        },
        {
          "sampler": 48,
          "target": {
            "node": 25,
            "path": "rotation"
          }
        },
        {
          "sampler": 49,
          "target": {
            "node": 25,
            "path": "translation"
          }
        },
        {
          "sampler": 50,
          "target": {
            "node": 26,
            "path": "rotation"
          }
        },
        {
          "sampler": 51,
          "target": {
            "node": 26,
            "path": "translation"
          }
        },
        {
          "sampler": 52,
          "target": {
            "node": 27,
            "path": "rotation"
          }
        },
        {
          "sampler": 53,
          "target": {
            "node": 27,
            "path": "translation"
          }
        },
        {
          "sampler": 54,
          "target": {
            "node": 28,
            "path": "rotation"
          }
        },
        {
          "sampler": 55,
          "target": {
            "node": 28,
            "path": "translation"
          }
        },
        {
          "sampler": 56,
          "target": {
            "node": 29,
            "path": "rotation"
          }
        },
        {
          "sampler": 57,
          "target": {
            "node": 29,
            "path": "translation"
          }
        },
        {
          "sampler": 58,
          "target": {
            "node": 30,
            "path": "rotation"
          }
        },
        {
          "sampler": 59,
          "target": {
            "node": 30,
            "path": "translation"
          }
        },
        {
          "sampler": 60,
          "target": {
            "node": 31,
            "path": "rotation"
          }
        },
        {
          "sampler": 61,
          "target": {
            "node": 31,
            "path": "translation"
          }
        },
        {
          "sampler": 62,
          "target": {
            "node": 32,
            "path": "rotation"
          }
        },
        {
          "sampler": 63,
          "target": {
            "node": 32,
            "path": "translation"
          }
        },
        {
          "sampler": 64,
          "target": {
            "node": 33,
            "path": "rotation"
          }
        },
        {
          "sampler": 65,
          "target": {
            "node": 33,
            "path": "translation"
          }
        },
        {
          "sampler": 66,
          "target": {
            "node": 34,
            "path": "rotation"
          }
        },
        {
          "sampler": 67,
          "target": {
            "node": 34,
            "path": "translation"
          }
        },
        {
          "sampler": 68,
          "target": {
            "node": 35,
            "path": "rotation"
          }
        },
        {
          "sampler": 69,
          "target": {
            "node": 35,
            "path": "translation"
          }
        },
        {
          "sampler": 70,
          "target": {
            "node": 36,
            "path": "rotation"
          }
        },
        {
          "sampler": 71,
          "target": {
            "node": 36,
            "path": "translation"
          }
        },
        {
          "sampler": 72,
          "target": {
            "node": 37,
            "path": "rotation"
          }
        },
        {
          "sampler": 73,
          "target": {
            "node": 37,
            "path": "translation"
          }
        },
        {
          "sampler": 74,
          "target": {
            "node": 38,
            "path": "rotation"
          }
        },
        {
          "sampler": 75,
          "target": {
            "node": 38,
            "path": "translation"
          }
        },
        {
          "sampler": 76,
          "target": {
            "node": 39,
            "path": "rotation"
          }
        },
        {
          "sampler": 77,
          "target": {
            "node": 39,
            "path": "translation"
          }
        }
      ],
      "samplers": [
        {
          "input": 7,
          "output": 8,
          "interpolation": "LINEAR"
        },
        {
          "input": 7,
          "output": 9,
          "interpolation": "LINEAR"
        },
        {
          "input": 7,
          "output": 10,
          "interpolation": "LINEAR"
        },
        {
          "input": 7,
          "output": 11,
          "interpolation": "LINEAR"
        },
        {
          "input": 7,
          "output": 12,
          "interpolation": "LINEAR"
        },
        {
          "input": 7,
          "output": 13,
          "interpolation": "LINEAR"
        },
        {
          "input": 7,
          "output": 14,
          "interpolation": "LINEAR"
        },
        {
          "input": 7,
          "output": 15,
          "interpolation": "LINEAR"
        },
        {
          "input": 7,
          "output": 16,
          "interpolation": "LINEAR"
        },
        {
          "input": 7,
          "output": 17,
          "interpolation": "LINEAR"
        },
        {
          "input": 7,
          "output": 18,
          "interpolation": "LINEAR"
        },
        {
          "input": 7,
          "output": 19,
          "interpolation": "LINEAR"
        },
        {
          "input": 7,
          "output": 20,
          "interpolation": "LINEAR"
        },
        {
          "input": 7,
          "output": 21,
          "interpolation": "LINEAR"
        },
        {
          "input": 7,
          "output": 22,
          "interpolation": "LINEAR"
        },
        {
          "input": 7,
          "output": 23,
          "interpolation": "LINEAR"
        },
        {
          "input": 7,
          "output": 24,
          "interpolation": "LINEAR"
        },
        {
          "input": 7,
          "output": 25,
          "interpolation": "LINEAR"
        },
        {
          "input": 7,
          "output": 26,
          "interpolation": "LINEAR"
        },
        {
          "input": 7,
          "output": 27,
          "interpolation": "LINEAR"
        },
        {
          "input": 7,
          "output": 28,
          "interpolation": "LINEAR"
        },
        {
          "input": 7,
          "output": 29,
          "interpolation": "LINEAR"
        },
        {
          "input": 7,
          "output": 30,
          "interpolation": "LINEAR"
        },
        {
          "input": 7,
          "output": 31,
          "interpolation": "LINEAR"
        },
        {
          "input": 7,
          "output": 32,
          "interpolation": "LINEAR"
        },
        {
          "input": 7,
          "output": 33,
          "interpolation": "LINEAR"
        },
        {
          "input": 7,
          "output": 34,
          "interpolation": "LINEAR"
        },
        {
          "input": 7,
          "output": 35,
          "interpolation": "LINEAR"
        },
        {
          "input": 7,
          "output": 36,
          "interpolation": "LINEAR"
        },
        {
          "input": 7,
          "output": 37,
          "interpolation": "LINEAR"
        },
        {
          "input": 7,
          "output": 38,
          "interpolation": "LINEAR"
        },
        {
          "input": 7,
          "output": 39,
          "interpolation": "LINEAR"
        },
        {
          "input": 7,
          "output": 40,
          "interpolation": "LINEAR"
        },
        {
          "input": 7,
          "output": 41,
          "interpolation": "LINEAR"
        },
        {
          "input": 7,
          "output": 42,
          "interpolation": "LINEAR"
        },
        {
          "input": 7,
          "output": 43,
          "interpolation": "LINEAR"
        },
        {
          "input": 7,
          "output": 44,
          "interpolation": "LINEAR"
        },
        {
          "input": 7,
          "output": 45,
          "interpolation": "LINEAR"
        },
        {
          "input": 7,
          "output": 46,
          "interpolation": "LINEAR"
        },
        {
          "input": 7,
          "output": 47,
          "interpolation": "LINEAR"
        },
        {
          "input": 7,
          "output": 48,
          "interpolation": "LINEAR"
        },
        {
          "input": 7,
          "output": 49,
          "interpolation": "LINEAR"
        },
        {
          "input": 7,
          "output": 50,
          "interpolation": "LINEAR"
        },
        {
          "input": 7,
          "output": 51,
          "interpolation": "LINEAR"
        },
        {
          "input": 7,
          "output": 52,
          "interpolation": "LINEAR"
        },
        {
          "input": 7,
          "output": 53,
          "interpolation": "LINEAR"
        },
        {
          "input": 7,
          "output": 54,
          "interpolation": "LINEAR"
        },
        {
          "input": 7,
          "output": 55,
          "interpolation": "LINEAR"
        },
        {
          "input": 7,
          "output": 56,
          "interpolation": "LINEAR"
        },
        {
          "input": 7,
          "output": 57,
          "interpolation": "LINEAR"
        },
        {
          "input": 7,
          "output": 58,
          "interpolation": "LINEAR"
        },
        {
          "input": 7,
          "output": 59,
          "interpolation": "LINEAR"
        },
        {
          "input": 7,
          "output": 60,
          "interpolation": "LINEAR"
        },
        {
          "input": 7,
          "output": 61,
          "interpolation": "LINEAR"
        },
        {
          "input": 7,
          "output": 62,
          "interpolation": "LINEAR"
        },
        {
          "input": 7,
          "output": 63,
          "interpolation": "LINEAR"
        },
        {
          "input": 7,
          "output": 64,
          "interpolation": "LINEAR"
        },
        {
          "input": 7,
          "output": 65,
          "interpolation": "LINEAR"
        },
        {
          "input": 7,
          "output": 66,
          "interpolation": "LINEAR"
        },
        {
          "input": 7,
          "output": 67,
          "interpolation": "LINEAR"
        },
        {
          "input": 7,
          "output": 68,
          "interpolation": "LINEAR"
        },
        {
          "input": 7,
          "output": 69,
          "interpolation": "LINEAR"
        },
        {
          "input": 7,
          "output": 70,
          "interpolation": "LINEAR"
        },
        {
          "input": 7,
          "output": 71,
          "interpolation": "LINEAR"
        },
        {
          "input": 7,
          "output": 72,
          "interpolation": "LINEAR"
        },
        {
          "input": 7,
          "output": 73,
          "interpolation": "LINEAR"
        },
        {
          "input": 7,
          "output": 74,
          "interpolation": "LINEAR"
        },
        {
          "input": 7,
          "output": 75,
          "interpolation": "LINEAR"
        },
        {
          "input": 7,
          "output": 76,
          "interpolation": "LINEAR"
        },
        {
          "input": 7,
          "output": 77,
          "interpolation": "LINEAR"
        },
        {
          "input": 7,
          "output": 78,
          "interpolation": "LINEAR"
        },
        {
          "input": 7,
          "output": 79,
          "interpolation": "LINEAR"
        },
        {
          "input": 7,
          "output": 80,
          "interpolation": "LINEAR"
        },
        {
          "input": 7,
          "output": 81,
          "interpolation": "LINEAR"
        },
        {
          "input": 7,
          "output": 82,
          "interpolation": "LINEAR"
        },
        {
          "input": 7,
          "output": 83,
          "interpolation": "LINEAR"
        },
        {
          "input": 7,
          "output": 84,
          "interpolation": "LINEAR"
        },
        {
          "input": 7,
          "output": 85,
          "interpolation": "LINEAR"
        }
      ]
    }
  ],
  "bufferViews": [
    {
      "name": "mesh_indexes_character_neutral_polarbear",
      "buffer": 0,
      "byteOffset": 0,
      "byteLength": 38208,
      "target": 34963
    },
    {
      "name": "mesh_vertexes_character_neutral_polarbear",
      "buffer": 0,
      "byteOffset": 38208,
      "byteLength": 117832,
      "byteStride": 52,
      "target": 34962
    },
    {
      "name": "mesh_bones_character_neutral_polarbear",
      "buffer": 0,
      "byteOffset": 156040,
      "byteLength": 2304
    },
    {
      "name": "frames",
      "buffer": 0,
      "byteOffset": 158344,
      "byteLength": 1220
    },
    {
      "name": "bones_rotate",
      "buffer": 0,
      "byteOffset": 159564,
      "byteLength": 190320
    },
    {
      "name": "bones_translate",
      "buffer": 0,
      "byteOffset": 349884,
      "byteLength": 142740
    }
  ],
  "buffers": [
    {
      "uri": "character_neutrals_polarbear.bin",
      "byteLength": 492624
    }
  ],
  "images": [
    {
      "uri": "character_neutrals_polarbear.dds"
    }
  ],
  "textures": [
    {
      "source": 0
    }
  ],
  "materials": [
    {
      "name": "material0",
      "alphaMode": "MASK",
      "pbrMetallicRoughness": {
        "baseColorTexture": {
          "index": 0,
          "texCoord": 0
        },
        "metallicFactor": 0.0
      },
      "emissiveFactor": [
        0.0,
        0.0,
        0.0
      ]
    }
  ]
}