{
  "asset": {
    "version": "2.0",
    "generator": "generated with dis3tool v1.1 by root.ext@gmail.com"
  },
  "scenes": [
    {
      "nodes": [
        0,
        1,
        2,
        3,
        4
      ]
    }
  ],
  "scene": 0,
  "nodes": [
    {
      "name": "neutrals_dwarf_hair",
      "mesh": 0,
      "skin": 0
    },
    {
      "name": "neutrals_dwarf",
      "mesh": 1,
      "skin": 1
    },
    {
      "name": "neutrals_dwarf_shield",
      "mesh": 2,
      "skin": 2
    },
    {
      "name": "weapon_neutral_dwarf",
      "mesh": 3,
      "skin": 3
    },
    {
      "name": "Root",
      "rotation": [
        1.09464509E-07,
        0.740652442,
        0.671888351,
        -1.20667607E-07
      ],
      "translation": [
        0.0,
        0.0,
        0.0
      ],
      "children": [
        5,
        47
      ]
    },
    {
      "name": "Hips",
      "rotation": [
        0.000337635283,
        0.008764449,
        0.2456114,
        0.969328642
      ],
      "translation": [
        -0.06173127,
        0.106316909,
        0.671624
      ],
      "children": [
        6,
        35,
        39,
        43,
        45
      ]
    },
    {
      "name": "Spine",
      "rotation": [
        -0.006937493,
        0.08494411,
        0.9955176,
        -0.04099888
      ],
      "translation": [
        5.859228E-09,
        5.75629056E-09,
        0.1949764
      ],
      "children": [
        7,
        12,
        24
      ]
    },
    {
      "name": "Neck",
      "rotation": [
        -0.0444498174,
        0.203710929,
        0.970197856,
        0.123458311
      ],
      "translation": [
        -2.88104784E-09,
        5.78559458E-08,
        0.300553858
      ],
      "children": [
        8
      ]
    },
    {
      "name": "Head",
      "rotation": [
        0.03652985,
        -0.112000987,
        -0.134653479,
        0.983864665
      ],
      "translation": [
        -4.961242E-10,
        4.166767E-08,
        0.07279545
      ],
      "children": [
        9,
        10
      ]
    },
    {
      "name": "Mouth",
      "rotation": [
        -0.02366429,
        -0.0170471426,
        -0.707226634,
        0.7063847
      ],
      "translation": [
        -3.733115E-08,
        -0.099422276,
        0.0453079231
      ]
    },
    {
      "name": "Bread01",
      "rotation": [
        0.07244109,
        0.2945068,
        -0.54320085,
        0.7829116
      ],
      "translation": [
        -6.310112E-08,
        -0.173761755,
        -0.00745801069
      ],
      "children": [
        11
      ]
    },
    {
      "name": "Bread02",
      "rotation": [
        0.05561683,
        0.0841432,
        0.0812828839,
        0.9915742
      ],
      "translation": [
        0.104529433,
        -4.700015E-09,
        -4.25284377E-08
      ]
    },
    {
      "name": "LeftShoulder",
      "rotation": [
        0.307948858,
        0.61051023,
        0.489760339,
        0.5409058
      ],
      "translation": [
        0.129967973,
        0.0204961225,
        0.200504437
      ],
      "children": [
        13,
        23
      ]
    },
    {
      "name": "LeftArm",
      "rotation": [
        0.5655438,
        0.102651186,
        0.19701919,
        0.794233143
      ],
      "translation": [
        -2.38137758E-08,
        9.813487E-09,
        0.153980315
      ],
      "children": [
        14
      ]
    },
    {
      "name": "LeftForeArm",
      "rotation": [
        -0.0161796324,
        0.402549535,
        -0.325707525,
        0.8553399
      ],
      "translation": [
        -7.88325849E-08,
        -2.75208336E-08,
        0.222971588
      ],
      "children": [
        15,
        22
      ]
    },
    {
      "name": "LeftHand",
      "rotation": [
        -0.00330112735,
        0.1502203,
        0.0217482839,
        0.988407731
      ],
      "translation": [
        -6.392831E-08,
        -1.31742141E-07,
        0.24205941
      ],
      "children": [
        16,
        18,
        20
      ]
    },
    {
      "name": "LeftFinger_01",
      "rotation": [
        0.352662176,
        0.261184961,
        -0.204214618,
        0.8750474
      ],
      "translation": [
        -1.709657E-08,
        -8.884059E-08,
        0.158648908
      ],
      "children": [
        17
      ]
    },
    {
      "name": "LeftFinger_02",
      "rotation": [
        -0.18603228,
        0.4443713,
        -0.619734764,
        0.61956
      ],
      "translation": [
        -3.27207239E-08,
        -6.74945539E-08,
        0.0595146157
      ]
    },
    {
      "name": "LeftFinger_03",
      "rotation": [
        0.414371073,
        -0.191454008,
        0.3806182,
        0.8042211
      ],
      "translation": [
        -0.06674136,
        -0.0268011168,
        0.123621136
      ],
      "children": [
        19
      ]
    },
    {
      "name": "LeftFinger_04",
      "rotation": [
        -0.06365168,
        -0.551986039,
        0.816750765,
        0.155492291
      ],
      "translation": [
        -4.28607E-09,
        2.90837079E-08,
        0.06041704
      ]
    },
    {
      "name": "LeftThumb_01",
      "rotation": [
        0.19853051,
        0.190691113,
        -0.4181747,
        0.8656513
      ],
      "translation": [
        0.07555843,
        -0.004302719,
        0.0891103148
      ],
      "children": [
        21
      ]
    },
    {
      "name": "LeftThumb_02",
      "rotation": [
        0.256909519,
        -0.0517836846,
        0.105196036,
        0.9592964
      ],
      "translation": [
        -5.721713E-09,
        -1.41424854E-08,
        0.05967367
      ]
    },
    {
      "name": "Weapon2",
      "rotation": [
        -0.008273356,
        -0.0249582864,
        0.3901018,
        0.9203961
      ],
      "translation": [
        -0.0383487046,
        0.131007686,
        -0.0604700036
      ]
    },
    {
      "name": "LeftShoulderShield",
      "rotation": [
        -0.412574619,
        -0.0167066325,
        0.005227896,
        0.9107555
      ],
      "translation": [
        -0.009751972,
        -0.0161643587,
        0.0767483
      ]
    },
    {
      "name": "RightShoulder",
      "rotation": [
        0.5546512,
        -0.374690682,
        -0.3189288,
        0.6710088
      ],
      "translation": [
        -0.129967988,
        0.0204961337,
        0.200504541
      ],
      "children": [
        25,
        34
      ]
    },
    {
      "name": "RightArm",
      "rotation": [
        0.459627569,
        0.180313587,
        -0.0653517,
        0.8671553
      ],
      "translation": [
        -5.785537E-08,
        2.56890225E-08,
        0.153980434
      ],
      "children": [
        26
      ]
    },
    {
      "name": "RightForeArm",
      "rotation": [
        -0.0156927779,
        -0.372333348,
        0.3326886,
        0.866279066
      ],
      "translation": [
        -3.856448E-08,
        -6.69332962E-08,
        0.222971767
      ],
      "children": [
        27
      ]
    },
    {
      "name": "RightHand",
      "rotation": [
        0.199201167,
        -0.155077443,
        0.196612671,
        0.9474244
      ],
      "translation": [
        4.80274238E-08,
        -1.64240852E-08,
        0.242059261
      ],
      "children": [
        28,
        30,
        32
      ]
    },
    {
      "name": "RightFinger_01",
      "rotation": [
        0.412351,
        -0.306143075,
        0.209302962,
        0.8321268
      ],
      "translation": [
        5.10477847E-08,
        -6.503337E-08,
        0.1586492
      ],
      "children": [
        29
      ]
    },
    {
      "name": "RightFinger_02",
      "rotation": [
        -0.159763873,
        -0.6185427,
        0.561718643,
        0.525692046
      ],
      "translation": [
        2.22696031E-08,
        -1.47640442E-08,
        0.059514273
      ]
    },
    {
      "name": "RightFinger_03",
      "rotation": [
        0.4590462,
        0.188530415,
        -0.342698425,
        0.797678053
      ],
      "translation": [
        0.0667415261,
        -0.0268011466,
        0.12362133
      ],
      "children": [
        31
      ]
    },
    {
      "name": "RightFinger_04",
      "rotation": [
        0.07866783,
        -0.6297813,
        0.7583821,
        -0.148470134
      ],
      "translation": [
        2.09484057E-08,
        1.83510434E-08,
        0.0604166165
      ]
    },
    {
      "name": "RightThumb_01",
      "rotation": [
        0.04086684,
        -0.5428178,
        0.751509,
        0.37270996
      ],
      "translation": [
        -0.0755578354,
        -0.004303028,
        0.08910984
      ],
      "children": [
        33
      ]
    },
    {
      "name": "RightThumb_02",
      "rotation": [
        0.382284224,
        0.0373291448,
        -0.11116489,
        0.9165737
      ],
      "translation": [
        5.52952244E-08,
        6.856997E-09,
        0.0596737377
      ]
    },
    {
      "name": "RightShoulderShield",
      "rotation": [
        -0.448466361,
        -0.148031518,
        -0.0239116624,
        0.8811314
      ],
      "translation": [
        0.009751944,
        -0.0161594618,
        0.07674858
      ]
    },
    {
      "name": "LeftUpLeg",
      "rotation": [
        0.833639264,
        -0.415832937,
        -0.005155843,
        0.363457978
      ],
      "translation": [
        -0.159750044,
        -0.0036622202,
        -0.08860378
      ],
      "children": [
        36
      ]
    },
    {
      "name": "LeftLeg",
      "rotation": [
        -0.0372881964,
        -0.528531432,
        0.765696168,
        0.364655048
      ],
      "translation": [
        -8.222496E-08,
        -4.742815E-08,
        0.246188357
      ],
      "children": [
        37
      ]
    },
    {
      "name": "LeftFoot",
      "rotation": [
        -0.118576184,
        0.7036409,
        -0.67887187,
        0.173095465
      ],
      "translation": [
        -8.743126E-10,
        -6.85746855E-08,
        0.2921673
      ],
      "children": [
        38
      ]
    },
    {
      "name": "LeftFoot_01",
      "rotation": [
        -0.231535837,
        -1.52807478E-09,
        -7.901972E-09,
        0.9728263
      ],
      "translation": [
        -2.07107078E-08,
        -4.297183E-08,
        0.211136371
      ]
    },
    {
      "name": "RightUpLeg",
      "rotation": [
        0.929266334,
        0.332043976,
        0.149553463,
        0.0620042421
      ],
      "translation": [
        0.15974997,
        -0.00366229238,
        -0.0886042
      ],
      "children": [
        40
      ]
    },
    {
      "name": "RightLeg",
      "rotation": [
        0.0217756554,
        -0.256565571,
        0.881737053,
        -0.39527142
      ],
      "translation": [
        -3.28162066E-08,
        -1.92223677E-08,
        0.246187478
      ],
      "children": [
        41
      ]
    },
    {
      "name": "RightFoot",
      "rotation": [
        -0.0273538269,
        0.7281658,
        -0.6425849,
        -0.236877114
      ],
      "translation": [
        1.41814152E-08,
        -8.20107857E-08,
        0.292167276
      ],
      "children": [
        42
      ]
    },
    {
      "name": "RightFoot_01",
      "rotation": [
        -0.231536418,
        -2.46783527E-09,
        9.336002E-09,
        0.9728262
      ],
      "translation": [
        -1.638983E-08,
        -5.05456335E-08,
        0.211136624
      ]
    },
    {
      "name": "SkirtFront_01",
      "rotation": [
        0.9975552,
        0.0624058,
        -0.000939548656,
        0.0314340442
      ],
      "translation": [
        -2.77102119E-09,
        -0.2551593,
        -0.0552792922
      ],
      "children": [
        44
      ]
    },
    {
      "name": "SkirtFront_02",
      "rotation": [
        -0.0237302948,
        0.006816929,
        -0.004417235,
        0.999685347
      ],
      "translation": [
        2.07824424E-10,
        -5.90944538E-09,
        0.2050043
      ]
    },
    {
      "name": "SkirtBack_01",
      "rotation": [
        -0.08089823,
        0.991562843,
        0.0962617,
        -0.031497743
      ],
      "translation": [
        1.1254472E-08,
        0.177260637,
        -0.0291256942
      ],
      "children": [
        46
      ]
    },
    {
      "name": "SkirtBack_02",
      "rotation": [
        0.13210541,
        0.0391458943,
        -0.0241202861,
        0.9901686
      ],
      "translation": [
        -2.61349165E-10,
        -4.41937829E-08,
        0.194601879
      ]
    },
    {
      "name": "Weapon1",
      "rotation": [
        0.3223827,
        0.6496302,
        -0.4326775,
        0.5355743
      ],
      "translation": [
        0.162948385,
        0.6699202,
        0.586392939
      ],
      "children": [
        48
      ]
    },
    {
      "name": "Trail1",
      "rotation": [
        -0.6100436,
        0.08504857,
        0.78489697,
        0.06745507
      ],
      "translation": [
        0.432585061,
        -0.00311026885,
        1.08937013
      ],
      "children": [
        49
      ]
    },
    {
      "name": "Trail2",
      "rotation": [
        -1.10582821E-09,
        -1.61865842E-07,
        -4.8269E-07,
        1.00000012
      ],
      "translation": [
        0.3326869,
        -1.34069907E-07,
        1.10701862E-07
      ]
    }
  ],
  "accessors": [
    {
      "bufferView": 0,
      "byteOffset": 0,
      "componentType": 5125,
      "count": 120,
      "type": "SCALAR"
    },
    {
      "bufferView": 1,
      "byteOffset": 0,
      "componentType": 5126,
      "count": 36,
      "type": "VEC3",
      "min": [
        -0.204809487,
        1.259501,
        -0.181927562
      ],
      "max": [
        0.204809487,
        1.37405932,
        0.121091671
      ]
    },
    {
      "bufferView": 1,
      "byteOffset": 12,
      "componentType": 5126,
      "count": 36,
      "type": "VEC3"
    },
    {
      "bufferView": 1,
      "byteOffset": 24,
      "componentType": 5126,
      "count": 36,
      "type": "VEC2"
    },
    {
      "bufferView": 1,
      "byteOffset": 32,
      "componentType": 5126,
      "count": 36,
      "type": "VEC4"
    },
    {
      "bufferView": 1,
      "byteOffset": 48,
      "componentType": 5121,
      "count": 36,
      "type": "VEC4"
    },
    {
      "bufferView": 2,
      "byteOffset": 0,
      "componentType": 5126,
      "count": 1,
      "type": "MAT4"
    },
    {
      "bufferView": 3,
      "byteOffset": 0,
      "componentType": 5125,
      "count": 13938,
      "type": "SCALAR"
    },
    {
      "bufferView": 4,
      "byteOffset": 0,
      "componentType": 5126,
      "count": 3352,
      "type": "VEC3",
      "min": [
        -0.699180841,
        -0.00072048,
        -0.404324144
      ],
      "max": [
        0.699180841,
        1.52302241,
        0.227724761
      ]
    },
    {
      "bufferView": 4,
      "byteOffset": 12,
      "componentType": 5126,
      "count": 3352,
      "type": "VEC3"
    },
    {
      "bufferView": 4,
      "byteOffset": 24,
      "componentType": 5126,
      "count": 3352,
      "type": "VEC2"
    },
    {
      "bufferView": 4,
      "byteOffset": 32,
      "componentType": 5126,
      "count": 3352,
      "type": "VEC4"
    },
    {
      "bufferView": 4,
      "byteOffset": 48,
      "componentType": 5121,
      "count": 3352,
      "type": "VEC4"
    },
    {
      "bufferView": 5,
      "byteOffset": 0,
      "componentType": 5126,
      "count": 41,
      "type": "MAT4"
    },
    {
      "bufferView": 6,
      "byteOffset": 0,
      "componentType": 5125,
      "count": 600,
      "type": "SCALAR"
    },
    {
      "bufferView": 7,
      "byteOffset": 0,
      "componentType": 5126,
      "count": 180,
      "type": "VEC3",
      "min": [
        0.680995464,
        -0.289558053,
        -0.32188198
      ],
      "max": [
        1.40525937,
        0.311873466,
        0.337225229
      ]
    },
    {
      "bufferView": 7,
      "byteOffset": 12,
      "componentType": 5126,
      "count": 180,
      "type": "VEC3"
    },
    {
      "bufferView": 7,
      "byteOffset": 24,
      "componentType": 5126,
      "count": 180,
      "type": "VEC2"
    },
    {
      "bufferView": 7,
      "byteOffset": 32,
      "componentType": 5126,
      "count": 180,
      "type": "VEC4"
    },
    {
      "bufferView": 7,
      "byteOffset": 48,
      "componentType": 5121,
      "count": 180,
      "type": "VEC4"
    },
    {
      "bufferView": 8,
      "byteOffset": 0,
      "componentType": 5126,
      "count": 1,
      "type": "MAT4"
    },
    {
      "bufferView": 9,
      "byteOffset": 0,
      "componentType": 5125,
      "count": 306,
      "type": "SCALAR"
    },
    {
      "bufferView": 10,
      "byteOffset": 0,
      "componentType": 5126,
      "count": 116,
      "type": "VEC3",
      "min": [
        -0.681539357,
        0.182229862,
        -1.01899326
      ],
      "max": [
        -0.5407789,
        0.6791252,
        0.0507124737
      ]
    },
    {
      "bufferView": 10,
      "byteOffset": 12,
      "componentType": 5126,
      "count": 116,
      "type": "VEC3"
    },
    {
      "bufferView": 10,
      "byteOffset": 24,
      "componentType": 5126,
      "count": 116,
      "type": "VEC2"
    },
    {
      "bufferView": 10,
      "byteOffset": 32,
      "componentType": 5126,
      "count": 116,
      "type": "VEC4"
    },
    {
      "bufferView": 10,
      "byteOffset": 48,
      "componentType": 5121,
      "count": 116,
      "type": "VEC4"
    },
    {
      "bufferView": 11,
      "byteOffset": 0,
      "componentType": 5126,
      "count": 1,
      "type": "MAT4"
    },
    {
      "bufferView": 12,
      "byteOffset": 0,
      "componentType": 5126,
      "count": 346,
      "type": "SCALAR",
      "min": [
        0.0
      ],
      "max": [
        11.500001
      ]
    },
    {
      "bufferView": 13,
      "byteOffset": 0,
      "componentType": 5126,
      "count": 346,
      "type": "VEC4"
    },
    {
      "bufferView": 14,
      "byteOffset": 0,
      "componentType": 5126,
      "count": 346,
      "type": "VEC3"
    },
    {
      "bufferView": 13,
      "byteOffset": 5536,
      "componentType": 5126,
      "count": 346,
      "type": "VEC4"
    },
    {
      "bufferView": 14,
      "byteOffset": 4152,
      "componentType": 5126,
      "count": 346,
      "type": "VEC3"
    },
    {
      "bufferView": 13,
      "byteOffset": 11072,
      "componentType": 5126,
      "count": 346,
      "type": "VEC4"
    },
    {
      "bufferView": 14,
      "byteOffset": 8304,
      "componentType": 5126,
      "count": 346,
      "type": "VEC3"
    },
    {
      "bufferView": 13,
      "byteOffset": 16608,
      "componentType": 5126,
      "count": 346,
      "type": "VEC4"
    },
    {
      "bufferView": 14,
      "byteOffset": 12456,
      "componentType": 5126,
      "count": 346,
      "type": "VEC3"
    },
    {
      "bufferView": 13,
      "byteOffset": 22144,
      "componentType": 5126,
      "count": 346,
      "type": "VEC4"
    },
    {
      "bufferView": 14,
      "byteOffset": 16608,
      "componentType": 5126,
      "count": 346,
      "type": "VEC3"
    },
    {
      "bufferView": 13,
      "byteOffset": 27680,
      "componentType": 5126,
      "count": 346,
      "type": "VEC4"
    },
    {
      "bufferView": 14,
      "byteOffset": 20760,
      "componentType": 5126,
      "count": 346,
      "type": "VEC3"
    },
    {
      "bufferView": 13,
      "byteOffset": 33216,
      "componentType": 5126,
      "count": 346,
      "type": "VEC4"
    },
    {
      "bufferView": 14,
      "byteOffset": 24912,
      "componentType": 5126,
      "count": 346,
      "type": "VEC3"
    },
    {
      "bufferView": 13,
      "byteOffset": 38752,
      "componentType": 5126,
      "count": 346,
      "type": "VEC4"
    },
    {
      "bufferView": 14,
      "byteOffset": 29064,
      "componentType": 5126,
      "count": 346,
      "type": "VEC3"
    },
    {
      "bufferView": 13,
      "byteOffset": 44288,
      "componentType": 5126,
      "count": 346,
      "type": "VEC4"
    },
    {
      "bufferView": 14,
      "byteOffset": 33216,
      "componentType": 5126,
      "count": 346,
      "type": "VEC3"
    },
    {
      "bufferView": 13,
      "byteOffset": 49824,
      "componentType": 5126,
      "count": 346,
      "type": "VEC4"
    },
    {
      "bufferView": 14,
      "byteOffset": 37368,
      "componentType": 5126,
      "count": 346,
      "type": "VEC3"
    },
    {
      "bufferView": 13,
      "byteOffset": 55360,
      "componentType": 5126,
      "count": 346,
      "type": "VEC4"
    },
    {
      "bufferView": 14,
      "byteOffset": 41520,
      "componentType": 5126,
      "count": 346,
      "type": "VEC3"
    },
    {
      "bufferView": 13,
      "byteOffset": 60896,
      "componentType": 5126,
      "count": 346,
      "type": "VEC4"
    },
    {
      "bufferView": 14,
      "byteOffset": 45672,
      "componentType": 5126,
      "count": 346,
      "type": "VEC3"
    },
    {
      "bufferView": 13,
      "byteOffset": 66432,
      "componentType": 5126,
      "count": 346,
      "type": "VEC4"
    },
    {
      "bufferView": 14,
      "byteOffset": 49824,
      "componentType": 5126,
      "count": 346,
      "type": "VEC3"
    },
    {
      "bufferView": 13,
      "byteOffset": 71968,
      "componentType": 5126,
      "count": 346,
      "type": "VEC4"
    },
    {
      "bufferView": 14,
      "byteOffset": 53976,
      "componentType": 5126,
      "count": 346,
      "type": "VEC3"
    },
    {
      "bufferView": 13,
      "byteOffset": 77504,
      "componentType": 5126,
      "count": 346,
      "type": "VEC4"
    },
    {
      "bufferView": 14,
      "byteOffset": 58128,
      "componentType": 5126,
      "count": 346,
      "type": "VEC3"
    },
    {
      "bufferView": 13,
      "byteOffset": 83040,
      "componentType": 5126,
      "count": 346,
      "type": "VEC4"
    },
    {
      "bufferView": 14,
      "byteOffset": 62280,
      "componentType": 5126,
      "count": 346,
      "type": "VEC3"
    },
    {
      "bufferView": 13,
      "byteOffset": 88576,
      "componentType": 5126,
      "count": 346,
      "type": "VEC4"
    },
    {
      "bufferView": 14,
      "byteOffset": 66432,
      "componentType": 5126,
      "count": 346,
      "type": "VEC3"
    },
    {
      "bufferView": 13,
      "byteOffset": 94112,
      "componentType": 5126,
      "count": 346,
      "type": "VEC4"
    },
    {
      "bufferView": 14,
      "byteOffset": 70584,
      "componentType": 5126,
      "count": 346,
      "type": "VEC3"
    },
    {
      "bufferView": 13,
      "byteOffset": 99648,
      "componentType": 5126,
      "count": 346,
      "type": "VEC4"
    },
    {
      "bufferView": 14,
      "byteOffset": 74736,
      "componentType": 5126,
      "count": 346,
      "type": "VEC3"
    },
    {
      "bufferView": 13,
      "byteOffset": 105184,
      "componentType": 5126,
      "count": 346,
      "type": "VEC4"
    },
    {
      "bufferView": 14,
      "byteOffset": 78888,
      "componentType": 5126,
      "count": 346,
      "type": "VEC3"
    },
    {
      "bufferView": 13,
      "byteOffset": 110720,
      "componentType": 5126,
      "count": 346,
      "type": "VEC4"
    },
    {
      "bufferView": 14,
      "byteOffset": 83040,
      "componentType": 5126,
      "count": 346,
      "type": "VEC3"
    },
    {
      "bufferView": 13,
      "byteOffset": 116256,
      "componentType": 5126,
      "count": 346,
      "type": "VEC4"
    },
    {
      "bufferView": 14,
      "byteOffset": 87192,
      "componentType": 5126,
      "count": 346,
      "type": "VEC3"
    },
    {
      "bufferView": 13,
      "byteOffset": 121792,
      "componentType": 5126,
      "count": 346,
      "type": "VEC4"
    },
    {
      "bufferView": 14,
      "byteOffset": 91344,
      "componentType": 5126,
      "count": 346,
      "type": "VEC3"
    },
    {
      "bufferView": 13,
      "byteOffset": 127328,
      "componentType": 5126,
      "count": 346,
      "type": "VEC4"
    },
    {
      "bufferView": 14,
      "byteOffset": 95496,
      "componentType": 5126,
      "count": 346,
      "type": "VEC3"
    },
    {
      "bufferView": 13,
      "byteOffset": 132864,
      "componentType": 5126,
      "count": 346,
      "type": "VEC4"
    },
    {
      "bufferView": 14,
      "byteOffset": 99648,
      "componentType": 5126,
      "count": 346,
      "type": "VEC3"
    },
    {
      "bufferView": 13,
      "byteOffset": 138400,
      "componentType": 5126,
      "count": 346,
      "type": "VEC4"
    },
    {
      "bufferView": 14,
      "byteOffset": 103800,
      "componentType": 5126,
      "count": 346,
      "type": "VEC3"
    },
    {
      "bufferView": 13,
      "byteOffset": 143936,
      "componentType": 5126,
      "count": 346,
      "type": "VEC4"
    },
    {
      "bufferView": 14,
      "byteOffset": 107952,
      "componentType": 5126,
      "count": 346,
      "type": "VEC3"
    },
    {
      "bufferView": 13,
      "byteOffset": 149472,
      "componentType": 5126,
      "count": 346,
      "type": "VEC4"
    },
    {
      "bufferView": 14,
      "byteOffset": 112104,
      "componentType": 5126,
      "count": 346,
      "type": "VEC3"
    },
    {
      "bufferView": 13,
      "byteOffset": 155008,
      "componentType": 5126,
      "count": 346,
      "type": "VEC4"
    },
    {
      "bufferView": 14,
      "byteOffset": 116256,
      "componentType": 5126,
      "count": 346,
      "type": "VEC3"
    },
    {
      "bufferView": 13,
      "byteOffset": 160544,
      "componentType": 5126,
      "count": 346,
      "type": "VEC4"
    },
    {
      "bufferView": 14,
      "byteOffset": 120408,
      "componentType": 5126,
      "count": 346,
      "type": "VEC3"
    },
    {
      "bufferView": 13,
      "byteOffset": 166080,
      "componentType": 5126,
      "count": 346,
      "type": "VEC4"
    },
    {
      "bufferView": 14,
      "byteOffset": 124560,
      "componentType": 5126,
      "count": 346,
      "type": "VEC3"
    },
    {
      "bufferView": 13,
      "byteOffset": 171616,
      "componentType": 5126,
      "count": 346,
      "type": "VEC4"
    },
    {
      "bufferView": 14,
      "byteOffset": 128712,
      "componentType": 5126,
      "count": 346,
      "type": "VEC3"
    },
    {
      "bufferView": 13,
      "byteOffset": 177152,
      "componentType": 5126,
      "count": 346,
      "type": "VEC4"
    },
    {
      "bufferView": 14,
      "byteOffset": 132864,
      "componentType": 5126,
      "count": 346,
      "type": "VEC3"
    },
    {
      "bufferView": 13,
      "byteOffset": 182688,
      "componentType": 5126,
      "count": 346,
      "type": "VEC4"
    },
    {
      "bufferView": 14,
      "byteOffset": 137016,
      "componentType": 5126,
      "count": 346,
      "type": "VEC3"
    },
    {
      "bufferView": 13,
      "byteOffset": 188224,
      "componentType": 5126,
      "count": 346,
      "type": "VEC4"
    },
    {
      "bufferView": 14,
      "byteOffset": 141168,
      "componentType": 5126,
      "count": 346,
      "type": "VEC3"
    },
    {
      "bufferView": 13,
      "byteOffset": 193760,
      "componentType": 5126,
      "count": 346,
      "type": "VEC4"
    },
    {
      "bufferView": 14,
      "byteOffset": 145320,
      "componentType": 5126,
      "count": 346,
      "type": "VEC3"
    },
    {
      "bufferView": 13,
      "byteOffset": 199296,
      "componentType": 5126,
      "count": 346,
      "type": "VEC4"
    },
    {
      "bufferView": 14,
      "byteOffset": 149472,
      "componentType": 5126,
      "count": 346,
      "type": "VEC3"
    },
    {
      "bufferView": 13,
      "byteOffset": 204832,
      "componentType": 5126,
      "count": 346,
      "type": "VEC4"
    },
    {
      "bufferView": 14,
      "byteOffset": 153624,
      "componentType": 5126,
      "count": 346,
      "type": "VEC3"
    },
    {
      "bufferView": 13,
      "byteOffset": 210368,
      "componentType": 5126,
      "count": 346,
      "type": "VEC4"
    },
    {
      "bufferView": 14,
      "byteOffset": 157776,
      "componentType": 5126,
      "count": 346,
      "type": "VEC3"
    },
    {
      "bufferView": 13,
      "byteOffset": 215904,
      "componentType": 5126,
      "count": 346,
      "type": "VEC4"
    },
    {
      "bufferView": 14,
      "byteOffset": 161928,
      "componentType": 5126,
      "count": 346,
      "type": "VEC3"
    },
    {
      "bufferView": 13,
      "byteOffset": 221440,
      "componentType": 5126,
      "count": 346,
      "type": "VEC4"
    },
    {
      "bufferView": 14,
      "byteOffset": 166080,
      "componentType": 5126,
      "count": 346,
      "type": "VEC3"
    },
    {
      "bufferView": 13,
      "byteOffset": 226976,
      "componentType": 5126,
      "count": 346,
      "type": "VEC4"
    },
    {
      "bufferView": 14,
      "byteOffset": 170232,
      "componentType": 5126,
      "count": 346,
      "type": "VEC3"
    },
    {
      "bufferView": 13,
      "byteOffset": 232512,
      "componentType": 5126,
      "count": 346,
      "type": "VEC4"
    },
    {
      "bufferView": 14,
      "byteOffset": 174384,
      "componentType": 5126,
      "count": 346,
      "type": "VEC3"
    },
    {
      "bufferView": 13,
      "byteOffset": 238048,
      "componentType": 5126,
      "count": 346,
      "type": "VEC4"
    },
    {
      "bufferView": 14,
      "byteOffset": 178536,
      "componentType": 5126,
      "count": 346,
      "type": "VEC3"
    },
    {
      "bufferView": 13,
      "byteOffset": 243584,
      "componentType": 5126,
      "count": 346,
      "type": "VEC4"
    },
    {
      "bufferView": 14,
      "byteOffset": 182688,
      "componentType": 5126,
      "count": 346,
      "type": "VEC3"
    },
    {
      "bufferView": 13,
      "byteOffset": 249120,
      "componentType": 5126,
      "count": 346,
      "type": "VEC4"
    },
    {
      "bufferView": 14,
      "byteOffset": 186840,
      "componentType": 5126,
      "count": 346,
      "type": "VEC3"
    }
  ],
  "skins": [
    {
      "name": "skin0",
      "inverseBindMatrices": 6,
      "joints": [
        8
      ]
    },
    {
      "name": "skin1",
      "inverseBindMatrices": 13,
      "joints": [
        5,
        6,
        45,
        46,
        39,
        44,
        43,
        24,
        34,
        25,
        7,
        8,
        10,
        11,
        26,
        12,
        23,
        13,
        14,
        40,
        41,
        35,
        42,
        36,
        37,
        38,
        15,
        9,
        20,
        21,
        18,
        19,
        17,
        16,
        33,
        32,
        27,
        30,
        31,
        28,
        29
      ]
    },
    {
      "name": "skin2",
      "inverseBindMatrices": 20,
      "joints": [
        22
      ]
    },
    {
      "name": "skin3",
      "inverseBindMatrices": 27,
      "joints": [
        47
      ]
    }
  ],
  "meshes": [
    {
      "name": "neutrals_dwarf_hair",
      "primitives": [
        {
          "attributes": {
            "POSITION": 1,
            "NORMAL": 2,
            "TEXCOORD_0": 3,
            "WEIGHTS_0": 4,
            "JOINTS_0": 5
          },
          "indices": 0,
          "mode": 4,
          "material": 0
        }
      ]
    },
    {
      "name": "neutrals_dwarf",
      "primitives": [
        {
          "attributes": {
            "POSITION": 8,
            "NORMAL": 9,
            "TEXCOORD_0": 10,
            "WEIGHTS_0": 11,
            "JOINTS_0": 12
          },
          "indices": 7,
          "mode": 4,
          "material": 1
        }
      ]
    },
    {
      "name": "neutrals_dwarf_shield",
      "primitives": [
        {
          "attributes": {
            "POSITION": 15,
            "NORMAL": 16,
            "TEXCOORD_0": 17,
            "WEIGHTS_0": 18,
            "JOINTS_0": 19
          },
          "indices": 14,
          "mode": 4,
          "material": 2
        }
      ]
    },
    {
      "name": "weapon_neutral_dwarf",
      "primitives": [
        {
          "attributes": {
            "POSITION": 22,
            "NORMAL": 23,
            "TEXCOORD_0": 24,
            "WEIGHTS_0": 25,
            "JOINTS_0": 26
          },
          "indices": 21,
          "mode": 4,
          "material": 3
        }
      ]
    }
  ],
  "animations": [
    {
      "channels": [
        {
          "sampler": 0,
          "target": {
            "node": 4,
            "path": "rotation"
          }
        },
        {
          "sampler": 1,
          "target": {
            "node": 4,
            "path": "translation"
          }
        },
        {
          "sampler": 2,
          "target": {
            "node": 5,
            "path": "rotation"
          }
        },
        {
          "sampler": 3,
          "target": {
            "node": 5,
            "path": "translation"
          }
        },
        {
          "sampler": 4,
          "target": {
            "node": 6,
            "path": "rotation"
          }
        },
        {
          "sampler": 5,
          "target": {
            "node": 6,
            "path": "translation"
          }
        },
        {
          "sampler": 6,
          "target": {
            "node": 7,
            "path": "rotation"
          }
        },
        {
          "sampler": 7,
          "target": {
            "node": 7,
            "path": "translation"
          }
        },
        {
          "sampler": 8,
          "target": {
            "node": 8,
            "path": "rotation"
          }
        },
        {
          "sampler": 9,
          "target": {
            "node": 8,
            "path": "translation"
          }
        },
        {
          "sampler": 10,
          "target": {
            "node": 9,
            "path": "rotation"
          }
        },
        {
          "sampler": 11,
          "target": {
            "node": 9,
            "path": "translation"
          }
        },
        {
          "sampler": 12,
          "target": {
            "node": 10,
            "path": "rotation"
          }
        },
        {
          "sampler": 13,
          "target": {
            "node": 10,
            "path": "translation"
          }
        },
        {
          "sampler": 14,
          "target": {
            "node": 11,
            "path": "rotation"
          }
        },
        {
          "sampler": 15,
          "target": {
            "node": 11,
            "path": "translation"
          }
        },
        {
          "sampler": 16,
          "target": {
            "node": 12,
            "path": "rotation"
          }
        },
        {
          "sampler": 17,
          "target": {
            "node": 12,
            "path": "translation"
          }
        },
        {
          "sampler": 18,
          "target": {
            "node": 13,
            "path": "rotation"
          }
        },
        {
          "sampler": 19,
          "target": {
            "node": 13,
            "path": "translation"
          }
        },
        {
          "sampler": 20,
          "target": {
            "node": 14,
            "path": "rotation"
          }
        },
        {
          "sampler": 21,
          "target": {
            "node": 14,
            "path": "translation"
          }
        },
        {
          "sampler": 22,
          "target": {
            "node": 15,
            "path": "rotation"
          }
        },
        {
          "sampler": 23,
          "target": {
            "node": 15,
            "path": "translation"
          }
        },
        {
          "sampler": 24,
          "target": {
            "node": 16,
            "path": "rotation"
          }
        },
        {
          "sampler": 25,
          "target": {
            "node": 16,
            "path": "translation"
          }
        },
        {
          "sampler": 26,
          "target": {
            "node": 17,
            "path": "rotation"
          }
        },
        {
          "sampler": 27,
          "target": {
            "node": 17,
            "path": "translation"
          }
        },
        {
          "sampler": 28,
          "target": {
            "node": 18,
            "path": "rotation"
          }
        },
        {
          "sampler": 29,
          "target": {
            "node": 18,
            "path": "translation"
          }
        },
        {
          "sampler": 30,
          "target": {
            "node": 19,
            "path": "rotation"
          }
        },
        {
          "sampler": 31,
          "target": {
            "node": 19,
            "path": "translation"
          }
        },
        {
          "sampler": 32,
          "target": {
            "node": 20,
            "path": "rotation"
          }
        },
        {
          "sampler": 33,
          "target": {
            "node": 20,
            "path": "translation"
          }
        },
        {
          "sampler": 34,
          "target": {
            "node": 21,
            "path": "rotation"
          }
        },
        {
          "sampler": 35,
          "target": {
            "node": 21,
            "path": "translation"
          }
        },
        {
          "sampler": 36,
          "target": {
            "node": 22,
            "path": "rotation"
          }
        },
        {
          "sampler": 37,
          "target": {
            "node": 22,
            "path": "translation"
          }
        },
        {
          "sampler": 38,
          "target": {
            "node": 23,
            "path": "rotation"
          }
        },
        {
          "sampler": 39,
          "target": {
            "node": 23,
            "path": "translation"
          }
        },
        {
          "sampler": 40,
          "target": {
            "node": 24,
            "path": "rotation"
          }
        },
        {
          "sampler": 41,
          "target": {
            "node": 24,
            "path": "translation"
          }
        },
        {
          "sampler": 42,
          "target": {
            "node": 25,
            "path": "rotation"
          }
        },
        {
          "sampler": 43,
          "target": {
            "node": 25,
            "path": "translation"
          }
        },
        {
          "sampler": 44,
          "target": {
            "node": 26,
            "path": "rotation"
          }
        },
        {
          "sampler": 45,
          "target": {
            "node": 26,
            "path": "translation"
          }
        },
        {
          "sampler": 46,
          "target": {
            "node": 27,
            "path": "rotation"
          }
        },
        {
          "sampler": 47,
          "target": {
            "node": 27,
            "path": "translation"
          }
        },
        {
          "sampler": 48,
          "target": {
            "node": 28,
            "path": "rotation"
          }
        },
        {
          "sampler": 49,
          "target": {
            "node": 28,
            "path": "translation"
          }
        },
        {
          "sampler": 50,
          "target": {
            "node": 29,
            "path": "rotation"
          }
        },
        {
          "sampler": 51,
          "target": {
            "node": 29,
            "path": "translation"
          }
        },
        {
          "sampler": 52,
          "target": {
            "node": 30,
            "path": "rotation"
          }
        },
        {
          "sampler": 53,
          "target": {
            "node": 30,
            "path": "translation"
          }
        },
        {
          "sampler": 54,
          "target": {
            "node": 31,
            "path": "rotation"
          }
        },
        {
          "sampler": 55,
          "target": {
            "node": 31,
            "path": "translation"
          }
        },
        {
          "sampler": 56,
          "target": {
            "node": 32,
            "path": "rotation"
          }
        },
        {
          "sampler": 57,
          "target": {
            "node": 32,
            "path": "translation"
          }
        },
        {
          "sampler": 58,
          "target": {
            "node": 33,
            "path": "rotation"
          }
        },
        {
          "sampler": 59,
          "target": {
            "node": 33,
            "path": "translation"
          }
        },
        {
          "sampler": 60,
          "target": {
            "node": 34,
            "path": "rotation"
          }
        },
        {
          "sampler": 61,
          "target": {
            "node": 34,
            "path": "translation"
          }
        },
        {
          "sampler": 62,
          "target": {
            "node": 35,
            "path": "rotation"
          }
        },
        {
          "sampler": 63,
          "target": {
            "node": 35,
            "path": "translation"
          }
        },
        {
          "sampler": 64,
          "target": {
            "node": 36,
            "path": "rotation"
          }
        },
        {
          "sampler": 65,
          "target": {
            "node": 36,
            "path": "translation"
          }
        },
        {
          "sampler": 66,
          "target": {
            "node": 37,
            "path": "rotation"
          }
        },
        {
          "sampler": 67,
          "target": {
            "node": 37,
            "path": "translation"
          }
        },
        {
          "sampler": 68,
          "target": {
            "node": 38,
            "path": "rotation"
          }
        },
        {
          "sampler": 69,
          "target": {
            "node": 38,
            "path": "translation"
          }
        },
        {
          "sampler": 70,
          "target": {
            "node": 39,
            "path": "rotation"
          }
        },
        {
          "sampler": 71,
          "target": {
            "node": 39,
            "path": "translation"
          }
        },
        {
          "sampler": 72,
          "target": {
            "node": 40,
            "path": "rotation"
          }
        },
        {
          "sampler": 73,
          "target": {
            "node": 40,
            "path": "translation"
          }
        },
        {
          "sampler": 74,
          "target": {
            "node": 41,
            "path": "rotation"
          }
        },
        {
          "sampler": 75,
          "target": {
            "node": 41,
            "path": "translation"
          }
        },
        {
          "sampler": 76,
          "target": {
            "node": 42,
            "path": "rotation"
          }
        },
        {
          "sampler": 77,
          "target": {
            "node": 42,
            "path": "translation"
          }
        },
        {
          "sampler": 78,
          "target": {
            "node": 43,
            "path": "rotation"
          }
        },
        {
          "sampler": 79,
          "target": {
            "node": 43,
            "path": "translation"
          }
        },
        {
          "sampler": 80,
          "target": {
            "node": 44,
            "path": "rotation"
          }
        },
        {
          "sampler": 81,
          "target": {
            "node": 44,
            "path": "translation"
          }
        },
        {
          "sampler": 82,
          "target": {
            "node": 45,
            "path": "rotation"
          }
        },
        {
          "sampler": 83,
          "target": {
            "node": 45,
            "path": "translation"
          }
        },
        {
          "sampler": 84,
          "target": {
            "node": 46,
            "path": "rotation"
          }
        },
        {
          "sampler": 85,
          "target": {
            "node": 46,
            "path": "translation"
          }
        },
        {
          "sampler": 86,
          "target": {
            "node": 47,
            "path": "rotation"
          }
        },
        {
          "sampler": 87,
          "target": {
            "node": 47,
            "path": "translation"
          }
        },
        {
          "sampler": 88,
          "target": {
            "node": 48,
            "path": "rotation"
          }
        },
        {
          "sampler": 89,
          "target": {
            "node": 48,
            "path": "translation"
          }
        },
        {
          "sampler": 90,
          "target": {
            "node": 49,
            "path": "rotation"
          }
        },
        {
          "sampler": 91,
          "target": {
            "node": 49,
            "path": "translation"
          }
        }
      ],
      "samplers": [
        {
          "input": 28,
          "output": 29,
          "interpolation": "LINEAR"
        },
        {
          "input": 28,
          "output": 30,
          "interpolation": "LINEAR"
        },
        {
          "input": 28,
          "output": 31,
          "interpolation": "LINEAR"
        },
        {
          "input": 28,
          "output": 32,
          "interpolation": "LINEAR"
        },
        {
          "input": 28,
          "output": 33,
          "interpolation": "LINEAR"
        },
        {
          "input": 28,
          "output": 34,
          "interpolation": "LINEAR"
        },
        {
          "input": 28,
          "output": 35,
          "interpolation": "LINEAR"
        },
        {
          "input": 28,
          "output": 36,
          "interpolation": "LINEAR"
        },
        {
          "input": 28,
          "output": 37,
          "interpolation": "LINEAR"
        },
        {
          "input": 28,
          "output": 38,
          "interpolation": "LINEAR"
        },
        {
          "input": 28,
          "output": 39,
          "interpolation": "LINEAR"
        },
        {
          "input": 28,
          "output": 40,
          "interpolation": "LINEAR"
        },
        {
          "input": 28,
          "output": 41,
          "interpolation": "LINEAR"
        },
        {
          "input": 28,
          "output": 42,
          "interpolation": "LINEAR"
        },
        {
          "input": 28,
          "output": 43,
          "interpolation": "LINEAR"
        },
        {
          "input": 28,
          "output": 44,
          "interpolation": "LINEAR"
        },
        {
          "input": 28,
          "output": 45,
          "interpolation": "LINEAR"
        },
        {
          "input": 28,
          "output": 46,
          "interpolation": "LINEAR"
        },
        {
          "input": 28,
          "output": 47,
          "interpolation": "LINEAR"
        },
        {
          "input": 28,
          "output": 48,
          "interpolation": "LINEAR"
        },
        {
          "input": 28,
          "output": 49,
          "interpolation": "LINEAR"
        },
        {
          "input": 28,
          "output": 50,
          "interpolation": "LINEAR"
        },
        {
          "input": 28,
          "output": 51,
          "interpolation": "LINEAR"
        },
        {
          "input": 28,
          "output": 52,
          "interpolation": "LINEAR"
        },
        {
          "input": 28,
          "output": 53,
          "interpolation": "LINEAR"
        },
        {
          "input": 28,
          "output": 54,
          "interpolation": "LINEAR"
        },
        {
          "input": 28,
          "output": 55,
          "interpolation": "LINEAR"
        },
        {
          "input": 28,
          "output": 56,
          "interpolation": "LINEAR"
        },
        {
          "input": 28,
          "output": 57,
          "interpolation": "LINEAR"
        },
        {
          "input": 28,
          "output": 58,
          "interpolation": "LINEAR"
        },
        {
          "input": 28,
          "output": 59,
          "interpolation": "LINEAR"
        },
        {
          "input": 28,
          "output": 60,
          "interpolation": "LINEAR"
        },
        {
          "input": 28,
          "output": 61,
          "interpolation": "LINEAR"
        },
        {
          "input": 28,
          "output": 62,
          "interpolation": "LINEAR"
        },
        {
          "input": 28,
          "output": 63,
          "interpolation": "LINEAR"
        },
        {
          "input": 28,
          "output": 64,
          "interpolation": "LINEAR"
        },
        {
          "input": 28,
          "output": 65,
          "interpolation": "LINEAR"
        },
        {
          "input": 28,
          "output": 66,
          "interpolation": "LINEAR"
        },
        {
          "input": 28,
          "output": 67,
          "interpolation": "LINEAR"
        },
        {
          "input": 28,
          "output": 68,
          "interpolation": "LINEAR"
        },
        {
          "input": 28,
          "output": 69,
          "interpolation": "LINEAR"
        },
        {
          "input": 28,
          "output": 70,
          "interpolation": "LINEAR"
        },
        {
          "input": 28,
          "output": 71,
          "interpolation": "LINEAR"
        },
        {
          "input": 28,
          "output": 72,
          "interpolation": "LINEAR"
        },
        {
          "input": 28,
          "output": 73,
          "interpolation": "LINEAR"
        },
        {
          "input": 28,
          "output": 74,
          "interpolation": "LINEAR"
        },
        {
          "input": 28,
          "output": 75,
          "interpolation": "LINEAR"
        },
        {
          "input": 28,
          "output": 76,
          "interpolation": "LINEAR"
        },
        {
          "input": 28,
          "output": 77,
          "interpolation": "LINEAR"
        },
        {
          "input": 28,
          "output": 78,
          "interpolation": "LINEAR"
        },
        {
          "input": 28,
          "output": 79,
          "interpolation": "LINEAR"
        },
        {
          "input": 28,
          "output": 80,
          "interpolation": "LINEAR"
        },
        {
          "input": 28,
          "output": 81,
          "interpolation": "LINEAR"
        },
        {
          "input": 28,
          "output": 82,
          "interpolation": "LINEAR"
        },
        {
          "input": 28,
          "output": 83,
          "interpolation": "LINEAR"
        },
        {
          "input": 28,
          "output": 84,
          "interpolation": "LINEAR"
        },
        {
          "input": 28,
          "output": 85,
          "interpolation": "LINEAR"
        },
        {
          "input": 28,
          "output": 86,
          "interpolation": "LINEAR"
        },
        {
          "input": 28,
          "output": 87,
          "interpolation": "LINEAR"
        },
        {
          "input": 28,
          "output": 88,
          "interpolation": "LINEAR"
        },
        {
          "input": 28,
          "output": 89,
          "interpolation": "LINEAR"
        },
        {
          "input": 28,
          "output": 90,
          "interpolation": "LINEAR"
        },
        {
          "input": 28,
          "output": 91,
          "interpolation": "LINEAR"
        },
        {
          "input": 28,
          "output": 92,
          "interpolation": "LINEAR"
        },
        {
          "input": 28,
          "output": 93,
          "interpolation": "LINEAR"
        },
        {
          "input": 28,
          "output": 94,
          "interpolation": "LINEAR"
        },
        {
          "input": 28,
          "output": 95,
          "interpolation": "LINEAR"
        },
        {
          "input": 28,
          "output": 96,
          "interpolation": "LINEAR"
        },
        {
          "input": 28,
          "output": 97,
          "interpolation": "LINEAR"
        },
        {
          "input": 28,
          "output": 98,
          "interpolation": "LINEAR"
        },
        {
          "input": 28,
          "output": 99,
          "interpolation": "LINEAR"
        },
        {
          "input": 28,
          "output": 100,
          "interpolation": "LINEAR"
        },
        {
          "input": 28,
          "output": 101,
          "interpolation": "LINEAR"
        },
        {
          "input": 28,
          "output": 102,
          "interpolation": "LINEAR"
        },
        {
          "input": 28,
          "output": 103,
          "interpolation": "LINEAR"
        },
        {
          "input": 28,
          "output": 104,
          "interpolation": "LINEAR"
        },
        {
          "input": 28,
          "output": 105,
          "interpolation": "LINEAR"
        },
        {
          "input": 28,
          "output": 106,
          "interpolation": "LINEAR"
        },
        {
          "input": 28,
          "output": 107,
          "interpolation": "LINEAR"
        },
        {
          "input": 28,
          "output": 108,
          "interpolation": "LINEAR"
        },
        {
          "input": 28,
          "output": 109,
          "interpolation": "LINEAR"
        },
        {
          "input": 28,
          "output": 110,
          "interpolation": "LINEAR"
        },
        {
          "input": 28,
          "output": 111,
          "interpolation": "LINEAR"
        },
        {
          "input": 28,
          "output": 112,
          "interpolation": "LINEAR"
        },
        {
          "input": 28,
          "output": 113,
          "interpolation": "LINEAR"
        },
        {
          "input": 28,
          "output": 114,
          "interpolation": "LINEAR"
        },
        {
          "input": 28,
          "output": 115,
          "interpolation": "LINEAR"
        },
        {
          "input": 28,
          "output": 116,
          "interpolation": "LINEAR"
        },
        {
          "input": 28,
          "output": 117,
          "interpolation": "LINEAR"
        },
        {
          "input": 28,
          "output": 118,
          "interpolation": "LINEAR"
        },
        {
          "input": 28,
          "output": 119,
          "interpolation": "LINEAR"
        },
        {
          "input": 28,
          "output": 120,
          "interpolation": "LINEAR"
        }
      ]
    }
  ],
  "bufferViews": [
    {
      "name": "mesh_indexes_neutrals_dwarf_hair",
      "buffer": 0,
      "byteOffset": 0,
      "byteLength": 480,
      "target": 34963
    },
    {
      "name": "mesh_vertexes_neutrals_dwarf_hair",
      "buffer": 0,
      "byteOffset": 480,
      "byteLength": 1872,
      "byteStride": 52,
      "target": 34962
    },
    {
      "name": "mesh_bones_neutrals_dwarf_hair",
      "buffer": 0,
      "byteOffset": 2352,
      "byteLength": 64
    },
    {
      "name": "mesh_indexes_neutrals_dwarf",
      "buffer": 0,
      "byteOffset": 2416,
      "byteLength": 55752,
      "target": 34963
    },
    {
      "name": "mesh_vertexes_neutrals_dwarf",
      "buffer": 0,
      "byteOffset": 58168,
      "byteLength": 174304,
      "byteStride": 52,
      "target": 34962
    },
    {
      "name": "mesh_bones_neutrals_dwarf",
      "buffer": 0,
      "byteOffset": 232472,
      "byteLength": 2624
    },
    {
      "name": "mesh_indexes_neutrals_dwarf_shield",
      "buffer": 0,
      "byteOffset": 235096,
      "byteLength": 2400,
      "target": 34963
    },
    {
      "name": "mesh_vertexes_neutrals_dwarf_shield",
      "buffer": 0,
      "byteOffset": 237496,
      "byteLength": 9360,
      "byteStride": 52,
      "target": 34962
    },
    {
      "name": "mesh_bones_neutrals_dwarf_shield",
      "buffer": 0,
      "byteOffset": 246856,
      "byteLength": 64
    },
    {
      "name": "mesh_indexes_weapon_neutral_dwarf",
      "buffer": 0,
      "byteOffset": 246920,
      "byteLength": 1224,
      "target": 34963
    },
    {
      "name": "mesh_vertexes_weapon_neutral_dwarf",
      "buffer": 0,
      "byteOffset": 248144,
      "byteLength": 6032,
      "byteStride": 52,
      "target": 34962
    },
    {
      "name": "mesh_bones_weapon_neutral_dwarf",
      "buffer": 0,
      "byteOffset": 254176,
      "byteLength": 64
    },
    {
      "name": "frames",
      "buffer": 0,
      "byteOffset": 254240,
      "byteLength": 1384
    },
    {
      "name": "bones_rotate",
      "buffer": 0,
      "byteOffset": 255624,
      "byteLength": 254656
    },
    {
      "name": "bones_translate",
      "buffer": 0,
      "byteOffset": 510280,
      "byteLength": 190992
    }
  ],
  "buffers": [
    {
      "uri": "character_neutrals_dwarf.bin",
      "byteLength": 701272
    }
  ],
  "images": [
    {
      "uri": "character_neutrals_dwarf_alpha.dds"
    },
    {
      "uri": "character_neutrals_dwarf.dds"
    },
    {
      "uri": "weapon_neutrals_dwarf_shield.dds"
    },
    {
      "uri": "weapon_neutrals_dwarf_axe.dds"
    }
  ],
  "textures": [
    {
      "source": 0
    },
    {
      "source": 1
    },
    {
      "source": 2
    },
    {
      "source": 3
    }
  ],
  "materials": [
    {
      "name": "material0",
      "alphaMode": "MASK",
      "pbrMetallicRoughness": {
        "baseColorTexture": {
          "index": 0,
          "texCoord": 0
        },
        "metallicFactor": 0.0
      },
      "emissiveFactor": [
        0.0,
        0.0,
        0.0
      ]
    },
    {
      "name": "material1",
      "alphaMode": "MASK",
      "pbrMetallicRoughness": {
        "baseColorTexture": {
          "index": 1,
          "texCoord": 0
        },
        "metallicFactor": 0.0
      },
      "emissiveFactor": [
        0.0,
        0.0,
        0.0
      ]
    },
    {
      "name": "material2",
      "alphaMode": "MASK",
      "pbrMetallicRoughness": {
        "baseColorTexture": {
          "index": 2,
          "texCoord": 0
        },
        "metallicFactor": 0.0
      },
      "emissiveFactor": [
        0.0,
        0.0,
        0.0
      ]
    },
    {
      "name": "material3",
      "alphaMode": "MASK",
      "pbrMetallicRoughness": {
        "baseColorTexture": {
          "index": 3,
          "texCoord": 0
        },
        "metallicFactor": 0.0
      },
      "emissiveFactor": [
        0.0,
        0.0,
        0.0
      ]
    }
  ]
}