{
  "asset": {
    "version": "2.0",
    "generator": "generated with dis3tool v1.1 by root.ext@gmail.com"
  },
  "scenes": [
    {
      "nodes": [
        0,
        1,
        2
      ]
    }
  ],
  "scene": 0,
  "nodes": [
    {
      "name": "small_bandit_ship",
      "mesh": 0,
      "skin": 0
    },
    {
      "name": "small_bandit_ship_cloth",
      "mesh": 1,
      "skin": 1
    },
    {
      "name": "reference_ship",
      "rotation": [
        -1.49666278E-07,
        -5.246798E-07,
        0.7045977,
        0.709607
      ],
      "translation": [
        0.0,
        -0.08953498,
        3E-08
      ]
    }
  ],
  "accessors": [
    {
      "bufferView": 0,
      "byteOffset": 0,
      "componentType": 5125,
      "count": 960,
      "type": "SCALAR"
    },
    {
      "bufferView": 1,
      "byteOffset": 0,
      "componentType": 5126,
      "count": 246,
      "type": "VEC3",
      "min": [
        -1.87160885,
        -0.282378584,
        -0.725034058
      ],
      "max": [
        2.64871526,
        0.9183573,
        0.725034237
      ]
    },
    {
      "bufferView": 1,
      "byteOffset": 12,
      "componentType": 5126,
      "count": 246,
      "type": "VEC3"
    },
    {
      "bufferView": 1,
      "byteOffset": 24,
      "componentType": 5126,
      "count": 246,
      "type": "VEC2"
    },
    {
      "bufferView": 1,
      "byteOffset": 32,
      "componentType": 5126,
      "count": 246,
      "type": "VEC4"
    },
    {
      "bufferView": 1,
      "byteOffset": 48,
      "componentType": 5121,
      "count": 246,
      "type": "VEC4"
    },
    {
      "bufferView": 2,
      "byteOffset": 0,
      "componentType": 5126,
      "count": 1,
      "type": "MAT4"
    },
    {
      "bufferView": 3,
      "byteOffset": 0,
      "componentType": 5125,
      "count": 276,
      "type": "SCALAR"
    },
    {
      "bufferView": 4,
      "byteOffset": 0,
      "componentType": 5126,
      "count": 90,
      "type": "VEC3",
      "min": [
        -1.534123,
        -0.0846811756,
        -0.440268517
      ],
      "max": [
        0.161480859,
        0.884781241,
        0.440268368
      ]
    },
    {
      "bufferView": 4,
      "byteOffset": 12,
      "componentType": 5126,
      "count": 90,
      "type": "VEC3"
    },
    {
      "bufferView": 4,
      "byteOffset": 24,
      "componentType": 5126,
      "count": 90,
      "type": "VEC2"
    },
    {
      "bufferView": 4,
      "byteOffset": 32,
      "componentType": 5126,
      "count": 90,
      "type": "VEC4"
    },
    {
      "bufferView": 4,
      "byteOffset": 48,
      "componentType": 5121,
      "count": 90,
      "type": "VEC4"
    },
    {
      "bufferView": 5,
      "byteOffset": 0,
      "componentType": 5126,
      "count": 1,
      "type": "MAT4"
    },
    {
      "bufferView": 6,
      "byteOffset": 0,
      "componentType": 5126,
      "count": 181,
      "type": "SCALAR",
      "min": [
        0.0
      ],
      "max": [
        6.00000048
      ]
    },
    {
      "bufferView": 7,
      "byteOffset": 0,
      "componentType": 5126,
      "count": 181,
      "type": "VEC4"
    },
    {
      "bufferView": 8,
      "byteOffset": 0,
      "componentType": 5126,
      "count": 181,
      "type": "VEC3"
    }
  ],
  "skins": [
    {
      "name": "skin0",
      "inverseBindMatrices": 6,
      "joints": [
        2
      ]
    },
    {
      "name": "skin1",
      "inverseBindMatrices": 13,
      "joints": [
        2
      ]
    }
  ],
  "meshes": [
    {
      "name": "small_bandit_ship",
      "primitives": [
        {
          "attributes": {
            "POSITION": 1,
            "NORMAL": 2,
            "TEXCOORD_0": 3,
            "WEIGHTS_0": 4,
            "JOINTS_0": 5
          },
          "indices": 0,
          "mode": 4,
          "material": 0
        }
      ]
    },
    {
      "name": "small_bandit_ship_cloth",
      "primitives": [
        {
          "attributes": {
            "POSITION": 8,
            "NORMAL": 9,
            "TEXCOORD_0": 10,
            "WEIGHTS_0": 11,
            "JOINTS_0": 12
          },
          "indices": 7,
          "mode": 4,
          "material": 1
        }
      ]
    }
  ],
  "animations": [
    {
      "channels": [
        {
          "sampler": 0,
          "target": {
            "node": 2,
            "path": "rotation"
          }
        },
        {
          "sampler": 1,
          "target": {
            "node": 2,
            "path": "translation"
          }
        }
      ],
      "samplers": [
        {
          "input": 14,
          "output": 15,
          "interpolation": "LINEAR"
        },
        {
          "input": 14,
          "output": 16,
          "interpolation": "LINEAR"
        }
      ]
    }
  ],
  "bufferViews": [
    {
      "name": "mesh_indexes_small_bandit_ship",
      "buffer": 0,
      "byteOffset": 0,
      "byteLength": 3840,
      "target": 34963
    },
    {
      "name": "mesh_vertexes_small_bandit_ship",
      "buffer": 0,
      "byteOffset": 3840,
      "byteLength": 12792,
      "byteStride": 52,
      "target": 34962
    },
    {
      "name": "mesh_bones_small_bandit_ship",
      "buffer": 0,
      "byteOffset": 16632,
      "byteLength": 64
    },
    {
      "name": "mesh_indexes_small_bandit_ship_cloth",
      "buffer": 0,
      "byteOffset": 16696,
      "byteLength": 1104,
      "target": 34963
    },
    {
      "name": "mesh_vertexes_small_bandit_ship_cloth",
      "buffer": 0,
      "byteOffset": 17800,
      "byteLength": 4680,
      "byteStride": 52,
      "target": 34962
    },
    {
      "name": "mesh_bones_small_bandit_ship_cloth",
      "buffer": 0,
      "byteOffset": 22480,
      "byteLength": 64
    },
    {
      "name": "frames",
      "buffer": 0,
      "byteOffset": 22544,
      "byteLength": 724
    },
    {
      "name": "bones_rotate",
      "buffer": 0,
      "byteOffset": 23268,
      "byteLength": 2896
    },
    {
      "name": "bones_translate",
      "buffer": 0,
      "byteOffset": 26164,
      "byteLength": 2172
    }
  ],
  "buffers": [
    {
      "uri": "character_small_bandit_ship.bin",
      "byteLength": 28336
    }
  ],
  "images": [
    {
      "uri": "character_small_bandit_ship.dds"
    }
  ],
  "textures": [
    {
      "source": 0
    }
  ],
  "materials": [
    {
      "name": "material0",
      "alphaMode": "MASK",
      "pbrMetallicRoughness": {
        "baseColorTexture": {
          "index": 0,
          "texCoord": 0
        },
        "metallicFactor": 0.0
      },
      "emissiveFactor": [
        0.0,
        0.0,
        0.0
      ]
    },
    {
      "name": "material1",
      "alphaMode": "MASK",
      "pbrMetallicRoughness": {
        "baseColorTexture": {
          "index": 0,
          "texCoord": 0
        },
        "metallicFactor": 0.0
      },
      "emissiveFactor": [
        0.0,
        0.0,
        0.0
      ]
    }
  ]
}