{
  "asset": {
    "version": "2.0",
    "generator": "generated with dis3tool v1.1 by root.ext@gmail.com"
  },
  "scenes": [
    {
      "nodes": [
        0,
        1
      ]
    }
  ],
  "scene": 0,
  "nodes": [
    {
      "name": "neutrals_airelemental",
      "mesh": 0,
      "skin": 0
    },
    {
      "name": "Root",
      "rotation": [
        -0.707106769,
        0.0,
        0.0,
        0.707106769
      ],
      "translation": [
        0.0,
        -0.665768266,
        2.91016562E-08
      ],
      "children": [
        2
      ]
    },
    {
      "name": "Hips",
      "rotation": [
        -0.04840738,
        0.0204141736,
        -0.0299138352,
        0.9981709
      ],
      "translation": [
        0.08596012,
        -0.009688295,
        2.06665826
      ],
      "children": [
        3,
        41
      ]
    },
    {
      "name": "Spine",
      "rotation": [
        0.0260155536,
        -0.0265705381,
        -0.00698899524,
        0.9992839
      ],
      "translation": [
        -3.94176E-09,
        2.62923927E-09,
        0.402335763
      ],
      "children": [
        4,
        5,
        23
      ]
    },
    {
      "name": "Head",
      "rotation": [
        0.04591332,
        0.02553042,
        0.0539903566,
        0.9971586
      ],
      "translation": [
        -7.970239E-09,
        3.69783182E-09,
        0.44468683
      ]
    },
    {
      "name": "LeftArm",
      "rotation": [
        0.146219954,
        0.009111083,
        -0.6290016,
        0.763474762
      ],
      "translation": [
        0.467035919,
        -0.0120024337,
        0.7783016
      ],
      "children": [
        6
      ]
    },
    {
      "name": "LeftForeArm",
      "rotation": [
        -0.0158844441,
        0.3875311,
        -0.00022439094,
        0.92171973
      ],
      "translation": [
        0.6139763,
        0.0120024364,
        -0.6541083
      ],
      "children": [
        7,
        43
      ]
    },
    {
      "name": "LeftHand",
      "rotation": [
        -0.136095554,
        0.281678319,
        0.7299244,
        0.607738256
      ],
      "translation": [
        0.3274161,
        1.81749336E-08,
        -0.7490962
      ],
      "children": [
        8,
        11,
        14,
        17,
        19
      ]
    },
    {
      "name": "LeftPinkie01",
      "rotation": [
        -0.0253558233,
        -0.0858857,
        -0.0230676346,
        0.995715141
      ],
      "translation": [
        0.04189762,
        -0.097599946,
        -0.19533816
      ],
      "children": [
        9
      ]
    },
    {
      "name": "LeftPinkie02",
      "rotation": [
        -0.00204067049,
        -0.0135958623,
        -0.00226523052,
        0.999902964
      ],
      "translation": [
        -0.0245546941,
        0.011383499,
        -0.08157318
      ],
      "children": [
        10
      ]
    },
    {
      "name": "LeftPinkie03",
      "rotation": [
        0.04040702,
        0.09273231,
        9.982944E-06,
        0.9948709
      ],
      "translation": [
        -0.0400569029,
        0.009771949,
        -0.014123857
      ]
    },
    {
      "name": "LeftRing01",
      "rotation": [
        -0.03819119,
        -0.1561517,
        -0.0339507423,
        0.9864104
      ],
      "translation": [
        0.0677063,
        -0.052667886,
        -0.212764278
      ],
      "children": [
        12
      ]
    },
    {
      "name": "LeftRing02",
      "rotation": [
        0.0189865455,
        0.0499342158,
        4.74462831E-05,
        0.998572052
      ],
      "translation": [
        -0.0486196242,
        0.009990282,
        -0.08062135
      ],
      "children": [
        13
      ]
    },
    {
      "name": "LeftRing03",
      "rotation": [
        -0.000145979546,
        -0.0129267145,
        -0.0006539465,
        0.999916255
      ],
      "translation": [
        -0.05549778,
        0.0136507135,
        -0.04244817
      ]
    },
    {
      "name": "LeftMiddle01",
      "rotation": [
        0.02166681,
        -0.1970366,
        -0.031237917,
        0.979658842
      ],
      "translation": [
        0.0858097151,
        -0.0016981751,
        -0.217328042
      ],
      "children": [
        15
      ]
    },
    {
      "name": "LeftMiddle02",
      "rotation": [
        0.00251090946,
        0.0149232578,
        1.39217366E-06,
        0.999885559
      ],
      "translation": [
        -0.05231688,
        0.009990351,
        -0.09116957
      ],
      "children": [
        16
      ]
    },
    {
      "name": "LeftMiddle03",
      "rotation": [
        -2.184919E-07,
        0.0122237336,
        -1.20856015E-07,
        0.9999254
      ],
      "translation": [
        -0.0716334358,
        0.0110365357,
        -0.0333120637
      ]
    },
    {
      "name": "LeftThumb01",
      "rotation": [
        0.15281342,
        0.0506342649,
        0.09140971,
        0.9827149
      ],
      "translation": [
        0.0128353527,
        0.10051088,
        -0.101092555
      ],
      "children": [
        18
      ]
    },
    {
      "name": "LeftThumb02",
      "rotation": [
        1.43122225E-09,
        -1.97512381E-05,
        1.81182477E-05,
        1.0
      ],
      "translation": [
        -0.0217371937,
        0.0424568653,
        -0.08799364
      ]
    },
    {
      "name": "LeftPreThumb",
      "rotation": [
        0.0,
        0.0,
        0.0,
        1.0
      ],
      "translation": [
        0.0546942428,
        0.0371547267,
        -0.1310757
      ],
      "children": [
        20
      ]
    },
    {
      "name": "LeftIndex01",
      "rotation": [
        0.00340576377,
        -0.125318825,
        -0.03415732,
        0.991522551
      ],
      "translation": [
        0.0301468316,
        0.0160812885,
        -0.08533066
      ],
      "children": [
        21
      ]
    },
    {
      "name": "LeftIndex02",
      "rotation": [
        -0.00204066467,
        -0.0135958623,
        -0.002265235,
        0.999902964
      ],
      "translation": [
        -0.0245547,
        0.01138347,
        -0.08157303
      ],
      "children": [
        22
      ]
    },
    {
      "name": "LeftIndex03",
      "rotation": [
        -0.000146052669,
        -0.0129267145,
        -0.0006538732,
        0.999916255
      ],
      "translation": [
        -0.0554977655,
        0.0136507433,
        -0.0424481742
      ]
    },
    {
      "name": "RightArm",
      "rotation": [
        0.117543645,
        0.03442929,
        0.485111535,
        0.8658319
      ],
      "translation": [
        -0.467036,
        -0.0120024486,
        0.7783086
      ],
      "children": [
        24
      ]
    },
    {
      "name": "RightForeArm",
      "rotation": [
        -0.00714000175,
        -0.182584316,
        0.00166016573,
        0.9831629
      ],
      "translation": [
        -0.613976061,
        0.01200244,
        -0.654120147
      ],
      "children": [
        25
      ]
    },
    {
      "name": "RightHand",
      "rotation": [
        -0.08992623,
        -0.00281301257,
        -0.359724164,
        0.9287109
      ],
      "translation": [
        -0.327416,
        3.36249322E-08,
        -0.7490919
      ],
      "children": [
        26,
        29,
        32,
        35,
        37
      ]
    },
    {
      "name": "RightPinkie01",
      "rotation": [
        -0.123217054,
        0.116257422,
        -0.178647071,
        0.969219744
      ],
      "translation": [
        -0.0418979637,
        -0.09760003,
        -0.195338026
      ],
      "children": [
        27
      ]
    },
    {
      "name": "RightPinkie02",
      "rotation": [
        0.08715631,
        -0.208434075,
        0.004982447,
        0.9741325
      ],
      "translation": [
        0.0426579267,
        0.00611920236,
        -0.06308196
      ],
      "children": [
        28
      ]
    },
    {
      "name": "RightPinkie03",
      "rotation": [
        0.0447273,
        -0.275417477,
        -0.007183554,
        0.960256755
      ],
      "translation": [
        0.0554979853,
        0.0136505906,
        -0.04245001
      ]
    },
    {
      "name": "RightRing01",
      "rotation": [
        -0.167303681,
        0.0198481511,
        -0.122730382,
        0.978035152
      ],
      "translation": [
        -0.06770601,
        -0.052668,
        -0.212764025
      ],
      "children": [
        30
      ]
    },
    {
      "name": "RightRing02",
      "rotation": [
        0.0442056768,
        -0.186842546,
        0.00051565154,
        0.981394649
      ],
      "translation": [
        0.04862001,
        0.009990392,
        -0.0806218758
      ],
      "children": [
        31
      ]
    },
    {
      "name": "RightRing03",
      "rotation": [
        0.0250252057,
        -0.219105214,
        -0.00612672325,
        0.975361
      ],
      "translation": [
        0.0537278578,
        0.0110365944,
        -0.022134047
      ]
    },
    {
      "name": "RightMiddle01",
      "rotation": [
        -0.100891314,
        0.0384823158,
        -0.103474267,
        0.9887533
      ],
      "translation": [
        -0.08580993,
        -0.00169818033,
        -0.217328042
      ],
      "children": [
        33
      ]
    },
    {
      "name": "RightMiddle02",
      "rotation": [
        0.0266154129,
        -0.1577888,
        -0.00131639314,
        0.987113237
      ],
      "translation": [
        0.0523179471,
        0.009990341,
        -0.09116801
      ],
      "children": [
        34
      ]
    },
    {
      "name": "RightMiddle03",
      "rotation": [
        0.0116830766,
        -0.17466341,
        -0.00448151771,
        0.9845487
      ],
      "translation": [
        0.07163191,
        0.011036518,
        -0.0333120152
      ]
    },
    {
      "name": "RightThumb01",
      "rotation": [
        -0.198684111,
        0.105770975,
        -0.158735886,
        0.961322
      ],
      "translation": [
        -0.0128360186,
        0.100510783,
        -0.101092026
      ],
      "children": [
        36
      ]
    },
    {
      "name": "RightThumb02",
      "rotation": [
        3.475777E-10,
        4.67611949E-10,
        -4.334225E-05,
        1.0
      ],
      "translation": [
        0.02173802,
        0.0424570069,
        -0.0879940242
      ]
    },
    {
      "name": "RightPreThumb",
      "rotation": [
        0.0,
        0.0,
        0.0,
        1.0
      ],
      "translation": [
        -0.05469398,
        0.0371547937,
        -0.131076008
      ],
      "children": [
        38
      ]
    },
    {
      "name": "RightIndex01",
      "rotation": [
        -0.160534561,
        -0.008917954,
        -0.0844844,
        0.983367443
      ],
      "translation": [
        -0.0301479343,
        0.0160811823,
        -0.08533005
      ],
      "children": [
        39
      ]
    },
    {
      "name": "RightIndex02",
      "rotation": [
        -0.00299939676,
        0.0275080726,
        0.0006829525,
        0.999616861
      ],
      "translation": [
        0.0245559048,
        0.0113835949,
        -0.08157194
      ],
      "children": [
        40
      ]
    },
    {
      "name": "RightIndex03",
      "rotation": [
        0.0447273031,
        -0.2754175,
        -0.007183548,
        0.960256755
      ],
      "translation": [
        0.055497922,
        0.0136506064,
        -0.04244997
      ]
    },
    {
      "name": "Tail01",
      "rotation": [
        -0.119482733,
        0.0506664626,
        -0.0365777649,
        0.990867734
      ],
      "translation": [
        -5.12600451E-09,
        -5.78187143E-09,
        -0.047557883
      ],
      "children": [
        42,
        44
      ]
    },
    {
      "name": "RightTail02",
      "rotation": [
        -0.113891192,
        0.017461054,
        -0.05013843,
        0.9920736
      ],
      "translation": [
        9.04454E-09,
        -1.238222E-09,
        -0.7465259
      ]
    },
    {
      "name": "LeftLeftHand",
      "rotation": [
        -0.184355751,
        -0.0233566761,
        0.7759261,
        0.602831662
      ],
      "translation": [
        0.327416122,
        5.27638129E-08,
        -0.7490964
      ]
    },
    {
      "name": "Tail02",
      "rotation": [
        -0.194267973,
        0.03158134,
        0.00625776965,
        0.98042
      ],
      "translation": [
        7.25275751E-09,
        -5.50006E-08,
        -0.7465259
      ]
    }
  ],
  "accessors": [
    {
      "bufferView": 0,
      "byteOffset": 0,
      "componentType": 5125,
      "count": 15168,
      "type": "SCALAR"
    },
    {
      "bufferView": 1,
      "byteOffset": 0,
      "componentType": 5126,
      "count": 3453,
      "type": "VEC3",
      "min": [
        -1.52712107,
        1.50700808,
        -0.385681182
      ],
      "max": [
        1.52712142,
        4.160654,
        0.39606306
      ]
    },
    {
      "bufferView": 1,
      "byteOffset": 12,
      "componentType": 5126,
      "count": 3453,
      "type": "VEC3"
    },
    {
      "bufferView": 1,
      "byteOffset": 24,
      "componentType": 5126,
      "count": 3453,
      "type": "VEC2"
    },
    {
      "bufferView": 1,
      "byteOffset": 32,
      "componentType": 5126,
      "count": 3453,
      "type": "VEC4"
    },
    {
      "bufferView": 1,
      "byteOffset": 48,
      "componentType": 5121,
      "count": 3453,
      "type": "VEC4"
    },
    {
      "bufferView": 2,
      "byteOffset": 0,
      "componentType": 5126,
      "count": 38,
      "type": "MAT4"
    },
    {
      "bufferView": 3,
      "byteOffset": 0,
      "componentType": 5126,
      "count": 363,
      "type": "SCALAR",
      "min": [
        0.0
      ],
      "max": [
        12.0666676
      ]
    },
    {
      "bufferView": 4,
      "byteOffset": 0,
      "componentType": 5126,
      "count": 363,
      "type": "VEC4"
    },
    {
      "bufferView": 5,
      "byteOffset": 0,
      "componentType": 5126,
      "count": 363,
      "type": "VEC3"
    },
    {
      "bufferView": 4,
      "byteOffset": 5808,
      "componentType": 5126,
      "count": 363,
      "type": "VEC4"
    },
    {
      "bufferView": 5,
      "byteOffset": 4356,
      "componentType": 5126,
      "count": 363,
      "type": "VEC3"
    },
    {
      "bufferView": 4,
      "byteOffset": 11616,
      "componentType": 5126,
      "count": 363,
      "type": "VEC4"
    },
    {
      "bufferView": 5,
      "byteOffset": 8712,
      "componentType": 5126,
      "count": 363,
      "type": "VEC3"
    },
    {
      "bufferView": 4,
      "byteOffset": 17424,
      "componentType": 5126,
      "count": 363,
      "type": "VEC4"
    },
    {
      "bufferView": 5,
      "byteOffset": 13068,
      "componentType": 5126,
      "count": 363,
      "type": "VEC3"
    },
    {
      "bufferView": 4,
      "byteOffset": 23232,
      "componentType": 5126,
      "count": 363,
      "type": "VEC4"
    },
    {
      "bufferView": 5,
      "byteOffset": 17424,
      "componentType": 5126,
      "count": 363,
      "type": "VEC3"
    },
    {
      "bufferView": 4,
      "byteOffset": 29040,
      "componentType": 5126,
      "count": 363,
      "type": "VEC4"
    },
    {
      "bufferView": 5,
      "byteOffset": 21780,
      "componentType": 5126,
      "count": 363,
      "type": "VEC3"
    },
    {
      "bufferView": 4,
      "byteOffset": 34848,
      "componentType": 5126,
      "count": 363,
      "type": "VEC4"
    },
    {
      "bufferView": 5,
      "byteOffset": 26136,
      "componentType": 5126,
      "count": 363,
      "type": "VEC3"
    },
    {
      "bufferView": 4,
      "byteOffset": 40656,
      "componentType": 5126,
      "count": 363,
      "type": "VEC4"
    },
    {
      "bufferView": 5,
      "byteOffset": 30492,
      "componentType": 5126,
      "count": 363,
      "type": "VEC3"
    },
    {
      "bufferView": 4,
      "byteOffset": 46464,
      "componentType": 5126,
      "count": 363,
      "type": "VEC4"
    },
    {
      "bufferView": 5,
      "byteOffset": 34848,
      "componentType": 5126,
      "count": 363,
      "type": "VEC3"
    },
    {
      "bufferView": 4,
      "byteOffset": 52272,
      "componentType": 5126,
      "count": 363,
      "type": "VEC4"
    },
    {
      "bufferView": 5,
      "byteOffset": 39204,
      "componentType": 5126,
      "count": 363,
      "type": "VEC3"
    },
    {
      "bufferView": 4,
      "byteOffset": 58080,
      "componentType": 5126,
      "count": 363,
      "type": "VEC4"
    },
    {
      "bufferView": 5,
      "byteOffset": 43560,
      "componentType": 5126,
      "count": 363,
      "type": "VEC3"
    },
    {
      "bufferView": 4,
      "byteOffset": 63888,
      "componentType": 5126,
      "count": 363,
      "type": "VEC4"
    },
    {
      "bufferView": 5,
      "byteOffset": 47916,
      "componentType": 5126,
      "count": 363,
      "type": "VEC3"
    },
    {
      "bufferView": 4,
      "byteOffset": 69696,
      "componentType": 5126,
      "count": 363,
      "type": "VEC4"
    },
    {
      "bufferView": 5,
      "byteOffset": 52272,
      "componentType": 5126,
      "count": 363,
      "type": "VEC3"
    },
    {
      "bufferView": 4,
      "byteOffset": 75504,
      "componentType": 5126,
      "count": 363,
      "type": "VEC4"
    },
    {
      "bufferView": 5,
      "byteOffset": 56628,
      "componentType": 5126,
      "count": 363,
      "type": "VEC3"
    },
    {
      "bufferView": 4,
      "byteOffset": 81312,
      "componentType": 5126,
      "count": 363,
      "type": "VEC4"
    },
    {
      "bufferView": 5,
      "byteOffset": 60984,
      "componentType": 5126,
      "count": 363,
      "type": "VEC3"
    },
    {
      "bufferView": 4,
      "byteOffset": 87120,
      "componentType": 5126,
      "count": 363,
      "type": "VEC4"
    },
    {
      "bufferView": 5,
      "byteOffset": 65340,
      "componentType": 5126,
      "count": 363,
      "type": "VEC3"
    },
    {
      "bufferView": 4,
      "byteOffset": 92928,
      "componentType": 5126,
      "count": 363,
      "type": "VEC4"
    },
    {
      "bufferView": 5,
      "byteOffset": 69696,
      "componentType": 5126,
      "count": 363,
      "type": "VEC3"
    },
    {
      "bufferView": 4,
      "byteOffset": 98736,
      "componentType": 5126,
      "count": 363,
      "type": "VEC4"
    },
    {
      "bufferView": 5,
      "byteOffset": 74052,
      "componentType": 5126,
      "count": 363,
      "type": "VEC3"
    },
    {
      "bufferView": 4,
      "byteOffset": 104544,
      "componentType": 5126,
      "count": 363,
      "type": "VEC4"
    },
    {
      "bufferView": 5,
      "byteOffset": 78408,
      "componentType": 5126,
      "count": 363,
      "type": "VEC3"
    },
    {
      "bufferView": 4,
      "byteOffset": 110352,
      "componentType": 5126,
      "count": 363,
      "type": "VEC4"
    },
    {
      "bufferView": 5,
      "byteOffset": 82764,
      "componentType": 5126,
      "count": 363,
      "type": "VEC3"
    },
    {
      "bufferView": 4,
      "byteOffset": 116160,
      "componentType": 5126,
      "count": 363,
      "type": "VEC4"
    },
    {
      "bufferView": 5,
      "byteOffset": 87120,
      "componentType": 5126,
      "count": 363,
      "type": "VEC3"
    },
    {
      "bufferView": 4,
      "byteOffset": 121968,
      "componentType": 5126,
      "count": 363,
      "type": "VEC4"
    },
    {
      "bufferView": 5,
      "byteOffset": 91476,
      "componentType": 5126,
      "count": 363,
      "type": "VEC3"
    },
    {
      "bufferView": 4,
      "byteOffset": 127776,
      "componentType": 5126,
      "count": 363,
      "type": "VEC4"
    },
    {
      "bufferView": 5,
      "byteOffset": 95832,
      "componentType": 5126,
      "count": 363,
      "type": "VEC3"
    },
    {
      "bufferView": 4,
      "byteOffset": 133584,
      "componentType": 5126,
      "count": 363,
      "type": "VEC4"
    },
    {
      "bufferView": 5,
      "byteOffset": 100188,
      "componentType": 5126,
      "count": 363,
      "type": "VEC3"
    },
    {
      "bufferView": 4,
      "byteOffset": 139392,
      "componentType": 5126,
      "count": 363,
      "type": "VEC4"
    },
    {
      "bufferView": 5,
      "byteOffset": 104544,
      "componentType": 5126,
      "count": 363,
      "type": "VEC3"
    },
    {
      "bufferView": 4,
      "byteOffset": 145200,
      "componentType": 5126,
      "count": 363,
      "type": "VEC4"
    },
    {
      "bufferView": 5,
      "byteOffset": 108900,
      "componentType": 5126,
      "count": 363,
      "type": "VEC3"
    },
    {
      "bufferView": 4,
      "byteOffset": 151008,
      "componentType": 5126,
      "count": 363,
      "type": "VEC4"
    },
    {
      "bufferView": 5,
      "byteOffset": 113256,
      "componentType": 5126,
      "count": 363,
      "type": "VEC3"
    },
    {
      "bufferView": 4,
      "byteOffset": 156816,
      "componentType": 5126,
      "count": 363,
      "type": "VEC4"
    },
    {
      "bufferView": 5,
      "byteOffset": 117612,
      "componentType": 5126,
      "count": 363,
      "type": "VEC3"
    },
    {
      "bufferView": 4,
      "byteOffset": 162624,
      "componentType": 5126,
      "count": 363,
      "type": "VEC4"
    },
    {
      "bufferView": 5,
      "byteOffset": 121968,
      "componentType": 5126,
      "count": 363,
      "type": "VEC3"
    },
    {
      "bufferView": 4,
      "byteOffset": 168432,
      "componentType": 5126,
      "count": 363,
      "type": "VEC4"
    },
    {
      "bufferView": 5,
      "byteOffset": 126324,
      "componentType": 5126,
      "count": 363,
      "type": "VEC3"
    },
    {
      "bufferView": 4,
      "byteOffset": 174240,
      "componentType": 5126,
      "count": 363,
      "type": "VEC4"
    },
    {
      "bufferView": 5,
      "byteOffset": 130680,
      "componentType": 5126,
      "count": 363,
      "type": "VEC3"
    },
    {
      "bufferView": 4,
      "byteOffset": 180048,
      "componentType": 5126,
      "count": 363,
      "type": "VEC4"
    },
    {
      "bufferView": 5,
      "byteOffset": 135036,
      "componentType": 5126,
      "count": 363,
      "type": "VEC3"
    },
    {
      "bufferView": 4,
      "byteOffset": 185856,
      "componentType": 5126,
      "count": 363,
      "type": "VEC4"
    },
    {
      "bufferView": 5,
      "byteOffset": 139392,
      "componentType": 5126,
      "count": 363,
      "type": "VEC3"
    },
    {
      "bufferView": 4,
      "byteOffset": 191664,
      "componentType": 5126,
      "count": 363,
      "type": "VEC4"
    },
    {
      "bufferView": 5,
      "byteOffset": 143748,
      "componentType": 5126,
      "count": 363,
      "type": "VEC3"
    },
    {
      "bufferView": 4,
      "byteOffset": 197472,
      "componentType": 5126,
      "count": 363,
      "type": "VEC4"
    },
    {
      "bufferView": 5,
      "byteOffset": 148104,
      "componentType": 5126,
      "count": 363,
      "type": "VEC3"
    },
    {
      "bufferView": 4,
      "byteOffset": 203280,
      "componentType": 5126,
      "count": 363,
      "type": "VEC4"
    },
    {
      "bufferView": 5,
      "byteOffset": 152460,
      "componentType": 5126,
      "count": 363,
      "type": "VEC3"
    },
    {
      "bufferView": 4,
      "byteOffset": 209088,
      "componentType": 5126,
      "count": 363,
      "type": "VEC4"
    },
    {
      "bufferView": 5,
      "byteOffset": 156816,
      "componentType": 5126,
      "count": 363,
      "type": "VEC3"
    },
    {
      "bufferView": 4,
      "byteOffset": 214896,
      "componentType": 5126,
      "count": 363,
      "type": "VEC4"
    },
    {
      "bufferView": 5,
      "byteOffset": 161172,
      "componentType": 5126,
      "count": 363,
      "type": "VEC3"
    },
    {
      "bufferView": 4,
      "byteOffset": 220704,
      "componentType": 5126,
      "count": 363,
      "type": "VEC4"
    },
    {
      "bufferView": 5,
      "byteOffset": 165528,
      "componentType": 5126,
      "count": 363,
      "type": "VEC3"
    },
    {
      "bufferView": 4,
      "byteOffset": 226512,
      "componentType": 5126,
      "count": 363,
      "type": "VEC4"
    },
    {
      "bufferView": 5,
      "byteOffset": 169884,
      "componentType": 5126,
      "count": 363,
      "type": "VEC3"
    },
    {
      "bufferView": 4,
      "byteOffset": 232320,
      "componentType": 5126,
      "count": 363,
      "type": "VEC4"
    },
    {
      "bufferView": 5,
      "byteOffset": 174240,
      "componentType": 5126,
      "count": 363,
      "type": "VEC3"
    },
    {
      "bufferView": 4,
      "byteOffset": 238128,
      "componentType": 5126,
      "count": 363,
      "type": "VEC4"
    },
    {
      "bufferView": 5,
      "byteOffset": 178596,
      "componentType": 5126,
      "count": 363,
      "type": "VEC3"
    }
  ],
  "skins": [
    {
      "name": "skin0",
      "inverseBindMatrices": 6,
      "joints": [
        23,
        3,
        4,
        24,
        5,
        6,
        2,
        41,
        25,
        35,
        26,
        29,
        32,
        38,
        39,
        40,
        33,
        30,
        27,
        36,
        34,
        31,
        28,
        7,
        17,
        8,
        14,
        11,
        20,
        21,
        22,
        15,
        12,
        9,
        18,
        16,
        13,
        10
      ]
    }
  ],
  "meshes": [
    {
      "name": "neutrals_airelemental",
      "primitives": [
        {
          "attributes": {
            "POSITION": 1,
            "NORMAL": 2,
            "TEXCOORD_0": 3,
            "WEIGHTS_0": 4,
            "JOINTS_0": 5
          },
          "indices": 0,
          "mode": 4,
          "material": 0
        }
      ]
    }
  ],
  "animations": [
    {
      "channels": [
        {
          "sampler": 0,
          "target": {
            "node": 1,
            "path": "rotation"
          }
        },
        {
          "sampler": 1,
          "target": {
            "node": 1,
            "path": "translation"
          }
        },
        {
          "sampler": 2,
          "target": {
            "node": 2,
            "path": "rotation"
          }
        },
        {
          "sampler": 3,
          "target": {
            "node": 2,
            "path": "translation"
          }
        },
        {
          "sampler": 4,
          "target": {
            "node": 3,
            "path": "rotation"
          }
        },
        {
          "sampler": 5,
          "target": {
            "node": 3,
            "path": "translation"
          }
        },
        {
          "sampler": 6,
          "target": {
            "node": 4,
            "path": "rotation"
          }
        },
        {
          "sampler": 7,
          "target": {
            "node": 4,
            "path": "translation"
          }
        },
        {
          "sampler": 8,
          "target": {
            "node": 5,
            "path": "rotation"
          }
        },
        {
          "sampler": 9,
          "target": {
            "node": 5,
            "path": "translation"
          }
        },
        {
          "sampler": 10,
          "target": {
            "node": 6,
            "path": "rotation"
          }
        },
        {
          "sampler": 11,
          "target": {
            "node": 6,
            "path": "translation"
          }
        },
        {
          "sampler": 12,
          "target": {
            "node": 7,
            "path": "rotation"
          }
        },
        {
          "sampler": 13,
          "target": {
            "node": 7,
            "path": "translation"
          }
        },
        {
          "sampler": 14,
          "target": {
            "node": 8,
            "path": "rotation"
          }
        },
        {
          "sampler": 15,
          "target": {
            "node": 8,
            "path": "translation"
          }
        },
        {
          "sampler": 16,
          "target": {
            "node": 9,
            "path": "rotation"
          }
        },
        {
          "sampler": 17,
          "target": {
            "node": 9,
            "path": "translation"
          }
        },
        {
          "sampler": 18,
          "target": {
            "node": 10,
            "path": "rotation"
          }
        },
        {
          "sampler": 19,
          "target": {
            "node": 10,
            "path": "translation"
          }
        },
        {
          "sampler": 20,
          "target": {
            "node": 11,
            "path": "rotation"
          }
        },
        {
          "sampler": 21,
          "target": {
            "node": 11,
            "path": "translation"
          }
        },
        {
          "sampler": 22,
          "target": {
            "node": 12,
            "path": "rotation"
          }
        },
        {
          "sampler": 23,
          "target": {
            "node": 12,
            "path": "translation"
          }
        },
        {
          "sampler": 24,
          "target": {
            "node": 13,
            "path": "rotation"
          }
        },
        {
          "sampler": 25,
          "target": {
            "node": 13,
            "path": "translation"
          }
        },
        {
          "sampler": 26,
          "target": {
            "node": 14,
            "path": "rotation"
          }
        },
        {
          "sampler": 27,
          "target": {
            "node": 14,
            "path": "translation"
          }
        },
        {
          "sampler": 28,
          "target": {
            "node": 15,
            "path": "rotation"
          }
        },
        {
          "sampler": 29,
          "target": {
            "node": 15,
            "path": "translation"
          }
        },
        {
          "sampler": 30,
          "target": {
            "node": 16,
            "path": "rotation"
          }
        },
        {
          "sampler": 31,
          "target": {
            "node": 16,
            "path": "translation"
          }
        },
        {
          "sampler": 32,
          "target": {
            "node": 17,
            "path": "rotation"
          }
        },
        {
          "sampler": 33,
          "target": {
            "node": 17,
            "path": "translation"
          }
        },
        {
          "sampler": 34,
          "target": {
            "node": 18,
            "path": "rotation"
          }
        },
        {
          "sampler": 35,
          "target": {
            "node": 18,
            "path": "translation"
          }
        },
        {
          "sampler": 36,
          "target": {
            "node": 19,
            "path": "rotation"
          }
        },
        {
          "sampler": 37,
          "target": {
            "node": 19,
            "path": "translation"
          }
        },
        {
          "sampler": 38,
          "target": {
            "node": 20,
            "path": "rotation"
          }
        },
        {
          "sampler": 39,
          "target": {
            "node": 20,
            "path": "translation"
          }
        },
        {
          "sampler": 40,
          "target": {
            "node": 21,
            "path": "rotation"
          }
        },
        {
          "sampler": 41,
          "target": {
            "node": 21,
            "path": "translation"
          }
        },
        {
          "sampler": 42,
          "target": {
            "node": 22,
            "path": "rotation"
          }
        },
        {
          "sampler": 43,
          "target": {
            "node": 22,
            "path": "translation"
          }
        },
        {
          "sampler": 44,
          "target": {
            "node": 23,
            "path": "rotation"
          }
        },
        {
          "sampler": 45,
          "target": {
            "node": 23,
            "path": "translation"
          }
        },
        {
          "sampler": 46,
          "target": {
            "node": 24,
            "path": "rotation"
          }
        },
        {
          "sampler": 47,
          "target": {
            "node": 24,
            "path": "translation"
          }
        },
        {
          "sampler": 48,
          "target": {
            "node": 25,
            "path": "rotation"
          }
        },
        {
          "sampler": 49,
          "target": {
            "node": 25,
            "path": "translation"
          }
        },
        {
          "sampler": 50,
          "target": {
            "node": 26,
            "path": "rotation"
          }
        },
        {
          "sampler": 51,
          "target": {
            "node": 26,
            "path": "translation"
          }
        },
        {
          "sampler": 52,
          "target": {
            "node": 27,
            "path": "rotation"
          }
        },
        {
          "sampler": 53,
          "target": {
            "node": 27,
            "path": "translation"
          }
        },
        {
          "sampler": 54,
          "target": {
            "node": 28,
            "path": "rotation"
          }
        },
        {
          "sampler": 55,
          "target": {
            "node": 28,
            "path": "translation"
          }
        },
        {
          "sampler": 56,
          "target": {
            "node": 29,
            "path": "rotation"
          }
        },
        {
          "sampler": 57,
          "target": {
            "node": 29,
            "path": "translation"
          }
        },
        {
          "sampler": 58,
          "target": {
            "node": 30,
            "path": "rotation"
          }
        },
        {
          "sampler": 59,
          "target": {
            "node": 30,
            "path": "translation"
          }
        },
        {
          "sampler": 60,
          "target": {
            "node": 31,
            "path": "rotation"
          }
        },
        {
          "sampler": 61,
          "target": {
            "node": 31,
            "path": "translation"
          }
        },
        {
          "sampler": 62,
          "target": {
            "node": 32,
            "path": "rotation"
          }
        },
        {
          "sampler": 63,
          "target": {
            "node": 32,
            "path": "translation"
          }
        },
        {
          "sampler": 64,
          "target": {
            "node": 33,
            "path": "rotation"
          }
        },
        {
          "sampler": 65,
          "target": {
            "node": 33,
            "path": "translation"
          }
        },
        {
          "sampler": 66,
          "target": {
            "node": 34,
            "path": "rotation"
          }
        },
        {
          "sampler": 67,
          "target": {
            "node": 34,
            "path": "translation"
          }
        },
        {
          "sampler": 68,
          "target": {
            "node": 35,
            "path": "rotation"
          }
        },
        {
          "sampler": 69,
          "target": {
            "node": 35,
            "path": "translation"
          }
        },
        {
          "sampler": 70,
          "target": {
            "node": 36,
            "path": "rotation"
          }
        },
        {
          "sampler": 71,
          "target": {
            "node": 36,
            "path": "translation"
          }
        },
        {
          "sampler": 72,
          "target": {
            "node": 37,
            "path": "rotation"
          }
        },
        {
          "sampler": 73,
          "target": {
            "node": 37,
            "path": "translation"
          }
        },
        {
          "sampler": 74,
          "target": {
            "node": 38,
            "path": "rotation"
          }
        },
        {
          "sampler": 75,
          "target": {
            "node": 38,
            "path": "translation"
          }
        },
        {
          "sampler": 76,
          "target": {
            "node": 39,
            "path": "rotation"
          }
        },
        {
          "sampler": 77,
          "target": {
            "node": 39,
            "path": "translation"
          }
        },
        {
          "sampler": 78,
          "target": {
            "node": 40,
            "path": "rotation"
          }
        },
        {
          "sampler": 79,
          "target": {
            "node": 40,
            "path": "translation"
          }
        },
        {
          "sampler": 80,
          "target": {
            "node": 41,
            "path": "rotation"
          }
        },
        {
          "sampler": 81,
          "target": {
            "node": 41,
            "path": "translation"
          }
        },
        {
          "sampler": 82,
          "target": {
            "node": 42,
            "path": "rotation"
          }
        },
        {
          "sampler": 83,
          "target": {
            "node": 42,
            "path": "translation"
          }
        }
      ],
      "samplers": [
        {
          "input": 7,
          "output": 8,
          "interpolation": "LINEAR"
        },
        {
          "input": 7,
          "output": 9,
          "interpolation": "LINEAR"
        },
        {
          "input": 7,
          "output": 10,
          "interpolation": "LINEAR"
        },
        {
          "input": 7,
          "output": 11,
          "interpolation": "LINEAR"
        },
        {
          "input": 7,
          "output": 12,
          "interpolation": "LINEAR"
        },
        {
          "input": 7,
          "output": 13,
          "interpolation": "LINEAR"
        },
        {
          "input": 7,
          "output": 14,
          "interpolation": "LINEAR"
        },
        {
          "input": 7,
          "output": 15,
          "interpolation": "LINEAR"
        },
        {
          "input": 7,
          "output": 16,
          "interpolation": "LINEAR"
        },
        {
          "input": 7,
          "output": 17,
          "interpolation": "LINEAR"
        },
        {
          "input": 7,
          "output": 18,
          "interpolation": "LINEAR"
        },
        {
          "input": 7,
          "output": 19,
          "interpolation": "LINEAR"
        },
        {
          "input": 7,
          "output": 20,
          "interpolation": "LINEAR"
        },
        {
          "input": 7,
          "output": 21,
          "interpolation": "LINEAR"
        },
        {
          "input": 7,
          "output": 22,
          "interpolation": "LINEAR"
        },
        {
          "input": 7,
          "output": 23,
          "interpolation": "LINEAR"
        },
        {
          "input": 7,
          "output": 24,
          "interpolation": "LINEAR"
        },
        {
          "input": 7,
          "output": 25,
          "interpolation": "LINEAR"
        },
        {
          "input": 7,
          "output": 26,
          "interpolation": "LINEAR"
        },
        {
          "input": 7,
          "output": 27,
          "interpolation": "LINEAR"
        },
        {
          "input": 7,
          "output": 28,
          "interpolation": "LINEAR"
        },
        {
          "input": 7,
          "output": 29,
          "interpolation": "LINEAR"
        },
        {
          "input": 7,
          "output": 30,
          "interpolation": "LINEAR"
        },
        {
          "input": 7,
          "output": 31,
          "interpolation": "LINEAR"
        },
        {
          "input": 7,
          "output": 32,
          "interpolation": "LINEAR"
        },
        {
          "input": 7,
          "output": 33,
          "interpolation": "LINEAR"
        },
        {
          "input": 7,
          "output": 34,
          "interpolation": "LINEAR"
        },
        {
          "input": 7,
          "output": 35,
          "interpolation": "LINEAR"
        },
        {
          "input": 7,
          "output": 36,
          "interpolation": "LINEAR"
        },
        {
          "input": 7,
          "output": 37,
          "interpolation": "LINEAR"
        },
        {
          "input": 7,
          "output": 38,
          "interpolation": "LINEAR"
        },
        {
          "input": 7,
          "output": 39,
          "interpolation": "LINEAR"
        },
        {
          "input": 7,
          "output": 40,
          "interpolation": "LINEAR"
        },
        {
          "input": 7,
          "output": 41,
          "interpolation": "LINEAR"
        },
        {
          "input": 7,
          "output": 42,
          "interpolation": "LINEAR"
        },
        {
          "input": 7,
          "output": 43,
          "interpolation": "LINEAR"
        },
        {
          "input": 7,
          "output": 44,
          "interpolation": "LINEAR"
        },
        {
          "input": 7,
          "output": 45,
          "interpolation": "LINEAR"
        },
        {
          "input": 7,
          "output": 46,
          "interpolation": "LINEAR"
        },
        {
          "input": 7,
          "output": 47,
          "interpolation": "LINEAR"
        },
        {
          "input": 7,
          "output": 48,
          "interpolation": "LINEAR"
        },
        {
          "input": 7,
          "output": 49,
          "interpolation": "LINEAR"
        },
        {
          "input": 7,
          "output": 50,
          "interpolation": "LINEAR"
        },
        {
          "input": 7,
          "output": 51,
          "interpolation": "LINEAR"
        },
        {
          "input": 7,
          "output": 52,
          "interpolation": "LINEAR"
        },
        {
          "input": 7,
          "output": 53,
          "interpolation": "LINEAR"
        },
        {
          "input": 7,
          "output": 54,
          "interpolation": "LINEAR"
        },
        {
          "input": 7,
          "output": 55,
          "interpolation": "LINEAR"
        },
        {
          "input": 7,
          "output": 56,
          "interpolation": "LINEAR"
        },
        {
          "input": 7,
          "output": 57,
          "interpolation": "LINEAR"
        },
        {
          "input": 7,
          "output": 58,
          "interpolation": "LINEAR"
        },
        {
          "input": 7,
          "output": 59,
          "interpolation": "LINEAR"
        },
        {
          "input": 7,
          "output": 60,
          "interpolation": "LINEAR"
        },
        {
          "input": 7,
          "output": 61,
          "interpolation": "LINEAR"
        },
        {
          "input": 7,
          "output": 62,
          "interpolation": "LINEAR"
        },
        {
          "input": 7,
          "output": 63,
          "interpolation": "LINEAR"
        },
        {
          "input": 7,
          "output": 64,
          "interpolation": "LINEAR"
        },
        {
          "input": 7,
          "output": 65,
          "interpolation": "LINEAR"
        },
        {
          "input": 7,
          "output": 66,
          "interpolation": "LINEAR"
        },
        {
          "input": 7,
          "output": 67,
          "interpolation": "LINEAR"
        },
        {
          "input": 7,
          "output": 68,
          "interpolation": "LINEAR"
        },
        {
          "input": 7,
          "output": 69,
          "interpolation": "LINEAR"
        },
        {
          "input": 7,
          "output": 70,
          "interpolation": "LINEAR"
        },
        {
          "input": 7,
          "output": 71,
          "interpolation": "LINEAR"
        },
        {
          "input": 7,
          "output": 72,
          "interpolation": "LINEAR"
        },
        {
          "input": 7,
          "output": 73,
          "interpolation": "LINEAR"
        },
        {
          "input": 7,
          "output": 74,
          "interpolation": "LINEAR"
        },
        {
          "input": 7,
          "output": 75,
          "interpolation": "LINEAR"
        },
        {
          "input": 7,
          "output": 76,
          "interpolation": "LINEAR"
        },
        {
          "input": 7,
          "output": 77,
          "interpolation": "LINEAR"
        },
        {
          "input": 7,
          "output": 78,
          "interpolation": "LINEAR"
        },
        {
          "input": 7,
          "output": 79,
          "interpolation": "LINEAR"
        },
        {
          "input": 7,
          "output": 80,
          "interpolation": "LINEAR"
        },
        {
          "input": 7,
          "output": 81,
          "interpolation": "LINEAR"
        },
        {
          "input": 7,
          "output": 82,
          "interpolation": "LINEAR"
        },
        {
          "input": 7,
          "output": 83,
          "interpolation": "LINEAR"
        },
        {
          "input": 7,
          "output": 84,
          "interpolation": "LINEAR"
        },
        {
          "input": 7,
          "output": 85,
          "interpolation": "LINEAR"
        },
        {
          "input": 7,
          "output": 86,
          "interpolation": "LINEAR"
        },
        {
          "input": 7,
          "output": 87,
          "interpolation": "LINEAR"
        },
        {
          "input": 7,
          "output": 88,
          "interpolation": "LINEAR"
        },
        {
          "input": 7,
          "output": 89,
          "interpolation": "LINEAR"
        },
        {
          "input": 7,
          "output": 90,
          "interpolation": "LINEAR"
        },
        {
          "input": 7,
          "output": 91,
          "interpolation": "LINEAR"
        }
      ]
    }
  ],
  "bufferViews": [
    {
      "name": "mesh_indexes_neutrals_airelemental",
      "buffer": 0,
      "byteOffset": 0,
      "byteLength": 60672,
      "target": 34963
    },
    {
      "name": "mesh_vertexes_neutrals_airelemental",
      "buffer": 0,
      "byteOffset": 60672,
      "byteLength": 179556,
      "byteStride": 52,
      "target": 34962
    },
    {
      "name": "mesh_bones_neutrals_airelemental",
      "buffer": 0,
      "byteOffset": 240228,
      "byteLength": 2432
    },
    {
      "name": "frames",
      "buffer": 0,
      "byteOffset": 242660,
      "byteLength": 1452
    },
    {
      "name": "bones_rotate",
      "buffer": 0,
      "byteOffset": 244112,
      "byteLength": 243936
    },
    {
      "name": "bones_translate",
      "buffer": 0,
      "byteOffset": 488048,
      "byteLength": 182952
    }
  ],
  "buffers": [
    {
      "uri": "character_neutrals_airelemental.bin",
      "byteLength": 671000
    }
  ],
  "images": [
    {
      "uri": "character_neutrals_airelemental.dds"
    }
  ],
  "textures": [
    {
      "source": 0
    }
  ],
  "materials": [
    {
      "name": "material0",
      "alphaMode": "MASK",
      "pbrMetallicRoughness": {
        "baseColorTexture": {
          "index": 0,
          "texCoord": 0
        },
        "metallicFactor": 0.0
      },
      "emissiveFactor": [
        0.0,
        0.0,
        0.0
      ]
    }
  ]
}