{
  "asset": {
    "version": "2.0",
    "generator": "generated with dis3tool v1.1 by root.ext@gmail.com"
  },
  "scenes": [
    {
      "nodes": [
        0,
        1
      ]
    }
  ],
  "scene": 0,
  "nodes": [
    {
      "name": "water_snake",
      "mesh": 0,
      "skin": 0
    },
    {
      "name": "reference",
      "rotation": [
        -5.96046448E-08,
        -8.742278E-08,
        -5.21080354E-15,
        1.0
      ],
      "translation": [
        4.30415455E-14,
        3.813982E-08,
        1.81864852E-14
      ],
      "children": [
        2
      ]
    },
    {
      "name": "hips",
      "rotation": [
        -0.0538918041,
        0.705145538,
        0.7050499,
        0.0526335463
      ],
      "translation": [
        -3.7685E-07,
        0.9467791,
        -3.96944E-08
      ],
      "children": [
        3,
        11,
        39,
        43
      ]
    },
    {
      "name": "tail_1",
      "rotation": [
        0.0177033078,
        0.0542745627,
        -0.3012822,
        0.951824665
      ],
      "translation": [
        0.8432874,
        6.740892E-07,
        -0.206135929
      ],
      "children": [
        4
      ]
    },
    {
      "name": "tail_2",
      "rotation": [
        0.0112439385,
        -0.07238122,
        -0.27905,
        0.95747894
      ],
      "translation": [
        1.12976992,
        7.067681E-07,
        3.18464373E-07
      ],
      "children": [
        5
      ]
    },
    {
      "name": "tail_3",
      "rotation": [
        -0.00492226752,
        0.0154157374,
        -0.255687147,
        0.96662426
      ],
      "translation": [
        1.4137485,
        9.134868E-09,
        6.25674261E-07
      ],
      "children": [
        6
      ]
    },
    {
      "name": "tail_4",
      "rotation": [
        0.0114184879,
        0.03736873,
        -0.316201717,
        0.947887063
      ],
      "translation": [
        1.46417356,
        6.977799E-07,
        -2.474594E-07
      ],
      "children": [
        7
      ]
    },
    {
      "name": "tail_5",
      "rotation": [
        0.0214901157,
        -0.013013524,
        -0.348441631,
        0.936993837
      ],
      "translation": [
        1.41352248,
        8.128201E-07,
        2.780534E-07
      ],
      "children": [
        8
      ]
    },
    {
      "name": "tail_6",
      "rotation": [
        0.0130886082,
        -0.01944116,
        -0.5273257,
        0.8493401
      ],
      "translation": [
        1.43751121,
        -3.083055E-08,
        -1.57855055E-07
      ],
      "children": [
        9
      ]
    },
    {
      "name": "tail_7",
      "rotation": [
        0.01580702,
        0.032206662,
        -0.421739846,
        0.9060069
      ],
      "translation": [
        1.47162044,
        -1.25238773E-06,
        1.95853022E-06
      ],
      "children": [
        10
      ]
    },
    {
      "name": "tail_8",
      "rotation": [
        4.2910483E-06,
        3.854872E-10,
        -8.34525764E-08,
        1.0
      ],
      "translation": [
        1.36111438,
        1.70982855E-06,
        9.566868E-08
      ]
    },
    {
      "name": "spine_1",
      "rotation": [
        0.0104763974,
        0.9999452,
        1.34740985E-05,
        0.000361005659
      ],
      "translation": [
        -0.00477632741,
        1.22040069E-06,
        7.04695849E-05
      ],
      "children": [
        12
      ]
    },
    {
      "name": "spine_2",
      "rotation": [
        -0.000304945483,
        -0.00376457232,
        -0.11225941,
        0.993671954
      ],
      "translation": [
        0.6271343,
        -5.867118E-07,
        -4.29491479E-07
      ],
      "children": [
        13
      ]
    },
    {
      "name": "spine_3",
      "rotation": [
        3.210066E-05,
        0.008890424,
        -0.0131180473,
        0.999874532
      ],
      "translation": [
        0.7464994,
        -1.16285548E-06,
        -4.055281E-07
      ],
      "children": [
        14
      ]
    },
    {
      "name": "spine_4",
      "rotation": [
        0.00584967854,
        0.0166464765,
        -0.206691191,
        0.9782472
      ],
      "translation": [
        0.758633,
        6.901313E-07,
        -8.721448E-07
      ],
      "children": [
        15
      ]
    },
    {
      "name": "spine_5",
      "rotation": [
        0.00201605749,
        0.0182044469,
        -0.03165321,
        0.999331236
      ],
      "translation": [
        0.823036432,
        9.814239E-08,
        -4.472095E-07
      ],
      "children": [
        16
      ]
    },
    {
      "name": "spine_6",
      "rotation": [
        0.0134957237,
        0.04699522,
        -0.104012989,
        0.993373454
      ],
      "translation": [
        0.7798786,
        8.94954937E-08,
        -1.70880583E-06
      ],
      "children": [
        17,
        23,
        28
      ]
    },
    {
      "name": "left_shoulder",
      "rotation": [
        -0.548359454,
        -0.5761346,
        0.335716724,
        0.5046438
      ],
      "translation": [
        0.7634172,
        0.306833982,
        0.169660881
      ],
      "children": [
        18
      ]
    },
    {
      "name": "left_foreamr",
      "rotation": [
        0.0103062643,
        -0.617432535,
        -0.124237977,
        0.776682556
      ],
      "translation": [
        0.6273638,
        -2.54752081E-07,
        -1.456628E-06
      ],
      "children": [
        19
      ]
    },
    {
      "name": "left_arm",
      "rotation": [
        -0.0354742743,
        0.873034835,
        -0.0463857129,
        0.48414892
      ],
      "translation": [
        0.6585068,
        -9.045889E-07,
        -4.28313029E-07
      ],
      "children": [
        20
      ]
    },
    {
      "name": "left_hand",
      "rotation": [
        -0.00872810651,
        -0.633410752,
        0.0433280766,
        0.7725525
      ],
      "translation": [
        0.6953971,
        7.443864E-07,
        6.56314853E-07
      ],
      "children": [
        21
      ]
    },
    {
      "name": "left_finger",
      "rotation": [
        0.228706583,
        -0.6053783,
        -0.00692390371,
        0.762340367
      ],
      "translation": [
        0.279597849,
        -2.792491E-05,
        -1.01102694E-06
      ],
      "children": [
        22
      ]
    },
    {
      "name": "null",
      "rotation": [
        -0.0040625874,
        0.0259742178,
        -6.913582E-05,
        0.9996545
      ],
      "translation": [
        0.8063702,
        -8.495696E-07,
        -1.20537052E-07
      ]
    },
    {
      "name": "right_shoulder",
      "rotation": [
        -0.516985953,
        0.6279494,
        0.3334928,
        -0.4766422
      ],
      "translation": [
        0.763417065,
        -0.306833059,
        0.169660792
      ],
      "children": [
        24
      ]
    },
    {
      "name": "right_foreamr",
      "rotation": [
        -0.00542619545,
        -0.6012207,
        0.118877128,
        0.7901725
      ],
      "translation": [
        0.6273626,
        -1.524507E-07,
        -5.773411E-07
      ],
      "children": [
        25
      ]
    },
    {
      "name": "right_arm",
      "rotation": [
        0.0228547417,
        0.861508369,
        0.04749402,
        0.5050005
      ],
      "translation": [
        0.658513546,
        2.510333E-07,
        -6.036353E-07
      ],
      "children": [
        26
      ]
    },
    {
      "name": "right_hand",
      "rotation": [
        0.02732582,
        -0.6066824,
        -0.044737462,
        0.793214262
      ],
      "translation": [
        0.695407867,
        5.47168042E-07,
        3.27085417E-07
      ],
      "children": [
        27
      ]
    },
    {
      "name": "right_finger",
      "rotation": [
        -0.212238967,
        -0.6360316,
        0.01557978,
        0.7417385
      ],
      "translation": [
        0.279589176,
        -9.583414E-08,
        2.988718E-07
      ]
    },
    {
      "name": "neck_1",
      "rotation": [
        5.436324E-06,
        0.2894336,
        -1.73922479E-06,
        0.957198262
      ],
      "translation": [
        0.802832,
        1.03423019E-07,
        -2.377844E-07
      ],
      "children": [
        29
      ]
    },
    {
      "name": "Tentacle_ctrl",
      "rotation": [
        9.377032E-06,
        0.3034308,
        -2.783902E-06,
        0.9528536
      ],
      "translation": [
        0.6802413,
        -1.26259579E-06,
        -2.20570359E-06
      ],
      "children": [
        30
      ]
    },
    {
      "name": "neck_2",
      "rotation": [
        -0.0150007838,
        -0.0251761582,
        0.0121269552,
        0.999497056
      ],
      "translation": [
        1.18742953E-07,
        3.951434E-07,
        -4.22517815E-07
      ],
      "children": [
        31
      ]
    },
    {
      "name": "neck_3",
      "rotation": [
        -0.3452075,
        0.171865672,
        0.0326085351,
        0.9220797
      ],
      "translation": [
        0.5857395,
        0.02292041,
        -0.0183443781
      ],
      "children": [
        32
      ]
    },
    {
      "name": "neck_4",
      "rotation": [
        0.03043549,
        0.212401524,
        0.0445398279,
        0.975692451
      ],
      "translation": [
        0.5493988,
        2.07708013E-07,
        -2.297665E-07
      ],
      "children": [
        33
      ]
    },
    {
      "name": "neck_5",
      "rotation": [
        0.04396986,
        0.164329246,
        0.0180379227,
        0.985260069
      ],
      "translation": [
        0.6008326,
        9.463584E-07,
        1.8011491E-06
      ],
      "children": [
        34
      ]
    },
    {
      "name": "neck_6",
      "rotation": [
        0.07784851,
        -0.188611567,
        -0.0105465585,
        0.9789046
      ],
      "translation": [
        0.574398756,
        2.10211709E-07,
        -9.603497E-07
      ],
      "children": [
        35
      ]
    },
    {
      "name": "neck_7",
      "rotation": [
        0.08441079,
        -0.5285552,
        -0.00627924548,
        0.8446687
      ],
      "translation": [
        0.590663433,
        4.672052E-07,
        -5.93421248E-07
      ],
      "children": [
        36
      ]
    },
    {
      "name": "neck_8",
      "rotation": [
        0.05060131,
        -0.5312033,
        0.00223177229,
        0.845729232
      ],
      "translation": [
        0.5902938,
        8.0702614E-07,
        -1.21543977E-07
      ],
      "children": [
        37
      ]
    },
    {
      "name": "head",
      "rotation": [
        0.0133078778,
        -0.193906561,
        -0.0285106041,
        0.9805155
      ],
      "translation": [
        0.5076545,
        2.62930848E-06,
        9.65357E-06
      ],
      "children": [
        38
      ]
    },
    {
      "name": "rot",
      "rotation": [
        0.00087003276,
        -0.0136942128,
        0.00428430736,
        0.9998968
      ],
      "translation": [
        0.379374057,
        0.00331645249,
        0.02652379
      ]
    },
    {
      "name": "left_back_sholder",
      "rotation": [
        0.451503277,
        0.5390145,
        0.5099118,
        0.495579571
      ],
      "translation": [
        0.289982766,
        0.1798541,
        -0.226257965
      ],
      "children": [
        40
      ]
    },
    {
      "name": "left_back_forearm",
      "rotation": [
        -0.05077896,
        -0.6177022,
        -0.235287055,
        0.748669565
      ],
      "translation": [
        0.546542346,
        2.315864E-07,
        -1.51101347E-07
      ],
      "children": [
        41
      ]
    },
    {
      "name": "left_back_arm",
      "rotation": [
        -0.0433310941,
        0.860357344,
        0.1884717,
        0.471579164
      ],
      "translation": [
        0.5379865,
        -1.26773818E-06,
        -3.07725E-08
      ],
      "children": [
        42
      ]
    },
    {
      "name": "left_back_hand",
      "rotation": [
        0.02951493,
        0.9016574,
        -0.04230057,
        -0.42936492
      ],
      "translation": [
        0.5827616,
        3.032426E-08,
        -5.86225646E-09
      ]
    },
    {
      "name": "right_back_sholder",
      "rotation": [
        -0.3289577,
        0.621520758,
        -0.6018803,
        0.378469616
      ],
      "translation": [
        0.289984465,
        -0.179823816,
        -0.226251259
      ],
      "children": [
        44
      ]
    },
    {
      "name": "right_back_forearm",
      "rotation": [
        0.0157398377,
        -0.723465145,
        0.26461637,
        0.6374397
      ],
      "translation": [
        0.546541631,
        -3.93846051E-07,
        2.88343358E-07
      ],
      "children": [
        45
      ]
    },
    {
      "name": "right_back_arm",
      "rotation": [
        0.019295333,
        0.8569905,
        -0.1472225,
        0.493478566
      ],
      "translation": [
        0.5379868,
        -9.03948347E-08,
        -4.34155567E-07
      ],
      "children": [
        46
      ]
    },
    {
      "name": "right_back_hand",
      "rotation": [
        0.0502852425,
        0.92938745,
        -0.00177770178,
        -0.365660578
      ],
      "translation": [
        0.5827606,
        -3.74006333E-07,
        -2.02328124E-07
      ]
    }
  ],
  "accessors": [
    {
      "bufferView": 0,
      "byteOffset": 0,
      "componentType": 5125,
      "count": 19686,
      "type": "SCALAR"
    },
    {
      "bufferView": 1,
      "byteOffset": 0,
      "componentType": 5126,
      "count": 5274,
      "type": "VEC3",
      "min": [
        -2.46867752,
        0.139384463,
        -5.013555
      ],
      "max": [
        5.36346054,
        5.138223,
        1.32611156
      ]
    },
    {
      "bufferView": 1,
      "byteOffset": 12,
      "componentType": 5126,
      "count": 5274,
      "type": "VEC3"
    },
    {
      "bufferView": 1,
      "byteOffset": 24,
      "componentType": 5126,
      "count": 5274,
      "type": "VEC2"
    },
    {
      "bufferView": 1,
      "byteOffset": 32,
      "componentType": 5126,
      "count": 5274,
      "type": "VEC4"
    },
    {
      "bufferView": 1,
      "byteOffset": 48,
      "componentType": 5121,
      "count": 5274,
      "type": "VEC4"
    },
    {
      "bufferView": 2,
      "byteOffset": 0,
      "componentType": 5126,
      "count": 42,
      "type": "MAT4"
    },
    {
      "bufferView": 3,
      "byteOffset": 0,
      "componentType": 5126,
      "count": 461,
      "type": "SCALAR",
      "min": [
        0.0
      ],
      "max": [
        15.333334
      ]
    },
    {
      "bufferView": 4,
      "byteOffset": 0,
      "componentType": 5126,
      "count": 461,
      "type": "VEC4"
    },
    {
      "bufferView": 5,
      "byteOffset": 0,
      "componentType": 5126,
      "count": 461,
      "type": "VEC3"
    },
    {
      "bufferView": 4,
      "byteOffset": 7376,
      "componentType": 5126,
      "count": 461,
      "type": "VEC4"
    },
    {
      "bufferView": 5,
      "byteOffset": 5532,
      "componentType": 5126,
      "count": 461,
      "type": "VEC3"
    },
    {
      "bufferView": 4,
      "byteOffset": 14752,
      "componentType": 5126,
      "count": 461,
      "type": "VEC4"
    },
    {
      "bufferView": 5,
      "byteOffset": 11064,
      "componentType": 5126,
      "count": 461,
      "type": "VEC3"
    },
    {
      "bufferView": 4,
      "byteOffset": 22128,
      "componentType": 5126,
      "count": 461,
      "type": "VEC4"
    },
    {
      "bufferView": 5,
      "byteOffset": 16596,
      "componentType": 5126,
      "count": 461,
      "type": "VEC3"
    },
    {
      "bufferView": 4,
      "byteOffset": 29504,
      "componentType": 5126,
      "count": 461,
      "type": "VEC4"
    },
    {
      "bufferView": 5,
      "byteOffset": 22128,
      "componentType": 5126,
      "count": 461,
      "type": "VEC3"
    },
    {
      "bufferView": 4,
      "byteOffset": 36880,
      "componentType": 5126,
      "count": 461,
      "type": "VEC4"
    },
    {
      "bufferView": 5,
      "byteOffset": 27660,
      "componentType": 5126,
      "count": 461,
      "type": "VEC3"
    },
    {
      "bufferView": 4,
      "byteOffset": 44256,
      "componentType": 5126,
      "count": 461,
      "type": "VEC4"
    },
    {
      "bufferView": 5,
      "byteOffset": 33192,
      "componentType": 5126,
      "count": 461,
      "type": "VEC3"
    },
    {
      "bufferView": 4,
      "byteOffset": 51632,
      "componentType": 5126,
      "count": 461,
      "type": "VEC4"
    },
    {
      "bufferView": 5,
      "byteOffset": 38724,
      "componentType": 5126,
      "count": 461,
      "type": "VEC3"
    },
    {
      "bufferView": 4,
      "byteOffset": 59008,
      "componentType": 5126,
      "count": 461,
      "type": "VEC4"
    },
    {
      "bufferView": 5,
      "byteOffset": 44256,
      "componentType": 5126,
      "count": 461,
      "type": "VEC3"
    },
    {
      "bufferView": 4,
      "byteOffset": 66384,
      "componentType": 5126,
      "count": 461,
      "type": "VEC4"
    },
    {
      "bufferView": 5,
      "byteOffset": 49788,
      "componentType": 5126,
      "count": 461,
      "type": "VEC3"
    },
    {
      "bufferView": 4,
      "byteOffset": 73760,
      "componentType": 5126,
      "count": 461,
      "type": "VEC4"
    },
    {
      "bufferView": 5,
      "byteOffset": 55320,
      "componentType": 5126,
      "count": 461,
      "type": "VEC3"
    },
    {
      "bufferView": 4,
      "byteOffset": 81136,
      "componentType": 5126,
      "count": 461,
      "type": "VEC4"
    },
    {
      "bufferView": 5,
      "byteOffset": 60852,
      "componentType": 5126,
      "count": 461,
      "type": "VEC3"
    },
    {
      "bufferView": 4,
      "byteOffset": 88512,
      "componentType": 5126,
      "count": 461,
      "type": "VEC4"
    },
    {
      "bufferView": 5,
      "byteOffset": 66384,
      "componentType": 5126,
      "count": 461,
      "type": "VEC3"
    },
    {
      "bufferView": 4,
      "byteOffset": 95888,
      "componentType": 5126,
      "count": 461,
      "type": "VEC4"
    },
    {
      "bufferView": 5,
      "byteOffset": 71916,
      "componentType": 5126,
      "count": 461,
      "type": "VEC3"
    },
    {
      "bufferView": 4,
      "byteOffset": 103264,
      "componentType": 5126,
      "count": 461,
      "type": "VEC4"
    },
    {
      "bufferView": 5,
      "byteOffset": 77448,
      "componentType": 5126,
      "count": 461,
      "type": "VEC3"
    },
    {
      "bufferView": 4,
      "byteOffset": 110640,
      "componentType": 5126,
      "count": 461,
      "type": "VEC4"
    },
    {
      "bufferView": 5,
      "byteOffset": 82980,
      "componentType": 5126,
      "count": 461,
      "type": "VEC3"
    },
    {
      "bufferView": 4,
      "byteOffset": 118016,
      "componentType": 5126,
      "count": 461,
      "type": "VEC4"
    },
    {
      "bufferView": 5,
      "byteOffset": 88512,
      "componentType": 5126,
      "count": 461,
      "type": "VEC3"
    },
    {
      "bufferView": 4,
      "byteOffset": 125392,
      "componentType": 5126,
      "count": 461,
      "type": "VEC4"
    },
    {
      "bufferView": 5,
      "byteOffset": 94044,
      "componentType": 5126,
      "count": 461,
      "type": "VEC3"
    },
    {
      "bufferView": 4,
      "byteOffset": 132768,
      "componentType": 5126,
      "count": 461,
      "type": "VEC4"
    },
    {
      "bufferView": 5,
      "byteOffset": 99576,
      "componentType": 5126,
      "count": 461,
      "type": "VEC3"
    },
    {
      "bufferView": 4,
      "byteOffset": 140144,
      "componentType": 5126,
      "count": 461,
      "type": "VEC4"
    },
    {
      "bufferView": 5,
      "byteOffset": 105108,
      "componentType": 5126,
      "count": 461,
      "type": "VEC3"
    },
    {
      "bufferView": 4,
      "byteOffset": 147520,
      "componentType": 5126,
      "count": 461,
      "type": "VEC4"
    },
    {
      "bufferView": 5,
      "byteOffset": 110640,
      "componentType": 5126,
      "count": 461,
      "type": "VEC3"
    },
    {
      "bufferView": 4,
      "byteOffset": 154896,
      "componentType": 5126,
      "count": 461,
      "type": "VEC4"
    },
    {
      "bufferView": 5,
      "byteOffset": 116172,
      "componentType": 5126,
      "count": 461,
      "type": "VEC3"
    },
    {
      "bufferView": 4,
      "byteOffset": 162272,
      "componentType": 5126,
      "count": 461,
      "type": "VEC4"
    },
    {
      "bufferView": 5,
      "byteOffset": 121704,
      "componentType": 5126,
      "count": 461,
      "type": "VEC3"
    },
    {
      "bufferView": 4,
      "byteOffset": 169648,
      "componentType": 5126,
      "count": 461,
      "type": "VEC4"
    },
    {
      "bufferView": 5,
      "byteOffset": 127236,
      "componentType": 5126,
      "count": 461,
      "type": "VEC3"
    },
    {
      "bufferView": 4,
      "byteOffset": 177024,
      "componentType": 5126,
      "count": 461,
      "type": "VEC4"
    },
    {
      "bufferView": 5,
      "byteOffset": 132768,
      "componentType": 5126,
      "count": 461,
      "type": "VEC3"
    },
    {
      "bufferView": 4,
      "byteOffset": 184400,
      "componentType": 5126,
      "count": 461,
      "type": "VEC4"
    },
    {
      "bufferView": 5,
      "byteOffset": 138300,
      "componentType": 5126,
      "count": 461,
      "type": "VEC3"
    },
    {
      "bufferView": 4,
      "byteOffset": 191776,
      "componentType": 5126,
      "count": 461,
      "type": "VEC4"
    },
    {
      "bufferView": 5,
      "byteOffset": 143832,
      "componentType": 5126,
      "count": 461,
      "type": "VEC3"
    },
    {
      "bufferView": 4,
      "byteOffset": 199152,
      "componentType": 5126,
      "count": 461,
      "type": "VEC4"
    },
    {
      "bufferView": 5,
      "byteOffset": 149364,
      "componentType": 5126,
      "count": 461,
      "type": "VEC3"
    },
    {
      "bufferView": 4,
      "byteOffset": 206528,
      "componentType": 5126,
      "count": 461,
      "type": "VEC4"
    },
    {
      "bufferView": 5,
      "byteOffset": 154896,
      "componentType": 5126,
      "count": 461,
      "type": "VEC3"
    },
    {
      "bufferView": 4,
      "byteOffset": 213904,
      "componentType": 5126,
      "count": 461,
      "type": "VEC4"
    },
    {
      "bufferView": 5,
      "byteOffset": 160428,
      "componentType": 5126,
      "count": 461,
      "type": "VEC3"
    },
    {
      "bufferView": 4,
      "byteOffset": 221280,
      "componentType": 5126,
      "count": 461,
      "type": "VEC4"
    },
    {
      "bufferView": 5,
      "byteOffset": 165960,
      "componentType": 5126,
      "count": 461,
      "type": "VEC3"
    },
    {
      "bufferView": 4,
      "byteOffset": 228656,
      "componentType": 5126,
      "count": 461,
      "type": "VEC4"
    },
    {
      "bufferView": 5,
      "byteOffset": 171492,
      "componentType": 5126,
      "count": 461,
      "type": "VEC3"
    },
    {
      "bufferView": 4,
      "byteOffset": 236032,
      "componentType": 5126,
      "count": 461,
      "type": "VEC4"
    },
    {
      "bufferView": 5,
      "byteOffset": 177024,
      "componentType": 5126,
      "count": 461,
      "type": "VEC3"
    },
    {
      "bufferView": 4,
      "byteOffset": 243408,
      "componentType": 5126,
      "count": 461,
      "type": "VEC4"
    },
    {
      "bufferView": 5,
      "byteOffset": 182556,
      "componentType": 5126,
      "count": 461,
      "type": "VEC3"
    },
    {
      "bufferView": 4,
      "byteOffset": 250784,
      "componentType": 5126,
      "count": 461,
      "type": "VEC4"
    },
    {
      "bufferView": 5,
      "byteOffset": 188088,
      "componentType": 5126,
      "count": 461,
      "type": "VEC3"
    },
    {
      "bufferView": 4,
      "byteOffset": 258160,
      "componentType": 5126,
      "count": 461,
      "type": "VEC4"
    },
    {
      "bufferView": 5,
      "byteOffset": 193620,
      "componentType": 5126,
      "count": 461,
      "type": "VEC3"
    },
    {
      "bufferView": 4,
      "byteOffset": 265536,
      "componentType": 5126,
      "count": 461,
      "type": "VEC4"
    },
    {
      "bufferView": 5,
      "byteOffset": 199152,
      "componentType": 5126,
      "count": 461,
      "type": "VEC3"
    },
    {
      "bufferView": 4,
      "byteOffset": 272912,
      "componentType": 5126,
      "count": 461,
      "type": "VEC4"
    },
    {
      "bufferView": 5,
      "byteOffset": 204684,
      "componentType": 5126,
      "count": 461,
      "type": "VEC3"
    },
    {
      "bufferView": 4,
      "byteOffset": 280288,
      "componentType": 5126,
      "count": 461,
      "type": "VEC4"
    },
    {
      "bufferView": 5,
      "byteOffset": 210216,
      "componentType": 5126,
      "count": 461,
      "type": "VEC3"
    },
    {
      "bufferView": 4,
      "byteOffset": 287664,
      "componentType": 5126,
      "count": 461,
      "type": "VEC4"
    },
    {
      "bufferView": 5,
      "byteOffset": 215748,
      "componentType": 5126,
      "count": 461,
      "type": "VEC3"
    },
    {
      "bufferView": 4,
      "byteOffset": 295040,
      "componentType": 5126,
      "count": 461,
      "type": "VEC4"
    },
    {
      "bufferView": 5,
      "byteOffset": 221280,
      "componentType": 5126,
      "count": 461,
      "type": "VEC3"
    },
    {
      "bufferView": 4,
      "byteOffset": 302416,
      "componentType": 5126,
      "count": 461,
      "type": "VEC4"
    },
    {
      "bufferView": 5,
      "byteOffset": 226812,
      "componentType": 5126,
      "count": 461,
      "type": "VEC3"
    },
    {
      "bufferView": 4,
      "byteOffset": 309792,
      "componentType": 5126,
      "count": 461,
      "type": "VEC4"
    },
    {
      "bufferView": 5,
      "byteOffset": 232344,
      "componentType": 5126,
      "count": 461,
      "type": "VEC3"
    },
    {
      "bufferView": 4,
      "byteOffset": 317168,
      "componentType": 5126,
      "count": 461,
      "type": "VEC4"
    },
    {
      "bufferView": 5,
      "byteOffset": 237876,
      "componentType": 5126,
      "count": 461,
      "type": "VEC3"
    },
    {
      "bufferView": 4,
      "byteOffset": 324544,
      "componentType": 5126,
      "count": 461,
      "type": "VEC4"
    },
    {
      "bufferView": 5,
      "byteOffset": 243408,
      "componentType": 5126,
      "count": 461,
      "type": "VEC3"
    },
    {
      "bufferView": 4,
      "byteOffset": 331920,
      "componentType": 5126,
      "count": 461,
      "type": "VEC4"
    },
    {
      "bufferView": 5,
      "byteOffset": 248940,
      "componentType": 5126,
      "count": 461,
      "type": "VEC3"
    },
    {
      "bufferView": 4,
      "byteOffset": 339296,
      "componentType": 5126,
      "count": 461,
      "type": "VEC4"
    },
    {
      "bufferView": 5,
      "byteOffset": 254472,
      "componentType": 5126,
      "count": 461,
      "type": "VEC3"
    },
    {
      "bufferView": 4,
      "byteOffset": 346672,
      "componentType": 5126,
      "count": 461,
      "type": "VEC4"
    },
    {
      "bufferView": 5,
      "byteOffset": 260004,
      "componentType": 5126,
      "count": 461,
      "type": "VEC3"
    },
    {
      "bufferView": 4,
      "byteOffset": 354048,
      "componentType": 5126,
      "count": 461,
      "type": "VEC4"
    },
    {
      "bufferView": 5,
      "byteOffset": 265536,
      "componentType": 5126,
      "count": 461,
      "type": "VEC3"
    },
    {
      "bufferView": 4,
      "byteOffset": 361424,
      "componentType": 5126,
      "count": 461,
      "type": "VEC4"
    },
    {
      "bufferView": 5,
      "byteOffset": 271068,
      "componentType": 5126,
      "count": 461,
      "type": "VEC3"
    }
  ],
  "skins": [
    {
      "name": "skin0",
      "inverseBindMatrices": 6,
      "joints": [
        5,
        6,
        7,
        4,
        8,
        3,
        2,
        9,
        28,
        30,
        31,
        16,
        23,
        15,
        24,
        14,
        25,
        26,
        27,
        13,
        12,
        11,
        44,
        43,
        39,
        45,
        46,
        17,
        18,
        19,
        20,
        21,
        40,
        41,
        42,
        34,
        35,
        36,
        33,
        32,
        37,
        38
      ]
    }
  ],
  "meshes": [
    {
      "name": "water_snake",
      "primitives": [
        {
          "attributes": {
            "POSITION": 1,
            "NORMAL": 2,
            "TEXCOORD_0": 3,
            "WEIGHTS_0": 4,
            "JOINTS_0": 5
          },
          "indices": 0,
          "mode": 4,
          "material": 0
        }
      ]
    }
  ],
  "animations": [
    {
      "channels": [
        {
          "sampler": 0,
          "target": {
            "node": 1,
            "path": "rotation"
          }
        },
        {
          "sampler": 1,
          "target": {
            "node": 1,
            "path": "translation"
          }
        },
        {
          "sampler": 2,
          "target": {
            "node": 2,
            "path": "rotation"
          }
        },
        {
          "sampler": 3,
          "target": {
            "node": 2,
            "path": "translation"
          }
        },
        {
          "sampler": 4,
          "target": {
            "node": 3,
            "path": "rotation"
          }
        },
        {
          "sampler": 5,
          "target": {
            "node": 3,
            "path": "translation"
          }
        },
        {
          "sampler": 6,
          "target": {
            "node": 4,
            "path": "rotation"
          }
        },
        {
          "sampler": 7,
          "target": {
            "node": 4,
            "path": "translation"
          }
        },
        {
          "sampler": 8,
          "target": {
            "node": 5,
            "path": "rotation"
          }
        },
        {
          "sampler": 9,
          "target": {
            "node": 5,
            "path": "translation"
          }
        },
        {
          "sampler": 10,
          "target": {
            "node": 6,
            "path": "rotation"
          }
        },
        {
          "sampler": 11,
          "target": {
            "node": 6,
            "path": "translation"
          }
        },
        {
          "sampler": 12,
          "target": {
            "node": 7,
            "path": "rotation"
          }
        },
        {
          "sampler": 13,
          "target": {
            "node": 7,
            "path": "translation"
          }
        },
        {
          "sampler": 14,
          "target": {
            "node": 8,
            "path": "rotation"
          }
        },
        {
          "sampler": 15,
          "target": {
            "node": 8,
            "path": "translation"
          }
        },
        {
          "sampler": 16,
          "target": {
            "node": 9,
            "path": "rotation"
          }
        },
        {
          "sampler": 17,
          "target": {
            "node": 9,
            "path": "translation"
          }
        },
        {
          "sampler": 18,
          "target": {
            "node": 10,
            "path": "rotation"
          }
        },
        {
          "sampler": 19,
          "target": {
            "node": 10,
            "path": "translation"
          }
        },
        {
          "sampler": 20,
          "target": {
            "node": 11,
            "path": "rotation"
          }
        },
        {
          "sampler": 21,
          "target": {
            "node": 11,
            "path": "translation"
          }
        },
        {
          "sampler": 22,
          "target": {
            "node": 12,
            "path": "rotation"
          }
        },
        {
          "sampler": 23,
          "target": {
            "node": 12,
            "path": "translation"
          }
        },
        {
          "sampler": 24,
          "target": {
            "node": 13,
            "path": "rotation"
          }
        },
        {
          "sampler": 25,
          "target": {
            "node": 13,
            "path": "translation"
          }
        },
        {
          "sampler": 26,
          "target": {
            "node": 14,
            "path": "rotation"
          }
        },
        {
          "sampler": 27,
          "target": {
            "node": 14,
            "path": "translation"
          }
        },
        {
          "sampler": 28,
          "target": {
            "node": 15,
            "path": "rotation"
          }
        },
        {
          "sampler": 29,
          "target": {
            "node": 15,
            "path": "translation"
          }
        },
        {
          "sampler": 30,
          "target": {
            "node": 16,
            "path": "rotation"
          }
        },
        {
          "sampler": 31,
          "target": {
            "node": 16,
            "path": "translation"
          }
        },
        {
          "sampler": 32,
          "target": {
            "node": 17,
            "path": "rotation"
          }
        },
        {
          "sampler": 33,
          "target": {
            "node": 17,
            "path": "translation"
          }
        },
        {
          "sampler": 34,
          "target": {
            "node": 18,
            "path": "rotation"
          }
        },
        {
          "sampler": 35,
          "target": {
            "node": 18,
            "path": "translation"
          }
        },
        {
          "sampler": 36,
          "target": {
            "node": 19,
            "path": "rotation"
          }
        },
        {
          "sampler": 37,
          "target": {
            "node": 19,
            "path": "translation"
          }
        },
        {
          "sampler": 38,
          "target": {
            "node": 20,
            "path": "rotation"
          }
        },
        {
          "sampler": 39,
          "target": {
            "node": 20,
            "path": "translation"
          }
        },
        {
          "sampler": 40,
          "target": {
            "node": 21,
            "path": "rotation"
          }
        },
        {
          "sampler": 41,
          "target": {
            "node": 21,
            "path": "translation"
          }
        },
        {
          "sampler": 42,
          "target": {
            "node": 22,
            "path": "rotation"
          }
        },
        {
          "sampler": 43,
          "target": {
            "node": 22,
            "path": "translation"
          }
        },
        {
          "sampler": 44,
          "target": {
            "node": 23,
            "path": "rotation"
          }
        },
        {
          "sampler": 45,
          "target": {
            "node": 23,
            "path": "translation"
          }
        },
        {
          "sampler": 46,
          "target": {
            "node": 24,
            "path": "rotation"
          }
        },
        {
          "sampler": 47,
          "target": {
            "node": 24,
            "path": "translation"
          }
        },
        {
          "sampler": 48,
          "target": {
            "node": 25,
            "path": "rotation"
          }
        },
        {
          "sampler": 49,
          "target": {
            "node": 25,
            "path": "translation"
          }
        },
        {
          "sampler": 50,
          "target": {
            "node": 26,
            "path": "rotation"
          }
        },
        {
          "sampler": 51,
          "target": {
            "node": 26,
            "path": "translation"
          }
        },
        {
          "sampler": 52,
          "target": {
            "node": 27,
            "path": "rotation"
          }
        },
        {
          "sampler": 53,
          "target": {
            "node": 27,
            "path": "translation"
          }
        },
        {
          "sampler": 54,
          "target": {
            "node": 28,
            "path": "rotation"
          }
        },
        {
          "sampler": 55,
          "target": {
            "node": 28,
            "path": "translation"
          }
        },
        {
          "sampler": 56,
          "target": {
            "node": 29,
            "path": "rotation"
          }
        },
        {
          "sampler": 57,
          "target": {
            "node": 29,
            "path": "translation"
          }
        },
        {
          "sampler": 58,
          "target": {
            "node": 30,
            "path": "rotation"
          }
        },
        {
          "sampler": 59,
          "target": {
            "node": 30,
            "path": "translation"
          }
        },
        {
          "sampler": 60,
          "target": {
            "node": 31,
            "path": "rotation"
          }
        },
        {
          "sampler": 61,
          "target": {
            "node": 31,
            "path": "translation"
          }
        },
        {
          "sampler": 62,
          "target": {
            "node": 32,
            "path": "rotation"
          }
        },
        {
          "sampler": 63,
          "target": {
            "node": 32,
            "path": "translation"
          }
        },
        {
          "sampler": 64,
          "target": {
            "node": 33,
            "path": "rotation"
          }
        },
        {
          "sampler": 65,
          "target": {
            "node": 33,
            "path": "translation"
          }
        },
        {
          "sampler": 66,
          "target": {
            "node": 34,
            "path": "rotation"
          }
        },
        {
          "sampler": 67,
          "target": {
            "node": 34,
            "path": "translation"
          }
        },
        {
          "sampler": 68,
          "target": {
            "node": 35,
            "path": "rotation"
          }
        },
        {
          "sampler": 69,
          "target": {
            "node": 35,
            "path": "translation"
          }
        },
        {
          "sampler": 70,
          "target": {
            "node": 36,
            "path": "rotation"
          }
        },
        {
          "sampler": 71,
          "target": {
            "node": 36,
            "path": "translation"
          }
        },
        {
          "sampler": 72,
          "target": {
            "node": 37,
            "path": "rotation"
          }
        },
        {
          "sampler": 73,
          "target": {
            "node": 37,
            "path": "translation"
          }
        },
        {
          "sampler": 74,
          "target": {
            "node": 38,
            "path": "rotation"
          }
        },
        {
          "sampler": 75,
          "target": {
            "node": 38,
            "path": "translation"
          }
        },
        {
          "sampler": 76,
          "target": {
            "node": 39,
            "path": "rotation"
          }
        },
        {
          "sampler": 77,
          "target": {
            "node": 39,
            "path": "translation"
          }
        },
        {
          "sampler": 78,
          "target": {
            "node": 40,
            "path": "rotation"
          }
        },
        {
          "sampler": 79,
          "target": {
            "node": 40,
            "path": "translation"
          }
        },
        {
          "sampler": 80,
          "target": {
            "node": 41,
            "path": "rotation"
          }
        },
        {
          "sampler": 81,
          "target": {
            "node": 41,
            "path": "translation"
          }
        },
        {
          "sampler": 82,
          "target": {
            "node": 42,
            "path": "rotation"
          }
        },
        {
          "sampler": 83,
          "target": {
            "node": 42,
            "path": "translation"
          }
        },
        {
          "sampler": 84,
          "target": {
            "node": 43,
            "path": "rotation"
          }
        },
        {
          "sampler": 85,
          "target": {
            "node": 43,
            "path": "translation"
          }
        },
        {
          "sampler": 86,
          "target": {
            "node": 44,
            "path": "rotation"
          }
        },
        {
          "sampler": 87,
          "target": {
            "node": 44,
            "path": "translation"
          }
        },
        {
          "sampler": 88,
          "target": {
            "node": 45,
            "path": "rotation"
          }
        },
        {
          "sampler": 89,
          "target": {
            "node": 45,
            "path": "translation"
          }
        },
        {
          "sampler": 90,
          "target": {
            "node": 46,
            "path": "rotation"
          }
        },
        {
          "sampler": 91,
          "target": {
            "node": 46,
            "path": "translation"
          }
        },
        {
          "sampler": 92,
          "target": {
            "node": 47,
            "path": "rotation"
          }
        },
        {
          "sampler": 93,
          "target": {
            "node": 47,
            "path": "translation"
          }
        },
        {
          "sampler": 94,
          "target": {
            "node": 48,
            "path": "rotation"
          }
        },
        {
          "sampler": 95,
          "target": {
            "node": 48,
            "path": "translation"
          }
        },
        {
          "sampler": 96,
          "target": {
            "node": 49,
            "path": "rotation"
          }
        },
        {
          "sampler": 97,
          "target": {
            "node": 49,
            "path": "translation"
          }
        },
        {
          "sampler": 98,
          "target": {
            "node": 50,
            "path": "rotation"
          }
        },
        {
          "sampler": 99,
          "target": {
            "node": 50,
            "path": "translation"
          }
        }
      ],
      "samplers": [
        {
          "input": 7,
          "output": 8,
          "interpolation": "LINEAR"
        },
        {
          "input": 7,
          "output": 9,
          "interpolation": "LINEAR"
        },
        {
          "input": 7,
          "output": 10,
          "interpolation": "LINEAR"
        },
        {
          "input": 7,
          "output": 11,
          "interpolation": "LINEAR"
        },
        {
          "input": 7,
          "output": 12,
          "interpolation": "LINEAR"
        },
        {
          "input": 7,
          "output": 13,
          "interpolation": "LINEAR"
        },
        {
          "input": 7,
          "output": 14,
          "interpolation": "LINEAR"
        },
        {
          "input": 7,
          "output": 15,
          "interpolation": "LINEAR"
        },
        {
          "input": 7,
          "output": 16,
          "interpolation": "LINEAR"
        },
        {
          "input": 7,
          "output": 17,
          "interpolation": "LINEAR"
        },
        {
          "input": 7,
          "output": 18,
          "interpolation": "LINEAR"
        },
        {
          "input": 7,
          "output": 19,
          "interpolation": "LINEAR"
        },
        {
          "input": 7,
          "output": 20,
          "interpolation": "LINEAR"
        },
        {
          "input": 7,
          "output": 21,
          "interpolation": "LINEAR"
        },
        {
          "input": 7,
          "output": 22,
          "interpolation": "LINEAR"
        },
        {
          "input": 7,
          "output": 23,
          "interpolation": "LINEAR"
        },
        {
          "input": 7,
          "output": 24,
          "interpolation": "LINEAR"
        },
        {
          "input": 7,
          "output": 25,
          "interpolation": "LINEAR"
        },
        {
          "input": 7,
          "output": 26,
          "interpolation": "LINEAR"
        },
        {
          "input": 7,
          "output": 27,
          "interpolation": "LINEAR"
        },
        {
          "input": 7,
          "output": 28,
          "interpolation": "LINEAR"
        },
        {
          "input": 7,
          "output": 29,
          "interpolation": "LINEAR"
        },
        {
          "input": 7,
          "output": 30,
          "interpolation": "LINEAR"
        },
        {
          "input": 7,
          "output": 31,
          "interpolation": "LINEAR"
        },
        {
          "input": 7,
          "output": 32,
          "interpolation": "LINEAR"
        },
        {
          "input": 7,
          "output": 33,
          "interpolation": "LINEAR"
        },
        {
          "input": 7,
          "output": 34,
          "interpolation": "LINEAR"
        },
        {
          "input": 7,
          "output": 35,
          "interpolation": "LINEAR"
        },
        {
          "input": 7,
          "output": 36,
          "interpolation": "LINEAR"
        },
        {
          "input": 7,
          "output": 37,
          "interpolation": "LINEAR"
        },
        {
          "input": 7,
          "output": 38,
          "interpolation": "LINEAR"
        },
        {
          "input": 7,
          "output": 39,
          "interpolation": "LINEAR"
        },
        {
          "input": 7,
          "output": 40,
          "interpolation": "LINEAR"
        },
        {
          "input": 7,
          "output": 41,
          "interpolation": "LINEAR"
        },
        {
          "input": 7,
          "output": 42,
          "interpolation": "LINEAR"
        },
        {
          "input": 7,
          "output": 43,
          "interpolation": "LINEAR"
        },
        {
          "input": 7,
          "output": 44,
          "interpolation": "LINEAR"
        },
        {
          "input": 7,
          "output": 45,
          "interpolation": "LINEAR"
        },
        {
          "input": 7,
          "output": 46,
          "interpolation": "LINEAR"
        },
        {
          "input": 7,
          "output": 47,
          "interpolation": "LINEAR"
        },
        {
          "input": 7,
          "output": 48,
          "interpolation": "LINEAR"
        },
        {
          "input": 7,
          "output": 49,
          "interpolation": "LINEAR"
        },
        {
          "input": 7,
          "output": 50,
          "interpolation": "LINEAR"
        },
        {
          "input": 7,
          "output": 51,
          "interpolation": "LINEAR"
        },
        {
          "input": 7,
          "output": 52,
          "interpolation": "LINEAR"
        },
        {
          "input": 7,
          "output": 53,
          "interpolation": "LINEAR"
        },
        {
          "input": 7,
          "output": 54,
          "interpolation": "LINEAR"
        },
        {
          "input": 7,
          "output": 55,
          "interpolation": "LINEAR"
        },
        {
          "input": 7,
          "output": 56,
          "interpolation": "LINEAR"
        },
        {
          "input": 7,
          "output": 57,
          "interpolation": "LINEAR"
        },
        {
          "input": 7,
          "output": 58,
          "interpolation": "LINEAR"
        },
        {
          "input": 7,
          "output": 59,
          "interpolation": "LINEAR"
        },
        {
          "input": 7,
          "output": 60,
          "interpolation": "LINEAR"
        },
        {
          "input": 7,
          "output": 61,
          "interpolation": "LINEAR"
        },
        {
          "input": 7,
          "output": 62,
          "interpolation": "LINEAR"
        },
        {
          "input": 7,
          "output": 63,
          "interpolation": "LINEAR"
        },
        {
          "input": 7,
          "output": 64,
          "interpolation": "LINEAR"
        },
        {
          "input": 7,
          "output": 65,
          "interpolation": "LINEAR"
        },
        {
          "input": 7,
          "output": 66,
          "interpolation": "LINEAR"
        },
        {
          "input": 7,
          "output": 67,
          "interpolation": "LINEAR"
        },
        {
          "input": 7,
          "output": 68,
          "interpolation": "LINEAR"
        },
        {
          "input": 7,
          "output": 69,
          "interpolation": "LINEAR"
        },
        {
          "input": 7,
          "output": 70,
          "interpolation": "LINEAR"
        },
        {
          "input": 7,
          "output": 71,
          "interpolation": "LINEAR"
        },
        {
          "input": 7,
          "output": 72,
          "interpolation": "LINEAR"
        },
        {
          "input": 7,
          "output": 73,
          "interpolation": "LINEAR"
        },
        {
          "input": 7,
          "output": 74,
          "interpolation": "LINEAR"
        },
        {
          "input": 7,
          "output": 75,
          "interpolation": "LINEAR"
        },
        {
          "input": 7,
          "output": 76,
          "interpolation": "LINEAR"
        },
        {
          "input": 7,
          "output": 77,
          "interpolation": "LINEAR"
        },
        {
          "input": 7,
          "output": 78,
          "interpolation": "LINEAR"
        },
        {
          "input": 7,
          "output": 79,
          "interpolation": "LINEAR"
        },
        {
          "input": 7,
          "output": 80,
          "interpolation": "LINEAR"
        },
        {
          "input": 7,
          "output": 81,
          "interpolation": "LINEAR"
        },
        {
          "input": 7,
          "output": 82,
          "interpolation": "LINEAR"
        },
        {
          "input": 7,
          "output": 83,
          "interpolation": "LINEAR"
        },
        {
          "input": 7,
          "output": 84,
          "interpolation": "LINEAR"
        },
        {
          "input": 7,
          "output": 85,
          "interpolation": "LINEAR"
        },
        {
          "input": 7,
          "output": 86,
          "interpolation": "LINEAR"
        },
        {
          "input": 7,
          "output": 87,
          "interpolation": "LINEAR"
        },
        {
          "input": 7,
          "output": 88,
          "interpolation": "LINEAR"
        },
        {
          "input": 7,
          "output": 89,
          "interpolation": "LINEAR"
        },
        {
          "input": 7,
          "output": 90,
          "interpolation": "LINEAR"
        },
        {
          "input": 7,
          "output": 91,
          "interpolation": "LINEAR"
        },
        {
          "input": 7,
          "output": 92,
          "interpolation": "LINEAR"
        },
        {
          "input": 7,
          "output": 93,
          "interpolation": "LINEAR"
        },
        {
          "input": 7,
          "output": 94,
          "interpolation": "LINEAR"
        },
        {
          "input": 7,
          "output": 95,
          "interpolation": "LINEAR"
        },
        {
          "input": 7,
          "output": 96,
          "interpolation": "LINEAR"
        },
        {
          "input": 7,
          "output": 97,
          "interpolation": "LINEAR"
        },
        {
          "input": 7,
          "output": 98,
          "interpolation": "LINEAR"
        },
        {
          "input": 7,
          "output": 99,
          "interpolation": "LINEAR"
        },
        {
          "input": 7,
          "output": 100,
          "interpolation": "LINEAR"
        },
        {
          "input": 7,
          "output": 101,
          "interpolation": "LINEAR"
        },
        {
          "input": 7,
          "output": 102,
          "interpolation": "LINEAR"
        },
        {
          "input": 7,
          "output": 103,
          "interpolation": "LINEAR"
        },
        {
          "input": 7,
          "output": 104,
          "interpolation": "LINEAR"
        },
        {
          "input": 7,
          "output": 105,
          "interpolation": "LINEAR"
        },
        {
          "input": 7,
          "output": 106,
          "interpolation": "LINEAR"
        },
        {
          "input": 7,
          "output": 107,
          "interpolation": "LINEAR"
        }
      ]
    }
  ],
  "bufferViews": [
    {
      "name": "mesh_indexes_water_snake",
      "buffer": 0,
      "byteOffset": 0,
      "byteLength": 78744,
      "target": 34963
    },
    {
      "name": "mesh_vertexes_water_snake",
      "buffer": 0,
      "byteOffset": 78744,
      "byteLength": 274248,
      "byteStride": 52,
      "target": 34962
    },
    {
      "name": "mesh_bones_water_snake",
      "buffer": 0,
      "byteOffset": 352992,
      "byteLength": 2688
    },
    {
      "name": "frames",
      "buffer": 0,
      "byteOffset": 355680,
      "byteLength": 1844
    },
    {
      "name": "bones_rotate",
      "buffer": 0,
      "byteOffset": 357524,
      "byteLength": 368800
    },
    {
      "name": "bones_translate",
      "buffer": 0,
      "byteOffset": 726324,
      "byteLength": 276600
    }
  ],
  "buffers": [
    {
      "uri": "character_neutrals_watersnake.bin",
      "byteLength": 1002924
    }
  ],
  "images": [
    {
      "uri": "character_neutrals_watersnake.dds"
    }
  ],
  "textures": [
    {
      "source": 0
    }
  ],
  "materials": [
    {
      "name": "material0",
      "alphaMode": "MASK",
      "pbrMetallicRoughness": {
        "baseColorTexture": {
          "index": 0,
          "texCoord": 0
        },
        "metallicFactor": 0.0
      },
      "emissiveFactor": [
        0.0,
        0.0,
        0.0
      ]
    }
  ]
}