{
	"asset":{
		"generator":"Khronos glTF Blender I/O v4.5.51",
		"version":"2.0"
	},
	"scene":0,
	"scenes":[
		{
			"name":"Scene",
			"nodes":[
				66
			]
		}
	],
	"nodes":[
		{
			"name":"Bip01 Head",
			"rotation":[
				4.287674570946365e-08,
				-4.008043674730288e-08,
				0.04091649502515793,
				0.9991625547409058
			],
			"scale":[
				0.9999999403953552,
				0.9999999403953552,
				1
			],
			"translation":[
				-0.06837262958288193,
				-8.102506399154663e-08,
				6.51925802230835e-09
			]
		},
		{
			"name":"Bip01 R Finger01",
			"rotation":[
				-2.2001454169640056e-07,
				5.114255330340711e-08,
				-0.2254597693681717,
				0.974252462387085
			],
			"translation":[
				-1.0803341865539551e-07,
				0.06601006537675858,
				5.3551048040390015e-08
			]
		},
		{
			"children":[
				1
			],
			"name":"Bip01 R Finger0",
			"rotation":[
				0.4278334677219391,
				0.5902652144432068,
				0.02242843247950077,
				0.6841363310813904
			],
			"scale":[
				0.9999999403953552,
				0.9999998807907104,
				0.9999999403953552
			],
			"translation":[
				0.009466731920838356,
				0.015659496188163757,
				0.0380372554063797
			]
		},
		{
			"name":"Bip01 R Finger11",
			"rotation":[
				3.9600291046326674e-08,
				3.773674706053498e-08,
				-0.03103678487241268,
				0.9995182752609253
			],
			"scale":[
				0.9999999403953552,
				0.9999999403953552,
				0.9999999403953552
			],
			"translation":[
				-1.364387571811676e-07,
				0.04564427211880684,
				2.421438694000244e-08
			]
		},
		{
			"children":[
				3
			],
			"name":"Bip01 R Finger1",
			"rotation":[
				0.11518869549036026,
				0.02388712950050831,
				-0.002278162632137537,
				0.9930537939071655
			],
			"scale":[
				1,
				1,
				0.9999999403953552
			],
			"translation":[
				0.0010986366542056203,
				0.0848698765039444,
				0.04860537499189377
			]
		},
		{
			"name":"Bip01 R Finger21",
			"rotation":[
				5.5985522884327565e-09,
				-1.2270163551875157e-07,
				-0.061557479202747345,
				0.9981035590171814
			],
			"scale":[
				0.9999999403953552,
				1,
				0.9999998807907104
			],
			"translation":[
				1.885928213596344e-07,
				0.05130728334188461,
				2.2351741790771484e-08
			]
		},
		{
			"children":[
				5
			],
			"name":"Bip01 R Finger2",
			"rotation":[
				1.862645326866641e-08,
				-0.00039811700116842985,
				-1.2334204768649215e-07,
				0.9999999403953552
			],
			"scale":[
				0.9999999403953552,
				1,
				0.9999999403953552
			],
			"translation":[
				-0.004750608000904322,
				0.08145160973072052,
				-0.0024315714836120605
			]
		},
		{
			"name":"Bip01 R Finger31",
			"rotation":[
				-3.9338434731917005e-08,
				-1.9669218431772606e-07,
				-0.1062994971871376,
				0.9943341612815857
			],
			"scale":[
				0.9999999403953552,
				0.9999999403953552,
				0.9999998807907104
			],
			"translation":[
				-1.2665987014770508e-07,
				0.03203630447387695,
				-2.9802322387695312e-08
			]
		},
		{
			"children":[
				7
			],
			"name":"Bip01 R Finger3",
			"rotation":[
				-0.11006209254264832,
				-0.09295189380645752,
				0.007500926032662392,
				0.9895402789115906
			],
			"scale":[
				0.9999999403953552,
				1.0000001192092896,
				1.0000001192092896
			],
			"translation":[
				0.005897948518395424,
				0.08806537091732025,
				-0.05266144871711731
			]
		},
		{
			"children":[
				2,
				4,
				6,
				8
			],
			"name":"Bip01 R Hand",
			"rotation":[
				0.02006341516971588,
				-0.6852822303771973,
				-0.006814904510974884,
				0.7279692888259888
			],
			"scale":[
				0.9999999403953552,
				0.9999999403953552,
				0.9999999403953552
			],
			"translation":[
				-7.450580596923828e-09,
				0.26494526863098145,
				1.7043203115463257e-07
			]
		},
		{
			"children":[
				9
			],
			"name":"Bip01 R Forearm",
			"rotation":[
				-4.726463131987657e-08,
				4.842878453814592e-08,
				0.0007117504137568176,
				0.9999997615814209
			],
			"translation":[
				7.450580596923828e-09,
				0.26356834173202515,
				-1.4808028936386108e-07
			]
		},
		{
			"children":[
				10
			],
			"name":"Bip01 R UpperArm",
			"rotation":[
				0.15673616528511047,
				0.0015714995097368956,
				-0.010444608516991138,
				0.9875840544700623
			],
			"scale":[
				0.9999999403953552,
				1.0000001192092896,
				1
			],
			"translation":[
				-9.313225746154785e-09,
				0.1820855438709259,
				1.2398231774568558e-07
			]
		},
		{
			"children":[
				11
			],
			"name":"Bip01 R Clavicle",
			"rotation":[
				-0.4601149260997772,
				0.38053369522094727,
				-0.514501690864563,
				0.6154481768608093
			],
			"scale":[
				1,
				1.0000001192092896,
				1
			],
			"translation":[
				0.05057516321539879,
				0.0526355616748333,
				-0.036518290638923645
			]
		},
		{
			"name":"Bip01 L Finger01",
			"rotation":[
				6.213581116298883e-08,
				-6.452565148862277e-09,
				-0.22545965015888214,
				0.9742525219917297
			],
			"translation":[
				-8.940696716308594e-08,
				0.06601015478372574,
				1.1920928955078125e-07
			]
		},
		{
			"children":[
				13
			],
			"name":"Bip01 L Finger0",
			"rotation":[
				-0.42783334851264954,
				-0.5902652740478516,
				0.022428419440984726,
				0.6841363906860352
			],
			"scale":[
				1,
				0.9999998211860657,
				0.9999999403953552
			],
			"translation":[
				0.009466985240578651,
				0.015659339725971222,
				-0.038037315011024475
			]
		},
		{
			"name":"Bip01 L Finger11",
			"rotation":[
				7.314405792158141e-08,
				6.801931817790319e-08,
				-0.031036345288157463,
				0.9995182752609253
			],
			"scale":[
				1,
				1,
				0.9999999403953552
			],
			"translation":[
				-2.7194619178771973e-07,
				0.04564434289932251,
				2.2351741790771484e-08
			]
		},
		{
			"children":[
				15
			],
			"name":"Bip01 L Finger1",
			"rotation":[
				-0.11518880724906921,
				-0.023887421935796738,
				-0.002278279745951295,
				0.9930537343025208
			],
			"scale":[
				1,
				1.0000001192092896,
				1
			],
			"translation":[
				0.0010988730937242508,
				0.08486992120742798,
				-0.04860539734363556
			]
		},
		{
			"name":"Bip01 L Finger21",
			"rotation":[
				8.39782998696137e-09,
				-8.771066006829642e-08,
				-0.06155750900506973,
				0.9981035590171814
			],
			"scale":[
				1,
				0.9999999403953552,
				1
			],
			"translation":[
				-1.7695128917694092e-07,
				0.05130724608898163,
				-1.4901161193847656e-08
			]
		},
		{
			"children":[
				17
			],
			"name":"Bip01 L Finger2",
			"rotation":[
				-5.587936335871291e-09,
				0.0003981777117587626,
				2.2305178504211653e-07,
				0.9999999403953552
			],
			"translation":[
				-0.004750585183501244,
				0.0814516618847847,
				0.002431534230709076
			]
		},
		{
			"name":"Bip01 L Finger31",
			"rotation":[
				-1.2738159682612604e-07,
				-3.699685890978799e-08,
				-0.10629924386739731,
				0.9943342208862305
			],
			"scale":[
				1,
				1,
				0.9999998211860657
			],
			"translation":[
				-7.019843906164169e-08,
				0.032036423683166504,
				-3.3527612686157227e-08
			]
		},
		{
			"children":[
				19
			],
			"name":"Bip01 L Finger3",
			"rotation":[
				0.11006218194961548,
				0.09295191615819931,
				0.00750085199251771,
				0.9895402789115906
			],
			"scale":[
				1,
				1,
				1.0000001192092896
			],
			"translation":[
				0.005898317322134972,
				0.08806554973125458,
				0.052661389112472534
			]
		},
		{
			"children":[
				14,
				16,
				18,
				20
			],
			"name":"Bip01 L Hand",
			"rotation":[
				-0.020063411444425583,
				0.685282289981842,
				-0.00681488960981369,
				0.727969229221344
			],
			"scale":[
				1,
				0.9999998807907104,
				0.9999999403953552
			],
			"translation":[
				-7.450580596923828e-09,
				0.26494523882865906,
				-2.5797635316848755e-07
			]
		},
		{
			"children":[
				21
			],
			"name":"Bip01 L Forearm",
			"rotation":[
				7.4505820180093e-08,
				-6.14673041354763e-08,
				0.0007117457571439445,
				0.9999997615814209
			],
			"scale":[
				1,
				0.9999999403953552,
				1
			],
			"translation":[
				-1.862645149230957e-08,
				0.26356855034828186,
				-7.264316082000732e-08
			]
		},
		{
			"children":[
				22
			],
			"name":"Bip01 L UpperArm",
			"rotation":[
				-0.1567360907793045,
				-0.001571084139868617,
				-0.010444625280797482,
				0.9875840544700623
			],
			"scale":[
				0.9999999403953552,
				1,
				0.9999998807907104
			],
			"translation":[
				1.4901161193847656e-08,
				0.1820855438709259,
				-2.561137080192566e-08
			]
		},
		{
			"children":[
				23
			],
			"name":"Bip01 L Clavicle",
			"rotation":[
				0.46011635661125183,
				-0.3805323839187622,
				-0.5145031213760376,
				0.6154467463493347
			],
			"scale":[
				1,
				1.000000238418579,
				1
			],
			"translation":[
				0.05057539790868759,
				0.05263538286089897,
				0.036518294364213943
			]
		},
		{
			"children":[
				0,
				12,
				24
			],
			"name":"Bip01 Neck",
			"rotation":[
				7.835033954961546e-08,
				9.880933049544183e-08,
				-0.7681742906570435,
				0.6402407884597778
			],
			"scale":[
				1,
				0.9999999403953552,
				1
			],
			"translation":[
				-0.051231347024440765,
				0.25221389532089233,
				-2.7939677238464355e-09
			]
		},
		{
			"name":"Cloak_bone03",
			"rotation":[
				1.0244548320770264e-08,
				2.4796463549137115e-07,
				4.190951585769653e-09,
				1
			],
			"scale":[
				1,
				0.9999999403953552,
				1
			],
			"translation":[
				-4.0978193283081055e-08,
				0.44386589527130127,
				1.862645149230957e-08
			]
		},
		{
			"children":[
				26
			],
			"name":"Cloak_bone02",
			"rotation":[
				2.3283064365386963e-09,
				3.4621916711330414e-07,
				3.259629011154175e-09,
				1
			],
			"translation":[
				-2.0489096641540527e-08,
				0.6557935476303101,
				-2.60770320892334e-08
			]
		},
		{
			"children":[
				27
			],
			"name":"Cloak_bone01",
			"rotation":[
				-6.190354042701074e-07,
				3.2397085902857725e-08,
				0.9989620447158813,
				0.04554976895451546
			],
			"scale":[
				1.0000170469284058,
				1.0000001192092896,
				1
			],
			"translation":[
				-0.20078639686107635,
				0.23225948214530945,
				-3.0174851417541504e-07
			]
		},
		{
			"name":"R_wing_bone-kon4ik01",
			"rotation":[
				-1.1409066758005793e-07,
				6.798872220770136e-08,
				-0.007986742071807384,
				0.9999681115150452
			],
			"scale":[
				1,
				0.9999998807907104,
				1
			],
			"translation":[
				-0.0028342250734567642,
				0.474206805229187,
				1.4901161193847656e-08
			]
		},
		{
			"name":"R_wing_bone-kon4ik02",
			"rotation":[
				2.655946991581004e-05,
				1.8577688024379313e-05,
				-0.335708349943161,
				0.9419659972190857
			],
			"scale":[
				1,
				0.9999999403953552,
				1
			],
			"translation":[
				0.00424523651599884,
				0.47707080841064453,
				-2.9802322387695312e-08
			]
		},
		{
			"children":[
				29,
				30
			],
			"name":"R_wing_bone03",
			"rotation":[
				-5.0213774471785655e-08,
				4.920948981634865e-08,
				-0.3741757571697235,
				0.9273577928543091
			],
			"scale":[
				0.9999999403953552,
				0.9999997615814209,
				1
			],
			"translation":[
				-4.842877388000488e-08,
				0.5003225803375244,
				-1.1920928955078125e-07
			]
		},
		{
			"name":"R_feather_bone01",
			"rotation":[
				1.1019327757821884e-05,
				-2.7894191134691937e-07,
				-0.8296840786933899,
				0.5582332611083984
			],
			"scale":[
				1.0000001192092896,
				0.9999998807907104,
				0.9999999403953552
			],
			"translation":[
				-4.76837158203125e-07,
				0.5003226399421692,
				-8.195638656616211e-08
			]
		},
		{
			"children":[
				31,
				32
			],
			"name":"R_wing_bone02",
			"rotation":[
				-1.4330062469980476e-07,
				-8.429448428159958e-08,
				0.10606122761964798,
				0.9943596124649048
			],
			"scale":[
				0.9999999403953552,
				1,
				1.0000001192092896
			],
			"translation":[
				4.0605664253234863e-07,
				0.28305530548095703,
				-4.842877388000488e-08
			]
		},
		{
			"name":"R_feather_bone02",
			"rotation":[
				3.0973326374805765e-06,
				-2.082828274296844e-07,
				-0.8154774904251099,
				0.5787888169288635
			],
			"translation":[
				9.201467037200928e-07,
				0.28305783867836,
				-4.0978193283081055e-08
			]
		},
		{
			"children":[
				33,
				34
			],
			"name":"R_wing_bone01",
			"rotation":[
				8.499414252582937e-05,
				-6.882443267386407e-05,
				-0.5434906482696533,
				0.8394152522087097
			],
			"scale":[
				0.9999998807907104,
				0.9999998211860657,
				0.9999998211860657
			],
			"translation":[
				0.00115947425365448,
				0.010407148860394955,
				-1.7695128917694092e-08
			]
		},
		{
			"children":[
				35
			],
			"name":"R_BaseFeather_Bone",
			"rotation":[
				-0.006913918070495129,
				0.7070921659469604,
				-0.0017458733636885881,
				0.7070854902267456
			],
			"scale":[
				1.0000001192092896,
				1.0000001192092896,
				1
			],
			"translation":[
				-0.21262764930725098,
				0.15307526290416718,
				-0.053567275404930115
			]
		},
		{
			"name":"L_wing_bone-kon4ik01",
			"rotation":[
				4.773180517503306e-09,
				5.0525862604899885e-08,
				0.007986679673194885,
				0.9999681115150452
			],
			"translation":[
				0.002834019251167774,
				0.47420695424079895,
				2.60770320892334e-08
			]
		},
		{
			"name":"L_wing_bone-kon4ik02",
			"rotation":[
				-3.7076272607627914e-10,
				-3.707629536719992e-09,
				0.3357093632221222,
				0.9419655799865723
			],
			"scale":[
				1,
				1.0000001192092896,
				1
			],
			"translation":[
				-0.0042450218461453915,
				0.47707119584083557,
				1.862645149230957e-08
			]
		},
		{
			"children":[
				37,
				38
			],
			"name":"L_wing_bone03",
			"rotation":[
				-5.9252244000163046e-08,
				-4.39370460014743e-08,
				0.3741757571697235,
				0.9273577928543091
			],
			"scale":[
				0.9999998807907104,
				1,
				1
			],
			"translation":[
				-1.6298145055770874e-08,
				0.5003230571746826,
				2.60770320892334e-08
			]
		},
		{
			"name":"L_feather_bone02",
			"rotation":[
				-8.025887865414916e-08,
				-1.6276279879434696e-08,
				0.8296847343444824,
				0.558232307434082
			],
			"scale":[
				1.0000001192092896,
				0.9999999403953552,
				1
			],
			"translation":[
				2.4668406695127487e-07,
				0.5003232359886169,
				1.2665987014770508e-07
			]
		},
		{
			"children":[
				39,
				40
			],
			"name":"L_wing_bone02",
			"rotation":[
				2.1541925576684662e-08,
				-2.7512783162819687e-09,
				-0.10606104135513306,
				0.9943596124649048
			],
			"scale":[
				1,
				0.9999998807907104,
				0.9999999403953552
			],
			"translation":[
				-6.100744940340519e-07,
				0.2830556631088257,
				2.9802322387695312e-08
			]
		},
		{
			"name":"L_feather_bone01",
			"rotation":[
				-1.3297827194946876e-07,
				1.770188617911117e-08,
				0.8154782652854919,
				0.5787878036499023
			],
			"scale":[
				0.9999999403953552,
				0.9999999403953552,
				0.9999999403953552
			],
			"translation":[
				-1.0286166798323393e-06,
				0.2830582857131958,
				-3.725290298461914e-08
			]
		},
		{
			"children":[
				41,
				42
			],
			"name":"L_wing_bone01",
			"rotation":[
				2.233619170510792e-06,
				1.2867166105934302e-06,
				0.5436162948608398,
				0.8393338918685913
			],
			"translation":[
				-0.0011595599353313446,
				0.010407211259007454,
				-2.849847078323364e-07
			]
		},
		{
			"children":[
				43
			],
			"name":"L_BaseFeather_Bone",
			"rotation":[
				0.001745786634273827,
				0.707104504108429,
				0.006911992561072111,
				0.7070731520652771
			],
			"scale":[
				0.9999999403953552,
				1,
				0.9999999403953552
			],
			"translation":[
				-0.2126278281211853,
				0.15307527780532837,
				0.05356745049357414
			]
		},
		{
			"children":[
				25,
				28,
				36,
				44
			],
			"name":"Bip01 Spine1",
			"rotation":[
				5.331936137054072e-08,
				2.3283566186194093e-09,
				0.006522481795400381,
				0.9999787211418152
			],
			"scale":[
				0.9999999403953552,
				0.9999998807907104,
				0.9999999403953552
			],
			"translation":[
				-0.00014996679965406656,
				0.25367799401283264,
				6.402842700481415e-09
			]
		},
		{
			"name":"Bip01 R Foot",
			"rotation":[
				-0.019298162311315536,
				-0.04254792630672455,
				-0.027607576921582222,
				0.9985264539718628
			],
			"scale":[
				1,
				1,
				1.0000001192092896
			],
			"translation":[
				-1.6763806343078613e-08,
				0.518277108669281,
				-1.4202669262886047e-08
			]
		},
		{
			"children":[
				46
			],
			"name":"Bip01 R Calf",
			"rotation":[
				1.3504179996459698e-08,
				2.06055137397243e-08,
				0.0004883118090219796,
				0.9999998807907104
			],
			"scale":[
				1.0000001192092896,
				0.9999999403953552,
				1
			],
			"translation":[
				-5.587935447692871e-09,
				0.4780788719654083,
				3.725290298461914e-09
			]
		},
		{
			"children":[
				47
			],
			"name":"Bip01 R Thigh",
			"rotation":[
				-0.9996774792671204,
				0.017720790579915047,
				-0.0011605113977566361,
				0.018155312165617943
			],
			"scale":[
				1.0000007152557373,
				1,
				1.0000008344650269
			],
			"translation":[
				0.0013595232740044594,
				-0.05685911700129509,
				-0.07877736538648605
			]
		},
		{
			"name":"Bip01 L Foot",
			"rotation":[
				0.019298160448670387,
				0.04254782944917679,
				-0.02760757878422737,
				0.9985264539718628
			],
			"scale":[
				1,
				1.0000001192092896,
				1.0000001192092896
			],
			"translation":[
				1.1175870895385742e-08,
				0.5182772278785706,
				4.190951585769653e-09
			]
		},
		{
			"children":[
				49
			],
			"name":"Bip01 L Calf",
			"rotation":[
				3.259629011154175e-09,
				-3.492460542986464e-09,
				0.0004883055225946009,
				0.9999998807907104
			],
			"scale":[
				0.9999999403953552,
				1.0000001192092896,
				0.9999999403953552
			],
			"translation":[
				1.862645149230957e-08,
				0.47807854413986206,
				4.6566128730773926e-09
			]
		},
		{
			"children":[
				50
			],
			"name":"Bip01 L Thigh",
			"rotation":[
				0.9996774792671204,
				-0.017720792442560196,
				-0.0011576561955735087,
				0.018155330792069435
			],
			"scale":[
				1.0000008344650269,
				0.9999999403953552,
				1.0000008344650269
			],
			"translation":[
				0.0013590902090072632,
				-0.05685918405652046,
				0.07877738773822784
			]
		},
		{
			"children":[
				45,
				48,
				51
			],
			"name":"Bip01 Spine",
			"rotation":[
				7.3415299084445e-07,
				2.0818465600314084e-06,
				-0.010175386443734169,
				0.999948263168335
			],
			"translation":[
				-0.00020190328359603882,
				0.056875068694353104,
				4.190951585769653e-08
			]
		},
		{
			"name":"L_shild_bone",
			"rotation":[
				0.8700405359268188,
				0.08217769116163254,
				0.47695422172546387,
				0.0937596932053566
			],
			"scale":[
				1.0000001192092896,
				1.0000001192092896,
				1.000001311302185
			],
			"translation":[
				0.07373884320259094,
				0.10735520720481873,
				0.12710686028003693
			]
		},
		{
			"name":"R_shild_bone",
			"rotation":[
				-0.47678104043006897,
				0.09465162456035614,
				-0.8698839545249939,
				0.08380208909511566
			],
			"scale":[
				1,
				1,
				0.999999463558197
			],
			"translation":[
				0.07261297106742859,
				0.1066487729549408,
				-0.12541714310646057
			]
		},
		{
			"name":"front_slirt_bone02",
			"rotation":[
				7.334313600892983e-09,
				-1.2840870056152198e-07,
				-0.006348254159092903,
				0.9999798536300659
			],
			"scale":[
				0.9999998211860657,
				0.9999998807907104,
				1
			],
			"translation":[
				-3.166496753692627e-08,
				0.4799792170524597,
				5.587935447692871e-09
			]
		},
		{
			"children":[
				55
			],
			"name":"front_slirt_bone01",
			"rotation":[
				-0.9997727274894714,
				-0.021319933235645294,
				1.4004447166371392e-06,
				7.160005566220207e-07
			],
			"scale":[
				1.0000009536743164,
				1.0000001192092896,
				0.9999999403953552
			],
			"translation":[
				0.1539941281080246,
				0.12352804839611053,
				-1.8440186977386475e-07
			]
		},
		{
			"name":"L_back_slirt_bone01",
			"rotation":[
				-1.3271347576448989e-08,
				6.222398951649666e-08,
				3.725290298461914e-09,
				1
			],
			"scale":[
				1,
				0.9999999403953552,
				1
			],
			"translation":[
				-5.960464477539063e-08,
				0.7175064086914062,
				-8.335337042808533e-08
			]
		},
		{
			"children":[
				57
			],
			"name":"L_back_slirt_bone02",
			"rotation":[
				0.44464734196662903,
				0.051854632794857025,
				0.8924856781959534,
				0.055400460958480835
			],
			"scale":[
				1.000001311302185,
				1.0000001192092896,
				1.0000094175338745
			],
			"translation":[
				-0.09072797745466232,
				0.13128384947776794,
				0.13885104656219482
			]
		},
		{
			"name":"R_back_slirt_bone01",
			"rotation":[
				9.313227522511625e-09,
				6.961636955793438e-08,
				2.1420420992512845e-08,
				1
			],
			"scale":[
				1,
				0.9999999403953552,
				0.9999999403953552
			],
			"translation":[
				7.82310962677002e-08,
				0.7175067067146301,
				-9.685754776000977e-08
			]
		},
		{
			"children":[
				59
			],
			"name":"R_back_slirt_bone02",
			"rotation":[
				-0.8924862742424011,
				0.055401626974344254,
				-0.4446459412574768,
				0.05185531824827194
			],
			"scale":[
				1,
				1.0000001192092896,
				1.0000003576278687
			],
			"translation":[
				-0.0907287746667862,
				0.1312839835882187,
				-0.13885022699832916
			]
		},
		{
			"children":[
				52,
				53,
				54,
				56,
				58,
				60
			],
			"name":"Bip01 Pelvis",
			"rotation":[
				-0.032465822994709015,
				-7.495694376302708e-07,
				-4.1058044075725775e-08,
				0.9994728565216064
			],
			"scale":[
				0.9999999403953552,
				1,
				1
			],
			"translation":[
				0.0039014872163534164,
				-5.122274160385132e-09,
				1.342701771989141e-08
			]
		},
		{
			"mesh":0,
			"name":"empire_angel",
			"skin":0
		},
		{
			"mesh":1,
			"name":"empire_angel_cloth",
			"skin":0
		},
		{
			"mesh":2,
			"name":"empire_angel_hairs",
			"skin":0
		},
		{
			"mesh":3,
			"name":"empire_angel_wing",
			"skin":0
		},
		{
			"children":[
				62,
				63,
				64,
				65,
				61
			],
			"name":"Bip01",
			"rotation":[
				-0.03341436758637428,
				0.765315055847168,
				-0.028038034215569496,
				0.6421763300895691
			],
			"translation":[
				0.11031165719032288,
				1.0436545610427856,
				0.032117586582899094
			]
		}
	],
	"animations":[
		{
			"channels":[
				{
					"sampler":0,
					"target":{
						"node":61,
						"path":"translation"
					}
				},
				{
					"sampler":1,
					"target":{
						"node":61,
						"path":"rotation"
					}
				},
				{
					"sampler":2,
					"target":{
						"node":61,
						"path":"scale"
					}
				},
				{
					"sampler":3,
					"target":{
						"node":52,
						"path":"translation"
					}
				},
				{
					"sampler":4,
					"target":{
						"node":52,
						"path":"rotation"
					}
				},
				{
					"sampler":5,
					"target":{
						"node":52,
						"path":"scale"
					}
				},
				{
					"sampler":6,
					"target":{
						"node":45,
						"path":"translation"
					}
				},
				{
					"sampler":7,
					"target":{
						"node":45,
						"path":"rotation"
					}
				},
				{
					"sampler":8,
					"target":{
						"node":45,
						"path":"scale"
					}
				},
				{
					"sampler":9,
					"target":{
						"node":25,
						"path":"translation"
					}
				},
				{
					"sampler":10,
					"target":{
						"node":25,
						"path":"rotation"
					}
				},
				{
					"sampler":11,
					"target":{
						"node":25,
						"path":"scale"
					}
				},
				{
					"sampler":12,
					"target":{
						"node":0,
						"path":"translation"
					}
				},
				{
					"sampler":13,
					"target":{
						"node":0,
						"path":"rotation"
					}
				},
				{
					"sampler":14,
					"target":{
						"node":0,
						"path":"scale"
					}
				},
				{
					"sampler":15,
					"target":{
						"node":12,
						"path":"translation"
					}
				},
				{
					"sampler":16,
					"target":{
						"node":12,
						"path":"rotation"
					}
				},
				{
					"sampler":17,
					"target":{
						"node":12,
						"path":"scale"
					}
				},
				{
					"sampler":18,
					"target":{
						"node":11,
						"path":"translation"
					}
				},
				{
					"sampler":19,
					"target":{
						"node":11,
						"path":"rotation"
					}
				},
				{
					"sampler":20,
					"target":{
						"node":11,
						"path":"scale"
					}
				},
				{
					"sampler":21,
					"target":{
						"node":10,
						"path":"translation"
					}
				},
				{
					"sampler":22,
					"target":{
						"node":10,
						"path":"rotation"
					}
				},
				{
					"sampler":23,
					"target":{
						"node":10,
						"path":"scale"
					}
				},
				{
					"sampler":24,
					"target":{
						"node":9,
						"path":"translation"
					}
				},
				{
					"sampler":25,
					"target":{
						"node":9,
						"path":"rotation"
					}
				},
				{
					"sampler":26,
					"target":{
						"node":9,
						"path":"scale"
					}
				},
				{
					"sampler":27,
					"target":{
						"node":2,
						"path":"translation"
					}
				},
				{
					"sampler":28,
					"target":{
						"node":2,
						"path":"rotation"
					}
				},
				{
					"sampler":29,
					"target":{
						"node":2,
						"path":"scale"
					}
				},
				{
					"sampler":30,
					"target":{
						"node":1,
						"path":"translation"
					}
				},
				{
					"sampler":31,
					"target":{
						"node":1,
						"path":"rotation"
					}
				},
				{
					"sampler":32,
					"target":{
						"node":1,
						"path":"scale"
					}
				},
				{
					"sampler":33,
					"target":{
						"node":4,
						"path":"translation"
					}
				},
				{
					"sampler":34,
					"target":{
						"node":4,
						"path":"rotation"
					}
				},
				{
					"sampler":35,
					"target":{
						"node":4,
						"path":"scale"
					}
				},
				{
					"sampler":36,
					"target":{
						"node":3,
						"path":"translation"
					}
				},
				{
					"sampler":37,
					"target":{
						"node":3,
						"path":"rotation"
					}
				},
				{
					"sampler":38,
					"target":{
						"node":3,
						"path":"scale"
					}
				},
				{
					"sampler":39,
					"target":{
						"node":6,
						"path":"translation"
					}
				},
				{
					"sampler":40,
					"target":{
						"node":6,
						"path":"rotation"
					}
				},
				{
					"sampler":41,
					"target":{
						"node":6,
						"path":"scale"
					}
				},
				{
					"sampler":42,
					"target":{
						"node":5,
						"path":"translation"
					}
				},
				{
					"sampler":43,
					"target":{
						"node":5,
						"path":"rotation"
					}
				},
				{
					"sampler":44,
					"target":{
						"node":5,
						"path":"scale"
					}
				},
				{
					"sampler":45,
					"target":{
						"node":8,
						"path":"translation"
					}
				},
				{
					"sampler":46,
					"target":{
						"node":8,
						"path":"rotation"
					}
				},
				{
					"sampler":47,
					"target":{
						"node":8,
						"path":"scale"
					}
				},
				{
					"sampler":48,
					"target":{
						"node":7,
						"path":"translation"
					}
				},
				{
					"sampler":49,
					"target":{
						"node":7,
						"path":"rotation"
					}
				},
				{
					"sampler":50,
					"target":{
						"node":7,
						"path":"scale"
					}
				},
				{
					"sampler":51,
					"target":{
						"node":24,
						"path":"translation"
					}
				},
				{
					"sampler":52,
					"target":{
						"node":24,
						"path":"rotation"
					}
				},
				{
					"sampler":53,
					"target":{
						"node":24,
						"path":"scale"
					}
				},
				{
					"sampler":54,
					"target":{
						"node":23,
						"path":"translation"
					}
				},
				{
					"sampler":55,
					"target":{
						"node":23,
						"path":"rotation"
					}
				},
				{
					"sampler":56,
					"target":{
						"node":23,
						"path":"scale"
					}
				},
				{
					"sampler":57,
					"target":{
						"node":22,
						"path":"translation"
					}
				},
				{
					"sampler":58,
					"target":{
						"node":22,
						"path":"rotation"
					}
				},
				{
					"sampler":59,
					"target":{
						"node":22,
						"path":"scale"
					}
				},
				{
					"sampler":60,
					"target":{
						"node":21,
						"path":"translation"
					}
				},
				{
					"sampler":61,
					"target":{
						"node":21,
						"path":"rotation"
					}
				},
				{
					"sampler":62,
					"target":{
						"node":21,
						"path":"scale"
					}
				},
				{
					"sampler":63,
					"target":{
						"node":14,
						"path":"translation"
					}
				},
				{
					"sampler":64,
					"target":{
						"node":14,
						"path":"rotation"
					}
				},
				{
					"sampler":65,
					"target":{
						"node":14,
						"path":"scale"
					}
				},
				{
					"sampler":66,
					"target":{
						"node":13,
						"path":"translation"
					}
				},
				{
					"sampler":67,
					"target":{
						"node":13,
						"path":"rotation"
					}
				},
				{
					"sampler":68,
					"target":{
						"node":13,
						"path":"scale"
					}
				},
				{
					"sampler":69,
					"target":{
						"node":16,
						"path":"translation"
					}
				},
				{
					"sampler":70,
					"target":{
						"node":16,
						"path":"rotation"
					}
				},
				{
					"sampler":71,
					"target":{
						"node":16,
						"path":"scale"
					}
				},
				{
					"sampler":72,
					"target":{
						"node":15,
						"path":"translation"
					}
				},
				{
					"sampler":73,
					"target":{
						"node":15,
						"path":"rotation"
					}
				},
				{
					"sampler":74,
					"target":{
						"node":15,
						"path":"scale"
					}
				},
				{
					"sampler":75,
					"target":{
						"node":18,
						"path":"translation"
					}
				},
				{
					"sampler":76,
					"target":{
						"node":18,
						"path":"rotation"
					}
				},
				{
					"sampler":77,
					"target":{
						"node":18,
						"path":"scale"
					}
				},
				{
					"sampler":78,
					"target":{
						"node":17,
						"path":"translation"
					}
				},
				{
					"sampler":79,
					"target":{
						"node":17,
						"path":"rotation"
					}
				},
				{
					"sampler":80,
					"target":{
						"node":17,
						"path":"scale"
					}
				},
				{
					"sampler":81,
					"target":{
						"node":20,
						"path":"translation"
					}
				},
				{
					"sampler":82,
					"target":{
						"node":20,
						"path":"rotation"
					}
				},
				{
					"sampler":83,
					"target":{
						"node":20,
						"path":"scale"
					}
				},
				{
					"sampler":84,
					"target":{
						"node":19,
						"path":"translation"
					}
				},
				{
					"sampler":85,
					"target":{
						"node":19,
						"path":"rotation"
					}
				},
				{
					"sampler":86,
					"target":{
						"node":19,
						"path":"scale"
					}
				},
				{
					"sampler":87,
					"target":{
						"node":28,
						"path":"translation"
					}
				},
				{
					"sampler":88,
					"target":{
						"node":28,
						"path":"rotation"
					}
				},
				{
					"sampler":89,
					"target":{
						"node":28,
						"path":"scale"
					}
				},
				{
					"sampler":90,
					"target":{
						"node":27,
						"path":"translation"
					}
				},
				{
					"sampler":91,
					"target":{
						"node":27,
						"path":"rotation"
					}
				},
				{
					"sampler":92,
					"target":{
						"node":27,
						"path":"scale"
					}
				},
				{
					"sampler":93,
					"target":{
						"node":26,
						"path":"translation"
					}
				},
				{
					"sampler":94,
					"target":{
						"node":26,
						"path":"rotation"
					}
				},
				{
					"sampler":95,
					"target":{
						"node":26,
						"path":"scale"
					}
				},
				{
					"sampler":96,
					"target":{
						"node":36,
						"path":"translation"
					}
				},
				{
					"sampler":97,
					"target":{
						"node":36,
						"path":"rotation"
					}
				},
				{
					"sampler":98,
					"target":{
						"node":36,
						"path":"scale"
					}
				},
				{
					"sampler":99,
					"target":{
						"node":35,
						"path":"translation"
					}
				},
				{
					"sampler":100,
					"target":{
						"node":35,
						"path":"rotation"
					}
				},
				{
					"sampler":101,
					"target":{
						"node":35,
						"path":"scale"
					}
				},
				{
					"sampler":102,
					"target":{
						"node":33,
						"path":"translation"
					}
				},
				{
					"sampler":103,
					"target":{
						"node":33,
						"path":"rotation"
					}
				},
				{
					"sampler":104,
					"target":{
						"node":33,
						"path":"scale"
					}
				},
				{
					"sampler":105,
					"target":{
						"node":31,
						"path":"translation"
					}
				},
				{
					"sampler":106,
					"target":{
						"node":31,
						"path":"rotation"
					}
				},
				{
					"sampler":107,
					"target":{
						"node":31,
						"path":"scale"
					}
				},
				{
					"sampler":108,
					"target":{
						"node":29,
						"path":"translation"
					}
				},
				{
					"sampler":109,
					"target":{
						"node":29,
						"path":"rotation"
					}
				},
				{
					"sampler":110,
					"target":{
						"node":29,
						"path":"scale"
					}
				},
				{
					"sampler":111,
					"target":{
						"node":30,
						"path":"translation"
					}
				},
				{
					"sampler":112,
					"target":{
						"node":30,
						"path":"rotation"
					}
				},
				{
					"sampler":113,
					"target":{
						"node":30,
						"path":"scale"
					}
				},
				{
					"sampler":114,
					"target":{
						"node":32,
						"path":"translation"
					}
				},
				{
					"sampler":115,
					"target":{
						"node":32,
						"path":"rotation"
					}
				},
				{
					"sampler":116,
					"target":{
						"node":32,
						"path":"scale"
					}
				},
				{
					"sampler":117,
					"target":{
						"node":34,
						"path":"translation"
					}
				},
				{
					"sampler":118,
					"target":{
						"node":34,
						"path":"rotation"
					}
				},
				{
					"sampler":119,
					"target":{
						"node":34,
						"path":"scale"
					}
				},
				{
					"sampler":120,
					"target":{
						"node":44,
						"path":"translation"
					}
				},
				{
					"sampler":121,
					"target":{
						"node":44,
						"path":"rotation"
					}
				},
				{
					"sampler":122,
					"target":{
						"node":44,
						"path":"scale"
					}
				},
				{
					"sampler":123,
					"target":{
						"node":43,
						"path":"translation"
					}
				},
				{
					"sampler":124,
					"target":{
						"node":43,
						"path":"rotation"
					}
				},
				{
					"sampler":125,
					"target":{
						"node":43,
						"path":"scale"
					}
				},
				{
					"sampler":126,
					"target":{
						"node":41,
						"path":"translation"
					}
				},
				{
					"sampler":127,
					"target":{
						"node":41,
						"path":"rotation"
					}
				},
				{
					"sampler":128,
					"target":{
						"node":41,
						"path":"scale"
					}
				},
				{
					"sampler":129,
					"target":{
						"node":39,
						"path":"translation"
					}
				},
				{
					"sampler":130,
					"target":{
						"node":39,
						"path":"rotation"
					}
				},
				{
					"sampler":131,
					"target":{
						"node":39,
						"path":"scale"
					}
				},
				{
					"sampler":132,
					"target":{
						"node":37,
						"path":"translation"
					}
				},
				{
					"sampler":133,
					"target":{
						"node":37,
						"path":"rotation"
					}
				},
				{
					"sampler":134,
					"target":{
						"node":37,
						"path":"scale"
					}
				},
				{
					"sampler":135,
					"target":{
						"node":38,
						"path":"translation"
					}
				},
				{
					"sampler":136,
					"target":{
						"node":38,
						"path":"rotation"
					}
				},
				{
					"sampler":137,
					"target":{
						"node":38,
						"path":"scale"
					}
				},
				{
					"sampler":138,
					"target":{
						"node":40,
						"path":"translation"
					}
				},
				{
					"sampler":139,
					"target":{
						"node":40,
						"path":"rotation"
					}
				},
				{
					"sampler":140,
					"target":{
						"node":40,
						"path":"scale"
					}
				},
				{
					"sampler":141,
					"target":{
						"node":42,
						"path":"translation"
					}
				},
				{
					"sampler":142,
					"target":{
						"node":42,
						"path":"rotation"
					}
				},
				{
					"sampler":143,
					"target":{
						"node":42,
						"path":"scale"
					}
				},
				{
					"sampler":144,
					"target":{
						"node":48,
						"path":"translation"
					}
				},
				{
					"sampler":145,
					"target":{
						"node":48,
						"path":"rotation"
					}
				},
				{
					"sampler":146,
					"target":{
						"node":48,
						"path":"scale"
					}
				},
				{
					"sampler":147,
					"target":{
						"node":47,
						"path":"translation"
					}
				},
				{
					"sampler":148,
					"target":{
						"node":47,
						"path":"rotation"
					}
				},
				{
					"sampler":149,
					"target":{
						"node":47,
						"path":"scale"
					}
				},
				{
					"sampler":150,
					"target":{
						"node":46,
						"path":"translation"
					}
				},
				{
					"sampler":151,
					"target":{
						"node":46,
						"path":"rotation"
					}
				},
				{
					"sampler":152,
					"target":{
						"node":46,
						"path":"scale"
					}
				},
				{
					"sampler":153,
					"target":{
						"node":51,
						"path":"translation"
					}
				},
				{
					"sampler":154,
					"target":{
						"node":51,
						"path":"rotation"
					}
				},
				{
					"sampler":155,
					"target":{
						"node":51,
						"path":"scale"
					}
				},
				{
					"sampler":156,
					"target":{
						"node":50,
						"path":"translation"
					}
				},
				{
					"sampler":157,
					"target":{
						"node":50,
						"path":"rotation"
					}
				},
				{
					"sampler":158,
					"target":{
						"node":50,
						"path":"scale"
					}
				},
				{
					"sampler":159,
					"target":{
						"node":49,
						"path":"translation"
					}
				},
				{
					"sampler":160,
					"target":{
						"node":49,
						"path":"rotation"
					}
				},
				{
					"sampler":161,
					"target":{
						"node":49,
						"path":"scale"
					}
				},
				{
					"sampler":162,
					"target":{
						"node":53,
						"path":"translation"
					}
				},
				{
					"sampler":163,
					"target":{
						"node":53,
						"path":"rotation"
					}
				},
				{
					"sampler":164,
					"target":{
						"node":53,
						"path":"scale"
					}
				},
				{
					"sampler":165,
					"target":{
						"node":54,
						"path":"translation"
					}
				},
				{
					"sampler":166,
					"target":{
						"node":54,
						"path":"rotation"
					}
				},
				{
					"sampler":167,
					"target":{
						"node":54,
						"path":"scale"
					}
				},
				{
					"sampler":168,
					"target":{
						"node":56,
						"path":"translation"
					}
				},
				{
					"sampler":169,
					"target":{
						"node":56,
						"path":"rotation"
					}
				},
				{
					"sampler":170,
					"target":{
						"node":56,
						"path":"scale"
					}
				},
				{
					"sampler":171,
					"target":{
						"node":55,
						"path":"translation"
					}
				},
				{
					"sampler":172,
					"target":{
						"node":55,
						"path":"rotation"
					}
				},
				{
					"sampler":173,
					"target":{
						"node":55,
						"path":"scale"
					}
				},
				{
					"sampler":174,
					"target":{
						"node":58,
						"path":"translation"
					}
				},
				{
					"sampler":175,
					"target":{
						"node":58,
						"path":"rotation"
					}
				},
				{
					"sampler":176,
					"target":{
						"node":58,
						"path":"scale"
					}
				},
				{
					"sampler":177,
					"target":{
						"node":57,
						"path":"translation"
					}
				},
				{
					"sampler":178,
					"target":{
						"node":57,
						"path":"rotation"
					}
				},
				{
					"sampler":179,
					"target":{
						"node":57,
						"path":"scale"
					}
				},
				{
					"sampler":180,
					"target":{
						"node":60,
						"path":"translation"
					}
				},
				{
					"sampler":181,
					"target":{
						"node":60,
						"path":"rotation"
					}
				},
				{
					"sampler":182,
					"target":{
						"node":60,
						"path":"scale"
					}
				},
				{
					"sampler":183,
					"target":{
						"node":59,
						"path":"translation"
					}
				},
				{
					"sampler":184,
					"target":{
						"node":59,
						"path":"rotation"
					}
				},
				{
					"sampler":185,
					"target":{
						"node":59,
						"path":"scale"
					}
				},
				{
					"sampler":186,
					"target":{
						"node":66,
						"path":"rotation"
					}
				},
				{
					"sampler":187,
					"target":{
						"node":66,
						"path":"translation"
					}
				}
			],
			"name":"Anim_0",
			"samplers":[
				{
					"input":25,
					"interpolation":"LINEAR",
					"output":26
				},
				{
					"input":25,
					"interpolation":"LINEAR",
					"output":27
				},
				{
					"input":28,
					"interpolation":"STEP",
					"output":29
				},
				{
					"input":25,
					"interpolation":"LINEAR",
					"output":30
				},
				{
					"input":25,
					"interpolation":"LINEAR",
					"output":31
				},
				{
					"input":28,
					"interpolation":"STEP",
					"output":32
				},
				{
					"input":25,
					"interpolation":"LINEAR",
					"output":33
				},
				{
					"input":25,
					"interpolation":"LINEAR",
					"output":34
				},
				{
					"input":28,
					"interpolation":"STEP",
					"output":35
				},
				{
					"input":28,
					"interpolation":"LINEAR",
					"output":36
				},
				{
					"input":25,
					"interpolation":"LINEAR",
					"output":37
				},
				{
					"input":28,
					"interpolation":"STEP",
					"output":38
				},
				{
					"input":28,
					"interpolation":"LINEAR",
					"output":39
				},
				{
					"input":25,
					"interpolation":"LINEAR",
					"output":40
				},
				{
					"input":28,
					"interpolation":"STEP",
					"output":41
				},
				{
					"input":25,
					"interpolation":"LINEAR",
					"output":42
				},
				{
					"input":25,
					"interpolation":"LINEAR",
					"output":43
				},
				{
					"input":28,
					"interpolation":"STEP",
					"output":44
				},
				{
					"input":28,
					"interpolation":"LINEAR",
					"output":45
				},
				{
					"input":25,
					"interpolation":"LINEAR",
					"output":46
				},
				{
					"input":28,
					"interpolation":"STEP",
					"output":47
				},
				{
					"input":28,
					"interpolation":"LINEAR",
					"output":48
				},
				{
					"input":25,
					"interpolation":"LINEAR",
					"output":49
				},
				{
					"input":28,
					"interpolation":"STEP",
					"output":50
				},
				{
					"input":28,
					"interpolation":"LINEAR",
					"output":51
				},
				{
					"input":25,
					"interpolation":"LINEAR",
					"output":52
				},
				{
					"input":28,
					"interpolation":"STEP",
					"output":53
				},
				{
					"input":28,
					"interpolation":"LINEAR",
					"output":54
				},
				{
					"input":25,
					"interpolation":"LINEAR",
					"output":55
				},
				{
					"input":28,
					"interpolation":"STEP",
					"output":50
				},
				{
					"input":28,
					"interpolation":"LINEAR",
					"output":56
				},
				{
					"input":25,
					"interpolation":"LINEAR",
					"output":57
				},
				{
					"input":28,
					"interpolation":"STEP",
					"output":58
				},
				{
					"input":28,
					"interpolation":"LINEAR",
					"output":59
				},
				{
					"input":25,
					"interpolation":"LINEAR",
					"output":60
				},
				{
					"input":28,
					"interpolation":"STEP",
					"output":61
				},
				{
					"input":28,
					"interpolation":"LINEAR",
					"output":62
				},
				{
					"input":25,
					"interpolation":"LINEAR",
					"output":63
				},
				{
					"input":28,
					"interpolation":"STEP",
					"output":64
				},
				{
					"input":28,
					"interpolation":"LINEAR",
					"output":65
				},
				{
					"input":25,
					"interpolation":"LINEAR",
					"output":66
				},
				{
					"input":28,
					"interpolation":"STEP",
					"output":67
				},
				{
					"input":28,
					"interpolation":"LINEAR",
					"output":68
				},
				{
					"input":25,
					"interpolation":"LINEAR",
					"output":69
				},
				{
					"input":28,
					"interpolation":"STEP",
					"output":70
				},
				{
					"input":28,
					"interpolation":"LINEAR",
					"output":71
				},
				{
					"input":25,
					"interpolation":"LINEAR",
					"output":72
				},
				{
					"input":28,
					"interpolation":"STEP",
					"output":73
				},
				{
					"input":28,
					"interpolation":"LINEAR",
					"output":74
				},
				{
					"input":25,
					"interpolation":"LINEAR",
					"output":75
				},
				{
					"input":28,
					"interpolation":"STEP",
					"output":76
				},
				{
					"input":25,
					"interpolation":"LINEAR",
					"output":77
				},
				{
					"input":25,
					"interpolation":"LINEAR",
					"output":78
				},
				{
					"input":28,
					"interpolation":"STEP",
					"output":79
				},
				{
					"input":28,
					"interpolation":"LINEAR",
					"output":80
				},
				{
					"input":25,
					"interpolation":"LINEAR",
					"output":81
				},
				{
					"input":28,
					"interpolation":"STEP",
					"output":82
				},
				{
					"input":28,
					"interpolation":"LINEAR",
					"output":83
				},
				{
					"input":25,
					"interpolation":"LINEAR",
					"output":84
				},
				{
					"input":28,
					"interpolation":"STEP",
					"output":85
				},
				{
					"input":28,
					"interpolation":"LINEAR",
					"output":86
				},
				{
					"input":25,
					"interpolation":"LINEAR",
					"output":87
				},
				{
					"input":28,
					"interpolation":"STEP",
					"output":88
				},
				{
					"input":28,
					"interpolation":"LINEAR",
					"output":89
				},
				{
					"input":25,
					"interpolation":"LINEAR",
					"output":90
				},
				{
					"input":28,
					"interpolation":"STEP",
					"output":91
				},
				{
					"input":28,
					"interpolation":"LINEAR",
					"output":92
				},
				{
					"input":28,
					"interpolation":"LINEAR",
					"output":93
				},
				{
					"input":28,
					"interpolation":"STEP",
					"output":94
				},
				{
					"input":28,
					"interpolation":"LINEAR",
					"output":95
				},
				{
					"input":25,
					"interpolation":"LINEAR",
					"output":96
				},
				{
					"input":28,
					"interpolation":"STEP",
					"output":97
				},
				{
					"input":28,
					"interpolation":"LINEAR",
					"output":98
				},
				{
					"input":25,
					"interpolation":"LINEAR",
					"output":99
				},
				{
					"input":28,
					"interpolation":"STEP",
					"output":100
				},
				{
					"input":28,
					"interpolation":"LINEAR",
					"output":101
				},
				{
					"input":25,
					"interpolation":"LINEAR",
					"output":102
				},
				{
					"input":28,
					"interpolation":"STEP",
					"output":103
				},
				{
					"input":28,
					"interpolation":"LINEAR",
					"output":104
				},
				{
					"input":25,
					"interpolation":"LINEAR",
					"output":105
				},
				{
					"input":28,
					"interpolation":"STEP",
					"output":106
				},
				{
					"input":28,
					"interpolation":"LINEAR",
					"output":107
				},
				{
					"input":25,
					"interpolation":"LINEAR",
					"output":108
				},
				{
					"input":28,
					"interpolation":"STEP",
					"output":109
				},
				{
					"input":28,
					"interpolation":"LINEAR",
					"output":110
				},
				{
					"input":25,
					"interpolation":"LINEAR",
					"output":111
				},
				{
					"input":28,
					"interpolation":"STEP",
					"output":112
				},
				{
					"input":28,
					"interpolation":"LINEAR",
					"output":113
				},
				{
					"input":25,
					"interpolation":"LINEAR",
					"output":114
				},
				{
					"input":28,
					"interpolation":"STEP",
					"output":115
				},
				{
					"input":28,
					"interpolation":"LINEAR",
					"output":116
				},
				{
					"input":25,
					"interpolation":"LINEAR",
					"output":117
				},
				{
					"input":28,
					"interpolation":"STEP",
					"output":118
				},
				{
					"input":28,
					"interpolation":"LINEAR",
					"output":119
				},
				{
					"input":25,
					"interpolation":"LINEAR",
					"output":120
				},
				{
					"input":28,
					"interpolation":"STEP",
					"output":121
				},
				{
					"input":28,
					"interpolation":"LINEAR",
					"output":122
				},
				{
					"input":28,
					"interpolation":"LINEAR",
					"output":123
				},
				{
					"input":28,
					"interpolation":"STEP",
					"output":124
				},
				{
					"input":28,
					"interpolation":"LINEAR",
					"output":125
				},
				{
					"input":25,
					"interpolation":"LINEAR",
					"output":126
				},
				{
					"input":28,
					"interpolation":"STEP",
					"output":127
				},
				{
					"input":28,
					"interpolation":"LINEAR",
					"output":128
				},
				{
					"input":25,
					"interpolation":"LINEAR",
					"output":129
				},
				{
					"input":28,
					"interpolation":"STEP",
					"output":130
				},
				{
					"input":28,
					"interpolation":"LINEAR",
					"output":131
				},
				{
					"input":25,
					"interpolation":"LINEAR",
					"output":132
				},
				{
					"input":28,
					"interpolation":"STEP",
					"output":133
				},
				{
					"input":28,
					"interpolation":"LINEAR",
					"output":134
				},
				{
					"input":25,
					"interpolation":"LINEAR",
					"output":135
				},
				{
					"input":28,
					"interpolation":"STEP",
					"output":136
				},
				{
					"input":28,
					"interpolation":"LINEAR",
					"output":137
				},
				{
					"input":25,
					"interpolation":"LINEAR",
					"output":138
				},
				{
					"input":28,
					"interpolation":"STEP",
					"output":139
				},
				{
					"input":28,
					"interpolation":"LINEAR",
					"output":140
				},
				{
					"input":25,
					"interpolation":"LINEAR",
					"output":141
				},
				{
					"input":28,
					"interpolation":"STEP",
					"output":142
				},
				{
					"input":28,
					"interpolation":"LINEAR",
					"output":143
				},
				{
					"input":25,
					"interpolation":"LINEAR",
					"output":144
				},
				{
					"input":28,
					"interpolation":"STEP",
					"output":145
				},
				{
					"input":28,
					"interpolation":"LINEAR",
					"output":146
				},
				{
					"input":28,
					"interpolation":"LINEAR",
					"output":147
				},
				{
					"input":28,
					"interpolation":"STEP",
					"output":148
				},
				{
					"input":28,
					"interpolation":"LINEAR",
					"output":149
				},
				{
					"input":25,
					"interpolation":"LINEAR",
					"output":150
				},
				{
					"input":28,
					"interpolation":"STEP",
					"output":82
				},
				{
					"input":28,
					"interpolation":"LINEAR",
					"output":151
				},
				{
					"input":25,
					"interpolation":"LINEAR",
					"output":152
				},
				{
					"input":28,
					"interpolation":"STEP",
					"output":153
				},
				{
					"input":28,
					"interpolation":"LINEAR",
					"output":154
				},
				{
					"input":25,
					"interpolation":"LINEAR",
					"output":155
				},
				{
					"input":28,
					"interpolation":"STEP",
					"output":156
				},
				{
					"input":28,
					"interpolation":"LINEAR",
					"output":157
				},
				{
					"input":25,
					"interpolation":"LINEAR",
					"output":158
				},
				{
					"input":28,
					"interpolation":"STEP",
					"output":159
				},
				{
					"input":28,
					"interpolation":"LINEAR",
					"output":160
				},
				{
					"input":25,
					"interpolation":"LINEAR",
					"output":161
				},
				{
					"input":28,
					"interpolation":"STEP",
					"output":162
				},
				{
					"input":28,
					"interpolation":"LINEAR",
					"output":163
				},
				{
					"input":25,
					"interpolation":"LINEAR",
					"output":164
				},
				{
					"input":28,
					"interpolation":"STEP",
					"output":165
				},
				{
					"input":28,
					"interpolation":"LINEAR",
					"output":166
				},
				{
					"input":25,
					"interpolation":"LINEAR",
					"output":167
				},
				{
					"input":28,
					"interpolation":"STEP",
					"output":168
				},
				{
					"input":25,
					"interpolation":"LINEAR",
					"output":169
				},
				{
					"input":25,
					"interpolation":"LINEAR",
					"output":170
				},
				{
					"input":28,
					"interpolation":"STEP",
					"output":171
				},
				{
					"input":28,
					"interpolation":"LINEAR",
					"output":172
				},
				{
					"input":25,
					"interpolation":"LINEAR",
					"output":173
				},
				{
					"input":28,
					"interpolation":"STEP",
					"output":174
				},
				{
					"input":28,
					"interpolation":"LINEAR",
					"output":175
				},
				{
					"input":25,
					"interpolation":"LINEAR",
					"output":176
				},
				{
					"input":28,
					"interpolation":"STEP",
					"output":177
				},
				{
					"input":25,
					"interpolation":"LINEAR",
					"output":178
				},
				{
					"input":25,
					"interpolation":"LINEAR",
					"output":179
				},
				{
					"input":28,
					"interpolation":"STEP",
					"output":180
				},
				{
					"input":28,
					"interpolation":"LINEAR",
					"output":181
				},
				{
					"input":25,
					"interpolation":"LINEAR",
					"output":182
				},
				{
					"input":28,
					"interpolation":"STEP",
					"output":183
				},
				{
					"input":28,
					"interpolation":"LINEAR",
					"output":184
				},
				{
					"input":25,
					"interpolation":"LINEAR",
					"output":185
				},
				{
					"input":28,
					"interpolation":"STEP",
					"output":183
				},
				{
					"input":28,
					"interpolation":"LINEAR",
					"output":186
				},
				{
					"input":25,
					"interpolation":"LINEAR",
					"output":187
				},
				{
					"input":28,
					"interpolation":"STEP",
					"output":188
				},
				{
					"input":28,
					"interpolation":"LINEAR",
					"output":189
				},
				{
					"input":25,
					"interpolation":"LINEAR",
					"output":190
				},
				{
					"input":28,
					"interpolation":"STEP",
					"output":191
				},
				{
					"input":28,
					"interpolation":"LINEAR",
					"output":192
				},
				{
					"input":25,
					"interpolation":"LINEAR",
					"output":193
				},
				{
					"input":28,
					"interpolation":"STEP",
					"output":194
				},
				{
					"input":28,
					"interpolation":"LINEAR",
					"output":195
				},
				{
					"input":25,
					"interpolation":"LINEAR",
					"output":196
				},
				{
					"input":28,
					"interpolation":"STEP",
					"output":197
				},
				{
					"input":28,
					"interpolation":"LINEAR",
					"output":198
				},
				{
					"input":25,
					"interpolation":"LINEAR",
					"output":199
				},
				{
					"input":28,
					"interpolation":"STEP",
					"output":200
				},
				{
					"input":28,
					"interpolation":"LINEAR",
					"output":201
				},
				{
					"input":25,
					"interpolation":"LINEAR",
					"output":202
				},
				{
					"input":28,
					"interpolation":"STEP",
					"output":203
				},
				{
					"input":28,
					"interpolation":"LINEAR",
					"output":204
				},
				{
					"input":25,
					"interpolation":"LINEAR",
					"output":205
				},
				{
					"input":28,
					"interpolation":"STEP",
					"output":206
				},
				{
					"input":28,
					"interpolation":"LINEAR",
					"output":207
				},
				{
					"input":25,
					"interpolation":"LINEAR",
					"output":208
				},
				{
					"input":28,
					"interpolation":"STEP",
					"output":209
				},
				{
					"input":25,
					"interpolation":"LINEAR",
					"output":210
				},
				{
					"input":25,
					"interpolation":"LINEAR",
					"output":211
				}
			]
		}
	],
	"materials":[
		{
			"alphaMode":"MASK",
			"name":"material2",
			"pbrMetallicRoughness":{
				"baseColorTexture":{
					"index":0
				},
				"metallicFactor":0
			}
		},
		{
			"alphaMode":"MASK",
			"name":"material3",
			"pbrMetallicRoughness":{
				"baseColorTexture":{
					"index":1
				},
				"metallicFactor":0
			}
		},
		{
			"alphaMode":"MASK",
			"name":"material0",
			"pbrMetallicRoughness":{
				"baseColorTexture":{
					"index":2
				},
				"metallicFactor":0
			}
		},
		{
			"alphaMode":"MASK",
			"name":"material1",
			"pbrMetallicRoughness":{
				"baseColorTexture":{
					"index":3
				},
				"metallicFactor":0
			}
		}
	],
	"meshes":[
		{
			"name":"empire_angel",
			"primitives":[
				{
					"attributes":{
						"POSITION":0,
						"NORMAL":1,
						"TEXCOORD_0":2,
						"JOINTS_0":3,
						"WEIGHTS_0":4
					},
					"indices":5,
					"material":0
				}
			]
		},
		{
			"name":"empire_angel_cloth",
			"primitives":[
				{
					"attributes":{
						"POSITION":7,
						"NORMAL":8,
						"TEXCOORD_0":9,
						"JOINTS_0":10,
						"WEIGHTS_0":11
					},
					"indices":12,
					"material":1
				}
			]
		},
		{
			"name":"empire_angel_hairs",
			"primitives":[
				{
					"attributes":{
						"POSITION":13,
						"NORMAL":14,
						"TEXCOORD_0":15,
						"JOINTS_0":16,
						"WEIGHTS_0":17
					},
					"indices":18,
					"material":2
				}
			]
		},
		{
			"name":"empire_angel_wing",
			"primitives":[
				{
					"attributes":{
						"POSITION":19,
						"NORMAL":20,
						"TEXCOORD_0":21,
						"JOINTS_0":22,
						"WEIGHTS_0":23
					},
					"indices":24,
					"material":3
				}
			]
		}
	],
	"textures":[
		{
			"sampler":0,
			"source":0
		},
		{
			"sampler":0,
			"source":0
		},
		{
			"sampler":0,
			"source":1
		},
		{
			"sampler":0,
			"source":1
		}
	],
	"images":[
		{
			"mimeType":"image/png",
			"name":"character_empire_angel",
			"uri":"character_empire_angel.png"
		},
		{
			"mimeType":"image/png",
			"name":"character_empire_angel_hair",
			"uri":"character_empire_angel_hair.png"
		}
	],
	"skins":[
		{
			"inverseBindMatrices":6,
			"joints":[
				61,
				52,
				45,
				25,
				0,
				12,
				11,
				10,
				9,
				2,
				1,
				4,
				3,
				6,
				5,
				8,
				7,
				24,
				23,
				22,
				21,
				14,
				13,
				16,
				15,
				18,
				17,
				20,
				19,
				28,
				27,
				26,
				36,
				35,
				33,
				31,
				29,
				30,
				32,
				34,
				44,
				43,
				41,
				39,
				37,
				38,
				40,
				42,
				48,
				47,
				46,
				51,
				50,
				49,
				53,
				54,
				56,
				55,
				58,
				57,
				60,
				59
			],
			"name":"Bip01"
		}
	],
	"accessors":[
		{
			"bufferView":0,
			"componentType":5126,
			"count":4171,
			"max":[
				0.9082927107810974,
				1.9671342372894287,
				0.3099384307861328
			],
			"min":[
				-0.6924211382865906,
				-0.11175119131803513,
				-0.22687076032161713
			],
			"type":"VEC3"
		},
		{
			"bufferView":1,
			"componentType":5126,
			"count":4171,
			"type":"VEC3"
		},
		{
			"bufferView":2,
			"componentType":5126,
			"count":4171,
			"type":"VEC2"
		},
		{
			"bufferView":3,
			"componentType":5121,
			"count":4171,
			"type":"VEC4"
		},
		{
			"bufferView":4,
			"componentType":5126,
			"count":4171,
			"type":"VEC4"
		},
		{
			"bufferView":5,
			"componentType":5123,
			"count":15150,
			"type":"SCALAR"
		},
		{
			"bufferView":6,
			"componentType":5126,
			"count":62,
			"type":"MAT4"
		},
		{
			"bufferView":7,
			"componentType":5126,
			"count":265,
			"max":[
				0.5332610011100769,
				1.6607327461242676,
				0.4305592179298401
			],
			"min":[
				-0.1482800543308258,
				-0.0361468680202961,
				-0.1491633802652359
			],
			"type":"VEC3"
		},
		{
			"bufferView":8,
			"componentType":5126,
			"count":265,
			"type":"VEC3"
		},
		{
			"bufferView":9,
			"componentType":5126,
			"count":265,
			"type":"VEC2"
		},
		{
			"bufferView":10,
			"componentType":5121,
			"count":265,
			"type":"VEC4"
		},
		{
			"bufferView":11,
			"componentType":5126,
			"count":265,
			"type":"VEC4"
		},
		{
			"bufferView":12,
			"componentType":5123,
			"count":1242,
			"type":"SCALAR"
		},
		{
			"bufferView":13,
			"componentType":5126,
			"count":134,
			"max":[
				0.21412670612335205,
				1.8898918628692627,
				0.20665472745895386
			],
			"min":[
				-0.058247160166502,
				1.3749922513961792,
				-0.1705063432455063
			],
			"type":"VEC3"
		},
		{
			"bufferView":14,
			"componentType":5126,
			"count":134,
			"type":"VEC3"
		},
		{
			"bufferView":15,
			"componentType":5126,
			"count":134,
			"type":"VEC2"
		},
		{
			"bufferView":16,
			"componentType":5121,
			"count":134,
			"type":"VEC4"
		},
		{
			"bufferView":17,
			"componentType":5126,
			"count":134,
			"type":"VEC4"
		},
		{
			"bufferView":18,
			"componentType":5123,
			"count":510,
			"type":"SCALAR"
		},
		{
			"bufferView":19,
			"componentType":5126,
			"count":443,
			"max":[
				2.104487657546997,
				2.0356671810150146,
				0.5007930397987366
			],
			"min":[
				-1.9460885524749756,
				0.8525026440620422,
				-0.23746861517429352
			],
			"type":"VEC3"
		},
		{
			"bufferView":20,
			"componentType":5126,
			"count":443,
			"type":"VEC3"
		},
		{
			"bufferView":21,
			"componentType":5126,
			"count":443,
			"type":"VEC2"
		},
		{
			"bufferView":22,
			"componentType":5121,
			"count":443,
			"type":"VEC4"
		},
		{
			"bufferView":23,
			"componentType":5126,
			"count":443,
			"type":"VEC4"
		},
		{
			"bufferView":24,
			"componentType":5123,
			"count":1092,
			"type":"SCALAR"
		},
		{
			"bufferView":25,
			"componentType":5126,
			"count":210,
			"max":[
				8.708333333333334
			],
			"min":[
				0
			],
			"type":"SCALAR"
		},
		{
			"bufferView":26,
			"componentType":5126,
			"count":210,
			"type":"VEC3"
		},
		{
			"bufferView":27,
			"componentType":5126,
			"count":210,
			"type":"VEC4"
		},
		{
			"bufferView":28,
			"componentType":5126,
			"count":2,
			"max":[
				8.708333333333334
			],
			"min":[
				0
			],
			"type":"SCALAR"
		},
		{
			"bufferView":29,
			"componentType":5126,
			"count":2,
			"type":"VEC3"
		},
		{
			"bufferView":30,
			"componentType":5126,
			"count":210,
			"type":"VEC3"
		},
		{
			"bufferView":31,
			"componentType":5126,
			"count":210,
			"type":"VEC4"
		},
		{
			"bufferView":32,
			"componentType":5126,
			"count":2,
			"type":"VEC3"
		},
		{
			"bufferView":33,
			"componentType":5126,
			"count":210,
			"type":"VEC3"
		},
		{
			"bufferView":34,
			"componentType":5126,
			"count":210,
			"type":"VEC4"
		},
		{
			"bufferView":35,
			"componentType":5126,
			"count":2,
			"type":"VEC3"
		},
		{
			"bufferView":36,
			"componentType":5126,
			"count":2,
			"type":"VEC3"
		},
		{
			"bufferView":37,
			"componentType":5126,
			"count":210,
			"type":"VEC4"
		},
		{
			"bufferView":38,
			"componentType":5126,
			"count":2,
			"type":"VEC3"
		},
		{
			"bufferView":39,
			"componentType":5126,
			"count":2,
			"type":"VEC3"
		},
		{
			"bufferView":40,
			"componentType":5126,
			"count":210,
			"type":"VEC4"
		},
		{
			"bufferView":41,
			"componentType":5126,
			"count":2,
			"type":"VEC3"
		},
		{
			"bufferView":42,
			"componentType":5126,
			"count":210,
			"type":"VEC3"
		},
		{
			"bufferView":43,
			"componentType":5126,
			"count":210,
			"type":"VEC4"
		},
		{
			"bufferView":44,
			"componentType":5126,
			"count":2,
			"type":"VEC3"
		},
		{
			"bufferView":45,
			"componentType":5126,
			"count":2,
			"type":"VEC3"
		},
		{
			"bufferView":46,
			"componentType":5126,
			"count":210,
			"type":"VEC4"
		},
		{
			"bufferView":47,
			"componentType":5126,
			"count":2,
			"type":"VEC3"
		},
		{
			"bufferView":48,
			"componentType":5126,
			"count":2,
			"type":"VEC3"
		},
		{
			"bufferView":49,
			"componentType":5126,
			"count":210,
			"type":"VEC4"
		},
		{
			"bufferView":50,
			"componentType":5126,
			"count":2,
			"type":"VEC3"
		},
		{
			"bufferView":51,
			"componentType":5126,
			"count":2,
			"type":"VEC3"
		},
		{
			"bufferView":52,
			"componentType":5126,
			"count":210,
			"type":"VEC4"
		},
		{
			"bufferView":53,
			"componentType":5126,
			"count":2,
			"type":"VEC3"
		},
		{
			"bufferView":54,
			"componentType":5126,
			"count":2,
			"type":"VEC3"
		},
		{
			"bufferView":55,
			"componentType":5126,
			"count":210,
			"type":"VEC4"
		},
		{
			"bufferView":56,
			"componentType":5126,
			"count":2,
			"type":"VEC3"
		},
		{
			"bufferView":57,
			"componentType":5126,
			"count":210,
			"type":"VEC4"
		},
		{
			"bufferView":58,
			"componentType":5126,
			"count":2,
			"type":"VEC3"
		},
		{
			"bufferView":59,
			"componentType":5126,
			"count":2,
			"type":"VEC3"
		},
		{
			"bufferView":60,
			"componentType":5126,
			"count":210,
			"type":"VEC4"
		},
		{
			"bufferView":61,
			"componentType":5126,
			"count":2,
			"type":"VEC3"
		},
		{
			"bufferView":62,
			"componentType":5126,
			"count":2,
			"type":"VEC3"
		},
		{
			"bufferView":63,
			"componentType":5126,
			"count":210,
			"type":"VEC4"
		},
		{
			"bufferView":64,
			"componentType":5126,
			"count":2,
			"type":"VEC3"
		},
		{
			"bufferView":65,
			"componentType":5126,
			"count":2,
			"type":"VEC3"
		},
		{
			"bufferView":66,
			"componentType":5126,
			"count":210,
			"type":"VEC4"
		},
		{
			"bufferView":67,
			"componentType":5126,
			"count":2,
			"type":"VEC3"
		},
		{
			"bufferView":68,
			"componentType":5126,
			"count":2,
			"type":"VEC3"
		},
		{
			"bufferView":69,
			"componentType":5126,
			"count":210,
			"type":"VEC4"
		},
		{
			"bufferView":70,
			"componentType":5126,
			"count":2,
			"type":"VEC3"
		},
		{
			"bufferView":71,
			"componentType":5126,
			"count":2,
			"type":"VEC3"
		},
		{
			"bufferView":72,
			"componentType":5126,
			"count":210,
			"type":"VEC4"
		},
		{
			"bufferView":73,
			"componentType":5126,
			"count":2,
			"type":"VEC3"
		},
		{
			"bufferView":74,
			"componentType":5126,
			"count":2,
			"type":"VEC3"
		},
		{
			"bufferView":75,
			"componentType":5126,
			"count":210,
			"type":"VEC4"
		},
		{
			"bufferView":76,
			"componentType":5126,
			"count":2,
			"type":"VEC3"
		},
		{
			"bufferView":77,
			"componentType":5126,
			"count":210,
			"type":"VEC3"
		},
		{
			"bufferView":78,
			"componentType":5126,
			"count":210,
			"type":"VEC4"
		},
		{
			"bufferView":79,
			"componentType":5126,
			"count":2,
			"type":"VEC3"
		},
		{
			"bufferView":80,
			"componentType":5126,
			"count":2,
			"type":"VEC3"
		},
		{
			"bufferView":81,
			"componentType":5126,
			"count":210,
			"type":"VEC4"
		},
		{
			"bufferView":82,
			"componentType":5126,
			"count":2,
			"type":"VEC3"
		},
		{
			"bufferView":83,
			"componentType":5126,
			"count":2,
			"type":"VEC3"
		},
		{
			"bufferView":84,
			"componentType":5126,
			"count":210,
			"type":"VEC4"
		},
		{
			"bufferView":85,
			"componentType":5126,
			"count":2,
			"type":"VEC3"
		},
		{
			"bufferView":86,
			"componentType":5126,
			"count":2,
			"type":"VEC3"
		},
		{
			"bufferView":87,
			"componentType":5126,
			"count":210,
			"type":"VEC4"
		},
		{
			"bufferView":88,
			"componentType":5126,
			"count":2,
			"type":"VEC3"
		},
		{
			"bufferView":89,
			"componentType":5126,
			"count":2,
			"type":"VEC3"
		},
		{
			"bufferView":90,
			"componentType":5126,
			"count":210,
			"type":"VEC4"
		},
		{
			"bufferView":91,
			"componentType":5126,
			"count":2,
			"type":"VEC3"
		},
		{
			"bufferView":92,
			"componentType":5126,
			"count":2,
			"type":"VEC3"
		},
		{
			"bufferView":93,
			"componentType":5126,
			"count":2,
			"type":"VEC4"
		},
		{
			"bufferView":94,
			"componentType":5126,
			"count":2,
			"type":"VEC3"
		},
		{
			"bufferView":95,
			"componentType":5126,
			"count":2,
			"type":"VEC3"
		},
		{
			"bufferView":96,
			"componentType":5126,
			"count":210,
			"type":"VEC4"
		},
		{
			"bufferView":97,
			"componentType":5126,
			"count":2,
			"type":"VEC3"
		},
		{
			"bufferView":98,
			"componentType":5126,
			"count":2,
			"type":"VEC3"
		},
		{
			"bufferView":99,
			"componentType":5126,
			"count":210,
			"type":"VEC4"
		},
		{
			"bufferView":100,
			"componentType":5126,
			"count":2,
			"type":"VEC3"
		},
		{
			"bufferView":101,
			"componentType":5126,
			"count":2,
			"type":"VEC3"
		},
		{
			"bufferView":102,
			"componentType":5126,
			"count":210,
			"type":"VEC4"
		},
		{
			"bufferView":103,
			"componentType":5126,
			"count":2,
			"type":"VEC3"
		},
		{
			"bufferView":104,
			"componentType":5126,
			"count":2,
			"type":"VEC3"
		},
		{
			"bufferView":105,
			"componentType":5126,
			"count":210,
			"type":"VEC4"
		},
		{
			"bufferView":106,
			"componentType":5126,
			"count":2,
			"type":"VEC3"
		},
		{
			"bufferView":107,
			"componentType":5126,
			"count":2,
			"type":"VEC3"
		},
		{
			"bufferView":108,
			"componentType":5126,
			"count":210,
			"type":"VEC4"
		},
		{
			"bufferView":109,
			"componentType":5126,
			"count":2,
			"type":"VEC3"
		},
		{
			"bufferView":110,
			"componentType":5126,
			"count":2,
			"type":"VEC3"
		},
		{
			"bufferView":111,
			"componentType":5126,
			"count":210,
			"type":"VEC4"
		},
		{
			"bufferView":112,
			"componentType":5126,
			"count":2,
			"type":"VEC3"
		},
		{
			"bufferView":113,
			"componentType":5126,
			"count":2,
			"type":"VEC3"
		},
		{
			"bufferView":114,
			"componentType":5126,
			"count":210,
			"type":"VEC4"
		},
		{
			"bufferView":115,
			"componentType":5126,
			"count":2,
			"type":"VEC3"
		},
		{
			"bufferView":116,
			"componentType":5126,
			"count":2,
			"type":"VEC3"
		},
		{
			"bufferView":117,
			"componentType":5126,
			"count":210,
			"type":"VEC4"
		},
		{
			"bufferView":118,
			"componentType":5126,
			"count":2,
			"type":"VEC3"
		},
		{
			"bufferView":119,
			"componentType":5126,
			"count":2,
			"type":"VEC3"
		},
		{
			"bufferView":120,
			"componentType":5126,
			"count":210,
			"type":"VEC4"
		},
		{
			"bufferView":121,
			"componentType":5126,
			"count":2,
			"type":"VEC3"
		},
		{
			"bufferView":122,
			"componentType":5126,
			"count":2,
			"type":"VEC3"
		},
		{
			"bufferView":123,
			"componentType":5126,
			"count":2,
			"type":"VEC4"
		},
		{
			"bufferView":124,
			"componentType":5126,
			"count":2,
			"type":"VEC3"
		},
		{
			"bufferView":125,
			"componentType":5126,
			"count":2,
			"type":"VEC3"
		},
		{
			"bufferView":126,
			"componentType":5126,
			"count":210,
			"type":"VEC4"
		},
		{
			"bufferView":127,
			"componentType":5126,
			"count":2,
			"type":"VEC3"
		},
		{
			"bufferView":128,
			"componentType":5126,
			"count":2,
			"type":"VEC3"
		},
		{
			"bufferView":129,
			"componentType":5126,
			"count":210,
			"type":"VEC4"
		},
		{
			"bufferView":130,
			"componentType":5126,
			"count":2,
			"type":"VEC3"
		},
		{
			"bufferView":131,
			"componentType":5126,
			"count":2,
			"type":"VEC3"
		},
		{
			"bufferView":132,
			"componentType":5126,
			"count":210,
			"type":"VEC4"
		},
		{
			"bufferView":133,
			"componentType":5126,
			"count":2,
			"type":"VEC3"
		},
		{
			"bufferView":134,
			"componentType":5126,
			"count":2,
			"type":"VEC3"
		},
		{
			"bufferView":135,
			"componentType":5126,
			"count":210,
			"type":"VEC4"
		},
		{
			"bufferView":136,
			"componentType":5126,
			"count":2,
			"type":"VEC3"
		},
		{
			"bufferView":137,
			"componentType":5126,
			"count":2,
			"type":"VEC3"
		},
		{
			"bufferView":138,
			"componentType":5126,
			"count":210,
			"type":"VEC4"
		},
		{
			"bufferView":139,
			"componentType":5126,
			"count":2,
			"type":"VEC3"
		},
		{
			"bufferView":140,
			"componentType":5126,
			"count":2,
			"type":"VEC3"
		},
		{
			"bufferView":141,
			"componentType":5126,
			"count":210,
			"type":"VEC4"
		},
		{
			"bufferView":142,
			"componentType":5126,
			"count":2,
			"type":"VEC3"
		},
		{
			"bufferView":143,
			"componentType":5126,
			"count":2,
			"type":"VEC3"
		},
		{
			"bufferView":144,
			"componentType":5126,
			"count":210,
			"type":"VEC4"
		},
		{
			"bufferView":145,
			"componentType":5126,
			"count":2,
			"type":"VEC3"
		},
		{
			"bufferView":146,
			"componentType":5126,
			"count":2,
			"type":"VEC3"
		},
		{
			"bufferView":147,
			"componentType":5126,
			"count":2,
			"type":"VEC4"
		},
		{
			"bufferView":148,
			"componentType":5126,
			"count":2,
			"type":"VEC3"
		},
		{
			"bufferView":149,
			"componentType":5126,
			"count":2,
			"type":"VEC3"
		},
		{
			"bufferView":150,
			"componentType":5126,
			"count":210,
			"type":"VEC4"
		},
		{
			"bufferView":151,
			"componentType":5126,
			"count":2,
			"type":"VEC3"
		},
		{
			"bufferView":152,
			"componentType":5126,
			"count":210,
			"type":"VEC4"
		},
		{
			"bufferView":153,
			"componentType":5126,
			"count":2,
			"type":"VEC3"
		},
		{
			"bufferView":154,
			"componentType":5126,
			"count":2,
			"type":"VEC3"
		},
		{
			"bufferView":155,
			"componentType":5126,
			"count":210,
			"type":"VEC4"
		},
		{
			"bufferView":156,
			"componentType":5126,
			"count":2,
			"type":"VEC3"
		},
		{
			"bufferView":157,
			"componentType":5126,
			"count":2,
			"type":"VEC3"
		},
		{
			"bufferView":158,
			"componentType":5126,
			"count":210,
			"type":"VEC4"
		},
		{
			"bufferView":159,
			"componentType":5126,
			"count":2,
			"type":"VEC3"
		},
		{
			"bufferView":160,
			"componentType":5126,
			"count":2,
			"type":"VEC3"
		},
		{
			"bufferView":161,
			"componentType":5126,
			"count":210,
			"type":"VEC4"
		},
		{
			"bufferView":162,
			"componentType":5126,
			"count":2,
			"type":"VEC3"
		},
		{
			"bufferView":163,
			"componentType":5126,
			"count":2,
			"type":"VEC3"
		},
		{
			"bufferView":164,
			"componentType":5126,
			"count":210,
			"type":"VEC4"
		},
		{
			"bufferView":165,
			"componentType":5126,
			"count":2,
			"type":"VEC3"
		},
		{
			"bufferView":166,
			"componentType":5126,
			"count":2,
			"type":"VEC3"
		},
		{
			"bufferView":167,
			"componentType":5126,
			"count":210,
			"type":"VEC4"
		},
		{
			"bufferView":168,
			"componentType":5126,
			"count":2,
			"type":"VEC3"
		},
		{
			"bufferView":169,
			"componentType":5126,
			"count":210,
			"type":"VEC3"
		},
		{
			"bufferView":170,
			"componentType":5126,
			"count":210,
			"type":"VEC4"
		},
		{
			"bufferView":171,
			"componentType":5126,
			"count":2,
			"type":"VEC3"
		},
		{
			"bufferView":172,
			"componentType":5126,
			"count":2,
			"type":"VEC3"
		},
		{
			"bufferView":173,
			"componentType":5126,
			"count":210,
			"type":"VEC4"
		},
		{
			"bufferView":174,
			"componentType":5126,
			"count":2,
			"type":"VEC3"
		},
		{
			"bufferView":175,
			"componentType":5126,
			"count":2,
			"type":"VEC3"
		},
		{
			"bufferView":176,
			"componentType":5126,
			"count":210,
			"type":"VEC4"
		},
		{
			"bufferView":177,
			"componentType":5126,
			"count":2,
			"type":"VEC3"
		},
		{
			"bufferView":178,
			"componentType":5126,
			"count":210,
			"type":"VEC3"
		},
		{
			"bufferView":179,
			"componentType":5126,
			"count":210,
			"type":"VEC4"
		},
		{
			"bufferView":180,
			"componentType":5126,
			"count":2,
			"type":"VEC3"
		},
		{
			"bufferView":181,
			"componentType":5126,
			"count":2,
			"type":"VEC3"
		},
		{
			"bufferView":182,
			"componentType":5126,
			"count":210,
			"type":"VEC4"
		},
		{
			"bufferView":183,
			"componentType":5126,
			"count":2,
			"type":"VEC3"
		},
		{
			"bufferView":184,
			"componentType":5126,
			"count":2,
			"type":"VEC3"
		},
		{
			"bufferView":185,
			"componentType":5126,
			"count":210,
			"type":"VEC4"
		},
		{
			"bufferView":186,
			"componentType":5126,
			"count":2,
			"type":"VEC3"
		},
		{
			"bufferView":187,
			"componentType":5126,
			"count":210,
			"type":"VEC4"
		},
		{
			"bufferView":188,
			"componentType":5126,
			"count":2,
			"type":"VEC3"
		},
		{
			"bufferView":189,
			"componentType":5126,
			"count":2,
			"type":"VEC3"
		},
		{
			"bufferView":190,
			"componentType":5126,
			"count":210,
			"type":"VEC4"
		},
		{
			"bufferView":191,
			"componentType":5126,
			"count":2,
			"type":"VEC3"
		},
		{
			"bufferView":192,
			"componentType":5126,
			"count":2,
			"type":"VEC3"
		},
		{
			"bufferView":193,
			"componentType":5126,
			"count":210,
			"type":"VEC4"
		},
		{
			"bufferView":194,
			"componentType":5126,
			"count":2,
			"type":"VEC3"
		},
		{
			"bufferView":195,
			"componentType":5126,
			"count":2,
			"type":"VEC3"
		},
		{
			"bufferView":196,
			"componentType":5126,
			"count":210,
			"type":"VEC4"
		},
		{
			"bufferView":197,
			"componentType":5126,
			"count":2,
			"type":"VEC3"
		},
		{
			"bufferView":198,
			"componentType":5126,
			"count":2,
			"type":"VEC3"
		},
		{
			"bufferView":199,
			"componentType":5126,
			"count":210,
			"type":"VEC4"
		},
		{
			"bufferView":200,
			"componentType":5126,
			"count":2,
			"type":"VEC3"
		},
		{
			"bufferView":201,
			"componentType":5126,
			"count":2,
			"type":"VEC3"
		},
		{
			"bufferView":202,
			"componentType":5126,
			"count":210,
			"type":"VEC4"
		},
		{
			"bufferView":203,
			"componentType":5126,
			"count":2,
			"type":"VEC3"
		},
		{
			"bufferView":204,
			"componentType":5126,
			"count":2,
			"type":"VEC3"
		},
		{
			"bufferView":205,
			"componentType":5126,
			"count":210,
			"type":"VEC4"
		},
		{
			"bufferView":206,
			"componentType":5126,
			"count":2,
			"type":"VEC3"
		},
		{
			"bufferView":207,
			"componentType":5126,
			"count":2,
			"type":"VEC3"
		},
		{
			"bufferView":208,
			"componentType":5126,
			"count":210,
			"type":"VEC4"
		},
		{
			"bufferView":209,
			"componentType":5126,
			"count":2,
			"type":"VEC3"
		},
		{
			"bufferView":210,
			"componentType":5126,
			"count":210,
			"type":"VEC4"
		},
		{
			"bufferView":211,
			"componentType":5126,
			"count":210,
			"type":"VEC3"
		}
	],
	"bufferViews":[
		{
			"buffer":0,
			"byteLength":50052,
			"byteOffset":0,
			"target":34962
		},
		{
			"buffer":0,
			"byteLength":50052,
			"byteOffset":50052,
			"target":34962
		},
		{
			"buffer":0,
			"byteLength":33368,
			"byteOffset":100104,
			"target":34962
		},
		{
			"buffer":0,
			"byteLength":16684,
			"byteOffset":133472,
			"target":34962
		},
		{
			"buffer":0,
			"byteLength":66736,
			"byteOffset":150156,
			"target":34962
		},
		{
			"buffer":0,
			"byteLength":30300,
			"byteOffset":216892,
			"target":34963
		},
		{
			"buffer":0,
			"byteLength":3968,
			"byteOffset":247192
		},
		{
			"buffer":0,
			"byteLength":3180,
			"byteOffset":251160,
			"target":34962
		},
		{
			"buffer":0,
			"byteLength":3180,
			"byteOffset":254340,
			"target":34962
		},
		{
			"buffer":0,
			"byteLength":2120,
			"byteOffset":257520,
			"target":34962
		},
		{
			"buffer":0,
			"byteLength":1060,
			"byteOffset":259640,
			"target":34962
		},
		{
			"buffer":0,
			"byteLength":4240,
			"byteOffset":260700,
			"target":34962
		},
		{
			"buffer":0,
			"byteLength":2484,
			"byteOffset":264940,
			"target":34963
		},
		{
			"buffer":0,
			"byteLength":1608,
			"byteOffset":267424,
			"target":34962
		},
		{
			"buffer":0,
			"byteLength":1608,
			"byteOffset":269032,
			"target":34962
		},
		{
			"buffer":0,
			"byteLength":1072,
			"byteOffset":270640,
			"target":34962
		},
		{
			"buffer":0,
			"byteLength":536,
			"byteOffset":271712,
			"target":34962
		},
		{
			"buffer":0,
			"byteLength":2144,
			"byteOffset":272248,
			"target":34962
		},
		{
			"buffer":0,
			"byteLength":1020,
			"byteOffset":274392,
			"target":34963
		},
		{
			"buffer":0,
			"byteLength":5316,
			"byteOffset":275412,
			"target":34962
		},
		{
			"buffer":0,
			"byteLength":5316,
			"byteOffset":280728,
			"target":34962
		},
		{
			"buffer":0,
			"byteLength":3544,
			"byteOffset":286044,
			"target":34962
		},
		{
			"buffer":0,
			"byteLength":1772,
			"byteOffset":289588,
			"target":34962
		},
		{
			"buffer":0,
			"byteLength":7088,
			"byteOffset":291360,
			"target":34962
		},
		{
			"buffer":0,
			"byteLength":2184,
			"byteOffset":298448,
			"target":34963
		},
		{
			"buffer":0,
			"byteLength":840,
			"byteOffset":300632
		},
		{
			"buffer":0,
			"byteLength":2520,
			"byteOffset":301472
		},
		{
			"buffer":0,
			"byteLength":3360,
			"byteOffset":303992
		},
		{
			"buffer":0,
			"byteLength":8,
			"byteOffset":307352
		},
		{
			"buffer":0,
			"byteLength":24,
			"byteOffset":307360
		},
		{
			"buffer":0,
			"byteLength":2520,
			"byteOffset":307384
		},
		{
			"buffer":0,
			"byteLength":3360,
			"byteOffset":309904
		},
		{
			"buffer":0,
			"byteLength":24,
			"byteOffset":313264
		},
		{
			"buffer":0,
			"byteLength":2520,
			"byteOffset":313288
		},
		{
			"buffer":0,
			"byteLength":3360,
			"byteOffset":315808
		},
		{
			"buffer":0,
			"byteLength":24,
			"byteOffset":319168
		},
		{
			"buffer":0,
			"byteLength":24,
			"byteOffset":319192
		},
		{
			"buffer":0,
			"byteLength":3360,
			"byteOffset":319216
		},
		{
			"buffer":0,
			"byteLength":24,
			"byteOffset":322576
		},
		{
			"buffer":0,
			"byteLength":24,
			"byteOffset":322600
		},
		{
			"buffer":0,
			"byteLength":3360,
			"byteOffset":322624
		},
		{
			"buffer":0,
			"byteLength":24,
			"byteOffset":325984
		},
		{
			"buffer":0,
			"byteLength":2520,
			"byteOffset":326008
		},
		{
			"buffer":0,
			"byteLength":3360,
			"byteOffset":328528
		},
		{
			"buffer":0,
			"byteLength":24,
			"byteOffset":331888
		},
		{
			"buffer":0,
			"byteLength":24,
			"byteOffset":331912
		},
		{
			"buffer":0,
			"byteLength":3360,
			"byteOffset":331936
		},
		{
			"buffer":0,
			"byteLength":24,
			"byteOffset":335296
		},
		{
			"buffer":0,
			"byteLength":24,
			"byteOffset":335320
		},
		{
			"buffer":0,
			"byteLength":3360,
			"byteOffset":335344
		},
		{
			"buffer":0,
			"byteLength":24,
			"byteOffset":338704
		},
		{
			"buffer":0,
			"byteLength":24,
			"byteOffset":338728
		},
		{
			"buffer":0,
			"byteLength":3360,
			"byteOffset":338752
		},
		{
			"buffer":0,
			"byteLength":24,
			"byteOffset":342112
		},
		{
			"buffer":0,
			"byteLength":24,
			"byteOffset":342136
		},
		{
			"buffer":0,
			"byteLength":3360,
			"byteOffset":342160
		},
		{
			"buffer":0,
			"byteLength":24,
			"byteOffset":345520
		},
		{
			"buffer":0,
			"byteLength":3360,
			"byteOffset":345544
		},
		{
			"buffer":0,
			"byteLength":24,
			"byteOffset":348904
		},
		{
			"buffer":0,
			"byteLength":24,
			"byteOffset":348928
		},
		{
			"buffer":0,
			"byteLength":3360,
			"byteOffset":348952
		},
		{
			"buffer":0,
			"byteLength":24,
			"byteOffset":352312
		},
		{
			"buffer":0,
			"byteLength":24,
			"byteOffset":352336
		},
		{
			"buffer":0,
			"byteLength":3360,
			"byteOffset":352360
		},
		{
			"buffer":0,
			"byteLength":24,
			"byteOffset":355720
		},
		{
			"buffer":0,
			"byteLength":24,
			"byteOffset":355744
		},
		{
			"buffer":0,
			"byteLength":3360,
			"byteOffset":355768
		},
		{
			"buffer":0,
			"byteLength":24,
			"byteOffset":359128
		},
		{
			"buffer":0,
			"byteLength":24,
			"byteOffset":359152
		},
		{
			"buffer":0,
			"byteLength":3360,
			"byteOffset":359176
		},
		{
			"buffer":0,
			"byteLength":24,
			"byteOffset":362536
		},
		{
			"buffer":0,
			"byteLength":24,
			"byteOffset":362560
		},
		{
			"buffer":0,
			"byteLength":3360,
			"byteOffset":362584
		},
		{
			"buffer":0,
			"byteLength":24,
			"byteOffset":365944
		},
		{
			"buffer":0,
			"byteLength":24,
			"byteOffset":365968
		},
		{
			"buffer":0,
			"byteLength":3360,
			"byteOffset":365992
		},
		{
			"buffer":0,
			"byteLength":24,
			"byteOffset":369352
		},
		{
			"buffer":0,
			"byteLength":2520,
			"byteOffset":369376
		},
		{
			"buffer":0,
			"byteLength":3360,
			"byteOffset":371896
		},
		{
			"buffer":0,
			"byteLength":24,
			"byteOffset":375256
		},
		{
			"buffer":0,
			"byteLength":24,
			"byteOffset":375280
		},
		{
			"buffer":0,
			"byteLength":3360,
			"byteOffset":375304
		},
		{
			"buffer":0,
			"byteLength":24,
			"byteOffset":378664
		},
		{
			"buffer":0,
			"byteLength":24,
			"byteOffset":378688
		},
		{
			"buffer":0,
			"byteLength":3360,
			"byteOffset":378712
		},
		{
			"buffer":0,
			"byteLength":24,
			"byteOffset":382072
		},
		{
			"buffer":0,
			"byteLength":24,
			"byteOffset":382096
		},
		{
			"buffer":0,
			"byteLength":3360,
			"byteOffset":382120
		},
		{
			"buffer":0,
			"byteLength":24,
			"byteOffset":385480
		},
		{
			"buffer":0,
			"byteLength":24,
			"byteOffset":385504
		},
		{
			"buffer":0,
			"byteLength":3360,
			"byteOffset":385528
		},
		{
			"buffer":0,
			"byteLength":24,
			"byteOffset":388888
		},
		{
			"buffer":0,
			"byteLength":24,
			"byteOffset":388912
		},
		{
			"buffer":0,
			"byteLength":32,
			"byteOffset":388936
		},
		{
			"buffer":0,
			"byteLength":24,
			"byteOffset":388968
		},
		{
			"buffer":0,
			"byteLength":24,
			"byteOffset":388992
		},
		{
			"buffer":0,
			"byteLength":3360,
			"byteOffset":389016
		},
		{
			"buffer":0,
			"byteLength":24,
			"byteOffset":392376
		},
		{
			"buffer":0,
			"byteLength":24,
			"byteOffset":392400
		},
		{
			"buffer":0,
			"byteLength":3360,
			"byteOffset":392424
		},
		{
			"buffer":0,
			"byteLength":24,
			"byteOffset":395784
		},
		{
			"buffer":0,
			"byteLength":24,
			"byteOffset":395808
		},
		{
			"buffer":0,
			"byteLength":3360,
			"byteOffset":395832
		},
		{
			"buffer":0,
			"byteLength":24,
			"byteOffset":399192
		},
		{
			"buffer":0,
			"byteLength":24,
			"byteOffset":399216
		},
		{
			"buffer":0,
			"byteLength":3360,
			"byteOffset":399240
		},
		{
			"buffer":0,
			"byteLength":24,
			"byteOffset":402600
		},
		{
			"buffer":0,
			"byteLength":24,
			"byteOffset":402624
		},
		{
			"buffer":0,
			"byteLength":3360,
			"byteOffset":402648
		},
		{
			"buffer":0,
			"byteLength":24,
			"byteOffset":406008
		},
		{
			"buffer":0,
			"byteLength":24,
			"byteOffset":406032
		},
		{
			"buffer":0,
			"byteLength":3360,
			"byteOffset":406056
		},
		{
			"buffer":0,
			"byteLength":24,
			"byteOffset":409416
		},
		{
			"buffer":0,
			"byteLength":24,
			"byteOffset":409440
		},
		{
			"buffer":0,
			"byteLength":3360,
			"byteOffset":409464
		},
		{
			"buffer":0,
			"byteLength":24,
			"byteOffset":412824
		},
		{
			"buffer":0,
			"byteLength":24,
			"byteOffset":412848
		},
		{
			"buffer":0,
			"byteLength":3360,
			"byteOffset":412872
		},
		{
			"buffer":0,
			"byteLength":24,
			"byteOffset":416232
		},
		{
			"buffer":0,
			"byteLength":24,
			"byteOffset":416256
		},
		{
			"buffer":0,
			"byteLength":3360,
			"byteOffset":416280
		},
		{
			"buffer":0,
			"byteLength":24,
			"byteOffset":419640
		},
		{
			"buffer":0,
			"byteLength":24,
			"byteOffset":419664
		},
		{
			"buffer":0,
			"byteLength":32,
			"byteOffset":419688
		},
		{
			"buffer":0,
			"byteLength":24,
			"byteOffset":419720
		},
		{
			"buffer":0,
			"byteLength":24,
			"byteOffset":419744
		},
		{
			"buffer":0,
			"byteLength":3360,
			"byteOffset":419768
		},
		{
			"buffer":0,
			"byteLength":24,
			"byteOffset":423128
		},
		{
			"buffer":0,
			"byteLength":24,
			"byteOffset":423152
		},
		{
			"buffer":0,
			"byteLength":3360,
			"byteOffset":423176
		},
		{
			"buffer":0,
			"byteLength":24,
			"byteOffset":426536
		},
		{
			"buffer":0,
			"byteLength":24,
			"byteOffset":426560
		},
		{
			"buffer":0,
			"byteLength":3360,
			"byteOffset":426584
		},
		{
			"buffer":0,
			"byteLength":24,
			"byteOffset":429944
		},
		{
			"buffer":0,
			"byteLength":24,
			"byteOffset":429968
		},
		{
			"buffer":0,
			"byteLength":3360,
			"byteOffset":429992
		},
		{
			"buffer":0,
			"byteLength":24,
			"byteOffset":433352
		},
		{
			"buffer":0,
			"byteLength":24,
			"byteOffset":433376
		},
		{
			"buffer":0,
			"byteLength":3360,
			"byteOffset":433400
		},
		{
			"buffer":0,
			"byteLength":24,
			"byteOffset":436760
		},
		{
			"buffer":0,
			"byteLength":24,
			"byteOffset":436784
		},
		{
			"buffer":0,
			"byteLength":3360,
			"byteOffset":436808
		},
		{
			"buffer":0,
			"byteLength":24,
			"byteOffset":440168
		},
		{
			"buffer":0,
			"byteLength":24,
			"byteOffset":440192
		},
		{
			"buffer":0,
			"byteLength":3360,
			"byteOffset":440216
		},
		{
			"buffer":0,
			"byteLength":24,
			"byteOffset":443576
		},
		{
			"buffer":0,
			"byteLength":24,
			"byteOffset":443600
		},
		{
			"buffer":0,
			"byteLength":32,
			"byteOffset":443624
		},
		{
			"buffer":0,
			"byteLength":24,
			"byteOffset":443656
		},
		{
			"buffer":0,
			"byteLength":24,
			"byteOffset":443680
		},
		{
			"buffer":0,
			"byteLength":3360,
			"byteOffset":443704
		},
		{
			"buffer":0,
			"byteLength":24,
			"byteOffset":447064
		},
		{
			"buffer":0,
			"byteLength":3360,
			"byteOffset":447088
		},
		{
			"buffer":0,
			"byteLength":24,
			"byteOffset":450448
		},
		{
			"buffer":0,
			"byteLength":24,
			"byteOffset":450472
		},
		{
			"buffer":0,
			"byteLength":3360,
			"byteOffset":450496
		},
		{
			"buffer":0,
			"byteLength":24,
			"byteOffset":453856
		},
		{
			"buffer":0,
			"byteLength":24,
			"byteOffset":453880
		},
		{
			"buffer":0,
			"byteLength":3360,
			"byteOffset":453904
		},
		{
			"buffer":0,
			"byteLength":24,
			"byteOffset":457264
		},
		{
			"buffer":0,
			"byteLength":24,
			"byteOffset":457288
		},
		{
			"buffer":0,
			"byteLength":3360,
			"byteOffset":457312
		},
		{
			"buffer":0,
			"byteLength":24,
			"byteOffset":460672
		},
		{
			"buffer":0,
			"byteLength":24,
			"byteOffset":460696
		},
		{
			"buffer":0,
			"byteLength":3360,
			"byteOffset":460720
		},
		{
			"buffer":0,
			"byteLength":24,
			"byteOffset":464080
		},
		{
			"buffer":0,
			"byteLength":24,
			"byteOffset":464104
		},
		{
			"buffer":0,
			"byteLength":3360,
			"byteOffset":464128
		},
		{
			"buffer":0,
			"byteLength":24,
			"byteOffset":467488
		},
		{
			"buffer":0,
			"byteLength":2520,
			"byteOffset":467512
		},
		{
			"buffer":0,
			"byteLength":3360,
			"byteOffset":470032
		},
		{
			"buffer":0,
			"byteLength":24,
			"byteOffset":473392
		},
		{
			"buffer":0,
			"byteLength":24,
			"byteOffset":473416
		},
		{
			"buffer":0,
			"byteLength":3360,
			"byteOffset":473440
		},
		{
			"buffer":0,
			"byteLength":24,
			"byteOffset":476800
		},
		{
			"buffer":0,
			"byteLength":24,
			"byteOffset":476824
		},
		{
			"buffer":0,
			"byteLength":3360,
			"byteOffset":476848
		},
		{
			"buffer":0,
			"byteLength":24,
			"byteOffset":480208
		},
		{
			"buffer":0,
			"byteLength":2520,
			"byteOffset":480232
		},
		{
			"buffer":0,
			"byteLength":3360,
			"byteOffset":482752
		},
		{
			"buffer":0,
			"byteLength":24,
			"byteOffset":486112
		},
		{
			"buffer":0,
			"byteLength":24,
			"byteOffset":486136
		},
		{
			"buffer":0,
			"byteLength":3360,
			"byteOffset":486160
		},
		{
			"buffer":0,
			"byteLength":24,
			"byteOffset":489520
		},
		{
			"buffer":0,
			"byteLength":24,
			"byteOffset":489544
		},
		{
			"buffer":0,
			"byteLength":3360,
			"byteOffset":489568
		},
		{
			"buffer":0,
			"byteLength":24,
			"byteOffset":492928
		},
		{
			"buffer":0,
			"byteLength":3360,
			"byteOffset":492952
		},
		{
			"buffer":0,
			"byteLength":24,
			"byteOffset":496312
		},
		{
			"buffer":0,
			"byteLength":24,
			"byteOffset":496336
		},
		{
			"buffer":0,
			"byteLength":3360,
			"byteOffset":496360
		},
		{
			"buffer":0,
			"byteLength":24,
			"byteOffset":499720
		},
		{
			"buffer":0,
			"byteLength":24,
			"byteOffset":499744
		},
		{
			"buffer":0,
			"byteLength":3360,
			"byteOffset":499768
		},
		{
			"buffer":0,
			"byteLength":24,
			"byteOffset":503128
		},
		{
			"buffer":0,
			"byteLength":24,
			"byteOffset":503152
		},
		{
			"buffer":0,
			"byteLength":3360,
			"byteOffset":503176
		},
		{
			"buffer":0,
			"byteLength":24,
			"byteOffset":506536
		},
		{
			"buffer":0,
			"byteLength":24,
			"byteOffset":506560
		},
		{
			"buffer":0,
			"byteLength":3360,
			"byteOffset":506584
		},
		{
			"buffer":0,
			"byteLength":24,
			"byteOffset":509944
		},
		{
			"buffer":0,
			"byteLength":24,
			"byteOffset":509968
		},
		{
			"buffer":0,
			"byteLength":3360,
			"byteOffset":509992
		},
		{
			"buffer":0,
			"byteLength":24,
			"byteOffset":513352
		},
		{
			"buffer":0,
			"byteLength":24,
			"byteOffset":513376
		},
		{
			"buffer":0,
			"byteLength":3360,
			"byteOffset":513400
		},
		{
			"buffer":0,
			"byteLength":24,
			"byteOffset":516760
		},
		{
			"buffer":0,
			"byteLength":24,
			"byteOffset":516784
		},
		{
			"buffer":0,
			"byteLength":3360,
			"byteOffset":516808
		},
		{
			"buffer":0,
			"byteLength":24,
			"byteOffset":520168
		},
		{
			"buffer":0,
			"byteLength":3360,
			"byteOffset":520192
		},
		{
			"buffer":0,
			"byteLength":2520,
			"byteOffset":523552
		}
	],
	"samplers":[
		{
			"magFilter":9729,
			"minFilter":9987
		}
	],
	"buffers":[
		{
			"byteLength":526072,
			"uri":"character_empire_angel.bin"
		}
	]
}
