{
  "asset": {
    "version": "2.0",
    "generator": "generated with dis3tool v1.1 by root.ext@gmail.com"
  },
  "scenes": [
    {
      "nodes": [
        0,
        1,
        2,
        3,
        4,
        5,
        56
      ]
    }
  ],
  "scene": 0,
  "nodes": [
    {
      "name": "character_neutrals_cyclops_alpha",
      "mesh": 0,
      "skin": 0
    },
    {
      "name": "character_neutrals_cyclops",
      "mesh": 1,
      "skin": 1
    },
    {
      "name": "character_neutrals_cyclops_armor",
      "mesh": 2,
      "skin": 2
    },
    {
      "name": "character_neutrals_cyclops_alpha_2",
      "mesh": 3,
      "skin": 3
    },
    {
      "name": "cyclops_weapon.max",
      "mesh": 4,
      "skin": 4
    },
    {
      "name": "reference",
      "rotation": [
        -2.16489E-17,
        -2.16489E-17,
        0.707106769,
        0.707106769
      ],
      "translation": [
        0.0,
        0.0,
        0.0
      ],
      "children": [
        6
      ]
    },
    {
      "name": "Hips",
      "rotation": [
        0.9924084,
        -0.0180140212,
        -0.0988900661,
        -0.0708643
      ],
      "translation": [
        1.352463,
        -0.07471153,
        -0.0361564346
      ],
      "children": [
        7,
        46,
        51
      ]
    },
    {
      "name": "Spine",
      "rotation": [
        0.00356298941,
        0.06524812,
        -0.0212913472,
        0.997635543
      ],
      "translation": [
        0.1860576,
        -9.31487E-06,
        2.26865518E-06
      ],
      "children": [
        8
      ]
    },
    {
      "name": "Spine1",
      "rotation": [
        0.008871938,
        0.137458622,
        0.0046722414,
        0.99045676
      ],
      "translation": [
        0.403445244,
        2.52455443E-08,
        6.64418742E-09
      ],
      "children": [
        9,
        11,
        28
      ]
    },
    {
      "name": "Neck",
      "rotation": [
        -0.13892208,
        -0.403695017,
        -0.002232343,
        0.9042821
      ],
      "translation": [
        0.6759636,
        8.71275745E-08,
        -8.44655546E-09
      ],
      "children": [
        10
      ]
    },
    {
      "name": "Head",
      "rotation": [
        0.06635288,
        0.0042234147,
        -0.0189230479,
        0.9976078
      ],
      "translation": [
        0.247912169,
        -1.35699267E-07,
        -1.20744275E-07
      ]
    },
    {
      "name": "LeftShoulder",
      "rotation": [
        0.4814682,
        0.835149348,
        0.0130901039,
        0.2655987
      ],
      "translation": [
        0.639071167,
        0.185859978,
        -0.006320934
      ],
      "children": [
        12,
        27
      ]
    },
    {
      "name": "LeftArm",
      "rotation": [
        -0.166008145,
        0.06163582,
        -0.357158184,
        0.9171044
      ],
      "translation": [
        0.520835161,
        -2.698874E-07,
        -2.29255932E-07
      ],
      "children": [
        13
      ]
    },
    {
      "name": "LeftArmRoll",
      "rotation": [
        -0.05724794,
        -2.81931136E-08,
        1.53318922E-07,
        0.9983601
      ],
      "translation": [
        0.2905334,
        -1.61744936E-07,
        7.827292E-08
      ],
      "children": [
        14
      ]
    },
    {
      "name": "LeftForeArm",
      "rotation": [
        -0.168385178,
        0.222373515,
        0.06791318,
        0.957906365
      ],
      "translation": [
        0.290533572,
        4.51401831E-07,
        7.10049164E-07
      ],
      "children": [
        15
      ]
    },
    {
      "name": "LeftForeArmRoll",
      "rotation": [
        -0.0556597449,
        7.842985E-08,
        1.96252643E-07,
        0.9984499
      ],
      "translation": [
        0.297829419,
        3.10262124E-07,
        -4.267802E-08
      ],
      "children": [
        16
      ]
    },
    {
      "name": "LeftHand",
      "rotation": [
        -0.538124859,
        -0.0833885744,
        -0.0463048927,
        0.83745116
      ],
      "translation": [
        0.297829539,
        -1.1568917E-06,
        3.120253E-07
      ],
      "children": [
        17,
        19,
        21,
        23,
        25
      ]
    },
    {
      "name": "LeftHandPinky1",
      "rotation": [
        0.0482597649,
        0.557826161,
        -0.07276568,
        0.8253527
      ],
      "translation": [
        0.2735811,
        -0.207090452,
        -0.00168946944
      ],
      "children": [
        18
      ]
    },
    {
      "name": "LeftHandPinky2",
      "rotation": [
        -0.00142865814,
        0.629719257,
        -0.0171814859,
        0.77663213
      ],
      "translation": [
        0.163562447,
        -1.34375341E-07,
        2.24617253E-07
      ]
    },
    {
      "name": "LeftHandMiddle1",
      "rotation": [
        -3.363101E-07,
        0.3867531,
        -1.61169942E-06,
        0.922183752
      ],
      "translation": [
        0.3383798,
        0.00239790813,
        0.05387822
      ],
      "children": [
        20
      ]
    },
    {
      "name": "LeftHandMiddle2",
      "rotation": [
        2.23945E-06,
        0.465654939,
        -4.444825E-07,
        0.8849668
      ],
      "translation": [
        0.194983378,
        3.160967E-08,
        4.86937552E-07
      ]
    },
    {
      "name": "LeftHandThumb1",
      "rotation": [
        -0.6477302,
        -0.102739535,
        0.287014872,
        0.698221862
      ],
      "translation": [
        0.1147825,
        0.194860265,
        -0.05434216
      ],
      "children": [
        22
      ]
    },
    {
      "name": "LeftHandThumb2",
      "rotation": [
        -0.00113627838,
        0.366059482,
        -0.0132116815,
        0.9304975
      ],
      "translation": [
        0.27482006,
        -2.07915446E-06,
        -4.84226746E-07
      ]
    },
    {
      "name": "LeftHandIndex1",
      "rotation": [
        -0.00770725263,
        0.177461952,
        0.04334536,
        0.9831428
      ],
      "translation": [
        0.35262835,
        0.127919078,
        0.0507426932
      ],
      "children": [
        24
      ]
    },
    {
      "name": "LeftHandIndex2",
      "rotation": [
        0.0003681667,
        0.388241529,
        0.00463768,
        0.921546042
      ],
      "translation": [
        0.164537087,
        2.99080369E-08,
        7.028942E-07
      ]
    },
    {
      "name": "LeftHandRing1",
      "rotation": [
        0.0207257029,
        0.480685622,
        -0.0391830765,
        0.875772357
      ],
      "translation": [
        0.3127186,
        -0.104354054,
        0.027390644
      ],
      "children": [
        26
      ]
    },
    {
      "name": "LeftHandRing2",
      "rotation": [
        -0.0006668369,
        0.555644631,
        -0.007443465,
        0.8313867
      ],
      "translation": [
        0.167745471,
        -3.1609698E-08,
        6.16763657E-07
      ]
    },
    {
      "name": "LeftShoulder_1",
      "rotation": [
        0.000468050333,
        0.237776279,
        -0.573990464,
        0.7835799
      ],
      "translation": [
        0.4109672,
        -0.0261722747,
        0.249997422
      ]
    },
    {
      "name": "RightShoulder",
      "rotation": [
        -0.47746554,
        0.8493858,
        -0.06657612,
        0.214798033
      ],
      "translation": [
        0.6390562,
        -0.185966834,
        -0.006383159
      ],
      "children": [
        29,
        45
      ]
    },
    {
      "name": "RightArm",
      "rotation": [
        0.146184921,
        0.0790544152,
        0.342280239,
        0.9247837
      ],
      "translation": [
        0.520834863,
        1.5827564E-07,
        -2.05302641E-07
      ],
      "children": [
        30,
        44
      ]
    },
    {
      "name": "RightArmRoll",
      "rotation": [
        -0.008398351,
        1.23998961E-05,
        2.78379866E-05,
        0.9999649
      ],
      "translation": [
        0.290533483,
        2.385968E-07,
        1.27429118E-07
      ],
      "children": [
        31
      ]
    },
    {
      "name": "RightForeArm",
      "rotation": [
        0.173863679,
        0.215568587,
        -0.06772237,
        0.95849663
      ],
      "translation": [
        0.290533781,
        -5.96613063E-07,
        7.841579E-07
      ],
      "children": [
        32
      ]
    },
    {
      "name": "RightForeArmRoll",
      "rotation": [
        0.076112844,
        6.8502377E-06,
        1.873164E-05,
        0.9970994
      ],
      "translation": [
        0.297829717,
        -3.256629E-07,
        2.03258779E-07
      ],
      "children": [
        33
      ]
    },
    {
      "name": "RightHand",
      "rotation": [
        0.537223339,
        -0.08324726,
        0.0622937232,
        0.8370071
      ],
      "translation": [
        0.297830015,
        1.24536689E-06,
        4.164255E-07
      ],
      "children": [
        34,
        36,
        38,
        40,
        42
      ]
    },
    {
      "name": "RightHandPinky1",
      "rotation": [
        -0.05248686,
        0.6243932,
        0.07006845,
        0.7761889
      ],
      "translation": [
        0.2735808,
        0.207090348,
        -0.00168869609
      ],
      "children": [
        35
      ]
    },
    {
      "name": "RightHandPinky2",
      "rotation": [
        0.00160755264,
        0.6918099,
        0.019046871,
        0.721827
      ],
      "translation": [
        0.163562343,
        2.57864485E-07,
        5.426122E-07
      ]
    },
    {
      "name": "RightHandMiddle1",
      "rotation": [
        2.405434E-07,
        0.386753,
        1.6219044E-06,
        0.9221836
      ],
      "translation": [
        0.3383794,
        -0.00239802315,
        0.0538789481
      ],
      "children": [
        37
      ]
    },
    {
      "name": "RightHandMiddle2",
      "rotation": [
        -2.638412E-06,
        0.4656549,
        5.21303036E-07,
        0.8849667
      ],
      "translation": [
        0.19498305,
        2.11559623E-07,
        6.229854E-07
      ]
    },
    {
      "name": "RightHandThumb1",
      "rotation": [
        0.6477222,
        -0.102740072,
        -0.28701207,
        0.698229849
      ],
      "translation": [
        0.114782639,
        -0.194860116,
        -0.0543420725
      ],
      "children": [
        39
      ]
    },
    {
      "name": "RightHandThumb2",
      "rotation": [
        0.00117243384,
        0.366061836,
        0.0131531013,
        0.9304971
      ],
      "translation": [
        0.274819255,
        1.9975364E-06,
        -3.65283654E-07
      ]
    },
    {
      "name": "RightHandIndex1",
      "rotation": [
        0.00770717626,
        0.177462,
        -0.04334699,
        0.9831426
      ],
      "translation": [
        0.352627754,
        -0.127919465,
        0.05074323
      ],
      "children": [
        41
      ]
    },
    {
      "name": "RightHandIndex2",
      "rotation": [
        -0.00032851068,
        0.388241321,
        -0.0046840366,
        0.921546161
      ],
      "translation": [
        0.164537236,
        4.18990638E-08,
        4.50199735E-07
      ]
    },
    {
      "name": "RightHandRing1",
      "rotation": [
        -0.0207265969,
        0.480685681,
        0.03918797,
        0.875772
      ],
      "translation": [
        0.3127182,
        0.104354024,
        0.0273906868
      ],
      "children": [
        43
      ]
    },
    {
      "name": "RightHandRing2",
      "rotation": [
        0.0006394383,
        0.555645645,
        0.00740152225,
        0.831386447
      ],
      "translation": [
        0.167745754,
        7.38288151E-08,
        1.0577304E-06
      ]
    },
    {
      "name": "RightArm_Armor",
      "rotation": [
        -0.0381723866,
        0.0363686979,
        0.0152234007,
        0.9984932
      ],
      "translation": [
        -0.121485479,
        -0.2150193,
        -0.0302530676
      ]
    },
    {
      "name": "RightShoulder_1",
      "rotation": [
        0.0278430544,
        0.2241674,
        0.5773436,
        0.7846327
      ],
      "translation": [
        0.41096735,
        0.0261722337,
        0.249997467
      ]
    },
    {
      "name": "LeftUpLeg",
      "rotation": [
        0.08478071,
        0.0176863931,
        0.99142,
        0.0979078859
      ],
      "translation": [
        0.000456962676,
        0.255283177,
        0.00340311928
      ],
      "children": [
        47
      ]
    },
    {
      "name": "LeftUpLegRoll",
      "rotation": [
        0.0165247489,
        -8.928118E-09,
        4.6944193E-10,
        0.999863565
      ],
      "translation": [
        0.3069305,
        2.849707E-08,
        1.5200234E-08
      ],
      "children": [
        48
      ]
    },
    {
      "name": "LeftLeg",
      "rotation": [
        0.0207532756,
        0.205979556,
        -0.00429824,
        0.978326857
      ],
      "translation": [
        0.306929976,
        -3.93433083E-07,
        -8.294814E-08
      ],
      "children": [
        49
      ]
    },
    {
      "name": "LeftLegRoll",
      "rotation": [
        0.08489863,
        -1.15129171E-06,
        -7.995679E-06,
        0.9963897
      ],
      "translation": [
        0.273233056,
        9.609515E-08,
        6.36794155E-08
      ],
      "children": [
        50
      ]
    },
    {
      "name": "LeftFoot",
      "rotation": [
        0.106234066,
        -0.649539769,
        0.0666987151,
        0.7499092
      ],
      "translation": [
        0.2732329,
        -7.406928E-06,
        -5.13480045E-05
      ]
    },
    {
      "name": "RightUpLeg",
      "rotation": [
        0.2081253,
        -0.100337148,
        0.9718118,
        -0.04688544
      ],
      "translation": [
        0.0004212684,
        -0.255284369,
        0.00332145719
      ],
      "children": [
        52
      ]
    },
    {
      "name": "RightUpLegRoll",
      "rotation": [
        0.0155743761,
        3.36893757E-09,
        4.92649477E-09,
        0.9998788
      ],
      "translation": [
        0.306930572,
        -1.43105922E-07,
        -3.91721251E-08
      ],
      "children": [
        53
      ]
    },
    {
      "name": "RightLeg",
      "rotation": [
        -0.0250407252,
        0.214409918,
        0.005464793,
        0.9764076
      ],
      "translation": [
        0.3069299,
        3.274087E-07,
        -9.630579E-08
      ],
      "children": [
        54
      ]
    },
    {
      "name": "RightLegRoll",
      "rotation": [
        -0.102041982,
        -1.36711594E-06,
        9.583526E-06,
        0.994780242
      ],
      "translation": [
        0.2732331,
        1.44115457E-08,
        -3.66219162E-08
      ],
      "children": [
        55
      ]
    },
    {
      "name": "RightFoot",
      "rotation": [
        0.0888526738,
        -0.5776143,
        -0.107965194,
        0.804245234
      ],
      "translation": [
        0.273233,
        7.36743277E-06,
        -5.13897467E-05
      ]
    },
    {
      "name": "weapon1",
      "rotation": [
        1.48398949E-05,
        -2.76546245E-07,
        -0.02882996,
        0.9995843
      ],
      "translation": [
        0.0198178161,
        -7.318441,
        -1.49724793
      ]
    }
  ],
  "accessors": [
    {
      "bufferView": 0,
      "byteOffset": 0,
      "componentType": 5125,
      "count": 1962,
      "type": "SCALAR"
    },
    {
      "bufferView": 1,
      "byteOffset": 0,
      "componentType": 5126,
      "count": 682,
      "type": "VEC3",
      "min": [
        -1.654498,
        0.7099608,
        -0.6698098
      ],
      "max": [
        1.65449762,
        3.0057044,
        0.5201581
      ]
    },
    {
      "bufferView": 1,
      "byteOffset": 12,
      "componentType": 5126,
      "count": 682,
      "type": "VEC3"
    },
    {
      "bufferView": 1,
      "byteOffset": 24,
      "componentType": 5126,
      "count": 682,
      "type": "VEC2"
    },
    {
      "bufferView": 1,
      "byteOffset": 32,
      "componentType": 5126,
      "count": 682,
      "type": "VEC4"
    },
    {
      "bufferView": 1,
      "byteOffset": 48,
      "componentType": 5121,
      "count": 682,
      "type": "VEC4"
    },
    {
      "bufferView": 2,
      "byteOffset": 0,
      "componentType": 5126,
      "count": 24,
      "type": "MAT4"
    },
    {
      "bufferView": 3,
      "byteOffset": 0,
      "componentType": 5125,
      "count": 7572,
      "type": "SCALAR"
    },
    {
      "bufferView": 4,
      "byteOffset": 0,
      "componentType": 5126,
      "count": 1874,
      "type": "VEC3",
      "min": [
        -1.7004236,
        -0.002120167,
        -0.690512836
      ],
      "max": [
        1.7004236,
        3.16743565,
        0.530328035
      ]
    },
    {
      "bufferView": 4,
      "byteOffset": 12,
      "componentType": 5126,
      "count": 1874,
      "type": "VEC3"
    },
    {
      "bufferView": 4,
      "byteOffset": 24,
      "componentType": 5126,
      "count": 1874,
      "type": "VEC2"
    },
    {
      "bufferView": 4,
      "byteOffset": 32,
      "componentType": 5126,
      "count": 1874,
      "type": "VEC4"
    },
    {
      "bufferView": 4,
      "byteOffset": 48,
      "componentType": 5121,
      "count": 1874,
      "type": "VEC4"
    },
    {
      "bufferView": 5,
      "byteOffset": 0,
      "componentType": 5126,
      "count": 49,
      "type": "MAT4"
    },
    {
      "bufferView": 6,
      "byteOffset": 0,
      "componentType": 5125,
      "count": 3588,
      "type": "SCALAR"
    },
    {
      "bufferView": 7,
      "byteOffset": 0,
      "componentType": 5126,
      "count": 928,
      "type": "VEC3",
      "min": [
        -1.24056709,
        0.0291592274,
        -0.5591939
      ],
      "max": [
        0.5699139,
        2.89552236,
        0.575063646
      ]
    },
    {
      "bufferView": 7,
      "byteOffset": 12,
      "componentType": 5126,
      "count": 928,
      "type": "VEC3"
    },
    {
      "bufferView": 7,
      "byteOffset": 24,
      "componentType": 5126,
      "count": 928,
      "type": "VEC2"
    },
    {
      "bufferView": 7,
      "byteOffset": 32,
      "componentType": 5126,
      "count": 928,
      "type": "VEC4"
    },
    {
      "bufferView": 7,
      "byteOffset": 48,
      "componentType": 5121,
      "count": 928,
      "type": "VEC4"
    },
    {
      "bufferView": 8,
      "byteOffset": 0,
      "componentType": 5126,
      "count": 4,
      "type": "MAT4"
    },
    {
      "bufferView": 9,
      "byteOffset": 0,
      "componentType": 5125,
      "count": 144,
      "type": "SCALAR"
    },
    {
      "bufferView": 10,
      "byteOffset": 0,
      "componentType": 5126,
      "count": 96,
      "type": "VEC3",
      "min": [
        -0.620017052,
        2.00071478,
        0.394512117
      ],
      "max": [
        0.620016932,
        2.45243716,
        0.606085837
      ]
    },
    {
      "bufferView": 10,
      "byteOffset": 12,
      "componentType": 5126,
      "count": 96,
      "type": "VEC3"
    },
    {
      "bufferView": 10,
      "byteOffset": 24,
      "componentType": 5126,
      "count": 96,
      "type": "VEC2"
    },
    {
      "bufferView": 10,
      "byteOffset": 32,
      "componentType": 5126,
      "count": 96,
      "type": "VEC4"
    },
    {
      "bufferView": 10,
      "byteOffset": 48,
      "componentType": 5121,
      "count": 96,
      "type": "VEC4"
    },
    {
      "bufferView": 11,
      "byteOffset": 0,
      "componentType": 5126,
      "count": 6,
      "type": "MAT4"
    },
    {
      "bufferView": 12,
      "byteOffset": 0,
      "componentType": 5125,
      "count": 240,
      "type": "SCALAR"
    },
    {
      "bufferView": 13,
      "byteOffset": 0,
      "componentType": 5126,
      "count": 60,
      "type": "VEC3",
      "min": [
        -0.94661504,
        -0.749302566,
        -0.6876197
      ],
      "max": [
        0.94661504,
        0.749302566,
        0.687620163
      ]
    },
    {
      "bufferView": 13,
      "byteOffset": 12,
      "componentType": 5126,
      "count": 60,
      "type": "VEC3"
    },
    {
      "bufferView": 13,
      "byteOffset": 24,
      "componentType": 5126,
      "count": 60,
      "type": "VEC2"
    },
    {
      "bufferView": 13,
      "byteOffset": 32,
      "componentType": 5126,
      "count": 60,
      "type": "VEC4"
    },
    {
      "bufferView": 13,
      "byteOffset": 48,
      "componentType": 5121,
      "count": 60,
      "type": "VEC4"
    },
    {
      "bufferView": 14,
      "byteOffset": 0,
      "componentType": 5126,
      "count": 1,
      "type": "MAT4"
    },
    {
      "bufferView": 15,
      "byteOffset": 0,
      "componentType": 5126,
      "count": 493,
      "type": "SCALAR",
      "min": [
        0.0
      ],
      "max": [
        16.4000015
      ]
    },
    {
      "bufferView": 16,
      "byteOffset": 0,
      "componentType": 5126,
      "count": 493,
      "type": "VEC4"
    },
    {
      "bufferView": 17,
      "byteOffset": 0,
      "componentType": 5126,
      "count": 493,
      "type": "VEC3"
    },
    {
      "bufferView": 16,
      "byteOffset": 7888,
      "componentType": 5126,
      "count": 493,
      "type": "VEC4"
    },
    {
      "bufferView": 17,
      "byteOffset": 5916,
      "componentType": 5126,
      "count": 493,
      "type": "VEC3"
    },
    {
      "bufferView": 16,
      "byteOffset": 15776,
      "componentType": 5126,
      "count": 493,
      "type": "VEC4"
    },
    {
      "bufferView": 17,
      "byteOffset": 11832,
      "componentType": 5126,
      "count": 493,
      "type": "VEC3"
    },
    {
      "bufferView": 16,
      "byteOffset": 23664,
      "componentType": 5126,
      "count": 493,
      "type": "VEC4"
    },
    {
      "bufferView": 17,
      "byteOffset": 17748,
      "componentType": 5126,
      "count": 493,
      "type": "VEC3"
    },
    {
      "bufferView": 16,
      "byteOffset": 31552,
      "componentType": 5126,
      "count": 493,
      "type": "VEC4"
    },
    {
      "bufferView": 17,
      "byteOffset": 23664,
      "componentType": 5126,
      "count": 493,
      "type": "VEC3"
    },
    {
      "bufferView": 16,
      "byteOffset": 39440,
      "componentType": 5126,
      "count": 493,
      "type": "VEC4"
    },
    {
      "bufferView": 17,
      "byteOffset": 29580,
      "componentType": 5126,
      "count": 493,
      "type": "VEC3"
    },
    {
      "bufferView": 16,
      "byteOffset": 47328,
      "componentType": 5126,
      "count": 493,
      "type": "VEC4"
    },
    {
      "bufferView": 17,
      "byteOffset": 35496,
      "componentType": 5126,
      "count": 493,
      "type": "VEC3"
    },
    {
      "bufferView": 16,
      "byteOffset": 55216,
      "componentType": 5126,
      "count": 493,
      "type": "VEC4"
    },
    {
      "bufferView": 17,
      "byteOffset": 41412,
      "componentType": 5126,
      "count": 493,
      "type": "VEC3"
    },
    {
      "bufferView": 16,
      "byteOffset": 63104,
      "componentType": 5126,
      "count": 493,
      "type": "VEC4"
    },
    {
      "bufferView": 17,
      "byteOffset": 47328,
      "componentType": 5126,
      "count": 493,
      "type": "VEC3"
    },
    {
      "bufferView": 16,
      "byteOffset": 70992,
      "componentType": 5126,
      "count": 493,
      "type": "VEC4"
    },
    {
      "bufferView": 17,
      "byteOffset": 53244,
      "componentType": 5126,
      "count": 493,
      "type": "VEC3"
    },
    {
      "bufferView": 16,
      "byteOffset": 78880,
      "componentType": 5126,
      "count": 493,
      "type": "VEC4"
    },
    {
      "bufferView": 17,
      "byteOffset": 59160,
      "componentType": 5126,
      "count": 493,
      "type": "VEC3"
    },
    {
      "bufferView": 16,
      "byteOffset": 86768,
      "componentType": 5126,
      "count": 493,
      "type": "VEC4"
    },
    {
      "bufferView": 17,
      "byteOffset": 65076,
      "componentType": 5126,
      "count": 493,
      "type": "VEC3"
    },
    {
      "bufferView": 16,
      "byteOffset": 94656,
      "componentType": 5126,
      "count": 493,
      "type": "VEC4"
    },
    {
      "bufferView": 17,
      "byteOffset": 70992,
      "componentType": 5126,
      "count": 493,
      "type": "VEC3"
    },
    {
      "bufferView": 16,
      "byteOffset": 102544,
      "componentType": 5126,
      "count": 493,
      "type": "VEC4"
    },
    {
      "bufferView": 17,
      "byteOffset": 76908,
      "componentType": 5126,
      "count": 493,
      "type": "VEC3"
    },
    {
      "bufferView": 16,
      "byteOffset": 110432,
      "componentType": 5126,
      "count": 493,
      "type": "VEC4"
    },
    {
      "bufferView": 17,
      "byteOffset": 82824,
      "componentType": 5126,
      "count": 493,
      "type": "VEC3"
    },
    {
      "bufferView": 16,
      "byteOffset": 118320,
      "componentType": 5126,
      "count": 493,
      "type": "VEC4"
    },
    {
      "bufferView": 17,
      "byteOffset": 88740,
      "componentType": 5126,
      "count": 493,
      "type": "VEC3"
    },
    {
      "bufferView": 16,
      "byteOffset": 126208,
      "componentType": 5126,
      "count": 493,
      "type": "VEC4"
    },
    {
      "bufferView": 17,
      "byteOffset": 94656,
      "componentType": 5126,
      "count": 493,
      "type": "VEC3"
    },
    {
      "bufferView": 16,
      "byteOffset": 134096,
      "componentType": 5126,
      "count": 493,
      "type": "VEC4"
    },
    {
      "bufferView": 17,
      "byteOffset": 100572,
      "componentType": 5126,
      "count": 493,
      "type": "VEC3"
    },
    {
      "bufferView": 16,
      "byteOffset": 141984,
      "componentType": 5126,
      "count": 493,
      "type": "VEC4"
    },
    {
      "bufferView": 17,
      "byteOffset": 106488,
      "componentType": 5126,
      "count": 493,
      "type": "VEC3"
    },
    {
      "bufferView": 16,
      "byteOffset": 149872,
      "componentType": 5126,
      "count": 493,
      "type": "VEC4"
    },
    {
      "bufferView": 17,
      "byteOffset": 112404,
      "componentType": 5126,
      "count": 493,
      "type": "VEC3"
    },
    {
      "bufferView": 16,
      "byteOffset": 157760,
      "componentType": 5126,
      "count": 493,
      "type": "VEC4"
    },
    {
      "bufferView": 17,
      "byteOffset": 118320,
      "componentType": 5126,
      "count": 493,
      "type": "VEC3"
    },
    {
      "bufferView": 16,
      "byteOffset": 165648,
      "componentType": 5126,
      "count": 493,
      "type": "VEC4"
    },
    {
      "bufferView": 17,
      "byteOffset": 124236,
      "componentType": 5126,
      "count": 493,
      "type": "VEC3"
    },
    {
      "bufferView": 16,
      "byteOffset": 173536,
      "componentType": 5126,
      "count": 493,
      "type": "VEC4"
    },
    {
      "bufferView": 17,
      "byteOffset": 130152,
      "componentType": 5126,
      "count": 493,
      "type": "VEC3"
    },
    {
      "bufferView": 16,
      "byteOffset": 181424,
      "componentType": 5126,
      "count": 493,
      "type": "VEC4"
    },
    {
      "bufferView": 17,
      "byteOffset": 136068,
      "componentType": 5126,
      "count": 493,
      "type": "VEC3"
    },
    {
      "bufferView": 16,
      "byteOffset": 189312,
      "componentType": 5126,
      "count": 493,
      "type": "VEC4"
    },
    {
      "bufferView": 17,
      "byteOffset": 141984,
      "componentType": 5126,
      "count": 493,
      "type": "VEC3"
    },
    {
      "bufferView": 16,
      "byteOffset": 197200,
      "componentType": 5126,
      "count": 493,
      "type": "VEC4"
    },
    {
      "bufferView": 17,
      "byteOffset": 147900,
      "componentType": 5126,
      "count": 493,
      "type": "VEC3"
    },
    {
      "bufferView": 16,
      "byteOffset": 205088,
      "componentType": 5126,
      "count": 493,
      "type": "VEC4"
    },
    {
      "bufferView": 17,
      "byteOffset": 153816,
      "componentType": 5126,
      "count": 493,
      "type": "VEC3"
    },
    {
      "bufferView": 16,
      "byteOffset": 212976,
      "componentType": 5126,
      "count": 493,
      "type": "VEC4"
    },
    {
      "bufferView": 17,
      "byteOffset": 159732,
      "componentType": 5126,
      "count": 493,
      "type": "VEC3"
    },
    {
      "bufferView": 16,
      "byteOffset": 220864,
      "componentType": 5126,
      "count": 493,
      "type": "VEC4"
    },
    {
      "bufferView": 17,
      "byteOffset": 165648,
      "componentType": 5126,
      "count": 493,
      "type": "VEC3"
    },
    {
      "bufferView": 16,
      "byteOffset": 228752,
      "componentType": 5126,
      "count": 493,
      "type": "VEC4"
    },
    {
      "bufferView": 17,
      "byteOffset": 171564,
      "componentType": 5126,
      "count": 493,
      "type": "VEC3"
    },
    {
      "bufferView": 16,
      "byteOffset": 236640,
      "componentType": 5126,
      "count": 493,
      "type": "VEC4"
    },
    {
      "bufferView": 17,
      "byteOffset": 177480,
      "componentType": 5126,
      "count": 493,
      "type": "VEC3"
    },
    {
      "bufferView": 16,
      "byteOffset": 244528,
      "componentType": 5126,
      "count": 493,
      "type": "VEC4"
    },
    {
      "bufferView": 17,
      "byteOffset": 183396,
      "componentType": 5126,
      "count": 493,
      "type": "VEC3"
    },
    {
      "bufferView": 16,
      "byteOffset": 252416,
      "componentType": 5126,
      "count": 493,
      "type": "VEC4"
    },
    {
      "bufferView": 17,
      "byteOffset": 189312,
      "componentType": 5126,
      "count": 493,
      "type": "VEC3"
    },
    {
      "bufferView": 16,
      "byteOffset": 260304,
      "componentType": 5126,
      "count": 493,
      "type": "VEC4"
    },
    {
      "bufferView": 17,
      "byteOffset": 195228,
      "componentType": 5126,
      "count": 493,
      "type": "VEC3"
    },
    {
      "bufferView": 16,
      "byteOffset": 268192,
      "componentType": 5126,
      "count": 493,
      "type": "VEC4"
    },
    {
      "bufferView": 17,
      "byteOffset": 201144,
      "componentType": 5126,
      "count": 493,
      "type": "VEC3"
    },
    {
      "bufferView": 16,
      "byteOffset": 276080,
      "componentType": 5126,
      "count": 493,
      "type": "VEC4"
    },
    {
      "bufferView": 17,
      "byteOffset": 207060,
      "componentType": 5126,
      "count": 493,
      "type": "VEC3"
    },
    {
      "bufferView": 16,
      "byteOffset": 283968,
      "componentType": 5126,
      "count": 493,
      "type": "VEC4"
    },
    {
      "bufferView": 17,
      "byteOffset": 212976,
      "componentType": 5126,
      "count": 493,
      "type": "VEC3"
    },
    {
      "bufferView": 16,
      "byteOffset": 291856,
      "componentType": 5126,
      "count": 493,
      "type": "VEC4"
    },
    {
      "bufferView": 17,
      "byteOffset": 218892,
      "componentType": 5126,
      "count": 493,
      "type": "VEC3"
    },
    {
      "bufferView": 16,
      "byteOffset": 299744,
      "componentType": 5126,
      "count": 493,
      "type": "VEC4"
    },
    {
      "bufferView": 17,
      "byteOffset": 224808,
      "componentType": 5126,
      "count": 493,
      "type": "VEC3"
    },
    {
      "bufferView": 16,
      "byteOffset": 307632,
      "componentType": 5126,
      "count": 493,
      "type": "VEC4"
    },
    {
      "bufferView": 17,
      "byteOffset": 230724,
      "componentType": 5126,
      "count": 493,
      "type": "VEC3"
    },
    {
      "bufferView": 16,
      "byteOffset": 315520,
      "componentType": 5126,
      "count": 493,
      "type": "VEC4"
    },
    {
      "bufferView": 17,
      "byteOffset": 236640,
      "componentType": 5126,
      "count": 493,
      "type": "VEC3"
    },
    {
      "bufferView": 16,
      "byteOffset": 323408,
      "componentType": 5126,
      "count": 493,
      "type": "VEC4"
    },
    {
      "bufferView": 17,
      "byteOffset": 242556,
      "componentType": 5126,
      "count": 493,
      "type": "VEC3"
    },
    {
      "bufferView": 16,
      "byteOffset": 331296,
      "componentType": 5126,
      "count": 493,
      "type": "VEC4"
    },
    {
      "bufferView": 17,
      "byteOffset": 248472,
      "componentType": 5126,
      "count": 493,
      "type": "VEC3"
    },
    {
      "bufferView": 16,
      "byteOffset": 339184,
      "componentType": 5126,
      "count": 493,
      "type": "VEC4"
    },
    {
      "bufferView": 17,
      "byteOffset": 254388,
      "componentType": 5126,
      "count": 493,
      "type": "VEC3"
    },
    {
      "bufferView": 16,
      "byteOffset": 347072,
      "componentType": 5126,
      "count": 493,
      "type": "VEC4"
    },
    {
      "bufferView": 17,
      "byteOffset": 260304,
      "componentType": 5126,
      "count": 493,
      "type": "VEC3"
    },
    {
      "bufferView": 16,
      "byteOffset": 354960,
      "componentType": 5126,
      "count": 493,
      "type": "VEC4"
    },
    {
      "bufferView": 17,
      "byteOffset": 266220,
      "componentType": 5126,
      "count": 493,
      "type": "VEC3"
    },
    {
      "bufferView": 16,
      "byteOffset": 362848,
      "componentType": 5126,
      "count": 493,
      "type": "VEC4"
    },
    {
      "bufferView": 17,
      "byteOffset": 272136,
      "componentType": 5126,
      "count": 493,
      "type": "VEC3"
    },
    {
      "bufferView": 16,
      "byteOffset": 370736,
      "componentType": 5126,
      "count": 493,
      "type": "VEC4"
    },
    {
      "bufferView": 17,
      "byteOffset": 278052,
      "componentType": 5126,
      "count": 493,
      "type": "VEC3"
    },
    {
      "bufferView": 16,
      "byteOffset": 378624,
      "componentType": 5126,
      "count": 493,
      "type": "VEC4"
    },
    {
      "bufferView": 17,
      "byteOffset": 283968,
      "componentType": 5126,
      "count": 493,
      "type": "VEC3"
    },
    {
      "bufferView": 16,
      "byteOffset": 386512,
      "componentType": 5126,
      "count": 493,
      "type": "VEC4"
    },
    {
      "bufferView": 17,
      "byteOffset": 289884,
      "componentType": 5126,
      "count": 493,
      "type": "VEC3"
    },
    {
      "bufferView": 16,
      "byteOffset": 394400,
      "componentType": 5126,
      "count": 493,
      "type": "VEC4"
    },
    {
      "bufferView": 17,
      "byteOffset": 295800,
      "componentType": 5126,
      "count": 493,
      "type": "VEC3"
    },
    {
      "bufferView": 16,
      "byteOffset": 402288,
      "componentType": 5126,
      "count": 493,
      "type": "VEC4"
    },
    {
      "bufferView": 17,
      "byteOffset": 301716,
      "componentType": 5126,
      "count": 493,
      "type": "VEC3"
    }
  ],
  "skins": [
    {
      "name": "skin0",
      "inverseBindMatrices": 6,
      "joints": [
        6,
        51,
        7,
        8,
        28,
        11,
        46,
        12,
        13,
        14,
        15,
        16,
        23,
        19,
        25,
        10,
        9,
        29,
        31,
        32,
        33,
        40,
        36,
        42
      ]
    },
    {
      "name": "skin1",
      "inverseBindMatrices": 13,
      "joints": [
        8,
        6,
        7,
        11,
        46,
        13,
        14,
        15,
        12,
        28,
        9,
        47,
        51,
        16,
        48,
        49,
        27,
        45,
        50,
        21,
        22,
        23,
        17,
        25,
        26,
        19,
        18,
        20,
        24,
        30,
        31,
        32,
        33,
        29,
        52,
        53,
        54,
        55,
        38,
        39,
        36,
        40,
        34,
        42,
        43,
        35,
        37,
        41,
        10
      ]
    },
    {
      "name": "skin2",
      "inverseBindMatrices": 20,
      "joints": [
        55,
        44,
        8,
        6
      ]
    },
    {
      "name": "skin3",
      "inverseBindMatrices": 27,
      "joints": [
        11,
        8,
        27,
        7,
        28,
        45
      ]
    },
    {
      "name": "skin4",
      "inverseBindMatrices": 34,
      "joints": [
        56
      ]
    }
  ],
  "meshes": [
    {
      "name": "character_neutrals_cyclops_alpha",
      "primitives": [
        {
          "attributes": {
            "POSITION": 1,
            "NORMAL": 2,
            "TEXCOORD_0": 3,
            "WEIGHTS_0": 4,
            "JOINTS_0": 5
          },
          "indices": 0,
          "mode": 4,
          "material": 0
        }
      ]
    },
    {
      "name": "character_neutrals_cyclops",
      "primitives": [
        {
          "attributes": {
            "POSITION": 8,
            "NORMAL": 9,
            "TEXCOORD_0": 10,
            "WEIGHTS_0": 11,
            "JOINTS_0": 12
          },
          "indices": 7,
          "mode": 4,
          "material": 1
        }
      ]
    },
    {
      "name": "character_neutrals_cyclops_armor",
      "primitives": [
        {
          "attributes": {
            "POSITION": 15,
            "NORMAL": 16,
            "TEXCOORD_0": 17,
            "WEIGHTS_0": 18,
            "JOINTS_0": 19
          },
          "indices": 14,
          "mode": 4,
          "material": 2
        }
      ]
    },
    {
      "name": "character_neutrals_cyclops_alpha_2",
      "primitives": [
        {
          "attributes": {
            "POSITION": 22,
            "NORMAL": 23,
            "TEXCOORD_0": 24,
            "WEIGHTS_0": 25,
            "JOINTS_0": 26
          },
          "indices": 21,
          "mode": 4,
          "material": 3
        }
      ]
    },
    {
      "name": "cyclops_weapon.max",
      "primitives": [
        {
          "attributes": {
            "POSITION": 29,
            "NORMAL": 30,
            "TEXCOORD_0": 31,
            "WEIGHTS_0": 32,
            "JOINTS_0": 33
          },
          "indices": 28,
          "mode": 4,
          "material": 4
        }
      ]
    }
  ],
  "animations": [
    {
      "channels": [
        {
          "sampler": 0,
          "target": {
            "node": 5,
            "path": "rotation"
          }
        },
        {
          "sampler": 1,
          "target": {
            "node": 5,
            "path": "translation"
          }
        },
        {
          "sampler": 2,
          "target": {
            "node": 6,
            "path": "rotation"
          }
        },
        {
          "sampler": 3,
          "target": {
            "node": 6,
            "path": "translation"
          }
        },
        {
          "sampler": 4,
          "target": {
            "node": 7,
            "path": "rotation"
          }
        },
        {
          "sampler": 5,
          "target": {
            "node": 7,
            "path": "translation"
          }
        },
        {
          "sampler": 6,
          "target": {
            "node": 8,
            "path": "rotation"
          }
        },
        {
          "sampler": 7,
          "target": {
            "node": 8,
            "path": "translation"
          }
        },
        {
          "sampler": 8,
          "target": {
            "node": 9,
            "path": "rotation"
          }
        },
        {
          "sampler": 9,
          "target": {
            "node": 9,
            "path": "translation"
          }
        },
        {
          "sampler": 10,
          "target": {
            "node": 10,
            "path": "rotation"
          }
        },
        {
          "sampler": 11,
          "target": {
            "node": 10,
            "path": "translation"
          }
        },
        {
          "sampler": 12,
          "target": {
            "node": 11,
            "path": "rotation"
          }
        },
        {
          "sampler": 13,
          "target": {
            "node": 11,
            "path": "translation"
          }
        },
        {
          "sampler": 14,
          "target": {
            "node": 12,
            "path": "rotation"
          }
        },
        {
          "sampler": 15,
          "target": {
            "node": 12,
            "path": "translation"
          }
        },
        {
          "sampler": 16,
          "target": {
            "node": 13,
            "path": "rotation"
          }
        },
        {
          "sampler": 17,
          "target": {
            "node": 13,
            "path": "translation"
          }
        },
        {
          "sampler": 18,
          "target": {
            "node": 14,
            "path": "rotation"
          }
        },
        {
          "sampler": 19,
          "target": {
            "node": 14,
            "path": "translation"
          }
        },
        {
          "sampler": 20,
          "target": {
            "node": 15,
            "path": "rotation"
          }
        },
        {
          "sampler": 21,
          "target": {
            "node": 15,
            "path": "translation"
          }
        },
        {
          "sampler": 22,
          "target": {
            "node": 16,
            "path": "rotation"
          }
        },
        {
          "sampler": 23,
          "target": {
            "node": 16,
            "path": "translation"
          }
        },
        {
          "sampler": 24,
          "target": {
            "node": 17,
            "path": "rotation"
          }
        },
        {
          "sampler": 25,
          "target": {
            "node": 17,
            "path": "translation"
          }
        },
        {
          "sampler": 26,
          "target": {
            "node": 18,
            "path": "rotation"
          }
        },
        {
          "sampler": 27,
          "target": {
            "node": 18,
            "path": "translation"
          }
        },
        {
          "sampler": 28,
          "target": {
            "node": 19,
            "path": "rotation"
          }
        },
        {
          "sampler": 29,
          "target": {
            "node": 19,
            "path": "translation"
          }
        },
        {
          "sampler": 30,
          "target": {
            "node": 20,
            "path": "rotation"
          }
        },
        {
          "sampler": 31,
          "target": {
            "node": 20,
            "path": "translation"
          }
        },
        {
          "sampler": 32,
          "target": {
            "node": 21,
            "path": "rotation"
          }
        },
        {
          "sampler": 33,
          "target": {
            "node": 21,
            "path": "translation"
          }
        },
        {
          "sampler": 34,
          "target": {
            "node": 22,
            "path": "rotation"
          }
        },
        {
          "sampler": 35,
          "target": {
            "node": 22,
            "path": "translation"
          }
        },
        {
          "sampler": 36,
          "target": {
            "node": 23,
            "path": "rotation"
          }
        },
        {
          "sampler": 37,
          "target": {
            "node": 23,
            "path": "translation"
          }
        },
        {
          "sampler": 38,
          "target": {
            "node": 24,
            "path": "rotation"
          }
        },
        {
          "sampler": 39,
          "target": {
            "node": 24,
            "path": "translation"
          }
        },
        {
          "sampler": 40,
          "target": {
            "node": 25,
            "path": "rotation"
          }
        },
        {
          "sampler": 41,
          "target": {
            "node": 25,
            "path": "translation"
          }
        },
        {
          "sampler": 42,
          "target": {
            "node": 26,
            "path": "rotation"
          }
        },
        {
          "sampler": 43,
          "target": {
            "node": 26,
            "path": "translation"
          }
        },
        {
          "sampler": 44,
          "target": {
            "node": 27,
            "path": "rotation"
          }
        },
        {
          "sampler": 45,
          "target": {
            "node": 27,
            "path": "translation"
          }
        },
        {
          "sampler": 46,
          "target": {
            "node": 28,
            "path": "rotation"
          }
        },
        {
          "sampler": 47,
          "target": {
            "node": 28,
            "path": "translation"
          }
        },
        {
          "sampler": 48,
          "target": {
            "node": 29,
            "path": "rotation"
          }
        },
        {
          "sampler": 49,
          "target": {
            "node": 29,
            "path": "translation"
          }
        },
        {
          "sampler": 50,
          "target": {
            "node": 30,
            "path": "rotation"
          }
        },
        {
          "sampler": 51,
          "target": {
            "node": 30,
            "path": "translation"
          }
        },
        {
          "sampler": 52,
          "target": {
            "node": 31,
            "path": "rotation"
          }
        },
        {
          "sampler": 53,
          "target": {
            "node": 31,
            "path": "translation"
          }
        },
        {
          "sampler": 54,
          "target": {
            "node": 32,
            "path": "rotation"
          }
        },
        {
          "sampler": 55,
          "target": {
            "node": 32,
            "path": "translation"
          }
        },
        {
          "sampler": 56,
          "target": {
            "node": 33,
            "path": "rotation"
          }
        },
        {
          "sampler": 57,
          "target": {
            "node": 33,
            "path": "translation"
          }
        },
        {
          "sampler": 58,
          "target": {
            "node": 34,
            "path": "rotation"
          }
        },
        {
          "sampler": 59,
          "target": {
            "node": 34,
            "path": "translation"
          }
        },
        {
          "sampler": 60,
          "target": {
            "node": 35,
            "path": "rotation"
          }
        },
        {
          "sampler": 61,
          "target": {
            "node": 35,
            "path": "translation"
          }
        },
        {
          "sampler": 62,
          "target": {
            "node": 36,
            "path": "rotation"
          }
        },
        {
          "sampler": 63,
          "target": {
            "node": 36,
            "path": "translation"
          }
        },
        {
          "sampler": 64,
          "target": {
            "node": 37,
            "path": "rotation"
          }
        },
        {
          "sampler": 65,
          "target": {
            "node": 37,
            "path": "translation"
          }
        },
        {
          "sampler": 66,
          "target": {
            "node": 38,
            "path": "rotation"
          }
        },
        {
          "sampler": 67,
          "target": {
            "node": 38,
            "path": "translation"
          }
        },
        {
          "sampler": 68,
          "target": {
            "node": 39,
            "path": "rotation"
          }
        },
        {
          "sampler": 69,
          "target": {
            "node": 39,
            "path": "translation"
          }
        },
        {
          "sampler": 70,
          "target": {
            "node": 40,
            "path": "rotation"
          }
        },
        {
          "sampler": 71,
          "target": {
            "node": 40,
            "path": "translation"
          }
        },
        {
          "sampler": 72,
          "target": {
            "node": 41,
            "path": "rotation"
          }
        },
        {
          "sampler": 73,
          "target": {
            "node": 41,
            "path": "translation"
          }
        },
        {
          "sampler": 74,
          "target": {
            "node": 42,
            "path": "rotation"
          }
        },
        {
          "sampler": 75,
          "target": {
            "node": 42,
            "path": "translation"
          }
        },
        {
          "sampler": 76,
          "target": {
            "node": 43,
            "path": "rotation"
          }
        },
        {
          "sampler": 77,
          "target": {
            "node": 43,
            "path": "translation"
          }
        },
        {
          "sampler": 78,
          "target": {
            "node": 44,
            "path": "rotation"
          }
        },
        {
          "sampler": 79,
          "target": {
            "node": 44,
            "path": "translation"
          }
        },
        {
          "sampler": 80,
          "target": {
            "node": 45,
            "path": "rotation"
          }
        },
        {
          "sampler": 81,
          "target": {
            "node": 45,
            "path": "translation"
          }
        },
        {
          "sampler": 82,
          "target": {
            "node": 46,
            "path": "rotation"
          }
        },
        {
          "sampler": 83,
          "target": {
            "node": 46,
            "path": "translation"
          }
        },
        {
          "sampler": 84,
          "target": {
            "node": 47,
            "path": "rotation"
          }
        },
        {
          "sampler": 85,
          "target": {
            "node": 47,
            "path": "translation"
          }
        },
        {
          "sampler": 86,
          "target": {
            "node": 48,
            "path": "rotation"
          }
        },
        {
          "sampler": 87,
          "target": {
            "node": 48,
            "path": "translation"
          }
        },
        {
          "sampler": 88,
          "target": {
            "node": 49,
            "path": "rotation"
          }
        },
        {
          "sampler": 89,
          "target": {
            "node": 49,
            "path": "translation"
          }
        },
        {
          "sampler": 90,
          "target": {
            "node": 50,
            "path": "rotation"
          }
        },
        {
          "sampler": 91,
          "target": {
            "node": 50,
            "path": "translation"
          }
        },
        {
          "sampler": 92,
          "target": {
            "node": 51,
            "path": "rotation"
          }
        },
        {
          "sampler": 93,
          "target": {
            "node": 51,
            "path": "translation"
          }
        },
        {
          "sampler": 94,
          "target": {
            "node": 52,
            "path": "rotation"
          }
        },
        {
          "sampler": 95,
          "target": {
            "node": 52,
            "path": "translation"
          }
        },
        {
          "sampler": 96,
          "target": {
            "node": 53,
            "path": "rotation"
          }
        },
        {
          "sampler": 97,
          "target": {
            "node": 53,
            "path": "translation"
          }
        },
        {
          "sampler": 98,
          "target": {
            "node": 54,
            "path": "rotation"
          }
        },
        {
          "sampler": 99,
          "target": {
            "node": 54,
            "path": "translation"
          }
        },
        {
          "sampler": 100,
          "target": {
            "node": 55,
            "path": "rotation"
          }
        },
        {
          "sampler": 101,
          "target": {
            "node": 55,
            "path": "translation"
          }
        },
        {
          "sampler": 102,
          "target": {
            "node": 56,
            "path": "rotation"
          }
        },
        {
          "sampler": 103,
          "target": {
            "node": 56,
            "path": "translation"
          }
        }
      ],
      "samplers": [
        {
          "input": 35,
          "output": 36,
          "interpolation": "LINEAR"
        },
        {
          "input": 35,
          "output": 37,
          "interpolation": "LINEAR"
        },
        {
          "input": 35,
          "output": 38,
          "interpolation": "LINEAR"
        },
        {
          "input": 35,
          "output": 39,
          "interpolation": "LINEAR"
        },
        {
          "input": 35,
          "output": 40,
          "interpolation": "LINEAR"
        },
        {
          "input": 35,
          "output": 41,
          "interpolation": "LINEAR"
        },
        {
          "input": 35,
          "output": 42,
          "interpolation": "LINEAR"
        },
        {
          "input": 35,
          "output": 43,
          "interpolation": "LINEAR"
        },
        {
          "input": 35,
          "output": 44,
          "interpolation": "LINEAR"
        },
        {
          "input": 35,
          "output": 45,
          "interpolation": "LINEAR"
        },
        {
          "input": 35,
          "output": 46,
          "interpolation": "LINEAR"
        },
        {
          "input": 35,
          "output": 47,
          "interpolation": "LINEAR"
        },
        {
          "input": 35,
          "output": 48,
          "interpolation": "LINEAR"
        },
        {
          "input": 35,
          "output": 49,
          "interpolation": "LINEAR"
        },
        {
          "input": 35,
          "output": 50,
          "interpolation": "LINEAR"
        },
        {
          "input": 35,
          "output": 51,
          "interpolation": "LINEAR"
        },
        {
          "input": 35,
          "output": 52,
          "interpolation": "LINEAR"
        },
        {
          "input": 35,
          "output": 53,
          "interpolation": "LINEAR"
        },
        {
          "input": 35,
          "output": 54,
          "interpolation": "LINEAR"
        },
        {
          "input": 35,
          "output": 55,
          "interpolation": "LINEAR"
        },
        {
          "input": 35,
          "output": 56,
          "interpolation": "LINEAR"
        },
        {
          "input": 35,
          "output": 57,
          "interpolation": "LINEAR"
        },
        {
          "input": 35,
          "output": 58,
          "interpolation": "LINEAR"
        },
        {
          "input": 35,
          "output": 59,
          "interpolation": "LINEAR"
        },
        {
          "input": 35,
          "output": 60,
          "interpolation": "LINEAR"
        },
        {
          "input": 35,
          "output": 61,
          "interpolation": "LINEAR"
        },
        {
          "input": 35,
          "output": 62,
          "interpolation": "LINEAR"
        },
        {
          "input": 35,
          "output": 63,
          "interpolation": "LINEAR"
        },
        {
          "input": 35,
          "output": 64,
          "interpolation": "LINEAR"
        },
        {
          "input": 35,
          "output": 65,
          "interpolation": "LINEAR"
        },
        {
          "input": 35,
          "output": 66,
          "interpolation": "LINEAR"
        },
        {
          "input": 35,
          "output": 67,
          "interpolation": "LINEAR"
        },
        {
          "input": 35,
          "output": 68,
          "interpolation": "LINEAR"
        },
        {
          "input": 35,
          "output": 69,
          "interpolation": "LINEAR"
        },
        {
          "input": 35,
          "output": 70,
          "interpolation": "LINEAR"
        },
        {
          "input": 35,
          "output": 71,
          "interpolation": "LINEAR"
        },
        {
          "input": 35,
          "output": 72,
          "interpolation": "LINEAR"
        },
        {
          "input": 35,
          "output": 73,
          "interpolation": "LINEAR"
        },
        {
          "input": 35,
          "output": 74,
          "interpolation": "LINEAR"
        },
        {
          "input": 35,
          "output": 75,
          "interpolation": "LINEAR"
        },
        {
          "input": 35,
          "output": 76,
          "interpolation": "LINEAR"
        },
        {
          "input": 35,
          "output": 77,
          "interpolation": "LINEAR"
        },
        {
          "input": 35,
          "output": 78,
          "interpolation": "LINEAR"
        },
        {
          "input": 35,
          "output": 79,
          "interpolation": "LINEAR"
        },
        {
          "input": 35,
          "output": 80,
          "interpolation": "LINEAR"
        },
        {
          "input": 35,
          "output": 81,
          "interpolation": "LINEAR"
        },
        {
          "input": 35,
          "output": 82,
          "interpolation": "LINEAR"
        },
        {
          "input": 35,
          "output": 83,
          "interpolation": "LINEAR"
        },
        {
          "input": 35,
          "output": 84,
          "interpolation": "LINEAR"
        },
        {
          "input": 35,
          "output": 85,
          "interpolation": "LINEAR"
        },
        {
          "input": 35,
          "output": 86,
          "interpolation": "LINEAR"
        },
        {
          "input": 35,
          "output": 87,
          "interpolation": "LINEAR"
        },
        {
          "input": 35,
          "output": 88,
          "interpolation": "LINEAR"
        },
        {
          "input": 35,
          "output": 89,
          "interpolation": "LINEAR"
        },
        {
          "input": 35,
          "output": 90,
          "interpolation": "LINEAR"
        },
        {
          "input": 35,
          "output": 91,
          "interpolation": "LINEAR"
        },
        {
          "input": 35,
          "output": 92,
          "interpolation": "LINEAR"
        },
        {
          "input": 35,
          "output": 93,
          "interpolation": "LINEAR"
        },
        {
          "input": 35,
          "output": 94,
          "interpolation": "LINEAR"
        },
        {
          "input": 35,
          "output": 95,
          "interpolation": "LINEAR"
        },
        {
          "input": 35,
          "output": 96,
          "interpolation": "LINEAR"
        },
        {
          "input": 35,
          "output": 97,
          "interpolation": "LINEAR"
        },
        {
          "input": 35,
          "output": 98,
          "interpolation": "LINEAR"
        },
        {
          "input": 35,
          "output": 99,
          "interpolation": "LINEAR"
        },
        {
          "input": 35,
          "output": 100,
          "interpolation": "LINEAR"
        },
        {
          "input": 35,
          "output": 101,
          "interpolation": "LINEAR"
        },
        {
          "input": 35,
          "output": 102,
          "interpolation": "LINEAR"
        },
        {
          "input": 35,
          "output": 103,
          "interpolation": "LINEAR"
        },
        {
          "input": 35,
          "output": 104,
          "interpolation": "LINEAR"
        },
        {
          "input": 35,
          "output": 105,
          "interpolation": "LINEAR"
        },
        {
          "input": 35,
          "output": 106,
          "interpolation": "LINEAR"
        },
        {
          "input": 35,
          "output": 107,
          "interpolation": "LINEAR"
        },
        {
          "input": 35,
          "output": 108,
          "interpolation": "LINEAR"
        },
        {
          "input": 35,
          "output": 109,
          "interpolation": "LINEAR"
        },
        {
          "input": 35,
          "output": 110,
          "interpolation": "LINEAR"
        },
        {
          "input": 35,
          "output": 111,
          "interpolation": "LINEAR"
        },
        {
          "input": 35,
          "output": 112,
          "interpolation": "LINEAR"
        },
        {
          "input": 35,
          "output": 113,
          "interpolation": "LINEAR"
        },
        {
          "input": 35,
          "output": 114,
          "interpolation": "LINEAR"
        },
        {
          "input": 35,
          "output": 115,
          "interpolation": "LINEAR"
        },
        {
          "input": 35,
          "output": 116,
          "interpolation": "LINEAR"
        },
        {
          "input": 35,
          "output": 117,
          "interpolation": "LINEAR"
        },
        {
          "input": 35,
          "output": 118,
          "interpolation": "LINEAR"
        },
        {
          "input": 35,
          "output": 119,
          "interpolation": "LINEAR"
        },
        {
          "input": 35,
          "output": 120,
          "interpolation": "LINEAR"
        },
        {
          "input": 35,
          "output": 121,
          "interpolation": "LINEAR"
        },
        {
          "input": 35,
          "output": 122,
          "interpolation": "LINEAR"
        },
        {
          "input": 35,
          "output": 123,
          "interpolation": "LINEAR"
        },
        {
          "input": 35,
          "output": 124,
          "interpolation": "LINEAR"
        },
        {
          "input": 35,
          "output": 125,
          "interpolation": "LINEAR"
        },
        {
          "input": 35,
          "output": 126,
          "interpolation": "LINEAR"
        },
        {
          "input": 35,
          "output": 127,
          "interpolation": "LINEAR"
        },
        {
          "input": 35,
          "output": 128,
          "interpolation": "LINEAR"
        },
        {
          "input": 35,
          "output": 129,
          "interpolation": "LINEAR"
        },
        {
          "input": 35,
          "output": 130,
          "interpolation": "LINEAR"
        },
        {
          "input": 35,
          "output": 131,
          "interpolation": "LINEAR"
        },
        {
          "input": 35,
          "output": 132,
          "interpolation": "LINEAR"
        },
        {
          "input": 35,
          "output": 133,
          "interpolation": "LINEAR"
        },
        {
          "input": 35,
          "output": 134,
          "interpolation": "LINEAR"
        },
        {
          "input": 35,
          "output": 135,
          "interpolation": "LINEAR"
        },
        {
          "input": 35,
          "output": 136,
          "interpolation": "LINEAR"
        },
        {
          "input": 35,
          "output": 137,
          "interpolation": "LINEAR"
        },
        {
          "input": 35,
          "output": 138,
          "interpolation": "LINEAR"
        },
        {
          "input": 35,
          "output": 139,
          "interpolation": "LINEAR"
        }
      ]
    }
  ],
  "bufferViews": [
    {
      "name": "mesh_indexes_character_neutrals_cyclops_alpha",
      "buffer": 0,
      "byteOffset": 0,
      "byteLength": 7848,
      "target": 34963
    },
    {
      "name": "mesh_vertexes_character_neutrals_cyclops_alpha",
      "buffer": 0,
      "byteOffset": 7848,
      "byteLength": 35464,
      "byteStride": 52,
      "target": 34962
    },
    {
      "name": "mesh_bones_character_neutrals_cyclops_alpha",
      "buffer": 0,
      "byteOffset": 43312,
      "byteLength": 1536
    },
    {
      "name": "mesh_indexes_character_neutrals_cyclops",
      "buffer": 0,
      "byteOffset": 44848,
      "byteLength": 30288,
      "target": 34963
    },
    {
      "name": "mesh_vertexes_character_neutrals_cyclops",
      "buffer": 0,
      "byteOffset": 75136,
      "byteLength": 97448,
      "byteStride": 52,
      "target": 34962
    },
    {
      "name": "mesh_bones_character_neutrals_cyclops",
      "buffer": 0,
      "byteOffset": 172584,
      "byteLength": 3136
    },
    {
      "name": "mesh_indexes_character_neutrals_cyclops_armor",
      "buffer": 0,
      "byteOffset": 175720,
      "byteLength": 14352,
      "target": 34963
    },
    {
      "name": "mesh_vertexes_character_neutrals_cyclops_armor",
      "buffer": 0,
      "byteOffset": 190072,
      "byteLength": 48256,
      "byteStride": 52,
      "target": 34962
    },
    {
      "name": "mesh_bones_character_neutrals_cyclops_armor",
      "buffer": 0,
      "byteOffset": 238328,
      "byteLength": 256
    },
    {
      "name": "mesh_indexes_character_neutrals_cyclops_alpha_2",
      "buffer": 0,
      "byteOffset": 238584,
      "byteLength": 576,
      "target": 34963
    },
    {
      "name": "mesh_vertexes_character_neutrals_cyclops_alpha_2",
      "buffer": 0,
      "byteOffset": 239160,
      "byteLength": 4992,
      "byteStride": 52,
      "target": 34962
    },
    {
      "name": "mesh_bones_character_neutrals_cyclops_alpha_2",
      "buffer": 0,
      "byteOffset": 244152,
      "byteLength": 384
    },
    {
      "name": "mesh_indexes_cyclops_weapon.max",
      "buffer": 0,
      "byteOffset": 244536,
      "byteLength": 960,
      "target": 34963
    },
    {
      "name": "mesh_vertexes_cyclops_weapon.max",
      "buffer": 0,
      "byteOffset": 245496,
      "byteLength": 3120,
      "byteStride": 52,
      "target": 34962
    },
    {
      "name": "mesh_bones_cyclops_weapon.max",
      "buffer": 0,
      "byteOffset": 248616,
      "byteLength": 64
    },
    {
      "name": "frames",
      "buffer": 0,
      "byteOffset": 248680,
      "byteLength": 1972
    },
    {
      "name": "bones_rotate",
      "buffer": 0,
      "byteOffset": 250652,
      "byteLength": 410176
    },
    {
      "name": "bones_translate",
      "buffer": 0,
      "byteOffset": 660828,
      "byteLength": 307632
    }
  ],
  "buffers": [
    {
      "uri": "character_neutrals_cyclop.bin",
      "byteLength": 968460
    }
  ],
  "images": [
    {
      "uri": "character_neutrals_cyclops_alpha.dds"
    },
    {
      "uri": "character_neutrals_cyclops.dds"
    },
    {
      "uri": "character_neutrals_cyclops_weapon.dds"
    }
  ],
  "textures": [
    {
      "source": 0
    },
    {
      "source": 1
    },
    {
      "source": 2
    }
  ],
  "materials": [
    {
      "name": "material0",
      "alphaMode": "MASK",
      "pbrMetallicRoughness": {
        "baseColorTexture": {
          "index": 0,
          "texCoord": 0
        },
        "metallicFactor": 0.0
      },
      "emissiveFactor": [
        0.0,
        0.0,
        0.0
      ]
    },
    {
      "name": "material1",
      "alphaMode": "MASK",
      "pbrMetallicRoughness": {
        "baseColorTexture": {
          "index": 1,
          "texCoord": 0
        },
        "metallicFactor": 0.0
      },
      "emissiveFactor": [
        0.0,
        0.0,
        0.0
      ]
    },
    {
      "name": "material2",
      "alphaMode": "MASK",
      "pbrMetallicRoughness": {
        "baseColorTexture": {
          "index": 1,
          "texCoord": 0
        },
        "metallicFactor": 0.0
      },
      "emissiveFactor": [
        0.0,
        0.0,
        0.0
      ]
    },
    {
      "name": "material3",
      "alphaMode": "MASK",
      "pbrMetallicRoughness": {
        "baseColorTexture": {
          "index": 0,
          "texCoord": 0
        },
        "metallicFactor": 0.0
      },
      "emissiveFactor": [
        0.0,
        0.0,
        0.0
      ]
    },
    {
      "name": "material4",
      "alphaMode": "MASK",
      "pbrMetallicRoughness": {
        "baseColorTexture": {
          "index": 2,
          "texCoord": 0
        },
        "metallicFactor": 0.0
      },
      "emissiveFactor": [
        0.0,
        0.0,
        0.0
      ]
    }
  ]
}