{
  "asset": {
    "version": "2.0",
    "generator": "generated with dis3tool v1.1 by root.ext@gmail.com"
  },
  "scenes": [
    {
      "nodes": [
        0,
        1,
        2,
        3
      ]
    }
  ],
  "scene": 0,
  "nodes": [
    {
      "name": "neutrals_greendragon_body",
      "mesh": 0,
      "skin": 0
    },
    {
      "name": "neutrals_greendragon_wings",
      "mesh": 1,
      "skin": 1
    },
    {
      "name": "neutrals_greendragon_helm",
      "mesh": 2,
      "skin": 2
    },
    {
      "name": "Bip01",
      "rotation": [
        0.7396677,
        -0.1917385,
        0.624440849,
        -0.161869109
      ],
      "translation": [
        -0.072111,
        1.50279641,
        1.13976753
      ],
      "children": [
        4
      ]
    },
    {
      "name": "Bip01 Pelvis",
      "rotation": [
        0.202893227,
        0.677372336,
        0.6773738,
        0.202893272
      ],
      "translation": [
        -1.76690906E-09,
        -2.57148312E-08,
        9.375947E-09
      ],
      "children": [
        5
      ]
    },
    {
      "name": "Bip01 Spine",
      "rotation": [
        0.00630453927,
        0.0141636217,
        0.1595562,
        0.9870671
      ],
      "translation": [
        0.222128943,
        5.54362441E-06,
        -0.147223011
      ],
      "children": [
        6,
        36,
        44,
        52,
        57,
        59
      ]
    },
    {
      "name": "Bip01 Spine1",
      "rotation": [
        0.00393776828,
        0.08886756,
        -0.09304516,
        0.9916802
      ],
      "translation": [
        0.8114208,
        1.92695079E-05,
        -0.000778304064
      ],
      "children": [
        7,
        32,
        34
      ]
    },
    {
      "name": "Bip01 Neck",
      "rotation": [
        -0.01145439,
        -0.2219616,
        -0.06996519,
        0.9724745
      ],
      "translation": [
        1.28901732,
        -2.54628922E-05,
        -0.104206614
      ],
      "children": [
        8,
        14,
        23
      ]
    },
    {
      "name": "Bip01 Neck1",
      "rotation": [
        -0.0278955568,
        0.08241794,
        -0.236361608,
        0.9677615
      ],
      "translation": [
        0.5840522,
        -6.35494371E-06,
        -0.0004205015
      ],
      "children": [
        9
      ]
    },
    {
      "name": "Bip01 Head",
      "rotation": [
        -0.0380777456,
        -0.1028261,
        -0.3156521,
        0.942518234
      ],
      "translation": [
        0.5363271,
        -5.47549E-08,
        2.66254546E-07
      ],
      "children": [
        10,
        11,
        12,
        13
      ]
    },
    {
      "name": "Bone Head Jaw",
      "rotation": [
        0.9918571,
        5.080167E-07,
        0.127355009,
        1.77635366E-06
      ],
      "translation": [
        0.2290554,
        1.06458492E-05,
        0.1019287
      ]
    },
    {
      "name": "Bone Head Upper Horn",
      "rotation": [
        -0.398057,
        6.744E-07,
        0.9173608,
        -7.888048E-07
      ],
      "translation": [
        0.06704512,
        1.0171032E-05,
        -0.213212118
      ]
    },
    {
      "name": "Bone Head Eyes",
      "rotation": [
        0.961861551,
        -1.09557186E-06,
        -0.273537248,
        -2.872623E-07
      ],
      "translation": [
        0.298114538,
        1.03046714E-05,
        -0.0519998148
      ]
    },
    {
      "name": "PP_FireBreath",
      "rotation": [
        -6.953784E-08,
        1.08546466E-07,
        -0.7071065,
        0.707106948
      ],
      "translation": [
        0.377001464,
        4.12899738E-07,
        0.119302809
      ]
    },
    {
      "name": "Bip01 L Clavicle",
      "rotation": [
        0.57618463,
        0.661146,
        0.181400955,
        -0.444961756
      ],
      "translation": [
        -0.238440931,
        0.0620032139,
        0.08229185
      ],
      "children": [
        15
      ]
    },
    {
      "name": "Bip01 L UpperArm",
      "rotation": [
        0.523855865,
        0.20424664,
        -0.176705256,
        0.8078574
      ],
      "translation": [
        0.593303561,
        2.08484678E-08,
        4.23986037E-08
      ],
      "children": [
        16
      ]
    },
    {
      "name": "Bip01 L Forearm",
      "rotation": [
        2.06635531E-09,
        0.326107681,
        1.53333324E-09,
        0.9453326
      ],
      "translation": [
        0.960650146,
        -7.016114E-08,
        5.4397E-08
      ],
      "children": [
        17
      ]
    },
    {
      "name": "Bip01 L Hand",
      "rotation": [
        0.175674409,
        0.443959,
        0.208397,
        0.8535863
      ],
      "translation": [
        0.405012369,
        4.08573264E-08,
        -2.43238389E-08
      ],
      "children": [
        18,
        19,
        20,
        21,
        22
      ]
    },
    {
      "name": "Bip01 L Finger0",
      "rotation": [
        0.8697907,
        -0.485411048,
        0.0396401957,
        0.07917652
      ],
      "translation": [
        -0.0209607128,
        -0.137148768,
        0.06471747
      ]
    },
    {
      "name": "Bip01 L Finger1",
      "rotation": [
        -0.0215048082,
        -0.0532503948,
        -0.303266048,
        0.951173842
      ],
      "translation": [
        0.121154517,
        -0.126062155,
        0.0339141227
      ]
    },
    {
      "name": "Bip01 L Finger2",
      "rotation": [
        -0.03035058,
        -0.0628561154,
        -0.06670783,
        0.995328069
      ],
      "translation": [
        0.149893746,
        -0.0415319726,
        0.0294663142
      ]
    },
    {
      "name": "Bip01 L Finger3",
      "rotation": [
        0.0162470937,
        -0.0558882,
        0.123426564,
        0.990645468
      ],
      "translation": [
        0.149440631,
        0.0574717075,
        0.0222391337
      ]
    },
    {
      "name": "Bip01 L Finger4",
      "rotation": [
        0.0053689573,
        -0.06266796,
        0.22559692,
        0.9721882
      ],
      "translation": [
        0.08460318,
        0.134584725,
        0.0331164226
      ]
    },
    {
      "name": "Bip01 R Clavicle",
      "rotation": [
        0.6807313,
        -0.5886973,
        0.202603042,
        0.385995269
      ],
      "translation": [
        -0.2130336,
        -0.1300038,
        0.07194724
      ],
      "children": [
        24
      ]
    },
    {
      "name": "Bip01 R UpperArm",
      "rotation": [
        -0.622235656,
        0.09405134,
        0.237027064,
        0.740132
      ],
      "translation": [
        0.593303561,
        -1.07080005E-07,
        1.28064439E-08
      ],
      "children": [
        25
      ]
    },
    {
      "name": "Bip01 R Forearm",
      "rotation": [
        5.11410825E-09,
        0.3047083,
        2.56414756E-09,
        0.9524457
      ],
      "translation": [
        0.960649967,
        -7.34520267E-09,
        -4.01641671E-08
      ],
      "children": [
        26
      ]
    },
    {
      "name": "Bip01 R Hand",
      "rotation": [
        -0.243153527,
        0.469406277,
        -0.195472121,
        0.8260295
      ],
      "translation": [
        0.40501228,
        -1.38612233E-08,
        2.74046E-08
      ],
      "children": [
        27,
        28,
        29,
        30,
        31
      ]
    },
    {
      "name": "Bip01 R Finger0",
      "rotation": [
        0.8697906,
        0.485411,
        0.0396402031,
        -0.07917649
      ],
      "translation": [
        -0.0209607445,
        0.137148723,
        0.06471748
      ]
    },
    {
      "name": "Bip01 R Finger1",
      "rotation": [
        0.0215047933,
        -0.0532504022,
        0.303266019,
        0.9511738
      ],
      "translation": [
        0.1211544,
        0.1260621,
        0.0339141376
      ]
    },
    {
      "name": "Bip01 R Finger2",
      "rotation": [
        0.03035057,
        -0.06285611,
        0.06670783,
        0.995328069
      ],
      "translation": [
        0.149893686,
        0.0415319949,
        0.02946633
      ]
    },
    {
      "name": "Bip01 R Finger3",
      "rotation": [
        -0.0162470881,
        -0.0558882,
        -0.123426564,
        0.9906454
      ],
      "translation": [
        0.149440557,
        -0.0574716628,
        0.0222391374
      ]
    },
    {
      "name": "Bip01 R Finger4",
      "rotation": [
        -0.00536895264,
        -0.06266796,
        -0.2255969,
        0.9721882
      ],
      "translation": [
        0.0846031159,
        -0.13458465,
        0.03311643
      ]
    },
    {
      "name": "Bone L Wing 1_0",
      "rotation": [
        0.178400531,
        0.6395787,
        0.1720033,
        0.7276859
      ],
      "translation": [
        0.399368227,
        0.4417941,
        -0.143215671
      ],
      "children": [
        33
      ]
    },
    {
      "name": "Bone L Wing 1_1",
      "rotation": [
        0.01725727,
        -0.101570539,
        -0.100343637,
        0.9896043
      ],
      "translation": [
        2.176075,
        4.670164E-07,
        -5.46485751E-07
      ]
    },
    {
      "name": "Bone R Wing 1_0",
      "rotation": [
        -0.1707439,
        0.641760767,
        -0.163658231,
        0.7295243
      ],
      "translation": [
        0.399775058,
        -0.39462328,
        -0.150841475
      ],
      "children": [
        35
      ]
    },
    {
      "name": "Bone R Wing 1_1",
      "rotation": [
        -0.0158898272,
        -0.10160654,
        0.08683518,
        0.9909002
      ],
      "translation": [
        2.17607379,
        -2.7465407E-07,
        1.22269432E-06
      ]
    },
    {
      "name": "Bip01 L Thigh",
      "rotation": [
        0.7300358,
        -0.0339446962,
        0.651687443,
        0.202975318
      ],
      "translation": [
        -0.0902035758,
        0.446852624,
        0.137367532
      ],
      "children": [
        37
      ]
    },
    {
      "name": "Bip01 L Calf",
      "rotation": [
        2.53200909E-08,
        0.730916262,
        -5.95970961E-09,
        0.682467163
      ],
      "translation": [
        0.9762789,
        -7.68256641E-08,
        7.528427E-08
      ],
      "children": [
        38
      ]
    },
    {
      "name": "Bip01 L Foot",
      "rotation": [
        -0.0426579379,
        -0.07228182,
        0.313739866,
        0.9457922
      ],
      "translation": [
        0.4584797,
        -9.17019E-09,
        -5.432274E-08
      ],
      "children": [
        39,
        40,
        41,
        42,
        43
      ]
    },
    {
      "name": "Bip01 L Toe0",
      "rotation": [
        -0.455388755,
        0.856817663,
        -0.05821526,
        -0.234724358
      ],
      "translation": [
        0.129213646,
        -0.134700328,
        0.496454477
      ]
    },
    {
      "name": "Bip01 L Toe1",
      "rotation": [
        -0.209619761,
        0.949785054,
        -0.0429861061,
        -0.228298217
      ],
      "translation": [
        0.0344639458,
        -0.06817506,
        0.5157445
      ]
    },
    {
      "name": "Bip01 L Toe2",
      "rotation": [
        0.01237689,
        0.975358,
        -0.0553275,
        -0.2132187
      ],
      "translation": [
        0.014329032,
        0.02967517,
        0.528395057
      ]
    },
    {
      "name": "Bip01 L Toe3",
      "rotation": [
        0.205838725,
        0.9656505,
        -0.0594548024,
        -0.1470188
      ],
      "translation": [
        0.04500908,
        0.119679227,
        0.53113246
      ]
    },
    {
      "name": "Bip01 L Toe4",
      "rotation": [
        -0.286122322,
        -0.557781041,
        0.65636605,
        0.4197592
      ],
      "translation": [
        0.18086876,
        0.159218714,
        0.497344434
      ]
    },
    {
      "name": "Bip01 R Thigh",
      "rotation": [
        0.550313652,
        -0.209390789,
        0.8065482,
        -0.0528242
      ],
      "translation": [
        -0.338900119,
        -0.302012265,
        0.143621117
      ],
      "children": [
        45
      ]
    },
    {
      "name": "Bip01 R Calf",
      "rotation": [
        1.29559687E-08,
        0.4367618,
        5.36929035E-09,
        0.8995772
      ],
      "translation": [
        0.976278841,
        -2.08690025E-08,
        -4.76491451E-08
      ],
      "children": [
        46
      ]
    },
    {
      "name": "Bip01 R Foot",
      "rotation": [
        0.1266564,
        0.116379857,
        -0.158209071,
        0.972308457
      ],
      "translation": [
        0.458479643,
        -4.3729603E-08,
        6.11599E-08
      ],
      "children": [
        47,
        48,
        49,
        50,
        51
      ]
    },
    {
      "name": "Bip01 R Toe0",
      "rotation": [
        0.2767144,
        0.9492705,
        0.056648653,
        -0.138222635
      ],
      "translation": [
        0.129213661,
        0.134700373,
        0.496454448
      ]
    },
    {
      "name": "Bip01 R Toe1",
      "rotation": [
        0.197896808,
        0.9719993,
        0.0415536575,
        -0.119697481
      ],
      "translation": [
        0.0344637334,
        0.06817508,
        0.5157445
      ]
    },
    {
      "name": "Bip01 R Toe2",
      "rotation": [
        -0.0244227611,
        0.993040562,
        0.0533352159,
        -0.102123454
      ],
      "translation": [
        0.0143290395,
        -0.0296750888,
        0.528395057
      ]
    },
    {
      "name": "Bip01 R Toe3",
      "rotation": [
        -0.220561668,
        0.97004056,
        0.0455349647,
        -0.09110659
      ],
      "translation": [
        0.04500928,
        -0.119679138,
        0.53113246
      ]
    },
    {
      "name": "Bip01 R Toe4",
      "rotation": [
        -0.3413699,
        0.5715916,
        0.640684247,
        -0.3824569
      ],
      "translation": [
        0.180868715,
        -0.1592187,
        0.497344434
      ]
    },
    {
      "name": "Bip01 Tail",
      "rotation": [
        -0.0201194715,
        0.9866752,
        -0.0406559743,
        -0.156250656
      ],
      "translation": [
        -0.454187721,
        0.15111652,
        0.01928608
      ],
      "children": [
        53
      ]
    },
    {
      "name": "Bip01 Tail1",
      "rotation": [
        0.0586108826,
        0.107607767,
        -0.21548003,
        0.968789756
      ],
      "translation": [
        0.8673282,
        0.00014070858,
        -0.000852141238
      ],
      "children": [
        54
      ]
    },
    {
      "name": "Bip01 Tail2",
      "rotation": [
        0.0516090468,
        0.0196088627,
        -0.304299653,
        0.95097506
      ],
      "translation": [
        1.10378945,
        9.72019552E-05,
        -0.0008735438
      ],
      "children": [
        55
      ]
    },
    {
      "name": "Bip01 Tail3",
      "rotation": [
        0.0449871235,
        0.0220354013,
        -0.413621783,
        0.9090696
      ],
      "translation": [
        1.10379207,
        8.810091E-05,
        -0.0008746205
      ],
      "children": [
        56
      ]
    },
    {
      "name": "Bip01 Tail4",
      "rotation": [
        0.08494573,
        0.0785448849,
        -0.5013172,
        0.857493937
      ],
      "translation": [
        1.1037513,
        0.000197685673,
        -0.0008551608
      ]
    },
    {
      "name": "Bone L Wing 2_0",
      "rotation": [
        0.185487211,
        0.763514042,
        0.2053624,
        0.5834951
      ],
      "translation": [
        0.165620446,
        0.4262935,
        -0.109446764
      ],
      "children": [
        58
      ]
    },
    {
      "name": "Bone L Wing 2_1",
      "rotation": [
        0.009765088,
        -0.08184169,
        -0.04103824,
        0.995752037
      ],
      "translation": [
        1.4689585,
        7.91153354E-07,
        -9.54863E-07
      ]
    },
    {
      "name": "Bone R Wing 2_0",
      "rotation": [
        -0.190041274,
        0.7618308,
        -0.209056154,
        0.5829177
      ],
      "translation": [
        0.165241435,
        -0.397367716,
        -0.1121426
      ],
      "children": [
        60
      ]
    },
    {
      "name": "Bone R Wing 2_1",
      "rotation": [
        -0.0133829881,
        -0.08944906,
        0.06591582,
        0.993717432
      ],
      "translation": [
        1.46895719,
        -7.880545E-07,
        -2.07096878E-06
      ]
    }
  ],
  "accessors": [
    {
      "bufferView": 0,
      "byteOffset": 0,
      "componentType": 5125,
      "count": 9252,
      "type": "SCALAR"
    },
    {
      "bufferView": 1,
      "byteOffset": 0,
      "componentType": 5126,
      "count": 2185,
      "type": "VEC3",
      "min": [
        -0.881238759,
        -0.01977831,
        -3.321783
      ],
      "max": [
        0.9061515,
        2.48289871,
        6.551262
      ]
    },
    {
      "bufferView": 1,
      "byteOffset": 12,
      "componentType": 5126,
      "count": 2185,
      "type": "VEC3"
    },
    {
      "bufferView": 1,
      "byteOffset": 24,
      "componentType": 5126,
      "count": 2185,
      "type": "VEC2"
    },
    {
      "bufferView": 1,
      "byteOffset": 32,
      "componentType": 5126,
      "count": 2185,
      "type": "VEC4"
    },
    {
      "bufferView": 1,
      "byteOffset": 48,
      "componentType": 5121,
      "count": 2185,
      "type": "VEC4"
    },
    {
      "bufferView": 2,
      "byteOffset": 0,
      "componentType": 5126,
      "count": 52,
      "type": "MAT4"
    },
    {
      "bufferView": 3,
      "byteOffset": 0,
      "componentType": 5125,
      "count": 1164,
      "type": "SCALAR"
    },
    {
      "bufferView": 4,
      "byteOffset": 0,
      "componentType": 5126,
      "count": 298,
      "type": "VEC3",
      "min": [
        -3.29442763,
        1.59415007,
        -2.82422256
      ],
      "max": [
        3.31934047,
        7.112065,
        1.54081285
      ]
    },
    {
      "bufferView": 4,
      "byteOffset": 12,
      "componentType": 5126,
      "count": 298,
      "type": "VEC3"
    },
    {
      "bufferView": 4,
      "byteOffset": 24,
      "componentType": 5126,
      "count": 298,
      "type": "VEC2"
    },
    {
      "bufferView": 4,
      "byteOffset": 32,
      "componentType": 5126,
      "count": 298,
      "type": "VEC4"
    },
    {
      "bufferView": 4,
      "byteOffset": 48,
      "componentType": 5121,
      "count": 298,
      "type": "VEC4"
    },
    {
      "bufferView": 5,
      "byteOffset": 0,
      "componentType": 5126,
      "count": 15,
      "type": "MAT4"
    },
    {
      "bufferView": 6,
      "byteOffset": 0,
      "componentType": 5125,
      "count": 558,
      "type": "SCALAR"
    },
    {
      "bufferView": 7,
      "byteOffset": 0,
      "componentType": 5126,
      "count": 455,
      "type": "VEC3",
      "min": [
        -0.1690603,
        1.28372681,
        -3.21190524
      ],
      "max": [
        0.19397302,
        2.356828,
        -2.57138062
      ]
    },
    {
      "bufferView": 7,
      "byteOffset": 12,
      "componentType": 5126,
      "count": 455,
      "type": "VEC3"
    },
    {
      "bufferView": 7,
      "byteOffset": 24,
      "componentType": 5126,
      "count": 455,
      "type": "VEC2"
    },
    {
      "bufferView": 7,
      "byteOffset": 32,
      "componentType": 5126,
      "count": 455,
      "type": "VEC4"
    },
    {
      "bufferView": 7,
      "byteOffset": 48,
      "componentType": 5121,
      "count": 455,
      "type": "VEC4"
    },
    {
      "bufferView": 8,
      "byteOffset": 0,
      "componentType": 5126,
      "count": 3,
      "type": "MAT4"
    },
    {
      "bufferView": 9,
      "byteOffset": 0,
      "componentType": 5126,
      "count": 241,
      "type": "SCALAR",
      "min": [
        0.0
      ],
      "max": [
        8.0
      ]
    },
    {
      "bufferView": 10,
      "byteOffset": 0,
      "componentType": 5126,
      "count": 241,
      "type": "VEC4"
    },
    {
      "bufferView": 11,
      "byteOffset": 0,
      "componentType": 5126,
      "count": 241,
      "type": "VEC3"
    },
    {
      "bufferView": 10,
      "byteOffset": 3856,
      "componentType": 5126,
      "count": 241,
      "type": "VEC4"
    },
    {
      "bufferView": 11,
      "byteOffset": 2892,
      "componentType": 5126,
      "count": 241,
      "type": "VEC3"
    },
    {
      "bufferView": 10,
      "byteOffset": 7712,
      "componentType": 5126,
      "count": 241,
      "type": "VEC4"
    },
    {
      "bufferView": 11,
      "byteOffset": 5784,
      "componentType": 5126,
      "count": 241,
      "type": "VEC3"
    },
    {
      "bufferView": 10,
      "byteOffset": 11568,
      "componentType": 5126,
      "count": 241,
      "type": "VEC4"
    },
    {
      "bufferView": 11,
      "byteOffset": 8676,
      "componentType": 5126,
      "count": 241,
      "type": "VEC3"
    },
    {
      "bufferView": 10,
      "byteOffset": 15424,
      "componentType": 5126,
      "count": 241,
      "type": "VEC4"
    },
    {
      "bufferView": 11,
      "byteOffset": 11568,
      "componentType": 5126,
      "count": 241,
      "type": "VEC3"
    },
    {
      "bufferView": 10,
      "byteOffset": 19280,
      "componentType": 5126,
      "count": 241,
      "type": "VEC4"
    },
    {
      "bufferView": 11,
      "byteOffset": 14460,
      "componentType": 5126,
      "count": 241,
      "type": "VEC3"
    },
    {
      "bufferView": 10,
      "byteOffset": 23136,
      "componentType": 5126,
      "count": 241,
      "type": "VEC4"
    },
    {
      "bufferView": 11,
      "byteOffset": 17352,
      "componentType": 5126,
      "count": 241,
      "type": "VEC3"
    },
    {
      "bufferView": 10,
      "byteOffset": 26992,
      "componentType": 5126,
      "count": 241,
      "type": "VEC4"
    },
    {
      "bufferView": 11,
      "byteOffset": 20244,
      "componentType": 5126,
      "count": 241,
      "type": "VEC3"
    },
    {
      "bufferView": 10,
      "byteOffset": 30848,
      "componentType": 5126,
      "count": 241,
      "type": "VEC4"
    },
    {
      "bufferView": 11,
      "byteOffset": 23136,
      "componentType": 5126,
      "count": 241,
      "type": "VEC3"
    },
    {
      "bufferView": 10,
      "byteOffset": 34704,
      "componentType": 5126,
      "count": 241,
      "type": "VEC4"
    },
    {
      "bufferView": 11,
      "byteOffset": 26028,
      "componentType": 5126,
      "count": 241,
      "type": "VEC3"
    },
    {
      "bufferView": 10,
      "byteOffset": 38560,
      "componentType": 5126,
      "count": 241,
      "type": "VEC4"
    },
    {
      "bufferView": 11,
      "byteOffset": 28920,
      "componentType": 5126,
      "count": 241,
      "type": "VEC3"
    },
    {
      "bufferView": 10,
      "byteOffset": 42416,
      "componentType": 5126,
      "count": 241,
      "type": "VEC4"
    },
    {
      "bufferView": 11,
      "byteOffset": 31812,
      "componentType": 5126,
      "count": 241,
      "type": "VEC3"
    },
    {
      "bufferView": 10,
      "byteOffset": 46272,
      "componentType": 5126,
      "count": 241,
      "type": "VEC4"
    },
    {
      "bufferView": 11,
      "byteOffset": 34704,
      "componentType": 5126,
      "count": 241,
      "type": "VEC3"
    },
    {
      "bufferView": 10,
      "byteOffset": 50128,
      "componentType": 5126,
      "count": 241,
      "type": "VEC4"
    },
    {
      "bufferView": 11,
      "byteOffset": 37596,
      "componentType": 5126,
      "count": 241,
      "type": "VEC3"
    },
    {
      "bufferView": 10,
      "byteOffset": 53984,
      "componentType": 5126,
      "count": 241,
      "type": "VEC4"
    },
    {
      "bufferView": 11,
      "byteOffset": 40488,
      "componentType": 5126,
      "count": 241,
      "type": "VEC3"
    },
    {
      "bufferView": 10,
      "byteOffset": 57840,
      "componentType": 5126,
      "count": 241,
      "type": "VEC4"
    },
    {
      "bufferView": 11,
      "byteOffset": 43380,
      "componentType": 5126,
      "count": 241,
      "type": "VEC3"
    },
    {
      "bufferView": 10,
      "byteOffset": 61696,
      "componentType": 5126,
      "count": 241,
      "type": "VEC4"
    },
    {
      "bufferView": 11,
      "byteOffset": 46272,
      "componentType": 5126,
      "count": 241,
      "type": "VEC3"
    },
    {
      "bufferView": 10,
      "byteOffset": 65552,
      "componentType": 5126,
      "count": 241,
      "type": "VEC4"
    },
    {
      "bufferView": 11,
      "byteOffset": 49164,
      "componentType": 5126,
      "count": 241,
      "type": "VEC3"
    },
    {
      "bufferView": 10,
      "byteOffset": 69408,
      "componentType": 5126,
      "count": 241,
      "type": "VEC4"
    },
    {
      "bufferView": 11,
      "byteOffset": 52056,
      "componentType": 5126,
      "count": 241,
      "type": "VEC3"
    },
    {
      "bufferView": 10,
      "byteOffset": 73264,
      "componentType": 5126,
      "count": 241,
      "type": "VEC4"
    },
    {
      "bufferView": 11,
      "byteOffset": 54948,
      "componentType": 5126,
      "count": 241,
      "type": "VEC3"
    },
    {
      "bufferView": 10,
      "byteOffset": 77120,
      "componentType": 5126,
      "count": 241,
      "type": "VEC4"
    },
    {
      "bufferView": 11,
      "byteOffset": 57840,
      "componentType": 5126,
      "count": 241,
      "type": "VEC3"
    },
    {
      "bufferView": 10,
      "byteOffset": 80976,
      "componentType": 5126,
      "count": 241,
      "type": "VEC4"
    },
    {
      "bufferView": 11,
      "byteOffset": 60732,
      "componentType": 5126,
      "count": 241,
      "type": "VEC3"
    },
    {
      "bufferView": 10,
      "byteOffset": 84832,
      "componentType": 5126,
      "count": 241,
      "type": "VEC4"
    },
    {
      "bufferView": 11,
      "byteOffset": 63624,
      "componentType": 5126,
      "count": 241,
      "type": "VEC3"
    },
    {
      "bufferView": 10,
      "byteOffset": 88688,
      "componentType": 5126,
      "count": 241,
      "type": "VEC4"
    },
    {
      "bufferView": 11,
      "byteOffset": 66516,
      "componentType": 5126,
      "count": 241,
      "type": "VEC3"
    },
    {
      "bufferView": 10,
      "byteOffset": 92544,
      "componentType": 5126,
      "count": 241,
      "type": "VEC4"
    },
    {
      "bufferView": 11,
      "byteOffset": 69408,
      "componentType": 5126,
      "count": 241,
      "type": "VEC3"
    },
    {
      "bufferView": 10,
      "byteOffset": 96400,
      "componentType": 5126,
      "count": 241,
      "type": "VEC4"
    },
    {
      "bufferView": 11,
      "byteOffset": 72300,
      "componentType": 5126,
      "count": 241,
      "type": "VEC3"
    },
    {
      "bufferView": 10,
      "byteOffset": 100256,
      "componentType": 5126,
      "count": 241,
      "type": "VEC4"
    },
    {
      "bufferView": 11,
      "byteOffset": 75192,
      "componentType": 5126,
      "count": 241,
      "type": "VEC3"
    },
    {
      "bufferView": 10,
      "byteOffset": 104112,
      "componentType": 5126,
      "count": 241,
      "type": "VEC4"
    },
    {
      "bufferView": 11,
      "byteOffset": 78084,
      "componentType": 5126,
      "count": 241,
      "type": "VEC3"
    },
    {
      "bufferView": 10,
      "byteOffset": 107968,
      "componentType": 5126,
      "count": 241,
      "type": "VEC4"
    },
    {
      "bufferView": 11,
      "byteOffset": 80976,
      "componentType": 5126,
      "count": 241,
      "type": "VEC3"
    },
    {
      "bufferView": 10,
      "byteOffset": 111824,
      "componentType": 5126,
      "count": 241,
      "type": "VEC4"
    },
    {
      "bufferView": 11,
      "byteOffset": 83868,
      "componentType": 5126,
      "count": 241,
      "type": "VEC3"
    },
    {
      "bufferView": 10,
      "byteOffset": 115680,
      "componentType": 5126,
      "count": 241,
      "type": "VEC4"
    },
    {
      "bufferView": 11,
      "byteOffset": 86760,
      "componentType": 5126,
      "count": 241,
      "type": "VEC3"
    },
    {
      "bufferView": 10,
      "byteOffset": 119536,
      "componentType": 5126,
      "count": 241,
      "type": "VEC4"
    },
    {
      "bufferView": 11,
      "byteOffset": 89652,
      "componentType": 5126,
      "count": 241,
      "type": "VEC3"
    },
    {
      "bufferView": 10,
      "byteOffset": 123392,
      "componentType": 5126,
      "count": 241,
      "type": "VEC4"
    },
    {
      "bufferView": 11,
      "byteOffset": 92544,
      "componentType": 5126,
      "count": 241,
      "type": "VEC3"
    },
    {
      "bufferView": 10,
      "byteOffset": 127248,
      "componentType": 5126,
      "count": 241,
      "type": "VEC4"
    },
    {
      "bufferView": 11,
      "byteOffset": 95436,
      "componentType": 5126,
      "count": 241,
      "type": "VEC3"
    },
    {
      "bufferView": 10,
      "byteOffset": 131104,
      "componentType": 5126,
      "count": 241,
      "type": "VEC4"
    },
    {
      "bufferView": 11,
      "byteOffset": 98328,
      "componentType": 5126,
      "count": 241,
      "type": "VEC3"
    },
    {
      "bufferView": 10,
      "byteOffset": 134960,
      "componentType": 5126,
      "count": 241,
      "type": "VEC4"
    },
    {
      "bufferView": 11,
      "byteOffset": 101220,
      "componentType": 5126,
      "count": 241,
      "type": "VEC3"
    },
    {
      "bufferView": 10,
      "byteOffset": 138816,
      "componentType": 5126,
      "count": 241,
      "type": "VEC4"
    },
    {
      "bufferView": 11,
      "byteOffset": 104112,
      "componentType": 5126,
      "count": 241,
      "type": "VEC3"
    },
    {
      "bufferView": 10,
      "byteOffset": 142672,
      "componentType": 5126,
      "count": 241,
      "type": "VEC4"
    },
    {
      "bufferView": 11,
      "byteOffset": 107004,
      "componentType": 5126,
      "count": 241,
      "type": "VEC3"
    },
    {
      "bufferView": 10,
      "byteOffset": 146528,
      "componentType": 5126,
      "count": 241,
      "type": "VEC4"
    },
    {
      "bufferView": 11,
      "byteOffset": 109896,
      "componentType": 5126,
      "count": 241,
      "type": "VEC3"
    },
    {
      "bufferView": 10,
      "byteOffset": 150384,
      "componentType": 5126,
      "count": 241,
      "type": "VEC4"
    },
    {
      "bufferView": 11,
      "byteOffset": 112788,
      "componentType": 5126,
      "count": 241,
      "type": "VEC3"
    },
    {
      "bufferView": 10,
      "byteOffset": 154240,
      "componentType": 5126,
      "count": 241,
      "type": "VEC4"
    },
    {
      "bufferView": 11,
      "byteOffset": 115680,
      "componentType": 5126,
      "count": 241,
      "type": "VEC3"
    },
    {
      "bufferView": 10,
      "byteOffset": 158096,
      "componentType": 5126,
      "count": 241,
      "type": "VEC4"
    },
    {
      "bufferView": 11,
      "byteOffset": 118572,
      "componentType": 5126,
      "count": 241,
      "type": "VEC3"
    },
    {
      "bufferView": 10,
      "byteOffset": 161952,
      "componentType": 5126,
      "count": 241,
      "type": "VEC4"
    },
    {
      "bufferView": 11,
      "byteOffset": 121464,
      "componentType": 5126,
      "count": 241,
      "type": "VEC3"
    },
    {
      "bufferView": 10,
      "byteOffset": 165808,
      "componentType": 5126,
      "count": 241,
      "type": "VEC4"
    },
    {
      "bufferView": 11,
      "byteOffset": 124356,
      "componentType": 5126,
      "count": 241,
      "type": "VEC3"
    },
    {
      "bufferView": 10,
      "byteOffset": 169664,
      "componentType": 5126,
      "count": 241,
      "type": "VEC4"
    },
    {
      "bufferView": 11,
      "byteOffset": 127248,
      "componentType": 5126,
      "count": 241,
      "type": "VEC3"
    },
    {
      "bufferView": 10,
      "byteOffset": 173520,
      "componentType": 5126,
      "count": 241,
      "type": "VEC4"
    },
    {
      "bufferView": 11,
      "byteOffset": 130140,
      "componentType": 5126,
      "count": 241,
      "type": "VEC3"
    },
    {
      "bufferView": 10,
      "byteOffset": 177376,
      "componentType": 5126,
      "count": 241,
      "type": "VEC4"
    },
    {
      "bufferView": 11,
      "byteOffset": 133032,
      "componentType": 5126,
      "count": 241,
      "type": "VEC3"
    },
    {
      "bufferView": 10,
      "byteOffset": 181232,
      "componentType": 5126,
      "count": 241,
      "type": "VEC4"
    },
    {
      "bufferView": 11,
      "byteOffset": 135924,
      "componentType": 5126,
      "count": 241,
      "type": "VEC3"
    },
    {
      "bufferView": 10,
      "byteOffset": 185088,
      "componentType": 5126,
      "count": 241,
      "type": "VEC4"
    },
    {
      "bufferView": 11,
      "byteOffset": 138816,
      "componentType": 5126,
      "count": 241,
      "type": "VEC3"
    },
    {
      "bufferView": 10,
      "byteOffset": 188944,
      "componentType": 5126,
      "count": 241,
      "type": "VEC4"
    },
    {
      "bufferView": 11,
      "byteOffset": 141708,
      "componentType": 5126,
      "count": 241,
      "type": "VEC3"
    },
    {
      "bufferView": 10,
      "byteOffset": 192800,
      "componentType": 5126,
      "count": 241,
      "type": "VEC4"
    },
    {
      "bufferView": 11,
      "byteOffset": 144600,
      "componentType": 5126,
      "count": 241,
      "type": "VEC3"
    },
    {
      "bufferView": 10,
      "byteOffset": 196656,
      "componentType": 5126,
      "count": 241,
      "type": "VEC4"
    },
    {
      "bufferView": 11,
      "byteOffset": 147492,
      "componentType": 5126,
      "count": 241,
      "type": "VEC3"
    },
    {
      "bufferView": 10,
      "byteOffset": 200512,
      "componentType": 5126,
      "count": 241,
      "type": "VEC4"
    },
    {
      "bufferView": 11,
      "byteOffset": 150384,
      "componentType": 5126,
      "count": 241,
      "type": "VEC3"
    },
    {
      "bufferView": 10,
      "byteOffset": 204368,
      "componentType": 5126,
      "count": 241,
      "type": "VEC4"
    },
    {
      "bufferView": 11,
      "byteOffset": 153276,
      "componentType": 5126,
      "count": 241,
      "type": "VEC3"
    },
    {
      "bufferView": 10,
      "byteOffset": 208224,
      "componentType": 5126,
      "count": 241,
      "type": "VEC4"
    },
    {
      "bufferView": 11,
      "byteOffset": 156168,
      "componentType": 5126,
      "count": 241,
      "type": "VEC3"
    },
    {
      "bufferView": 10,
      "byteOffset": 212080,
      "componentType": 5126,
      "count": 241,
      "type": "VEC4"
    },
    {
      "bufferView": 11,
      "byteOffset": 159060,
      "componentType": 5126,
      "count": 241,
      "type": "VEC3"
    },
    {
      "bufferView": 10,
      "byteOffset": 215936,
      "componentType": 5126,
      "count": 241,
      "type": "VEC4"
    },
    {
      "bufferView": 11,
      "byteOffset": 161952,
      "componentType": 5126,
      "count": 241,
      "type": "VEC3"
    },
    {
      "bufferView": 10,
      "byteOffset": 219792,
      "componentType": 5126,
      "count": 241,
      "type": "VEC4"
    },
    {
      "bufferView": 11,
      "byteOffset": 164844,
      "componentType": 5126,
      "count": 241,
      "type": "VEC3"
    }
  ],
  "skins": [
    {
      "name": "skin0",
      "inverseBindMatrices": 6,
      "joints": [
        9,
        12,
        10,
        5,
        6,
        57,
        59,
        4,
        36,
        32,
        14,
        15,
        16,
        52,
        7,
        8,
        17,
        37,
        38,
        39,
        43,
        53,
        54,
        55,
        19,
        20,
        21,
        22,
        56,
        41,
        42,
        40,
        11,
        18,
        44,
        24,
        23,
        25,
        34,
        26,
        45,
        46,
        47,
        51,
        28,
        29,
        30,
        31,
        49,
        50,
        48,
        27
      ]
    },
    {
      "name": "skin1",
      "inverseBindMatrices": 13,
      "joints": [
        57,
        58,
        33,
        32,
        14,
        5,
        4,
        59,
        6,
        15,
        60,
        34,
        35,
        23,
        24
      ]
    },
    {
      "name": "skin2",
      "inverseBindMatrices": 20,
      "joints": [
        9,
        8,
        11
      ]
    }
  ],
  "meshes": [
    {
      "name": "neutrals_greendragon_body",
      "primitives": [
        {
          "attributes": {
            "POSITION": 1,
            "NORMAL": 2,
            "TEXCOORD_0": 3,
            "WEIGHTS_0": 4,
            "JOINTS_0": 5
          },
          "indices": 0,
          "mode": 4,
          "material": 0
        }
      ]
    },
    {
      "name": "neutrals_greendragon_wings",
      "primitives": [
        {
          "attributes": {
            "POSITION": 8,
            "NORMAL": 9,
            "TEXCOORD_0": 10,
            "WEIGHTS_0": 11,
            "JOINTS_0": 12
          },
          "indices": 7,
          "mode": 4,
          "material": 1
        }
      ]
    },
    {
      "name": "neutrals_greendragon_helm",
      "primitives": [
        {
          "attributes": {
            "POSITION": 15,
            "NORMAL": 16,
            "TEXCOORD_0": 17,
            "WEIGHTS_0": 18,
            "JOINTS_0": 19
          },
          "indices": 14,
          "mode": 4,
          "material": 2
        }
      ]
    }
  ],
  "animations": [
    {
      "channels": [
        {
          "sampler": 0,
          "target": {
            "node": 3,
            "path": "rotation"
          }
        },
        {
          "sampler": 1,
          "target": {
            "node": 3,
            "path": "translation"
          }
        },
        {
          "sampler": 2,
          "target": {
            "node": 4,
            "path": "rotation"
          }
        },
        {
          "sampler": 3,
          "target": {
            "node": 4,
            "path": "translation"
          }
        },
        {
          "sampler": 4,
          "target": {
            "node": 5,
            "path": "rotation"
          }
        },
        {
          "sampler": 5,
          "target": {
            "node": 5,
            "path": "translation"
          }
        },
        {
          "sampler": 6,
          "target": {
            "node": 6,
            "path": "rotation"
          }
        },
        {
          "sampler": 7,
          "target": {
            "node": 6,
            "path": "translation"
          }
        },
        {
          "sampler": 8,
          "target": {
            "node": 7,
            "path": "rotation"
          }
        },
        {
          "sampler": 9,
          "target": {
            "node": 7,
            "path": "translation"
          }
        },
        {
          "sampler": 10,
          "target": {
            "node": 8,
            "path": "rotation"
          }
        },
        {
          "sampler": 11,
          "target": {
            "node": 8,
            "path": "translation"
          }
        },
        {
          "sampler": 12,
          "target": {
            "node": 9,
            "path": "rotation"
          }
        },
        {
          "sampler": 13,
          "target": {
            "node": 9,
            "path": "translation"
          }
        },
        {
          "sampler": 14,
          "target": {
            "node": 10,
            "path": "rotation"
          }
        },
        {
          "sampler": 15,
          "target": {
            "node": 10,
            "path": "translation"
          }
        },
        {
          "sampler": 16,
          "target": {
            "node": 11,
            "path": "rotation"
          }
        },
        {
          "sampler": 17,
          "target": {
            "node": 11,
            "path": "translation"
          }
        },
        {
          "sampler": 18,
          "target": {
            "node": 12,
            "path": "rotation"
          }
        },
        {
          "sampler": 19,
          "target": {
            "node": 12,
            "path": "translation"
          }
        },
        {
          "sampler": 20,
          "target": {
            "node": 13,
            "path": "rotation"
          }
        },
        {
          "sampler": 21,
          "target": {
            "node": 13,
            "path": "translation"
          }
        },
        {
          "sampler": 22,
          "target": {
            "node": 14,
            "path": "rotation"
          }
        },
        {
          "sampler": 23,
          "target": {
            "node": 14,
            "path": "translation"
          }
        },
        {
          "sampler": 24,
          "target": {
            "node": 15,
            "path": "rotation"
          }
        },
        {
          "sampler": 25,
          "target": {
            "node": 15,
            "path": "translation"
          }
        },
        {
          "sampler": 26,
          "target": {
            "node": 16,
            "path": "rotation"
          }
        },
        {
          "sampler": 27,
          "target": {
            "node": 16,
            "path": "translation"
          }
        },
        {
          "sampler": 28,
          "target": {
            "node": 17,
            "path": "rotation"
          }
        },
        {
          "sampler": 29,
          "target": {
            "node": 17,
            "path": "translation"
          }
        },
        {
          "sampler": 30,
          "target": {
            "node": 18,
            "path": "rotation"
          }
        },
        {
          "sampler": 31,
          "target": {
            "node": 18,
            "path": "translation"
          }
        },
        {
          "sampler": 32,
          "target": {
            "node": 19,
            "path": "rotation"
          }
        },
        {
          "sampler": 33,
          "target": {
            "node": 19,
            "path": "translation"
          }
        },
        {
          "sampler": 34,
          "target": {
            "node": 20,
            "path": "rotation"
          }
        },
        {
          "sampler": 35,
          "target": {
            "node": 20,
            "path": "translation"
          }
        },
        {
          "sampler": 36,
          "target": {
            "node": 21,
            "path": "rotation"
          }
        },
        {
          "sampler": 37,
          "target": {
            "node": 21,
            "path": "translation"
          }
        },
        {
          "sampler": 38,
          "target": {
            "node": 22,
            "path": "rotation"
          }
        },
        {
          "sampler": 39,
          "target": {
            "node": 22,
            "path": "translation"
          }
        },
        {
          "sampler": 40,
          "target": {
            "node": 23,
            "path": "rotation"
          }
        },
        {
          "sampler": 41,
          "target": {
            "node": 23,
            "path": "translation"
          }
        },
        {
          "sampler": 42,
          "target": {
            "node": 24,
            "path": "rotation"
          }
        },
        {
          "sampler": 43,
          "target": {
            "node": 24,
            "path": "translation"
          }
        },
        {
          "sampler": 44,
          "target": {
            "node": 25,
            "path": "rotation"
          }
        },
        {
          "sampler": 45,
          "target": {
            "node": 25,
            "path": "translation"
          }
        },
        {
          "sampler": 46,
          "target": {
            "node": 26,
            "path": "rotation"
          }
        },
        {
          "sampler": 47,
          "target": {
            "node": 26,
            "path": "translation"
          }
        },
        {
          "sampler": 48,
          "target": {
            "node": 27,
            "path": "rotation"
          }
        },
        {
          "sampler": 49,
          "target": {
            "node": 27,
            "path": "translation"
          }
        },
        {
          "sampler": 50,
          "target": {
            "node": 28,
            "path": "rotation"
          }
        },
        {
          "sampler": 51,
          "target": {
            "node": 28,
            "path": "translation"
          }
        },
        {
          "sampler": 52,
          "target": {
            "node": 29,
            "path": "rotation"
          }
        },
        {
          "sampler": 53,
          "target": {
            "node": 29,
            "path": "translation"
          }
        },
        {
          "sampler": 54,
          "target": {
            "node": 30,
            "path": "rotation"
          }
        },
        {
          "sampler": 55,
          "target": {
            "node": 30,
            "path": "translation"
          }
        },
        {
          "sampler": 56,
          "target": {
            "node": 31,
            "path": "rotation"
          }
        },
        {
          "sampler": 57,
          "target": {
            "node": 31,
            "path": "translation"
          }
        },
        {
          "sampler": 58,
          "target": {
            "node": 32,
            "path": "rotation"
          }
        },
        {
          "sampler": 59,
          "target": {
            "node": 32,
            "path": "translation"
          }
        },
        {
          "sampler": 60,
          "target": {
            "node": 33,
            "path": "rotation"
          }
        },
        {
          "sampler": 61,
          "target": {
            "node": 33,
            "path": "translation"
          }
        },
        {
          "sampler": 62,
          "target": {
            "node": 34,
            "path": "rotation"
          }
        },
        {
          "sampler": 63,
          "target": {
            "node": 34,
            "path": "translation"
          }
        },
        {
          "sampler": 64,
          "target": {
            "node": 35,
            "path": "rotation"
          }
        },
        {
          "sampler": 65,
          "target": {
            "node": 35,
            "path": "translation"
          }
        },
        {
          "sampler": 66,
          "target": {
            "node": 36,
            "path": "rotation"
          }
        },
        {
          "sampler": 67,
          "target": {
            "node": 36,
            "path": "translation"
          }
        },
        {
          "sampler": 68,
          "target": {
            "node": 37,
            "path": "rotation"
          }
        },
        {
          "sampler": 69,
          "target": {
            "node": 37,
            "path": "translation"
          }
        },
        {
          "sampler": 70,
          "target": {
            "node": 38,
            "path": "rotation"
          }
        },
        {
          "sampler": 71,
          "target": {
            "node": 38,
            "path": "translation"
          }
        },
        {
          "sampler": 72,
          "target": {
            "node": 39,
            "path": "rotation"
          }
        },
        {
          "sampler": 73,
          "target": {
            "node": 39,
            "path": "translation"
          }
        },
        {
          "sampler": 74,
          "target": {
            "node": 40,
            "path": "rotation"
          }
        },
        {
          "sampler": 75,
          "target": {
            "node": 40,
            "path": "translation"
          }
        },
        {
          "sampler": 76,
          "target": {
            "node": 41,
            "path": "rotation"
          }
        },
        {
          "sampler": 77,
          "target": {
            "node": 41,
            "path": "translation"
          }
        },
        {
          "sampler": 78,
          "target": {
            "node": 42,
            "path": "rotation"
          }
        },
        {
          "sampler": 79,
          "target": {
            "node": 42,
            "path": "translation"
          }
        },
        {
          "sampler": 80,
          "target": {
            "node": 43,
            "path": "rotation"
          }
        },
        {
          "sampler": 81,
          "target": {
            "node": 43,
            "path": "translation"
          }
        },
        {
          "sampler": 82,
          "target": {
            "node": 44,
            "path": "rotation"
          }
        },
        {
          "sampler": 83,
          "target": {
            "node": 44,
            "path": "translation"
          }
        },
        {
          "sampler": 84,
          "target": {
            "node": 45,
            "path": "rotation"
          }
        },
        {
          "sampler": 85,
          "target": {
            "node": 45,
            "path": "translation"
          }
        },
        {
          "sampler": 86,
          "target": {
            "node": 46,
            "path": "rotation"
          }
        },
        {
          "sampler": 87,
          "target": {
            "node": 46,
            "path": "translation"
          }
        },
        {
          "sampler": 88,
          "target": {
            "node": 47,
            "path": "rotation"
          }
        },
        {
          "sampler": 89,
          "target": {
            "node": 47,
            "path": "translation"
          }
        },
        {
          "sampler": 90,
          "target": {
            "node": 48,
            "path": "rotation"
          }
        },
        {
          "sampler": 91,
          "target": {
            "node": 48,
            "path": "translation"
          }
        },
        {
          "sampler": 92,
          "target": {
            "node": 49,
            "path": "rotation"
          }
        },
        {
          "sampler": 93,
          "target": {
            "node": 49,
            "path": "translation"
          }
        },
        {
          "sampler": 94,
          "target": {
            "node": 50,
            "path": "rotation"
          }
        },
        {
          "sampler": 95,
          "target": {
            "node": 50,
            "path": "translation"
          }
        },
        {
          "sampler": 96,
          "target": {
            "node": 51,
            "path": "rotation"
          }
        },
        {
          "sampler": 97,
          "target": {
            "node": 51,
            "path": "translation"
          }
        },
        {
          "sampler": 98,
          "target": {
            "node": 52,
            "path": "rotation"
          }
        },
        {
          "sampler": 99,
          "target": {
            "node": 52,
            "path": "translation"
          }
        },
        {
          "sampler": 100,
          "target": {
            "node": 53,
            "path": "rotation"
          }
        },
        {
          "sampler": 101,
          "target": {
            "node": 53,
            "path": "translation"
          }
        },
        {
          "sampler": 102,
          "target": {
            "node": 54,
            "path": "rotation"
          }
        },
        {
          "sampler": 103,
          "target": {
            "node": 54,
            "path": "translation"
          }
        },
        {
          "sampler": 104,
          "target": {
            "node": 55,
            "path": "rotation"
          }
        },
        {
          "sampler": 105,
          "target": {
            "node": 55,
            "path": "translation"
          }
        },
        {
          "sampler": 106,
          "target": {
            "node": 56,
            "path": "rotation"
          }
        },
        {
          "sampler": 107,
          "target": {
            "node": 56,
            "path": "translation"
          }
        },
        {
          "sampler": 108,
          "target": {
            "node": 57,
            "path": "rotation"
          }
        },
        {
          "sampler": 109,
          "target": {
            "node": 57,
            "path": "translation"
          }
        },
        {
          "sampler": 110,
          "target": {
            "node": 58,
            "path": "rotation"
          }
        },
        {
          "sampler": 111,
          "target": {
            "node": 58,
            "path": "translation"
          }
        },
        {
          "sampler": 112,
          "target": {
            "node": 59,
            "path": "rotation"
          }
        },
        {
          "sampler": 113,
          "target": {
            "node": 59,
            "path": "translation"
          }
        },
        {
          "sampler": 114,
          "target": {
            "node": 60,
            "path": "rotation"
          }
        },
        {
          "sampler": 115,
          "target": {
            "node": 60,
            "path": "translation"
          }
        }
      ],
      "samplers": [
        {
          "input": 21,
          "output": 22,
          "interpolation": "LINEAR"
        },
        {
          "input": 21,
          "output": 23,
          "interpolation": "LINEAR"
        },
        {
          "input": 21,
          "output": 24,
          "interpolation": "LINEAR"
        },
        {
          "input": 21,
          "output": 25,
          "interpolation": "LINEAR"
        },
        {
          "input": 21,
          "output": 26,
          "interpolation": "LINEAR"
        },
        {
          "input": 21,
          "output": 27,
          "interpolation": "LINEAR"
        },
        {
          "input": 21,
          "output": 28,
          "interpolation": "LINEAR"
        },
        {
          "input": 21,
          "output": 29,
          "interpolation": "LINEAR"
        },
        {
          "input": 21,
          "output": 30,
          "interpolation": "LINEAR"
        },
        {
          "input": 21,
          "output": 31,
          "interpolation": "LINEAR"
        },
        {
          "input": 21,
          "output": 32,
          "interpolation": "LINEAR"
        },
        {
          "input": 21,
          "output": 33,
          "interpolation": "LINEAR"
        },
        {
          "input": 21,
          "output": 34,
          "interpolation": "LINEAR"
        },
        {
          "input": 21,
          "output": 35,
          "interpolation": "LINEAR"
        },
        {
          "input": 21,
          "output": 36,
          "interpolation": "LINEAR"
        },
        {
          "input": 21,
          "output": 37,
          "interpolation": "LINEAR"
        },
        {
          "input": 21,
          "output": 38,
          "interpolation": "LINEAR"
        },
        {
          "input": 21,
          "output": 39,
          "interpolation": "LINEAR"
        },
        {
          "input": 21,
          "output": 40,
          "interpolation": "LINEAR"
        },
        {
          "input": 21,
          "output": 41,
          "interpolation": "LINEAR"
        },
        {
          "input": 21,
          "output": 42,
          "interpolation": "LINEAR"
        },
        {
          "input": 21,
          "output": 43,
          "interpolation": "LINEAR"
        },
        {
          "input": 21,
          "output": 44,
          "interpolation": "LINEAR"
        },
        {
          "input": 21,
          "output": 45,
          "interpolation": "LINEAR"
        },
        {
          "input": 21,
          "output": 46,
          "interpolation": "LINEAR"
        },
        {
          "input": 21,
          "output": 47,
          "interpolation": "LINEAR"
        },
        {
          "input": 21,
          "output": 48,
          "interpolation": "LINEAR"
        },
        {
          "input": 21,
          "output": 49,
          "interpolation": "LINEAR"
        },
        {
          "input": 21,
          "output": 50,
          "interpolation": "LINEAR"
        },
        {
          "input": 21,
          "output": 51,
          "interpolation": "LINEAR"
        },
        {
          "input": 21,
          "output": 52,
          "interpolation": "LINEAR"
        },
        {
          "input": 21,
          "output": 53,
          "interpolation": "LINEAR"
        },
        {
          "input": 21,
          "output": 54,
          "interpolation": "LINEAR"
        },
        {
          "input": 21,
          "output": 55,
          "interpolation": "LINEAR"
        },
        {
          "input": 21,
          "output": 56,
          "interpolation": "LINEAR"
        },
        {
          "input": 21,
          "output": 57,
          "interpolation": "LINEAR"
        },
        {
          "input": 21,
          "output": 58,
          "interpolation": "LINEAR"
        },
        {
          "input": 21,
          "output": 59,
          "interpolation": "LINEAR"
        },
        {
          "input": 21,
          "output": 60,
          "interpolation": "LINEAR"
        },
        {
          "input": 21,
          "output": 61,
          "interpolation": "LINEAR"
        },
        {
          "input": 21,
          "output": 62,
          "interpolation": "LINEAR"
        },
        {
          "input": 21,
          "output": 63,
          "interpolation": "LINEAR"
        },
        {
          "input": 21,
          "output": 64,
          "interpolation": "LINEAR"
        },
        {
          "input": 21,
          "output": 65,
          "interpolation": "LINEAR"
        },
        {
          "input": 21,
          "output": 66,
          "interpolation": "LINEAR"
        },
        {
          "input": 21,
          "output": 67,
          "interpolation": "LINEAR"
        },
        {
          "input": 21,
          "output": 68,
          "interpolation": "LINEAR"
        },
        {
          "input": 21,
          "output": 69,
          "interpolation": "LINEAR"
        },
        {
          "input": 21,
          "output": 70,
          "interpolation": "LINEAR"
        },
        {
          "input": 21,
          "output": 71,
          "interpolation": "LINEAR"
        },
        {
          "input": 21,
          "output": 72,
          "interpolation": "LINEAR"
        },
        {
          "input": 21,
          "output": 73,
          "interpolation": "LINEAR"
        },
        {
          "input": 21,
          "output": 74,
          "interpolation": "LINEAR"
        },
        {
          "input": 21,
          "output": 75,
          "interpolation": "LINEAR"
        },
        {
          "input": 21,
          "output": 76,
          "interpolation": "LINEAR"
        },
        {
          "input": 21,
          "output": 77,
          "interpolation": "LINEAR"
        },
        {
          "input": 21,
          "output": 78,
          "interpolation": "LINEAR"
        },
        {
          "input": 21,
          "output": 79,
          "interpolation": "LINEAR"
        },
        {
          "input": 21,
          "output": 80,
          "interpolation": "LINEAR"
        },
        {
          "input": 21,
          "output": 81,
          "interpolation": "LINEAR"
        },
        {
          "input": 21,
          "output": 82,
          "interpolation": "LINEAR"
        },
        {
          "input": 21,
          "output": 83,
          "interpolation": "LINEAR"
        },
        {
          "input": 21,
          "output": 84,
          "interpolation": "LINEAR"
        },
        {
          "input": 21,
          "output": 85,
          "interpolation": "LINEAR"
        },
        {
          "input": 21,
          "output": 86,
          "interpolation": "LINEAR"
        },
        {
          "input": 21,
          "output": 87,
          "interpolation": "LINEAR"
        },
        {
          "input": 21,
          "output": 88,
          "interpolation": "LINEAR"
        },
        {
          "input": 21,
          "output": 89,
          "interpolation": "LINEAR"
        },
        {
          "input": 21,
          "output": 90,
          "interpolation": "LINEAR"
        },
        {
          "input": 21,
          "output": 91,
          "interpolation": "LINEAR"
        },
        {
          "input": 21,
          "output": 92,
          "interpolation": "LINEAR"
        },
        {
          "input": 21,
          "output": 93,
          "interpolation": "LINEAR"
        },
        {
          "input": 21,
          "output": 94,
          "interpolation": "LINEAR"
        },
        {
          "input": 21,
          "output": 95,
          "interpolation": "LINEAR"
        },
        {
          "input": 21,
          "output": 96,
          "interpolation": "LINEAR"
        },
        {
          "input": 21,
          "output": 97,
          "interpolation": "LINEAR"
        },
        {
          "input": 21,
          "output": 98,
          "interpolation": "LINEAR"
        },
        {
          "input": 21,
          "output": 99,
          "interpolation": "LINEAR"
        },
        {
          "input": 21,
          "output": 100,
          "interpolation": "LINEAR"
        },
        {
          "input": 21,
          "output": 101,
          "interpolation": "LINEAR"
        },
        {
          "input": 21,
          "output": 102,
          "interpolation": "LINEAR"
        },
        {
          "input": 21,
          "output": 103,
          "interpolation": "LINEAR"
        },
        {
          "input": 21,
          "output": 104,
          "interpolation": "LINEAR"
        },
        {
          "input": 21,
          "output": 105,
          "interpolation": "LINEAR"
        },
        {
          "input": 21,
          "output": 106,
          "interpolation": "LINEAR"
        },
        {
          "input": 21,
          "output": 107,
          "interpolation": "LINEAR"
        },
        {
          "input": 21,
          "output": 108,
          "interpolation": "LINEAR"
        },
        {
          "input": 21,
          "output": 109,
          "interpolation": "LINEAR"
        },
        {
          "input": 21,
          "output": 110,
          "interpolation": "LINEAR"
        },
        {
          "input": 21,
          "output": 111,
          "interpolation": "LINEAR"
        },
        {
          "input": 21,
          "output": 112,
          "interpolation": "LINEAR"
        },
        {
          "input": 21,
          "output": 113,
          "interpolation": "LINEAR"
        },
        {
          "input": 21,
          "output": 114,
          "interpolation": "LINEAR"
        },
        {
          "input": 21,
          "output": 115,
          "interpolation": "LINEAR"
        },
        {
          "input": 21,
          "output": 116,
          "interpolation": "LINEAR"
        },
        {
          "input": 21,
          "output": 117,
          "interpolation": "LINEAR"
        },
        {
          "input": 21,
          "output": 118,
          "interpolation": "LINEAR"
        },
        {
          "input": 21,
          "output": 119,
          "interpolation": "LINEAR"
        },
        {
          "input": 21,
          "output": 120,
          "interpolation": "LINEAR"
        },
        {
          "input": 21,
          "output": 121,
          "interpolation": "LINEAR"
        },
        {
          "input": 21,
          "output": 122,
          "interpolation": "LINEAR"
        },
        {
          "input": 21,
          "output": 123,
          "interpolation": "LINEAR"
        },
        {
          "input": 21,
          "output": 124,
          "interpolation": "LINEAR"
        },
        {
          "input": 21,
          "output": 125,
          "interpolation": "LINEAR"
        },
        {
          "input": 21,
          "output": 126,
          "interpolation": "LINEAR"
        },
        {
          "input": 21,
          "output": 127,
          "interpolation": "LINEAR"
        },
        {
          "input": 21,
          "output": 128,
          "interpolation": "LINEAR"
        },
        {
          "input": 21,
          "output": 129,
          "interpolation": "LINEAR"
        },
        {
          "input": 21,
          "output": 130,
          "interpolation": "LINEAR"
        },
        {
          "input": 21,
          "output": 131,
          "interpolation": "LINEAR"
        },
        {
          "input": 21,
          "output": 132,
          "interpolation": "LINEAR"
        },
        {
          "input": 21,
          "output": 133,
          "interpolation": "LINEAR"
        },
        {
          "input": 21,
          "output": 134,
          "interpolation": "LINEAR"
        },
        {
          "input": 21,
          "output": 135,
          "interpolation": "LINEAR"
        },
        {
          "input": 21,
          "output": 136,
          "interpolation": "LINEAR"
        },
        {
          "input": 21,
          "output": 137,
          "interpolation": "LINEAR"
        }
      ]
    }
  ],
  "bufferViews": [
    {
      "name": "mesh_indexes_neutrals_greendragon_body",
      "buffer": 0,
      "byteOffset": 0,
      "byteLength": 37008,
      "target": 34963
    },
    {
      "name": "mesh_vertexes_neutrals_greendragon_body",
      "buffer": 0,
      "byteOffset": 37008,
      "byteLength": 113620,
      "byteStride": 52,
      "target": 34962
    },
    {
      "name": "mesh_bones_neutrals_greendragon_body",
      "buffer": 0,
      "byteOffset": 150628,
      "byteLength": 3328
    },
    {
      "name": "mesh_indexes_neutrals_greendragon_wings",
      "buffer": 0,
      "byteOffset": 153956,
      "byteLength": 4656,
      "target": 34963
    },
    {
      "name": "mesh_vertexes_neutrals_greendragon_wings",
      "buffer": 0,
      "byteOffset": 158612,
      "byteLength": 15496,
      "byteStride": 52,
      "target": 34962
    },
    {
      "name": "mesh_bones_neutrals_greendragon_wings",
      "buffer": 0,
      "byteOffset": 174108,
      "byteLength": 960
    },
    {
      "name": "mesh_indexes_neutrals_greendragon_helm",
      "buffer": 0,
      "byteOffset": 175068,
      "byteLength": 2232,
      "target": 34963
    },
    {
      "name": "mesh_vertexes_neutrals_greendragon_helm",
      "buffer": 0,
      "byteOffset": 177300,
      "byteLength": 23660,
      "byteStride": 52,
      "target": 34962
    },
    {
      "name": "mesh_bones_neutrals_greendragon_helm",
      "buffer": 0,
      "byteOffset": 200960,
      "byteLength": 192
    },
    {
      "name": "frames",
      "buffer": 0,
      "byteOffset": 201152,
      "byteLength": 964
    },
    {
      "name": "bones_rotate",
      "buffer": 0,
      "byteOffset": 202116,
      "byteLength": 223648
    },
    {
      "name": "bones_translate",
      "buffer": 0,
      "byteOffset": 425764,
      "byteLength": 167736
    }
  ],
  "buffers": [
    {
      "uri": "character_neutrals_dragongreen.bin",
      "byteLength": 593500
    }
  ],
  "images": [
    {
      "uri": "character_neutrals_greendragon_body_diffuse.dds"
    },
    {
      "uri": "character_neutrals_greendragon_wings_diffuse.dds"
    },
    {
      "uri": "character_neutrals_greendragon_helm_diffuse.dds"
    }
  ],
  "textures": [
    {
      "source": 0
    },
    {
      "source": 1
    },
    {
      "source": 2
    }
  ],
  "materials": [
    {
      "name": "material0",
      "alphaMode": "MASK",
      "pbrMetallicRoughness": {
        "baseColorTexture": {
          "index": 0,
          "texCoord": 0
        },
        "metallicFactor": 0.0
      },
      "emissiveFactor": [
        0.0,
        0.0,
        0.0
      ]
    },
    {
      "name": "material1",
      "alphaMode": "MASK",
      "pbrMetallicRoughness": {
        "baseColorTexture": {
          "index": 1,
          "texCoord": 0
        },
        "metallicFactor": 0.0
      },
      "emissiveFactor": [
        0.0,
        0.0,
        0.0
      ]
    },
    {
      "name": "material2",
      "alphaMode": "MASK",
      "pbrMetallicRoughness": {
        "baseColorTexture": {
          "index": 2,
          "texCoord": 0
        },
        "metallicFactor": 0.0
      },
      "emissiveFactor": [
        0.0,
        0.0,
        0.0
      ]
    }
  ]
}