{
  "asset": {
    "version": "2.0",
    "generator": "generated with dis3tool v1.1 by root.ext@gmail.com"
  },
  "scenes": [
    {
      "nodes": [
        0,
        1,
        2
      ]
    }
  ],
  "scene": 0,
  "nodes": [
    {
      "name": "empire_rod-2",
      "mesh": 0,
      "skin": 0
    },
    {
      "name": "empire_rod-2_wing",
      "mesh": 1,
      "skin": 1
    },
    {
      "name": "Reference",
      "rotation": [
        0.0,
        0.0,
        0.707106769,
        0.707106769
      ],
      "translation": [
        0.0,
        0.0,
        0.0
      ],
      "children": [
        3,
        53
      ]
    },
    {
      "name": "Hips",
      "rotation": [
        0.998422742,
        -0.0206789076,
        -0.0488913469,
        -0.01827739
      ],
      "translation": [
        2.0243876,
        -1.38553318E-07,
        0.582362235
      ],
      "children": [
        4
      ]
    },
    {
      "name": "Spine",
      "rotation": [
        0.00327800773,
        -0.07613183,
        -0.01267632,
        0.99701184
      ],
      "translation": [
        0.101648621,
        1.37156945E-07,
        -0.0182730984
      ],
      "children": [
        5
      ]
    },
    {
      "name": "Spine1",
      "rotation": [
        -0.03801871,
        0.140889436,
        -0.0493098162,
        0.9880655
      ],
      "translation": [
        0.267690778,
        -0.00155209529,
        0.0138391871
      ],
      "children": [
        6
      ]
    },
    {
      "name": "Spine2",
      "rotation": [
        4.47144437E-08,
        -3.928263E-08,
        0.7071068,
        0.707106769
      ],
      "translation": [
        0.3246225,
        -2.34831923E-08,
        -5.71357255E-08
      ],
      "children": [
        7,
        14,
        29,
        31,
        38
      ]
    },
    {
      "name": "L_WingArm",
      "rotation": [
        0.294635057,
        -0.0278322175,
        0.3467359,
        0.8900504
      ],
      "translation": [
        0.10247951,
        0.09646297,
        -0.210921034
      ],
      "children": [
        8,
        13
      ]
    },
    {
      "name": "L_WingForeArm",
      "rotation": [
        -0.2759735,
        -0.5391046,
        0.120539658,
        0.786559045
      ],
      "translation": [
        0.491880119,
        -0.0002063147,
        -3.85292551E-05
      ],
      "children": [
        9,
        10,
        11
      ]
    },
    {
      "name": "L_Wing_Fing3",
      "rotation": [
        0.0112411315,
        0.7037742,
        -0.0359365046,
        0.7094252
      ],
      "translation": [
        1.03180659,
        9.69884059E-05,
        0.0320023075
      ]
    },
    {
      "name": "L_Wing_Fing2",
      "rotation": [
        -0.227325037,
        0.739161,
        0.119930871,
        0.622559965
      ],
      "translation": [
        1.47209716,
        0.69149375,
        -0.4853025
      ]
    },
    {
      "name": "L_Wing_Fing1",
      "rotation": [
        -0.01463382,
        0.132920742,
        0.393313229,
        0.9096277
      ],
      "translation": [
        1.020796,
        9.595276E-05,
        0.031660825
      ],
      "children": [
        12
      ]
    },
    {
      "name": "Null_08",
      "rotation": [
        0.160984561,
        0.129052535,
        0.22834982,
        0.951465
      ],
      "translation": [
        1.3282299,
        -3.499935E-07,
        -7.37135451E-06
      ]
    },
    {
      "name": "L_Wing_Fing4",
      "rotation": [
        0.159018859,
        0.662166059,
        0.1772325,
        0.7105194
      ],
      "translation": [
        0.428393871,
        0.00320048281,
        -0.02681982
      ]
    },
    {
      "name": "LeftShoulder",
      "rotation": [
        0.973486245,
        0.101981394,
        0.130296126,
        -0.157946825
      ],
      "translation": [
        0.08338965,
        -0.00357836066,
        0.0204449221
      ],
      "children": [
        15
      ]
    },
    {
      "name": "LeftArm",
      "rotation": [
        -0.272424877,
        0.0100438166,
        -0.5524165,
        0.787730753
      ],
      "translation": [
        0.182820961,
        -0.000342540065,
        0.004481202
      ],
      "children": [
        16
      ]
    },
    {
      "name": "LeftArmRoll",
      "rotation": [
        -2.24913581E-08,
        2.390321E-07,
        1.42594126E-06,
        0.99999994
      ],
      "translation": [
        0.243133023,
        -1.63384516E-06,
        4.367178E-07
      ],
      "children": [
        17
      ]
    },
    {
      "name": "LeftForeArm",
      "rotation": [
        9.572408E-07,
        0.6705811,
        -1.163085E-06,
        0.741836131
      ],
      "translation": [
        0.174561217,
        2.06515324E-06,
        1.44440776E-06
      ],
      "children": [
        18
      ]
    },
    {
      "name": "LeftHand",
      "rotation": [
        -0.6440563,
        0.120328344,
        0.121444322,
        0.7456297
      ],
      "translation": [
        0.426933348,
        -0.007869916,
        0.0013910007
      ],
      "children": [
        19,
        21,
        23,
        25,
        27
      ]
    },
    {
      "name": "LeftHandPinky1",
      "rotation": [
        0.0266027339,
        0.367859334,
        -0.0499050952,
        0.928160131
      ],
      "translation": [
        0.145184651,
        -0.0505960919,
        -0.0230761357
      ],
      "children": [
        20
      ]
    },
    {
      "name": "LeftHandPinky2",
      "rotation": [
        -0.0009963696,
        0.440602154,
        -0.00205225032,
        0.897699535
      ],
      "translation": [
        0.053937,
        6.22067162E-08,
        -2.31068668E-07
      ]
    },
    {
      "name": "LeftHandRing1",
      "rotation": [
        -0.06690167,
        0.48607567,
        -0.0426996425,
        0.8703053
      ],
      "translation": [
        0.16048789,
        -0.02405752,
        -0.00456592
      ],
      "children": [
        22
      ]
    },
    {
      "name": "LeftHandRing2",
      "rotation": [
        0.05606724,
        0.3946781,
        0.0830125958,
        0.9133424
      ],
      "translation": [
        0.06835195,
        -2.68155162E-07,
        -1.69996866E-07
      ]
    },
    {
      "name": "LeftHandMiddle1",
      "rotation": [
        -0.00776231568,
        0.5320719,
        -0.0210287627,
        0.8464024
      ],
      "translation": [
        0.16464746,
        0.0129200732,
        0.00622865651
      ],
      "children": [
        24
      ]
    },
    {
      "name": "LeftHandMiddle2",
      "rotation": [
        -6.852969E-05,
        0.433977932,
        -0.00183711573,
        0.9009216
      ],
      "translation": [
        0.08082713,
        5.247674E-07,
        6.73090653E-07
      ]
    },
    {
      "name": "LeftHandIndex1",
      "rotation": [
        -0.08884923,
        0.436966,
        0.0211472567,
        0.8948292
      ],
      "translation": [
        0.1594384,
        0.0524202026,
        0.00170195091
      ],
      "children": [
        26
      ]
    },
    {
      "name": "LeftHandIndex2",
      "rotation": [
        0.000154613925,
        0.4774677,
        0.00321735581,
        0.8786434
      ],
      "translation": [
        0.06817465,
        -6.34859347E-08,
        -3.070022E-07
      ]
    },
    {
      "name": "LeftHandThumb1",
      "rotation": [
        -0.697501361,
        0.0137228752,
        0.484834641,
        0.527482867
      ],
      "translation": [
        0.04686156,
        0.0220539942,
        -0.009628857
      ],
      "children": [
        28
      ]
    },
    {
      "name": "LeftHandThumb2",
      "rotation": [
        -5.49114429E-06,
        0.6024893,
        8.486063E-06,
        0.7981268
      ],
      "translation": [
        0.122425564,
        3.56383424E-07,
        -5.15082E-06
      ]
    },
    {
      "name": "Neck",
      "rotation": [
        -0.3104113,
        -0.209286749,
        -0.658217669,
        0.6531412
      ],
      "translation": [
        -0.0146356849,
        -0.0419382043,
        0.0126893744
      ],
      "children": [
        30
      ]
    },
    {
      "name": "Head",
      "rotation": [
        -0.0372634158,
        0.129449338,
        -0.0027062546,
        0.990882
      ],
      "translation": [
        0.189941987,
        -0.000930101553,
        0.00293187867
      ]
    },
    {
      "name": "R_WingArm",
      "rotation": [
        0.0442621969,
        -0.213222355,
        0.875785232,
        0.4307869
      ],
      "translation": [
        -0.107262656,
        0.08329739,
        -0.21008274
      ],
      "children": [
        32,
        37
      ]
    },
    {
      "name": "R_WingForeArm",
      "rotation": [
        0.187340423,
        -0.527259648,
        -0.0118563,
        0.82871
      ],
      "translation": [
        0.485826761,
        0.076777555,
        -0.00484500965
      ],
      "children": [
        33,
        34,
        35
      ]
    },
    {
      "name": "R_Wing_Fing3",
      "rotation": [
        0.00472781155,
        0.713889241,
        0.0404133238,
        0.69907546
      ],
      "translation": [
        1.02988,
        0.0614629723,
        0.0349114463
      ]
    },
    {
      "name": "R_Wing_Fing2",
      "rotation": [
        0.22087203,
        0.741522133,
        -0.115098737,
        0.6229869
      ],
      "translation": [
        1.523751,
        -0.386326343,
        -0.364469856
      ]
    },
    {
      "name": "R_Wing_Fing1",
      "rotation": [
        0.0233005825,
        0.133892536,
        -0.346250057,
        0.928246
      ],
      "translation": [
        1.01889,
        0.0608071238,
        0.0345389768
      ],
      "children": [
        36
      ]
    },
    {
      "name": "Null_04",
      "rotation": [
        -0.191344887,
        0.1620117,
        -0.232981712,
        0.9396056
      ],
      "translation": [
        1.32709026,
        -0.0398768,
        -0.0379033349
      ]
    },
    {
      "name": "R_Wing_Fing4",
      "rotation": [
        -0.2857357,
        0.6013765,
        -0.2546178,
        0.7013353
      ],
      "translation": [
        0.424559444,
        0.0562135056,
        -0.0289857034
      ]
    },
    {
      "name": "RightShoulder",
      "rotation": [
        0.164888769,
        0.9749893,
        -0.031934537,
        -0.145560056
      ],
      "translation": [
        -0.0964894,
        0.0255708341,
        0.0169824827
      ],
      "children": [
        39
      ]
    },
    {
      "name": "RightArm",
      "rotation": [
        0.00981666,
        0.13568452,
        0.371225268,
        0.9185233
      ],
      "translation": [
        0.182820588,
        0.000342958752,
        0.00448132167
      ],
      "children": [
        40
      ]
    },
    {
      "name": "RightArmRoll",
      "rotation": [
        -4.32860041E-08,
        1.97370426E-07,
        -1.379992E-06,
        0.99999994
      ],
      "translation": [
        0.194366291,
        1.12011378E-06,
        -4.968448E-08
      ],
      "children": [
        41
      ]
    },
    {
      "name": "RightForeArm",
      "rotation": [
        -1.18219486E-06,
        0.8283238,
        9.11527366E-07,
        0.5602492
      ],
      "translation": [
        0.223329157,
        -1.4780062E-06,
        2.32392244E-06
      ],
      "children": [
        42
      ]
    },
    {
      "name": "RightHand",
      "rotation": [
        0.476779759,
        0.100197539,
        0.2739418,
        0.829214752
      ],
      "translation": [
        0.4279171,
        -7.805082E-06,
        1.65756683E-06
      ],
      "children": [
        43,
        45,
        47,
        49,
        51
      ]
    },
    {
      "name": "RightHandPinky1",
      "rotation": [
        -0.169971317,
        0.6531981,
        -0.01335934,
        0.737742066
      ],
      "translation": [
        0.162368059,
        0.0610212162,
        -0.0138546508
      ],
      "children": [
        44
      ]
    },
    {
      "name": "RightHandPinky2",
      "rotation": [
        -0.004651147,
        0.6726292,
        0.0006618225,
        0.739964664
      ],
      "translation": [
        0.05393701,
        -2.33941151E-07,
        -1.93584242E-07
      ]
    },
    {
      "name": "RightHandRing1",
      "rotation": [
        -0.143474013,
        0.7522743,
        0.0423446931,
        0.641642749
      ],
      "translation": [
        0.1765555,
        0.03278251,
        -0.007574575
      ],
      "children": [
        46
      ]
    },
    {
      "name": "RightHandRing2",
      "rotation": [
        0.000228790261,
        0.6674331,
        -0.000205077857,
        0.7446696
      ],
      "translation": [
        0.06835275,
        2.73773963E-07,
        2.68639428E-06
      ]
    },
    {
      "name": "RightHandMiddle1",
      "rotation": [
        -0.08128469,
        0.7640294,
        -0.02641427,
        0.639495134
      ],
      "translation": [
        0.178737745,
        -0.005817775,
        0.000389497349
      ],
      "children": [
        48
      ]
    },
    {
      "name": "RightHandMiddle2",
      "rotation": [
        -0.00569552276,
        0.8124121,
        0.00517963,
        0.5830328
      ],
      "translation": [
        0.08083052,
        -4.08501052E-07,
        5.57066642E-06
      ]
    },
    {
      "name": "RightHandIndex1",
      "rotation": [
        0.0230035875,
        0.724507332,
        0.0108648557,
        0.6887973
      ],
      "translation": [
        0.175224349,
        -0.0463020056,
        -0.00355995144
      ],
      "children": [
        50
      ]
    },
    {
      "name": "RightHandIndex2",
      "rotation": [
        -0.010363074,
        0.879549265,
        -0.01630417,
        0.47541517
      ],
      "translation": [
        0.06867224,
        9.320197E-06,
        -0.000400464633
      ]
    },
    {
      "name": "RightHandThumb1",
      "rotation": [
        0.6128387,
        0.00560458843,
        -0.261994272,
        0.7454903
      ],
      "translation": [
        0.0537021719,
        -0.0339283869,
        -0.0187189467
      ],
      "children": [
        52
      ]
    },
    {
      "name": "RightHandThumb2",
      "rotation": [
        -2.3934565E-06,
        0.515738964,
        1.614007E-06,
        0.856745541
      ],
      "translation": [
        0.122426391,
        -4.961053E-09,
        -3.93471E-06
      ]
    },
    {
      "name": "Sword",
      "rotation": [
        -0.49999994,
        0.5,
        -0.5,
        0.5
      ],
      "translation": [
        2.35934186,
        -2.79117516E-15,
        7.796745E-16
      ]
    }
  ],
  "accessors": [
    {
      "bufferView": 0,
      "byteOffset": 0,
      "componentType": 5125,
      "count": 9258,
      "type": "SCALAR"
    },
    {
      "bufferView": 1,
      "byteOffset": 0,
      "componentType": 5126,
      "count": 2529,
      "type": "VEC3",
      "min": [
        -1.04245853,
        -0.0207879562,
        -0.797128737
      ],
      "max": [
        1.04247761,
        3.45472956,
        0.9990177
      ]
    },
    {
      "bufferView": 1,
      "byteOffset": 12,
      "componentType": 5126,
      "count": 2529,
      "type": "VEC3"
    },
    {
      "bufferView": 1,
      "byteOffset": 24,
      "componentType": 5126,
      "count": 2529,
      "type": "VEC2"
    },
    {
      "bufferView": 1,
      "byteOffset": 32,
      "componentType": 5126,
      "count": 2529,
      "type": "VEC4"
    },
    {
      "bufferView": 1,
      "byteOffset": 48,
      "componentType": 5121,
      "count": 2529,
      "type": "VEC4"
    },
    {
      "bufferView": 2,
      "byteOffset": 0,
      "componentType": 5126,
      "count": 36,
      "type": "MAT4"
    },
    {
      "bufferView": 3,
      "byteOffset": 0,
      "componentType": 5125,
      "count": 3192,
      "type": "SCALAR"
    },
    {
      "bufferView": 4,
      "byteOffset": 0,
      "componentType": 5126,
      "count": 952,
      "type": "VEC3",
      "min": [
        -1.19153547,
        -0.779129267,
        -1.10737646
      ],
      "max": [
        1.18777037,
        4.26154232,
        1.09492
      ]
    },
    {
      "bufferView": 4,
      "byteOffset": 12,
      "componentType": 5126,
      "count": 952,
      "type": "VEC3"
    },
    {
      "bufferView": 4,
      "byteOffset": 24,
      "componentType": 5126,
      "count": 952,
      "type": "VEC2"
    },
    {
      "bufferView": 4,
      "byteOffset": 32,
      "componentType": 5126,
      "count": 952,
      "type": "VEC4"
    },
    {
      "bufferView": 4,
      "byteOffset": 48,
      "componentType": 5121,
      "count": 952,
      "type": "VEC4"
    },
    {
      "bufferView": 5,
      "byteOffset": 0,
      "componentType": 5126,
      "count": 17,
      "type": "MAT4"
    },
    {
      "bufferView": 6,
      "byteOffset": 0,
      "componentType": 5126,
      "count": 201,
      "type": "SCALAR",
      "min": [
        0.0
      ],
      "max": [
        6.666667
      ]
    },
    {
      "bufferView": 7,
      "byteOffset": 0,
      "componentType": 5126,
      "count": 201,
      "type": "VEC4"
    },
    {
      "bufferView": 8,
      "byteOffset": 0,
      "componentType": 5126,
      "count": 201,
      "type": "VEC3"
    },
    {
      "bufferView": 7,
      "byteOffset": 3216,
      "componentType": 5126,
      "count": 201,
      "type": "VEC4"
    },
    {
      "bufferView": 8,
      "byteOffset": 2412,
      "componentType": 5126,
      "count": 201,
      "type": "VEC3"
    },
    {
      "bufferView": 7,
      "byteOffset": 6432,
      "componentType": 5126,
      "count": 201,
      "type": "VEC4"
    },
    {
      "bufferView": 8,
      "byteOffset": 4824,
      "componentType": 5126,
      "count": 201,
      "type": "VEC3"
    },
    {
      "bufferView": 7,
      "byteOffset": 9648,
      "componentType": 5126,
      "count": 201,
      "type": "VEC4"
    },
    {
      "bufferView": 8,
      "byteOffset": 7236,
      "componentType": 5126,
      "count": 201,
      "type": "VEC3"
    },
    {
      "bufferView": 7,
      "byteOffset": 12864,
      "componentType": 5126,
      "count": 201,
      "type": "VEC4"
    },
    {
      "bufferView": 8,
      "byteOffset": 9648,
      "componentType": 5126,
      "count": 201,
      "type": "VEC3"
    },
    {
      "bufferView": 7,
      "byteOffset": 16080,
      "componentType": 5126,
      "count": 201,
      "type": "VEC4"
    },
    {
      "bufferView": 8,
      "byteOffset": 12060,
      "componentType": 5126,
      "count": 201,
      "type": "VEC3"
    },
    {
      "bufferView": 7,
      "byteOffset": 19296,
      "componentType": 5126,
      "count": 201,
      "type": "VEC4"
    },
    {
      "bufferView": 8,
      "byteOffset": 14472,
      "componentType": 5126,
      "count": 201,
      "type": "VEC3"
    },
    {
      "bufferView": 7,
      "byteOffset": 22512,
      "componentType": 5126,
      "count": 201,
      "type": "VEC4"
    },
    {
      "bufferView": 8,
      "byteOffset": 16884,
      "componentType": 5126,
      "count": 201,
      "type": "VEC3"
    },
    {
      "bufferView": 7,
      "byteOffset": 25728,
      "componentType": 5126,
      "count": 201,
      "type": "VEC4"
    },
    {
      "bufferView": 8,
      "byteOffset": 19296,
      "componentType": 5126,
      "count": 201,
      "type": "VEC3"
    },
    {
      "bufferView": 7,
      "byteOffset": 28944,
      "componentType": 5126,
      "count": 201,
      "type": "VEC4"
    },
    {
      "bufferView": 8,
      "byteOffset": 21708,
      "componentType": 5126,
      "count": 201,
      "type": "VEC3"
    },
    {
      "bufferView": 7,
      "byteOffset": 32160,
      "componentType": 5126,
      "count": 201,
      "type": "VEC4"
    },
    {
      "bufferView": 8,
      "byteOffset": 24120,
      "componentType": 5126,
      "count": 201,
      "type": "VEC3"
    },
    {
      "bufferView": 7,
      "byteOffset": 35376,
      "componentType": 5126,
      "count": 201,
      "type": "VEC4"
    },
    {
      "bufferView": 8,
      "byteOffset": 26532,
      "componentType": 5126,
      "count": 201,
      "type": "VEC3"
    },
    {
      "bufferView": 7,
      "byteOffset": 38592,
      "componentType": 5126,
      "count": 201,
      "type": "VEC4"
    },
    {
      "bufferView": 8,
      "byteOffset": 28944,
      "componentType": 5126,
      "count": 201,
      "type": "VEC3"
    },
    {
      "bufferView": 7,
      "byteOffset": 41808,
      "componentType": 5126,
      "count": 201,
      "type": "VEC4"
    },
    {
      "bufferView": 8,
      "byteOffset": 31356,
      "componentType": 5126,
      "count": 201,
      "type": "VEC3"
    },
    {
      "bufferView": 7,
      "byteOffset": 45024,
      "componentType": 5126,
      "count": 201,
      "type": "VEC4"
    },
    {
      "bufferView": 8,
      "byteOffset": 33768,
      "componentType": 5126,
      "count": 201,
      "type": "VEC3"
    },
    {
      "bufferView": 7,
      "byteOffset": 48240,
      "componentType": 5126,
      "count": 201,
      "type": "VEC4"
    },
    {
      "bufferView": 8,
      "byteOffset": 36180,
      "componentType": 5126,
      "count": 201,
      "type": "VEC3"
    },
    {
      "bufferView": 7,
      "byteOffset": 51456,
      "componentType": 5126,
      "count": 201,
      "type": "VEC4"
    },
    {
      "bufferView": 8,
      "byteOffset": 38592,
      "componentType": 5126,
      "count": 201,
      "type": "VEC3"
    },
    {
      "bufferView": 7,
      "byteOffset": 54672,
      "componentType": 5126,
      "count": 201,
      "type": "VEC4"
    },
    {
      "bufferView": 8,
      "byteOffset": 41004,
      "componentType": 5126,
      "count": 201,
      "type": "VEC3"
    },
    {
      "bufferView": 7,
      "byteOffset": 57888,
      "componentType": 5126,
      "count": 201,
      "type": "VEC4"
    },
    {
      "bufferView": 8,
      "byteOffset": 43416,
      "componentType": 5126,
      "count": 201,
      "type": "VEC3"
    },
    {
      "bufferView": 7,
      "byteOffset": 61104,
      "componentType": 5126,
      "count": 201,
      "type": "VEC4"
    },
    {
      "bufferView": 8,
      "byteOffset": 45828,
      "componentType": 5126,
      "count": 201,
      "type": "VEC3"
    },
    {
      "bufferView": 7,
      "byteOffset": 64320,
      "componentType": 5126,
      "count": 201,
      "type": "VEC4"
    },
    {
      "bufferView": 8,
      "byteOffset": 48240,
      "componentType": 5126,
      "count": 201,
      "type": "VEC3"
    },
    {
      "bufferView": 7,
      "byteOffset": 67536,
      "componentType": 5126,
      "count": 201,
      "type": "VEC4"
    },
    {
      "bufferView": 8,
      "byteOffset": 50652,
      "componentType": 5126,
      "count": 201,
      "type": "VEC3"
    },
    {
      "bufferView": 7,
      "byteOffset": 70752,
      "componentType": 5126,
      "count": 201,
      "type": "VEC4"
    },
    {
      "bufferView": 8,
      "byteOffset": 53064,
      "componentType": 5126,
      "count": 201,
      "type": "VEC3"
    },
    {
      "bufferView": 7,
      "byteOffset": 73968,
      "componentType": 5126,
      "count": 201,
      "type": "VEC4"
    },
    {
      "bufferView": 8,
      "byteOffset": 55476,
      "componentType": 5126,
      "count": 201,
      "type": "VEC3"
    },
    {
      "bufferView": 7,
      "byteOffset": 77184,
      "componentType": 5126,
      "count": 201,
      "type": "VEC4"
    },
    {
      "bufferView": 8,
      "byteOffset": 57888,
      "componentType": 5126,
      "count": 201,
      "type": "VEC3"
    },
    {
      "bufferView": 7,
      "byteOffset": 80400,
      "componentType": 5126,
      "count": 201,
      "type": "VEC4"
    },
    {
      "bufferView": 8,
      "byteOffset": 60300,
      "componentType": 5126,
      "count": 201,
      "type": "VEC3"
    },
    {
      "bufferView": 7,
      "byteOffset": 83616,
      "componentType": 5126,
      "count": 201,
      "type": "VEC4"
    },
    {
      "bufferView": 8,
      "byteOffset": 62712,
      "componentType": 5126,
      "count": 201,
      "type": "VEC3"
    },
    {
      "bufferView": 7,
      "byteOffset": 86832,
      "componentType": 5126,
      "count": 201,
      "type": "VEC4"
    },
    {
      "bufferView": 8,
      "byteOffset": 65124,
      "componentType": 5126,
      "count": 201,
      "type": "VEC3"
    },
    {
      "bufferView": 7,
      "byteOffset": 90048,
      "componentType": 5126,
      "count": 201,
      "type": "VEC4"
    },
    {
      "bufferView": 8,
      "byteOffset": 67536,
      "componentType": 5126,
      "count": 201,
      "type": "VEC3"
    },
    {
      "bufferView": 7,
      "byteOffset": 93264,
      "componentType": 5126,
      "count": 201,
      "type": "VEC4"
    },
    {
      "bufferView": 8,
      "byteOffset": 69948,
      "componentType": 5126,
      "count": 201,
      "type": "VEC3"
    },
    {
      "bufferView": 7,
      "byteOffset": 96480,
      "componentType": 5126,
      "count": 201,
      "type": "VEC4"
    },
    {
      "bufferView": 8,
      "byteOffset": 72360,
      "componentType": 5126,
      "count": 201,
      "type": "VEC3"
    },
    {
      "bufferView": 7,
      "byteOffset": 99696,
      "componentType": 5126,
      "count": 201,
      "type": "VEC4"
    },
    {
      "bufferView": 8,
      "byteOffset": 74772,
      "componentType": 5126,
      "count": 201,
      "type": "VEC3"
    },
    {
      "bufferView": 7,
      "byteOffset": 102912,
      "componentType": 5126,
      "count": 201,
      "type": "VEC4"
    },
    {
      "bufferView": 8,
      "byteOffset": 77184,
      "componentType": 5126,
      "count": 201,
      "type": "VEC3"
    },
    {
      "bufferView": 7,
      "byteOffset": 106128,
      "componentType": 5126,
      "count": 201,
      "type": "VEC4"
    },
    {
      "bufferView": 8,
      "byteOffset": 79596,
      "componentType": 5126,
      "count": 201,
      "type": "VEC3"
    },
    {
      "bufferView": 7,
      "byteOffset": 109344,
      "componentType": 5126,
      "count": 201,
      "type": "VEC4"
    },
    {
      "bufferView": 8,
      "byteOffset": 82008,
      "componentType": 5126,
      "count": 201,
      "type": "VEC3"
    },
    {
      "bufferView": 7,
      "byteOffset": 112560,
      "componentType": 5126,
      "count": 201,
      "type": "VEC4"
    },
    {
      "bufferView": 8,
      "byteOffset": 84420,
      "componentType": 5126,
      "count": 201,
      "type": "VEC3"
    },
    {
      "bufferView": 7,
      "byteOffset": 115776,
      "componentType": 5126,
      "count": 201,
      "type": "VEC4"
    },
    {
      "bufferView": 8,
      "byteOffset": 86832,
      "componentType": 5126,
      "count": 201,
      "type": "VEC3"
    },
    {
      "bufferView": 7,
      "byteOffset": 118992,
      "componentType": 5126,
      "count": 201,
      "type": "VEC4"
    },
    {
      "bufferView": 8,
      "byteOffset": 89244,
      "componentType": 5126,
      "count": 201,
      "type": "VEC3"
    },
    {
      "bufferView": 7,
      "byteOffset": 122208,
      "componentType": 5126,
      "count": 201,
      "type": "VEC4"
    },
    {
      "bufferView": 8,
      "byteOffset": 91656,
      "componentType": 5126,
      "count": 201,
      "type": "VEC3"
    },
    {
      "bufferView": 7,
      "byteOffset": 125424,
      "componentType": 5126,
      "count": 201,
      "type": "VEC4"
    },
    {
      "bufferView": 8,
      "byteOffset": 94068,
      "componentType": 5126,
      "count": 201,
      "type": "VEC3"
    },
    {
      "bufferView": 7,
      "byteOffset": 128640,
      "componentType": 5126,
      "count": 201,
      "type": "VEC4"
    },
    {
      "bufferView": 8,
      "byteOffset": 96480,
      "componentType": 5126,
      "count": 201,
      "type": "VEC3"
    },
    {
      "bufferView": 7,
      "byteOffset": 131856,
      "componentType": 5126,
      "count": 201,
      "type": "VEC4"
    },
    {
      "bufferView": 8,
      "byteOffset": 98892,
      "componentType": 5126,
      "count": 201,
      "type": "VEC3"
    },
    {
      "bufferView": 7,
      "byteOffset": 135072,
      "componentType": 5126,
      "count": 201,
      "type": "VEC4"
    },
    {
      "bufferView": 8,
      "byteOffset": 101304,
      "componentType": 5126,
      "count": 201,
      "type": "VEC3"
    },
    {
      "bufferView": 7,
      "byteOffset": 138288,
      "componentType": 5126,
      "count": 201,
      "type": "VEC4"
    },
    {
      "bufferView": 8,
      "byteOffset": 103716,
      "componentType": 5126,
      "count": 201,
      "type": "VEC3"
    },
    {
      "bufferView": 7,
      "byteOffset": 141504,
      "componentType": 5126,
      "count": 201,
      "type": "VEC4"
    },
    {
      "bufferView": 8,
      "byteOffset": 106128,
      "componentType": 5126,
      "count": 201,
      "type": "VEC3"
    },
    {
      "bufferView": 7,
      "byteOffset": 144720,
      "componentType": 5126,
      "count": 201,
      "type": "VEC4"
    },
    {
      "bufferView": 8,
      "byteOffset": 108540,
      "componentType": 5126,
      "count": 201,
      "type": "VEC3"
    },
    {
      "bufferView": 7,
      "byteOffset": 147936,
      "componentType": 5126,
      "count": 201,
      "type": "VEC4"
    },
    {
      "bufferView": 8,
      "byteOffset": 110952,
      "componentType": 5126,
      "count": 201,
      "type": "VEC3"
    },
    {
      "bufferView": 7,
      "byteOffset": 151152,
      "componentType": 5126,
      "count": 201,
      "type": "VEC4"
    },
    {
      "bufferView": 8,
      "byteOffset": 113364,
      "componentType": 5126,
      "count": 201,
      "type": "VEC3"
    },
    {
      "bufferView": 7,
      "byteOffset": 154368,
      "componentType": 5126,
      "count": 201,
      "type": "VEC4"
    },
    {
      "bufferView": 8,
      "byteOffset": 115776,
      "componentType": 5126,
      "count": 201,
      "type": "VEC3"
    },
    {
      "bufferView": 7,
      "byteOffset": 157584,
      "componentType": 5126,
      "count": 201,
      "type": "VEC4"
    },
    {
      "bufferView": 8,
      "byteOffset": 118188,
      "componentType": 5126,
      "count": 201,
      "type": "VEC3"
    },
    {
      "bufferView": 7,
      "byteOffset": 160800,
      "componentType": 5126,
      "count": 201,
      "type": "VEC4"
    },
    {
      "bufferView": 8,
      "byteOffset": 120600,
      "componentType": 5126,
      "count": 201,
      "type": "VEC3"
    },
    {
      "bufferView": 7,
      "byteOffset": 164016,
      "componentType": 5126,
      "count": 201,
      "type": "VEC4"
    },
    {
      "bufferView": 8,
      "byteOffset": 123012,
      "componentType": 5126,
      "count": 201,
      "type": "VEC3"
    }
  ],
  "skins": [
    {
      "name": "skin0",
      "inverseBindMatrices": 6,
      "joints": [
        30,
        4,
        3,
        5,
        2,
        29,
        14,
        15,
        38,
        16,
        17,
        18,
        27,
        19,
        20,
        21,
        22,
        25,
        23,
        26,
        24,
        28,
        39,
        40,
        41,
        42,
        51,
        43,
        45,
        44,
        47,
        49,
        50,
        48,
        52,
        46
      ]
    },
    {
      "name": "skin1",
      "inverseBindMatrices": 13,
      "joints": [
        7,
        8,
        13,
        9,
        11,
        10,
        12,
        5,
        31,
        30,
        32,
        37,
        33,
        35,
        34,
        36,
        53
      ]
    }
  ],
  "meshes": [
    {
      "name": "empire_rod-2",
      "primitives": [
        {
          "attributes": {
            "POSITION": 1,
            "NORMAL": 2,
            "TEXCOORD_0": 3,
            "WEIGHTS_0": 4,
            "JOINTS_0": 5
          },
          "indices": 0,
          "mode": 4,
          "material": 0
        }
      ]
    },
    {
      "name": "empire_rod-2_wing",
      "primitives": [
        {
          "attributes": {
            "POSITION": 8,
            "NORMAL": 9,
            "TEXCOORD_0": 10,
            "WEIGHTS_0": 11,
            "JOINTS_0": 12
          },
          "indices": 7,
          "mode": 4,
          "material": 1
        }
      ]
    }
  ],
  "animations": [
    {
      "channels": [
        {
          "sampler": 0,
          "target": {
            "node": 2,
            "path": "rotation"
          }
        },
        {
          "sampler": 1,
          "target": {
            "node": 2,
            "path": "translation"
          }
        },
        {
          "sampler": 2,
          "target": {
            "node": 3,
            "path": "rotation"
          }
        },
        {
          "sampler": 3,
          "target": {
            "node": 3,
            "path": "translation"
          }
        },
        {
          "sampler": 4,
          "target": {
            "node": 4,
            "path": "rotation"
          }
        },
        {
          "sampler": 5,
          "target": {
            "node": 4,
            "path": "translation"
          }
        },
        {
          "sampler": 6,
          "target": {
            "node": 5,
            "path": "rotation"
          }
        },
        {
          "sampler": 7,
          "target": {
            "node": 5,
            "path": "translation"
          }
        },
        {
          "sampler": 8,
          "target": {
            "node": 6,
            "path": "rotation"
          }
        },
        {
          "sampler": 9,
          "target": {
            "node": 6,
            "path": "translation"
          }
        },
        {
          "sampler": 10,
          "target": {
            "node": 7,
            "path": "rotation"
          }
        },
        {
          "sampler": 11,
          "target": {
            "node": 7,
            "path": "translation"
          }
        },
        {
          "sampler": 12,
          "target": {
            "node": 8,
            "path": "rotation"
          }
        },
        {
          "sampler": 13,
          "target": {
            "node": 8,
            "path": "translation"
          }
        },
        {
          "sampler": 14,
          "target": {
            "node": 9,
            "path": "rotation"
          }
        },
        {
          "sampler": 15,
          "target": {
            "node": 9,
            "path": "translation"
          }
        },
        {
          "sampler": 16,
          "target": {
            "node": 10,
            "path": "rotation"
          }
        },
        {
          "sampler": 17,
          "target": {
            "node": 10,
            "path": "translation"
          }
        },
        {
          "sampler": 18,
          "target": {
            "node": 11,
            "path": "rotation"
          }
        },
        {
          "sampler": 19,
          "target": {
            "node": 11,
            "path": "translation"
          }
        },
        {
          "sampler": 20,
          "target": {
            "node": 12,
            "path": "rotation"
          }
        },
        {
          "sampler": 21,
          "target": {
            "node": 12,
            "path": "translation"
          }
        },
        {
          "sampler": 22,
          "target": {
            "node": 13,
            "path": "rotation"
          }
        },
        {
          "sampler": 23,
          "target": {
            "node": 13,
            "path": "translation"
          }
        },
        {
          "sampler": 24,
          "target": {
            "node": 14,
            "path": "rotation"
          }
        },
        {
          "sampler": 25,
          "target": {
            "node": 14,
            "path": "translation"
          }
        },
        {
          "sampler": 26,
          "target": {
            "node": 15,
            "path": "rotation"
          }
        },
        {
          "sampler": 27,
          "target": {
            "node": 15,
            "path": "translation"
          }
        },
        {
          "sampler": 28,
          "target": {
            "node": 16,
            "path": "rotation"
          }
        },
        {
          "sampler": 29,
          "target": {
            "node": 16,
            "path": "translation"
          }
        },
        {
          "sampler": 30,
          "target": {
            "node": 17,
            "path": "rotation"
          }
        },
        {
          "sampler": 31,
          "target": {
            "node": 17,
            "path": "translation"
          }
        },
        {
          "sampler": 32,
          "target": {
            "node": 18,
            "path": "rotation"
          }
        },
        {
          "sampler": 33,
          "target": {
            "node": 18,
            "path": "translation"
          }
        },
        {
          "sampler": 34,
          "target": {
            "node": 19,
            "path": "rotation"
          }
        },
        {
          "sampler": 35,
          "target": {
            "node": 19,
            "path": "translation"
          }
        },
        {
          "sampler": 36,
          "target": {
            "node": 20,
            "path": "rotation"
          }
        },
        {
          "sampler": 37,
          "target": {
            "node": 20,
            "path": "translation"
          }
        },
        {
          "sampler": 38,
          "target": {
            "node": 21,
            "path": "rotation"
          }
        },
        {
          "sampler": 39,
          "target": {
            "node": 21,
            "path": "translation"
          }
        },
        {
          "sampler": 40,
          "target": {
            "node": 22,
            "path": "rotation"
          }
        },
        {
          "sampler": 41,
          "target": {
            "node": 22,
            "path": "translation"
          }
        },
        {
          "sampler": 42,
          "target": {
            "node": 23,
            "path": "rotation"
          }
        },
        {
          "sampler": 43,
          "target": {
            "node": 23,
            "path": "translation"
          }
        },
        {
          "sampler": 44,
          "target": {
            "node": 24,
            "path": "rotation"
          }
        },
        {
          "sampler": 45,
          "target": {
            "node": 24,
            "path": "translation"
          }
        },
        {
          "sampler": 46,
          "target": {
            "node": 25,
            "path": "rotation"
          }
        },
        {
          "sampler": 47,
          "target": {
            "node": 25,
            "path": "translation"
          }
        },
        {
          "sampler": 48,
          "target": {
            "node": 26,
            "path": "rotation"
          }
        },
        {
          "sampler": 49,
          "target": {
            "node": 26,
            "path": "translation"
          }
        },
        {
          "sampler": 50,
          "target": {
            "node": 27,
            "path": "rotation"
          }
        },
        {
          "sampler": 51,
          "target": {
            "node": 27,
            "path": "translation"
          }
        },
        {
          "sampler": 52,
          "target": {
            "node": 28,
            "path": "rotation"
          }
        },
        {
          "sampler": 53,
          "target": {
            "node": 28,
            "path": "translation"
          }
        },
        {
          "sampler": 54,
          "target": {
            "node": 29,
            "path": "rotation"
          }
        },
        {
          "sampler": 55,
          "target": {
            "node": 29,
            "path": "translation"
          }
        },
        {
          "sampler": 56,
          "target": {
            "node": 30,
            "path": "rotation"
          }
        },
        {
          "sampler": 57,
          "target": {
            "node": 30,
            "path": "translation"
          }
        },
        {
          "sampler": 58,
          "target": {
            "node": 31,
            "path": "rotation"
          }
        },
        {
          "sampler": 59,
          "target": {
            "node": 31,
            "path": "translation"
          }
        },
        {
          "sampler": 60,
          "target": {
            "node": 32,
            "path": "rotation"
          }
        },
        {
          "sampler": 61,
          "target": {
            "node": 32,
            "path": "translation"
          }
        },
        {
          "sampler": 62,
          "target": {
            "node": 33,
            "path": "rotation"
          }
        },
        {
          "sampler": 63,
          "target": {
            "node": 33,
            "path": "translation"
          }
        },
        {
          "sampler": 64,
          "target": {
            "node": 34,
            "path": "rotation"
          }
        },
        {
          "sampler": 65,
          "target": {
            "node": 34,
            "path": "translation"
          }
        },
        {
          "sampler": 66,
          "target": {
            "node": 35,
            "path": "rotation"
          }
        },
        {
          "sampler": 67,
          "target": {
            "node": 35,
            "path": "translation"
          }
        },
        {
          "sampler": 68,
          "target": {
            "node": 36,
            "path": "rotation"
          }
        },
        {
          "sampler": 69,
          "target": {
            "node": 36,
            "path": "translation"
          }
        },
        {
          "sampler": 70,
          "target": {
            "node": 37,
            "path": "rotation"
          }
        },
        {
          "sampler": 71,
          "target": {
            "node": 37,
            "path": "translation"
          }
        },
        {
          "sampler": 72,
          "target": {
            "node": 38,
            "path": "rotation"
          }
        },
        {
          "sampler": 73,
          "target": {
            "node": 38,
            "path": "translation"
          }
        },
        {
          "sampler": 74,
          "target": {
            "node": 39,
            "path": "rotation"
          }
        },
        {
          "sampler": 75,
          "target": {
            "node": 39,
            "path": "translation"
          }
        },
        {
          "sampler": 76,
          "target": {
            "node": 40,
            "path": "rotation"
          }
        },
        {
          "sampler": 77,
          "target": {
            "node": 40,
            "path": "translation"
          }
        },
        {
          "sampler": 78,
          "target": {
            "node": 41,
            "path": "rotation"
          }
        },
        {
          "sampler": 79,
          "target": {
            "node": 41,
            "path": "translation"
          }
        },
        {
          "sampler": 80,
          "target": {
            "node": 42,
            "path": "rotation"
          }
        },
        {
          "sampler": 81,
          "target": {
            "node": 42,
            "path": "translation"
          }
        },
        {
          "sampler": 82,
          "target": {
            "node": 43,
            "path": "rotation"
          }
        },
        {
          "sampler": 83,
          "target": {
            "node": 43,
            "path": "translation"
          }
        },
        {
          "sampler": 84,
          "target": {
            "node": 44,
            "path": "rotation"
          }
        },
        {
          "sampler": 85,
          "target": {
            "node": 44,
            "path": "translation"
          }
        },
        {
          "sampler": 86,
          "target": {
            "node": 45,
            "path": "rotation"
          }
        },
        {
          "sampler": 87,
          "target": {
            "node": 45,
            "path": "translation"
          }
        },
        {
          "sampler": 88,
          "target": {
            "node": 46,
            "path": "rotation"
          }
        },
        {
          "sampler": 89,
          "target": {
            "node": 46,
            "path": "translation"
          }
        },
        {
          "sampler": 90,
          "target": {
            "node": 47,
            "path": "rotation"
          }
        },
        {
          "sampler": 91,
          "target": {
            "node": 47,
            "path": "translation"
          }
        },
        {
          "sampler": 92,
          "target": {
            "node": 48,
            "path": "rotation"
          }
        },
        {
          "sampler": 93,
          "target": {
            "node": 48,
            "path": "translation"
          }
        },
        {
          "sampler": 94,
          "target": {
            "node": 49,
            "path": "rotation"
          }
        },
        {
          "sampler": 95,
          "target": {
            "node": 49,
            "path": "translation"
          }
        },
        {
          "sampler": 96,
          "target": {
            "node": 50,
            "path": "rotation"
          }
        },
        {
          "sampler": 97,
          "target": {
            "node": 50,
            "path": "translation"
          }
        },
        {
          "sampler": 98,
          "target": {
            "node": 51,
            "path": "rotation"
          }
        },
        {
          "sampler": 99,
          "target": {
            "node": 51,
            "path": "translation"
          }
        },
        {
          "sampler": 100,
          "target": {
            "node": 52,
            "path": "rotation"
          }
        },
        {
          "sampler": 101,
          "target": {
            "node": 52,
            "path": "translation"
          }
        },
        {
          "sampler": 102,
          "target": {
            "node": 53,
            "path": "rotation"
          }
        },
        {
          "sampler": 103,
          "target": {
            "node": 53,
            "path": "translation"
          }
        }
      ],
      "samplers": [
        {
          "input": 14,
          "output": 15,
          "interpolation": "LINEAR"
        },
        {
          "input": 14,
          "output": 16,
          "interpolation": "LINEAR"
        },
        {
          "input": 14,
          "output": 17,
          "interpolation": "LINEAR"
        },
        {
          "input": 14,
          "output": 18,
          "interpolation": "LINEAR"
        },
        {
          "input": 14,
          "output": 19,
          "interpolation": "LINEAR"
        },
        {
          "input": 14,
          "output": 20,
          "interpolation": "LINEAR"
        },
        {
          "input": 14,
          "output": 21,
          "interpolation": "LINEAR"
        },
        {
          "input": 14,
          "output": 22,
          "interpolation": "LINEAR"
        },
        {
          "input": 14,
          "output": 23,
          "interpolation": "LINEAR"
        },
        {
          "input": 14,
          "output": 24,
          "interpolation": "LINEAR"
        },
        {
          "input": 14,
          "output": 25,
          "interpolation": "LINEAR"
        },
        {
          "input": 14,
          "output": 26,
          "interpolation": "LINEAR"
        },
        {
          "input": 14,
          "output": 27,
          "interpolation": "LINEAR"
        },
        {
          "input": 14,
          "output": 28,
          "interpolation": "LINEAR"
        },
        {
          "input": 14,
          "output": 29,
          "interpolation": "LINEAR"
        },
        {
          "input": 14,
          "output": 30,
          "interpolation": "LINEAR"
        },
        {
          "input": 14,
          "output": 31,
          "interpolation": "LINEAR"
        },
        {
          "input": 14,
          "output": 32,
          "interpolation": "LINEAR"
        },
        {
          "input": 14,
          "output": 33,
          "interpolation": "LINEAR"
        },
        {
          "input": 14,
          "output": 34,
          "interpolation": "LINEAR"
        },
        {
          "input": 14,
          "output": 35,
          "interpolation": "LINEAR"
        },
        {
          "input": 14,
          "output": 36,
          "interpolation": "LINEAR"
        },
        {
          "input": 14,
          "output": 37,
          "interpolation": "LINEAR"
        },
        {
          "input": 14,
          "output": 38,
          "interpolation": "LINEAR"
        },
        {
          "input": 14,
          "output": 39,
          "interpolation": "LINEAR"
        },
        {
          "input": 14,
          "output": 40,
          "interpolation": "LINEAR"
        },
        {
          "input": 14,
          "output": 41,
          "interpolation": "LINEAR"
        },
        {
          "input": 14,
          "output": 42,
          "interpolation": "LINEAR"
        },
        {
          "input": 14,
          "output": 43,
          "interpolation": "LINEAR"
        },
        {
          "input": 14,
          "output": 44,
          "interpolation": "LINEAR"
        },
        {
          "input": 14,
          "output": 45,
          "interpolation": "LINEAR"
        },
        {
          "input": 14,
          "output": 46,
          "interpolation": "LINEAR"
        },
        {
          "input": 14,
          "output": 47,
          "interpolation": "LINEAR"
        },
        {
          "input": 14,
          "output": 48,
          "interpolation": "LINEAR"
        },
        {
          "input": 14,
          "output": 49,
          "interpolation": "LINEAR"
        },
        {
          "input": 14,
          "output": 50,
          "interpolation": "LINEAR"
        },
        {
          "input": 14,
          "output": 51,
          "interpolation": "LINEAR"
        },
        {
          "input": 14,
          "output": 52,
          "interpolation": "LINEAR"
        },
        {
          "input": 14,
          "output": 53,
          "interpolation": "LINEAR"
        },
        {
          "input": 14,
          "output": 54,
          "interpolation": "LINEAR"
        },
        {
          "input": 14,
          "output": 55,
          "interpolation": "LINEAR"
        },
        {
          "input": 14,
          "output": 56,
          "interpolation": "LINEAR"
        },
        {
          "input": 14,
          "output": 57,
          "interpolation": "LINEAR"
        },
        {
          "input": 14,
          "output": 58,
          "interpolation": "LINEAR"
        },
        {
          "input": 14,
          "output": 59,
          "interpolation": "LINEAR"
        },
        {
          "input": 14,
          "output": 60,
          "interpolation": "LINEAR"
        },
        {
          "input": 14,
          "output": 61,
          "interpolation": "LINEAR"
        },
        {
          "input": 14,
          "output": 62,
          "interpolation": "LINEAR"
        },
        {
          "input": 14,
          "output": 63,
          "interpolation": "LINEAR"
        },
        {
          "input": 14,
          "output": 64,
          "interpolation": "LINEAR"
        },
        {
          "input": 14,
          "output": 65,
          "interpolation": "LINEAR"
        },
        {
          "input": 14,
          "output": 66,
          "interpolation": "LINEAR"
        },
        {
          "input": 14,
          "output": 67,
          "interpolation": "LINEAR"
        },
        {
          "input": 14,
          "output": 68,
          "interpolation": "LINEAR"
        },
        {
          "input": 14,
          "output": 69,
          "interpolation": "LINEAR"
        },
        {
          "input": 14,
          "output": 70,
          "interpolation": "LINEAR"
        },
        {
          "input": 14,
          "output": 71,
          "interpolation": "LINEAR"
        },
        {
          "input": 14,
          "output": 72,
          "interpolation": "LINEAR"
        },
        {
          "input": 14,
          "output": 73,
          "interpolation": "LINEAR"
        },
        {
          "input": 14,
          "output": 74,
          "interpolation": "LINEAR"
        },
        {
          "input": 14,
          "output": 75,
          "interpolation": "LINEAR"
        },
        {
          "input": 14,
          "output": 76,
          "interpolation": "LINEAR"
        },
        {
          "input": 14,
          "output": 77,
          "interpolation": "LINEAR"
        },
        {
          "input": 14,
          "output": 78,
          "interpolation": "LINEAR"
        },
        {
          "input": 14,
          "output": 79,
          "interpolation": "LINEAR"
        },
        {
          "input": 14,
          "output": 80,
          "interpolation": "LINEAR"
        },
        {
          "input": 14,
          "output": 81,
          "interpolation": "LINEAR"
        },
        {
          "input": 14,
          "output": 82,
          "interpolation": "LINEAR"
        },
        {
          "input": 14,
          "output": 83,
          "interpolation": "LINEAR"
        },
        {
          "input": 14,
          "output": 84,
          "interpolation": "LINEAR"
        },
        {
          "input": 14,
          "output": 85,
          "interpolation": "LINEAR"
        },
        {
          "input": 14,
          "output": 86,
          "interpolation": "LINEAR"
        },
        {
          "input": 14,
          "output": 87,
          "interpolation": "LINEAR"
        },
        {
          "input": 14,
          "output": 88,
          "interpolation": "LINEAR"
        },
        {
          "input": 14,
          "output": 89,
          "interpolation": "LINEAR"
        },
        {
          "input": 14,
          "output": 90,
          "interpolation": "LINEAR"
        },
        {
          "input": 14,
          "output": 91,
          "interpolation": "LINEAR"
        },
        {
          "input": 14,
          "output": 92,
          "interpolation": "LINEAR"
        },
        {
          "input": 14,
          "output": 93,
          "interpolation": "LINEAR"
        },
        {
          "input": 14,
          "output": 94,
          "interpolation": "LINEAR"
        },
        {
          "input": 14,
          "output": 95,
          "interpolation": "LINEAR"
        },
        {
          "input": 14,
          "output": 96,
          "interpolation": "LINEAR"
        },
        {
          "input": 14,
          "output": 97,
          "interpolation": "LINEAR"
        },
        {
          "input": 14,
          "output": 98,
          "interpolation": "LINEAR"
        },
        {
          "input": 14,
          "output": 99,
          "interpolation": "LINEAR"
        },
        {
          "input": 14,
          "output": 100,
          "interpolation": "LINEAR"
        },
        {
          "input": 14,
          "output": 101,
          "interpolation": "LINEAR"
        },
        {
          "input": 14,
          "output": 102,
          "interpolation": "LINEAR"
        },
        {
          "input": 14,
          "output": 103,
          "interpolation": "LINEAR"
        },
        {
          "input": 14,
          "output": 104,
          "interpolation": "LINEAR"
        },
        {
          "input": 14,
          "output": 105,
          "interpolation": "LINEAR"
        },
        {
          "input": 14,
          "output": 106,
          "interpolation": "LINEAR"
        },
        {
          "input": 14,
          "output": 107,
          "interpolation": "LINEAR"
        },
        {
          "input": 14,
          "output": 108,
          "interpolation": "LINEAR"
        },
        {
          "input": 14,
          "output": 109,
          "interpolation": "LINEAR"
        },
        {
          "input": 14,
          "output": 110,
          "interpolation": "LINEAR"
        },
        {
          "input": 14,
          "output": 111,
          "interpolation": "LINEAR"
        },
        {
          "input": 14,
          "output": 112,
          "interpolation": "LINEAR"
        },
        {
          "input": 14,
          "output": 113,
          "interpolation": "LINEAR"
        },
        {
          "input": 14,
          "output": 114,
          "interpolation": "LINEAR"
        },
        {
          "input": 14,
          "output": 115,
          "interpolation": "LINEAR"
        },
        {
          "input": 14,
          "output": 116,
          "interpolation": "LINEAR"
        },
        {
          "input": 14,
          "output": 117,
          "interpolation": "LINEAR"
        },
        {
          "input": 14,
          "output": 118,
          "interpolation": "LINEAR"
        }
      ]
    }
  ],
  "bufferViews": [
    {
      "name": "mesh_indexes_empire_rod-2",
      "buffer": 0,
      "byteOffset": 0,
      "byteLength": 37032,
      "target": 34963
    },
    {
      "name": "mesh_vertexes_empire_rod-2",
      "buffer": 0,
      "byteOffset": 37032,
      "byteLength": 131508,
      "byteStride": 52,
      "target": 34962
    },
    {
      "name": "mesh_bones_empire_rod-2",
      "buffer": 0,
      "byteOffset": 168540,
      "byteLength": 2304
    },
    {
      "name": "mesh_indexes_empire_rod-2_wing",
      "buffer": 0,
      "byteOffset": 170844,
      "byteLength": 12768,
      "target": 34963
    },
    {
      "name": "mesh_vertexes_empire_rod-2_wing",
      "buffer": 0,
      "byteOffset": 183612,
      "byteLength": 49504,
      "byteStride": 52,
      "target": 34962
    },
    {
      "name": "mesh_bones_empire_rod-2_wing",
      "buffer": 0,
      "byteOffset": 233116,
      "byteLength": 1088
    },
    {
      "name": "frames",
      "buffer": 0,
      "byteOffset": 234204,
      "byteLength": 804
    },
    {
      "name": "bones_rotate",
      "buffer": 0,
      "byteOffset": 235008,
      "byteLength": 167232
    },
    {
      "name": "bones_translate",
      "buffer": 0,
      "byteOffset": 402240,
      "byteLength": 125424
    }
  ],
  "buffers": [
    {
      "uri": "character_empire_rod-2.bin",
      "byteLength": 527664
    }
  ],
  "images": [
    {
      "uri": "empire_rod-2.dds"
    },
    {
      "uri": "empire_rod_wings.dds"
    }
  ],
  "textures": [
    {
      "source": 0
    },
    {
      "source": 1
    }
  ],
  "materials": [
    {
      "name": "material0",
      "alphaMode": "MASK",
      "pbrMetallicRoughness": {
        "baseColorTexture": {
          "index": 0,
          "texCoord": 0
        },
        "metallicFactor": 0.0
      },
      "emissiveFactor": [
        0.0,
        0.0,
        0.0
      ]
    },
    {
      "name": "material1",
      "alphaMode": "MASK",
      "pbrMetallicRoughness": {
        "baseColorTexture": {
          "index": 1,
          "texCoord": 0
        },
        "metallicFactor": 0.0
      },
      "emissiveFactor": [
        0.0,
        0.0,
        0.0
      ]
    }
  ]
}