{"asset": {"version": "2.0", "generator": "d3tool (geo2011 reverse)"}, "scene": 0, "scenes": [{"nodes": [0, 1]}], "nodes": [{"name": "neutrals_airelemental", "mesh": 0, "skin": 0}, {"name": "Root", "rotation": [-0.7071067690849304, 0.0, 0.0, 0.7071067690849304], "translation": [0.0, -0.6657682657241821, 2.9101656195962278e-08], "children": [2]}, {"name": "Hips", "rotation": [-0.048407379537820816, 0.02041417360305786, -0.02991383522748947, 0.9981709122657776], "translation": [0.08596011996269226, -0.009688295423984528, 2.0666582584381104], "children": [3, 41]}, {"name": "Spine", "rotation": [0.02601555362343788, -0.02657053805887699, -0.0069889952428638935, 0.9992839097976685], "translation": [-3.941759807446488e-09, 2.6292392707460976e-09, 0.4023357629776001], "children": [4, 5, 23]}, {"name": "Head", "rotation": [0.045913320034742355, 0.025530420243740082, 0.053990356624126434, 0.9971585869789124], "translation": [-7.970238691257236e-09, 3.697831818527675e-09, 0.4446868300437927]}, {"name": "LeftArm", "rotation": [0.14621995389461517, 0.00911108311265707, -0.6290016174316406, 0.7634747624397278], "translation": [0.4670359194278717, -0.012002433650195599, 0.7783015966415405], "children": [6]}, {"name": "LeftForeArm", "rotation": [-0.01588444411754608, 0.3875311017036438, -0.00022439094027504325, 0.9217197299003601], "translation": [0.6139762997627258, 0.012002436444163322, -0.6541082859039307], "children": [7]}, {"name": "LeftHand", "rotation": [-0.1360955536365509, 0.28167831897735596, 0.7299243807792664, 0.6077382564544678], "translation": [0.3274160921573639, 1.8174933558157136e-08, -0.7490962147712708], "children": [8, 11, 14, 17, 19]}, {"name": "LeftPinkie01", "rotation": [-0.02535582333803177, -0.08588570356369019, -0.02306763455271721, 0.9957151412963867], "translation": [0.041897621005773544, -0.09759994596242905, -0.1953381597995758], "children": [9]}, {"name": "LeftPinkie02", "rotation": [-0.0020406704861670732, -0.013595862314105034, -0.00226523051969707, 0.9999029636383057], "translation": [-0.024554694071412086, 0.011383499018847942, -0.08157318085432053], "children": [10]}, {"name": "LeftPinkie03", "rotation": [0.04040702059864998, 0.09273231029510498, 9.982943993236404e-06, 0.9948709011077881], "translation": [-0.040056902915239334, 0.009771948680281639, -0.014123857021331787]}, {"name": "LeftRing01", "rotation": [-0.03819119185209274, -0.1561516970396042, -0.033950742334127426, 0.98641037940979], "translation": [0.06770630180835724, -0.05266788601875305, -0.21276427805423737], "children": [12]}, {"name": "LeftRing02", "rotation": [0.018986545503139496, 0.04993421584367752, 4.744628313346766e-05, 0.998572051525116], "translation": [-0.048619624227285385, 0.009990282356739044, -0.08062134683132172], "children": [13]}, {"name": "LeftRing03", "rotation": [-0.0001459795457776636, -0.01292671449482441, -0.000653946481179446, 0.9999162554740906], "translation": [-0.055497780442237854, 0.013650713488459587, -0.042448170483112335]}, {"name": "LeftMiddle01", "rotation": [0.021666809916496277, -0.19703659415245056, -0.03123791702091694, 0.979658842086792], "translation": [0.08580971509218216, -0.0016981750959530473, -0.2173280417919159], "children": [15]}, {"name": "LeftMiddle02", "rotation": [0.0025109094567596912, 0.014923257753252983, 1.3921736581323785e-06, 0.9998855590820312], "translation": [-0.05231688171625137, 0.009990351274609566, -0.091169573366642], "children": [16]}, {"name": "LeftMiddle03", "rotation": [-2.1849190545708552e-07, 0.012223733589053154, -1.2085601497346943e-07, 0.9999253749847412], "translation": [-0.07163343578577042, 0.01103653572499752, -0.03331206366419792]}, {"name": "LeftThumb01", "rotation": [0.15281341969966888, 0.05063426494598389, 0.09140971302986145, 0.9827148914337158], "translation": [0.012835352681577206, 0.10051088035106659, -0.10109255462884903], "children": [18]}, {"name": "LeftThumb02", "rotation": [1.431222251824238e-09, -1.975123814190738e-05, 1.81182476808317e-05, 1.0], "translation": [-0.021737193688750267, 0.042456865310668945, -0.08799363672733307]}, {"name": "LeftPreThumb", "rotation": [0.0, 0.0, 0.0, 1.0], "translation": [0.054694242775440216, 0.037154726684093475, -0.1310756951570511], "children": [20]}, {"name": "LeftIndex01", "rotation": [0.003405763767659664, -0.12531882524490356, -0.034157320857048035, 0.9915225505828857], "translation": [0.030146831646561623, 0.01608128845691681, -0.08533065766096115], "children": [21]}, {"name": "LeftIndex02", "rotation": [-0.002040664665400982, -0.013595862314105034, -0.0022652349434792995, 0.9999029636383057], "translation": [-0.024554699659347534, 0.01138347014784813, -0.08157303184270859], "children": [22]}, {"name": "LeftIndex03", "rotation": [-0.00014605266915168613, -0.01292671449482441, -0.0006538731977343559, 0.9999162554740906], "translation": [-0.05549776554107666, 0.013650743290781975, -0.042448174208402634]}, {"name": "RightArm", "rotation": [0.11754364520311356, 0.034429289400577545, 0.4851115345954895, 0.8658319115638733], "translation": [-0.46703600883483887, -0.012002448551356792, 0.7783085703849792], "children": [24]}, {"name": "RightForeArm", "rotation": [-0.007140001747757196, -0.18258431553840637, 0.0016601657262071967, 0.9831628799438477], "translation": [-0.6139760613441467, 0.012002440169453621, -0.654120147228241], "children": [25]}, {"name": "RightHand", "rotation": [-0.08992622792720795, -0.002813012572005391, -0.35972416400909424, 0.9287108778953552], "translation": [-0.32741600275039673, 3.362493217196061e-08, -0.7490919232368469], "children": [26, 29, 32, 35, 37]}, {"name": "RightPinkie01", "rotation": [-0.12321705371141434, 0.11625742167234421, -0.17864707112312317, 0.9692197442054749], "translation": [-0.041897963732481, -0.09760002791881561, -0.19533802568912506], "children": [27]}, {"name": "RightPinkie02", "rotation": [0.08715631067752838, -0.2084340751171112, 0.004982446786016226, 0.9741324782371521], "translation": [0.04265792667865753, 0.006119202356785536, -0.06308195739984512], "children": [28]}, {"name": "RightPinkie03", "rotation": [0.044727299362421036, -0.2754174768924713, -0.007183554116636515, 0.9602567553520203], "translation": [0.05549798533320427, 0.013650590553879738, -0.042450010776519775]}, {"name": "RightRing01", "rotation": [-0.1673036813735962, 0.01984815113246441, -0.12273038178682327, 0.9780351519584656], "translation": [-0.06770601123571396, -0.052668001502752304, -0.21276402473449707], "children": [30]}, {"name": "RightRing02", "rotation": [0.0442056767642498, -0.18684254586696625, 0.0005156515398994088, 0.9813946485519409], "translation": [0.048620011657476425, 0.009990392252802849, -0.0806218758225441], "children": [31]}, {"name": "RightRing03", "rotation": [0.025025205686688423, -0.21910521388053894, -0.006126723252236843, 0.9753609895706177], "translation": [0.053727857768535614, 0.011036594398319721, -0.022134047001600266]}, {"name": "RightMiddle01", "rotation": [-0.10089131444692612, 0.038482315838336945, -0.10347426682710648, 0.9887533187866211], "translation": [-0.08580993115901947, -0.0016981803346425295, -0.2173280417919159], "children": [33]}, {"name": "RightMiddle02", "rotation": [0.026615412905812263, -0.15778879821300507, -0.0013163931434974074, 0.9871132373809814], "translation": [0.05231794714927673, 0.009990341030061245, -0.09116800874471664], "children": [34]}, {"name": "RightMiddle03", "rotation": [0.011683076620101929, -0.17466340959072113, -0.00448151770979166, 0.9845486879348755], "translation": [0.07163190841674805, 0.011036518029868603, -0.03331201523542404]}, {"name": "RightThumb01", "rotation": [-0.19868411123752594, 0.10577097535133362, -0.15873588621616364, 0.961322009563446], "translation": [-0.012836018577218056, 0.10051078349351883, -0.10109202563762665], "children": [36]}, {"name": "RightThumb02", "rotation": [3.4757768885285145e-10, 4.676119491620057e-10, -4.334225013735704e-05, 1.0], "translation": [0.021738020703196526, 0.04245700687170029, -0.08799402415752411]}, {"name": "RightPreThumb", "rotation": [0.0, 0.0, 0.0, 1.0], "translation": [-0.054693978279829025, 0.03715479373931885, -0.13107600808143616], "children": [38]}, {"name": "RightIndex01", "rotation": [-0.1605345606803894, -0.008917953819036484, -0.08448439836502075, 0.9833674430847168], "translation": [-0.030147934332489967, 0.016081182286143303, -0.0853300467133522], "children": [39]}, {"name": "RightIndex02", "rotation": [-0.002999396761879325, 0.027508072555065155, 0.0006829525227658451, 0.9996168613433838], "translation": [0.024555904790759087, 0.011383594945073128, -0.08157193660736084], "children": [40]}, {"name": "RightIndex03", "rotation": [0.044727303087711334, -0.2754175066947937, -0.00718354806303978, 0.9602567553520203], "translation": [0.055497922003269196, 0.013650606386363506, -0.04244996979832649]}, {"name": "Tail01", "rotation": [-0.11948273330926895, 0.05066646263003349, -0.03657776489853859, 0.9908677339553833], "translation": [-5.126004509747872e-09, -5.781871426080443e-09, -0.04755788296461105], "children": [42]}, {"name": "RightTail02", "rotation": [-0.11389119178056717, 0.017461054027080536, -0.050138428807258606, 0.9920735955238342], "translation": [9.044540227876041e-09, -1.2382219694018204e-09, -0.7465258836746216]}], "skins": [{"joints": [23, 3, 4, 24, 5, 6, 2, 41, 25, 35, 26, 29, 32, 38, 39, 40, 33, 30, 27, 36, 34, 31, 28, 7, 17, 8, 14, 11, 20, 21, 22, 15, 12, 9, 18, 16, 13, 10], "inverseBindMatrices": 6}], "meshes": [{"name": "neutrals_airelemental", "primitives": [{"attributes": {"POSITION": 1, "NORMAL": 2, "TEXCOORD_0": 3, "WEIGHTS_0": 4, "JOINTS_0": 5}, "indices": 0, "material": 0}]}], "accessors": [{"bufferView": 0, "componentType": 5125, "count": 15168, "type": "SCALAR"}, {"bufferView": 1, "componentType": 5126, "count": 3453, "type": "VEC3", "byteOffset": 0, "min": [-1.5271210670471191, 1.5070080757141113, -0.3856811821460724], "max": [1.5271214246749878, 4.160654067993164, 0.39606305956840515]}, {"bufferView": 1, "componentType": 5126, "count": 3453, "type": "VEC3", "byteOffset": 12}, {"bufferView": 1, "componentType": 5126, "count": 3453, "type": "VEC2", "byteOffset": 24}, {"bufferView": 1, "componentType": 5126, "count": 3453, "type": "VEC4", "byteOffset": 32}, {"bufferView": 1, "componentType": 5121, "count": 3453, "type": "VEC4", "byteOffset": 48}, {"bufferView": 2, "componentType": 5126, "count": 38, "type": "MAT4"}, {"bufferView": 3, "componentType": 5126, "count": 363, "type": "SCALAR", "min": [0.0], "max": [12.066667295992374]}, {"bufferView": 4, "componentType": 5126, "count": 363, "type": "VEC4", "byteOffset": 0}, {"bufferView": 5, "componentType": 5126, "count": 363, "type": "VEC3", "byteOffset": 0}, {"bufferView": 4, "componentType": 5126, "count": 363, "type": "VEC4", "byteOffset": 5808}, {"bufferView": 5, "componentType": 5126, "count": 363, "type": "VEC3", "byteOffset": 4356}, {"bufferView": 4, "componentType": 5126, "count": 363, "type": "VEC4", "byteOffset": 11616}, {"bufferView": 5, "componentType": 5126, "count": 363, "type": "VEC3", "byteOffset": 8712}, {"bufferView": 4, "componentType": 5126, "count": 363, "type": "VEC4", "byteOffset": 17424}, {"bufferView": 5, "componentType": 5126, "count": 363, "type": "VEC3", "byteOffset": 13068}, {"bufferView": 4, "componentType": 5126, "count": 363, "type": "VEC4", "byteOffset": 23232}, {"bufferView": 5, "componentType": 5126, "count": 363, "type": "VEC3", "byteOffset": 17424}, {"bufferView": 4, "componentType": 5126, "count": 363, "type": "VEC4", "byteOffset": 29040}, {"bufferView": 5, "componentType": 5126, "count": 363, "type": "VEC3", "byteOffset": 21780}, {"bufferView": 4, "componentType": 5126, "count": 363, "type": "VEC4", "byteOffset": 34848}, {"bufferView": 5, "componentType": 5126, "count": 363, "type": "VEC3", "byteOffset": 26136}, {"bufferView": 4, "componentType": 5126, "count": 363, "type": "VEC4", "byteOffset": 40656}, {"bufferView": 5, "componentType": 5126, "count": 363, "type": "VEC3", "byteOffset": 30492}, {"bufferView": 4, "componentType": 5126, "count": 363, "type": "VEC4", "byteOffset": 46464}, {"bufferView": 5, "componentType": 5126, "count": 363, "type": "VEC3", "byteOffset": 34848}, {"bufferView": 4, "componentType": 5126, "count": 363, "type": "VEC4", "byteOffset": 52272}, {"bufferView": 5, "componentType": 5126, "count": 363, "type": "VEC3", "byteOffset": 39204}, {"bufferView": 4, "componentType": 5126, "count": 363, "type": "VEC4", "byteOffset": 58080}, {"bufferView": 5, "componentType": 5126, "count": 363, "type": "VEC3", "byteOffset": 43560}, {"bufferView": 4, "componentType": 5126, "count": 363, "type": "VEC4", "byteOffset": 63888}, {"bufferView": 5, "componentType": 5126, "count": 363, "type": "VEC3", "byteOffset": 47916}, {"bufferView": 4, "componentType": 5126, "count": 363, "type": "VEC4", "byteOffset": 69696}, {"bufferView": 5, "componentType": 5126, "count": 363, "type": "VEC3", "byteOffset": 52272}, {"bufferView": 4, "componentType": 5126, "count": 363, "type": "VEC4", "byteOffset": 75504}, {"bufferView": 5, "componentType": 5126, "count": 363, "type": "VEC3", "byteOffset": 56628}, {"bufferView": 4, "componentType": 5126, "count": 363, "type": "VEC4", "byteOffset": 81312}, {"bufferView": 5, "componentType": 5126, "count": 363, "type": "VEC3", "byteOffset": 60984}, {"bufferView": 4, "componentType": 5126, "count": 363, "type": "VEC4", "byteOffset": 87120}, {"bufferView": 5, "componentType": 5126, "count": 363, "type": "VEC3", "byteOffset": 65340}, {"bufferView": 4, "componentType": 5126, "count": 363, "type": "VEC4", "byteOffset": 92928}, {"bufferView": 5, "componentType": 5126, "count": 363, "type": "VEC3", "byteOffset": 69696}, {"bufferView": 4, "componentType": 5126, "count": 363, "type": "VEC4", "byteOffset": 98736}, {"bufferView": 5, "componentType": 5126, "count": 363, "type": "VEC3", "byteOffset": 74052}, {"bufferView": 4, "componentType": 5126, "count": 363, "type": "VEC4", "byteOffset": 104544}, {"bufferView": 5, "componentType": 5126, "count": 363, "type": "VEC3", "byteOffset": 78408}, {"bufferView": 4, "componentType": 5126, "count": 363, "type": "VEC4", "byteOffset": 110352}, {"bufferView": 5, "componentType": 5126, "count": 363, "type": "VEC3", "byteOffset": 82764}, {"bufferView": 4, "componentType": 5126, "count": 363, "type": "VEC4", "byteOffset": 116160}, {"bufferView": 5, "componentType": 5126, "count": 363, "type": "VEC3", "byteOffset": 87120}, {"bufferView": 4, "componentType": 5126, "count": 363, "type": "VEC4", "byteOffset": 121968}, {"bufferView": 5, "componentType": 5126, "count": 363, "type": "VEC3", "byteOffset": 91476}, {"bufferView": 4, "componentType": 5126, "count": 363, "type": "VEC4", "byteOffset": 127776}, {"bufferView": 5, "componentType": 5126, "count": 363, "type": "VEC3", "byteOffset": 95832}, {"bufferView": 4, "componentType": 5126, "count": 363, "type": "VEC4", "byteOffset": 133584}, {"bufferView": 5, "componentType": 5126, "count": 363, "type": "VEC3", "byteOffset": 100188}, {"bufferView": 4, "componentType": 5126, "count": 363, "type": "VEC4", "byteOffset": 139392}, {"bufferView": 5, "componentType": 5126, "count": 363, "type": "VEC3", "byteOffset": 104544}, {"bufferView": 4, "componentType": 5126, "count": 363, "type": "VEC4", "byteOffset": 145200}, {"bufferView": 5, "componentType": 5126, "count": 363, "type": "VEC3", "byteOffset": 108900}, {"bufferView": 4, "componentType": 5126, "count": 363, "type": "VEC4", "byteOffset": 151008}, {"bufferView": 5, "componentType": 5126, "count": 363, "type": "VEC3", "byteOffset": 113256}, {"bufferView": 4, "componentType": 5126, "count": 363, "type": "VEC4", "byteOffset": 156816}, {"bufferView": 5, "componentType": 5126, "count": 363, "type": "VEC3", "byteOffset": 117612}, {"bufferView": 4, "componentType": 5126, "count": 363, "type": "VEC4", "byteOffset": 162624}, {"bufferView": 5, "componentType": 5126, "count": 363, "type": "VEC3", "byteOffset": 121968}, {"bufferView": 4, "componentType": 5126, "count": 363, "type": "VEC4", "byteOffset": 168432}, {"bufferView": 5, "componentType": 5126, "count": 363, "type": "VEC3", "byteOffset": 126324}, {"bufferView": 4, "componentType": 5126, "count": 363, "type": "VEC4", "byteOffset": 174240}, {"bufferView": 5, "componentType": 5126, "count": 363, "type": "VEC3", "byteOffset": 130680}, {"bufferView": 4, "componentType": 5126, "count": 363, "type": "VEC4", "byteOffset": 180048}, {"bufferView": 5, "componentType": 5126, "count": 363, "type": "VEC3", "byteOffset": 135036}, {"bufferView": 4, "componentType": 5126, "count": 363, "type": "VEC4", "byteOffset": 185856}, {"bufferView": 5, "componentType": 5126, "count": 363, "type": "VEC3", "byteOffset": 139392}, {"bufferView": 4, "componentType": 5126, "count": 363, "type": "VEC4", "byteOffset": 191664}, {"bufferView": 5, "componentType": 5126, "count": 363, "type": "VEC3", "byteOffset": 143748}, {"bufferView": 4, "componentType": 5126, "count": 363, "type": "VEC4", "byteOffset": 197472}, {"bufferView": 5, "componentType": 5126, "count": 363, "type": "VEC3", "byteOffset": 148104}, {"bufferView": 4, "componentType": 5126, "count": 363, "type": "VEC4", "byteOffset": 203280}, {"bufferView": 5, "componentType": 5126, "count": 363, "type": "VEC3", "byteOffset": 152460}, {"bufferView": 4, "componentType": 5126, "count": 363, "type": "VEC4", "byteOffset": 209088}, {"bufferView": 5, "componentType": 5126, "count": 363, "type": "VEC3", "byteOffset": 156816}, {"bufferView": 4, "componentType": 5126, "count": 363, "type": "VEC4", "byteOffset": 214896}, {"bufferView": 5, "componentType": 5126, "count": 363, "type": "VEC3", "byteOffset": 161172}, {"bufferView": 4, "componentType": 5126, "count": 363, "type": "VEC4", "byteOffset": 220704}, {"bufferView": 5, "componentType": 5126, "count": 363, "type": "VEC3", "byteOffset": 165528}, {"bufferView": 4, "componentType": 5126, "count": 363, "type": "VEC4", "byteOffset": 226512}, {"bufferView": 5, "componentType": 5126, "count": 363, "type": "VEC3", "byteOffset": 169884}, {"bufferView": 4, "componentType": 5126, "count": 363, "type": "VEC4", "byteOffset": 232320}, {"bufferView": 5, "componentType": 5126, "count": 363, "type": "VEC3", "byteOffset": 174240}, {"bufferView": 4, "componentType": 5126, "count": 363, "type": "VEC4", "byteOffset": 238128}, {"bufferView": 5, "componentType": 5126, "count": 363, "type": "VEC3", "byteOffset": 178596}], "bufferViews": [{"name": "mesh_indexes", "buffer": 0, "byteOffset": 0, "byteLength": 60672, "target": 34963}, {"name": "mesh_vertexes", "buffer": 0, "byteOffset": 60672, "byteLength": 179556, "byteStride": 52, "target": 34962}, {"name": "mesh_bones", "buffer": 0, "byteOffset": 240228, "byteLength": 2432}, {"name": "frames", "buffer": 0, "byteOffset": 242660, "byteLength": 1452}, {"name": "bones_rotate", "buffer": 0, "byteOffset": 244112, "byteLength": 243936}, {"name": "bones_translate", "buffer": 0, "byteOffset": 488048, "byteLength": 182952}], "buffers": [{"uri": "character_neutrals_airelemental.bin", "byteLength": 671000}], "animations": [{"channels": [{"sampler": 0, "target": {"node": 1, "path": "rotation"}}, {"sampler": 1, "target": {"node": 1, "path": "translation"}}, {"sampler": 2, "target": {"node": 2, "path": "rotation"}}, {"sampler": 3, "target": {"node": 2, "path": "translation"}}, {"sampler": 4, "target": {"node": 3, "path": "rotation"}}, {"sampler": 5, "target": {"node": 3, "path": "translation"}}, {"sampler": 6, "target": {"node": 4, "path": "rotation"}}, {"sampler": 7, "target": {"node": 4, "path": "translation"}}, {"sampler": 8, "target": {"node": 5, "path": "rotation"}}, {"sampler": 9, "target": {"node": 5, "path": "translation"}}, {"sampler": 10, "target": {"node": 6, "path": "rotation"}}, {"sampler": 11, "target": {"node": 6, "path": "translation"}}, {"sampler": 12, "target": {"node": 7, "path": "rotation"}}, {"sampler": 13, "target": {"node": 7, "path": "translation"}}, {"sampler": 14, "target": {"node": 8, "path": "rotation"}}, {"sampler": 15, "target": {"node": 8, "path": "translation"}}, {"sampler": 16, "target": {"node": 9, "path": "rotation"}}, {"sampler": 17, "target": {"node": 9, "path": "translation"}}, {"sampler": 18, "target": {"node": 10, "path": "rotation"}}, {"sampler": 19, "target": {"node": 10, "path": "translation"}}, {"sampler": 20, "target": {"node": 11, "path": "rotation"}}, {"sampler": 21, "target": {"node": 11, "path": "translation"}}, {"sampler": 22, "target": {"node": 12, "path": "rotation"}}, {"sampler": 23, "target": {"node": 12, "path": "translation"}}, {"sampler": 24, "target": {"node": 13, "path": "rotation"}}, {"sampler": 25, "target": {"node": 13, "path": "translation"}}, {"sampler": 26, "target": {"node": 14, "path": "rotation"}}, {"sampler": 27, "target": {"node": 14, "path": "translation"}}, {"sampler": 28, "target": {"node": 15, "path": "rotation"}}, {"sampler": 29, "target": {"node": 15, "path": "translation"}}, {"sampler": 30, "target": {"node": 16, "path": "rotation"}}, {"sampler": 31, "target": {"node": 16, "path": "translation"}}, {"sampler": 32, "target": {"node": 17, "path": "rotation"}}, {"sampler": 33, "target": {"node": 17, "path": "translation"}}, {"sampler": 34, "target": {"node": 18, "path": "rotation"}}, {"sampler": 35, "target": {"node": 18, "path": "translation"}}, {"sampler": 36, "target": {"node": 19, "path": "rotation"}}, {"sampler": 37, "target": {"node": 19, "path": "translation"}}, {"sampler": 38, "target": {"node": 20, "path": "rotation"}}, {"sampler": 39, "target": {"node": 20, "path": "translation"}}, {"sampler": 40, "target": {"node": 21, "path": "rotation"}}, {"sampler": 41, "target": {"node": 21, "path": "translation"}}, {"sampler": 42, "target": {"node": 22, "path": "rotation"}}, {"sampler": 43, "target": {"node": 22, "path": "translation"}}, {"sampler": 44, "target": {"node": 23, "path": "rotation"}}, {"sampler": 45, "target": {"node": 23, "path": "translation"}}, {"sampler": 46, "target": {"node": 24, "path": "rotation"}}, {"sampler": 47, "target": {"node": 24, "path": "translation"}}, {"sampler": 48, "target": {"node": 25, "path": "rotation"}}, {"sampler": 49, "target": {"node": 25, "path": "translation"}}, {"sampler": 50, "target": {"node": 26, "path": "rotation"}}, {"sampler": 51, "target": {"node": 26, "path": "translation"}}, {"sampler": 52, "target": {"node": 27, "path": "rotation"}}, {"sampler": 53, "target": {"node": 27, "path": "translation"}}, {"sampler": 54, "target": {"node": 28, "path": "rotation"}}, {"sampler": 55, "target": {"node": 28, "path": "translation"}}, {"sampler": 56, "target": {"node": 29, "path": "rotation"}}, {"sampler": 57, "target": {"node": 29, "path": "translation"}}, {"sampler": 58, "target": {"node": 30, "path": "rotation"}}, {"sampler": 59, "target": {"node": 30, "path": "translation"}}, {"sampler": 60, "target": {"node": 31, "path": "rotation"}}, {"sampler": 61, "target": {"node": 31, "path": "translation"}}, {"sampler": 62, "target": {"node": 32, "path": "rotation"}}, {"sampler": 63, "target": {"node": 32, "path": "translation"}}, {"sampler": 64, "target": {"node": 33, "path": "rotation"}}, {"sampler": 65, "target": {"node": 33, "path": "translation"}}, {"sampler": 66, "target": {"node": 34, "path": "rotation"}}, {"sampler": 67, "target": {"node": 34, "path": "translation"}}, {"sampler": 68, "target": {"node": 35, "path": "rotation"}}, {"sampler": 69, "target": {"node": 35, "path": "translation"}}, {"sampler": 70, "target": {"node": 36, "path": "rotation"}}, {"sampler": 71, "target": {"node": 36, "path": "translation"}}, {"sampler": 72, "target": {"node": 37, "path": "rotation"}}, {"sampler": 73, "target": {"node": 37, "path": "translation"}}, {"sampler": 74, "target": {"node": 38, "path": "rotation"}}, {"sampler": 75, "target": {"node": 38, "path": "translation"}}, {"sampler": 76, "target": {"node": 39, "path": "rotation"}}, {"sampler": 77, "target": {"node": 39, "path": "translation"}}, {"sampler": 78, "target": {"node": 40, "path": "rotation"}}, {"sampler": 79, "target": {"node": 40, "path": "translation"}}, {"sampler": 80, "target": {"node": 41, "path": "rotation"}}, {"sampler": 81, "target": {"node": 41, "path": "translation"}}, {"sampler": 82, "target": {"node": 42, "path": "rotation"}}, {"sampler": 83, "target": {"node": 42, "path": "translation"}}], "samplers": [{"input": 7, "output": 8, "interpolation": "LINEAR"}, {"input": 7, "output": 9, "interpolation": "LINEAR"}, {"input": 7, "output": 10, "interpolation": "LINEAR"}, {"input": 7, "output": 11, "interpolation": "LINEAR"}, {"input": 7, "output": 12, "interpolation": "LINEAR"}, {"input": 7, "output": 13, "interpolation": "LINEAR"}, {"input": 7, "output": 14, "interpolation": "LINEAR"}, {"input": 7, "output": 15, "interpolation": "LINEAR"}, {"input": 7, "output": 16, "interpolation": "LINEAR"}, {"input": 7, "output": 17, "interpolation": "LINEAR"}, {"input": 7, "output": 18, "interpolation": "LINEAR"}, {"input": 7, "output": 19, "interpolation": "LINEAR"}, {"input": 7, "output": 20, "interpolation": "LINEAR"}, {"input": 7, "output": 21, "interpolation": "LINEAR"}, {"input": 7, "output": 22, "interpolation": "LINEAR"}, {"input": 7, "output": 23, "interpolation": "LINEAR"}, {"input": 7, "output": 24, "interpolation": "LINEAR"}, {"input": 7, "output": 25, "interpolation": "LINEAR"}, {"input": 7, "output": 26, "interpolation": "LINEAR"}, {"input": 7, "output": 27, "interpolation": "LINEAR"}, {"input": 7, "output": 28, "interpolation": "LINEAR"}, {"input": 7, "output": 29, "interpolation": "LINEAR"}, {"input": 7, "output": 30, "interpolation": "LINEAR"}, {"input": 7, "output": 31, "interpolation": "LINEAR"}, {"input": 7, "output": 32, "interpolation": "LINEAR"}, {"input": 7, "output": 33, "interpolation": "LINEAR"}, {"input": 7, "output": 34, "interpolation": "LINEAR"}, {"input": 7, "output": 35, "interpolation": "LINEAR"}, {"input": 7, "output": 36, "interpolation": "LINEAR"}, {"input": 7, "output": 37, "interpolation": "LINEAR"}, {"input": 7, "output": 38, "interpolation": "LINEAR"}, {"input": 7, "output": 39, "interpolation": "LINEAR"}, {"input": 7, "output": 40, "interpolation": "LINEAR"}, {"input": 7, "output": 41, "interpolation": "LINEAR"}, {"input": 7, "output": 42, "interpolation": "LINEAR"}, {"input": 7, "output": 43, "interpolation": "LINEAR"}, {"input": 7, "output": 44, "interpolation": "LINEAR"}, {"input": 7, "output": 45, "interpolation": "LINEAR"}, {"input": 7, "output": 46, "interpolation": "LINEAR"}, {"input": 7, "output": 47, "interpolation": "LINEAR"}, {"input": 7, "output": 48, "interpolation": "LINEAR"}, {"input": 7, "output": 49, "interpolation": "LINEAR"}, {"input": 7, "output": 50, "interpolation": "LINEAR"}, {"input": 7, "output": 51, "interpolation": "LINEAR"}, {"input": 7, "output": 52, "interpolation": "LINEAR"}, {"input": 7, "output": 53, "interpolation": "LINEAR"}, {"input": 7, "output": 54, "interpolation": "LINEAR"}, {"input": 7, "output": 55, "interpolation": "LINEAR"}, {"input": 7, "output": 56, "interpolation": "LINEAR"}, {"input": 7, "output": 57, "interpolation": "LINEAR"}, {"input": 7, "output": 58, "interpolation": "LINEAR"}, {"input": 7, "output": 59, "interpolation": "LINEAR"}, {"input": 7, "output": 60, "interpolation": "LINEAR"}, {"input": 7, "output": 61, "interpolation": "LINEAR"}, {"input": 7, "output": 62, "interpolation": "LINEAR"}, {"input": 7, "output": 63, "interpolation": "LINEAR"}, {"input": 7, "output": 64, "interpolation": "LINEAR"}, {"input": 7, "output": 65, "interpolation": "LINEAR"}, {"input": 7, "output": 66, "interpolation": "LINEAR"}, {"input": 7, "output": 67, "interpolation": "LINEAR"}, {"input": 7, "output": 68, "interpolation": "LINEAR"}, {"input": 7, "output": 69, "interpolation": "LINEAR"}, {"input": 7, "output": 70, "interpolation": "LINEAR"}, {"input": 7, "output": 71, "interpolation": "LINEAR"}, {"input": 7, "output": 72, "interpolation": "LINEAR"}, {"input": 7, "output": 73, "interpolation": "LINEAR"}, {"input": 7, "output": 74, "interpolation": "LINEAR"}, {"input": 7, "output": 75, "interpolation": "LINEAR"}, {"input": 7, "output": 76, "interpolation": "LINEAR"}, {"input": 7, "output": 77, "interpolation": "LINEAR"}, {"input": 7, "output": 78, "interpolation": "LINEAR"}, {"input": 7, "output": 79, "interpolation": "LINEAR"}, {"input": 7, "output": 80, "interpolation": "LINEAR"}, {"input": 7, "output": 81, "interpolation": "LINEAR"}, {"input": 7, "output": 82, "interpolation": "LINEAR"}, {"input": 7, "output": 83, "interpolation": "LINEAR"}, {"input": 7, "output": 84, "interpolation": "LINEAR"}, {"input": 7, "output": 85, "interpolation": "LINEAR"}, {"input": 7, "output": 86, "interpolation": "LINEAR"}, {"input": 7, "output": 87, "interpolation": "LINEAR"}, {"input": 7, "output": 88, "interpolation": "LINEAR"}, {"input": 7, "output": 89, "interpolation": "LINEAR"}, {"input": 7, "output": 90, "interpolation": "LINEAR"}, {"input": 7, "output": 91, "interpolation": "LINEAR"}]}], "materials": [{"pbrMetallicRoughness": {"baseColorTexture": {"index": 0}, "metallicFactor": 0.0}, "doubleSided": true}], "images": [{"uri": "character_neutrals_airelemental.dds"}], "textures": [{"source": 0}]}