{
  "asset": {
    "version": "2.0",
    "generator": "generated with dis3tool v1.1 by root.ext@gmail.com"
  },
  "scenes": [
    {
      "nodes": [
        0,
        1,
        2,
        3,
        4,
        5
      ]
    }
  ],
  "scene": 0,
  "nodes": [
    {
      "name": "empire_imperialpriestess_cloth",
      "mesh": 0
    },
    {
      "name": "empire_imperialpriestess",
      "mesh": 1,
      "skin": 0
    },
    {
      "name": "empire_imperialpriestess_head",
      "mesh": 2,
      "skin": 1
    },
    {
      "name": "weapon_empire_imperialpreastess",
      "mesh": 3,
      "skin": 2
    },
    {
      "name": "empire_imperialpriestess_earring",
      "mesh": 4
    },
    {
      "name": "Root",
      "rotation": [
        0.0,
        0.0,
        0.0,
        1.0
      ],
      "translation": [
        0.0,
        0.0,
        0.0
      ],
      "children": [
        6
      ]
    },
    {
      "name": "Hips",
      "rotation": [
        0.48511523,
        0.5705007,
        -0.469151884,
        -0.468069166
      ],
      "translation": [
        0.007552563,
        0.877118945,
        -0.021804519
      ],
      "children": [
        7,
        34,
        37
      ]
    },
    {
      "name": "Spine",
      "rotation": [
        0.01887784,
        -0.04303253,
        0.0428006575,
        0.997978
      ],
      "translation": [
        0.102425583,
        6.8963697E-09,
        -1.219548E-08
      ],
      "children": [
        8
      ]
    },
    {
      "name": "Spine1",
      "rotation": [
        0.005071444,
        0.110098392,
        -0.0285103023,
        0.993498743
      ],
      "translation": [
        0.236291081,
        -7.337896E-11,
        1.80543E-08
      ],
      "children": [
        9,
        13,
        27,
        32
      ]
    },
    {
      "name": "Neck",
      "rotation": [
        -0.0146807609,
        -0.0537148528,
        0.0136330472,
        0.998355269
      ],
      "translation": [
        0.24408938,
        1.41303569E-09,
        3.78969434E-09
      ],
      "children": [
        10
      ]
    },
    {
      "name": "Head",
      "rotation": [
        0.03348114,
        0.00969978,
        0.0371728837,
        0.9987007
      ],
      "translation": [
        0.0555050261,
        -2.05524131E-08,
        -2.10750883E-08
      ],
      "children": [
        11,
        12
      ]
    },
    {
      "name": "Veko_Down",
      "rotation": [
        0.436542,
        0.5544857,
        0.5561785,
        0.438910365
      ],
      "translation": [
        0.102492288,
        0.04922774,
        0.002867602
      ]
    },
    {
      "name": "Veko_Up",
      "rotation": [
        0.599478245,
        0.372476548,
        0.374873161,
        0.6011301
      ],
      "translation": [
        0.102492288,
        0.04922774,
        0.002867602
      ]
    },
    {
      "name": "LeftShoulder",
      "rotation": [
        0.04335914,
        0.8028875,
        0.0621266551,
        0.591296852
      ],
      "translation": [
        0.2247319,
        -0.004212201,
        -0.0558820181
      ],
      "children": [
        14
      ]
    },
    {
      "name": "LeftArm",
      "rotation": [
        -0.0809407458,
        0.490399361,
        -0.11453674,
        0.860138655
      ],
      "translation": [
        0.09273739,
        -5.80798742E-09,
        -1.05641993E-06
      ],
      "children": [
        15
      ]
    },
    {
      "name": "LeftForeArm",
      "rotation": [
        -0.212009117,
        -0.111014381,
        0.221049085,
        0.9454445
      ],
      "translation": [
        0.238857716,
        -4.133998E-09,
        1.91361733E-06
      ],
      "children": [
        16
      ]
    },
    {
      "name": "LeftHand",
      "rotation": [
        -0.00180683448,
        0.13015376,
        -0.00552968774,
        0.991476834
      ],
      "translation": [
        0.227531448,
        -1.10005857E-07,
        -5.03702573E-08
      ],
      "children": [
        17,
        19,
        21,
        23,
        25
      ]
    },
    {
      "name": "LeftHandThumb1",
      "rotation": [
        -0.19876419,
        0.167114735,
        0.2853215,
        0.922581851
      ],
      "translation": [
        0.0274281222,
        0.03112153,
        -0.0135929054
      ],
      "children": [
        18
      ]
    },
    {
      "name": "LeftHandThumb2",
      "rotation": [
        -0.0896346,
        0.07784666,
        -0.284284532,
        0.9513611
      ],
      "translation": [
        0.04291233,
        -1.13334195E-07,
        -1.56565623E-08
      ]
    },
    {
      "name": "LeftHandMiddle1",
      "rotation": [
        0.707304955,
        0.197064415,
        -0.136990935,
        0.66492033
      ],
      "translation": [
        0.08145217,
        0.007911982,
        -0.00263553532
      ],
      "children": [
        20
      ]
    },
    {
      "name": "LeftHandMiddle2",
      "rotation": [
        0.00417845836,
        -0.0204299968,
        -0.317367822,
        0.948073268
      ],
      "translation": [
        0.0444347,
        9.022176E-08,
        1.056905E-08
      ]
    },
    {
      "name": "LeftHandPinky1",
      "rotation": [
        0.7211011,
        0.263479859,
        -0.193580285,
        0.6108343
      ],
      "translation": [
        0.07933962,
        -0.0296634343,
        -0.01201509
      ],
      "children": [
        22
      ]
    },
    {
      "name": "LeftHandPinky2",
      "rotation": [
        0.0184878744,
        -0.05083879,
        -0.4494274,
        0.8916775
      ],
      "translation": [
        0.03304319,
        -1.02497545E-07,
        -1.10326177E-07
      ]
    },
    {
      "name": "LeftHandIndex1",
      "rotation": [
        0.6803568,
        0.0250814147,
        0.00299260113,
        0.7324457
      ],
      "translation": [
        0.07708407,
        0.0278740525,
        -0.005425267
      ],
      "children": [
        24
      ]
    },
    {
      "name": "LeftHandIndex2",
      "rotation": [
        0.00890767947,
        0.0384322368,
        -0.354955,
        0.9340506
      ],
      "translation": [
        0.03537525,
        7.0313E-08,
        3.64653161E-08
      ]
    },
    {
      "name": "LeftHandRing1",
      "rotation": [
        0.7206481,
        0.222556725,
        -0.173778176,
        0.6331952
      ],
      "translation": [
        0.0825009942,
        -0.0101653924,
        -0.0046344283
      ],
      "children": [
        26
      ]
    },
    {
      "name": "LeftHandRing2",
      "rotation": [
        -0.004985179,
        -0.020158276,
        -0.333269358,
        0.942603
      ],
      "translation": [
        0.0378495567,
        1.8152636E-07,
        1.01560431E-07
      ]
    },
    {
      "name": "RightShoulder",
      "rotation": [
        -0.0416565239,
        -0.8204502,
        0.0614350475,
        0.566879153
      ],
      "translation": [
        0.224282861,
        -0.00428421749,
        0.05411705
      ],
      "children": [
        28
      ]
    },
    {
      "name": "RightArm",
      "rotation": [
        -0.2447854,
        -0.4424256,
        -0.216875926,
        0.8350476
      ],
      "translation": [
        0.0927373543,
        1.63294511E-09,
        8.81816732E-07
      ],
      "children": [
        29
      ]
    },
    {
      "name": "RightForeArm",
      "rotation": [
        -0.204479486,
        0.129314482,
        0.8557373,
        0.4573615
      ],
      "translation": [
        0.238857746,
        5.239802E-09,
        -1.78977507E-06
      ],
      "children": [
        30
      ]
    },
    {
      "name": "RightHand",
      "rotation": [
        0.00140014989,
        -0.115591526,
        -0.261220664,
        0.958332062
      ],
      "translation": [
        0.227531478,
        -7.57877849E-09,
        1.01799209E-07
      ],
      "children": [
        31
      ]
    },
    {
      "name": "Spiar01",
      "rotation": [
        0.0653459951,
        -0.123313956,
        -0.760636747,
        0.6339993
      ],
      "translation": [
        0.06317314,
        0.004546473,
        0.03084628
      ]
    },
    {
      "name": "cloak1",
      "rotation": [
        -0.025788784,
        0.698372543,
        0.7141501,
        -0.040003974
      ],
      "translation": [
        0.165408656,
        -0.08733429,
        0.00185689877
      ],
      "children": [
        33
      ]
    },
    {
      "name": "cloak2",
      "rotation": [
        -0.006529785,
        0.06464938,
        0.00302922423,
        0.997882
      ],
      "translation": [
        0.117982022,
        1.99535535E-08,
        3.622549E-07
      ]
    },
    {
      "name": "LeftUpLeg",
      "rotation": [
        -0.00418767054,
        0.995422,
        0.018677488,
        -0.0936409757
      ],
      "translation": [
        0.03815673,
        -0.0192283764,
        -0.07810329
      ],
      "children": [
        35
      ]
    },
    {
      "name": "LeftLeg",
      "rotation": [
        0.262088269,
        -0.04111824,
        -0.138002783,
        0.954240143
      ],
      "translation": [
        0.428215981,
        1.3887872E-09,
        4.209066E-07
      ],
      "children": [
        36
      ]
    },
    {
      "name": "LeftFoot",
      "rotation": [
        -0.0123156868,
        -0.02937868,
        0.5239247,
        0.851168633
      ],
      "translation": [
        0.4116563,
        4.40679031E-08,
        8.136106E-08
      ]
    },
    {
      "name": "RightUpLeg",
      "rotation": [
        0.1776887,
        0.9808262,
        -0.0727408156,
        -0.033397954
      ],
      "translation": [
        0.0381567031,
        -0.0192284416,
        0.08189671
      ],
      "children": [
        38
      ]
    },
    {
      "name": "RightLeg",
      "rotation": [
        -0.118456565,
        0.07107989,
        -0.356060117,
        0.9241953
      ],
      "translation": [
        0.4282159,
        -4.67586929E-08,
        -4.505273E-07
      ],
      "children": [
        39
      ]
    },
    {
      "name": "RightFoot",
      "rotation": [
        -0.00160307286,
        -0.006667902,
        0.375731081,
        0.9267034
      ],
      "translation": [
        0.411656171,
        1.04124021E-09,
        -1.60058E-07
      ],
      "children": [
        40
      ]
    },
    {
      "name": "RightToeBase",
      "rotation": [
        -0.193034917,
        0.07504671,
        0.3999812,
        0.892816067
      ],
      "translation": [
        0.106907025,
        -7.55917551E-10,
        4.615077E-08
      ]
    }
  ],
  "accessors": [
    {
      "bufferView": 0,
      "byteOffset": 0,
      "componentType": 5125,
      "count": 2172,
      "type": "SCALAR"
    },
    {
      "bufferView": 1,
      "byteOffset": 0,
      "componentType": 5126,
      "count": 450,
      "type": "VEC3",
      "min": [
        0.0,
        0.0,
        0.0
      ],
      "max": [
        0.0,
        0.0,
        0.0
      ]
    },
    {
      "bufferView": 1,
      "byteOffset": 12,
      "componentType": 5126,
      "count": 450,
      "type": "VEC3"
    },
    {
      "bufferView": 1,
      "byteOffset": 24,
      "componentType": 5126,
      "count": 450,
      "type": "VEC2"
    },
    {
      "bufferView": 2,
      "byteOffset": 0,
      "componentType": 5125,
      "count": 11736,
      "type": "SCALAR"
    },
    {
      "bufferView": 3,
      "byteOffset": 0,
      "componentType": 5126,
      "count": 2790,
      "type": "VEC3",
      "min": [
        -0.6336913,
        -6.789735E-05,
        -0.1594873
      ],
      "max": [
        0.6717002,
        1.86296654,
        0.291486174
      ]
    },
    {
      "bufferView": 3,
      "byteOffset": 12,
      "componentType": 5126,
      "count": 2790,
      "type": "VEC3"
    },
    {
      "bufferView": 3,
      "byteOffset": 24,
      "componentType": 5126,
      "count": 2790,
      "type": "VEC2"
    },
    {
      "bufferView": 3,
      "byteOffset": 32,
      "componentType": 5126,
      "count": 2790,
      "type": "VEC4"
    },
    {
      "bufferView": 3,
      "byteOffset": 48,
      "componentType": 5121,
      "count": 2790,
      "type": "VEC4"
    },
    {
      "bufferView": 4,
      "byteOffset": 0,
      "componentType": 5126,
      "count": 32,
      "type": "MAT4"
    },
    {
      "bufferView": 5,
      "byteOffset": 0,
      "componentType": 5125,
      "count": 3351,
      "type": "SCALAR"
    },
    {
      "bufferView": 6,
      "byteOffset": 0,
      "componentType": 5126,
      "count": 713,
      "type": "VEC3",
      "min": [
        -0.05925556,
        1.512334,
        -0.08384766
      ],
      "max": [
        0.0592628457,
        1.65875971,
        -0.0103039593
      ]
    },
    {
      "bufferView": 6,
      "byteOffset": 12,
      "componentType": 5126,
      "count": 713,
      "type": "VEC3"
    },
    {
      "bufferView": 6,
      "byteOffset": 24,
      "componentType": 5126,
      "count": 713,
      "type": "VEC2"
    },
    {
      "bufferView": 6,
      "byteOffset": 32,
      "componentType": 5126,
      "count": 713,
      "type": "VEC4"
    },
    {
      "bufferView": 6,
      "byteOffset": 48,
      "componentType": 5121,
      "count": 713,
      "type": "VEC4"
    },
    {
      "bufferView": 7,
      "byteOffset": 0,
      "componentType": 5126,
      "count": 3,
      "type": "MAT4"
    },
    {
      "bufferView": 8,
      "byteOffset": 0,
      "componentType": 5125,
      "count": 1383,
      "type": "SCALAR"
    },
    {
      "bufferView": 9,
      "byteOffset": 0,
      "componentType": 5126,
      "count": 441,
      "type": "VEC3",
      "min": [
        -0.5092605,
        -0.03035474,
        -0.0843387
      ],
      "max": [
        1.34638619,
        0.02855622,
        0.08725903
      ]
    },
    {
      "bufferView": 9,
      "byteOffset": 12,
      "componentType": 5126,
      "count": 441,
      "type": "VEC3"
    },
    {
      "bufferView": 9,
      "byteOffset": 24,
      "componentType": 5126,
      "count": 441,
      "type": "VEC2"
    },
    {
      "bufferView": 9,
      "byteOffset": 32,
      "componentType": 5126,
      "count": 441,
      "type": "VEC4"
    },
    {
      "bufferView": 9,
      "byteOffset": 48,
      "componentType": 5121,
      "count": 441,
      "type": "VEC4"
    },
    {
      "bufferView": 10,
      "byteOffset": 0,
      "componentType": 5126,
      "count": 1,
      "type": "MAT4"
    },
    {
      "bufferView": 11,
      "byteOffset": 0,
      "componentType": 5125,
      "count": 60,
      "type": "SCALAR"
    },
    {
      "bufferView": 12,
      "byteOffset": 0,
      "componentType": 5126,
      "count": 24,
      "type": "VEC3",
      "min": [
        0.0,
        0.0,
        0.0
      ],
      "max": [
        0.0,
        0.0,
        0.0
      ]
    },
    {
      "bufferView": 12,
      "byteOffset": 12,
      "componentType": 5126,
      "count": 24,
      "type": "VEC3"
    },
    {
      "bufferView": 12,
      "byteOffset": 24,
      "componentType": 5126,
      "count": 24,
      "type": "VEC2"
    },
    {
      "bufferView": 13,
      "byteOffset": 0,
      "componentType": 5126,
      "count": 375,
      "type": "SCALAR",
      "min": [
        0.0
      ],
      "max": [
        12.4666672
      ]
    },
    {
      "bufferView": 14,
      "byteOffset": 0,
      "componentType": 5126,
      "count": 375,
      "type": "VEC4"
    },
    {
      "bufferView": 15,
      "byteOffset": 0,
      "componentType": 5126,
      "count": 375,
      "type": "VEC3"
    },
    {
      "bufferView": 14,
      "byteOffset": 6000,
      "componentType": 5126,
      "count": 375,
      "type": "VEC4"
    },
    {
      "bufferView": 15,
      "byteOffset": 4500,
      "componentType": 5126,
      "count": 375,
      "type": "VEC3"
    },
    {
      "bufferView": 14,
      "byteOffset": 12000,
      "componentType": 5126,
      "count": 375,
      "type": "VEC4"
    },
    {
      "bufferView": 15,
      "byteOffset": 9000,
      "componentType": 5126,
      "count": 375,
      "type": "VEC3"
    },
    {
      "bufferView": 14,
      "byteOffset": 18000,
      "componentType": 5126,
      "count": 375,
      "type": "VEC4"
    },
    {
      "bufferView": 15,
      "byteOffset": 13500,
      "componentType": 5126,
      "count": 375,
      "type": "VEC3"
    },
    {
      "bufferView": 14,
      "byteOffset": 24000,
      "componentType": 5126,
      "count": 375,
      "type": "VEC4"
    },
    {
      "bufferView": 15,
      "byteOffset": 18000,
      "componentType": 5126,
      "count": 375,
      "type": "VEC3"
    },
    {
      "bufferView": 14,
      "byteOffset": 30000,
      "componentType": 5126,
      "count": 375,
      "type": "VEC4"
    },
    {
      "bufferView": 15,
      "byteOffset": 22500,
      "componentType": 5126,
      "count": 375,
      "type": "VEC3"
    },
    {
      "bufferView": 14,
      "byteOffset": 36000,
      "componentType": 5126,
      "count": 375,
      "type": "VEC4"
    },
    {
      "bufferView": 15,
      "byteOffset": 27000,
      "componentType": 5126,
      "count": 375,
      "type": "VEC3"
    },
    {
      "bufferView": 14,
      "byteOffset": 42000,
      "componentType": 5126,
      "count": 375,
      "type": "VEC4"
    },
    {
      "bufferView": 15,
      "byteOffset": 31500,
      "componentType": 5126,
      "count": 375,
      "type": "VEC3"
    },
    {
      "bufferView": 14,
      "byteOffset": 48000,
      "componentType": 5126,
      "count": 375,
      "type": "VEC4"
    },
    {
      "bufferView": 15,
      "byteOffset": 36000,
      "componentType": 5126,
      "count": 375,
      "type": "VEC3"
    },
    {
      "bufferView": 14,
      "byteOffset": 54000,
      "componentType": 5126,
      "count": 375,
      "type": "VEC4"
    },
    {
      "bufferView": 15,
      "byteOffset": 40500,
      "componentType": 5126,
      "count": 375,
      "type": "VEC3"
    },
    {
      "bufferView": 14,
      "byteOffset": 60000,
      "componentType": 5126,
      "count": 375,
      "type": "VEC4"
    },
    {
      "bufferView": 15,
      "byteOffset": 45000,
      "componentType": 5126,
      "count": 375,
      "type": "VEC3"
    },
    {
      "bufferView": 14,
      "byteOffset": 66000,
      "componentType": 5126,
      "count": 375,
      "type": "VEC4"
    },
    {
      "bufferView": 15,
      "byteOffset": 49500,
      "componentType": 5126,
      "count": 375,
      "type": "VEC3"
    },
    {
      "bufferView": 14,
      "byteOffset": 72000,
      "componentType": 5126,
      "count": 375,
      "type": "VEC4"
    },
    {
      "bufferView": 15,
      "byteOffset": 54000,
      "componentType": 5126,
      "count": 375,
      "type": "VEC3"
    },
    {
      "bufferView": 14,
      "byteOffset": 78000,
      "componentType": 5126,
      "count": 375,
      "type": "VEC4"
    },
    {
      "bufferView": 15,
      "byteOffset": 58500,
      "componentType": 5126,
      "count": 375,
      "type": "VEC3"
    },
    {
      "bufferView": 14,
      "byteOffset": 84000,
      "componentType": 5126,
      "count": 375,
      "type": "VEC4"
    },
    {
      "bufferView": 15,
      "byteOffset": 63000,
      "componentType": 5126,
      "count": 375,
      "type": "VEC3"
    },
    {
      "bufferView": 14,
      "byteOffset": 90000,
      "componentType": 5126,
      "count": 375,
      "type": "VEC4"
    },
    {
      "bufferView": 15,
      "byteOffset": 67500,
      "componentType": 5126,
      "count": 375,
      "type": "VEC3"
    },
    {
      "bufferView": 14,
      "byteOffset": 96000,
      "componentType": 5126,
      "count": 375,
      "type": "VEC4"
    },
    {
      "bufferView": 15,
      "byteOffset": 72000,
      "componentType": 5126,
      "count": 375,
      "type": "VEC3"
    },
    {
      "bufferView": 14,
      "byteOffset": 102000,
      "componentType": 5126,
      "count": 375,
      "type": "VEC4"
    },
    {
      "bufferView": 15,
      "byteOffset": 76500,
      "componentType": 5126,
      "count": 375,
      "type": "VEC3"
    },
    {
      "bufferView": 14,
      "byteOffset": 108000,
      "componentType": 5126,
      "count": 375,
      "type": "VEC4"
    },
    {
      "bufferView": 15,
      "byteOffset": 81000,
      "componentType": 5126,
      "count": 375,
      "type": "VEC3"
    },
    {
      "bufferView": 14,
      "byteOffset": 114000,
      "componentType": 5126,
      "count": 375,
      "type": "VEC4"
    },
    {
      "bufferView": 15,
      "byteOffset": 85500,
      "componentType": 5126,
      "count": 375,
      "type": "VEC3"
    },
    {
      "bufferView": 14,
      "byteOffset": 120000,
      "componentType": 5126,
      "count": 375,
      "type": "VEC4"
    },
    {
      "bufferView": 15,
      "byteOffset": 90000,
      "componentType": 5126,
      "count": 375,
      "type": "VEC3"
    },
    {
      "bufferView": 14,
      "byteOffset": 126000,
      "componentType": 5126,
      "count": 375,
      "type": "VEC4"
    },
    {
      "bufferView": 15,
      "byteOffset": 94500,
      "componentType": 5126,
      "count": 375,
      "type": "VEC3"
    },
    {
      "bufferView": 14,
      "byteOffset": 132000,
      "componentType": 5126,
      "count": 375,
      "type": "VEC4"
    },
    {
      "bufferView": 15,
      "byteOffset": 99000,
      "componentType": 5126,
      "count": 375,
      "type": "VEC3"
    },
    {
      "bufferView": 14,
      "byteOffset": 138000,
      "componentType": 5126,
      "count": 375,
      "type": "VEC4"
    },
    {
      "bufferView": 15,
      "byteOffset": 103500,
      "componentType": 5126,
      "count": 375,
      "type": "VEC3"
    },
    {
      "bufferView": 14,
      "byteOffset": 144000,
      "componentType": 5126,
      "count": 375,
      "type": "VEC4"
    },
    {
      "bufferView": 15,
      "byteOffset": 108000,
      "componentType": 5126,
      "count": 375,
      "type": "VEC3"
    },
    {
      "bufferView": 14,
      "byteOffset": 150000,
      "componentType": 5126,
      "count": 375,
      "type": "VEC4"
    },
    {
      "bufferView": 15,
      "byteOffset": 112500,
      "componentType": 5126,
      "count": 375,
      "type": "VEC3"
    },
    {
      "bufferView": 14,
      "byteOffset": 156000,
      "componentType": 5126,
      "count": 375,
      "type": "VEC4"
    },
    {
      "bufferView": 15,
      "byteOffset": 117000,
      "componentType": 5126,
      "count": 375,
      "type": "VEC3"
    },
    {
      "bufferView": 14,
      "byteOffset": 162000,
      "componentType": 5126,
      "count": 375,
      "type": "VEC4"
    },
    {
      "bufferView": 15,
      "byteOffset": 121500,
      "componentType": 5126,
      "count": 375,
      "type": "VEC3"
    },
    {
      "bufferView": 14,
      "byteOffset": 168000,
      "componentType": 5126,
      "count": 375,
      "type": "VEC4"
    },
    {
      "bufferView": 15,
      "byteOffset": 126000,
      "componentType": 5126,
      "count": 375,
      "type": "VEC3"
    },
    {
      "bufferView": 14,
      "byteOffset": 174000,
      "componentType": 5126,
      "count": 375,
      "type": "VEC4"
    },
    {
      "bufferView": 15,
      "byteOffset": 130500,
      "componentType": 5126,
      "count": 375,
      "type": "VEC3"
    },
    {
      "bufferView": 14,
      "byteOffset": 180000,
      "componentType": 5126,
      "count": 375,
      "type": "VEC4"
    },
    {
      "bufferView": 15,
      "byteOffset": 135000,
      "componentType": 5126,
      "count": 375,
      "type": "VEC3"
    },
    {
      "bufferView": 14,
      "byteOffset": 186000,
      "componentType": 5126,
      "count": 375,
      "type": "VEC4"
    },
    {
      "bufferView": 15,
      "byteOffset": 139500,
      "componentType": 5126,
      "count": 375,
      "type": "VEC3"
    },
    {
      "bufferView": 14,
      "byteOffset": 192000,
      "componentType": 5126,
      "count": 375,
      "type": "VEC4"
    },
    {
      "bufferView": 15,
      "byteOffset": 144000,
      "componentType": 5126,
      "count": 375,
      "type": "VEC3"
    },
    {
      "bufferView": 14,
      "byteOffset": 198000,
      "componentType": 5126,
      "count": 375,
      "type": "VEC4"
    },
    {
      "bufferView": 15,
      "byteOffset": 148500,
      "componentType": 5126,
      "count": 375,
      "type": "VEC3"
    },
    {
      "bufferView": 14,
      "byteOffset": 204000,
      "componentType": 5126,
      "count": 375,
      "type": "VEC4"
    },
    {
      "bufferView": 15,
      "byteOffset": 153000,
      "componentType": 5126,
      "count": 375,
      "type": "VEC3"
    },
    {
      "bufferView": 14,
      "byteOffset": 210000,
      "componentType": 5126,
      "count": 375,
      "type": "VEC4"
    },
    {
      "bufferView": 15,
      "byteOffset": 157500,
      "componentType": 5126,
      "count": 375,
      "type": "VEC3"
    },
    {
      "bufferView": 16,
      "byteOffset": 0,
      "componentType": 5126,
      "count": 450,
      "type": "VEC3",
      "min": [
        -0.2321826,
        0.0923246741,
        -0.423790157
      ],
      "max": [
        0.255361527,
        0.932707369,
        0.593219638
      ]
    },
    {
      "bufferView": 17,
      "byteOffset": 0,
      "componentType": 5126,
      "count": 450,
      "type": "VEC3",
      "min": [
        -0.258324146,
        0.10523922,
        -0.3736887
      ],
      "max": [
        0.2131104,
        0.9891584,
        0.5399033
      ]
    },
    {
      "bufferView": 18,
      "byteOffset": 0,
      "componentType": 5126,
      "count": 450,
      "type": "VEC3",
      "min": [
        -0.275545478,
        0.08915035,
        -0.3232681
      ],
      "max": [
        0.244784281,
        1.02467155,
        0.558223
      ]
    },
    {
      "bufferView": 19,
      "byteOffset": 0,
      "componentType": 5126,
      "count": 450,
      "type": "VEC3",
      "min": [
        -0.279364467,
        0.09356098,
        -0.346471131
      ],
      "max": [
        0.300415844,
        0.9978215,
        0.5317392
      ]
    },
    {
      "bufferView": 20,
      "byteOffset": 0,
      "componentType": 5126,
      "count": 450,
      "type": "VEC3",
      "min": [
        -0.279047161,
        0.1159222,
        -0.3723033
      ],
      "max": [
        0.265518576,
        0.930307746,
        0.5416151
      ]
    },
    {
      "bufferView": 21,
      "byteOffset": 0,
      "componentType": 5126,
      "count": 450,
      "type": "VEC3",
      "min": [
        -0.277274936,
        0.130924419,
        -0.3928896
      ],
      "max": [
        0.241077319,
        0.887253165,
        0.509826541
      ]
    },
    {
      "bufferView": 22,
      "byteOffset": 0,
      "componentType": 5126,
      "count": 450,
      "type": "VEC3",
      "min": [
        -0.279168725,
        0.137689322,
        -0.438192219
      ],
      "max": [
        0.256622016,
        0.925747752,
        0.5221767
      ]
    },
    {
      "bufferView": 23,
      "byteOffset": 0,
      "componentType": 5126,
      "count": 450,
      "type": "VEC3",
      "min": [
        -0.272750527,
        0.13817668,
        -0.477319062
      ],
      "max": [
        0.2533236,
        0.9956979,
        0.5616541
      ]
    },
    {
      "bufferView": 24,
      "byteOffset": 0,
      "componentType": 5126,
      "count": 450,
      "type": "VEC3",
      "min": [
        -0.227639154,
        0.138884082,
        -0.5126471
      ],
      "max": [
        0.253052235,
        1.03249645,
        0.5860445
      ]
    },
    {
      "bufferView": 25,
      "byteOffset": 0,
      "componentType": 5126,
      "count": 450,
      "type": "VEC3",
      "min": [
        -0.226647869,
        0.15056707,
        -0.5488535
      ],
      "max": [
        0.2691571,
        1.00625622,
        0.6028732
      ]
    },
    {
      "bufferView": 26,
      "byteOffset": 0,
      "componentType": 5126,
      "count": 450,
      "type": "VEC3",
      "min": [
        -0.205471665,
        0.132731885,
        -0.5229131
      ],
      "max": [
        0.2677875,
        0.937871456,
        0.599466741
      ]
    },
    {
      "bufferView": 27,
      "byteOffset": 0,
      "componentType": 5126,
      "count": 450,
      "type": "VEC3",
      "min": [
        -0.204612523,
        0.1219478,
        -0.457260579
      ],
      "max": [
        0.2591354,
        0.903506935,
        0.592838943
      ]
    },
    {
      "bufferView": 28,
      "byteOffset": 0,
      "componentType": 5126,
      "count": 450,
      "type": "VEC3",
      "min": [
        -0.232182637,
        0.0923247,
        -0.423790127
      ],
      "max": [
        0.255361527,
        0.932707369,
        0.593219638
      ]
    },
    {
      "bufferView": 29,
      "byteOffset": 0,
      "componentType": 5126,
      "count": 24,
      "type": "VEC3",
      "min": [
        -0.077165775,
        1.37735689,
        -0.2772976
      ],
      "max": [
        0.140327781,
        1.5333755,
        -0.193188071
      ]
    },
    {
      "bufferView": 30,
      "byteOffset": 0,
      "componentType": 5126,
      "count": 24,
      "type": "VEC3",
      "min": [
        -0.08264777,
        1.433123,
        -0.274979651
      ],
      "max": [
        0.113891006,
        1.59321082,
        -0.194509
      ]
    },
    {
      "bufferView": 31,
      "byteOffset": 0,
      "componentType": 5126,
      "count": 24,
      "type": "VEC3",
      "min": [
        -0.100912169,
        1.452954,
        -0.26845336
      ],
      "max": [
        0.118342854,
        1.62305474,
        -0.171416357
      ]
    },
    {
      "bufferView": 32,
      "byteOffset": 0,
      "componentType": 5126,
      "count": 24,
      "type": "VEC3",
      "min": [
        -0.137684479,
        1.43368959,
        -0.25080955
      ],
      "max": [
        0.138684273,
        1.604081,
        -0.162691116
      ]
    },
    {
      "bufferView": 33,
      "byteOffset": 0,
      "componentType": 5126,
      "count": 24,
      "type": "VEC3",
      "min": [
        -0.16355893,
        1.38822246,
        -0.244540513
      ],
      "max": [
        0.153549388,
        1.5472064,
        -0.132609025
      ]
    },
    {
      "bufferView": 34,
      "byteOffset": 0,
      "componentType": 5126,
      "count": 24,
      "type": "VEC3",
      "min": [
        -0.168647483,
        1.35854065,
        -0.240978673
      ],
      "max": [
        0.151952,
        1.500538,
        -0.122539915
      ]
    },
    {
      "bufferView": 35,
      "byteOffset": 0,
      "componentType": 5126,
      "count": 24,
      "type": "VEC3",
      "min": [
        -0.105609618,
        1.37039685,
        -0.255050272
      ],
      "max": [
        0.0466860868,
        1.52714026,
        -0.180729762
      ]
    },
    {
      "bufferView": 36,
      "byteOffset": 0,
      "componentType": 5126,
      "count": 24,
      "type": "VEC3",
      "min": [
        -0.09491983,
        1.44762337,
        -0.2828827
      ],
      "max": [
        0.0681501552,
        1.5933882,
        -0.192897543
      ]
    },
    {
      "bufferView": 37,
      "byteOffset": 0,
      "componentType": 5126,
      "count": 24,
      "type": "VEC3",
      "min": [
        -0.09730758,
        1.47426939,
        -0.275030941
      ],
      "max": [
        0.0835883245,
        1.63505387,
        -0.1807666
      ]
    },
    {
      "bufferView": 38,
      "byteOffset": 0,
      "componentType": 5126,
      "count": 24,
      "type": "VEC3",
      "min": [
        -0.102750614,
        1.45231712,
        -0.250554383
      ],
      "max": [
        0.108542033,
        1.61837685,
        -0.174874187
      ]
    },
    {
      "bufferView": 39,
      "byteOffset": 0,
      "componentType": 5126,
      "count": 24,
      "type": "VEC3",
      "min": [
        -0.10492415,
        1.38420832,
        -0.258449972
      ],
      "max": [
        0.105583638,
        1.55795133,
        -0.15044944
      ]
    },
    {
      "bufferView": 40,
      "byteOffset": 0,
      "componentType": 5126,
      "count": 24,
      "type": "VEC3",
      "min": [
        -0.0844419,
        1.32597733,
        -0.259296864
      ],
      "max": [
        0.0997330248,
        1.51309037,
        -0.148918211
      ]
    },
    {
      "bufferView": 41,
      "byteOffset": 0,
      "componentType": 5126,
      "count": 24,
      "type": "VEC3",
      "min": [
        -0.07716574,
        1.37735689,
        -0.277297527
      ],
      "max": [
        0.1403278,
        1.53337562,
        -0.193187982
      ]
    },
    {
      "bufferView": 42,
      "componentType": 5126,
      "count": 140625,
      "type": "SCALAR"
    }
  ],
  "skins": [
    {
      "name": "skin0",
      "inverseBindMatrices": 10,
      "joints": [
        7,
        8,
        9,
        27,
        33,
        10,
        28,
        29,
        6,
        37,
        39,
        38,
        34,
        40,
        30,
        13,
        14,
        15,
        36,
        35,
        16,
        21,
        23,
        19,
        25,
        24,
        17,
        20,
        26,
        18,
        22,
        32
      ]
    },
    {
      "name": "skin1",
      "inverseBindMatrices": 17,
      "joints": [
        11,
        10,
        12
      ]
    },
    {
      "name": "skin2",
      "inverseBindMatrices": 24,
      "joints": [
        31
      ]
    }
  ],
  "meshes": [
    {
      "name": "empire_imperialpriestess_cloth",
      "primitives": [
        {
          "attributes": {
            "POSITION": 1,
            "NORMAL": 2,
            "TEXCOORD_0": 3
          },
          "indices": 0,
          "mode": 4,
          "material": 0,
          "targets": [
            {
              "POSITION": 102
            },
            {
              "POSITION": 103
            },
            {
              "POSITION": 104
            },
            {
              "POSITION": 105
            },
            {
              "POSITION": 106
            },
            {
              "POSITION": 107
            },
            {
              "POSITION": 108
            },
            {
              "POSITION": 109
            },
            {
              "POSITION": 110
            },
            {
              "POSITION": 111
            },
            {
              "POSITION": 112
            },
            {
              "POSITION": 113
            },
            {
              "POSITION": 114
            }
          ]
        }
      ],
      "weights": [
        0.0,
        0.0,
        0.0,
        0.0,
        0.0,
        0.0,
        0.0,
        0.0,
        0.0,
        0.0,
        0.0,
        0.0,
        0.0
      ]
    },
    {
      "name": "empire_imperialpriestess",
      "primitives": [
        {
          "attributes": {
            "POSITION": 5,
            "NORMAL": 6,
            "TEXCOORD_0": 7,
            "WEIGHTS_0": 8,
            "JOINTS_0": 9
          },
          "indices": 4,
          "mode": 4,
          "material": 1
        }
      ]
    },
    {
      "name": "empire_imperialpriestess_head",
      "primitives": [
        {
          "attributes": {
            "POSITION": 12,
            "NORMAL": 13,
            "TEXCOORD_0": 14,
            "WEIGHTS_0": 15,
            "JOINTS_0": 16
          },
          "indices": 11,
          "mode": 4,
          "material": 2
        }
      ]
    },
    {
      "name": "weapon_empire_imperialpreastess",
      "primitives": [
        {
          "attributes": {
            "POSITION": 19,
            "NORMAL": 20,
            "TEXCOORD_0": 21,
            "WEIGHTS_0": 22,
            "JOINTS_0": 23
          },
          "indices": 18,
          "mode": 4,
          "material": 3
        }
      ]
    },
    {
      "name": "empire_imperialpriestess_earring",
      "primitives": [
        {
          "attributes": {
            "POSITION": 26,
            "NORMAL": 27,
            "TEXCOORD_0": 28
          },
          "indices": 25,
          "mode": 4,
          "material": 4,
          "targets": [
            {
              "POSITION": 115
            },
            {
              "POSITION": 116
            },
            {
              "POSITION": 117
            },
            {
              "POSITION": 118
            },
            {
              "POSITION": 119
            },
            {
              "POSITION": 120
            },
            {
              "POSITION": 121
            },
            {
              "POSITION": 122
            },
            {
              "POSITION": 123
            },
            {
              "POSITION": 124
            },
            {
              "POSITION": 125
            },
            {
              "POSITION": 126
            },
            {
              "POSITION": 127
            }
          ]
        }
      ],
      "weights": [
        0.0,
        0.0,
        0.0,
        0.0,
        0.0,
        0.0,
        0.0,
        0.0,
        0.0,
        0.0,
        0.0,
        0.0,
        0.0
      ]
    }
  ],
  "animations": [
    {
      "channels": [
        {
          "sampler": 0,
          "target": {
            "node": 5,
            "path": "rotation"
          }
        },
        {
          "sampler": 1,
          "target": {
            "node": 5,
            "path": "translation"
          }
        },
        {
          "sampler": 2,
          "target": {
            "node": 6,
            "path": "rotation"
          }
        },
        {
          "sampler": 3,
          "target": {
            "node": 6,
            "path": "translation"
          }
        },
        {
          "sampler": 4,
          "target": {
            "node": 7,
            "path": "rotation"
          }
        },
        {
          "sampler": 5,
          "target": {
            "node": 7,
            "path": "translation"
          }
        },
        {
          "sampler": 6,
          "target": {
            "node": 8,
            "path": "rotation"
          }
        },
        {
          "sampler": 7,
          "target": {
            "node": 8,
            "path": "translation"
          }
        },
        {
          "sampler": 8,
          "target": {
            "node": 9,
            "path": "rotation"
          }
        },
        {
          "sampler": 9,
          "target": {
            "node": 9,
            "path": "translation"
          }
        },
        {
          "sampler": 10,
          "target": {
            "node": 10,
            "path": "rotation"
          }
        },
        {
          "sampler": 11,
          "target": {
            "node": 10,
            "path": "translation"
          }
        },
        {
          "sampler": 12,
          "target": {
            "node": 11,
            "path": "rotation"
          }
        },
        {
          "sampler": 13,
          "target": {
            "node": 11,
            "path": "translation"
          }
        },
        {
          "sampler": 14,
          "target": {
            "node": 12,
            "path": "rotation"
          }
        },
        {
          "sampler": 15,
          "target": {
            "node": 12,
            "path": "translation"
          }
        },
        {
          "sampler": 16,
          "target": {
            "node": 13,
            "path": "rotation"
          }
        },
        {
          "sampler": 17,
          "target": {
            "node": 13,
            "path": "translation"
          }
        },
        {
          "sampler": 18,
          "target": {
            "node": 14,
            "path": "rotation"
          }
        },
        {
          "sampler": 19,
          "target": {
            "node": 14,
            "path": "translation"
          }
        },
        {
          "sampler": 20,
          "target": {
            "node": 15,
            "path": "rotation"
          }
        },
        {
          "sampler": 21,
          "target": {
            "node": 15,
            "path": "translation"
          }
        },
        {
          "sampler": 22,
          "target": {
            "node": 16,
            "path": "rotation"
          }
        },
        {
          "sampler": 23,
          "target": {
            "node": 16,
            "path": "translation"
          }
        },
        {
          "sampler": 24,
          "target": {
            "node": 17,
            "path": "rotation"
          }
        },
        {
          "sampler": 25,
          "target": {
            "node": 17,
            "path": "translation"
          }
        },
        {
          "sampler": 26,
          "target": {
            "node": 18,
            "path": "rotation"
          }
        },
        {
          "sampler": 27,
          "target": {
            "node": 18,
            "path": "translation"
          }
        },
        {
          "sampler": 28,
          "target": {
            "node": 19,
            "path": "rotation"
          }
        },
        {
          "sampler": 29,
          "target": {
            "node": 19,
            "path": "translation"
          }
        },
        {
          "sampler": 30,
          "target": {
            "node": 20,
            "path": "rotation"
          }
        },
        {
          "sampler": 31,
          "target": {
            "node": 20,
            "path": "translation"
          }
        },
        {
          "sampler": 32,
          "target": {
            "node": 21,
            "path": "rotation"
          }
        },
        {
          "sampler": 33,
          "target": {
            "node": 21,
            "path": "translation"
          }
        },
        {
          "sampler": 34,
          "target": {
            "node": 22,
            "path": "rotation"
          }
        },
        {
          "sampler": 35,
          "target": {
            "node": 22,
            "path": "translation"
          }
        },
        {
          "sampler": 36,
          "target": {
            "node": 23,
            "path": "rotation"
          }
        },
        {
          "sampler": 37,
          "target": {
            "node": 23,
            "path": "translation"
          }
        },
        {
          "sampler": 38,
          "target": {
            "node": 24,
            "path": "rotation"
          }
        },
        {
          "sampler": 39,
          "target": {
            "node": 24,
            "path": "translation"
          }
        },
        {
          "sampler": 40,
          "target": {
            "node": 25,
            "path": "rotation"
          }
        },
        {
          "sampler": 41,
          "target": {
            "node": 25,
            "path": "translation"
          }
        },
        {
          "sampler": 42,
          "target": {
            "node": 26,
            "path": "rotation"
          }
        },
        {
          "sampler": 43,
          "target": {
            "node": 26,
            "path": "translation"
          }
        },
        {
          "sampler": 44,
          "target": {
            "node": 27,
            "path": "rotation"
          }
        },
        {
          "sampler": 45,
          "target": {
            "node": 27,
            "path": "translation"
          }
        },
        {
          "sampler": 46,
          "target": {
            "node": 28,
            "path": "rotation"
          }
        },
        {
          "sampler": 47,
          "target": {
            "node": 28,
            "path": "translation"
          }
        },
        {
          "sampler": 48,
          "target": {
            "node": 29,
            "path": "rotation"
          }
        },
        {
          "sampler": 49,
          "target": {
            "node": 29,
            "path": "translation"
          }
        },
        {
          "sampler": 50,
          "target": {
            "node": 30,
            "path": "rotation"
          }
        },
        {
          "sampler": 51,
          "target": {
            "node": 30,
            "path": "translation"
          }
        },
        {
          "sampler": 52,
          "target": {
            "node": 31,
            "path": "rotation"
          }
        },
        {
          "sampler": 53,
          "target": {
            "node": 31,
            "path": "translation"
          }
        },
        {
          "sampler": 54,
          "target": {
            "node": 32,
            "path": "rotation"
          }
        },
        {
          "sampler": 55,
          "target": {
            "node": 32,
            "path": "translation"
          }
        },
        {
          "sampler": 56,
          "target": {
            "node": 33,
            "path": "rotation"
          }
        },
        {
          "sampler": 57,
          "target": {
            "node": 33,
            "path": "translation"
          }
        },
        {
          "sampler": 58,
          "target": {
            "node": 34,
            "path": "rotation"
          }
        },
        {
          "sampler": 59,
          "target": {
            "node": 34,
            "path": "translation"
          }
        },
        {
          "sampler": 60,
          "target": {
            "node": 35,
            "path": "rotation"
          }
        },
        {
          "sampler": 61,
          "target": {
            "node": 35,
            "path": "translation"
          }
        },
        {
          "sampler": 62,
          "target": {
            "node": 36,
            "path": "rotation"
          }
        },
        {
          "sampler": 63,
          "target": {
            "node": 36,
            "path": "translation"
          }
        },
        {
          "sampler": 64,
          "target": {
            "node": 37,
            "path": "rotation"
          }
        },
        {
          "sampler": 65,
          "target": {
            "node": 37,
            "path": "translation"
          }
        },
        {
          "sampler": 66,
          "target": {
            "node": 38,
            "path": "rotation"
          }
        },
        {
          "sampler": 67,
          "target": {
            "node": 38,
            "path": "translation"
          }
        },
        {
          "sampler": 68,
          "target": {
            "node": 39,
            "path": "rotation"
          }
        },
        {
          "sampler": 69,
          "target": {
            "node": 39,
            "path": "translation"
          }
        },
        {
          "sampler": 70,
          "target": {
            "node": 40,
            "path": "rotation"
          }
        },
        {
          "sampler": 71,
          "target": {
            "node": 40,
            "path": "translation"
          }
        },
        {
          "sampler": 72,
          "target": {
            "node": 0,
            "path": "weights"
          }
        },
        {
          "sampler": 73,
          "target": {
            "node": 4,
            "path": "weights"
          }
        }
      ],
      "samplers": [
        {
          "input": 29,
          "output": 30,
          "interpolation": "LINEAR"
        },
        {
          "input": 29,
          "output": 31,
          "interpolation": "LINEAR"
        },
        {
          "input": 29,
          "output": 32,
          "interpolation": "LINEAR"
        },
        {
          "input": 29,
          "output": 33,
          "interpolation": "LINEAR"
        },
        {
          "input": 29,
          "output": 34,
          "interpolation": "LINEAR"
        },
        {
          "input": 29,
          "output": 35,
          "interpolation": "LINEAR"
        },
        {
          "input": 29,
          "output": 36,
          "interpolation": "LINEAR"
        },
        {
          "input": 29,
          "output": 37,
          "interpolation": "LINEAR"
        },
        {
          "input": 29,
          "output": 38,
          "interpolation": "LINEAR"
        },
        {
          "input": 29,
          "output": 39,
          "interpolation": "LINEAR"
        },
        {
          "input": 29,
          "output": 40,
          "interpolation": "LINEAR"
        },
        {
          "input": 29,
          "output": 41,
          "interpolation": "LINEAR"
        },
        {
          "input": 29,
          "output": 42,
          "interpolation": "LINEAR"
        },
        {
          "input": 29,
          "output": 43,
          "interpolation": "LINEAR"
        },
        {
          "input": 29,
          "output": 44,
          "interpolation": "LINEAR"
        },
        {
          "input": 29,
          "output": 45,
          "interpolation": "LINEAR"
        },
        {
          "input": 29,
          "output": 46,
          "interpolation": "LINEAR"
        },
        {
          "input": 29,
          "output": 47,
          "interpolation": "LINEAR"
        },
        {
          "input": 29,
          "output": 48,
          "interpolation": "LINEAR"
        },
        {
          "input": 29,
          "output": 49,
          "interpolation": "LINEAR"
        },
        {
          "input": 29,
          "output": 50,
          "interpolation": "LINEAR"
        },
        {
          "input": 29,
          "output": 51,
          "interpolation": "LINEAR"
        },
        {
          "input": 29,
          "output": 52,
          "interpolation": "LINEAR"
        },
        {
          "input": 29,
          "output": 53,
          "interpolation": "LINEAR"
        },
        {
          "input": 29,
          "output": 54,
          "interpolation": "LINEAR"
        },
        {
          "input": 29,
          "output": 55,
          "interpolation": "LINEAR"
        },
        {
          "input": 29,
          "output": 56,
          "interpolation": "LINEAR"
        },
        {
          "input": 29,
          "output": 57,
          "interpolation": "LINEAR"
        },
        {
          "input": 29,
          "output": 58,
          "interpolation": "LINEAR"
        },
        {
          "input": 29,
          "output": 59,
          "interpolation": "LINEAR"
        },
        {
          "input": 29,
          "output": 60,
          "interpolation": "LINEAR"
        },
        {
          "input": 29,
          "output": 61,
          "interpolation": "LINEAR"
        },
        {
          "input": 29,
          "output": 62,
          "interpolation": "LINEAR"
        },
        {
          "input": 29,
          "output": 63,
          "interpolation": "LINEAR"
        },
        {
          "input": 29,
          "output": 64,
          "interpolation": "LINEAR"
        },
        {
          "input": 29,
          "output": 65,
          "interpolation": "LINEAR"
        },
        {
          "input": 29,
          "output": 66,
          "interpolation": "LINEAR"
        },
        {
          "input": 29,
          "output": 67,
          "interpolation": "LINEAR"
        },
        {
          "input": 29,
          "output": 68,
          "interpolation": "LINEAR"
        },
        {
          "input": 29,
          "output": 69,
          "interpolation": "LINEAR"
        },
        {
          "input": 29,
          "output": 70,
          "interpolation": "LINEAR"
        },
        {
          "input": 29,
          "output": 71,
          "interpolation": "LINEAR"
        },
        {
          "input": 29,
          "output": 72,
          "interpolation": "LINEAR"
        },
        {
          "input": 29,
          "output": 73,
          "interpolation": "LINEAR"
        },
        {
          "input": 29,
          "output": 74,
          "interpolation": "LINEAR"
        },
        {
          "input": 29,
          "output": 75,
          "interpolation": "LINEAR"
        },
        {
          "input": 29,
          "output": 76,
          "interpolation": "LINEAR"
        },
        {
          "input": 29,
          "output": 77,
          "interpolation": "LINEAR"
        },
        {
          "input": 29,
          "output": 78,
          "interpolation": "LINEAR"
        },
        {
          "input": 29,
          "output": 79,
          "interpolation": "LINEAR"
        },
        {
          "input": 29,
          "output": 80,
          "interpolation": "LINEAR"
        },
        {
          "input": 29,
          "output": 81,
          "interpolation": "LINEAR"
        },
        {
          "input": 29,
          "output": 82,
          "interpolation": "LINEAR"
        },
        {
          "input": 29,
          "output": 83,
          "interpolation": "LINEAR"
        },
        {
          "input": 29,
          "output": 84,
          "interpolation": "LINEAR"
        },
        {
          "input": 29,
          "output": 85,
          "interpolation": "LINEAR"
        },
        {
          "input": 29,
          "output": 86,
          "interpolation": "LINEAR"
        },
        {
          "input": 29,
          "output": 87,
          "interpolation": "LINEAR"
        },
        {
          "input": 29,
          "output": 88,
          "interpolation": "LINEAR"
        },
        {
          "input": 29,
          "output": 89,
          "interpolation": "LINEAR"
        },
        {
          "input": 29,
          "output": 90,
          "interpolation": "LINEAR"
        },
        {
          "input": 29,
          "output": 91,
          "interpolation": "LINEAR"
        },
        {
          "input": 29,
          "output": 92,
          "interpolation": "LINEAR"
        },
        {
          "input": 29,
          "output": 93,
          "interpolation": "LINEAR"
        },
        {
          "input": 29,
          "output": 94,
          "interpolation": "LINEAR"
        },
        {
          "input": 29,
          "output": 95,
          "interpolation": "LINEAR"
        },
        {
          "input": 29,
          "output": 96,
          "interpolation": "LINEAR"
        },
        {
          "input": 29,
          "output": 97,
          "interpolation": "LINEAR"
        },
        {
          "input": 29,
          "output": 98,
          "interpolation": "LINEAR"
        },
        {
          "input": 29,
          "output": 99,
          "interpolation": "LINEAR"
        },
        {
          "input": 29,
          "output": 100,
          "interpolation": "LINEAR"
        },
        {
          "input": 29,
          "output": 101,
          "interpolation": "LINEAR"
        },
        {
          "input": 29,
          "output": 128,
          "interpolation": "LINEAR"
        },
        {
          "input": 29,
          "output": 128,
          "interpolation": "LINEAR"
        }
      ]
    }
  ],
  "bufferViews": [
    {
      "name": "mesh_indexes_empire_imperialpriestess_cloth",
      "buffer": 0,
      "byteOffset": 0,
      "byteLength": 8688,
      "target": 34963
    },
    {
      "name": "mesh_vertexes_empire_imperialpriestess_cloth",
      "buffer": 0,
      "byteOffset": 8688,
      "byteLength": 14400,
      "byteStride": 32,
      "target": 34962
    },
    {
      "name": "mesh_indexes_empire_imperialpriestess",
      "buffer": 0,
      "byteOffset": 23088,
      "byteLength": 46944,
      "target": 34963
    },
    {
      "name": "mesh_vertexes_empire_imperialpriestess",
      "buffer": 0,
      "byteOffset": 70032,
      "byteLength": 145080,
      "byteStride": 52,
      "target": 34962
    },
    {
      "name": "mesh_bones_empire_imperialpriestess",
      "buffer": 0,
      "byteOffset": 215112,
      "byteLength": 2048
    },
    {
      "name": "mesh_indexes_empire_imperialpriestess_head",
      "buffer": 0,
      "byteOffset": 217160,
      "byteLength": 13404,
      "target": 34963
    },
    {
      "name": "mesh_vertexes_empire_imperialpriestess_head",
      "buffer": 0,
      "byteOffset": 230564,
      "byteLength": 37076,
      "byteStride": 52,
      "target": 34962
    },
    {
      "name": "mesh_bones_empire_imperialpriestess_head",
      "buffer": 0,
      "byteOffset": 267640,
      "byteLength": 192
    },
    {
      "name": "mesh_indexes_weapon_empire_imperialpreastess",
      "buffer": 0,
      "byteOffset": 267832,
      "byteLength": 5532,
      "target": 34963
    },
    {
      "name": "mesh_vertexes_weapon_empire_imperialpreastess",
      "buffer": 0,
      "byteOffset": 273364,
      "byteLength": 22932,
      "byteStride": 52,
      "target": 34962
    },
    {
      "name": "mesh_bones_weapon_empire_imperialpreastess",
      "buffer": 0,
      "byteOffset": 296296,
      "byteLength": 64
    },
    {
      "name": "mesh_indexes_empire_imperialpriestess_earring",
      "buffer": 0,
      "byteOffset": 296360,
      "byteLength": 240,
      "target": 34963
    },
    {
      "name": "mesh_vertexes_empire_imperialpriestess_earring",
      "buffer": 0,
      "byteOffset": 296600,
      "byteLength": 768,
      "byteStride": 32,
      "target": 34962
    },
    {
      "name": "frames",
      "buffer": 0,
      "byteOffset": 297368,
      "byteLength": 1500
    },
    {
      "name": "bones_rotate",
      "buffer": 0,
      "byteOffset": 298868,
      "byteLength": 216000
    },
    {
      "name": "bones_translate",
      "buffer": 0,
      "byteOffset": 514868,
      "byteLength": 162000
    },
    {
      "name": "morph_empire_imperialpriestess_cloth_0",
      "buffer": 0,
      "byteOffset": 676868,
      "byteLength": 5400,
      "target": 34962
    },
    {
      "name": "morph_empire_imperialpriestess_cloth_1",
      "buffer": 0,
      "byteOffset": 682268,
      "byteLength": 5400,
      "target": 34962
    },
    {
      "name": "morph_empire_imperialpriestess_cloth_2",
      "buffer": 0,
      "byteOffset": 687668,
      "byteLength": 5400,
      "target": 34962
    },
    {
      "name": "morph_empire_imperialpriestess_cloth_3",
      "buffer": 0,
      "byteOffset": 693068,
      "byteLength": 5400,
      "target": 34962
    },
    {
      "name": "morph_empire_imperialpriestess_cloth_4",
      "buffer": 0,
      "byteOffset": 698468,
      "byteLength": 5400,
      "target": 34962
    },
    {
      "name": "morph_empire_imperialpriestess_cloth_5",
      "buffer": 0,
      "byteOffset": 703868,
      "byteLength": 5400,
      "target": 34962
    },
    {
      "name": "morph_empire_imperialpriestess_cloth_6",
      "buffer": 0,
      "byteOffset": 709268,
      "byteLength": 5400,
      "target": 34962
    },
    {
      "name": "morph_empire_imperialpriestess_cloth_7",
      "buffer": 0,
      "byteOffset": 714668,
      "byteLength": 5400,
      "target": 34962
    },
    {
      "name": "morph_empire_imperialpriestess_cloth_8",
      "buffer": 0,
      "byteOffset": 720068,
      "byteLength": 5400,
      "target": 34962
    },
    {
      "name": "morph_empire_imperialpriestess_cloth_9",
      "buffer": 0,
      "byteOffset": 725468,
      "byteLength": 5400,
      "target": 34962
    },
    {
      "name": "morph_empire_imperialpriestess_cloth_10",
      "buffer": 0,
      "byteOffset": 730868,
      "byteLength": 5400,
      "target": 34962
    },
    {
      "name": "morph_empire_imperialpriestess_cloth_11",
      "buffer": 0,
      "byteOffset": 736268,
      "byteLength": 5400,
      "target": 34962
    },
    {
      "name": "morph_empire_imperialpriestess_cloth_12",
      "buffer": 0,
      "byteOffset": 741668,
      "byteLength": 5400,
      "target": 34962
    },
    {
      "name": "morph_empire_imperialpriestess_earring_0",
      "buffer": 0,
      "byteOffset": 747068,
      "byteLength": 288,
      "target": 34962
    },
    {
      "name": "morph_empire_imperialpriestess_earring_1",
      "buffer": 0,
      "byteOffset": 747356,
      "byteLength": 288,
      "target": 34962
    },
    {
      "name": "morph_empire_imperialpriestess_earring_2",
      "buffer": 0,
      "byteOffset": 747644,
      "byteLength": 288,
      "target": 34962
    },
    {
      "name": "morph_empire_imperialpriestess_earring_3",
      "buffer": 0,
      "byteOffset": 747932,
      "byteLength": 288,
      "target": 34962
    },
    {
      "name": "morph_empire_imperialpriestess_earring_4",
      "buffer": 0,
      "byteOffset": 748220,
      "byteLength": 288,
      "target": 34962
    },
    {
      "name": "morph_empire_imperialpriestess_earring_5",
      "buffer": 0,
      "byteOffset": 748508,
      "byteLength": 288,
      "target": 34962
    },
    {
      "name": "morph_empire_imperialpriestess_earring_6",
      "buffer": 0,
      "byteOffset": 748796,
      "byteLength": 288,
      "target": 34962
    },
    {
      "name": "morph_empire_imperialpriestess_earring_7",
      "buffer": 0,
      "byteOffset": 749084,
      "byteLength": 288,
      "target": 34962
    },
    {
      "name": "morph_empire_imperialpriestess_earring_8",
      "buffer": 0,
      "byteOffset": 749372,
      "byteLength": 288,
      "target": 34962
    },
    {
      "name": "morph_empire_imperialpriestess_earring_9",
      "buffer": 0,
      "byteOffset": 749660,
      "byteLength": 288,
      "target": 34962
    },
    {
      "name": "morph_empire_imperialpriestess_earring_10",
      "buffer": 0,
      "byteOffset": 749948,
      "byteLength": 288,
      "target": 34962
    },
    {
      "name": "morph_empire_imperialpriestess_earring_11",
      "buffer": 0,
      "byteOffset": 750236,
      "byteLength": 288,
      "target": 34962
    },
    {
      "name": "morph_empire_imperialpriestess_earring_12",
      "buffer": 0,
      "byteOffset": 750524,
      "byteLength": 288,
      "target": 34962
    },
    {
      "name": "morph_weights",
      "buffer": 0,
      "byteOffset": 750812,
      "byteLength": 562500
    }
  ],
  "buffers": [
    {
      "uri": "character_empire_imperialpriestess.bin",
      "byteLength": 1313312
    }
  ],
  "images": [
    {
      "uri": "character_empire_imperialpriestess.dds"
    },
    {
      "uri": "character_empire_imperialpriestess_head.dds"
    },
    {
      "uri": "weapon_empire_imperialpriestess.dds"
    },
    {
      "uri": "character_empire_imperialpriestess_clips.dds"
    }
  ],
  "textures": [
    {
      "source": 0
    },
    {
      "source": 1
    },
    {
      "source": 2
    },
    {
      "source": 3
    }
  ],
  "materials": [
    {
      "name": "material0",
      "alphaMode": "MASK",
      "pbrMetallicRoughness": {
        "baseColorTexture": {
          "index": 0,
          "texCoord": 0
        },
        "metallicFactor": 0.0
      },
      "emissiveFactor": [
        0.0,
        0.0,
        0.0
      ]
    },
    {
      "name": "material1",
      "alphaMode": "MASK",
      "pbrMetallicRoughness": {
        "baseColorTexture": {
          "index": 0,
          "texCoord": 0
        },
        "metallicFactor": 0.0
      },
      "emissiveFactor": [
        0.0,
        0.0,
        0.0
      ]
    },
    {
      "name": "material2",
      "alphaMode": "MASK",
      "pbrMetallicRoughness": {
        "baseColorTexture": {
          "index": 1,
          "texCoord": 0
        },
        "metallicFactor": 0.0
      },
      "emissiveFactor": [
        0.0,
        0.0,
        0.0
      ]
    },
    {
      "name": "material3",
      "alphaMode": "MASK",
      "pbrMetallicRoughness": {
        "baseColorTexture": {
          "index": 2,
          "texCoord": 0
        },
        "metallicFactor": 0.0
      },
      "emissiveFactor": [
        0.0,
        0.0,
        0.0
      ]
    },
    {
      "name": "material4",
      "alphaMode": "MASK",
      "pbrMetallicRoughness": {
        "baseColorTexture": {
          "index": 3,
          "texCoord": 0
        },
        "metallicFactor": 0.0
      },
      "emissiveFactor": [
        0.0,
        0.0,
        0.0
      ]
    }
  ]
}